<svg xmlns="http://www.w3.org/2000/svg" xmlns:xlink="http://www.w3.org/1999/xlink" width="108" height="108" viewBox="0 0 108 108">
  <defs>
    <filter id="Trazado_978624" x="0" y="0" width="108" height="108" filterUnits="userSpaceOnUse">
      <feOffset dy="3" input="SourceAlpha"/>
      <feGaussianBlur stdDeviation="3" result="blur"/>
      <feFlood flood-opacity="0.161"/>
      <feComposite operator="in" in2="blur"/>
      <feComposite in="SourceGraphic"/>
    </filter>
  </defs>
  <g id="Grupo_1207346" data-name="Grupo 1207346" transform="translate(-197 -450)">
    <g id="Grupo_1201499" data-name="Grupo 1201499" transform="translate(206 456)">
      <g id="Grupo_1181203" data-name="Grupo 1181203" transform="translate(0)">
        <g id="Grupo_1172348" data-name="Grupo 1172348">
          <g id="Grupo_1171897" data-name="Grupo 1171897">
            <g id="Grupo_1171052" data-name="Grupo 1171052">
              <g id="Grupo_1164581" data-name="Grupo 1164581">
                <g id="Grupo_1144123" data-name="Grupo 1144123">
                  <g transform="matrix(1, 0, 0, 1, -9, -6)" filter="url(#Trazado_978624)">
                    <g id="Trazado_978624-2" data-name="Trazado 978624" transform="translate(9 6)" fill="#effbfe">
                      <path d="M 45 88.5 C 39.12687683105469 88.5 33.43022537231445 87.35007476806641 28.06830024719238 85.08217620849609 C 22.88852500915527 82.89131164550781 18.23629951477051 79.75458526611328 14.2408504486084 75.75914764404297 C 10.24541282653809 71.76370239257812 7.108687400817871 67.11147308349609 4.917825222015381 61.93170166015625 C 2.649924993515015 56.56977462768555 1.5 50.87312316894531 1.5 45 C 1.5 39.12687683105469 2.649924993515015 33.43022537231445 4.917825222015381 28.06830024719238 C 7.108687400817871 22.88852500915527 10.24541282653809 18.23629951477051 14.2408504486084 14.2408504486084 C 18.23629951477051 10.24541282653809 22.88852500915527 7.108687400817871 28.06830024719238 4.917825222015381 C 33.43022537231445 2.649924993515015 39.12687683105469 1.5 45 1.5 C 50.87312316894531 1.5 56.56977462768555 2.649924993515015 61.93170166015625 4.917825222015381 C 67.11147308349609 7.108687400817871 71.76370239257812 10.24541282653809 75.75914764404297 14.2408504486084 C 79.75458526611328 18.23629951477051 82.89131164550781 22.88852500915527 85.08217620849609 28.06830024719238 C 87.35007476806641 33.43022537231445 88.5 39.12687683105469 88.5 45 C 88.5 50.87312316894531 87.35007476806641 56.56977462768555 85.08217620849609 61.93170166015625 C 82.89131164550781 67.11147308349609 79.75458526611328 71.76370239257812 75.75914764404297 75.75914764404297 C 71.76370239257812 79.75458526611328 67.11147308349609 82.89131164550781 61.93170166015625 85.08217620849609 C 56.56977462768555 87.35007476806641 50.87312316894531 88.5 45 88.5 Z" stroke="none"/>
                      <path d="M 45 3 C 39.32871246337891 3 33.82865524291992 4.110054016113281 28.65262985229492 6.299339294433594 C 23.65165710449219 8.414573669433594 19.15968322753906 11.44334411621094 15.301513671875 15.301513671875 C 11.44334411621094 19.15968322753906 8.414573669433594 23.65165710449219 6.299339294433594 28.65262985229492 C 4.110054016113281 33.82865524291992 3 39.32871246337891 3 45 C 3 50.67128753662109 4.110054016113281 56.17134475708008 6.299339294433594 61.34737396240234 C 8.414573669433594 66.34834289550781 11.44334411621094 70.84031677246094 15.301513671875 74.698486328125 C 19.15968322753906 78.55665588378906 23.65165710449219 81.58542633056641 28.65262985229492 83.70066070556641 C 33.82865524291992 85.88994598388672 39.32871246337891 87 45 87 C 50.67128753662109 87 56.17134475708008 85.88994598388672 61.34737396240234 83.70066070556641 C 66.34834289550781 81.58542633056641 70.84031677246094 78.55665588378906 74.698486328125 74.698486328125 C 78.55665588378906 70.84031677246094 81.58542633056641 66.34834289550781 83.70066070556641 61.34737396240234 C 85.88994598388672 56.17134475708008 87 50.67128753662109 87 45 C 87 39.32871246337891 85.88994598388672 33.82865524291992 83.70066070556641 28.65262985229492 C 81.58542633056641 23.65165710449219 78.55665588378906 19.15968322753906 74.698486328125 15.301513671875 C 70.84031677246094 11.44334411621094 66.34834289550781 8.414573669433594 61.34737396240234 6.299339294433594 C 56.17134475708008 4.110054016113281 50.67128753662109 3 45 3 M 45 0 C 69.85281372070312 0 90 20.14718627929688 90 45 C 90 69.85281372070312 69.85281372070312 90 45 90 C 20.14718627929688 90 0 69.85281372070312 0 45 C 0 20.14718627929688 20.14718627929688 0 45 0 Z" stroke="none" fill="#397b86"/>
                    </g>
                  </g>
                </g>
              </g>
            </g>
          </g>
        </g>
      </g>
    </g>
    <g id="international-literacy-day" transform="translate(209.296 452.054)">
      <g id="Grupo_1207344" data-name="Grupo 1207344" transform="translate(1.629 1.632)">
        <path id="Trazado_1076436" data-name="Trazado 1076436" d="M36,388.743c11.837-3.978,25.165-8,35.839.232,10.675-8.236,24-4.21,35.839-.232v-7.676c-11.294-3.026-26-9.842-35.839,0C62,371.224,47.3,378.04,36,381.067Z" transform="translate(-31.766 -316.326)" fill="#e8eaf0" fill-rule="evenodd"/>
        <path id="Trazado_1076437" data-name="Trazado 1076437" d="M50.077,431.285c-10.675-8.236-24-4.21-35.839-.232-1.436.483-2.851.965-4.236,1.424l1.686,6.309c10.909-2.923,26.747-10.173,36.078-.843h4.623c9.33-9.33,25.169-2.08,36.078.843l1.686-6.309c-1.385-.459-2.8-.941-4.236-1.424C74.079,427.075,60.752,423.048,50.077,431.285Z" transform="translate(-10.002 -358.636)" fill="#b278d3" fill-rule="evenodd"/>
        <path id="Trazado_1076438" data-name="Trazado 1076438" d="M283.594,38.871a26.88,26.88,0,0,0-25.585-28.7v.042c1.128,2.588-3.766,6.512,1.165,9.417,2.537,1.494,2.429,3.1-.051,3.761a2.514,2.514,0,0,0,.043,4.989c6.185,0,3.508,5.8,5.941,9.062,1.321,1.769,4.518,2.36,4.906-.137.636-4.09,2.375-2.46,4.26-3.245,2.745-1.144,1.858,3.405,4.491,4.925,2.045,1.18,3.983.109,4.588-.053Z" transform="translate(-216.702 -10.147)" fill="#cbe558" fill-rule="evenodd"/>
        <path id="Trazado_1076439" data-name="Trazado 1076439" d="M120.623,28.24a2.514,2.514,0,0,1-.044-4.989c2.48-.665,2.588-2.267.051-3.761-4.931-2.9-.037-6.829-1.165-9.417V10.03A26.881,26.881,0,0,0,91.422,34.962h.426c3.038-.772,3.984,1.064,5.593-1.2.859-1.208,2.265-2.837,3.81-2.429.91.24,1.83,1.157,1.465,2.955-.389,1.916-.365,4.039,1.526,4.4,2.06.394,3.017-2.161,4.8-3.944,1.858-1.858,4.92-.745,4.734,2.282-.129,2.086-1.22,3.337-3.332,5.157a12.444,12.444,0,0,0-3.984,4.787c-1.261,3.213-4.256,7.827-6.421,9.077l-.32.32A26.88,26.88,0,0,0,145.05,38.726l-.242.065c-.605.162-2.543,1.234-4.588.053-2.633-1.52-1.746-6.069-4.491-4.925-1.885.786-3.624-.845-4.26,3.245-.388,2.5-3.585,1.906-4.906.137-2.433-3.259.244-9.062-5.941-9.062Z" transform="translate(-78.158 -10.002)" fill="#66e0f7" fill-rule="evenodd"/>
        <path id="Trazado_1076440" data-name="Trazado 1076440" d="M113.423,146.315c.187-3.028-2.876-4.14-4.734-2.282-1.783,1.783-2.741,4.338-4.8,3.944-1.891-.361-1.915-2.484-1.526-4.4.365-1.8-.555-2.715-1.465-2.955-1.545-.408-2.951,1.221-3.81,2.429-1.609,2.263-2.555.427-5.593,1.2h-.426a26.818,26.818,0,0,0,7.8,20.925q.244.244.492.48l.32-.32c2.165-1.25,5.16-5.864,6.421-9.077a12.444,12.444,0,0,1,3.984-4.787c2.113-1.819,3.2-3.07,3.332-5.157Z" transform="translate(-77.806 -119.289)" fill="#cbe558" fill-rule="evenodd"/>
      </g>
      <g id="Grupo_1207345" data-name="Grupo 1207345" transform="translate(-0.001 0.003)">
        <path id="Trazado_1076441" data-name="Trazado 1076441" d="M82.291,380.251c-.907-.3-1.826-.611-2.756-.925l-.363-.122V372.7a1.629,1.629,0,0,0-1.207-1.574c-1.705-.457-3.478-1-5.354-1.571-5.091-1.554-10.86-3.316-16.345-3.578-5.915-.282-10.694,1.192-14.563,4.5-3.869-3.311-8.649-4.786-14.563-4.5-5.484.262-11.254,2.024-16.345,3.578-1.876.573-3.648,1.114-5.354,1.571A1.629,1.629,0,0,0,4.235,372.7V379.2l-.37.125c-.927.313-1.845.623-2.749.923a1.629,1.629,0,0,0-1.061,1.967l1.686,6.309a1.629,1.629,0,0,0,2,1.153c1.79-.48,3.678-1.064,5.677-1.682,4.967-1.537,10.6-3.278,15.766-3.642,5.659-.4,9.931.93,13.061,4.059a1.629,1.629,0,0,0,1.152.477h4.623a1.63,1.63,0,0,0,1.152-.477c3.13-3.13,7.4-4.457,13.061-4.059,5.17.364,10.8,2.105,15.766,3.642,2,.618,3.887,1.2,5.677,1.682a1.629,1.629,0,0,0,2-1.153l1.686-6.309a1.629,1.629,0,0,0-1.061-1.967ZM71.66,372.669c1.471.449,2.879.879,4.254,1.269v4.177a74.3,74.3,0,0,0-15.8-3.76c-6.515-.634-12.037.411-16.781,3.188v-4.151h0C50.96,366.349,61.944,369.7,71.66,372.669Zm7.285,13.425c-1.27-.368-2.6-.78-3.987-1.208-10.3-3.187-23.073-7.138-31.6.749H40.048c-8.525-7.887-21.3-3.936-31.6-.749-1.385.429-2.717.841-3.987,1.208L3.6,382.857l1.309-.441c3.3-1.113,6.7-2.263,10.136-3.179a1.629,1.629,0,1,0-.84-3.148c-2.271.606-4.511,1.3-6.709,2.027v-4.177c1.376-.39,2.783-.819,4.254-1.269,9.715-2.966,20.7-6.319,28.327.722h0v4.148a24.642,24.642,0,0,0-10.826-3.277A1.629,1.629,0,0,0,29,377.512a21.166,21.166,0,0,1,11.705,4.383,1.63,1.63,0,0,0,1.99,0c10.429-8.046,23.9-3.5,35.794.518l1.317.444Z" transform="translate(0.001 -306.327)"/>
        <path id="Trazado_1076442" data-name="Trazado 1076442" d="M125.463,418.733h0a1.629,1.629,0,1,0,1.63,1.629A1.628,1.628,0,0,0,125.461,418.733Z" transform="translate(-103.66 -350.519)"/>
        <path id="Trazado_1076443" data-name="Trazado 1076443" d="M109.511,57.02A28.509,28.509,0,0,0,129.669,8.353,28.509,28.509,0,0,0,89.352,48.67,28.323,28.323,0,0,0,109.511,57.02Zm25.25-28.509q0,.325-.008.65a2.829,2.829,0,0,1-2.441-.1,4.154,4.154,0,0,1-1.346-2.229,4.412,4.412,0,0,0-2.086-2.873,3.1,3.1,0,0,0-2.5.084,3.118,3.118,0,0,1-1.043.149c-1.716.068-3.6.466-4.2,4.349-.038.247-.088.259-.151.275a2.185,2.185,0,0,1-1.84-.862,7.508,7.508,0,0,1-.987-3.384c-.355-2.521-.891-6.332-6.259-6.332-.221,0-.532-.342-.588-.767-.024-.182-.1-.736.966-1.02,2.445-.655,2.986-2.043,3.091-2.812.137-1-.21-2.5-2.634-3.926-1.856-1.093-1.673-1.925-.874-4.169a12.482,12.482,0,0,0,.614-2.114,25.258,25.258,0,0,1,22.287,25.08ZM91.656,10.657A25.079,25.079,0,0,1,109.18,3.263c-.1.38-.253.808-.389,1.19-.74,2.078-1.978,5.556,2.29,8.069a4.6,4.6,0,0,1,.848.616,3.507,3.507,0,0,1-.494.168,4.173,4.173,0,0,0-3.353,4.593,4,4,0,0,0,3.818,3.6c2.428,0,2.648.79,3.033,3.528a10.125,10.125,0,0,0,1.6,4.879,5.37,5.37,0,0,0,5.237,2.075,3.442,3.442,0,0,0,2.585-2.936,3.374,3.374,0,0,1,.462-1.536,3.641,3.641,0,0,1,.648-.058,6.083,6.083,0,0,0,2.094-.368c.116.246.25.609.349.878a6.819,6.819,0,0,0,2.774,3.925,5.6,5.6,0,0,0,2.841.768,6.25,6.25,0,0,0,.912-.068A25.258,25.258,0,0,1,93.5,48.043a27.809,27.809,0,0,0,5.75-8.847,10.049,10.049,0,0,1,3.16-3.833c.131-.111.255-.215.371-.315,2.027-1.745,3.718-3.423,3.9-6.291a4.5,4.5,0,0,0-2.527-4.545,4.444,4.444,0,0,0-4.985,1.011,18.148,18.148,0,0,0-1.561,1.856c-.932,1.219-1.386,1.716-1.781,1.64-.177-.034-.21-.083-.232-.115a3.8,3.8,0,0,1,0-2.361,3.894,3.894,0,0,0-2.645-4.855c-1.887-.5-3.756.531-5.553,3.06-.3.427-.452.485-.453.486a3.379,3.379,0,0,1-.734-.055,10.221,10.221,0,0,0-1.669-.119,25.06,25.06,0,0,1,7.12-14.1ZM84.265,28.039a6.118,6.118,0,0,1,1.507.07,3.859,3.859,0,0,0,4.275-1.772c1.107-1.558,1.819-1.862,2.065-1.8.392.1.371.631.285,1.056-.43,2.114-.269,3.692.491,4.825a3.521,3.521,0,0,0,2.326,1.5c2.438.467,3.848-1.379,4.981-2.861a15.413,15.413,0,0,1,1.277-1.531,1.2,1.2,0,0,1,1.342-.344,1.3,1.3,0,0,1,.614,1.375c-.084,1.357-.679,2.222-2.769,4.022-.107.092-.223.19-.345.293a12.956,12.956,0,0,0-4.093,5.134,23.9,23.9,0,0,1-5.1,7.806,25.073,25.073,0,0,1-6.859-17.3q0-.236,0-.472Z" transform="translate(-67.806 -0.003)"/>
      </g>
    </g>
  </g>
</svg>
