<svg xmlns="http://www.w3.org/2000/svg" xmlns:xlink="http://www.w3.org/1999/xlink" width="93.934" height="93.934" viewBox="0 0 93.934 93.934">
  <defs>
    <filter id="Trazado_982547" x="0" y="0" width="93.934" height="93.934" filterUnits="userSpaceOnUse">
      <feOffset dy="3" input="SourceAlpha"/>
      <feGaussianBlur stdDeviation="3" result="blur"/>
      <feFlood flood-opacity="0.161"/>
      <feComposite operator="in" in2="blur"/>
      <feComposite in="SourceGraphic"/>
    </filter>
  </defs>
  <g id="Grupo_1208245" data-name="Grupo 1208245" transform="translate(-189 -865.533)">
    <g id="Grupo_1180441" data-name="Grupo 1180441" transform="translate(-10 -4287.467)">
      <g id="Grupo_1179411" data-name="Grupo 1179411" transform="translate(10 4418)">
        <g id="Grupo_1175133" data-name="Grupo 1175133" transform="translate(-0.033 -1251)">
          <g id="Grupo_1167337" data-name="Grupo 1167337" transform="translate(198.033 1992)">
            <g id="Grupo_1166720" data-name="Grupo 1166720">
              <g id="Grupo_1164305" data-name="Grupo 1164305">
                <g id="Grupo_1163948" data-name="Grupo 1163948">
                  <g id="Grupo_1158168" data-name="Grupo 1158168">
                    <g id="Grupo_1152576" data-name="Grupo 1152576">
                      <g id="Grupo_1148633" data-name="Grupo 1148633">
                        <g id="Grupo_1148525" data-name="Grupo 1148525">
                          <g transform="matrix(1, 0, 0, 1, -9, -6)" filter="url(#Trazado_982547)">
                            <g id="Trazado_982547-2" data-name="Trazado 982547" transform="translate(9 6)" fill="#fdfbec">
                              <path d="M 37.966796875 74.43359375 C 33.04315185546875 74.43359375 28.26757431030273 73.46962738037109 23.77274131774902 71.56847381591797 C 19.43047523498535 69.73184967041016 15.53040790557861 67.10224914550781 12.18087482452393 63.75271987915039 C 8.831341743469238 60.4031867980957 6.201741218566895 56.50312042236328 4.365118980407715 52.16086196899414 C 2.463963508605957 47.66601943969727 1.499996900558472 42.89044189453125 1.499996900558472 37.966796875 C 1.499996900558472 33.04315185546875 2.463963508605957 28.26757431030273 4.365118980407715 23.77274131774902 C 6.201741218566895 19.43047523498535 8.831341743469238 15.53040790557861 12.18087482452393 12.18087482452393 C 15.53040790557861 8.831341743469238 19.43047523498535 6.201741218566895 23.77274131774902 4.365118980407715 C 28.26757431030273 2.463963508605957 33.04315185546875 1.499996900558472 37.966796875 1.499996900558472 C 42.89044189453125 1.499996900558472 47.66601943969727 2.463963508605957 52.16086196899414 4.365118980407715 C 56.50312042236328 6.201741218566895 60.4031867980957 8.831341743469238 63.75271987915039 12.18087482452393 C 67.10224914550781 15.53040790557861 69.73184967041016 19.43047523498535 71.56847381591797 23.77274131774902 C 73.46962738037109 28.26757431030273 74.43359375 33.04315185546875 74.43359375 37.966796875 C 74.43359375 42.89044189453125 73.46962738037109 47.66601943969727 71.56847381591797 52.16086196899414 C 69.73184967041016 56.50313186645508 67.10224914550781 60.4031867980957 63.75271987915039 63.75271987915039 C 60.4031867980957 67.10224914550781 56.50313186645508 69.73184967041016 52.16086196899414 71.56847381591797 C 47.66601943969727 73.46962738037109 42.89044189453125 74.43359375 37.966796875 74.43359375 Z" stroke="none"/>
                              <path d="M 37.966796875 3 C 33.2449836730957 3 28.66600799560547 3.924095153808594 24.35705947875977 5.746635437011719 C 20.19359588623047 7.507637023925781 16.45379638671875 10.02928161621094 13.24153518676758 13.24153518676758 C 10.02927398681641 16.45379638671875 7.507621765136719 20.19359588623047 5.746635437011719 24.35705947875977 C 3.924095153808594 28.66600799560547 3 33.2449836730957 3 37.966796875 C 3 42.6886100769043 3.924095153808594 47.26758575439453 5.746635437011719 51.57653427124023 C 7.507621765136719 55.73999786376953 10.02927398681641 59.47979736328125 13.24153518676758 62.69205856323242 C 16.45379638671875 65.90431976318359 20.19359588623047 68.42597198486328 24.35705947875977 70.18695831298828 C 28.66600799560547 72.00949859619141 33.2449836730957 72.93359375 37.966796875 72.93359375 C 42.6886100769043 72.93359375 47.26758575439453 72.00949859619141 51.57653427124023 70.18695831298828 C 55.73999786376953 68.42597198486328 59.47979736328125 65.90431976318359 62.69205856323242 62.69205856323242 C 65.90431976318359 59.47979736328125 68.42597198486328 55.73999786376953 70.18695831298828 51.57653427124023 C 72.00949859619141 47.26758575439453 72.93359375 42.6886100769043 72.93359375 37.966796875 C 72.93359375 33.2449836730957 72.00949859619141 28.66600799560547 70.18695831298828 24.35705947875977 C 68.42597198486328 20.19359588623047 65.90431976318359 16.45379638671875 62.69205856323242 13.24153518676758 C 59.47979736328125 10.02928161621094 55.73999786376953 7.507637023925781 51.57653427124023 5.746635437011719 C 47.26758575439453 3.924095153808594 42.6886100769043 3 37.966796875 3 M 37.966796875 0 C 58.93528366088867 0 75.93359375 16.99832153320312 75.93359375 37.966796875 C 75.93359375 58.93528366088867 58.93528366088867 75.93359375 37.966796875 75.93359375 C 16.99831008911133 75.93359375 0 58.93528366088867 0 37.966796875 C 0 16.99832153320312 16.99831008911133 0 37.966796875 0 Z" stroke="none" fill="#84792b"/>
                            </g>
                          </g>
                        </g>
                      </g>
                    </g>
                  </g>
                </g>
              </g>
            </g>
          </g>
        </g>
      </g>
    </g>
    <g id="aula_1_" data-name="aula (1)" transform="translate(212.881 882.914)">
      <path id="Trazado_1076444" data-name="Trazado 1076444" d="M6.035,52H16.1a5.035,5.035,0,0,1,5.035,5.035v2.877H1V57.035A5.035,5.035,0,0,1,6.035,52Z" transform="translate(-0.211 -14.529)" fill="#d4c5ff"/>
      <path id="Trazado_1076445" data-name="Trazado 1076445" d="M7.315,54H17.385A4.315,4.315,0,0,1,21.7,58.315v2.158H3V58.315A4.315,4.315,0,0,1,7.315,54Z" transform="translate(-0.772 -15.091)" fill="#c9b6ff"/>
      <path id="Trazado_1076446" data-name="Trazado 1076446" d="M14,4H39.893V21.262H14Z" transform="translate(-3.86 -1.053)" fill="#f9f8ff"/>
      <path id="Trazado_1076447" data-name="Trazado 1076447" d="M17,4H40.735V21.262H17Z" transform="translate(-4.703 -1.053)" fill="#f1eeff"/>
      <path id="Trazado_1076448" data-name="Trazado 1076448" d="M12,1H40.77V3.158H12Z" transform="translate(-3.299 -0.211)" fill="#d39089"/>
      <path id="Trazado_1076449" data-name="Trazado 1076449" d="M25,13H35.069v5.754H25Z" transform="translate(-6.949 -3.58)" fill="#6a6072"/>
      <path id="Trazado_1076450" data-name="Trazado 1076450" d="M25,18H35.069v2.158H25Z" transform="translate(-6.949 -4.983)" fill="#ffc476"/>
      <path id="Trazado_1076451" data-name="Trazado 1076451" d="M40.035,52H50.1a5.035,5.035,0,0,1,5.035,5.035v2.877H35V57.035A5.035,5.035,0,0,1,40.035,52Z" transform="translate(-9.756 -14.529)" fill="#aee8b9"/>
      <path id="Trazado_1076452" data-name="Trazado 1076452" d="M41.315,54H51.385A4.315,4.315,0,0,1,55.7,58.315v2.158H37V58.315A4.315,4.315,0,0,1,41.315,54Z" transform="translate(-10.318 -15.091)" fill="#9ae2a8"/>
      <path id="Trazado_1076453" data-name="Trazado 1076453" d="M41,37v4.459a4.959,4.959,0,0,0,3.237,4.651v1.678H43.158a4.419,4.419,0,0,0,7.192,0H49.271V46.111a4.958,4.958,0,0,0,3.237-4.651V37Z" transform="translate(-11.441 -10.318)" fill="#ffd9ca"/>
      <path id="Trazado_1076454" data-name="Trazado 1076454" d="M46.648,24a4.912,4.912,0,0,0-3.473,1.439A4.675,4.675,0,0,0,38.5,30.113v4.774a5.655,5.655,0,0,0,5.655,5.655h3.793A5.655,5.655,0,0,0,53.6,34.887V30.957A6.956,6.956,0,0,0,46.648,24Z" transform="translate(-10.739 -6.668)" fill="#dca6a1"/>
      <path id="Trazado_1076455" data-name="Trazado 1076455" d="M48.648,26a4.912,4.912,0,0,0-3.473,1.439A4.675,4.675,0,0,0,40.5,32.113v4.774a5.626,5.626,0,0,0,1,3.214,5.626,5.626,0,0,0,3.214,1H48.51a5.656,5.656,0,0,0,5.655-5.655V31.518a6.927,6.927,0,0,0-1.371-4.147A6.926,6.926,0,0,0,48.648,26Z" transform="translate(-11.3 -7.23)" fill="#d39089"/>
      <path id="Trazado_1076456" data-name="Trazado 1076456" d="M12.648,24a4.91,4.91,0,0,0-3.473,1.439A4.675,4.675,0,0,0,4.5,30.113V40.543a4.315,4.315,0,0,0,4.315,4.315h6.473A4.315,4.315,0,0,0,19.6,40.543V30.957A6.957,6.957,0,0,0,12.648,24Z" transform="translate(-1.193 -6.668)" fill="#dca6a1"/>
      <path id="Trazado_1076457" data-name="Trazado 1076457" d="M14.648,26a4.91,4.91,0,0,0-3.473,1.439A4.675,4.675,0,0,0,6.5,32.113V42.543a4.3,4.3,0,0,0,.63,2.247,4.3,4.3,0,0,0,2.247.63H15.85A4.315,4.315,0,0,0,20.166,41.1V31.518a6.927,6.927,0,0,0-1.371-4.147A6.927,6.927,0,0,0,14.648,26Z" transform="translate(-1.755 -7.23)" fill="#d39089"/>
      <path id="Trazado_1076458" data-name="Trazado 1076458" d="M40.877,57H50.946a2.877,2.877,0,0,1,2.877,2.877v1.438H38V59.877A2.877,2.877,0,0,1,40.877,57Z" transform="translate(-10.599 -15.933)" fill="#918a96"/>
      <path id="Trazado_1076459" data-name="Trazado 1076459" d="M42.158,59H52.227a2.158,2.158,0,0,1,2.158,2.158v.719H40v-.719A2.158,2.158,0,0,1,42.158,59Z" transform="translate(-11.16 -16.495)" fill="#766d7c"/>
      <path id="Trazado_1076460" data-name="Trazado 1076460" d="M6.877,57H16.946a2.877,2.877,0,0,1,2.877,2.877v1.438H4V59.877A2.877,2.877,0,0,1,6.877,57Z" transform="translate(-1.053 -15.933)" fill="#918a96"/>
      <path id="Trazado_1076461" data-name="Trazado 1076461" d="M8.158,59H18.227a2.158,2.158,0,0,1,2.158,2.158v.719H6v-.719A2.158,2.158,0,0,1,8.158,59Z" transform="translate(-1.614 -16.495)" fill="#766d7c"/>
      <path id="Trazado_1076462" data-name="Trazado 1076462" d="M22,10H36.385v2.158H22Z" transform="translate(-6.106 -2.737)" fill="#766d7c"/>
      <path id="Trazado_1076463" data-name="Trazado 1076463" d="M35.635,14.1a.539.539,0,1,0,1.079,0V9.789a.539.539,0,0,0-.539-.539H21.789a.539.539,0,0,0-.539.539v2.158a.539.539,0,0,0,.539.539h1.618V17.7a.539.539,0,0,0,.539.539H34.017a.539.539,0,0,0,.539-.539V12.487h1.079Zm-2.158,3.057H24.487V16.083h8.991Zm0-2.158H24.487V12.487h8.991Zm-11.148-3.6V10.329H35.635v1.079Z" transform="translate(-5.896 -2.527)"/>
      <path id="Trazado_1076464" data-name="Trazado 1076464" d="M40.348,36.931H38.37v-.778a5.519,5.519,0,0,0,2.965-3.327A6.173,6.173,0,0,0,43.4,28.219V24.289a7.5,7.5,0,0,0-6.833-7.46V3.487h.9a.539.539,0,0,0,.539-.539V.789A.539.539,0,0,0,37.471.25H8.7a.539.539,0,0,0-.539.539V2.947a.539.539,0,0,0,.539.539h.9V17.126a5.475,5.475,0,0,0-1.84,1.111,5.22,5.22,0,0,0-4.993,5.209V33.875A4.833,4.833,0,0,0,4.1,37.206a5.561,5.561,0,0,0-3.848,5.3v2.877a.539.539,0,0,0,.539.539H20.928a.539.539,0,0,0,.539-.539V42.505a5.561,5.561,0,0,0-3.848-5.3,4.833,4.833,0,0,0,1.331-3.331V24.289a7.451,7.451,0,0,0-.891-3.54h4.487v1.882a1.978,1.978,0,1,0,1.079,0V20.748h4.356a5.179,5.179,0,0,0-.76,2.7v4.774a6.173,6.173,0,0,0,2.069,4.607,5.519,5.519,0,0,0,2.965,3.327v.778H30.278A5.581,5.581,0,0,0,24.7,42.505v2.877a.539.539,0,0,0,.539.539H45.382a.539.539,0,0,0,.539-.539V42.505a5.581,5.581,0,0,0-5.574-5.574ZM9.241,2.408V1.329H36.931V2.408Zm8.991,42.435H3.487v-.9a2.34,2.34,0,0,1,2.338-2.338H15.894a2.34,2.34,0,0,1,2.338,2.338Zm2.158-2.338v2.338H19.31v-.9a3.421,3.421,0,0,0-3.416-3.416H5.824a3.421,3.421,0,0,0-3.416,3.416v.9H1.329V42.505a4.474,4.474,0,0,1,3.858-4.438,4.819,4.819,0,0,0,2.435.662H14.1a4.819,4.819,0,0,0,2.435-.662A4.474,4.474,0,0,1,20.389,42.505Zm-2.517-8.631A3.78,3.78,0,0,1,14.1,37.651H7.622a3.78,3.78,0,0,1-3.776-3.776V23.446A4.14,4.14,0,0,1,7.982,19.31a.537.537,0,0,0,.381-.158,4.4,4.4,0,0,1,3.093-1.28,6.424,6.424,0,0,1,6.417,6.417Zm6.114-9.35a.9.9,0,1,1-.9-.9.9.9,0,0,1,.9.9ZM17.346,19.67a7.48,7.48,0,0,0-5.892-2.877,5.376,5.376,0,0,0-.775.063V3.487H35.493V16.812a5.4,5.4,0,0,0-3.279,1.424,5.189,5.189,0,0,0-3.362,1.433ZM28.3,28.219V23.446a4.14,4.14,0,0,1,4.136-4.136.537.537,0,0,0,.381-.158,4.346,4.346,0,0,1,3.093-1.28,6.424,6.424,0,0,1,6.416,6.417v3.931a5.122,5.122,0,0,1-5.116,5.116H33.416A5.122,5.122,0,0,1,28.3,28.219Zm2.836,5.754a6.151,6.151,0,0,0,2.28.44H37.21a6.151,6.151,0,0,0,2.28-.44,4.422,4.422,0,0,1-1.847,1.313.539.539,0,0,0-.352.5v1.681a.541.541,0,0,0,.382.516,3.9,3.9,0,0,1-4.72,0,.541.541,0,0,0,.382-.516V35.793a.539.539,0,0,0-.352-.5,4.422,4.422,0,0,1-1.847-1.315Zm11.549,10.87H27.941v-.9a2.34,2.34,0,0,1,2.338-2.338H40.348a2.34,2.34,0,0,1,2.338,2.338Zm2.158,0H43.764v-.9a3.421,3.421,0,0,0-3.416-3.416H30.278a3.421,3.421,0,0,0-3.416,3.416v.9H25.783V42.505a4.5,4.5,0,0,1,4.5-4.5H31.46a4.936,4.936,0,0,0,7.706,0h1.182a4.5,4.5,0,0,1,4.5,4.5Z" transform="translate(0)"/>
    </g>
  </g>
</svg>
