<svg xmlns="http://www.w3.org/2000/svg" xmlns:xlink="http://www.w3.org/1999/xlink" width="93.934" height="93.934" viewBox="0 0 93.934 93.934">
  <defs>
    <filter id="Trazado_982547" x="0" y="0" width="93.934" height="93.934" filterUnits="userSpaceOnUse">
      <feOffset dy="3" input="SourceAlpha"/>
      <feGaussianBlur stdDeviation="3" result="blur"/>
      <feFlood flood-opacity="0.161"/>
      <feComposite operator="in" in2="blur"/>
      <feComposite in="SourceGraphic"/>
    </filter>
  </defs>
  <g id="Grupo_1208252" data-name="Grupo 1208252" transform="translate(-609 -865.066)">
    <g id="Grupo_1180444" data-name="Grupo 1180444" transform="translate(-10 -4287.467)">
      <g id="Grupo_1179412" data-name="Grupo 1179412" transform="translate(10 4417.533)">
        <g id="Grupo_1175134" data-name="Grupo 1175134" transform="translate(419.967 -1251)">
          <g id="Grupo_1167337" data-name="Grupo 1167337" transform="translate(198.033 1992)">
            <g id="Grupo_1166720" data-name="Grupo 1166720">
              <g id="Grupo_1164305" data-name="Grupo 1164305">
                <g id="Grupo_1163948" data-name="Grupo 1163948">
                  <g id="Grupo_1158168" data-name="Grupo 1158168">
                    <g id="Grupo_1152576" data-name="Grupo 1152576">
                      <g id="Grupo_1148633" data-name="Grupo 1148633">
                        <g id="Grupo_1148525" data-name="Grupo 1148525">
                          <g transform="matrix(1, 0, 0, 1, -9, -6)" filter="url(#Trazado_982547)">
                            <g id="Trazado_982547-2" data-name="Trazado 982547" transform="translate(9 6)" fill="#fdfbec">
                              <path d="M 37.966796875 74.43359375 C 33.04315185546875 74.43359375 28.26757431030273 73.46962738037109 23.77274131774902 71.56847381591797 C 19.43047523498535 69.73184967041016 15.53040790557861 67.10224914550781 12.18087482452393 63.75271987915039 C 8.831341743469238 60.4031867980957 6.201741218566895 56.50312042236328 4.365118980407715 52.16086196899414 C 2.463963508605957 47.66601943969727 1.499996900558472 42.89044189453125 1.499996900558472 37.966796875 C 1.499996900558472 33.04315185546875 2.463963508605957 28.26757431030273 4.365118980407715 23.77274131774902 C 6.201741218566895 19.43047523498535 8.831341743469238 15.53040790557861 12.18087482452393 12.18087482452393 C 15.53040790557861 8.831341743469238 19.43047523498535 6.201741218566895 23.77274131774902 4.365118980407715 C 28.26757431030273 2.463963508605957 33.04315185546875 1.499996900558472 37.966796875 1.499996900558472 C 42.89044189453125 1.499996900558472 47.66601943969727 2.463963508605957 52.16086196899414 4.365118980407715 C 56.50312042236328 6.201741218566895 60.4031867980957 8.831341743469238 63.75271987915039 12.18087482452393 C 67.10224914550781 15.53040790557861 69.73184967041016 19.43047523498535 71.56847381591797 23.77274131774902 C 73.46962738037109 28.26757431030273 74.43359375 33.04315185546875 74.43359375 37.966796875 C 74.43359375 42.89044189453125 73.46962738037109 47.66601943969727 71.56847381591797 52.16086196899414 C 69.73184967041016 56.50313186645508 67.10224914550781 60.4031867980957 63.75271987915039 63.75271987915039 C 60.4031867980957 67.10224914550781 56.50313186645508 69.73184967041016 52.16086196899414 71.56847381591797 C 47.66601943969727 73.46962738037109 42.89044189453125 74.43359375 37.966796875 74.43359375 Z" stroke="none"/>
                              <path d="M 37.966796875 3 C 33.2449836730957 3 28.66600799560547 3.924095153808594 24.35705947875977 5.746635437011719 C 20.19359588623047 7.507637023925781 16.45379638671875 10.02928161621094 13.24153518676758 13.24153518676758 C 10.02927398681641 16.45379638671875 7.507621765136719 20.19359588623047 5.746635437011719 24.35705947875977 C 3.924095153808594 28.66600799560547 3 33.2449836730957 3 37.966796875 C 3 42.6886100769043 3.924095153808594 47.26758575439453 5.746635437011719 51.57653427124023 C 7.507621765136719 55.73999786376953 10.02927398681641 59.47979736328125 13.24153518676758 62.69205856323242 C 16.45379638671875 65.90431976318359 20.19359588623047 68.42597198486328 24.35705947875977 70.18695831298828 C 28.66600799560547 72.00949859619141 33.2449836730957 72.93359375 37.966796875 72.93359375 C 42.6886100769043 72.93359375 47.26758575439453 72.00949859619141 51.57653427124023 70.18695831298828 C 55.73999786376953 68.42597198486328 59.47979736328125 65.90431976318359 62.69205856323242 62.69205856323242 C 65.90431976318359 59.47979736328125 68.42597198486328 55.73999786376953 70.18695831298828 51.57653427124023 C 72.00949859619141 47.26758575439453 72.93359375 42.6886100769043 72.93359375 37.966796875 C 72.93359375 33.2449836730957 72.00949859619141 28.66600799560547 70.18695831298828 24.35705947875977 C 68.42597198486328 20.19359588623047 65.90431976318359 16.45379638671875 62.69205856323242 13.24153518676758 C 59.47979736328125 10.02928161621094 55.73999786376953 7.507637023925781 51.57653427124023 5.746635437011719 C 47.26758575439453 3.924095153808594 42.6886100769043 3 37.966796875 3 M 37.966796875 0 C 58.93528366088867 0 75.93359375 16.99832153320312 75.93359375 37.966796875 C 75.93359375 58.93528366088867 58.93528366088867 75.93359375 37.966796875 75.93359375 C 16.99831008911133 75.93359375 0 58.93528366088867 0 37.966796875 C 0 16.99832153320312 16.99831008911133 0 37.966796875 0 Z" stroke="none" fill="#84792b"/>
                            </g>
                          </g>
                        </g>
                      </g>
                    </g>
                  </g>
                </g>
              </g>
            </g>
          </g>
        </g>
      </g>
    </g>
    <g id="bloques_3_" data-name="bloques (3)" transform="translate(633.472 859.504)">
      <g id="Grupo_1208250" data-name="Grupo 1208250" transform="translate(0.657 30.296)">
        <path id="Trazado_1076465" data-name="Trazado 1076465" d="M233.38,315.678h-8.619v4.87h8.619a2.435,2.435,0,1,0,0-4.87Z" transform="translate(-205.668 -291.2)" fill="#ffcabd"/>
        <path id="Trazado_1076466" data-name="Trazado 1076466" d="M10.422,291.226A2.435,2.435,0,0,0,9.449,296l8.446,1.722.973-4.772Z" transform="translate(-7.5 -268.851)" fill="#ffdcce"/>
        <path id="Trazado_1076467" data-name="Trazado 1076467" d="M101.979,323.261c0-5.387-2.777-7.584-2.777-7.584H87.9s-2.777,2.2-2.777,7.584l8.43,2.583Z" transform="translate(-78.299 -291.199)" fill="#7de2ff"/>
        <path id="Trazado_1076468" data-name="Trazado 1076468" d="M232.745,396.921l-1.426,3.425,1.426,3.425h1.681a3.425,3.425,0,1,0,0-6.85h-1.681Z" transform="translate(-211.65 -365.303)" fill="#696eb1"/>
        <path id="Trazado_1076469" data-name="Trazado 1076469" d="M167.721,400.346a3.425,3.425,0,0,0,3.424,3.425h3.59v-6.85h-3.59A3.425,3.425,0,0,0,167.721,400.346Z" transform="translate(-153.641 -365.304)" fill="#ffdcce"/>
        <path id="Trazado_1076470" data-name="Trazado 1076470" d="M61.534,396.921l1.426,3.425-1.426,3.425H59.853a3.425,3.425,0,1,1,0-6.85h1.681Z" transform="translate(-52.128 -365.303)" fill="#696eb1"/>
        <path id="Trazado_1076471" data-name="Trazado 1076471" d="M57.747,405.179a3.424,3.424,0,0,0,2.107,6.124h1.681l.829-1.991C59.329,408.833,58.164,407.263,57.747,405.179Z" transform="translate(-52.129 -372.836)" fill="#4c5698"/>
        <path id="Trazado_1076472" data-name="Trazado 1076472" d="M121.551,400.346a3.425,3.425,0,0,1-3.424,3.425h-3.59v-6.85h3.59A3.425,3.425,0,0,1,121.551,400.346Z" transform="translate(-105.13 -365.304)" fill="#ffdcce"/>
        <path id="Trazado_1076473" data-name="Trazado 1076473" d="M18.393,51.708H15.225A14.572,14.572,0,0,1,29.8,37.135h8.634a3.51,3.51,0,0,1,3.511,3.511,5.313,5.313,0,0,1-2.722,4.637l-.5,1.094Z" transform="translate(-14.546 -37.135)" fill="#d5938c"/>
        <path id="Trazado_1076474" data-name="Trazado 1076474" d="M98.774,317.8a13.9,13.9,0,0,0,7.124,2.01H106a13.952,13.952,0,0,0,7.234-2,6.831,6.831,0,0,0-1.582-2.133H100.351A6.822,6.822,0,0,0,98.774,317.8Z" transform="translate(-90.753 -291.2)" fill="#2ecffb"/>
        <path id="Trazado_1076475" data-name="Trazado 1076475" d="M30.887,37.136H29.8A14.572,14.572,0,0,0,15.225,51.709h3.168l3.334-.874A15.115,15.115,0,0,1,30.887,37.136Z" transform="translate(-14.546 -37.136)" fill="#cd847b"/>
        <path id="Trazado_1076476" data-name="Trazado 1076476" d="M73.878,134.1a11.326,11.326,0,0,0-1.774-4.247,5.277,5.277,0,0,1-2.588.673H56.876a5.6,5.6,0,0,0-5.6,5.454q0,.071,0,.142a11.4,11.4,0,1,0,22.6-2.021Z" transform="translate(-47.43 -121.706)" fill="#ffdcce"/>
        <path id="Trazado_1076477" data-name="Trazado 1076477" d="M21.523,156.435a15.129,15.129,0,0,1-4.911-16.714,5.61,5.61,0,0,0-3.538,2.887,3.142,3.142,0,0,0-.69-.073,3.648,3.648,0,0,0,0,7.3,2.928,2.928,0,0,0,.979-.156A11.481,11.481,0,0,0,21.523,156.435Z" transform="translate(-8.628 -130.706)" fill="#ffcabd"/>
        <g id="Grupo_1208249" data-name="Grupo 1208249" transform="translate(5.392 15.22)">
          <g id="Grupo_1208248" data-name="Grupo 1208248">
            <g id="Grupo_1208246" data-name="Grupo 1208246">
              <ellipse id="Elipse_13553" data-name="Elipse 13553" cx="2.657" cy="2.116" rx="2.657" ry="2.116" fill="#ff8d9d"/>
            </g>
            <g id="Grupo_1208247" data-name="Grupo 1208247" transform="translate(14.404)">
              <ellipse id="Elipse_13554" data-name="Elipse 13554" cx="2.657" cy="2.116" rx="2.657" ry="2.116" fill="#ff8d9d"/>
            </g>
          </g>
        </g>
        <path id="Trazado_1076478" data-name="Trazado 1076478" d="M402.821,209.519l-2.944-4.478-2.944,4.478a1.864,1.864,0,0,0-1.864,1.864v5.889a1.864,1.864,0,0,0,1.864,1.864l2.944,5.1,2.944-5.1a1.864,1.864,0,0,0,1.864-1.864v-5.889A1.864,1.864,0,0,0,402.821,209.519Z" transform="translate(-361.009 -190.286)" fill="#c8a9f1"/>
        <path id="Trazado_1076479" data-name="Trazado 1076479" d="M402.821,37.135h-5.889A1.864,1.864,0,0,0,395.068,39v5.889a1.864,1.864,0,0,0,1.864,1.864l2.944,5.139,2.945-5.139a1.864,1.864,0,0,0,1.864-1.864V39A1.864,1.864,0,0,0,402.821,37.135Z" transform="translate(-361.009 -37.135)" fill="#ff8d9d"/>
        <path id="Trazado_1076480" data-name="Trazado 1076480" d="M402.821,146.568h-5.889a1.864,1.864,0,0,0-1.864,1.864v5.889a1.864,1.864,0,0,0,1.864,1.864h5.889a1.864,1.864,0,0,0,1.864-1.864v-5.889A1.864,1.864,0,0,0,402.821,146.568Z" transform="translate(-361.009 -136.951)" fill="#71dbba"/>
        <path id="Trazado_1076481" data-name="Trazado 1076481" d="M402.821,365.432h-5.889a1.864,1.864,0,0,0-1.864,1.864v5.889a1.864,1.864,0,0,0,1.864,1.864h5.889a1.864,1.864,0,0,0,1.864-1.864V367.3A1.864,1.864,0,0,0,402.821,365.432Z" transform="translate(-361.009 -336.582)" fill="#fce29f"/>
        <path id="Trazado_1076482" data-name="Trazado 1076482" d="M117.506,440.6a12.091,12.091,0,0,1-2.97-.321v2.16h3.59a3.424,3.424,0,0,0,3.41-3.124A6.938,6.938,0,0,1,117.506,440.6Z" transform="translate(-105.13 -403.973)" fill="#ffcabd"/>
        <path id="Trazado_1076483" data-name="Trazado 1076483" d="M397.6,369.093a6.987,6.987,0,0,1,1.029-3.66h-1.7a1.864,1.864,0,0,0-1.864,1.864v5.889a1.864,1.864,0,0,0,1.864,1.864h3.978A7.014,7.014,0,0,1,397.6,369.093Z" transform="translate(-361.008 -336.582)" fill="#ffcd71"/>
        <path id="Trazado_1076484" data-name="Trazado 1076484" d="M397.6,259.661A6.987,6.987,0,0,1,398.63,256h-1.7a1.864,1.864,0,0,0-1.864,1.864v5.889a1.864,1.864,0,0,0,1.864,1.864h3.978A7.014,7.014,0,0,1,397.6,259.661Z" transform="translate(-361.008 -236.767)" fill="#b18ae3"/>
        <path id="Trazado_1076485" data-name="Trazado 1076485" d="M397.6,150.228a6.987,6.987,0,0,1,1.029-3.66h-1.7a1.864,1.864,0,0,0-1.864,1.864v5.889a1.864,1.864,0,0,0,1.864,1.864h3.978A7.014,7.014,0,0,1,397.6,150.228Z" transform="translate(-361.008 -136.951)" fill="#30cc9b"/>
        <path id="Trazado_1076486" data-name="Trazado 1076486" d="M397.6,40.8a6.987,6.987,0,0,1,1.029-3.66h-1.7A1.864,1.864,0,0,0,395.067,39v5.889a1.864,1.864,0,0,0,1.864,1.864h3.978A7.014,7.014,0,0,1,397.6,40.8Z" transform="translate(-361.008 -37.136)" fill="#e95b70"/>
      </g>
      <g id="Grupo_1208251" data-name="Grupo 1208251" transform="translate(-0.002 29.637)">
        <path id="Trazado_1076487" data-name="Trazado 1076487" d="M109.218,192.02v1.086a.659.659,0,0,0,1.318,0V192.02a.659.659,0,0,0-1.318,0Z" transform="translate(-99.62 -177.149)"/>
        <path id="Trazado_1076488" data-name="Trazado 1076488" d="M237.873,192.02v1.086a.659.659,0,0,0,1.318,0V192.02a.659.659,0,0,0-1.318,0Z" transform="translate(-216.969 -177.149)"/>
        <path id="Trazado_1076489" data-name="Trazado 1076489" d="M159.728,203.579a1.316,1.316,0,0,1-1.987,0,.659.659,0,1,0-.994.866,2.635,2.635,0,0,0,3.975,0,.659.659,0,1,0-.994-.866Z" transform="translate(-142.825 -188.087)"/>
        <path id="Trazado_1076490" data-name="Trazado 1076490" d="M395.98,29.637h-5.889a2.526,2.526,0,0,0-2.523,2.523v5.889a2.517,2.517,0,0,0,.825,1.864,2.517,2.517,0,0,0-.825,1.864v5.889a2.517,2.517,0,0,0,.825,1.864,2.517,2.517,0,0,0-.825,1.864v5.889a2.517,2.517,0,0,0,.825,1.864,2.517,2.517,0,0,0-.825,1.864V66.9a2.526,2.526,0,0,0,2.523,2.523h5.889A2.526,2.526,0,0,0,398.5,66.9V61.01a2.517,2.517,0,0,0-.824-1.864,2.517,2.517,0,0,0,.824-1.864V51.394a2.517,2.517,0,0,0-.824-1.864,2.517,2.517,0,0,0,.824-1.864V41.777a2.517,2.517,0,0,0-.824-1.864,2.517,2.517,0,0,0,.824-1.864V32.16A2.526,2.526,0,0,0,395.98,29.637Zm1.2,31.373V66.9a1.206,1.206,0,0,1-1.2,1.2h-5.889a1.206,1.206,0,0,1-1.2-1.2V61.01a1.206,1.206,0,0,1,1.2-1.2h5.889A1.206,1.206,0,0,1,397.185,61.01Zm0-9.617v5.889a1.206,1.206,0,0,1-1.2,1.2h-5.889a1.206,1.206,0,0,1-1.2-1.2V51.394a1.206,1.206,0,0,1,1.2-1.2h5.889A1.206,1.206,0,0,1,397.185,51.394Zm0-9.617v5.889a1.206,1.206,0,0,1-1.2,1.2h-5.889a1.206,1.206,0,0,1-1.2-1.2V41.777a1.206,1.206,0,0,1,1.2-1.2h5.889A1.206,1.206,0,0,1,397.185,41.777Zm-7.094-2.523a1.206,1.206,0,0,1-1.2-1.2V32.16a1.206,1.206,0,0,1,1.2-1.2h5.889a1.206,1.206,0,0,1,1.2,1.2v5.889a1.206,1.206,0,0,1-1.2,1.2h-5.889Z" transform="translate(-353.509 -29.637)"/>
        <path id="Trazado_1076491" data-name="Trazado 1076491" d="M6.842,61.558a4.083,4.083,0,0,0,1.54,7.865h5.272a4.058,4.058,0,0,0,2.253-.68,4.079,4.079,0,0,0,2.255.68h5.272a4.083,4.083,0,0,0,1.541-7.865c-.022-.44-.064-.857-.119-1.254H28.37a3.094,3.094,0,0,0,0-6.188h-4.71a12.245,12.245,0,0,0,1.783-1.857.659.659,0,1,0-1.041-.808A10.72,10.72,0,0,1,10.6,54.2h0a10.767,10.767,0,0,1-5.413-8.574,5.654,5.654,0,0,1,.5-3.138h0a4.934,4.934,0,0,1,4.41-2.714H22.742a5.99,5.99,0,0,0,2.353-.482,10.6,10.6,0,0,1,1.362,3.522,10.874,10.874,0,0,1,.2,2.052,10.655,10.655,0,0,1-.972,4.47.659.659,0,1,0,1.2.549,11.965,11.965,0,0,0,1.091-5.02,12.2,12.2,0,0,0-.219-2.3,11.907,11.907,0,0,0-1.51-3.924,5.947,5.947,0,0,0,2.47-4.836,4.174,4.174,0,0,0-4.17-4.17H15.908a15.231,15.231,0,0,0-7.2,1.812.659.659,0,0,0,.625,1.161,13.908,13.908,0,0,1,6.575-1.655h8.634a2.855,2.855,0,0,1,2.851,2.851,4.65,4.65,0,0,1-4.651,4.651H10.1a6.232,6.232,0,0,0-5.357,3.022,4.315,4.315,0,0,0-2.46.548,13.772,13.772,0,0,1,.838-2.65,14.031,14.031,0,0,1,4.069-5.347.659.659,0,1,0-.827-1.026,15.353,15.353,0,0,0-4.452,5.851A15.1,15.1,0,0,0,.736,43.535a4.3,4.3,0,0,0,4.277,6.5,12.088,12.088,0,0,0,1.68,2.595l-2.983-.608a3.094,3.094,0,0,0-1.236,6.063l4.721.963a13.668,13.668,0,0,0-.354,2.507ZM5.616,65.339a2.77,2.77,0,0,1,2.766-2.765H9.4V68.1H8.383A2.769,2.769,0,0,1,5.616,65.339ZM10.723,68.1V62.573h2.931a2.766,2.766,0,0,1,0,5.531Zm6.186-.3a4.08,4.08,0,0,0,0-4.929,2.748,2.748,0,0,1,1.253-.3h2.931V68.1H18.162a2.76,2.76,0,0,1-1.253-.3ZM26.2,65.339A2.769,2.769,0,0,1,23.433,68.1H22.411V62.574h1.022A2.769,2.769,0,0,1,26.2,65.339Zm-2.766-4.083H18.162a4.143,4.143,0,0,0-2.254.679,4.09,4.09,0,0,0-2.254-.679h-5.3c-.058,0-.116,0-.173,0a9.693,9.693,0,0,1,2.187-5.679,11.963,11.963,0,0,0,5.447,1.35h0a12.041,12.041,0,0,0,5.637-1.341,9.646,9.646,0,0,1,2.18,5.67c-.057,0-.114,0-.171,0Zm6.712-4.046a1.778,1.778,0,0,1-1.776,1.776H24.606a10.48,10.48,0,0,0-1.585-3.552H28.37a1.778,1.778,0,0,1,1.776,1.776ZM4.414,48.763A2.988,2.988,0,0,1,4.146,42.8a7.482,7.482,0,0,0-.273,2.874,11.969,11.969,0,0,0,.618,3.089Zm3.162,9.02L2.738,56.8a1.776,1.776,0,0,1,.709-3.48l5,1.02q.372.295.762.557A9.558,9.558,0,0,0,7.576,57.783Z" transform="translate(0.002 -29.638)"/>
      </g>
    </g>
  </g>
</svg>
