<svg xmlns="http://www.w3.org/2000/svg" xmlns:xlink="http://www.w3.org/1999/xlink" width="190" height="216" viewBox="0 0 190 216">
  <defs>
    <clipPath id="clip-path">
      <rect id="Rectángulo_417890" data-name="Rectángulo 417890" width="190" height="216" transform="translate(0 25)" fill="#fff" stroke="#707070" stroke-width="1"/>
    </clipPath>
    <clipPath id="clip-path-2">
      <path id="Trazado_1077676" data-name="Trazado 1077676" d="M214.318,246.922c-1.8,0-152-.072-161.008-.072s-18.621.6-18.621,18.62-2.034,130.222-.228,147.211c1.5,14.115,6.835,20.975,29.06,21.575s136.99-.351,148.394.072c7.208.267,20.724.267,21.624-21.024.917-21.679.671-125.239.576-144.76C234.211,245.419,214.318,246.922,214.318,246.922Z" transform="translate(-33.714 -246.85)"/>
    </clipPath>
  </defs>
  <g id="Enmascarar_grupo_1098879" data-name="Enmascarar grupo 1098879" transform="translate(0 -25)" clip-path="url(#clip-path)">
    <g id="Grupo_1208946" data-name="Grupo 1208946" transform="translate(-10.505 41.702)">
      <path id="Trazado_1077623" data-name="Trazado 1077623" d="M144.569,246.852H46.788c-6.011,0-12.423.635-12.423,19.7s-1.357,137.79-.152,155.767c1,14.936,4.56,22.194,19.388,22.829s81.757-.446,89.366,0c4.809.283,13.825.283,14.427-22.246.612-22.939.448-132.517.384-153.173C157.841,245.262,144.569,246.852,144.569,246.852Z" transform="translate(39.027 -246.831)" fill="#f3de50"/>
      <g id="Grupo_1208943" data-name="Grupo 1208943" transform="translate(0 10.925)">
        <g id="Grupo_1208942" data-name="Grupo 1208942" clip-path="url(#clip-path-2)">
          <g id="Grupo_1208937" data-name="Grupo 1208937" transform="translate(11.101 11.727)">
            <g id="Grupo_1208911" data-name="Grupo 1208911" transform="translate(131.238 31.57)">
              <path id="Trazado_1077624" data-name="Trazado 1077624" d="M198.409,414.848l-.305-.554c5.037-2.773,6.781-9.119,6.276-14.177-.568-5.679-3.388-10.884-5.875-15.475-2.683-4.953-5.439-10.044-6.128-15.65-.612-4.967.461-9.95,1.5-14.77.5-2.3,1.007-4.673,1.328-7.014a46.226,46.226,0,0,0-9.225-34.44c-1.479-1.906-3.168-3.791-4.8-5.617-4.951-5.532-10.071-11.252-10.472-18.6l.63-.034c.391,7.124,5.435,12.76,10.313,18.211,1.641,1.833,3.337,3.728,4.829,5.65a46.859,46.859,0,0,1,9.352,34.913c-.325,2.364-.84,4.752-1.337,7.06-1.027,4.768-2.088,9.7-1.489,14.56.674,5.486,3.4,10.525,6.041,15.4,2.531,4.673,5.382,9.937,5.963,15.741C205.533,405.319,203.7,411.934,198.409,414.848Z" transform="translate(-170.705 -288.521)" fill="#e19e2c"/>
            </g>
            <path id="Trazado_1077625" data-name="Trazado 1077625" d="M203.835,385.014c-4.907-8.124-8.36-17.906-8.449-23.778-.165-10.878,10.646-24.224-3.858-44.463-10.462-14.6-9.566-19.883-9.566-19.883L80.025,289.8s-3.2,16.042-9.591,24.333-16.765,14.415-11.467,32.389c4.348,14.748-5.692,28.941-11.159,37-5.386,7.935-3.1,16.318,3.257,35.768,0,0,4.5,2.818,8.148,4.792l1.469-8.29c1.388.6,2.55,10.149,4.209,10.655a43.641,43.641,0,0,0,5.3,1.265c-2.508-6.549-3.093-13.291-.5-18.722,9.589-22.186,16.2-44.328,8.89-68.261-5.235-17.955,8.444-32.188,23.284-35.419,20.778-4.322,37.828,7.442,55.811,15.183,5.984,1.913,13.953,3.8,17.02,9.761,6.121,10.928-4.6,24.114.547,36.059,3.1,7.968,11.143,14.859,14.257,23.828,3.572,8.965,3.817,18.459,1.722,27.806l.315.621a18.787,18.787,0,0,0,16.964-5.426C210.21,411.365,212.436,399.252,203.835,385.014Z" transform="translate(-44.382 -256.9)" fill="#e19e2c"/>
            <path id="Trazado_1077626" data-name="Trazado 1077626" d="M188.616,389.589c-3.113-8.97-11.158-15.861-14.257-23.828-5.143-11.945,5.574-25.131-.547-36.059-3.068-5.965-11.037-7.848-17.02-9.761-17.983-7.742-35.033-19.506-55.811-15.183-14.838,3.23-28.517,17.464-23.284,35.419,7.311,23.934.7,46.075-8.89,68.261-2.588,5.431-2,12.173.5,18.722a43.231,43.231,0,0,0,10.132.557L82,409.735l4.8,17.919s10.3,5.675,46.885-2.459,42.98-2.188,45.8-8.416-4.094-28.828-4.094-28.828L190.338,417.4C192.434,408.048,192.188,398.553,188.616,389.589Z" transform="translate(-43.51 -256.353)" fill="#d38a20"/>
            <path id="Trazado_1077627" data-name="Trazado 1077627" d="M145.869,356.622l-.457-8.8-25.828,1.328-.43,8.039A74.258,74.258,0,0,0,145.869,356.622Z" transform="translate(-41.479 -254.636)" fill="#d8a178"/>
            <path id="Trazado_1077628" data-name="Trazado 1077628" d="M166.035,365.095l-19.052-2.477-.613-6.326a74.234,74.234,0,0,1-26.716.568l-.293,5.479s-8.615,3.626-11.689,4.385c.091,13.987-2.43,52.352-.834,66.446l60.96-.161s1.8-16.649,2.518-22.606C172.615,391.258,166.035,365.095,166.035,365.095Z" transform="translate(-41.981 -254.305)" fill="#ebbc8e"/>
            <path id="Trazado_1077629" data-name="Trazado 1077629" d="M108.374,333.6l-6.048-15.074s-14.776-3.7-14,10.984S104.525,343.343,108.374,333.6Z" transform="translate(-42.684 -255.796)" fill="#ebbc8e"/>
            <path id="Trazado_1077630" data-name="Trazado 1077630" d="M159.4,330.9l1.821-16.14s13.259-7.5,16.419,6.865S165.7,339.266,159.4,330.9Z" transform="translate(-39.909 -256.003)" fill="#d8a178"/>
            <g id="Grupo_1208912" data-name="Grupo 1208912" transform="translate(122.266 61.266)">
              <path id="Trazado_1077631" data-name="Trazado 1077631" d="M164.383,330.739a.293.293,0,0,0,.2-.454c-.044-.065-4.307-6.511.009-10.563A6.519,6.519,0,0,1,169.4,317.7a8.134,8.134,0,0,1,5.039,2.546.295.295,0,0,0,.443-.389,8.574,8.574,0,0,0-5.448-2.746,7.084,7.084,0,0,0-5.245,2.184c-4.683,4.4-.141,11.253-.1,11.321A.294.294,0,0,0,164.383,330.739Z" transform="translate(-162.07 -317.101)" fill="#683935"/>
            </g>
            <g id="Grupo_1208913" data-name="Grupo 1208913" transform="translate(122.282 66.576)">
              <path id="Trazado_1077632" data-name="Trazado 1077632" d="M170.583,323.664a.294.294,0,0,0,.086-.553c-.054-.028-5.52-2.768-8.529,1.457a.294.294,0,1,0,.479.342c2.715-3.812,7.73-1.3,7.78-1.274A.294.294,0,0,0,170.583,323.664Z" transform="translate(-162.085 -322.211)" fill="#683935"/>
            </g>
            <path id="Trazado_1077633" data-name="Trazado 1077633" d="M164.5,282.1s7.053,13.948,9.25,35.154c1.714,16.546-9.818,34.109-29.882,37.514-18.859,3.2-39.376-2.4-48.054-28.417s-2.492-48.092,21.06-56.513S157.858,266.088,164.5,282.1Z" transform="translate(-42.536 -257.841)" fill="#ebbc8e"/>
            <path id="Trazado_1077634" data-name="Trazado 1077634" d="M127.164,330.933c-.544,2.8-5.236,4.24-10.477,3.22s-9.048-4.117-8.5-6.915,5.236-4.24,10.477-3.22S127.71,328.135,127.164,330.933Z" transform="translate(-41.91 -255.578)" fill="#d8a178"/>
            <path id="Trazado_1077635" data-name="Trazado 1077635" d="M166.852,326.055c.613,2.762-3.082,5.932-8.253,7.081s-9.861-.158-10.476-2.92,3.082-5.932,8.253-7.081S166.238,323.294,166.852,326.055Z" transform="translate(-40.351 -255.616)" fill="#d8a178"/>
            <path id="Trazado_1077636" data-name="Trazado 1077636" d="M112.766,307.066s-2.936-2.592,3.244-5.867,8.358-2.565,9.367-.942c.921,1.481-.489,3.71-4,5.479C117.169,307.859,114.361,308.556,112.766,307.066Z" transform="translate(-41.756 -256.546)" fill="#d99e2e"/>
            <path id="Trazado_1077637" data-name="Trazado 1077637" d="M162.845,306s2.2-2.98-4.645-5.2-8.776-1.187-9.344.549c-.518,1.583,1.419,3.53,5.279,4.7C158.767,307.461,161.674,307.7,162.845,306Z" transform="translate(-40.323 -256.52)" fill="#d99e2e"/>
            <path id="Trazado_1077638" data-name="Trazado 1077638" d="M156.38,316.381c.006,1.987-1.309,3.6-2.939,3.608s-2.957-1.6-2.963-3.588,1.309-3.6,2.939-3.608S156.372,314.393,156.38,316.381Z" transform="translate(-40.257 -256.003)"/>
            <path id="Trazado_1077639" data-name="Trazado 1077639" d="M125.056,316.381c.007,1.987-1.309,3.6-2.939,3.608s-2.957-1.6-2.963-3.588,1.309-3.6,2.939-3.608S125.048,314.393,125.056,316.381Z" transform="translate(-41.479 -256.003)"/>
            <g id="Grupo_1208914" data-name="Grupo 1208914" transform="translate(47.744 67.064)">
              <path id="Trazado_1077640" data-name="Trazado 1077640" d="M103.389,334.784a.294.294,0,0,1-.309-.387c.025-.074,2.42-7.422-2.819-10.18a6.521,6.521,0,0,0-5.174-.673,8.127,8.127,0,0,0-4.18,3.795.294.294,0,0,1-.53-.256,8.576,8.576,0,0,1,4.522-4.1,7.086,7.086,0,0,1,5.637.71c5.684,2.993,3.129,10.81,3.1,10.889A.3.3,0,0,1,103.389,334.784Z" transform="translate(-90.348 -322.681)" fill="#683935"/>
            </g>
            <g id="Grupo_1208915" data-name="Grupo 1208915" transform="translate(52.654 71.546)">
              <path id="Trazado_1077641" data-name="Trazado 1077641" d="M95.4,329.636a.292.292,0,0,1-.247-.094.3.3,0,0,1,.018-.417c.045-.042,4.586-4.136,8.609-.865a.294.294,0,0,1-.371.457c-3.63-2.953-7.8.8-7.84.841A.288.288,0,0,1,95.4,329.636Z" transform="translate(-95.073 -326.995)" fill="#683935"/>
            </g>
            <g id="Grupo_1208916" data-name="Grupo 1208916" transform="translate(94.491 38.597)">
              <path id="Trazado_1077642" data-name="Trazado 1077642" d="M141.952,325.286a.292.292,0,0,1-.123-.558,7.893,7.893,0,0,0,3.385-3.2c.807-1.645.547-4.11-.548-5.173a2.06,2.06,0,0,0-2.573-.148c-.032.017-.084.048-.153.087-3.588,2.1-5.212,1.167-5.943.015-1.342-2.115-.243-18.856-.114-20.759a.3.3,0,0,1,.312-.271.291.291,0,0,1,.271.312c-.349,5.115-1.024,18.751.024,20.4.863,1.36,2.6,1.294,5.156-.206.079-.046.138-.081.176-.1a2.629,2.629,0,0,1,3.251.245c1.275,1.24,1.586,3.972.665,5.849a8.347,8.347,0,0,1-3.667,3.469A.274.274,0,0,1,141.952,325.286Z" transform="translate(-135.339 -295.284)" fill="#683935"/>
            </g>
            <g id="Grupo_1208917" data-name="Grupo 1208917" transform="translate(92.095 71.689)">
              <path id="Trazado_1077643" data-name="Trazado 1077643" d="M137.264,334.2c1.908.623,3.4-.4,4.446-1.635a25.247,25.247,0,0,0-8.336-3.34C133.832,331.034,134.876,333.424,137.264,334.2Z" transform="translate(-133.02 -327.05)" fill="#cc555f"/>
              <path id="Trazado_1077644" data-name="Trazado 1077644" d="M133.033,327.132a12.047,12.047,0,0,0,.354,2.178,25.246,25.246,0,0,1,8.336,3.34,11.468,11.468,0,0,0,1.757-2.978C139.919,327.109,133.033,327.132,133.033,327.132Z" transform="translate(-133.033 -327.132)"/>
            </g>
            <path id="Trazado_1077645" data-name="Trazado 1077645" d="M93.343,321.74s37.306-11.042,44.343-41.691c0,0,32.471,42.036,44.222,29.763,0,0,4.243-37.066-20.86-47.281-13.771-5.6-24.408-2.667-24.408-2.667-18.493-2.55-29.731-4.741-49.135,12.511C67.527,290.137,72.951,331.125,93.343,321.74Z" transform="translate(-43.203 -258.136)" fill="#e19e2c"/>
            <g id="Grupo_1208918" data-name="Grupo 1208918" transform="translate(0 30.036)">
              <path id="Trazado_1077646" data-name="Trazado 1077646" d="M51.226,417.939a38.86,38.86,0,0,1-4.358-35.618,78.78,78.78,0,0,1,4.333-8.97c2.554-4.761,5.194-9.685,5.9-15.065.587-4.458-.171-9.116-.906-13.621-.993-6.1-2.02-12.405.358-18.159,1.955-4.729,5.871-8.19,9.658-11.537a61.842,61.842,0,0,0,6.164-5.979,29.781,29.781,0,0,0,6.844-21.883l.628-.063A30.427,30.427,0,0,1,72.857,309.4a62.256,62.256,0,0,1-6.226,6.041c-3.9,3.452-7.592,6.712-9.492,11.306-2.31,5.589-1.343,11.528-.319,17.816.741,4.55,1.507,9.254.908,13.8-.723,5.494-3.391,10.469-5.971,15.281a78.4,78.4,0,0,0-4.3,8.9,38.223,38.223,0,0,0,4.286,35.033Z" transform="translate(-44.398 -287.044)" fill="#e19e2c"/>
            </g>
            <g id="Grupo_1208919" data-name="Grupo 1208919" transform="translate(30.751 12.377)">
              <path id="Trazado_1077647" data-name="Trazado 1077647" d="M75.777,325.855c-.6,0-1.189-.008-1.784-.026l.018-.631a63.742,63.742,0,0,0,65.008-55.151l.627.084a64.374,64.374,0,0,1-63.868,55.723Z" transform="translate(-73.993 -270.048)" fill="#e19e2c"/>
            </g>
            <g id="Grupo_1208920" data-name="Grupo 1208920" transform="translate(85.01 4.024)">
              <path id="Trazado_1077648" data-name="Trazado 1077648" d="M177.26,308.626A70.909,70.909,0,0,1,126.214,262.2l.6-.2a70.266,70.266,0,0,0,50.583,46Z" transform="translate(-126.214 -262.009)" fill="#e19e2c"/>
            </g>
            <g id="Grupo_1208932" data-name="Grupo 1208932" transform="translate(46.811 178.657)">
              <g id="Grupo_1208921" data-name="Grupo 1208921" transform="translate(51.811 43.408)">
                <path id="Trazado_1077649" data-name="Trazado 1077649" d="M156.155,621.5l-16.84-140.21,32.463-9.429s11.051,104.917,4.647,144.939c0,0,31.213,11.678,31.019,17.572s-36.188,1.033-36.188,1.033S149.16,640.653,156.155,621.5Z" transform="translate(-139.315 -471.859)" fill="#ebbc8e"/>
              </g>
              <g id="Grupo_1208922" data-name="Grupo 1208922" transform="translate(0.546 42.325)">
                <path id="Trazado_1077650" data-name="Trazado 1077650" d="M94.266,625.124s-3.581-69.37-4.29-148.852c-.106-11.843,43.612-.716,43.612-.716S120.939,580.4,114.535,620.422c0,0,30.183,11.411,29.991,17.305s-35.158,1.3-35.158,1.3S87.27,644.278,94.266,625.124Z" transform="translate(-89.976 -470.816)" fill="#ebbc8e"/>
              </g>
              <g id="Grupo_1208931" data-name="Grupo 1208931">
                <path id="Trazado_1077651" data-name="Trazado 1077651" d="M169.131,430.289s12.621,45.639,11.037,70.362c-.613,9.556.557,112.01.557,112.01s-8.308,2.4-26.389-.862L139.277,484.686h0L117.934,615.053s-17.843,3.01-25.167-2.044c0,0-4.93-69.047-2.77-135.149.7-21.3,11.9-40.725,18.175-47.732Z" transform="translate(-89.45 -430.08)" fill="#42354c"/>
                <g id="Grupo_1208923" data-name="Grupo 1208923" transform="translate(29.421 52.362)">
                  <path id="Trazado_1077652" data-name="Trazado 1077652" d="M118.083,485.547a.317.317,0,0,1-.006-.635c14.789-.309,35.856-4.39,36.067-4.43a.317.317,0,1,1,.121.623c-.212.042-21.332,4.132-36.175,4.442Z" transform="translate(-117.766 -480.477)" fill="#2f2537"/>
                </g>
                <g id="Grupo_1208924" data-name="Grupo 1208924" transform="translate(3.445)">
                  <path id="Trazado_1077653" data-name="Trazado 1077653" d="M94.168,615.387c-.014,0,.243-3.666.229-3.667-.449-.007-.943,3.654-1.191-19.018-.234-21.355-.364-57.136-.389-106.352-.02-.283-1.786-30.62,17.36-56.142a.321.321,0,0,1,.445-.064.318.318,0,0,1,.063.445c-19,25.329-17.253,55.44-17.233,55.74.044,88.024.416,116.971.733,125.464a.282.282,0,0,1,.213-.073.318.318,0,0,1,.307.327C94.592,615.258,94.48,615.387,94.168,615.387Z" transform="translate(-92.766 -430.082)" fill="#2f2537"/>
                </g>
                <g id="Grupo_1208925" data-name="Grupo 1208925" transform="translate(51.424 54.71)">
                  <path id="Trazado_1077654" data-name="Trazado 1077654" d="M155.007,608.676a.317.317,0,0,1-.317-.307L138.942,483.064a.318.318,0,0,1,.307-.328.314.314,0,0,1,.328.307l15.749,125.305a.316.316,0,0,1-.307.327Z" transform="translate(-138.942 -482.736)" fill="#2f2537"/>
                </g>
                <g id="Grupo_1208926" data-name="Grupo 1208926" transform="translate(51.027 1.034)">
                  <path id="Trazado_1077655" data-name="Trazado 1077655" d="M138.877,474.442h-.01a.318.318,0,0,1-.307-.328l1.4-42.73a.3.3,0,0,1,.328-.307.317.317,0,0,1,.307.327l-1.4,42.73A.319.319,0,0,1,138.877,474.442Z" transform="translate(-138.56 -431.077)" fill="#2f2537"/>
                </g>
                <g id="Grupo_1208927" data-name="Grupo 1208927" transform="translate(8.073 0.121)">
                  <path id="Trazado_1077656" data-name="Trazado 1077656" d="M97.537,459.843a.317.317,0,0,1-.155-.594c5.917-3.307,15.56-14.037,16.242-28.747a.334.334,0,0,1,.331-.3.318.318,0,0,1,.3.331c-.694,14.968-10.53,25.9-16.566,29.273A.311.311,0,0,1,97.537,459.843Z" transform="translate(-97.219 -430.198)" fill="#2f2537"/>
                </g>
                <g id="Grupo_1208928" data-name="Grupo 1208928" transform="translate(74.441 0.763)">
                  <path id="Trazado_1077657" data-name="Trazado 1077657" d="M173.1,457.047a.239.239,0,0,1-.054-.005c-1.9-.326-4.1-2.147-6.185-5.126-3.542-5.061-6.767-13.742-5.477-20.841a.323.323,0,0,1,.369-.257.318.318,0,0,1,.256.369c-1.257,6.92,1.9,15.407,5.373,20.365,1.958,2.8,3.1,4.731,4.807,5.024.174.03,1.255.032,1.225.206A.319.319,0,0,1,173.1,457.047Z" transform="translate(-161.095 -430.815)" fill="#2f2537"/>
                </g>
                <g id="Grupo_1208929" data-name="Grupo 1208929" transform="translate(45.998 0.83)">
                  <path id="Trazado_1077658" data-name="Trazado 1077658" d="M139.223,469.643h-.01c-.177-.006-4.345-.238-5.094-8.671-.726-8.171-.238-29.568-.233-29.783a.317.317,0,0,1,.317-.31h.007a.317.317,0,0,1,.31.325c-.005.214-.494,21.576.231,29.711.7,7.825,4.447,8.09,4.484,8.092a.318.318,0,0,1,.3.329A.314.314,0,0,1,139.223,469.643Z" transform="translate(-133.72 -430.88)" fill="#2f2537"/>
                </g>
                <g id="Grupo_1208930" data-name="Grupo 1208930" transform="translate(14.958 4.18)">
                  <path id="Trazado_1077659" data-name="Trazado 1077659" d="M138.071,436.825a274.9,274.9,0,0,1-33.946-2.089.318.318,0,0,1-.275-.354.325.325,0,0,1,.354-.276c36.489,4.569,64.638.219,64.92.174a.318.318,0,1,1,.1.628A223.23,223.23,0,0,1,138.071,436.825Z" transform="translate(-103.847 -434.105)" fill="#2f2537"/>
                </g>
                <path id="Trazado_1077660" data-name="Trazado 1077660" d="M135.23,433.2a1.98,1.98,0,1,0,2.044-1.914A1.981,1.981,0,0,0,135.23,433.2Z" transform="translate(-87.663 -430.035)" fill="#2f2537"/>
              </g>
            </g>
            <path id="Trazado_1077661" data-name="Trazado 1077661" d="M150.081,364.651c8.986,1.632,17.812,4.934,22.787,11.351C180.275,387.866,190,401.4,190,401.4l10.167-31.1s5.509-11.315,8.239-11.495.039,5.131.039,5.131,9.239-9.432,10.583-7.635-5.938,8.919-5.938,8.919,9.99-7.7,11.072-4.811c.57,1.725-8.582,7.356-8.582,7.356s9.565-5,10.28-3.207-8.67,6.2-8.67,6.2,8.006-3.058,8.614-1.163c.515,1.6-8.331,6.579-13.677,8.853-.978,10.238-4.914,39.061-18.581,45.617-14.472,6.941-28.956-22.2-32.557-30.088" transform="translate(-40.272 -254.314)" fill="#ebbc8e"/>
            <g id="Grupo_1208933" data-name="Grupo 1208933" transform="translate(147.908 140.573)">
              <path id="Trazado_1077662" data-name="Trazado 1077662" d="M186.984,403.682a.238.238,0,0,1-.087-.018.234.234,0,0,1-.131-.306c.025-.061,2.506-6.31,3.637-9.768a.235.235,0,1,1,.447.146c-1.135,3.471-3.622,9.734-3.647,9.8A.234.234,0,0,1,186.984,403.682Z" transform="translate(-186.748 -393.429)" fill="#683935"/>
            </g>
            <path id="Trazado_1077663" data-name="Trazado 1077663" d="M158.144,364.024s4.248-4.483,6.607-4.483-.943,5.664.236,7.788,4.483.708,4.719,3.776-3.54,4.719-.708,7.552,5.9,4.012,4.248,6.607a31.119,31.119,0,0,0-2.831,6.843Z" transform="translate(-39.957 -254.178)" fill="#7671af"/>
            <path id="Trazado_1077664" data-name="Trazado 1077664" d="M112.886,371.546l8.287,13.079s-12.28,12.312-26.695,51.165C89.05,450.424,83.19,471.473,83.19,471.473s5.512,10.1,3.828,12.674-4.634-3.433-4.634-3.433,2.224,14.674-.3,14.665-3.994-11.364-3.994-11.364.155,14.174-3.166,13.2c-1.935-.654-.8-12.681-.8-12.681s-1.98,11.97-4.072,11.4.3-11.976.3-11.976-2.668,9.257-4.781,8.522.381-16.367,2.139-21.126c0,0,4.748-57.446,25.547-95.881,4.184-7.319,10.342-9.276,14.329-8.009h0A9.762,9.762,0,0,1,112.886,371.546Z" transform="translate(-43.603 -253.883)" fill="#ebbc8e"/>
            <path id="Trazado_1077665" data-name="Trazado 1077665" d="M119.651,362.123s12.608,4.466,29.126.455c0,0,9.793.414,12.388.649s12.33,19.823,12.566,35.278c.161,10.512-5.644,34.287-5.644,34.287s-42.317,4.759-60.96.161l-8.259-35.038s10.147-.826,10.619-14.276-6.46-20.264-6.46-20.264A44.547,44.547,0,0,1,119.651,362.123Z" transform="translate(-42.271 -254.088)" fill="#7671af"/>
            <g id="Grupo_1208934" data-name="Grupo 1208934" transform="translate(87.29 139.234)">
              <path id="Trazado_1077666" data-name="Trazado 1077666" d="M128.689,417.427a.281.281,0,0,1-.139-.525,49.314,49.314,0,0,0,21.356-24.586.281.281,0,0,1,.522.207,49.882,49.882,0,0,1-21.6,24.866A.283.283,0,0,1,128.689,417.427Z" transform="translate(-128.408 -392.14)" fill="#4d4b82"/>
            </g>
            <g id="Grupo_1208935" data-name="Grupo 1208935" transform="translate(97.125 151.572)">
              <path id="Trazado_1077667" data-name="Trazado 1077667" d="M138.154,426.746a.28.28,0,0,1-.2-.473,54.08,54.08,0,0,0,12.691-22.057.28.28,0,1,1,.538.157,54.645,54.645,0,0,1-12.825,22.286A.277.277,0,0,1,138.154,426.746Z" transform="translate(-137.873 -404.015)" fill="#4d4b82"/>
            </g>
            <path id="Trazado_1077668" data-name="Trazado 1077668" d="M103.1,363.378s-4.4-2.979-5.811-.855,4.248,5.9,5.428,7.315-4.248,3.3-3.54,5.9,5.428,4.012,4.955,7.315-5.191,5.191-5.191,7.552v7.315s10.383.236,10.855-13.214S103.1,363.378,103.1,363.378Z" transform="translate(-42.342 -254.092)" fill="#7671af"/>
            <g id="Grupo_1208936" data-name="Grupo 1208936" transform="translate(167.339 112.392)">
              <path id="Trazado_1077669" data-name="Trazado 1077669" d="M206.77,376.563a.211.211,0,0,1-.036,0,.235.235,0,0,1-.2-.268,18.673,18.673,0,0,0-1.072-9.665.236.236,0,0,1,.133-.3.233.233,0,0,1,.3.132,19.148,19.148,0,0,1,1.1,9.908A.237.237,0,0,1,206.77,376.563Z" transform="translate(-205.45 -366.306)" fill="#683935"/>
            </g>
          </g>
          <g id="Grupo_1208939" data-name="Grupo 1208939" transform="translate(120.631 288.069)">
            <g id="Grupo_1208938" data-name="Grupo 1208938" transform="translate(0 9.395)">
              <path id="Trazado_1077670" data-name="Trazado 1077670" d="M149.813,533.139a28.64,28.64,0,0,0,.387,3.034s5.621,1.923,20.921,1.923c17.1,0,19.288-2.178,19.288-2.178a5.373,5.373,0,0,0-.246-2.038A94.673,94.673,0,0,1,149.813,533.139Z" transform="translate(-149.813 -533.139)" fill="#3b3843"/>
            </g>
            <path id="Trazado_1077671" data-name="Trazado 1077671" d="M163.092,536.777s2.72-9.218,6.509-12.68l3.956,1.542s-4.448,6.181-4.842,11.32Z" transform="translate(-149.295 -524.097)" fill="#3b3843"/>
            <path id="Trazado_1077672" data-name="Trazado 1077672" d="M172.2,536.665s1.186-6.227,4.973-9.689l3.638,1.516a16.253,16.253,0,0,0-2.988,8.355Z" transform="translate(-148.939 -523.985)" fill="#3b3843"/>
          </g>
          <g id="Grupo_1208941" data-name="Grupo 1208941" transform="translate(72.313 290.724)">
            <g id="Grupo_1208940" data-name="Grupo 1208940" transform="translate(0 9.396)">
              <path id="Trazado_1077673" data-name="Trazado 1077673" d="M103.31,535.695a28.631,28.631,0,0,0,.387,3.034s5.621,1.923,20.921,1.923c17.1,0,19.288-2.178,19.288-2.178a5.373,5.373,0,0,0-.246-2.038A94.707,94.707,0,0,1,103.31,535.695Z" transform="translate(-103.31 -535.695)" fill="#3b3843"/>
            </g>
            <path id="Trazado_1077674" data-name="Trazado 1077674" d="M116.589,539.332s2.72-9.218,6.509-12.68l3.956,1.542s-4.448,6.181-4.842,11.32Z" transform="translate(-102.792 -526.652)" fill="#3b3843"/>
            <path id="Trazado_1077675" data-name="Trazado 1077675" d="M125.7,539.22s1.186-6.227,4.974-9.689l3.638,1.516a16.253,16.253,0,0,0-2.988,8.355Z" transform="translate(-102.436 -526.54)" fill="#3b3843"/>
          </g>
        </g>
      </g>
      <g id="Grupo_1208945" data-name="Grupo 1208945" transform="translate(147.156)">
        <path id="Trazado_1077677" data-name="Trazado 1077677" d="M237.752,266.263H195.728c-2.584,0-5.339.126-5.339,3.887s-.583,27.183-.065,30.73c.43,2.947,1.959,4.379,8.332,4.5s35.137-.088,38.407,0c2.067.056,5.942.056,6.2-4.389.263-4.526.192-26.143.165-30.218C243.456,265.95,237.752,266.263,237.752,266.263Z" transform="translate(-190.109 -266.259)" fill="#e28279"/>
        <path id="Trazado_1077678" data-name="Trazado 1077678" d="M220.6,307.616s-.335,6.705-3.017,11.734c0,0,8.55-1.509,11.232-12.908Z" transform="translate(-193.115 -270.656)" fill="#e28279"/>
        <g id="Grupo_1208944" data-name="Grupo 1208944" transform="translate(7.874 9.32)">
          <path id="Trazado_1077679" data-name="Trazado 1077679" d="M236,276.726H199.493c-.249,0-.516.008-.516.255s-.056,1.781-.006,2.014c.042.193.19.287.805.295s35.842,0,36.159,0c.2,0,.574,0,.6-.288s.019-1.713.016-1.98C236.551,276.705,236,276.726,236,276.726Z" transform="translate(-198.951 -276.725)" fill="#fff"/>
          <path id="Trazado_1077680" data-name="Trazado 1077680" d="M236,287.666H199.493c-.249,0-.516.008-.516.255s-.056,1.781-.006,2.014c.042.193.19.287.805.295s35.842,0,36.159,0c.2,0,.574,0,.6-.288s.019-1.713.016-1.98C236.551,287.645,236,287.666,236,287.666Z" transform="translate(-198.951 -277.922)" fill="#fff"/>
          <path id="Trazado_1077681" data-name="Trazado 1077681" d="M236,299.1H199.493c-.249,0-.516.008-.516.255s-.056,1.781-.006,2.014c.042.193.19.287.805.295s35.842,0,36.159,0c.2,0,.574,0,.6-.288s.019-1.713.016-1.98C236.551,299.079,236,299.1,236,299.1Z" transform="translate(-198.951 -279.173)" fill="#fff"/>
        </g>
      </g>
    </g>
  </g>
</svg>
