<svg xmlns="http://www.w3.org/2000/svg" xmlns:xlink="http://www.w3.org/1999/xlink" width="103" height="103" viewBox="0 0 103 103">
  <defs>
    <filter id="Trazado_978624" x="0" y="0" width="103" height="103" filterUnits="userSpaceOnUse">
      <feOffset dy="3" input="SourceAlpha"/>
      <feGaussianBlur stdDeviation="3" result="blur"/>
      <feFlood flood-opacity="0.161"/>
      <feComposite operator="in" in2="blur"/>
      <feComposite in="SourceGraphic"/>
    </filter>
  </defs>
  <g id="Grupo_1208852" data-name="Grupo 1208852" transform="translate(-166 -2137)">
    <g id="Grupo_1207025" data-name="Grupo 1207025" transform="translate(-5 -766)">
      <g id="Grupo_1183755" data-name="Grupo 1183755" transform="translate(180 2909)">
        <g id="Grupo_1174730" data-name="Grupo 1174730">
          <g id="Grupo_1173798" data-name="Grupo 1173798">
            <g id="Grupo_1171925" data-name="Grupo 1171925">
              <g id="Grupo_1164524" data-name="Grupo 1164524">
                <g id="Grupo_1144123" data-name="Grupo 1144123">
                  <g transform="matrix(1, 0, 0, 1, -9, -6)" filter="url(#Trazado_978624)">
                    <g id="Trazado_978624-2" data-name="Trazado 978624" transform="translate(9 6)" fill="#ebe9f0">
                      <path d="M 42.5 83.5 C 36.96437835693359 83.5 31.59512901306152 82.41617584228516 26.54141235351562 80.27863311767578 C 21.65934181213379 78.21369171142578 17.27447128295898 75.25723266601562 13.50862312316895 71.49137878417969 C 9.742764472961426 67.72553253173828 6.786305904388428 63.34066009521484 4.721364498138428 58.45858764648438 C 2.583823442459106 53.40486907958984 1.5 48.03562164306641 1.5 42.5 C 1.5 36.96437835693359 2.583823442459106 31.59512901306152 4.721364498138428 26.54141235351562 C 6.786305904388428 21.65934181213379 9.742764472961426 17.27447128295898 13.50862312316895 13.50862312316895 C 17.27447128295898 9.742764472961426 21.65934181213379 6.786305904388428 26.54141235351562 4.721364498138428 C 31.59512901306152 2.583823442459106 36.96437835693359 1.5 42.5 1.5 C 48.03562164306641 1.5 53.40486907958984 2.583823442459106 58.45858764648438 4.721364498138428 C 63.34066009521484 6.786305904388428 67.72553253173828 9.742764472961426 71.49137878417969 13.50862312316895 C 75.25723266601562 17.27447128295898 78.21369171142578 21.65934181213379 80.27863311767578 26.54141235351562 C 82.41617584228516 31.59512901306152 83.5 36.96437835693359 83.5 42.5 C 83.5 48.03562164306641 82.41617584228516 53.40486907958984 80.27863311767578 58.45858764648438 C 78.21369171142578 63.34066009521484 75.25723266601562 67.72553253173828 71.49137878417969 71.49137878417969 C 67.72553253173828 75.25723266601562 63.34066009521484 78.21369171142578 58.45858764648438 80.27863311767578 C 53.40486907958984 82.41617584228516 48.03562164306641 83.5 42.5 83.5 Z" stroke="none"/>
                      <path d="M 42.5 3 C 37.16621398925781 3 31.99356079101562 4.043960571289062 27.125732421875 6.102882385253906 C 22.42246627807617 8.092185974121094 18.19785308837891 10.94070434570312 14.56928253173828 14.56928253173828 C 10.94070434570312 18.19785308837891 8.092185974121094 22.42246627807617 6.102882385253906 27.125732421875 C 4.043960571289062 31.99356079101562 3 37.16621398925781 3 42.5 C 3 47.83378601074219 4.043960571289062 53.00643920898438 6.102882385253906 57.87425231933594 C 8.092185974121094 62.57753372192383 10.94070434570312 66.80213165283203 14.56928253173828 70.43071746826172 C 18.19786834716797 74.05929565429688 22.42246627807617 76.90781402587891 27.125732421875 78.89711761474609 C 31.99356079101562 80.95603942871094 37.16621398925781 82 42.5 82 C 47.83378601074219 82 53.00642395019531 80.95603942871094 57.87425231933594 78.89711761474609 C 62.57753372192383 76.90781402587891 66.80213165283203 74.05929565429688 70.43071746826172 70.43071746826172 C 74.05929565429688 66.80213165283203 76.90781402587891 62.57753372192383 78.89711761474609 57.87425231933594 C 80.95603942871094 53.00642395019531 82 47.83378601074219 82 42.5 C 82 37.16621398925781 80.95603942871094 31.99356079101562 78.89711761474609 27.125732421875 C 76.90781402587891 22.42246627807617 74.05929565429688 18.19786834716797 70.43071746826172 14.56928253173828 C 66.80213165283203 10.94070434570312 62.57753372192383 8.092185974121094 57.87425231933594 6.102882385253906 C 53.00643920898438 4.043960571289062 47.83378601074219 3 42.5 3 M 42.5 0 C 65.97209167480469 0 85 19.02789306640625 85 42.5 C 85 65.97209167480469 65.97209167480469 85 42.5 85 C 19.02789306640625 85 0 65.97209167480469 0 42.5 C 0 19.02789306640625 19.02789306640625 0 42.5 0 Z" stroke="none" fill="#c6c0d6"/>
                    </g>
                  </g>
                </g>
              </g>
            </g>
          </g>
        </g>
      </g>
    </g>
    <g id="dibujar_3_" data-name="dibujar (3)" transform="translate(191.384 2159.384)">
      <g id="Grupo_1208850" data-name="Grupo 1208850" transform="translate(0.765 0.934)">
        <path id="Trazado_1077466" data-name="Trazado 1077466" d="M27.737,52,11.2,35.49a.408.408,0,0,1,0-.577L24.261,21.869l3.472-2.427a.408.408,0,0,1,.577,0L44.841,34.92a.408.408,0,0,1,0,.577L28.314,52A.408.408,0,0,1,27.737,52Z" transform="translate(-10.717 -18.285)" fill="#eef5f6"/>
        <path id="Trazado_1077467" data-name="Trazado 1077467" d="M160.84,26.362l-4.051,4.047a2.328,2.328,0,0,0-.055-3.239l-13.815-13.8a3.289,3.289,0,0,0-2.659-.637l3.469-3.464a.408.408,0,0,1,.576,0L160.84,25.785A.409.409,0,0,1,160.84,26.362Z" transform="translate(-126.716 -9.15)" fill="#deecf1"/>
        <path id="Trazado_1077468" data-name="Trazado 1077468" d="M229.314,213.007l-2.609,1.528-18.672,7.185a.408.408,0,0,1-.527-.234L199.1,199.7a.408.408,0,0,1,.234-.528l18.583-7.151,3.079-.506a.408.408,0,0,1,.527.234l8.027,20.732A.408.408,0,0,1,229.314,213.007Z" transform="translate(-179.527 -172.885)" fill="#ade194"/>
        <path id="Trazado_1077469" data-name="Trazado 1077469" d="M395.723,206.831l-3.817,1.469a1.575,1.575,0,0,0,.9-2.039l-7.565-19.606a2.33,2.33,0,0,0-1.455-1.129l3.232-1.244a.409.409,0,0,1,.527.235l8.408,21.787A.408.408,0,0,1,395.723,206.831Z" transform="translate(-345.403 -166.391)" fill="#97da7b"/>
        <path id="Trazado_1077470" data-name="Trazado 1077470" d="M30.777,291.177l-4.25.615H7.908a.408.408,0,0,1-.408-.408V268.036a.408.408,0,0,1,.408-.408H31.287a.408.408,0,0,1,.408.408l-.51,22.733A.408.408,0,0,1,30.777,291.177Z" transform="translate(-7.5 -241.259)" fill="#8ac9fe"/>
        <path id="Trazado_1077471" data-name="Trazado 1077471" d="M193.44,268.038v23.348a.408.408,0,0,1-.408.408h-5.349a1.676,1.676,0,0,0,1.676-1.676V279.979l-1.739-2.3,1.739-10.044h3.673A.408.408,0,0,1,193.44,268.038Z" transform="translate(-169.245 -241.261)" fill="#60b7ff"/>
        <path id="Trazado_1077472" data-name="Trazado 1077472" d="M292.435,287.76l-1.426.55a6.5,6.5,0,0,0-12.127,4.68l-1.426.55a1.093,1.093,0,0,1-1.459-.76,9.2,9.2,0,0,1,17.008-6.564A1.1,1.1,0,0,1,292.435,287.76Z" transform="translate(-248.38 -253.671)" fill="#fe7ab6"/>
        <path id="Trazado_1077473" data-name="Trazado 1077473" d="M314.764,312.069h0l-1.781.687a1.087,1.087,0,0,1-1.29-.392,3.624,3.624,0,0,0-6.581,2.539,1.088,1.088,0,0,1-.694,1.158l-1.78.688a6.5,6.5,0,0,1,12.127-4.681Z" transform="translate(-272.135 -277.431)" fill="#8ac9fe"/>
        <path id="Trazado_1077474" data-name="Trazado 1077474" d="M55.11,323.3c-.8.227-1.751-.884-2.54-.914-.817-.031-1.85,1-2.6.72s-.88-1.735-1.516-2.234-2.074-.265-2.53-.945c-.439-.656.315-1.9.088-2.7s-1.522-1.463-1.492-2.251c.031-.817,1.381-1.38,1.657-2.132s-.381-2.061.118-2.7,1.913-.3,2.592-.753c.656-.439.882-1.884,1.682-2.111s1.751.884,2.54.914c.817.031,1.85-1,2.6-.72s.88,1.735,1.516,2.234,2.074.265,2.53.945c.439.656-.315,1.9-.088,2.7s1.522,1.463,1.492,2.251c-.031.817-1.381,1.38-1.657,2.132s.381,2.061-.118,2.7-1.913.3-2.592.753C56.137,321.632,55.911,323.077,55.11,323.3Z" transform="translate(-40.742 -276.844)" fill="#fece85"/>
        <circle id="Elipse_13562" data-name="Elipse 13562" cx="3.573" cy="3.573" r="3.573" transform="translate(8.525 34.878)" fill="#fec165"/>
        <path id="Trazado_1077475" data-name="Trazado 1077475" d="M139.574,264.461l-2.693-2.691-.945.448-2.4.768a8,8,0,0,0-5.1,5.889l2.223.486a2.221,2.221,0,0,1,2.222,2.222l.472.3A12.935,12.935,0,0,0,139.574,264.461Z" transform="translate(-116.093 -235.999)" fill="#d78878"/>
        <path id="Trazado_1077476" data-name="Trazado 1077476" d="M128.9,336.243c-.083.018-.447-.245-.53-.23l-3.073.538a1.384,1.384,0,0,1-1.709-1.709l-.131-.916.5-2.457c0-.016.007-.033.011-.049h2.686a2.221,2.221,0,0,1,2.222,2.222Z" transform="translate(-111.629 -298.543)" fill="#fec165"/>
        <path id="Trazado_1077477" data-name="Trazado 1077477" d="M174.47,265.223l-.4.994-.739,2.29A8.008,8.008,0,0,1,167.5,273.7l-1.058-1.555a11.073,11.073,0,0,0,.995-1.446,7.724,7.724,0,0,0,3.643-6.658,8.131,8.131,0,0,0-.3-2.185l.234-.085Z" transform="translate(-150.226 -235.999)" fill="#ca6e59"/>
        <path id="Trazado_1077478" data-name="Trazado 1077478" d="M126.577,352.281c-.083.018-.165.036-.248.051l-3.553.671a1.605,1.605,0,0,1-1.873-1.893l.232-1.147a6.684,6.684,0,0,0,5.379-.684,2.243,2.243,0,0,1,.036.4Z" transform="translate(-109.305 -314.581)" fill="#fdb441"/>
        <path id="Trazado_1077479" data-name="Trazado 1077479" d="M206.017,224.2l-.678-.053a3.606,3.606,0,0,1-3.323-3.6v-.35l4.9-4.894a1.119,1.119,0,0,1,1.582,0l2.42,2.418a1.116,1.116,0,0,1,0,1.58Z" transform="translate(-182.172 -193.984)" fill="#deecf1"/>
        <path id="Trazado_1077480" data-name="Trazado 1077480" d="M239.54,41.912l-1.184-.76a3.023,3.023,0,0,1-.219-4.034l2.56-3.182a34.522,34.522,0,0,1,5.95-5.8L260.12,17.85a1.9,1.9,0,0,1,1.457-.4c1.194.752,1.38,1.754.359,3.086l-9.851,12.741a32.17,32.17,0,0,1-5.415,5.914l-3.092,2.942a3.032,3.032,0,0,1-4.039-.221Z" transform="translate(-214.009 -16.584)" fill="#7a8c98"/>
        <path id="Trazado_1077481" data-name="Trazado 1077481" d="M268.461,20.766,258.152,34.215a34.5,34.5,0,0,1-5.812,5.938l-3.188,2.554a3.032,3.032,0,0,1-4.039-.221l-1.154-1.153a2.976,2.976,0,0,1-.25-.284,3.032,3.032,0,0,0,3.761-.023l3.188-2.554a34.469,34.469,0,0,0,5.812-5.939L266.78,19.085a1.888,1.888,0,0,0,.4-1.455A1.961,1.961,0,0,1,268.461,20.766Z" transform="translate(-219.613 -16.765)" fill="#687c87"/>
        <path id="Trazado_1077482" data-name="Trazado 1077482" d="M124.09,108.845a2.734,2.734,0,0,0-3.673.1,2.7,2.7,0,0,0-.253.282.3.3,0,0,1-.464.009q-.076-.087-.159-.17a3.564,3.564,0,0,0-5.988,3.339.308.308,0,0,1-.221.371,2.034,2.034,0,0,0-.92.53,2.057,2.057,0,0,0,.159,3.036.3.3,0,0,1,.054.419,2.719,2.719,0,0,0,4.048,3.619l7.558-7.558A2.72,2.72,0,0,0,124.09,108.845Z" transform="translate(-101.176 -97.938)" fill="#8ac9fe"/>
      </g>
      <g id="Grupo_1208851" data-name="Grupo 1208851" transform="translate(0 0)">
        <path id="Trazado_1077483" data-name="Trazado 1077483" d="M33.252,47.417l-3.923,1.51-3.6-9.338V31.119l2.818-2.813a3.787,3.787,0,0,0,2.239-.833l3.188-2.555a35.32,35.32,0,0,0,3.747-3.479l4.607-1.773.842,2.183A.765.765,0,0,0,44.6,21.3l-1.117-2.9a.765.765,0,0,0-.989-.439L39.793,19,50.22,5.4a2.657,2.657,0,0,0-.233-3.567,2.662,2.662,0,0,0-3.574-.24L40.326,6.239a.765.765,0,1,0,.929,1.216l6.087-4.647a1.14,1.14,0,0,1,1.563.105,1.122,1.122,0,0,1,.1,1.556L38.7,17.918a33.8,33.8,0,0,1-5.683,5.807l-3.188,2.555a2.264,2.264,0,0,1-3.019-.165l-1.154-1.153a2.255,2.255,0,0,1-.163-3.013l2.56-3.182a33.8,33.8,0,0,1,5.818-5.672l4.546-3.471a.765.765,0,1,0-.929-1.216L32.94,11.877q-.753.575-1.474,1.191L18.606.224a.765.765,0,0,0-1.081,0L6.185,11.551a.765.765,0,1,0,1.081,1.083l10.8-10.787L30.321,14.087a35.306,35.306,0,0,0-3.463,3.719L24.3,20.988a3.779,3.779,0,0,0-.836,2.237l-3.107,3.1-.581.211H10.742l-8.7-8.688,2.7-2.693a.765.765,0,1,0-1.081-1.083L.421,17.308a.765.765,0,0,0,0,1.083l8.156,8.147H.765A.765.765,0,0,0,0,27.3V51.467a.765.765,0,0,0,.765.765h24.2a.765.765,0,0,0,.765-.765V43.839l2.451,6.352a.764.764,0,0,0,.989.439L33.8,48.845a.765.765,0,0,0-.549-1.428ZM19.886,39.008a2.609,2.609,0,0,1,.533.662c-.013.135-.413.489-.6.659a3.3,3.3,0,0,0-1.006,1.238,3.328,3.328,0,0,0-.038,1.608,2.528,2.528,0,0,1,.038.879,2.513,2.513,0,0,1-.855.171,3.359,3.359,0,0,0-1.563.421,3.208,3.208,0,0,0-.954,1.256c-.123.233-.379.717-.511.755s-.6-.241-.831-.374a3.207,3.207,0,0,0-1.471-.568,3.338,3.338,0,0,0-1.551.462,2.6,2.6,0,0,1-.814.3,2.467,2.467,0,0,1-.433-.77,3.326,3.326,0,0,0-.877-1.349,3.3,3.3,0,0,0-1.506-.526,2.545,2.545,0,0,1-.857-.238,2.52,2.52,0,0,1,.1-.849,3.4,3.4,0,0,0,.083-1.638,3.4,3.4,0,0,0-.93-1.351,2.609,2.609,0,0,1-.533-.662c.013-.135.413-.489.6-.659A3.3,3.3,0,0,0,6.917,37.2a3.327,3.327,0,0,0,.038-1.608,2.53,2.53,0,0,1-.038-.879,2.512,2.512,0,0,1,.855-.171,3.359,3.359,0,0,0,1.563-.421,3.208,3.208,0,0,0,.954-1.256c.123-.233.379-.717.511-.755s.6.241.831.374a5.169,5.169,0,0,0,.9.455c-.075.252-.14.507-.193.767l-.286,1.414a4.338,4.338,0,0,0-.289,8.46,4.363,4.363,0,0,0,1.1.143,4.312,4.312,0,0,0,2.185-.6,4.36,4.36,0,0,0,2.14-3.552l.736-.139a8.736,8.736,0,0,0,1.828-.559l.126.131Zm-2.64-1-3.151.6a.84.84,0,0,1-.981-.99l.614-3.04h2.061a1.459,1.459,0,0,1,1.458,1.456Zm-5,1.435a2.371,2.371,0,0,0,2.128.664l1.248-.236a2.821,2.821,0,0,1-1.344,1.935,2.808,2.808,0,1,1-2.57-4.983l-.1.487A2.365,2.365,0,0,0,12.25,39.444Zm6.526-1.821V36.032a2.991,2.991,0,0,0-2.988-2.987H14.108a7.293,7.293,0,0,1,4.358-4.4l1.422-.517a4.4,4.4,0,0,0,3.73,3.709l-.471,1.359a7.261,7.261,0,0,1-4.372,4.431ZM25.725,27.2a3.8,3.8,0,0,0,1.03.733l-2.437,2.432a2.894,2.894,0,0,1-2.945-2.891l2.463-2.458a3.8,3.8,0,0,0,.734,1.031ZM1.53,50.7V28.068H16.2a8.871,8.871,0,0,0-3.1,3.448,3.458,3.458,0,0,1-.693-.348,2.624,2.624,0,0,0-2.025-.528,2.625,2.625,0,0,0-1.447,1.513,2.627,2.627,0,0,1-.452.7,2.6,2.6,0,0,1-.864.17,2.587,2.587,0,0,0-1.9.747,2.6,2.6,0,0,0-.275,2.04,2.587,2.587,0,0,1,.041.866,2.64,2.64,0,0,1-.585.621,2.608,2.608,0,0,0-1.119,1.746,2.53,2.53,0,0,0,.961,1.783,2.6,2.6,0,0,1,.559.706,2.607,2.607,0,0,1-.105.895,2.529,2.529,0,0,0,.118,2.022,2.608,2.608,0,0,0,1.869.9A2.637,2.637,0,0,1,8,45.567a2.588,2.588,0,0,1,.419.759,2.6,2.6,0,0,0,1.3,1.592,2.586,2.586,0,0,0,2.013-.364,2.556,2.556,0,0,1,.824-.309,2.624,2.624,0,0,1,.752.357,3.262,3.262,0,0,0,1.592.588,1.583,1.583,0,0,0,.434-.06,2.625,2.625,0,0,0,1.447-1.513,2.625,2.625,0,0,1,.452-.7,2.6,2.6,0,0,1,.864-.17A2.587,2.587,0,0,0,20.01,45a2.6,2.6,0,0,0,.275-2.04,2.587,2.587,0,0,1-.041-.866,2.64,2.64,0,0,1,.585-.621,2.608,2.608,0,0,0,1.119-1.746,2.26,2.26,0,0,0-.793-1.607,8.8,8.8,0,0,0,3.04-3.474V50.7Z" transform="translate(0 0)"/>
        <path id="Trazado_1077484" data-name="Trazado 1077484" d="M369.913,253.438l-6.3-16.322a.765.765,0,1,0-1.428.551l6.023,15.608-13.891,5.345a.765.765,0,1,0,.549,1.428l14.606-5.62a.765.765,0,0,0,.439-.99Z" transform="translate(-317.732 -212.487)"/>
        <path id="Trazado_1077485" data-name="Trazado 1077485" d="M277.19,281.3a2.844,2.844,0,0,1,3.388,1.052,1.845,1.845,0,0,0,2.2.675l3.207-1.237a1.859,1.859,0,0,0,.966-2.625,9.964,9.964,0,0,0-18.423,7.109,1.861,1.861,0,0,0,2.479,1.3l3.207-1.237a1.844,1.844,0,0,0,1.176-1.977A2.845,2.845,0,0,1,277.19,281.3Zm-6.736,4.842a.331.331,0,0,1-.276-.016.318.318,0,0,1-.163-.208,8.434,8.434,0,0,1,15.593-6.017.318.318,0,0,1,.019.264.331.331,0,0,1-.194.2l-.75.289a7.264,7.264,0,0,0-13.479,5.2Zm3.417-1.576a.325.325,0,0,1-.211.339l-1.019.393a5.733,5.733,0,0,1,10.6-4.091l-1.018.393a.324.324,0,0,1-.384-.109,4.389,4.389,0,0,0-7.971,3.076Z" transform="translate(-240.889 -246.058)"/>
        <path id="Trazado_1077486" data-name="Trazado 1077486" d="M105.019,109.906a3.485,3.485,0,0,0,5.436,4.282l7.558-7.558a3.484,3.484,0,0,0-4.858-4.995,4.3,4.3,0,0,0-2.894-1.109h0a4.331,4.331,0,0,0-4.289,4.92,2.806,2.806,0,0,0-.953,4.46Zm1.174-2.791a1.262,1.262,0,0,1,.769-.367.765.765,0,0,0,.646-1,2.8,2.8,0,0,1,2.654-3.688h0a2.78,2.78,0,0,1,1.979.82,2.881,2.881,0,0,1,.322.384.765.765,0,0,0,1.292-.063,1.954,1.954,0,1,1,3.077,2.351l-7.558,7.558a1.954,1.954,0,0,1-2.764-2.762l.012-.012a.765.765,0,0,0-.163-1.208,1.229,1.229,0,0,1-.264-.2A1.279,1.279,0,0,1,106.193,107.115Z" transform="translate(-93.651 -90.271)"/>
      </g>
    </g>
  </g>
</svg>
