<svg xmlns="http://www.w3.org/2000/svg" xmlns:xlink="http://www.w3.org/1999/xlink" width="110" height="110" viewBox="0 0 110 110">
  <defs>
    <filter id="Trazado_982547" x="0" y="0" width="110" height="110" filterUnits="userSpaceOnUse">
      <feOffset dy="3" input="SourceAlpha"/>
      <feGaussianBlur stdDeviation="3" result="blur"/>
      <feFlood flood-opacity="0.161"/>
      <feComposite operator="in" in2="blur"/>
      <feComposite in="SourceGraphic"/>
    </filter>
  </defs>
  <g id="Grupo_1208864" data-name="Grupo 1208864" transform="translate(-797 -2435.793)">
    <g id="Grupo_1185484" data-name="Grupo 1185484" transform="translate(806 2441.793)">
      <g id="Grupo_1183657" data-name="Grupo 1183657" transform="translate(0 0)">
        <g id="Grupo_1179603" data-name="Grupo 1179603">
          <g id="Grupo_1172349" data-name="Grupo 1172349" transform="translate(0 0)">
            <g id="Grupo_1164700" data-name="Grupo 1164700">
              <g id="Grupo_1160931" data-name="Grupo 1160931">
                <g id="Grupo_1160749" data-name="Grupo 1160749">
                  <g id="Grupo_1158891" data-name="Grupo 1158891">
                    <g id="Grupo_1157406" data-name="Grupo 1157406">
                      <g id="Grupo_1155793" data-name="Grupo 1155793">
                        <g id="Grupo_1154704" data-name="Grupo 1154704">
                          <g id="Grupo_1150790" data-name="Grupo 1150790">
                            <g id="Grupo_1154214" data-name="Grupo 1154214">
                              <g id="Grupo_1152583" data-name="Grupo 1152583">
                                <g id="Grupo_1146973" data-name="Grupo 1146973">
                                  <g id="Grupo_1146954" data-name="Grupo 1146954">
                                    <g transform="matrix(1, 0, 0, 1, -9, -6)" filter="url(#Trazado_982547)">
                                      <g id="Trazado_982547-2" data-name="Trazado 982547" transform="translate(9 6)" fill="#effbfe">
                                        <path d="M 46.00000381469727 90.49986267089844 C 39.99188232421875 90.49986267089844 34.16428375244141 89.32350158691406 28.67905807495117 87.00344848632812 C 23.38021659851074 84.76223754882812 18.62104415893555 81.55341339111328 14.53376388549805 77.46613311767578 C 10.44647026062012 73.37885284423828 7.237643718719482 68.61968994140625 4.996417045593262 63.32085037231445 C 2.676363706588745 57.83565139770508 1.500003814697266 52.00805282592773 1.500003814697266 45.99993133544922 C 1.500003814697266 39.99182510375977 2.676363706588745 34.16422653198242 4.996417045593262 28.67901039123535 C 7.237643718719482 23.38017082214355 10.44647026062012 18.62101173400879 14.53376388549805 14.53373146057129 C 18.62104415893555 10.44645118713379 23.38021659851074 7.237624645233154 28.67905807495117 4.996411323547363 C 34.16428375244141 2.676357984542847 39.99188232421875 1.499997973442078 46.00000381469727 1.499997973442078 C 52.00812530517578 1.499997973442078 57.83573532104492 2.676357984542847 63.32094955444336 4.996411323547363 C 68.61980438232422 7.237624645233154 73.37896728515625 10.44645118713379 77.46625518798828 14.53373146057129 C 81.55353546142578 18.62101173400879 84.76236724853516 23.38017082214355 87.00359344482422 28.67901039123535 C 89.32364654541016 34.16422653198242 90.5 39.99182510375977 90.5 45.99993133544922 C 90.5 52.00805282592773 89.32364654541016 57.83565139770508 87.00359344482422 63.32085037231445 C 84.76236724853516 68.61968994140625 81.55353546142578 73.37885284423828 77.46625518798828 77.46613311767578 C 73.37896728515625 81.55341339111328 68.61980438232422 84.76223754882812 63.32094955444336 87.00344848632812 C 57.83573532104492 89.32350158691406 52.00812530517578 90.49986267089844 46.00000381469727 90.49986267089844 Z" stroke="none"/>
                                        <path d="M 46.00000381469727 3 C 40.19371795654297 3 34.56270217895508 4.136505126953125 29.26338958740234 6.377914428710938 C 24.14333343505859 8.54351806640625 19.54443359375 11.64438629150391 15.59442138671875 15.59439086914062 C 11.64440155029297 19.54440307617188 8.543533325195312 24.14330291748047 6.3779296875 29.26334381103516 C 4.136505126953125 34.56266021728516 3.000007629394531 40.19366073608398 3.000007629394531 45.99993133544922 C 3.000007629394531 51.80620193481445 4.136505126953125 57.43720245361328 6.3779296875 62.73651885986328 C 8.543533325195312 67.85655975341797 11.64440155029297 72.45545959472656 15.59442138671875 76.40547180175781 C 19.54443359375 80.35547637939453 24.14333343505859 83.45634460449219 29.26338958740234 85.6219482421875 C 34.56270217895508 87.86335754394531 40.19371795654297 88.99986267089844 46.00000381469727 88.99986267089844 C 51.80628967285156 88.99986267089844 57.43730545043945 87.86335754394531 62.73663330078125 85.6219482421875 C 67.85667419433594 83.45634460449219 72.45558929443359 80.35547637939453 76.40560150146484 76.40547180175781 C 80.35560607910156 72.45545959472656 83.45648956298828 67.85655975341797 85.62208557128906 62.73651885986328 C 87.86350250244141 57.43720245361328 89 51.80620193481445 89 45.99993133544922 C 89 40.19366073608398 87.86350250244141 34.56266021728516 85.62208557128906 29.26334381103516 C 83.45648956298828 24.14330291748047 80.35560607910156 19.54440307617188 76.40560150146484 15.59439086914062 C 72.45558929443359 11.64438629150391 67.85667419433594 8.54351806640625 62.73663330078125 6.377914428710938 C 57.43730545043945 4.136505126953125 51.80628967285156 3 46.00000381469727 3 M 46.00000381469727 0 C 71.40510559082031 0 92 20.59487152099609 92 45.99993133544922 C 92 71.40499114990234 71.40510559082031 91.99986267089844 46.00000381469727 91.99986267089844 C 20.59491729736328 91.99986267089844 7.62939453125e-06 71.40499114990234 7.62939453125e-06 45.99993133544922 C 7.62939453125e-06 20.59487152099609 20.59491729736328 0 46.00000381469727 0 Z" stroke="none" fill="#397b86"/>
                                      </g>
                                    </g>
                                  </g>
                                </g>
                              </g>
                            </g>
                          </g>
                        </g>
                      </g>
                    </g>
                  </g>
                </g>
              </g>
            </g>
          </g>
        </g>
      </g>
    </g>
    <g id="sentidos_1_" data-name="sentidos (1)" transform="translate(816.336 2447.06)">
      <g id="Grupo_1208853" data-name="Grupo 1208853" transform="translate(6.464 13.754)">
        <circle id="Elipse_13563" data-name="Elipse 13563" cx="28.439" cy="28.439" r="28.439" fill="#02c7dd"/>
      </g>
      <g id="Grupo_1208854" data-name="Grupo 1208854" transform="translate(19.49 15.502)">
        <path id="Trazado_1077487" data-name="Trazado 1077487" d="M165.16,74.888a28.447,28.447,0,0,1-25.253,50.594A28.444,28.444,0,1,0,165.16,74.888Z" transform="translate(-139.907 -74.888)" fill="#07b2cd"/>
      </g>
      <g id="Grupo_1208855" data-name="Grupo 1208855" transform="translate(22.326 6.935)">
        <path id="Trazado_1077488" data-name="Trazado 1077488" d="M160.263,21.395a4.658,4.658,0,0,0,1.093,1.995c1.894,2.429,6.1,6.009,11.484,6.009,5.472,0,9.733-3.7,11.578-6.131a4.377,4.377,0,0,0,1-1.872,4.376,4.376,0,0,0-1-1.872c-1.846-2.429-6.106-6.131-11.578-6.131-5.136,0-9.205,3.262-11.212,5.671a5.439,5.439,0,0,0-1.365,2.332Z" transform="translate(-160.263 -13.391)" fill="#dcf5f8"/>
      </g>
      <g id="Grupo_1208856" data-name="Grupo 1208856" transform="translate(31.473 11.508)">
        <circle id="Elipse_13564" data-name="Elipse 13564" cx="3.43" cy="3.43" r="3.43" transform="translate(0 0)" fill="#017297"/>
      </g>
      <g id="Grupo_1208857" data-name="Grupo 1208857" transform="translate(51.365 23.318)">
        <path id="Trazado_1077489" data-name="Trazado 1077489" d="M387.522,146.458a5.883,5.883,0,0,0-2.424-3.105,5.22,5.22,0,0,1-2.415-3.74l-.651-5.212a3.885,3.885,0,0,0-7.711,0l-.651,5.212a5.22,5.22,0,0,1-2.415,3.74,5.883,5.883,0,0,0-2.424,3.105,2.153,2.153,0,0,0,2.042,2.833h2.083a3.581,3.581,0,0,1,2.865,1.433,2.945,2.945,0,0,0,4.712,0,3.581,3.581,0,0,1,2.865-1.433h2.083A2.152,2.152,0,0,0,387.522,146.458Z" transform="translate(-368.718 -130.997)" fill="#ffe5c2"/>
      </g>
      <g id="Grupo_1208858" data-name="Grupo 1208858" transform="translate(42.219 53.951)">
        <path id="Trazado_1077490" data-name="Trazado 1077490" d="M311.766,371.469a6.606,6.606,0,0,1-6.477-5.31L303.136,355.4a3.768,3.768,0,0,1,5.785-3.874,5.129,5.129,0,0,0,5.69,0A3.768,3.768,0,0,1,320.4,355.4l-2.153,10.763A6.605,6.605,0,0,1,311.766,371.469Z" transform="translate(-303.063 -350.889)" fill="#e94444"/>
      </g>
      <g id="Grupo_1208859" data-name="Grupo 1208859" transform="translate(1.045 21.297)">
        <path id="Trazado_1077491" data-name="Trazado 1077491" d="M7.5,135.761a5.67,5.67,0,0,0,11.33.348c0-.06.006-.119.008-.178a9.909,9.909,0,0,1,2.547-6.251A7.938,7.938,0,1,0,7.5,124.421Z" transform="translate(-7.5 -116.483)" fill="#ffdfcf"/>
      </g>
      <g id="Grupo_1208860" data-name="Grupo 1208860" transform="translate(26.691 36.842)">
        <path id="Trazado_1077492" data-name="Trazado 1077492" d="M204.108,235.775v-7.332a.368.368,0,0,0-.368-.368h-7.863a.368.368,0,0,0-.368.368v7.332a.368.368,0,0,1-.368.368h-3.176a.368.368,0,0,0-.29.6l7.843,10.009a.368.368,0,0,0,.58,0l7.843-10.009a.368.368,0,0,0-.29-.6h-3.176A.368.368,0,0,1,204.108,235.775Z" transform="translate(-191.597 -228.075)" fill="#ffc344"/>
      </g>
      <g id="Grupo_1208861" data-name="Grupo 1208861" transform="translate(10.126 52.808)">
        <path id="Trazado_1077493" data-name="Trazado 1077493" d="M86.113,342.681h-6.16a2.454,2.454,0,0,0-2.454,2.454v4.426a2.454,2.454,0,0,0-3.461.01l-.99.99a1.227,1.227,0,0,0,0,1.735l6.319,6.319h0l.033.033a2.171,2.171,0,0,1,.64,1.539v2.843a.736.736,0,0,0,.736.736h6.15a.736.736,0,0,0,.736-.736V360.2a2.22,2.22,0,0,1,.662-1.575,6.333,6.333,0,0,0,1.879-4.51v-7.344A4.089,4.089,0,0,0,86.113,342.681Z" transform="translate(-72.688 -342.681)" fill="#eb9c8d"/>
      </g>
      <g id="Grupo_1208862" data-name="Grupo 1208862" transform="translate(30.603 28.157)">
        <path id="Trazado_1077494" data-name="Trazado 1077494" d="M227.911,170.3h-7.863a.368.368,0,0,1-.368-.368V166.1a.368.368,0,0,1,.368-.368h7.863a.368.368,0,0,1,.368.368v3.837A.368.368,0,0,1,227.911,170.3Z" transform="translate(-219.68 -165.728)" fill="#ffc344"/>
      </g>
      <g id="Grupo_1208863" data-name="Grupo 1208863" transform="translate(0 5.89)">
        <path id="Trazado_1077495" data-name="Trazado 1077495" d="M227.372,43.2a4.475,4.475,0,1,0-4.475,4.475A4.48,4.48,0,0,0,227.372,43.2Zm-6.86,0a2.385,2.385,0,1,1,2.385,2.385A2.388,2.388,0,0,1,220.512,43.2Z" transform="translate(-187.994 -34.147)"/>
        <path id="Trazado_1077496" data-name="Trazado 1077496" d="M71.16,38.448a6.956,6.956,0,0,0-2.854-3.656A4.174,4.174,0,0,1,66.367,31.8l-.652-5.212a4.927,4.927,0,0,0-8.065-3.159,29.7,29.7,0,0,0-9.377-7.526,2.428,2.428,0,0,0,.252-.969c0-.932-1.007-2.28-1.607-3C45.736,10.519,41.378,5.89,34.9,5.89a13.913,13.913,0,0,0-5.5,1.163,1.045,1.045,0,0,0,.823,1.921A11.835,11.835,0,0,1,34.9,7.98c4.423,0,8.277,2.735,10.409,5.3a7.047,7.047,0,0,1,1.1,1.663,6.177,6.177,0,0,1-.767,1.241c-2,2.638-6.022,5.719-10.746,5.719-4.641,0-8.643-3.02-10.66-5.606a6.6,6.6,0,0,1-.854-1.353,7.043,7.043,0,0,1,1.1-1.663,15.794,15.794,0,0,1,1.885-1.891,1.045,1.045,0,1,0-1.352-1.593,17.914,17.914,0,0,0-2.138,2.146c-.6.721-1.607,2.069-1.607,3a2.429,2.429,0,0,0,.251.969,29.35,29.35,0,0,0-7.772,5.735A8.971,8.971,0,0,0,0,29.235v11.34a6.739,6.739,0,0,0,2.135,4.911,6.643,6.643,0,0,0,3.714,1.75,29.474,29.474,0,0,0,4.835,11.776l-.937.937a2.272,2.272,0,0,0,0,3.213l6.319,6.319.035.033h0a1.133,1.133,0,0,1,.332.8v2.843a1.783,1.783,0,0,0,1.781,1.781h6.15a1.783,1.783,0,0,0,1.781-1.781v-2.8a29.652,29.652,0,0,0,17.522,0,7.65,7.65,0,0,0,14.757-.925l2.153-10.763a4.813,4.813,0,0,0-.011-1.946,29.489,29.489,0,0,0,3.8-13.426,2.55,2.55,0,0,1,1.677-.635h2.083a3.2,3.2,0,0,0,3.033-4.208ZM2.09,40.574V29.235a6.893,6.893,0,0,1,6.891-6.893q.144,0,.289.006A6.893,6.893,0,0,1,14.147,33.8a10.979,10.979,0,0,0-2.809,6.914c0,.049,0,.1-.006.146a4.625,4.625,0,0,1-9.242-.286ZM58.528,58.253,56.375,69.017a5.561,5.561,0,0,1-10.906,0L43.317,58.253a2.725,2.725,0,0,1,4.181-2.8,6.18,6.18,0,0,0,2.38.951V67.311a1.045,1.045,0,0,0,2.09,0V56.4a6.178,6.178,0,0,0,2.38-.951,2.725,2.725,0,0,1,4.094,1.4c.006.021.013.041.02.062A2.719,2.719,0,0,1,58.528,58.253Zm10.5-18.146a1.1,1.1,0,0,1-.9.46H66.043a4.648,4.648,0,0,0-3.7,1.85,1.9,1.9,0,0,1-3.04,0,4.648,4.648,0,0,0-3.7-1.85H53.519a1.108,1.108,0,0,1-1.051-1.458,4.86,4.86,0,0,1,1.994-2.554,6.257,6.257,0,0,0,2.89-4.492,1.045,1.045,0,0,0-2.073-.259,4.174,4.174,0,0,1-1.939,2.988,6.956,6.956,0,0,0-2.854,3.656,3.2,3.2,0,0,0,3.033,4.208H55.6a2.549,2.549,0,0,1,2.029,1.015,3.956,3.956,0,0,0,3.192,1.6,4.01,4.01,0,0,0,1.326-.223A27.411,27.411,0,0,1,59.4,54.463q-.069-.075-.141-.147a4.826,4.826,0,0,0-6.073-.6,4.079,4.079,0,0,1-2.206.688l-.059,0-.059,0a4.079,4.079,0,0,1-2.206-.688,4.813,4.813,0,0,0-7.389,4.948L43.2,68.309a27.571,27.571,0,0,1-15.875.216,7.339,7.339,0,0,0,1.364-4.283v-.333a1.045,1.045,0,0,0-2.09,0v.333a5.27,5.27,0,0,1-1.57,3.768,3.244,3.244,0,0,0-.971,2.317v2.52H18.522V70.312a3.236,3.236,0,0,0-.947-2.279L17.542,68l-.032-.031-6.286-6.286a.182.182,0,0,1,0-.258l.99-.99A1.412,1.412,0,0,1,14.2,60.43l0,0,2.855,2.855a2.851,2.851,0,0,0,2.637.76,1.513,1.513,0,0,1,.32-.034,1.488,1.488,0,0,1,1.43,1.056,1.045,1.045,0,1,0,2-.614,3.567,3.567,0,0,0-3.428-2.532,3.606,3.606,0,0,0-.764.082.772.772,0,0,1-.715-.2l-2.558-2.558V55.262a1.411,1.411,0,0,1,1.409-1.409h.461v4.031a1.045,1.045,0,1,0,2.09,0V53.852h3.61A3.048,3.048,0,0,1,26.6,56.9v2a1.045,1.045,0,1,0,2.09,0v-2a5.14,5.14,0,0,0-5.135-5.135H17.39a3.5,3.5,0,0,0-3.5,3.5V58a3.539,3.539,0,0,0-1.362,0A27.383,27.383,0,0,1,7.961,47.174a6.723,6.723,0,0,0,5.457-6.19c0-.07.007-.14.009-.21a8.887,8.887,0,0,1,2.286-5.59,8.948,8.948,0,0,0-.322-12.22,27.271,27.271,0,0,1,7.281-5.291c2.434,3.071,6.9,6.314,12.231,6.314,5.35,0,9.881-3.349,12.231-6.313a27.6,27.6,0,0,1,9.211,7.468,4.906,4.906,0,0,0-.414,1.451l-.031.25a1.045,1.045,0,0,0,2.073.259l.031-.25a2.841,2.841,0,0,1,5.638,0l.652,5.212a6.257,6.257,0,0,0,2.89,4.492,4.86,4.86,0,0,1,1.994,2.554,1.1,1.1,0,0,1-.152,1Z" transform="translate(0 -5.89)"/>
        <path id="Trazado_1077497" data-name="Trazado 1077497" d="M201.19,228.644h-2.5v-6.655a1.415,1.415,0,0,0-1.413-1.413h-7.863A1.415,1.415,0,0,0,188,221.989v6.655h-2.5a1.413,1.413,0,0,0-1.112,2.284l7.843,10.009a1.413,1.413,0,0,0,2.224,0l7.843-10.009a1.413,1.413,0,0,0-1.112-2.284Zm-7.843,10.325-6.453-8.235h1.785a1.415,1.415,0,0,0,1.413-1.413v-6.655h6.51v6.655a1.415,1.415,0,0,0,1.413,1.413H199.8Z" transform="translate(-158.444 -190.669)"/>
        <path id="Trazado_1077498" data-name="Trazado 1077498" d="M36.014,158.656a1.045,1.045,0,0,0-1.045-1.045.049.049,0,0,1-.037-.015.046.046,0,0,1-.015-.035V154.6a.768.768,0,0,1,.227-.547l.025-.025a2.863,2.863,0,0,0,0-4.049l-.026-.026a.767.767,0,0,1-.226-.546V146.22a2.323,2.323,0,0,1,2.319-2.321l.1,0a2.319,2.319,0,0,1,1.639,3.852,1.045,1.045,0,1,0,1.564,1.386,4.409,4.409,0,0,0-3.128-7.326c-.059,0-.117,0-.176,0a4.415,4.415,0,0,0-4.409,4.411v3.185a2.842,2.842,0,0,0,.839,2.024l.026.026a.773.773,0,0,1,0,1.094l-.025.025a2.843,2.843,0,0,0-.839,2.024v2.962a2.141,2.141,0,0,0,2.142,2.14A1.045,1.045,0,0,0,36.014,158.656Z" transform="translate(-28.254 -122.875)"/>
        <path id="Trazado_1077499" data-name="Trazado 1077499" d="M213.593,164.891h7.863a1.415,1.415,0,0,0,1.413-1.413v-3.837a1.415,1.415,0,0,0-1.413-1.413h-7.863a1.415,1.415,0,0,0-1.413,1.413v3.837A1.414,1.414,0,0,0,213.593,164.891Zm.677-4.573h6.51V162.8h-6.51Z" transform="translate(-182.622 -137.006)"/>
      </g>
    </g>
  </g>
</svg>
