<svg xmlns="http://www.w3.org/2000/svg" xmlns:xlink="http://www.w3.org/1999/xlink" width="680.85" height="439.592" viewBox="0 0 680.85 439.592">
  <defs>
    <linearGradient id="linear-gradient" x1="0.089" y1="0.119" x2="1" y2="1.029" gradientUnits="objectBoundingBox">
      <stop offset="0" stop-color="#6cbffc"/>
      <stop offset="1" stop-color="#2c3299"/>
    </linearGradient>
    <linearGradient id="linear-gradient-2" x1="0.197" y1="0.792" x2="0.719" y2="0.289" xlink:href="#linear-gradient"/>
    <linearGradient id="linear-gradient-3" x1="0.089" y1="-0.003" x2="1" y2="0.907" gradientUnits="objectBoundingBox">
      <stop offset="0" stop-color="#da1d33"/>
      <stop offset="1" stop-color="#6e0c3b"/>
    </linearGradient>
    <linearGradient id="linear-gradient-4" x1="0.2" y1="0.115" x2="0.645" y2="0.687" xlink:href="#linear-gradient-3"/>
    <linearGradient id="linear-gradient-5" x1="-0.574" y1="-0.003" x2="0.337" y2="0.907" gradientUnits="objectBoundingBox">
      <stop offset="0" stop-color="#e9ab2e"/>
      <stop offset="1" stop-color="#d04709"/>
    </linearGradient>
    <linearGradient id="linear-gradient-6" x1="0.888" y1="-0.038" x2="0.489" y2="0.515" xlink:href="#linear-gradient-5"/>
    <linearGradient id="linear-gradient-7" x1="-0.574" y1="0.119" x2="0.337" y2="1.029" gradientUnits="objectBoundingBox">
      <stop offset="0" stop-color="#aace4d"/>
      <stop offset="0.902" stop-color="#478454"/>
    </linearGradient>
    <linearGradient id="linear-gradient-8" x1="0.716" y1="0.791" x2="0.349" y2="0.296" xlink:href="#linear-gradient-7"/>
    <linearGradient id="linear-gradient-9" x1="0.503" y1="0.086" x2="0.496" y2="1.051" gradientUnits="objectBoundingBox">
      <stop offset="0" stop-color="#ced2db"/>
      <stop offset="1" stop-color="#969daa"/>
    </linearGradient>
    <filter id="Elipse_13533" x="6.425" y="31.792" width="113" height="113" filterUnits="userSpaceOnUse">
      <feOffset dy="3" input="SourceAlpha"/>
      <feGaussianBlur stdDeviation="3" result="blur"/>
      <feFlood flood-opacity="0.161"/>
      <feComposite operator="in" in2="blur"/>
      <feComposite in="SourceGraphic"/>
    </filter>
    <filter id="Elipse_13534" x="7.425" y="294.792" width="113" height="113" filterUnits="userSpaceOnUse">
      <feOffset dy="3" input="SourceAlpha"/>
      <feGaussianBlur stdDeviation="3" result="blur-2"/>
      <feFlood flood-opacity="0.161"/>
      <feComposite operator="in" in2="blur-2"/>
      <feComposite in="SourceGraphic"/>
    </filter>
    <filter id="Elipse_13535" x="560.425" y="31.792" width="113" height="113" filterUnits="userSpaceOnUse">
      <feOffset dy="3" input="SourceAlpha"/>
      <feGaussianBlur stdDeviation="3" result="blur-3"/>
      <feFlood flood-opacity="0.161"/>
      <feComposite operator="in" in2="blur-3"/>
      <feComposite in="SourceGraphic"/>
    </filter>
    <filter id="Elipse_13536" x="560.425" y="296.792" width="113" height="113" filterUnits="userSpaceOnUse">
      <feOffset dy="3" input="SourceAlpha"/>
      <feGaussianBlur stdDeviation="3" result="blur-4"/>
      <feFlood flood-opacity="0.161"/>
      <feComposite operator="in" in2="blur-4"/>
      <feComposite in="SourceGraphic"/>
    </filter>
    <filter id="Elipse_13537" x="258.425" y="138.792" width="163" height="163" filterUnits="userSpaceOnUse">
      <feOffset dy="3" input="SourceAlpha"/>
      <feGaussianBlur stdDeviation="3" result="blur-5"/>
      <feFlood flood-opacity="0.161"/>
      <feComposite operator="in" in2="blur-5"/>
      <feComposite in="SourceGraphic"/>
    </filter>
    <clipPath id="clip-path">
      <ellipse id="Elipse_13432" data-name="Elipse 13432" cx="88.392" cy="107.572" rx="88.392" ry="107.572" transform="translate(11)" fill="#fff" stroke="#707070" stroke-width="1"/>
    </clipPath>
  </defs>
  <g id="Grupo_1208987" data-name="Grupo 1208987" transform="translate(-459.575 -3777.98)">
    <g id="Grupo_1207336" data-name="Grupo 1207336" transform="translate(0 -21.228)">
      <g id="Grupo_1207272" data-name="Grupo 1207272">
        <g id="Grupo_1207271" data-name="Grupo 1207271">
          <g id="Grupo_1207268" data-name="Grupo 1207268" transform="translate(-29.71 17)">
            <g id="Grupo_1207258" data-name="Grupo 1207258" transform="translate(440.669 -360.683)">
              <g id="OBJECTS" transform="translate(48.616 4164.615)">
                <g id="Grupo_1207249" data-name="Grupo 1207249" transform="translate(0 195.684)">
                  <path id="Trazado_1076295" data-name="Trazado 1076295" d="M332.394,328.059c-16.852-4.6-27.889,7.123-27.889,7.123h0c-7.114,7.114-7.368,20.643,0,29.025v56.854a24.967,24.967,0,0,1-24.967,24.967H95.69a64.074,64.074,0,0,1-64.074-64.074h0A64.074,64.074,0,0,1,95.69,317.88H258.178c8.382,7.368,21.911,7.114,29.025,0h0s11.723-11.037,7.123-27.889Z" transform="translate(-31.616 -250.344)" fill="url(#linear-gradient)"/>
                  <path id="Trazado_1076296" data-name="Trazado 1076296" d="M287.021,250a87.22,87.22,0,0,0,87.221,87.22V250Z" transform="translate(-33.816 -250)" fill="url(#linear-gradient-2)"/>
                  <circle id="Elipse_13522" data-name="Elipse 13522" cx="54.259" cy="54.259" r="54.259" transform="translate(9.816 77.351)" fill="#ebeef7"/>
                </g>
                <g id="Grupo_1207251" data-name="Grupo 1207251" transform="translate(0 0)">
                  <path id="Trazado_1076315" data-name="Trazado 1076315" d="M332.394,170.585c-16.852,4.6-27.889-7.123-27.889-7.123h0c-7.114-7.114-7.368-20.643,0-29.025V77.582a24.967,24.967,0,0,0-24.967-24.967H95.69a64.074,64.074,0,0,0-64.074,64.074h0A64.074,64.074,0,0,0,95.69,180.763H258.178c8.382-7.368,21.911-7.114,29.025,0h0s11.723,11.037,7.123,27.889Z" transform="translate(-31.616 -52.615)" fill="url(#linear-gradient-3)"/>
                  <path id="Trazado_1076316" data-name="Trazado 1076316" d="M312.568,187.568a86.948,86.948,0,0,0-25.546,61.674h87.22V162.021A86.949,86.949,0,0,0,312.568,187.568Z" transform="translate(-33.816 -53.558)" fill="url(#linear-gradient-4)"/>
                  <circle id="Elipse_13523" data-name="Elipse 13523" cx="54.259" cy="54.259" r="54.259" transform="translate(9.816 9.815)" fill="#ebeef7"/>
                </g>
                <g id="Grupo_1207253" data-name="Grupo 1207253" transform="translate(340.427 0)">
                  <path id="Trazado_1076319" data-name="Trazado 1076319" d="M414.992,170.585c16.852,4.6,27.889-7.123,27.889-7.123h0c7.114-7.114,7.368-20.643,0-29.025V77.582a24.967,24.967,0,0,1,24.967-24.967H651.695a64.074,64.074,0,0,1,64.074,64.074h0a64.074,64.074,0,0,1-64.074,64.074H489.207c-8.382-7.368-21.911-7.114-29.025,0h0s-11.723,11.037-7.123,27.889Z" transform="translate(-375.346 -52.615)" fill="url(#linear-gradient-5)"/>
                  <circle id="Elipse_13524" data-name="Elipse 13524" cx="54.259" cy="54.259" r="54.259" transform="translate(222.09 9.815)" fill="#ebeef7"/>
                  <path id="Trazado_1076320" data-name="Trazado 1076320" d="M462.221,249.242A87.22,87.22,0,0,0,375,162.022v87.22Z" transform="translate(-375.001 -53.558)" fill="url(#linear-gradient-6)"/>
                </g>
                <g id="Grupo_1207256" data-name="Grupo 1207256" transform="translate(340.426 195.685)">
                  <path id="Trazado_1076323" data-name="Trazado 1076323" d="M414.992,328.059c16.852-4.6,27.889,7.123,27.889,7.123h0c7.114,7.114,7.368,20.643,0,29.025v56.854a24.967,24.967,0,0,0,24.967,24.967H651.695a64.074,64.074,0,0,0,64.074-64.074h0a64.074,64.074,0,0,0-64.074-64.074H489.207c-8.382,7.368-21.911,7.114-29.025,0h0s-11.723-11.037-7.123-27.889Z" transform="translate(-375.345 -250.345)" fill="url(#linear-gradient-7)"/>
                  <circle id="Elipse_13525" data-name="Elipse 13525" cx="54.259" cy="54.259" r="54.259" transform="translate(222.091 77.35)" fill="#ebeef7"/>
                  <path id="Trazado_1076324" data-name="Trazado 1076324" d="M375,337.221A87.219,87.219,0,0,0,462.22,250H375Z" transform="translate(-375 -250.001)" fill="url(#linear-gradient-8)"/>
                </g>
                <g id="Grupo_1207257" data-name="Grupo 1207257" transform="translate(262.823 118.082)">
                  <circle id="Elipse_13526" data-name="Elipse 13526" cx="77.603" cy="77.603" r="77.603" fill="#ebeef7"/>
                  <circle id="Elipse_13527" data-name="Elipse 13527" cx="71.864" cy="71.864" r="71.864" transform="translate(5.738 5.738)" fill="url(#linear-gradient-9)"/>
                </g>
              </g>
            </g>
            <path id="Contenido" d="M15.915,12.555A5.087,5.087,0,0,1,14.872,16a3.792,3.792,0,0,1-3.02,1.2,4.3,4.3,0,0,1-1.633-.3V14.523a2.344,2.344,0,0,0,1.453.492q1.727,0,1.727-2.562V5.8h2.516ZM25.729,17H23.268V15.781h-.039A2.792,2.792,0,0,1,20.783,17.2Q18,17.2,18,13.828V9h2.461v4.609q0,1.7,1.344,1.7a1.329,1.329,0,0,0,1.063-.465,1.874,1.874,0,0,0,.4-1.262V9h2.461ZM35,13.7H29.777q.125,1.742,2.2,1.742a4.286,4.286,0,0,0,2.32-.625V16.6a6.1,6.1,0,0,1-2.883.594A4.058,4.058,0,0,1,28.4,16.121a4.058,4.058,0,0,1-1.07-3,4.281,4.281,0,0,1,1.156-3.156A3.852,3.852,0,0,1,31.332,8.8a3.5,3.5,0,0,1,2.707,1.039A4,4,0,0,1,35,12.664Zm-2.289-1.516q0-1.719-1.391-1.719a1.328,1.328,0,0,0-1.027.492,2.234,2.234,0,0,0-.527,1.227Zm11.6,3.9a4.526,4.526,0,0,1-1.289,3.449,5.224,5.224,0,0,1-3.734,1.223,5.919,5.919,0,0,1-2.562-.461V18.219a4.907,4.907,0,0,0,2.492.719,2.684,2.684,0,0,0,1.938-.66,2.369,2.369,0,0,0,.688-1.793v-.633H41.81A2.757,2.757,0,0,1,39.318,17.2a3,3,0,0,1-2.43-1.078,4.372,4.372,0,0,1-.9-2.891,4.87,4.87,0,0,1,1-3.227,3.265,3.265,0,0,1,2.633-1.2A2.429,2.429,0,0,1,41.81,9.93h.031V9H44.31Zm-2.437-2.93v-.633a1.945,1.945,0,0,0-.449-1.293,1.453,1.453,0,0,0-1.168-.535,1.51,1.51,0,0,0-1.289.641,3.012,3.012,0,0,0-.469,1.8,2.543,2.543,0,0,0,.445,1.582,1.451,1.451,0,0,0,1.219.582,1.511,1.511,0,0,0,1.238-.59A2.418,2.418,0,0,0,41.873,13.156ZM50.187,17.2a4.3,4.3,0,0,1-3.145-1.121A4.064,4.064,0,0,1,45.9,13.031a4.065,4.065,0,0,1,1.188-3.105A4.487,4.487,0,0,1,50.3,8.8a4.249,4.249,0,0,1,3.125,1.121,3.985,3.985,0,0,1,1.133,2.965,4.23,4.23,0,0,1-1.168,3.148A4.348,4.348,0,0,1,50.187,17.2Zm.063-6.5a1.647,1.647,0,0,0-1.359.6,2.653,2.653,0,0,0-.484,1.7q0,2.3,1.859,2.3,1.773,0,1.773-2.367Q52.038,10.7,50.249,10.7Zm9.8,6.094v-2a5.256,5.256,0,0,0,1.215.547,4.028,4.028,0,0,0,1.145.18,2.455,2.455,0,0,0,1.035-.18.581.581,0,0,0,.379-.547.506.506,0,0,0-.172-.391,1.6,1.6,0,0,0-.441-.273,5.009,5.009,0,0,0-.59-.211Q62.3,13.82,62,13.7a5.914,5.914,0,0,1-.84-.387,2.427,2.427,0,0,1-.609-.48,1.889,1.889,0,0,1-.375-.633,2.525,2.525,0,0,1-.129-.852,2.192,2.192,0,0,1,.293-1.156,2.393,2.393,0,0,1,.781-.793,3.57,3.57,0,0,1,1.117-.453A5.825,5.825,0,0,1,63.549,8.8a7.261,7.261,0,0,1,1.078.082,8.047,8.047,0,0,1,1.078.238v1.906a3.9,3.9,0,0,0-1-.41,4.235,4.235,0,0,0-1.051-.137,2.328,2.328,0,0,0-.457.043,1.505,1.505,0,0,0-.379.125.7.7,0,0,0-.258.211.486.486,0,0,0-.094.293.541.541,0,0,0,.141.375,1.221,1.221,0,0,0,.367.27,3.625,3.625,0,0,0,.5.2q.277.09.551.184a7.161,7.161,0,0,1,.891.375,2.848,2.848,0,0,1,.684.477,1.872,1.872,0,0,1,.438.641,2.563,2.563,0,0,1-.156,2.09,2.471,2.471,0,0,1-.82.82,3.72,3.72,0,0,1-1.18.461,6.54,6.54,0,0,1-1.387.145A7.149,7.149,0,0,1,60.049,16.789Zm8.814-9.055a1.442,1.442,0,0,1-1.023-.371,1.2,1.2,0,0,1-.4-.91,1.153,1.153,0,0,1,.4-.906,1.671,1.671,0,0,1,2.051,0,1.158,1.158,0,0,1,.395.906,1.191,1.191,0,0,1-.395.922A1.466,1.466,0,0,1,68.863,7.734ZM70.082,17H67.613V9h2.469Zm14.783,0H82.4V12.438q0-1.742-1.281-1.742a1.177,1.177,0,0,0-.992.523,2.151,2.151,0,0,0-.383,1.3V17H77.279V12.391q0-1.7-1.258-1.7a1.206,1.206,0,0,0-1.012.5,2.2,2.2,0,0,0-.379,1.359V17H72.162V9h2.469v1.25h.031A3.031,3.031,0,0,1,77.248,8.8a2.3,2.3,0,0,1,2.32,1.492A2.959,2.959,0,0,1,82.256,8.8q2.609,0,2.609,3.219Zm4.455-.93h-.031V17H86.82V5.156h2.469V10.2h.031a2.929,2.929,0,0,1,2.6-1.4A2.855,2.855,0,0,1,94.3,9.867a4.582,4.582,0,0,1,.836,2.906,4.962,4.962,0,0,1-.977,3.211A3.181,3.181,0,0,1,91.554,17.2,2.521,2.521,0,0,1,89.32,16.07Zm-.07-3.375v.82a1.872,1.872,0,0,0,.445,1.281,1.449,1.449,0,0,0,1.141.508,1.514,1.514,0,0,0,1.309-.652,3.15,3.15,0,0,0,.465-1.848,2.506,2.506,0,0,0-.426-1.551,1.437,1.437,0,0,0-1.215-.559,1.569,1.569,0,0,0-1.23.555A2.107,2.107,0,0,0,89.249,12.7Zm11.306,4.5a4.3,4.3,0,0,1-3.145-1.121,4.064,4.064,0,0,1-1.145-3.043,4.065,4.065,0,0,1,1.188-3.105A4.487,4.487,0,0,1,100.665,8.8a4.249,4.249,0,0,1,3.125,1.121,3.985,3.985,0,0,1,1.133,2.965,4.23,4.23,0,0,1-1.168,3.148A4.348,4.348,0,0,1,100.556,17.2Zm.063-6.5a1.647,1.647,0,0,0-1.359.6,2.653,2.653,0,0,0-.484,1.7q0,2.3,1.859,2.3,1.773,0,1.773-2.367Q102.407,10.7,100.618,10.7Zm2.648-5.484-2.445,2.523H99.04l2.031-2.523ZM108.987,17h-2.469V5.156h2.469Zm3.33-9.266a1.442,1.442,0,0,1-1.023-.371,1.2,1.2,0,0,1-.4-.91,1.153,1.153,0,0,1,.4-.906,1.671,1.671,0,0,1,2.051,0,1.158,1.158,0,0,1,.395.906,1.191,1.191,0,0,1-.395.922A1.466,1.466,0,0,1,112.317,7.734ZM113.535,17h-2.469V9h2.469Zm8.142-.289a4.881,4.881,0,0,1-2.414.484,4.083,4.083,0,0,1-2.984-1.117,3.859,3.859,0,0,1-1.141-2.883,4.251,4.251,0,0,1,1.223-3.215,4.518,4.518,0,0,1,3.27-1.176,4.2,4.2,0,0,1,2.047.375v2.094a2.814,2.814,0,0,0-1.727-.578,2.275,2.275,0,0,0-1.684.621,2.317,2.317,0,0,0-.621,1.715,2.28,2.28,0,0,0,.594,1.668,2.182,2.182,0,0,0,1.633.605,3.258,3.258,0,0,0,1.8-.578Zm5.431.484a4.3,4.3,0,0,1-3.145-1.121,4.064,4.064,0,0,1-1.145-3.043,4.065,4.065,0,0,1,1.188-3.105A4.487,4.487,0,0,1,127.218,8.8a4.249,4.249,0,0,1,3.125,1.121,3.985,3.985,0,0,1,1.133,2.965,4.23,4.23,0,0,1-1.168,3.148A4.348,4.348,0,0,1,127.109,17.2Zm.063-6.5a1.647,1.647,0,0,0-1.359.6,2.653,2.653,0,0,0-.484,1.7q0,2.3,1.859,2.3,1.773,0,1.773-2.367Q128.96,10.7,127.171,10.7Z" transform="translate(610.317 3854.197)" fill="#fff"/>
            <path id="Contenido-2" data-name="Contenido" d="M11.289,12.555A5.087,5.087,0,0,1,10.246,16a3.792,3.792,0,0,1-3.02,1.2,4.3,4.3,0,0,1-1.633-.3V14.523a2.344,2.344,0,0,0,1.453.492q1.727,0,1.727-2.562V5.8h2.516ZM21.1,17H18.642V15.781H18.6A2.792,2.792,0,0,1,16.158,17.2q-2.781,0-2.781-3.367V9h2.461v4.609q0,1.7,1.344,1.7a1.329,1.329,0,0,0,1.063-.465,1.874,1.874,0,0,0,.4-1.262V9H21.1Zm9.267-3.3H25.151q.125,1.742,2.2,1.742a4.286,4.286,0,0,0,2.32-.625V16.6a6.1,6.1,0,0,1-2.883.594,4.058,4.058,0,0,1-3.008-1.074,4.058,4.058,0,0,1-1.07-3,4.281,4.281,0,0,1,1.156-3.156A3.852,3.852,0,0,1,26.706,8.8a3.5,3.5,0,0,1,2.707,1.039,4,4,0,0,1,.957,2.82Zm-2.289-1.516q0-1.719-1.391-1.719a1.328,1.328,0,0,0-1.027.492,2.234,2.234,0,0,0-.527,1.227Zm11.6,3.9A4.526,4.526,0,0,1,38.4,19.535a5.224,5.224,0,0,1-3.734,1.223A5.919,5.919,0,0,1,32.1,20.3V18.219a4.907,4.907,0,0,0,2.492.719,2.684,2.684,0,0,0,1.938-.66,2.369,2.369,0,0,0,.688-1.793v-.633h-.031A2.757,2.757,0,0,1,34.692,17.2a3,3,0,0,1-2.43-1.078,4.372,4.372,0,0,1-.9-2.891,4.87,4.87,0,0,1,1-3.227A3.265,3.265,0,0,1,35,8.8,2.429,2.429,0,0,1,37.184,9.93h.031V9h2.469Zm-2.437-2.93v-.633A1.945,1.945,0,0,0,36.8,11.23,1.453,1.453,0,0,0,35.63,10.7a1.51,1.51,0,0,0-1.289.641,3.012,3.012,0,0,0-.469,1.8,2.543,2.543,0,0,0,.445,1.582,1.451,1.451,0,0,0,1.219.582,1.511,1.511,0,0,0,1.238-.59A2.418,2.418,0,0,0,37.247,13.156ZM45.561,17.2a4.3,4.3,0,0,1-3.145-1.121,4.064,4.064,0,0,1-1.145-3.043,4.065,4.065,0,0,1,1.188-3.105A4.487,4.487,0,0,1,45.67,8.8,4.249,4.249,0,0,1,48.8,9.926a3.985,3.985,0,0,1,1.133,2.965,4.23,4.23,0,0,1-1.168,3.148A4.348,4.348,0,0,1,45.561,17.2Zm.063-6.5a1.647,1.647,0,0,0-1.359.6A2.653,2.653,0,0,0,43.78,13q0,2.3,1.859,2.3,1.773,0,1.773-2.367Q47.412,10.7,45.623,10.7ZM68.65,17H66.189V12.438q0-1.742-1.281-1.742a1.177,1.177,0,0,0-.992.523,2.151,2.151,0,0,0-.383,1.3V17H61.064V12.391q0-1.7-1.258-1.7a1.206,1.206,0,0,0-1.012.5,2.2,2.2,0,0,0-.379,1.359V17H55.947V9h2.469v1.25h.031A3.031,3.031,0,0,1,61.033,8.8a2.3,2.3,0,0,1,2.32,1.492A2.959,2.959,0,0,1,66.041,8.8q2.609,0,2.609,3.219Zm5.767.2a4.3,4.3,0,0,1-3.145-1.121,4.064,4.064,0,0,1-1.145-3.043,4.065,4.065,0,0,1,1.188-3.105A4.487,4.487,0,0,1,74.527,8.8a4.249,4.249,0,0,1,3.125,1.121,3.985,3.985,0,0,1,1.133,2.965,4.23,4.23,0,0,1-1.168,3.148A4.348,4.348,0,0,1,74.417,17.2Zm.063-6.5a1.647,1.647,0,0,0-1.359.6,2.653,2.653,0,0,0-.484,1.7q0,2.3,1.859,2.3,1.773,0,1.773-2.367Q76.269,10.7,74.48,10.7Zm10.744,6.211a3.649,3.649,0,0,1-1.648.289q-2.609,0-2.609-2.711V10.82h-1.3V9h1.3V7.273l2.461-.7V9h1.8v1.82h-1.8v3.234q0,1.25.992,1.25a1.673,1.673,0,0,0,.8-.227Zm5.142.289a4.3,4.3,0,0,1-3.145-1.121,4.064,4.064,0,0,1-1.145-3.043,4.065,4.065,0,0,1,1.188-3.105A4.487,4.487,0,0,1,90.475,8.8,4.249,4.249,0,0,1,93.6,9.926a3.985,3.985,0,0,1,1.133,2.965,4.23,4.23,0,0,1-1.168,3.148A4.348,4.348,0,0,1,90.366,17.2Zm.063-6.5a1.647,1.647,0,0,0-1.359.6,2.653,2.653,0,0,0-.484,1.7q0,2.3,1.859,2.3,1.773,0,1.773-2.367Q92.217,10.7,90.428,10.7Zm11.127.531a2.141,2.141,0,0,0-1.039-.242,1.5,1.5,0,0,0-1.258.59A2.573,2.573,0,0,0,98.8,13.18V17H96.336V9H98.8v1.484h.031a2.136,2.136,0,0,1,2.109-1.625,1.59,1.59,0,0,1,.609.094Z" transform="translate(928.317 3854.197)" fill="#fff"/>
            <path id="Contenido-3" data-name="Contenido" d="M18.141,12.555A5.087,5.087,0,0,1,17.1,16a3.792,3.792,0,0,1-3.02,1.2,4.3,4.3,0,0,1-1.633-.3V14.523a2.344,2.344,0,0,0,1.453.492q1.727,0,1.727-2.562V5.8h2.516ZM27.955,17H25.494V15.781h-.039A2.792,2.792,0,0,1,23.01,17.2q-2.781,0-2.781-3.367V9H22.69v4.609q0,1.7,1.344,1.7A1.329,1.329,0,0,0,25.1,14.84a1.874,1.874,0,0,0,.4-1.262V9h2.461Zm9.267-3.3H32q.125,1.742,2.2,1.742a4.286,4.286,0,0,0,2.32-.625V16.6a6.1,6.1,0,0,1-2.883.594,4.058,4.058,0,0,1-3.008-1.074,4.058,4.058,0,0,1-1.07-3,4.281,4.281,0,0,1,1.156-3.156A3.852,3.852,0,0,1,33.558,8.8a3.5,3.5,0,0,1,2.707,1.039,4,4,0,0,1,.957,2.82Zm-2.289-1.516q0-1.719-1.391-1.719a1.328,1.328,0,0,0-1.027.492,2.234,2.234,0,0,0-.527,1.227Zm11.6,3.9a4.526,4.526,0,0,1-1.289,3.449,5.224,5.224,0,0,1-3.734,1.223,5.919,5.919,0,0,1-2.562-.461V18.219a4.907,4.907,0,0,0,2.492.719,2.684,2.684,0,0,0,1.938-.66,2.369,2.369,0,0,0,.688-1.793v-.633h-.031A2.757,2.757,0,0,1,41.544,17.2a3,3,0,0,1-2.43-1.078,4.372,4.372,0,0,1-.9-2.891,4.87,4.87,0,0,1,1-3.227,3.265,3.265,0,0,1,2.633-1.2A2.429,2.429,0,0,1,44.037,9.93h.031V9h2.469ZM44.1,13.156v-.633a1.945,1.945,0,0,0-.449-1.293,1.453,1.453,0,0,0-1.168-.535,1.51,1.51,0,0,0-1.289.641,3.012,3.012,0,0,0-.469,1.8,2.543,2.543,0,0,0,.445,1.582,1.451,1.451,0,0,0,1.219.582,1.511,1.511,0,0,0,1.238-.59A2.418,2.418,0,0,0,44.1,13.156ZM52.413,17.2a4.3,4.3,0,0,1-3.145-1.121,4.064,4.064,0,0,1-1.145-3.043,4.065,4.065,0,0,1,1.188-3.105A4.487,4.487,0,0,1,52.523,8.8a4.249,4.249,0,0,1,3.125,1.121,3.985,3.985,0,0,1,1.133,2.965,4.23,4.23,0,0,1-1.168,3.148A4.348,4.348,0,0,1,52.413,17.2Zm.063-6.5a1.647,1.647,0,0,0-1.359.6,2.653,2.653,0,0,0-.484,1.7q0,2.3,1.859,2.3,1.773,0,1.773-2.367Q54.265,10.7,52.476,10.7ZM70.627,17H68.159V15.9h-.031a2.768,2.768,0,0,1-2.477,1.3,3.033,3.033,0,0,1-2.414-1.059,4.382,4.382,0,0,1-.914-2.957A4.77,4.77,0,0,1,63.33,10a3.287,3.287,0,0,1,2.641-1.2,2.246,2.246,0,0,1,2.156,1.109h.031V5.156h2.469Zm-2.422-3.891v-.6a1.893,1.893,0,0,0-.453-1.3,1.6,1.6,0,0,0-2.461.129,2.993,2.993,0,0,0-.461,1.77,2.59,2.59,0,0,0,.445,1.625,1.581,1.581,0,0,0,2.457-.031A2.507,2.507,0,0,0,68.205,13.109Zm11.689.594H74.676q.125,1.742,2.2,1.742a4.286,4.286,0,0,0,2.32-.625V16.6a6.1,6.1,0,0,1-2.883.594A4.058,4.058,0,0,1,73.3,16.121a4.058,4.058,0,0,1-1.07-3,4.281,4.281,0,0,1,1.156-3.156A3.852,3.852,0,0,1,76.23,8.8a3.5,3.5,0,0,1,2.707,1.039,4,4,0,0,1,.957,2.82Zm-2.289-1.516q0-1.719-1.391-1.719a1.328,1.328,0,0,0-1.027.492,2.234,2.234,0,0,0-.527,1.227ZM91,11.227a2.141,2.141,0,0,0-1.039-.242,1.5,1.5,0,0,0-1.258.59,2.573,2.573,0,0,0-.453,1.605V17H85.781V9h2.469v1.484h.031A2.136,2.136,0,0,1,90.39,8.859,1.59,1.59,0,0,1,91,8.953ZM99.274,13.7H94.056q.125,1.742,2.2,1.742a4.286,4.286,0,0,0,2.32-.625V16.6a6.1,6.1,0,0,1-2.883.594,4.058,4.058,0,0,1-3.008-1.074,4.058,4.058,0,0,1-1.07-3,4.281,4.281,0,0,1,1.156-3.156A3.852,3.852,0,0,1,95.61,8.8a3.5,3.5,0,0,1,2.707,1.039,4,4,0,0,1,.957,2.82Zm-2.289-1.516q0-1.719-1.391-1.719a1.328,1.328,0,0,0-1.027.492,2.234,2.234,0,0,0-.527,1.227Zm11.6,3.9a4.526,4.526,0,0,1-1.289,3.449,5.224,5.224,0,0,1-3.734,1.223A5.919,5.919,0,0,1,101,20.3V18.219a4.907,4.907,0,0,0,2.492.719,2.684,2.684,0,0,0,1.938-.66,2.369,2.369,0,0,0,.688-1.793v-.633h-.031A2.757,2.757,0,0,1,103.6,17.2a3,3,0,0,1-2.43-1.078,4.372,4.372,0,0,1-.9-2.891,4.87,4.87,0,0,1,1-3.227A3.265,3.265,0,0,1,103.9,8.8a2.429,2.429,0,0,1,2.188,1.125h.031V9h2.469Zm-2.437-2.93v-.633a1.945,1.945,0,0,0-.449-1.293,1.453,1.453,0,0,0-1.168-.535,1.51,1.51,0,0,0-1.289.641,3.012,3.012,0,0,0-.469,1.8,2.543,2.543,0,0,0,.445,1.582,1.451,1.451,0,0,0,1.219.582,1.511,1.511,0,0,0,1.238-.59A2.418,2.418,0,0,0,106.151,13.156ZM113.121,17h-2.469V5.156h2.469Zm8.736,0h-2.336V15.852h-.031a2.607,2.607,0,0,1-2.383,1.344,2.492,2.492,0,0,1-1.832-.66,2.366,2.366,0,0,1-.668-1.762q0-2.328,2.758-2.687l2.172-.289q0-1.312-1.422-1.312a4.853,4.853,0,0,0-2.719.852V9.477a6.116,6.116,0,0,1,1.41-.469,7.413,7.413,0,0,1,1.629-.2q3.422,0,3.422,3.414Zm-2.32-3.25v-.539l-1.453.188q-1.2.156-1.2,1.086a.9.9,0,0,0,.293.691,1.126,1.126,0,0,0,.793.27,1.462,1.462,0,0,0,1.133-.48A1.735,1.735,0,0,0,119.537,13.75Zm3.752,3.039v-2a5.256,5.256,0,0,0,1.215.547,4.028,4.028,0,0,0,1.145.18,2.455,2.455,0,0,0,1.035-.18.581.581,0,0,0,.379-.547.506.506,0,0,0-.172-.391,1.6,1.6,0,0,0-.441-.273,5.009,5.009,0,0,0-.59-.211q-.32-.094-.617-.211a5.913,5.913,0,0,1-.84-.387,2.427,2.427,0,0,1-.609-.48,1.889,1.889,0,0,1-.375-.633,2.525,2.525,0,0,1-.129-.852,2.192,2.192,0,0,1,.293-1.156,2.393,2.393,0,0,1,.781-.793,3.57,3.57,0,0,1,1.117-.453,5.825,5.825,0,0,1,1.309-.145,7.261,7.261,0,0,1,1.078.082,8.047,8.047,0,0,1,1.078.238v1.906a3.9,3.9,0,0,0-1-.41,4.235,4.235,0,0,0-1.051-.137,2.328,2.328,0,0,0-.457.043,1.505,1.505,0,0,0-.379.125.7.7,0,0,0-.258.211.486.486,0,0,0-.094.293.541.541,0,0,0,.141.375,1.221,1.221,0,0,0,.367.27,3.625,3.625,0,0,0,.5.2q.277.09.551.184a7.16,7.16,0,0,1,.891.375,2.848,2.848,0,0,1,.684.477,1.871,1.871,0,0,1,.438.641,2.563,2.563,0,0,1-.156,2.09,2.471,2.471,0,0,1-.82.82,3.72,3.72,0,0,1-1.18.461,6.54,6.54,0,0,1-1.387.145A7.149,7.149,0,0,1,123.289,16.789Z" transform="translate(610.317 4126.197)" fill="#fff"/>
            <path id="Contenido-4" data-name="Contenido" d="M19,12.555A5.087,5.087,0,0,1,17.954,16a3.792,3.792,0,0,1-3.02,1.2,4.3,4.3,0,0,1-1.633-.3V14.523a2.344,2.344,0,0,0,1.453.492q1.727,0,1.727-2.562V5.8H19ZM28.811,17H26.35V15.781h-.039A2.792,2.792,0,0,1,23.865,17.2q-2.781,0-2.781-3.367V9h2.461v4.609q0,1.7,1.344,1.7a1.329,1.329,0,0,0,1.063-.465,1.874,1.874,0,0,0,.4-1.262V9h2.461Zm9.267-3.3H32.859q.125,1.742,2.2,1.742a4.286,4.286,0,0,0,2.32-.625V16.6a6.1,6.1,0,0,1-2.883.594,4.058,4.058,0,0,1-3.008-1.074,4.058,4.058,0,0,1-1.07-3A4.281,4.281,0,0,1,31.57,9.969,3.852,3.852,0,0,1,34.414,8.8a3.5,3.5,0,0,1,2.707,1.039,4,4,0,0,1,.957,2.82Zm-2.289-1.516q0-1.719-1.391-1.719a1.328,1.328,0,0,0-1.027.492,2.234,2.234,0,0,0-.527,1.227Zm11.6,3.9A4.526,4.526,0,0,1,46.1,19.535a5.224,5.224,0,0,1-3.734,1.223,5.919,5.919,0,0,1-2.562-.461V18.219a4.907,4.907,0,0,0,2.492.719,2.684,2.684,0,0,0,1.938-.66,2.369,2.369,0,0,0,.688-1.793v-.633h-.031A2.757,2.757,0,0,1,42.4,17.2a3,3,0,0,1-2.43-1.078,4.372,4.372,0,0,1-.9-2.891,4.87,4.87,0,0,1,1-3.227A3.265,3.265,0,0,1,42.7,8.8,2.429,2.429,0,0,1,44.892,9.93h.031V9h2.469Zm-2.437-2.93v-.633a1.945,1.945,0,0,0-.449-1.293,1.453,1.453,0,0,0-1.168-.535,1.51,1.51,0,0,0-1.289.641,3.012,3.012,0,0,0-.469,1.8,2.543,2.543,0,0,0,.445,1.582,1.451,1.451,0,0,0,1.219.582,1.511,1.511,0,0,0,1.238-.59A2.418,2.418,0,0,0,44.955,13.156ZM53.269,17.2a4.3,4.3,0,0,1-3.145-1.121,4.064,4.064,0,0,1-1.145-3.043,4.065,4.065,0,0,1,1.188-3.105A4.487,4.487,0,0,1,53.378,8.8,4.249,4.249,0,0,1,56.5,9.926a3.985,3.985,0,0,1,1.133,2.965,4.23,4.23,0,0,1-1.168,3.148A4.348,4.348,0,0,1,53.269,17.2Zm.063-6.5a1.647,1.647,0,0,0-1.359.6,2.653,2.653,0,0,0-.484,1.7q0,2.3,1.859,2.3,1.773,0,1.773-2.367Q55.12,10.7,53.331,10.7Zm9.8,6.094v-2a5.256,5.256,0,0,0,1.215.547,4.028,4.028,0,0,0,1.145.18,2.455,2.455,0,0,0,1.035-.18.581.581,0,0,0,.379-.547.506.506,0,0,0-.172-.391,1.6,1.6,0,0,0-.441-.273,5.009,5.009,0,0,0-.59-.211q-.32-.094-.617-.211a5.913,5.913,0,0,1-.84-.387,2.428,2.428,0,0,1-.609-.48,1.889,1.889,0,0,1-.375-.633,2.525,2.525,0,0,1-.129-.852,2.192,2.192,0,0,1,.293-1.156,2.393,2.393,0,0,1,.781-.793,3.57,3.57,0,0,1,1.117-.453A5.825,5.825,0,0,1,66.631,8.8a7.261,7.261,0,0,1,1.078.082,8.047,8.047,0,0,1,1.078.238v1.906a3.9,3.9,0,0,0-1-.41,4.235,4.235,0,0,0-1.051-.137,2.328,2.328,0,0,0-.457.043,1.505,1.505,0,0,0-.379.125.7.7,0,0,0-.258.211.486.486,0,0,0-.094.293.541.541,0,0,0,.141.375,1.221,1.221,0,0,0,.367.27,3.625,3.625,0,0,0,.5.2q.277.09.551.184a7.161,7.161,0,0,1,.891.375,2.848,2.848,0,0,1,.684.477,1.872,1.872,0,0,1,.438.641,2.563,2.563,0,0,1-.156,2.09,2.471,2.471,0,0,1-.82.82,3.72,3.72,0,0,1-1.18.461,6.54,6.54,0,0,1-1.387.145A7.149,7.149,0,0,1,63.131,16.789ZM77.883,13.7H72.664q.125,1.742,2.2,1.742a4.286,4.286,0,0,0,2.32-.625V16.6A6.1,6.1,0,0,1,74.3,17.2a4.058,4.058,0,0,1-3.008-1.074,4.058,4.058,0,0,1-1.07-3,4.281,4.281,0,0,1,1.156-3.156A3.852,3.852,0,0,1,74.219,8.8a3.5,3.5,0,0,1,2.707,1.039,4,4,0,0,1,.957,2.82Zm-2.289-1.516q0-1.719-1.391-1.719a1.328,1.328,0,0,0-1.027.492,2.234,2.234,0,0,0-.527,1.227ZM87.08,17H84.619V12.555q0-1.859-1.328-1.859a1.318,1.318,0,0,0-1.055.492,1.875,1.875,0,0,0-.414,1.25V17H79.353V9h2.469v1.266h.031A2.829,2.829,0,0,1,84.423,8.8q2.656,0,2.656,3.3Zm1.431-.211v-2a5.256,5.256,0,0,0,1.215.547,4.028,4.028,0,0,0,1.145.18,2.455,2.455,0,0,0,1.035-.18.581.581,0,0,0,.379-.547.506.506,0,0,0-.172-.391,1.6,1.6,0,0,0-.441-.273,5.009,5.009,0,0,0-.59-.211q-.32-.094-.617-.211a5.913,5.913,0,0,1-.84-.387,2.427,2.427,0,0,1-.609-.48,1.889,1.889,0,0,1-.375-.633,2.525,2.525,0,0,1-.129-.852A2.192,2.192,0,0,1,88.8,10.2a2.393,2.393,0,0,1,.781-.793A3.57,3.57,0,0,1,90.7,8.949,5.825,5.825,0,0,1,92.011,8.8a7.261,7.261,0,0,1,1.078.082,8.047,8.047,0,0,1,1.078.238v1.906a3.9,3.9,0,0,0-1-.41,4.235,4.235,0,0,0-1.051-.137,2.328,2.328,0,0,0-.457.043,1.505,1.505,0,0,0-.379.125.7.7,0,0,0-.258.211.486.486,0,0,0-.094.293.541.541,0,0,0,.141.375,1.221,1.221,0,0,0,.367.27,3.625,3.625,0,0,0,.5.2q.277.09.551.184a7.161,7.161,0,0,1,.891.375,2.848,2.848,0,0,1,.684.477,1.872,1.872,0,0,1,.438.641,2.563,2.563,0,0,1-.156,2.09,2.471,2.471,0,0,1-.82.82,3.72,3.72,0,0,1-1.18.461,6.54,6.54,0,0,1-1.387.145A7.149,7.149,0,0,1,88.511,16.789Zm11.377.406a4.3,4.3,0,0,1-3.145-1.121A4.064,4.064,0,0,1,95.6,13.031a4.065,4.065,0,0,1,1.188-3.105A4.487,4.487,0,0,1,100,8.8a4.249,4.249,0,0,1,3.125,1.121,3.985,3.985,0,0,1,1.133,2.965,4.23,4.23,0,0,1-1.168,3.148A4.348,4.348,0,0,1,99.888,17.2Zm.063-6.5a1.647,1.647,0,0,0-1.359.6,2.653,2.653,0,0,0-.484,1.7q0,2.3,1.859,2.3,1.773,0,1.773-2.367Q101.739,10.7,99.95,10.7Zm11.127.531a2.141,2.141,0,0,0-1.039-.242,1.5,1.5,0,0,0-1.258.59,2.573,2.573,0,0,0-.453,1.605V17h-2.469V9h2.469v1.484h.031a2.136,2.136,0,0,1,2.109-1.625,1.59,1.59,0,0,1,.609.094Zm2.463-3.492a1.442,1.442,0,0,1-1.023-.371,1.2,1.2,0,0,1-.4-.91,1.153,1.153,0,0,1,.4-.906,1.671,1.671,0,0,1,2.051,0,1.158,1.158,0,0,1,.395.906,1.191,1.191,0,0,1-.395.922A1.466,1.466,0,0,1,113.539,7.734ZM114.758,17h-2.469V9h2.469Zm8.736,0h-2.336V15.852h-.031a2.607,2.607,0,0,1-2.383,1.344,2.492,2.492,0,0,1-1.832-.66,2.366,2.366,0,0,1-.668-1.762q0-2.328,2.758-2.687l2.172-.289q0-1.312-1.422-1.312a4.853,4.853,0,0,0-2.719.852V9.477a6.116,6.116,0,0,1,1.41-.469,7.413,7.413,0,0,1,1.629-.2q3.422,0,3.422,3.414Zm-2.32-3.25v-.539l-1.453.188q-1.2.156-1.2,1.086a.9.9,0,0,0,.293.691,1.126,1.126,0,0,0,.793.27,1.462,1.462,0,0,0,1.133-.48A1.735,1.735,0,0,0,121.174,13.75ZM127.917,17h-2.469V5.156h2.469Z" transform="translate(906.317 4126.197)" fill="#fff"/>
          </g>
          <g transform="matrix(1, 0, 0, 1, 459.57, 3799.21)" filter="url(#Elipse_13533)">
            <circle id="Elipse_13533-2" data-name="Elipse 13533" cx="47.5" cy="47.5" r="47.5" transform="translate(15.43 37.79)" fill="#fff"/>
          </g>
          <g transform="matrix(1, 0, 0, 1, 459.57, 3799.21)" filter="url(#Elipse_13534)">
            <circle id="Elipse_13534-2" data-name="Elipse 13534" cx="47.5" cy="47.5" r="47.5" transform="translate(16.43 300.79)" fill="#fff"/>
          </g>
          <g transform="matrix(1, 0, 0, 1, 459.57, 3799.21)" filter="url(#Elipse_13535)">
            <circle id="Elipse_13535-2" data-name="Elipse 13535" cx="47.5" cy="47.5" r="47.5" transform="translate(569.43 37.79)" fill="#fff"/>
          </g>
          <g transform="matrix(1, 0, 0, 1, 459.57, 3799.21)" filter="url(#Elipse_13536)">
            <circle id="Elipse_13536-2" data-name="Elipse 13536" cx="47.5" cy="47.5" r="47.5" transform="translate(569.43 302.79)" fill="#fff"/>
          </g>
          <g transform="matrix(1, 0, 0, 1, 459.57, 3799.21)" filter="url(#Elipse_13537)">
            <circle id="Elipse_13537-2" data-name="Elipse 13537" cx="72.5" cy="72.5" r="72.5" transform="translate(267.43 144.79)" fill="#fff"/>
          </g>
        </g>
        <g id="Grupo_1200602" data-name="Grupo 1200602" transform="translate(-30.265 -3628.844)">
          <g id="Enmascarar_grupo_1098844" data-name="Enmascarar grupo 1098844" transform="translate(730.483 7503)" clip-path="url(#clip-path)">
            <g id="Grupo_1200574" data-name="Grupo 1200574" transform="translate(-39.228 32.363)">
              <g id="Grupo_1200559" data-name="Grupo 1200559" transform="translate(191.066 160.21)">
                <path id="Trazado_1045464" data-name="Trazado 1045464" d="M170.417,302.76c12.652,8.09,26.734,13.681,40.972,18.457,5.1,1.712,10.357,3.343,15.739,3.215s10.995-2.314,13.951-6.813a9.084,9.084,0,0,0,1.567-4.276,8.232,8.232,0,0,0-1.244-4.809c-2.07-3.411-5.959-5.2-9.619-6.789L178.335,278.5a.709.709,0,0,0-1.182.642C176.291,286.341,173.595,293.315,170.417,302.76Z" transform="translate(-170.417 -278.343)" fill="#f4cdb8"/>
                <path id="Trazado_1045465" data-name="Trazado 1045465" d="M170.417,302.76c12.652,8.09,26.734,13.681,40.972,18.457,5.1,1.712,10.357,3.343,15.739,3.215s10.995-2.314,13.951-6.813a9.084,9.084,0,0,0,1.567-4.276,8.232,8.232,0,0,0-1.244-4.809c-2.07-3.411-5.959-5.2-9.619-6.789L178.335,278.5a.709.709,0,0,0-1.182.642C176.291,286.341,173.595,293.315,170.417,302.76Z" transform="translate(-170.417 -278.343)" fill="#f4cdb8"/>
              </g>
              <path id="Trazado_1045466" data-name="Trazado 1045466" d="M96.061,312.428c-16.443,24.913-34.444,58.071-48.24,84.541a2.674,2.674,0,0,0-.442,1.675,2.614,2.614,0,0,0,.845,1.273c7.92,7.858,21.3,16.112,32.052,19.105a3.484,3.484,0,0,0,2.131.121,3.579,3.579,0,0,0,1.579-1.58c12.144-18.9,35.785-52.719,38.79-58.653,2.944.778,18.5,4.423,25.952,5.08.508,1.723,21.652,58.645,21.815,59.767,6.7,2.045,29.793,6.45,39.532-6.561-7.477-27.629-8.958-58.43-16.435-86.06C143.562,336.421,97.608,314.058,96.061,312.428Z" transform="translate(-20.532 -106.728)" fill="#80abc9"/>
              <path id="Trazado_1045467" data-name="Trazado 1045467" d="M108.873,256.167a471.75,471.75,0,0,1-43.291-29.208,10.814,10.814,0,0,1-1.879-1.671c-1.666-3.067-2.4-6.823-3.134-9.118-.459-1.429-2.771-3.314-4.383.023-1.06,2.193-.751,3.906-.858,6.859-3.445-3.4-5.726-6.266-9.92-8.678-1.783-1.025-4-1.635-5.026-.332-.89,1.13-.1,2.773.749,3.933a41.926,41.926,0,0,0,5.5,6.139,26.778,26.778,0,0,0-7.239-3.665,6.82,6.82,0,0,0-3.22-.436,2.8,2.8,0,0,0-2.345,2.007c-.248,1.232.619,2.39,1.475,3.31a37.706,37.706,0,0,0,6.476,5.536l-4.967-.547a7.633,7.633,0,0,0-3.147.092,2.6,2.6,0,0,0-1.927,2.257,3.46,3.46,0,0,0,1.9,2.628,15.53,15.53,0,0,0,6.189,2.33,3.065,3.065,0,0,1,1.791.626,9.2,9.2,0,0,1,1.372,2.043c1.153,2.832,5.66,6.054,9.583,5.319,14.836,17.712,23,24.48,38.468,32.748a3.871,3.871,0,0,0,2.051.8A3.17,3.17,0,0,0,94.8,278.2,50.336,50.336,0,0,0,108.873,256.167Z" transform="translate(-25.759 -139.899)" fill="#f4cdb8"/>
              <path id="Trazado_1045468" data-name="Trazado 1045468" d="M137.988,263.695c-4.227-7.18-12.517-10.807-20.449-13.361s-16.377-4.669-22.582-10.229a104.587,104.587,0,0,0-20.222,30.011,2.57,2.57,0,0,0,1.02,3.761A96.32,96.32,0,0,0,95.5,286.483c.814.39,1.734.891,1.9,1.779a2.851,2.851,0,0,1-.3,1.537c-6.484,16.3-20.447,55.957-19.137,56.726,15.583,9.141,35.743,17.785,53.565,20.747,17.118,2.844,38.731,1.938,55.155-3.625,1.176-.4-.052-3.672-.232-4.9A312.821,312.821,0,0,1,183.2,310.2a91.363,91.363,0,0,1,16.69,9.7,135.758,135.758,0,0,0,12.632-22.889c.61-1.412,2.247-5.6,2.15-7.132,0,0-1.678-1.069-5.814-3.989-11.064-7.812-20.073-14.019-32.9-18.374C162.909,263.082,149.446,266.579,137.988,263.695Z" transform="translate(-11.515 -130.929)" fill="#e06b6b"/>
              <g id="Grupo_1200561" data-name="Grupo 1200561" transform="translate(124.188 120.147)">
                <path id="Trazado_1045469" data-name="Trazado 1045469" d="M123.063,248.439a117.892,117.892,0,0,0-2.617,11.754,4.159,4.159,0,0,0,.073,2.385c.412.921,2.246,4.107,11.555,5.556a14.141,14.141,0,0,0,10.022-2.568,2.763,2.763,0,0,0,.821-.853,3.174,3.174,0,0,0,.267-1.419q.206-6.232.411-12.464a1.767,1.767,0,0,0-.124-.884c-.266-.5-.921-.617-1.487-.674A117.9,117.9,0,0,0,123.063,248.439Z" transform="translate(-120.308 -248.325)" fill="#f4cdb8"/>
                <g id="Grupo_1200560" data-name="Grupo 1200560" transform="translate(1.462)">
                  <path id="Trazado_1045470" data-name="Trazado 1045470" d="M143.1,249.948c-.266-.5-.921-.617-1.487-.674a117.583,117.583,0,0,0-18.921-.834c-.472,1.706-.9,3.422-1.293,5.148a30.075,30.075,0,0,0,13.572,4.065,18.9,18.9,0,0,0,8.069-1.215q.092-2.8.186-5.607A1.777,1.777,0,0,0,143.1,249.948Z" transform="translate(-121.403 -248.326)" fill="#8834a3" opacity="0.078"/>
                </g>
              </g>
              <g id="Grupo_1200564" data-name="Grupo 1200564" transform="translate(152.863 319.428)">
                <path id="Trazado_1045471" data-name="Trazado 1045471" d="M142.062,405.489a9.541,9.541,0,0,0,2.819,6.693c4.818,4.241,35.3,13.936,42,11.559a9.073,9.073,0,0,0,4.93-3.541c-1.83,1.118-3.624.645-5.756.858C179.569,421.706,145.631,408.912,142.062,405.489Z" transform="translate(-141.707 -395.015)" fill="#ebebeb"/>
                <path id="Trazado_1045472" data-name="Trazado 1045472" d="M170.415,397.641c6.589,4.662,13.229,9.366,18.742,15.262a14.409,14.409,0,0,1,3.17,4.568,5.8,5.8,0,0,1-.426,5.356c-1.353,1.892-3.959,2.4-6.282,2.3a30.243,30.243,0,0,1-6.325-1.138c-4.694-1.244-18.73-4.024-30.833-10.114-5.1-2.564-6.281-5.09-6.533-6.836a23.291,23.291,0,0,1,.044-5.28,2.008,2.008,0,0,1,.439-1.315,1.948,1.948,0,0,1,1.288-.392c2.257-.117,4.518-.028,6.779-.027A86.955,86.955,0,0,0,170.415,397.641Z" transform="translate(-141.793 -397.641)" fill="#cf5f61"/>
                <path id="Trazado_1045473" data-name="Trazado 1045473" d="M155.994,407.938a5.331,5.331,0,1,0-6.709,3.442A5.33,5.33,0,0,0,155.994,407.938Z" transform="translate(-140.524 -396.526)" fill="#fff"/>
                <path id="Trazado_1045474" data-name="Trazado 1045474" d="M175.215,416.486a1.044,1.044,0,0,1-.618-.2,200.628,200.628,0,0,1-19.347-15.909,1.057,1.057,0,1,1,1.441-1.546,198.573,198.573,0,0,0,19.143,15.742,1.056,1.056,0,0,1-.619,1.912Z" transform="translate(-137.402 -397.338)" fill="#a74244"/>
                <g id="Grupo_1200562" data-name="Grupo 1200562" transform="translate(27.177 4.31)">
                  <path id="Trazado_1045475" data-name="Trazado 1045475" d="M167.278,412.445a.7.7,0,0,1-.575-1.108,16.584,16.584,0,0,1,9.93-6.616.7.7,0,1,1,.3,1.377,15.171,15.171,0,0,0-9.077,6.049A.709.709,0,0,1,167.278,412.445Z" transform="translate(-160.677 -399.588)" fill="#f9f9f9"/>
                  <path id="Trazado_1045476" data-name="Trazado 1045476" d="M165.374,411.013a.7.7,0,0,1-.355-.1.705.705,0,0,1-.252-.965,15.8,15.8,0,0,1,9.765-7.243.7.7,0,0,1,.328,1.371,14.366,14.366,0,0,0-8.879,6.585A.7.7,0,0,1,165.374,411.013Z" transform="translate(-161.315 -400.262)" fill="#f9f9f9"/>
                  <path id="Trazado_1045477" data-name="Trazado 1045477" d="M162.859,408.866a.7.7,0,0,1-.561-1.129,20.35,20.35,0,0,1,9.336-6.825.7.7,0,1,1,.47,1.328,18.919,18.919,0,0,0-8.682,6.348A.707.707,0,0,1,162.859,408.866Z" transform="translate(-162.156 -400.871)" fill="#f9f9f9"/>
                </g>
                <g id="Grupo_1200563" data-name="Grupo 1200563" transform="translate(33.174 12.799)">
                  <path id="Trazado_1045478" data-name="Trazado 1045478" d="M169.192,414.342a22.058,22.058,0,0,1,9.2-7.111c.834.8,1.655,1.616,2.446,2.462a14.41,14.41,0,0,1,3.17,4.568,5.8,5.8,0,0,1-.426,5.356c-1.353,1.893-3.959,2.4-6.282,2.3-2.145-.1-8.823-1.173-10.653-2.2A17.038,17.038,0,0,1,169.192,414.342Z" transform="translate(-166.649 -407.231)" fill="#fff"/>
                </g>
              </g>
              <path id="Trazado_1045479" data-name="Trazado 1045479" d="M133.979,269.28a13.188,13.188,0,0,1-1.638-.1c-9.321-1.147-13.318-7.2-13.95-12.49a2.114,2.114,0,1,1,4.2-.5c.215,1.794,1.588,7.729,10.269,8.8,4.57.562,8.5-2.432,10.649-5.421a2.114,2.114,0,1,1,3.43,2.472C144.324,265.66,139.644,269.28,133.979,269.28Z" transform="translate(3.234 -126.171)" fill="#a62d43"/>
              <g id="Grupo_1200567" data-name="Grupo 1200567" transform="translate(0 301.421)">
                <path id="Trazado_1045480" data-name="Trazado 1045480" d="M79.284,398.423c-.5,2.086-3.184,4.3-5.168,5.125a18.738,18.738,0,0,1-6.311,1.081,252.937,252.937,0,0,1-30.067-.813c-2.34-.168-4.81-.39-6.716-1.758a8.679,8.679,0,0,1-3.608-4.881c1.4,1.624,3.251,1.724,5.217,2.581C38.613,402.364,74.837,400.588,79.284,398.423Z" transform="translate(-27.204 -379.789)" fill="#ebebeb"/>
                <path id="Trazado_1045481" data-name="Trazado 1045481" d="M55.64,384.149c-7.7,2.418-15.463,4.862-22.518,8.782a14.416,14.416,0,0,0-4.418,3.377,5.8,5.8,0,0,0-1.237,5.229c.709,2.217,3.031,3.5,5.277,4.111a30.31,30.31,0,0,0,6.369.856c4.85.255,9.709.179,14.565.1,5.962-.093,11.938.164,17.884-.28,5.688-.424,7.538-2.92,8.313-4.5a23.281,23.281,0,0,0,1.576-5.038,2,2,0,0,0-.016-1.387,1.956,1.956,0,0,0-1.105-.769c-2.111-.8-4.292-1.412-6.444-2.1A86.87,86.87,0,0,1,55.64,384.149Z" transform="translate(-27.257 -384.149)" fill="#cf5f61"/>
                <path id="Trazado_1045482" data-name="Trazado 1045482" d="M55.284,396.645a5.331,5.331,0,1,1,5.331,5.331A5.331,5.331,0,0,1,55.284,396.645Z" transform="translate(-17.878 -381.752)" fill="#fff"/>
                <path id="Trazado_1045483" data-name="Trazado 1045483" d="M37.9,397.679a.352.352,0,0,1-.108-.687,198.842,198.842,0,0,0,23.128-9.149.352.352,0,1,1,.3.637A199.455,199.455,0,0,1,38.01,397.66.307.307,0,0,1,37.9,397.679Z" transform="translate(-23.813 -382.924)" fill="#a74244"/>
                <g id="Grupo_1200565" data-name="Grupo 1200565" transform="translate(11.771 1.204)">
                  <path id="Trazado_1045484" data-name="Trazado 1045484" d="M43.886,397.582a.7.7,0,0,1-.673-.5,15.171,15.171,0,0,0-6.787-8.539.705.705,0,0,1,.71-1.219,16.6,16.6,0,0,1,7.425,9.341.7.7,0,0,1-.466.881A.712.712,0,0,1,43.886,397.582Z" transform="translate(-36.077 -384.321)" fill="#f9f9f9"/>
                  <path id="Trazado_1045485" data-name="Trazado 1045485" d="M46.094,396.789a.706.706,0,0,1-.687-.551,14.37,14.37,0,0,0-6.433-8.99.7.7,0,0,1,.733-1.2,15.806,15.806,0,0,1,7.076,9.888.7.7,0,0,1-.535.841A.754.754,0,0,1,46.094,396.789Z" transform="translate(-35.221 -384.753)" fill="#f9f9f9"/>
                  <path id="Trazado_1045486" data-name="Trazado 1045486" d="M49.072,395.492a.7.7,0,0,1-.665-.472,18.933,18.933,0,0,0-6.318-8.7.7.7,0,1,1,.854-1.121,20.348,20.348,0,0,1,6.795,9.358.706.706,0,0,1-.432.9A.682.682,0,0,1,49.072,395.492Z" transform="translate(-34.158 -385.051)" fill="#f9f9f9"/>
                </g>
                <g id="Grupo_1200566" data-name="Grupo 1200566" transform="translate(0 7.188)">
                  <path id="Trazado_1045487" data-name="Trazado 1045487" d="M42.785,399.124a22.042,22.042,0,0,0-6.581-9.589c-1.04.506-2.07,1.032-3.083,1.594a14.419,14.419,0,0,0-4.418,3.377,5.8,5.8,0,0,0-1.237,5.229c.709,2.217,3.031,3.5,5.277,4.111a30.312,30.312,0,0,0,6.369.855c1.441.076,2.885.116,4.328.141A15.933,15.933,0,0,0,42.785,399.124Z" transform="translate(-27.257 -389.535)" fill="#fff"/>
                </g>
              </g>
              <g id="Grupo_1200568" data-name="Grupo 1200568" transform="translate(106.355 151.994)">
                <circle id="Elipse_13415" data-name="Elipse 13415" cx="20.257" cy="20.257" r="20.257" transform="translate(0 3.318) rotate(-4.698)" fill="#fcdd5e"/>
                <path id="Trazado_1045488" data-name="Trazado 1045488" d="M119.449,284.969a1.145,1.145,0,1,1,1.145,1.145A1.145,1.145,0,0,1,119.449,284.969Z" transform="translate(-102.762 -268.294)" fill="#292316"/>
                <circle id="Elipse_13416" data-name="Elipse 13416" cx="1.145" cy="1.145" r="1.145" transform="translate(26.102 17.821)" fill="#292316"/>
                <path id="Trazado_1045489" data-name="Trazado 1045489" d="M112.9,289.275a4.367,4.367,0,1,1,4.367,4.367A4.367,4.367,0,0,1,112.9,289.275Z" transform="translate(-104.952 -267.931)" fill="#e4887a"/>
                <path id="Trazado_1045490" data-name="Trazado 1045490" d="M126.763,292.547a4.367,4.367,0,1,1,4.367,4.367A4.367,4.367,0,0,1,126.763,292.547Z" transform="translate(-100.314 -266.836)" fill="#e4887a"/>
                <path id="Trazado_1045491" data-name="Trazado 1045491" d="M125.961,294.885a9.847,9.847,0,0,1-1.74-.157,9.439,9.439,0,0,1-7.6-6.949l.69-.146a8.718,8.718,0,0,0,7.029,6.4,9,9,0,0,0,8.941-3.744l.557.434A9.893,9.893,0,0,1,125.961,294.885Z" transform="translate(-103.707 -267.019)" fill="#292316"/>
              </g>
              <path id="Trazado_1045492" data-name="Trazado 1045492" d="M50.112,372.571c-3.1,2.556-7.518,11.374-7.258,11.67C58.836,402.46,81.141,405.428,81.6,405.2c2.013-.982,4.923-5.411,7.764-11.137a.482.482,0,0,0-.416-.7C79.505,393.159,57.662,381.177,50.112,372.571Z" transform="translate(-22.041 -86.602)" fill="#abd5f0"/>
              <path id="Trazado_1045493" data-name="Trazado 1045493" d="M180.265,385.42c1.866,3.453,2.616,13.178,2.269,13.362-21.3,11.316-42.684,6.277-43.02,5.907-1.465-1.615-2.469-6.74-2.927-13.045a.487.487,0,0,1,.638-.5C145.893,394.249,170.206,390.765,180.265,385.42Z" transform="translate(9.328 -82.302)" fill="#abd5f0"/>
              <g id="Grupo_1200569" data-name="Grupo 1200569" transform="translate(19.27 295.396)">
                <path id="Trazado_1045494" data-name="Trazado 1045494" d="M49.96,389.482l-.506-.319a7.779,7.779,0,0,1-3.586-6.64,2.8,2.8,0,0,1,1.109-2.568,2.3,2.3,0,0,1,2.265-.047,3.371,3.371,0,0,1,1.4,1.477,8.3,8.3,0,0,1,.737,3.569,5.584,5.584,0,0,1-1.018,4.08Zm-1.842-8.442a.7.7,0,0,0-.379.1c-.4.258-.46.977-.46,1.383a6.415,6.415,0,0,0,2.368,5.049,5.755,5.755,0,0,0,.322-2.564,7.1,7.1,0,0,0-.578-2.971,2.047,2.047,0,0,0-.8-.878A1.078,1.078,0,0,0,48.118,381.041Z" transform="translate(-40.3 -379.635)" fill="#f9f9f9"/>
                <path id="Trazado_1045495" data-name="Trazado 1045495" d="M56.713,391.615a6.462,6.462,0,0,1-2.023-.384A12.453,12.453,0,0,1,48.7,387.2l-.642-.838,1.02-.272a19.9,19.9,0,0,1,4.643-.845,7.284,7.284,0,0,1,4.745,1.439,3.035,3.035,0,0,1,1.276,2.548,2.725,2.725,0,0,1-2.21,2.293A3.777,3.777,0,0,1,56.713,391.615Zm-6.167-4.447a11.664,11.664,0,0,0,4.587,2.725,4.171,4.171,0,0,0,2.1.259,1.369,1.369,0,0,0,1.11-1.041,1.718,1.718,0,0,0-.763-1.333,5.72,5.72,0,0,0-3.818-1.121A14.788,14.788,0,0,0,50.546,387.168Z" transform="translate(-39.565 -377.757)" fill="#f9f9f9"/>
                <path id="Trazado_1045496" data-name="Trazado 1045496" d="M53.891,399.317a.7.7,0,0,1-.318-.076A7.866,7.866,0,0,1,50.1,388.686a10.712,10.712,0,0,1-4.6-.885,6.576,6.576,0,0,1-3.8-4.858.7.7,0,0,1,1.4-.2,5.152,5.152,0,0,0,3.007,3.778,10.16,10.16,0,0,0,5.229.69l1.563-.132-.94,1.256a6.464,6.464,0,0,0,2.252,9.641.707.707,0,0,1-.319,1.336Z" transform="translate(-41.696 -378.796)" fill="#f9f9f9"/>
              </g>
              <g id="Grupo_1200570" data-name="Grupo 1200570" transform="translate(169.879 313.454)">
                <path id="Trazado_1045497" data-name="Trazado 1045497" d="M162.385,401.549l-.172-.574a5.585,5.585,0,0,1,.794-4.129,8.29,8.29,0,0,1,2.17-2.928,3.394,3.394,0,0,1,1.889-.751,2.311,2.311,0,0,1,2.035,1,2.8,2.8,0,0,1-.075,2.8,7.775,7.775,0,0,1-6.047,4.514Zm4.791-6.976h-.048a2.052,2.052,0,0,0-1.092.46,7.1,7.1,0,0,0-1.774,2.452,5.79,5.79,0,0,0-.787,2.461,6.41,6.41,0,0,0,4.272-3.583c.171-.368.419-1.046.164-1.447A.874.874,0,0,0,167.176,394.573Z" transform="translate(-152.026 -393.165)" fill="#f9f9f9"/>
                <path id="Trazado_1045498" data-name="Trazado 1045498" d="M160.107,401.762a14.474,14.474,0,0,1-1.687-.1,5.421,5.421,0,0,1-2.707-.928,2.725,2.725,0,0,1-1.04-3.011,3.036,3.036,0,0,1,2.232-1.775,7.206,7.206,0,0,1,4.909.691,20,20,0,0,1,3.856,2.72l.811.675-.936.49A11.755,11.755,0,0,1,160.107,401.762Zm-1.762-4.578a4.41,4.41,0,0,0-1.092.132A1.721,1.721,0,0,0,156,398.2a1.366,1.366,0,0,0,.57,1.412,4.173,4.173,0,0,0,2.013.649,11.683,11.683,0,0,0,5.306-.542,14.925,14.925,0,0,0-2.7-1.817A6.517,6.517,0,0,0,158.346,397.184Z" transform="translate(-154.542 -392.291)" fill="#f9f9f9"/>
                <path id="Trazado_1045499" data-name="Trazado 1045499" d="M157.614,408.677a.7.7,0,0,1-.024-1.408,6.466,6.466,0,0,0,6.1-7.8l-.324-1.535,1.363.775a10.312,10.312,0,0,0,5.034,1.575,5.147,5.147,0,0,0,4.318-2.162.7.7,0,1,1,1.184.765,6.565,6.565,0,0,1-5.492,2.807h-.052a10.452,10.452,0,0,1-4.488-1.132,7.868,7.868,0,0,1-7.594,8.112Z" transform="translate(-153.75 -391.613)" fill="#f9f9f9"/>
              </g>
              <path id="Trazado_1045500" data-name="Trazado 1045500" d="M97.7,274.271c-3.777,6.749-5.74,12-8.423,18.877-1.606,4.607-2.811,9.342-4.364,13.968-2.534,8.635-5.766,17.091-7.551,25.929-.037.475-.33.985-.109,1.439a.668.668,0,0,0,1.037.134c.275-.322.256-.8.388-1.192,2.026-8.224,5.032-16.157,7.589-24.221,2.469-7.218,4.438-14.6,7.215-21.709,1.066-2.948,2.229-6.362,3.311-8.71.593-1.413,1.391-2.748,2.014-4.133A.6.6,0,0,0,97.7,274.271Z" transform="translate(-10.555 -119.594)" fill="#ae4c4c"/>
              <path id="Trazado_1045501" data-name="Trazado 1045501" d="M160.192,343.882c-.778-4.386-1.986-9.844-2.413-13.6-.791-8.987-.8-18.026-.829-27.042-.039-3.316-.149-6.633-.145-9.95.007-.847.025-1.694.091-2.539a.561.561,0,0,0-.165-.4.572.572,0,0,0-.968.4,179.5,179.5,0,0,0-.167,31.026,117.594,117.594,0,0,0,3.553,22.67,1.861,1.861,0,0,0,.211.583.539.539,0,0,0,.889-.055C160.415,344.6,160.231,344.342,160.192,343.882Z" transform="translate(15.489 -114.169)" fill="#ae4c4c"/>
              <path id="Trazado_1045502" data-name="Trazado 1045502" d="M91.17,327.17c-.508.252-.807.822-1.236,1.192a24.485,24.485,0,0,1-12.676,7.147,12.509,12.509,0,0,1-4.679.488.551.551,0,0,0,0,1.1,17.687,17.687,0,0,0,6.928-1,25.184,25.184,0,0,0,12.357-8.129A.59.59,0,0,0,91.17,327.17Z" transform="translate(-12.27 -101.803)" fill="#6b94af"/>
              <path id="Trazado_1045503" data-name="Trazado 1045503" d="M163.288,349.47c-.239-.009-.483.032-.722.017a16.711,16.711,0,0,1-6.271-1.18,22.814,22.814,0,0,1-5.7-3.782,18.457,18.457,0,0,1-2.647-2.8,11.036,11.036,0,0,1-2.432-4.4c-.105-.35-.151-.769-.506-.958a.817.817,0,0,0-1.189.914c.774,3.578,3.3,6.473,5.852,8.969a20.172,20.172,0,0,0,7.024,4.341,12.936,12.936,0,0,0,6.764.319c.271-.111.137.053.5-.355A.735.735,0,0,0,163.288,349.47Z" transform="translate(11.738 -98.754)" fill="#6b94af"/>
              <path id="Trazado_1045504" data-name="Trazado 1045504" d="M62.439,358.369c-.646-.256-.757.044-1.03.216-.292.254-.709.415-.825.815a.769.769,0,0,0,1.279.745C62.443,359.677,63.327,359.05,62.439,358.369Z" transform="translate(-16.116 -91.388)" fill="#6b94af"/>
              <path id="Trazado_1045505" data-name="Trazado 1045505" d="M62.235,355.621c-.33.316-.774.621-.753,1.129a.988.988,0,0,0,1.672.693c.295-.34.733-.649.715-1.145A.965.965,0,0,0,62.235,355.621Z" transform="translate(-15.804 -92.366)" fill="#6b94af"/>
              <g id="Grupo_1200571" data-name="Grupo 1200571" transform="translate(149.391 300.4)">
                <path id="Trazado_1045506" data-name="Trazado 1045506" d="M139.386,384.894c-.005-.016-.016-.031-.02-.047C139.445,385.047,139.43,385.018,139.386,384.894Z" transform="translate(-139.133 -382.894)" fill="#6b94af"/>
                <path id="Trazado_1045507" data-name="Trazado 1045507" d="M141.181,385.035a2.326,2.326,0,0,0-.271-1.277.958.958,0,0,0-1.676.836,3.109,3.109,0,0,0,.21.791.862.862,0,0,0,.726.6A.9.9,0,0,0,141.181,385.035Z" transform="translate(-139.191 -383.384)" fill="#6b94af"/>
              </g>
              <path id="Trazado_1045508" data-name="Trazado 1045508" d="M143.837,383.365a6.518,6.518,0,0,0-.6-1.982,1.369,1.369,0,0,0-2.4,1.194,15.026,15.026,0,0,0,1.053,3.175,1.25,1.25,0,0,0,2.186-.424A5.881,5.881,0,0,0,143.837,383.365Z" transform="translate(10.733 -83.833)" fill="#6b94af"/>
              <g id="Grupo_1200573" data-name="Grupo 1200573" transform="translate(75.528 0)">
                <path id="Trazado_1045509" data-name="Trazado 1045509" d="M192.295,228.951a11.347,11.347,0,0,1,17.695,6.608c.908,3.872-.426,7.986-2.768,11.2-6.554,8.994-14.381,8.945-18.533,7.809-9.488,14.714-27.284,26.623-44.191,25.9-13.892-.6-27.026-7.707-36.6-17.8-2.685-2.831-5.2-6.041-6.062-9.846a14.407,14.407,0,0,1-17.051-8.018c-2.661-6.432.533-14.778,6.94-17.5,3.318-1.408,7.666-1.121,9.926,1.687,2.5-11.135,2.558-25.239,3.574-36.805,5.236-15.124,21.046-23.987,36.858-26.456a45.806,45.806,0,0,1,42.468,17.029,32.181,32.181,0,0,1,4.479,7.641,44.9,44.9,0,0,1,2.473,11.452A131.291,131.291,0,0,1,192.295,228.951Z" transform="translate(-83.848 -155.984)" fill="#f4cdb8"/>
                <path id="Trazado_1045510" data-name="Trazado 1045510" d="M89.914,229.989A65.616,65.616,0,0,1,86.876,202.3c.575-5.436,1.947-11.024,5.488-15.188,2.94-3.458,7.1-5.616,11.641-7.34,1.656-5.305,6.13-9.257,10.875-12.149,10.832-6.6,23.768-9.022,36.451-9.293,9.3-.2,18.864.758,27.177,4.926,1.355.679,2.887,1.963,2.378,3.391a3.149,3.149,0,0,1-2.079,1.6,26.617,26.617,0,0,1-10.948,1.523c12.12.635,24.248,3.874,34.452,10.442,2.779,1.788,5.694,4.419,5.4,7.71a6.5,6.5,0,0,1-4.033,5.044,15.114,15.114,0,0,1-6.65.934,47.258,47.258,0,0,1-15.6-3.231c1.365,1.228,2.865,2.852,2.42,4.634-.419,1.678-2.33,2.456-4.017,2.833-11.848,2.653-23.982-1.953-35.249-6.477,1.815.837,2.061,3.53.938,5.184s-3.115,2.466-5.033,3.03c-10.956,3.214-25.008,2.852-34.754-3.9a59.248,59.248,0,0,1-4.407,36.4C98.995,228.782,93.987,228.611,89.914,229.989Z" transform="translate(-82.955 -158.303)" fill="#826444"/>
                <path id="Trazado_1045511" data-name="Trazado 1045511" d="M113.833,207.78a4.512,4.512,0,1,1,4.021,5.323A4.728,4.728,0,0,1,113.833,207.78Z" transform="translate(-73.822 -143.258)" fill="#201b1b"/>
                <path id="Trazado_1045512" data-name="Trazado 1045512" d="M144.452,208.308a4.512,4.512,0,1,1,4.021,5.323A4.728,4.728,0,0,1,144.452,208.308Z" transform="translate(-63.576 -143.081)" fill="#201b1b"/>
                <path id="Trazado_1045513" data-name="Trazado 1045513" d="M130.447,211.238c0-1.7,1.735-3.083,3.876-3.083s3.876,1.38,3.876,3.083-1.735,3.083-3.876,3.083S130.447,212.941,130.447,211.238Z" transform="translate(-68.255 -141.621)" fill="#da918b"/>
                <path id="Trazado_1045514" data-name="Trazado 1045514" d="M97.1,172.2a6.728,6.728,0,0,0-6.727-1.576,1.624,1.624,0,0,0-1.121.886c-.224.682.406,1.355,1.06,1.652C92.413,174.112,94.831,173.054,97.1,172.2Z" transform="translate(-82.055 -154.288)" fill="#826444"/>
                <path id="Trazado_1045515" data-name="Trazado 1045515" d="M97.81,173.909a8.376,8.376,0,0,1-3.2-8.881c.264-.954.893-1.993,1.883-2.035a1.85,1.85,0,0,1,1.574.958,4.743,4.743,0,0,1,.542,1.84A15.262,15.262,0,0,1,97.81,173.909Z" transform="translate(-80.341 -156.733)" fill="#826444"/>
                <circle id="Elipse_13417" data-name="Elipse 13417" cx="12.037" cy="12.037" r="12.037" transform="matrix(0.231, -0.973, 0.973, 0.231, 20.384, 90.493)" fill="#da918b" opacity="0.761"/>
                <circle id="Elipse_13418" data-name="Elipse 13418" cx="12.037" cy="12.037" r="12.037" transform="translate(79.004 92.823) rotate(-77.333)" fill="#da918b" opacity="0.761"/>
                <g id="Grupo_1200572" data-name="Grupo 1200572" transform="translate(43.455 74.612)">
                  <path id="Trazado_1045516" data-name="Trazado 1045516" d="M159.56,222.534c-.4-5.475-4.837-7.479-9.118-7.781-3.449-.244-6.785,1.2-9.834,2.829a8.855,8.855,0,0,1-3.439,1.293c-1.8.125-3.446-.906-4.989-1.838a21.421,21.421,0,0,0-5.073-2.4,9.1,9.1,0,0,0-5.537.007,8.147,8.147,0,0,0-5.016,6.238,11.239,11.239,0,0,0,1.822,7.981,18.379,18.379,0,0,0,6.134,5.608,27.468,27.468,0,0,0,18.946,3.335,20.719,20.719,0,0,0,9.258-4.072C154.613,232.187,159.993,228.526,159.56,222.534Z" transform="translate(-116.407 -214.208)" fill="#fff"/>
                </g>
                <path id="Trazado_1045517" data-name="Trazado 1045517" d="M157.631,183.446c9.035,4.366,9.437,12.911,9.437,41.694a11.211,11.211,0,0,1,8.857-3.289c1.921-9.524,3.848-19.3,2.313-28.889a21.09,21.09,0,0,0-2.7-7.952,10.82,10.82,0,0,0-6.57-4.965C166.215,179.433,159.944,180.574,157.631,183.446Z" transform="translate(-59.158 -151.081)" fill="#826444"/>
                <path id="Trazado_1045518" data-name="Trazado 1045518" d="M179.211,185.225a13.327,13.327,0,0,0-3.522-2.947.573.573,0,0,0-.366,1.057c2.348,1.611,3.681,3.31,3.035,4.863a1.155,1.155,0,0,1-.068.109,1.564,1.564,0,0,1-.226.219l-.056.043a5.12,5.12,0,0,1-.709.455c-.442.244-.9.462-1.361.663-.92.314-1.667.553-2.258.766a19.073,19.073,0,0,1-4.554.39,77.06,77.06,0,0,1-14.307-2.149c-4.192-.941-8.272-2.3-12.433-3.363a5.949,5.949,0,0,0-1.221-2.55,12.79,12.79,0,0,0-5.557-3.591c-.98-.378-2.94-.707-2.889.859a4.465,4.465,0,0,0,1.947,2.812,16.614,16.614,0,0,0,4.068,2.385c.753.295,1.513.567,2.277.83a4.658,4.658,0,0,1-.866,3.447c-1.945,2.6-7.016,3.75-11.426,4.467a57.154,57.154,0,0,1-9.513-.109c-4.089-.259-8.2-.494-11.726-1.9a51.927,51.927,0,0,1-5.742-3c-.807-.51-1.564-1.094-2.368-1.611a.342.342,0,0,0-.391.028.352.352,0,0,0,.036.581,45.734,45.734,0,0,0,9.389,5.44,37.624,37.624,0,0,0,8.761,1.75,67.647,67.647,0,0,0,10.818.659,27.556,27.556,0,0,0,11.57-3.612,6.553,6.553,0,0,0,2.978-5.629c2.037.661,4.089,1.276,6.114,1.969,5.373,1.589,12.888,3.537,19.582,3.645a17.371,17.371,0,0,0,3.7.125,10.51,10.51,0,0,0,1.457-.219,13.788,13.788,0,0,0,4.806-1.684,3.331,3.331,0,0,0,1.8-2.007A3.449,3.449,0,0,0,179.211,185.225Zm-43.632-2.637a5.9,5.9,0,0,1-1.744-1.679c-.472-.826-.343-1.229.665-.845,2.737.889,5.185,2.657,6.141,4.789A18.28,18.28,0,0,1,135.579,182.588Z" transform="translate(-78.831 -151.418)" fill="#685137"/>
                <path id="Trazado_1045519" data-name="Trazado 1045519" d="M182.282,181.12a4.69,4.69,0,0,1-1.977,2.306c-1.73,1.316-4.51,1.778-6.677,1.86a46.352,46.352,0,0,1-12.093-1.149c-.514-.067-1.555-.63-1.355.224a19.448,19.448,0,0,0,4.959,1.9,35.556,35.556,0,0,0,9.828.69,10.368,10.368,0,0,0,6.61-2.879,5.384,5.384,0,0,0,1.549-2.892A.435.435,0,0,0,182.282,181.12Z" transform="translate(-58.313 -150.771)" fill="#685137"/>
                <path id="Trazado_1045520" data-name="Trazado 1045520" d="M127.584,215.175a100.253,100.253,0,0,0-5.613,9.747c-.85,1.766-2.165,3.995-2.779,5.754a.308.308,0,0,0,.591-.011,119,119,0,0,1,6.434-12.154c.594-1.069,1.264-2.11,1.866-3.164A.27.27,0,0,0,127.584,215.175Z" transform="translate(-72.021 -139.315)" fill="#929292"/>
                <path id="Trazado_1045521" data-name="Trazado 1045521" d="M130.607,217.61c-.921,4.3-1.989,8.885-2.485,13.006-.246,1.589-.424,2.892-.662,4.543,0,.251-.148.558.009.777.323.24.45-.172.431-.323.8-4.629,1.387-9.647,2.535-14.325.259-1.209.589-2.416.75-3.638A.3.3,0,0,0,130.607,217.61Z" transform="translate(-69.276 -138.528)" fill="#929292"/>
                <path id="Trazado_1045522" data-name="Trazado 1045522" d="M140.677,235.217a43.579,43.579,0,0,0-2.05-7.518c-.713-2.253-1.315-4.542-2.123-6.764-.42-1.265-.922-2.506-1.28-3.792a.276.276,0,0,0-.531.147c1.961,6.013,3.975,12.021,5.568,18.144C140.392,235.769,140.821,235.547,140.677,235.217Z" transform="translate(-66.838 -138.678)" fill="#929292"/>
                <path id="Trazado_1045523" data-name="Trazado 1045523" d="M144.952,225.191c-1.06-2.141-1.982-4.346-3.178-6.417-.71-1.305-1.567-2.524-2.333-3.8a.209.209,0,0,0-.362.211c3.038,4.919,5.213,10.3,7.892,15.41.163.255.407,1.205.751.683A59.458,59.458,0,0,0,144.952,225.191Z" transform="translate(-65.376 -139.371)" fill="#929292"/>
                <path id="Trazado_1045524" data-name="Trazado 1045524" d="M176.774,216.884a6.7,6.7,0,0,0-4.869.031,10.664,10.664,0,0,0-4.663,5.369.6.6,0,0,0,.893.6,12.271,12.271,0,0,0,1.085-1.815,8.579,8.579,0,0,1,2.189-2.448,4.6,4.6,0,0,1,1.986-1.03,6.65,6.65,0,0,1,3.108.284A.513.513,0,0,0,176.774,216.884Z" transform="translate(-55.946 -138.848)" fill="#d39487"/>
                <path id="Trazado_1045525" data-name="Trazado 1045525" d="M98.986,223.1a12.563,12.563,0,0,0-3.948-5.324,6.819,6.819,0,0,0-4.095-1.756,13.841,13.841,0,0,0-2.489.02.639.639,0,0,0,0,1.277,8.825,8.825,0,0,1,4.215.406,13.1,13.1,0,0,1,3.694,3.326,33.145,33.145,0,0,0,1.759,2.816A.59.59,0,0,0,98.986,223.1Z" transform="translate(-82.519 -139.005)" fill="#d39487"/>
              </g>
              <path id="Trazado_1045526" data-name="Trazado 1045526" d="M46.2,221.633a22.932,22.932,0,0,0-4.245,6.681.479.479,0,0,0,.713.476c.268-.192.334-.562.507-.83a27.311,27.311,0,0,1,2.888-4.591c.3-.474.921-.8,1.032-1.367A.528.528,0,0,0,46.2,221.633Z" transform="translate(-22.342 -137.161)" fill="#d39487"/>
            </g>
          </g>
          <g id="Grupo_1200601" data-name="Grupo 1200601" transform="translate(698.675 7609.128)">
            <path id="Trazado_1045467-2" data-name="Trazado 1045467" d="M103.709,253.3a440.17,440.17,0,0,1-40.393-27.253,10.093,10.093,0,0,1-1.753-1.559c-1.554-2.862-2.237-6.366-2.924-8.508-.428-1.334-2.585-3.092-4.09.021-.989,2.046-.7,3.645-.8,6.4-3.214-3.169-5.342-5.847-9.256-8.1-1.664-.956-3.733-1.525-4.69-.31-.831,1.055-.095,2.588.7,3.67a39.118,39.118,0,0,0,5.132,5.728,24.984,24.984,0,0,0-6.754-3.42,6.363,6.363,0,0,0-3-.407,2.613,2.613,0,0,0-2.188,1.873c-.232,1.149.578,2.23,1.376,3.088a35.181,35.181,0,0,0,6.042,5.165l-4.635-.511a7.122,7.122,0,0,0-2.936.086,2.429,2.429,0,0,0-1.8,2.106,3.228,3.228,0,0,0,1.776,2.452A14.491,14.491,0,0,0,39.284,236a2.859,2.859,0,0,1,1.671.584,8.58,8.58,0,0,1,1.28,1.907c1.076,2.642,5.281,5.649,8.941,4.962,13.843,16.526,21.459,22.841,35.893,30.555a3.612,3.612,0,0,0,1.914.748,2.958,2.958,0,0,0,1.6-.9A46.966,46.966,0,0,0,103.709,253.3Z" transform="translate(-31.734 -213.3)" fill="#f4cdb8"/>
            <path id="Trazado_1045526-2" data-name="Trazado 1045526" d="M45.914,221.623a21.4,21.4,0,0,0-3.961,6.234.447.447,0,0,0,.665.445c.25-.179.311-.524.473-.775a25.483,25.483,0,0,1,2.695-4.284c.28-.442.859-.751.963-1.275A.493.493,0,0,0,45.914,221.623Z" transform="translate(-29.23 -211.293)" fill="#d39487"/>
          </g>
        </g>
      </g>
      <g id="tarjetas" transform="translate(478.5 3802.962)">
        <g id="Grupo_1207269" data-name="Grupo 1207269" transform="translate(7.5 52.68)">
          <path id="Trazado_1076325" data-name="Trazado 1076325" d="M43.053,177.95l-5.115,1.31h0l-6.546-.5-1.454.93L25.7,182.394,20.58,183.7a4.2,4.2,0,0,1-5.1-3.023L7.632,150.049a4.2,4.2,0,0,1,3.025-5.106l10.438-2.672,12.033-3.081a4.2,4.2,0,0,1,5.106,3.023l7.842,30.632A4.2,4.2,0,0,1,43.053,177.95Z" transform="translate(-7.5 -126.979)" fill="#f3f5fc"/>
          <path id="Trazado_1076326" data-name="Trazado 1076326" d="M29.936,199.447,25.7,202.156l-5.117,1.31a4.2,4.2,0,0,1-5.1-3.023L7.632,169.811a4.2,4.2,0,0,1,3.025-5.106l10.438-2.672a4.452,4.452,0,0,0-.331,3.107l8.362,32.66A4.464,4.464,0,0,0,29.936,199.447Z" transform="translate(-7.5 -146.741)" fill="#e8ecf9"/>
          <path id="Trazado_1076327" data-name="Trazado 1076327" d="M141.917,334.572l-6.493,1.663-5.747,1.471-1.292-15.872h0a6.317,6.317,0,0,1,10.92,2.54Z" transform="translate(-111.48 -282.291)" fill="#36d49b"/>
          <path id="Trazado_1076328" data-name="Trazado 1076328" d="M126.083,342.147l-5.747,1.471-2.612-10.2a6.311,6.311,0,0,1,2.772-6.925l3.269,12.769A4.469,4.469,0,0,0,126.083,342.147Z" transform="translate(-102.139 -288.203)" fill="#00c780"/>
          <path id="Trazado_1076329" data-name="Trazado 1076329" d="M86.779,211.022l-10.817,2.77-5.287,1.354h0l-3.321-2.284,5.773-10.136a11.74,11.74,0,0,1,1.817-.628,11.583,11.583,0,0,1,13.188,5.949A2.1,2.1,0,0,1,86.779,211.022Z" transform="translate(-58.985 -180.888)" fill="#4a66a0"/>
          <path id="Trazado_1076330" data-name="Trazado 1076330" d="M69.058,219.9l-7.107,1.819a2.1,2.1,0,0,1-2.618-1.961,11.59,11.59,0,0,1,6.89-10.926Z" transform="translate(-52.08 -186.996)" fill="#2a4f95"/>
          <path id="Trazado_1076331" data-name="Trazado 1076331" d="M121.8,263.242a7.4,7.4,0,0,1-2.649.457l-3.637-5.438.853-5.438a17.374,17.374,0,0,1,1.829-.575,12.984,12.984,0,0,1,6.3-.228,2.087,2.087,0,0,1,1.4,1.129,7.155,7.155,0,0,1,.338.839A7.335,7.335,0,0,1,121.8,263.242Z" transform="translate(-100.41 -223.9)" fill="#ffddcf"/>
          <path id="Trazado_1076332" data-name="Trazado 1076332" d="M96.779,270.38a7.373,7.373,0,0,1-7.051-5.543,7.455,7.455,0,0,1-.221-1.428,2.089,2.089,0,0,1,.684-1.654,11.87,11.87,0,0,1,3.8-2.251Z" transform="translate(-78.036 -230.581)" fill="#ffcbbe"/>
          <path id="Trazado_1076333" data-name="Trazado 1076333" d="M275.684,62.083l-6.012,31.045a4.2,4.2,0,0,1-4.917,3.321l-5.185-1-6.2-3.771-.8.176-5.4,1.193-5.185-1a4.2,4.2,0,0,1-3.321-4.917l6.013-31.043a4.194,4.194,0,0,1,4.915-3.321l11.5,2.228,11.27,2.183A4.194,4.194,0,0,1,275.684,62.083Z" transform="translate(-206.268 -52.68)" fill="#fbf198"/>
          <path id="Trazado_1076334" data-name="Trazado 1076334" d="M261.093,54.985a4.368,4.368,0,0,0-2.436,3.2l-6.013,32.663a4.67,4.67,0,0,0-.074,1l-5.4,1.193-5.185-1a4.2,4.2,0,0,1-3.321-4.917l6.013-31.043a4.194,4.194,0,0,1,4.915-3.321Z" transform="translate(-206.268 -52.68)" fill="#fad989"/>
          <path id="Trazado_1076335" data-name="Trazado 1076335" d="M326.568,125.7l-1.405,7.252a4.194,4.194,0,0,1-4.915,3.321L311.6,134.6l-4.8-.931-1.217-13.3,10.194-8.441a11.464,11.464,0,0,1,1.629.2A11.583,11.583,0,0,1,326.568,125.7Z" transform="translate(-263.892 -103.647)" fill="#ffbed8"/>
          <path id="Trazado_1076336" data-name="Trazado 1076336" d="M295.9,111.838l-4.173,22.67-5.854-1.134a4.194,4.194,0,0,1-3.321-4.915l1.4-7.252a11.586,11.586,0,0,1,11.358-9.383C295.506,111.823,295.7,111.829,295.9,111.838Z" transform="translate(-244.02 -103.552)" fill="#ff97c1"/>
          <path id="Trazado_1076337" data-name="Trazado 1076337" d="M314.371,238.314l-2,10.337-6.233-1.207-6.171-1.2,5.62-14.9a6.285,6.285,0,0,1,2.3-.548c.092,0,.186-.006.28-.006a6.321,6.321,0,0,1,6.209,7.521Z" transform="translate(-259.066 -205.886)" fill="#ff6e80"/>
          <path id="Trazado_1076338" data-name="Trazado 1076338" d="M306.136,247.478l-6.171-1.2,2-10.337a6.323,6.323,0,0,1,5.917-5.113l-2.44,13.258A4.578,4.578,0,0,0,306.136,247.478Z" transform="translate(-259.066 -205.92)" fill="#f9475e"/>
          <path id="Trazado_1076339" data-name="Trazado 1076339" d="M357.171,172.022c-.034.207-.076.415-.129.624a7.37,7.37,0,0,1-9.958,5.01l-1.169-5.219,3.09-5.219c.245-.057.467-.115.664-.171a2.1,2.1,0,0,1,1.85.358,15.079,15.079,0,0,0,4.248,2.3A2.1,2.1,0,0,1,357.171,172.022Z" transform="translate(-298.591 -150.986)" fill="#ffddcf"/>
          <path id="Trazado_1076340" data-name="Trazado 1076340" d="M328.143,168.753l-1.921,10.438a7.37,7.37,0,0,1-4.425-8.216c.011-.064.025-.127.039-.192a2.11,2.11,0,0,1,2.173-1.656,14.937,14.937,0,0,0,3.6-.26C327.8,168.831,327.974,168.792,328.143,168.753Z" transform="translate(-277.728 -152.521)" fill="#ffcbbe"/>
        </g>
        <g id="Grupo_1207270" data-name="Grupo 1207270" transform="translate(7.5 52.68)">
          <path id="Trazado_1076341" data-name="Trazado 1076341" d="M44.517,166.757l1.559,6.089a4.2,4.2,0,0,1-3.023,5.1L20.58,183.7a4.2,4.2,0,0,1-5.1-3.023L7.632,150.049a4.2,4.2,0,0,1,3.025-5.106l22.471-5.753a4.2,4.2,0,0,1,5.106,3.023l3,11.71" transform="translate(-7.5 -126.979)" fill="none" stroke="#000" stroke-linecap="round" stroke-linejoin="round" stroke-miterlimit="10" stroke-width="1.5"/>
          <path id="Trazado_1076342" data-name="Trazado 1076342" d="M118.977,336.023a6.306,6.306,0,0,0-1.252,5.592l2.512,9.806" transform="translate(-102.141 -296.4)" fill="none" stroke="#000" stroke-linecap="round" stroke-linejoin="round" stroke-miterlimit="10" stroke-width="1.5"/>
          <line id="Lnea_839" data-name="Lnea 839" x1="0.996" y1="3.885" transform="translate(29.321 47.927)" fill="none" stroke="#000" stroke-linecap="round" stroke-linejoin="round" stroke-miterlimit="10" stroke-width="1.5"/>
          <path id="Trazado_1076343" data-name="Trazado 1076343" d="M180.255,323.183a6.3,6.3,0,0,1,3.667,4.254l.282,1.1" transform="translate(-156.097 -285.356)" fill="none" stroke="#000" stroke-linecap="round" stroke-linejoin="round" stroke-miterlimit="10" stroke-width="1.5"/>
          <path id="Trazado_1076344" data-name="Trazado 1076344" d="M63.615,215.183l-1.663.427a2.1,2.1,0,0,1-2.618-1.961,11.585,11.585,0,0,1,21.895-5.6,2.1,2.1,0,0,1-1.354,2.976l-1.585.405" transform="translate(-52.081 -180.887)" fill="none" stroke="#000" stroke-linecap="round" stroke-linejoin="round" stroke-miterlimit="10" stroke-width="1.5"/>
          <path id="Trazado_1076345" data-name="Trazado 1076345" d="M99.429,263.245a7.348,7.348,0,0,0,4.093-10.095,2.089,2.089,0,0,0-1.4-1.128,14.809,14.809,0,0,0-11.93,3.054,2.084,2.084,0,0,0-.684,1.654A7.376,7.376,0,0,0,99.429,263.245Z" transform="translate(-78.038 -223.903)" fill="none" stroke="#000" stroke-linecap="round" stroke-linejoin="round" stroke-miterlimit="10" stroke-width="1.5"/>
          <path id="Trazado_1076346" data-name="Trazado 1076346" d="M242.889,65.293l1.784-9.214a4.194,4.194,0,0,1,4.915-3.321l22.774,4.411a4.2,4.2,0,0,1,3.321,4.915l-6.012,31.045a4.2,4.2,0,0,1-4.917,3.321l-22.775-4.411a4.2,4.2,0,0,1-3.321-4.917l3.3-17.017" transform="translate(-206.268 -52.68)" fill="none" stroke="#000" stroke-linecap="round" stroke-linejoin="round" stroke-miterlimit="10" stroke-width="1.5"/>
          <path id="Trazado_1076347" data-name="Trazado 1076347" d="M286.862,133.565l-.991-.192a4.194,4.194,0,0,1-3.321-4.915l1.4-7.252A11.582,11.582,0,0,1,306.8,125" transform="translate(-244.02 -103.552)" fill="none" stroke="#000" stroke-linecap="round" stroke-linejoin="round" stroke-miterlimit="10" stroke-width="1.5"/>
          <path id="Trazado_1076348" data-name="Trazado 1076348" d="M404.245,246.656l.874.169a4.194,4.194,0,0,0,4.915-3.321l.592-3.051" transform="translate(-348.764 -214.195)" fill="none" stroke="#000" stroke-linecap="round" stroke-linejoin="round" stroke-miterlimit="10" stroke-width="1.5"/>
          <path id="Trazado_1076349" data-name="Trazado 1076349" d="M300.435,249.88l1.935-9.994a6.307,6.307,0,0,1,3.423-4.472" transform="translate(-259.471 -209.859)" fill="none" stroke="#000" stroke-linecap="round" stroke-linejoin="round" stroke-miterlimit="10" stroke-width="1.5"/>
          <path id="Trazado_1076350" data-name="Trazado 1076350" d="M389.548,245.083a6.313,6.313,0,0,1,1.593,5.522l-1.926,9.941" transform="translate(-335.836 -218.177)" fill="none" stroke="#000" stroke-linecap="round" stroke-linejoin="round" stroke-miterlimit="10" stroke-width="1.5"/>
          <path id="Trazado_1076351" data-name="Trazado 1076351" d="M327.934,178.13a7.392,7.392,0,0,0,8.372-6.109,2.1,2.1,0,0,0-1.4-2.319,15.077,15.077,0,0,1-4.248-2.3,2.1,2.1,0,0,0-1.85-.358,15.035,15.035,0,0,1-4.8.545,2.11,2.11,0,0,0-2.174,1.657A7.371,7.371,0,0,0,327.934,178.13Z" transform="translate(-277.726 -150.985)" fill="none" stroke="#000" stroke-linecap="round" stroke-linejoin="round" stroke-miterlimit="10" stroke-width="1.5"/>
        </g>
      </g>
      <g id="funambulista" transform="translate(1042 3836.967)">
        <g id="Grupo_1207273" data-name="Grupo 1207273" transform="translate(38.03 70.97)">
          <path id="Trazado_1076352" data-name="Trazado 1076352" d="M293.766,441.1a2.583,2.583,0,0,1-.187.967,99.115,99.115,0,0,1-12.412,1.747,2.434,2.434,0,0,1-2.6-2.193l-.4-3.252,7.715-1.565,6.035,1.818a2.623,2.623,0,0,1,1.843,2.479Z" transform="translate(-278.173 -436.808)" fill="#ff7d95"/>
        </g>
        <g id="Grupo_1207274" data-name="Grupo 1207274" transform="translate(17.199 68.532)">
          <path id="Trazado_1076353" data-name="Trazado 1076353" d="M140.7,427.945a2.288,2.288,0,0,1-.2.648,93.651,93.651,0,0,1-12.061-1.3A3.174,3.174,0,0,1,126,423.068l1.511-4.09,7.657,2.83,3.984,2.707A3.586,3.586,0,0,1,140.7,427.945Z" transform="translate(-125.8 -418.978)" fill="#ff7d95"/>
        </g>
        <g id="Grupo_1207275" data-name="Grupo 1207275" transform="translate(21.559 24.411)">
          <path id="Trazado_1076354" data-name="Trazado 1076354" d="M174.169,144.381l-2.737-19.463a7.561,7.561,0,0,0-1.525-3.573L159.3,107.769a7.562,7.562,0,0,1-1.6-4.991l.29-6.521,14.948,2.033-.153,3.431a7.562,7.562,0,0,0,1.309,4.6l6.245,9.149a7.56,7.56,0,0,1,1.316,4.19l.222,23.157Z" transform="translate(-157.697 -96.257)" fill="#a0c8ff"/>
        </g>
        <g id="Grupo_1207276" data-name="Grupo 1207276" transform="translate(21.376 14.4)">
          <path id="Trazado_1076355" data-name="Trazado 1076355" d="M156.837,33.044s-.6-6.96-.46-10.011h18.5s-.279,7.353-3.091,12.044Z" transform="translate(-156.357 -23.033)" fill="#ffc135"/>
        </g>
        <g id="Grupo_1207277" data-name="Grupo 1207277" transform="translate(18.908 40.705)">
          <path id="Trazado_1076356" data-name="Trazado 1076356" d="M154.258,226.162l-8.3,19.933-7.657-2.83,7.991-27.827,6.87,8.794A7.491,7.491,0,0,1,154.258,226.162Z" transform="translate(-138.305 -215.438)" fill="#61a2ff"/>
        </g>
        <g id="Grupo_1207278" data-name="Grupo 1207278" transform="translate(0 13.033)">
          <path id="Trazado_1076357" data-name="Trazado 1076357" d="M69.9,71.457a1.432,1.432,0,0,0-1.983-.691,101.04,101.04,0,0,1-13,3.746,4,4,0,0,0-2.742-3.033L47.1,69.951,46.89,47.8a8.9,8.9,0,0,0-1.554-4.948L39.091,33.7a6.233,6.233,0,0,1-1.072-3.767l.138-3.1c2.792-4.931,3.095-12.08,3.106-12.388A1.367,1.367,0,0,0,39.9,13.033H21.4a1.367,1.367,0,0,0-1.366,1.306c-.131,2.952.384,9.24.456,10.1L20.2,30.871a8.935,8.935,0,0,0,1.884,5.894L25.393,41l-2.214,7.709a1.367,1.367,0,0,0,2.628.755l1.666-5.8,5.219,6.68a6.18,6.18,0,0,1,.684,1.1L25.808,69.624,20.573,67.69l1.911-6.656a1.367,1.367,0,0,0-2.628-.755l-2.248,7.827-1.494,4.043a4.525,4.525,0,0,0-.174,2.55A102.993,102.993,0,0,1,2.228,70.822c-.811-.3-1.758-.316-2.133.635a1.367,1.367,0,0,0,.771,1.773c18.739,7.384,39.63,8.014,58.988,2.924a82.574,82.574,0,0,0,9.279-2.924,1.382,1.382,0,0,0,.771-1.773ZM36.7,76.822q-1.6.036-3.2,0a4.957,4.957,0,0,0-2.178-3.888l-3.062-2.08,6.107-14.673,2.7,19.736a3.756,3.756,0,0,0,.2.885Zm15.478-1.986a1.258,1.258,0,0,1,.062.233c-3.262.636-11.122,1.531-11.366,1.549a1.071,1.071,0,0,1-1.085-.965l-.2-2.026,1.826-.374,4.266-.874,5.7,1.718a1.234,1.234,0,0,1,.793.74ZM38.421,15.767a28.062,28.062,0,0,1-2.36,9.2L23.132,23.2c-.132-1.711-.367-5.074-.387-7.437H38.421ZM22.933,30.992l.223-5.025,12.228,1.663-.1,2.183a8.984,8.984,0,0,0,1.546,5.431l6.245,9.149a6.172,6.172,0,0,1,1.078,3.433l.211,22.031L39.254,70.9,36.647,52.875a8.981,8.981,0,0,0-1.8-4.219L24.24,35.081a6.2,6.2,0,0,1-1.307-4.089Zm-4.124,43.63a1.8,1.8,0,0,1-.13-1.526l1.038-2.808,6.219,2.3L29.782,75.2a2.233,2.233,0,0,1,.965,1.523q-1.085-.059-2.168-.146c-3.025-.243-5.939-.637-8.66-1.109a1.805,1.805,0,0,1-1.11-.844Z" transform="translate(0 -13.033)"/>
          <path id="Trazado_1076358" data-name="Trazado 1076358" d="M355.18,221.619a1.367,1.367,0,0,0,1.306,1.426h.061a1.367,1.367,0,0,0,1.365-1.307,14.142,14.142,0,0,0-1.527-7.083,1.367,1.367,0,0,0-2.378,1.35A11.568,11.568,0,0,1,355.18,221.619Z" transform="translate(-305.458 -186.497)"/>
          <path id="Trazado_1076359" data-name="Trazado 1076359" d="M112.372,141.712a1.367,1.367,0,0,0,1.091-2.19,9.8,9.8,0,0,1-1.595-6.461,1.367,1.367,0,0,0-2.708-.38,12.453,12.453,0,0,0,2.119,8.488A1.364,1.364,0,0,0,112.372,141.712Z" transform="translate(-94.169 -115.308)"/>
          <path id="Trazado_1076360" data-name="Trazado 1076360" d="M157.61,309.27a1.367,1.367,0,1,0,.74-1.786A1.379,1.379,0,0,0,157.61,309.27Z" transform="translate(-135.974 -267.141)"/>
        </g>
      </g>
      <g id="juego-de-mesa" transform="translate(475.084 4107.164)">
        <g id="Grupo_1207286" data-name="Grupo 1207286" transform="translate(22.981 5.284)">
          <g id="Grupo_1207280" data-name="Grupo 1207280" transform="translate(16.076 7.514)">
            <path id="Trazado_1076361" data-name="Trazado 1076361" d="M0,0H31.728V43.93H0Z" transform="translate(6.677 0) rotate(8.746)" fill="#b560e8"/>
            <path id="Trazado_1076362" data-name="Trazado 1076362" d="M0,0H37.309V25.106H0Z" transform="translate(34.281 7.602) rotate(98.746)" fill="#fbd62e"/>
            <path id="Trazado_1076363" data-name="Trazado 1076363" d="M0,0H3.311V6.805H0Z" transform="translate(16.469 29.767) rotate(8.746)" fill="#efeffb"/>
            <path id="Trazado_1076364" data-name="Trazado 1076364" d="M86.239,40.179l-2.979,3.03L80.93,58.343l2.454.378,2.454.378,2.331-15.134Z" transform="translate(-65.272 -28.679)" fill="#efeffb"/>
            <g id="Grupo_1207279" data-name="Grupo 1207279" transform="translate(12.882 28.032)">
              <path id="Trazado_1076365" data-name="Trazado 1076365" d="M84.578,74.545a35.023,35.023,0,0,1-7.46-1.149,1.644,1.644,0,0,1-1.142-2.089l.01-.031a1.632,1.632,0,0,1,1.977-1.08,31.768,31.768,0,0,0,6.772,1.043,1.633,1.633,0,0,1,1.56,1.625V72.9a1.645,1.645,0,0,1-1.718,1.649Z" transform="translate(-75.899 -70.14)" fill="#dfdfe5"/>
              <path id="Trazado_1076366" data-name="Trazado 1076366" d="M84.578,74.545a35.023,35.023,0,0,1-7.46-1.149,1.644,1.644,0,0,1-1.142-2.089l.01-.031a1.632,1.632,0,0,1,1.977-1.08,31.768,31.768,0,0,0,6.772,1.043,1.633,1.633,0,0,1,1.56,1.625V72.9a1.645,1.645,0,0,1-1.718,1.649Z" transform="translate(-75.899 -70.14)" fill="#dfdfe5"/>
            </g>
          </g>
          <g id="Grupo_1207281" data-name="Grupo 1207281" transform="translate(0.838 32.159)">
            <path id="Trazado_1076367" data-name="Trazado 1076367" d="M39.848,96.571l.519-1.986s-2.9-7.329-2.9-12.084H32.022c0,4.753-2.9,12.084-2.9,12.084l.519,1.986Z" transform="translate(-26.815 -72.292)" fill="#fd9600"/>
            <path id="Trazado_1076368" data-name="Trazado 1076368" d="M39.746,104.688H28.5a26.461,26.461,0,0,1-.446,4.856l-.321,1.112v1.655H40.511v-1.655l-.321-1.112a26.461,26.461,0,0,1-.444-4.856Z" transform="translate(-26.192 -82.237)" fill="#fbd62e"/>
            <circle id="Elipse_13538" data-name="Elipse 13538" cx="4.138" cy="4.138" r="4.138" transform="translate(3.794)" fill="#fd9600"/>
            <path id="Trazado_1076369" data-name="Trazado 1076369" d="M31.812,77.5h8.277v3.311H31.812Z" transform="translate(-28.018 -70.051)" fill="#fbd62e"/>
            <path id="Trazado_1076370" data-name="Trazado 1076370" d="M26.592,115.5H39.145a1.655,1.655,0,0,1,1.655,1.655v1.655H24.937v-1.655a1.655,1.655,0,0,1,1.655-1.655Z" transform="translate(-24.937 -87.083)" fill="#fd9600"/>
          </g>
          <g id="Grupo_1207285" data-name="Grupo 1207285" transform="translate(0 0)">
            <rect id="Rectngulo_417808" data-name="Rectngulo 417808" width="20.968" height="20.968" rx="3" transform="translate(19.94 0) rotate(72)" fill="#efeffb"/>
            <g id="Grupo_1207284" data-name="Grupo 1207284" transform="translate(6.607 6.663)">
              <g id="Grupo_1207282" data-name="Grupo 1207282" transform="translate(0 2.437)">
                <circle id="Elipse_13539" data-name="Elipse 13539" cx="1.655" cy="1.655" r="1.655" transform="translate(2.386 7.347)" fill="#537980"/>
                <circle id="Elipse_13540" data-name="Elipse 13540" cx="1.655" cy="1.655" r="1.655" fill="#537980"/>
              </g>
              <g id="Grupo_1207283" data-name="Grupo 1207283" transform="translate(7.504)">
                <circle id="Elipse_13541" data-name="Elipse 13541" cx="1.655" cy="1.655" r="1.655" transform="translate(2.387 7.347)" fill="#537980"/>
                <circle id="Elipse_13542" data-name="Elipse 13542" cx="1.655" cy="1.655" r="1.655" fill="#537980"/>
              </g>
            </g>
          </g>
        </g>
        <g id="Grupo_1207287" data-name="Grupo 1207287" transform="translate(22.443 4.749)">
          <path id="Trazado_1076371" data-name="Trazado 1076371" d="M111.544,85.551a.96.96,0,0,0-1.1.807l-.248,1.61a.966.966,0,0,0,.807,1.1,1.05,1.05,0,0,0,.148.011.966.966,0,0,0,.953-.818l.248-1.61a.964.964,0,0,0-.805-1.1Z" transform="translate(-61.769 -40.96)" fill="#051720"/>
          <path id="Trazado_1076372" data-name="Trazado 1076372" d="M77.88,17.068a.963.963,0,0,0-.631-.383l-31.169-4.8L44.35,6.56a2.622,2.622,0,0,0-3.3-1.682L24.255,10.334a2.619,2.619,0,0,0-1.683,3.3l2.564,7.891a.966.966,0,1,0,1.836-.6l-2.566-7.89a.691.691,0,0,1,.441-.87l16.8-5.455a.689.689,0,0,1,.869.441l5.454,16.8a.689.689,0,0,1-.441.869L43.3,26.193l-.023.008L30.733,30.276a.694.694,0,0,1-.87-.441L28.329,25.11a.966.966,0,1,0-1.836.6l1.534,4.723a2.62,2.62,0,0,0,3.3,1.682l11.013-3.578L38.1,56.078a.966.966,0,0,0,.807,1.1l31.358,4.833a.947.947,0,0,0,.147.012.966.966,0,0,0,.954-.819l.912-5.917A.966.966,0,1,0,70.37,55l-.764,4.963L40.157,55.419,44.4,27.866l1.475-.48L41.881,53.315a.966.966,0,0,0,.807,1.1L67.5,58.236a1.038,1.038,0,0,0,.148.011.966.966,0,0,0,.953-.818l5.678-36.876a.966.966,0,0,0-.807-1.1L48.661,15.632a.961.961,0,0,0-1.1.807l-.811-2.5L76,18.447l-4.4,28.6a.966.966,0,1,0,1.909.295l4.552-29.554a.964.964,0,0,0-.175-.717Zm-28.559.621,22.905,3.525L66.842,56.181l-22.9-3.527,4-25.934.19-.062a2.622,2.622,0,0,0,1.682-3.3l-.923-2.836Z" transform="translate(-22.443 -4.749)" fill="#051720"/>
          <path id="Trazado_1076373" data-name="Trazado 1076373" d="M103.36,58.665a.968.968,0,0,0,1.1-.807l.479-3.115a.966.966,0,1,0-1.909-.294l-.479,3.115a.965.965,0,0,0,.805,1.1Z" transform="translate(-58.345 -26.658)" fill="#051720"/>
          <path id="Trazado_1076374" data-name="Trazado 1076374" d="M76.086,60.114c.407.11.818.2,1.228.292l-.448,2.916a.963.963,0,0,0-.158,1.916l.809.124.012,0,3.108.477.979.151a1.037,1.037,0,0,0,.148.011.963.963,0,0,0,.282-1.885l.448-2.915c.419.034.838.072,1.258.09h.115a2.617,2.617,0,0,0,.259-5.22l1.959-12.752a.963.963,0,0,0-.094-.585l-1.931-3.785a.966.966,0,0,0-1.548-.239l-2.98,3.029a.974.974,0,0,0-.265.531l-1.96,12.754a2.617,2.617,0,0,0-1.219,5.087Zm4.055,3.7-1.363-.21.431-2.814q.68.118,1.364.21Zm.987-20.935,1.821-1.851,1.18,2.314L82.2,55.919q-1.512-.157-3-.462Zm-5,14.478a.669.669,0,0,1,.807-.441c.276.074.56.133.839.2a.955.955,0,0,0,.206.05,32.74,32.74,0,0,0,4.84.747c.017,0,.033.01.05.013a1.038,1.038,0,0,0,.148.011c.021,0,.041,0,.061-.006.279.02.556.047.835.06a.694.694,0,0,1,.429,1.189.649.649,0,0,1-.5.189,34.135,34.135,0,0,1-5.282-.658h-.007c-.659-.134-1.315-.284-1.964-.457a.672.672,0,0,1-.42-.331.694.694,0,0,1-.041-.564Z" transform="translate(-45.619 -19.843)" fill="#051720"/>
          <path id="Trazado_1076375" data-name="Trazado 1076375" d="M39.251,90.817l-.166-.584a25.707,25.707,0,0,1-.408-4.58.922.922,0,0,0-.012-.11.949.949,0,0,0-.055-.4,48.314,48.314,0,0,1-2.736-10.211h.355a.966.966,0,0,0,.966-.966V70.65a.963.963,0,0,0-.618-.9,5.1,5.1,0,1,0-8.974,0,.962.962,0,0,0-.618.9V73.96a.965.965,0,0,0,.966.966h5.982a45.012,45.012,0,0,0,2.447,9.761H27.8a56.916,56.916,0,0,0,1.8-6.044.966.966,0,0,0-1.881-.438,57.084,57.084,0,0,1-2.152,6.933.957.957,0,0,0-.055.4,1,1,0,0,0-.012.116c0,.49-.035,1.413-.11,2.377a13.948,13.948,0,0,1-.3,2.207l-.166.579A2.617,2.617,0,0,0,23.2,93.273v1.655a.965.965,0,0,0,.966.966H40.024a.966.966,0,0,0,.966-.966V93.273a2.617,2.617,0,0,0-1.739-2.456ZM32.087,64.166a3.165,3.165,0,0,1,2.124,5.518H29.962a3.165,3.165,0,0,1,2.124-5.518Zm-3.172,7.449h6.346v1.379H28.915Zm-1.6,16.565c.042-.515.076-1.065.1-1.562h9.356a24.026,24.026,0,0,0,.433,4.034H26.981a17.144,17.144,0,0,0,.335-2.471Zm11.739,5.783H25.122v-.69a.69.69,0,0,1,.69-.69H38.365a.691.691,0,0,1,.69.69Z" transform="translate(-22.78 -30.507)" fill="#051720"/>
          <path id="Trazado_1076376" data-name="Trazado 1076376" d="M41.778,34.068a2.621,2.621,0,1,0,1.373,2.88A2.622,2.622,0,0,0,41.778,34.068ZM41.2,36.717a.692.692,0,1,1-.3-.926.688.688,0,0,1,.3.926Z" transform="translate(-29.401 -17.763)" fill="#051720"/>
          <path id="Trazado_1076377" data-name="Trazado 1076377" d="M35.453,20.6a2.621,2.621,0,1,0,3.3,1.683A2.621,2.621,0,0,0,35.453,20.6ZM36.877,23.4a.69.69,0,1,1,.04-.526.686.686,0,0,1-.04.526Z" transform="translate(-27.462 -11.795)" fill="#051720"/>
          <path id="Trazado_1076378" data-name="Trazado 1076378" d="M55.378,29.646a2.622,2.622,0,1,0,1.3,1.526,2.621,2.621,0,0,0-1.3-1.526ZM54.8,32.294a.69.69,0,1,1,.041-.527A.69.69,0,0,1,54.8,32.294Z" transform="translate(-35.496 -15.78)" fill="#051720"/>
          <path id="Trazado_1076379" data-name="Trazado 1076379" d="M49.052,16.169a2.6,2.6,0,1,0,2,.151A2.621,2.621,0,0,0,49.052,16.169Zm1.424,2.806a.689.689,0,1,1,.042-.526A.689.689,0,0,1,50.476,18.975Z" transform="translate(-33.557 -9.808)" fill="#051720"/>
        </g>
      </g>
      <g id="aventurera" transform="translate(1046.554 4116.853)">
        <path id="Trazado_1076409" data-name="Trazado 1076409" d="M57.186,209.01H7.673a4.006,4.006,0,0,0,1.03,4.042,5.833,5.833,0,0,0,4.046,1.625H52.109a5.833,5.833,0,0,0,4.047-1.626A4.007,4.007,0,0,0,57.186,209.01Z" transform="translate(-6.577 -183.275)" fill="#d6948c"/>
        <g id="Grupo_1207318" data-name="Grupo 1207318" transform="translate(3.484 34.152)">
          <path id="Trazado_1076410" data-name="Trazado 1076410" d="M28.3,277.376c0,14.718,10.016,27.965,22.372,27.965V277.376Z" transform="translate(-28.3 -277.376)" fill="#ffb357"/>
          <path id="Trazado_1076411" data-name="Trazado 1076411" d="M210,277.376v27.965c12.356,0,22.372-13.247,22.372-27.965Z" transform="translate(-187.627 -277.376)" fill="#ffce71"/>
        </g>
        <g id="Grupo_1207321" data-name="Grupo 1207321" transform="translate(14.118 47.986)">
          <path id="Trazado_1076412" data-name="Trazado 1076412" d="M142.8,394.6a3.227,3.227,0,0,0-3.685-1.686,10.952,10.952,0,0,0-16.318.991,11.138,11.138,0,0,0-2.43,6.96v3h22.07v-3a11.213,11.213,0,0,0-.281-2.5A3.23,3.23,0,0,0,142.8,394.6Z" transform="translate(-119.669 -389.731)" fill="#e8b5b1"/>
          <path id="Trazado_1076413" data-name="Trazado 1076413" d="M126.4,389.732a10.956,10.956,0,0,0-7.715,3.18,3.229,3.229,0,0,0-3.04,5.45,11.212,11.212,0,0,0-.281,2.5v3h4.385v-3a11.783,11.783,0,0,1,.066-1.2,11.2,11.2,0,0,1,1.271-4.1h0a11.086,11.086,0,0,1,7.5-5.614A10.954,10.954,0,0,0,126.4,389.732Z" transform="translate(-114.664 -389.732)" fill="#d6948c"/>
          <g id="Grupo_1207320" data-name="Grupo 1207320" transform="translate(0.743 8.631)">
            <path id="Trazado_1076414" data-name="Trazado 1076414" d="M267.938,462.329v3h-4.385v-3a11.288,11.288,0,0,0-.064-1.2,28.936,28.936,0,0,0,4.168-1.3A11.215,11.215,0,0,1,267.938,462.329Z" transform="translate(-245.908 -459.828)" fill="#ffddcf"/>
            <g id="Grupo_1207319" data-name="Grupo 1207319" transform="translate(0 0.303)">
              <path id="Trazado_1076415" data-name="Trazado 1076415" d="M120.7,463.532a11.173,11.173,0,0,1,.176-1.241A11.165,11.165,0,0,0,120.7,463.532Z" transform="translate(-120.7 -462.291)" fill="#ffcbbe"/>
            </g>
          </g>
        </g>
        <path id="Trazado_1076416" data-name="Trazado 1076416" d="M120.374,462.33v3h4.385v-3a11.786,11.786,0,0,1,.066-1.2,29,29,0,0,1-4.17-1.3,11.209,11.209,0,0,0-.281,2.5Z" transform="translate(-105.553 -403.212)" fill="#ffcbbe"/>
        <g id="Grupo_1207325" data-name="Grupo 1207325" transform="translate(20.5 47.196)">
          <path id="Trazado_1076417" data-name="Trazado 1076417" d="M171.852,383.312l-5.357,2.881a11.1,11.1,0,0,0,5.357,5.776,11.1,11.1,0,0,0,5.355-5.776Z" transform="translate(-166.495 -383.312)" fill="#ea5b70"/>
          <g id="Grupo_1207324" data-name="Grupo 1207324" transform="translate(0.677 6.191)">
            <g id="Grupo_1207322" data-name="Grupo 1207322" transform="translate(0 1.551)">
              <path id="Trazado_1076418" data-name="Trazado 1076418" d="M175.526,446.19A3.529,3.529,0,0,0,172,449.72a1.26,1.26,0,0,0,1.26,1.26,3.531,3.531,0,0,0,3.419-2.65v-2.14h-1.149Z" transform="translate(-171.996 -446.19)" fill="#ea5b70"/>
            </g>
            <g id="Grupo_1207323" data-name="Grupo 1207323" transform="translate(4.679 1.551)">
              <path id="Trazado_1076419" data-name="Trazado 1076419" d="M211.146,446.191H210v2.14a3.531,3.531,0,0,0,3.419,2.65,1.26,1.26,0,0,0,1.26-1.26A3.53,3.53,0,0,0,211.146,446.191Z" transform="translate(-209.997 -446.191)" fill="#ff8e9e"/>
            </g>
            <circle id="Elipse_13545" data-name="Elipse 13545" cx="1.847" cy="1.847" r="1.847" transform="translate(2.721)" fill="#ff8e9e"/>
          </g>
        </g>
        <g id="Grupo_1207331" data-name="Grupo 1207331" transform="translate(2.168 12.768)">
          <path id="Trazado_1076420" data-name="Trazado 1076420" d="M60.381,221.264H22.217a4.606,4.606,0,0,0,0,9.212H60.381a4.606,4.606,0,1,0,0-9.212Z" transform="translate(-17.611 -206.788)" fill="#ffcbbe"/>
          <g id="Grupo_1207326" data-name="Grupo 1207326" transform="translate(4.606)">
            <path id="Trazado_1076421" data-name="Trazado 1076421" d="M77.28,103.959a19.084,19.084,0,1,0,15.9,18.817,19.2,19.2,0,0,0-15.9-18.817Z" transform="translate(-55.02 -103.694)" fill="#ffddcf"/>
            <path id="Trazado_1076422" data-name="Trazado 1076422" d="M61.35,122.8a19.108,19.108,0,0,1,15.93-18.844,19.082,19.082,0,1,0,0,37.634A19.052,19.052,0,0,1,61.35,122.8Z" transform="translate(-55.02 -103.694)" fill="#ffcbbe"/>
          </g>
          <g id="Grupo_1207330" data-name="Grupo 1207330" transform="translate(9.475 22.323)">
            <g id="Grupo_1207329" data-name="Grupo 1207329">
              <g id="Grupo_1207327" data-name="Grupo 1207327">
                <ellipse id="Elipse_13546" data-name="Elipse 13546" cx="3.816" cy="3.027" rx="3.816" ry="3.027" fill="#ff8e9e"/>
              </g>
              <g id="Grupo_1207328" data-name="Grupo 1207328" transform="translate(20.793)">
                <ellipse id="Elipse_13547" data-name="Elipse 13547" cx="3.816" cy="3.027" rx="3.816" ry="3.027" fill="#ff8e9e"/>
              </g>
            </g>
          </g>
        </g>
        <g id="Grupo_1207332" data-name="Grupo 1207332" transform="translate(6.774 12.768)">
          <path id="Trazado_1076423" data-name="Trazado 1076423" d="M77.28,103.959a19.082,19.082,0,0,0-22.26,18.817A26.224,26.224,0,0,0,74.1,114.5a26.224,26.224,0,0,0,19.082,8.28A19.086,19.086,0,0,0,77.28,103.959Z" transform="translate(-55.02 -103.694)" fill="#ffce71"/>
          <path id="Trazado_1076424" data-name="Trazado 1076424" d="M77.28,103.959a19.082,19.082,0,0,0-22.26,18.817,26.143,26.143,0,0,0,6.347-.784A19.109,19.109,0,0,1,77.28,103.959Z" transform="translate(-55.02 -103.694)" fill="#ffb357"/>
        </g>
        <path id="Trazado_1076425" data-name="Trazado 1076425" d="M74.1,7.5A19.085,19.085,0,0,0,55.02,26.582H93.184A19.084,19.084,0,0,0,74.1,7.5Z" transform="translate(-48.246 -6.577)" fill="#e8b5b1"/>
        <path id="Trazado_1076426" data-name="Trazado 1076426" d="M79.366,8.237A19.093,19.093,0,0,0,55.02,26.582H65.548A19.09,19.09,0,0,1,79.366,8.237Z" transform="translate(-48.246 -6.577)" fill="#d6948c"/>
        <path id="Trazado_1076427" data-name="Trazado 1076427" d="M57.163,115.01l-4.413-3.793a28.894,28.894,0,0,0-38.164,0h0l-4.418,3.792a4.1,4.1,0,0,0-1.259,1.938l6.238,1.509q.989-.906,2.042-1.7a27.436,27.436,0,0,1,32.959,0q1.051.792,2.042,1.7l6.232-1.509A4.1,4.1,0,0,0,57.163,115.01Z" transform="translate(-7.811 -91.212)" fill="#d6948c"/>
        <g id="Grupo_1207333" data-name="Grupo 1207333" transform="translate(36.285 50.427)">
          <path id="Trazado_1076428" data-name="Trazado 1076428" d="M307.977,409.552l-12.36,7.136a1.847,1.847,0,0,0,.934,3.447,1.824,1.824,0,0,0,.913-.248l12.36-7.136-.021-2.067Z" transform="translate(-294.693 -409.552)" fill="#ce857a"/>
          <circle id="Elipse_13548" data-name="Elipse 13548" cx="2.463" cy="2.463" r="2.463" transform="translate(2.291 1.974)" fill="#ffbf9d"/>
          <circle id="Elipse_13549" data-name="Elipse 13549" cx="3.078" cy="3.078" r="3.078" transform="translate(4.23 3.811)" fill="#ffd4bd"/>
        </g>
        <g id="Grupo_1207334" data-name="Grupo 1207334" transform="translate(47.342 39.647)">
          <path id="Trazado_1076429" data-name="Trazado 1076429" d="M388.294,326.955a4.151,4.151,0,0,0,2.487-3.8,1.14,1.14,0,0,1,1.3-1.142,8.689,8.689,0,0,1-.589,17.2,6.425,6.425,0,0,1-3.2-12.26Z" transform="translate(-384.501 -322.001)" fill="#ffb357"/>
          <path id="Trazado_1076430" data-name="Trazado 1076430" d="M417.246,372.241c.079,0,.16,0,.24-.01a4.929,4.929,0,0,0,4.4-4.955,5.076,5.076,0,0,0-1.052-3.093.862.862,0,0,0-1.4.052,7.861,7.861,0,0,1-3.35,2.8,2.73,2.73,0,0,0,1.16,5.209Z" transform="translate(-410.805 -358.697)" fill="#fce3a0"/>
        </g>
        <g id="Grupo_1207335" data-name="Grupo 1207335" transform="translate(0)">
          <path id="Trazado_1076431" data-name="Trazado 1076431" d="M60.753,41.96a9.377,9.377,0,0,0-5.686-3.212A2.063,2.063,0,0,0,52.7,40.8a3.233,3.233,0,0,1-1.936,2.953,7.329,7.329,0,0,0-4.344,6.724c0,.229.011.456.032.681l-2.762,1.594c-.037-.047-.075-.093-.114-.138a33.01,33.01,0,0,0,5.549-17.16,5.507,5.507,0,0,0,1.147-5.07,4.923,4.923,0,0,0,1.224-4.918A5.02,5.02,0,0,0,49.954,23.1l-4.1-3.521A20,20,0,0,0,14.2,3.75a.923.923,0,1,0,1.078,1.5A18.158,18.158,0,0,1,43.9,17.952a29.854,29.854,0,0,0-36.084,0,18.069,18.069,0,0,1,4.818-10.39A.923.923,0,1,0,11.288,6.3a19.917,19.917,0,0,0-5.431,13.28l-4.1,3.52A5.017,5.017,0,0,0,.213,25.47a4.924,4.924,0,0,0,1.229,4.924,5.506,5.506,0,0,0,1.15,5.065c.367,9.385,4.669,18.248,11.314,23.331,0,.11-.008.22-.008.328v3a.923.923,0,0,0,.923.923h22.07a.923.923,0,0,0,.923-.923v-.2c1.068.12,1.456-.2,3.438-1.352a4,4,0,0,0,6.341-3.245c0-.136-.007-.271-.02-.405l1.454-.839a7.93,7.93,0,0,0,9.076.591.923.923,0,0,0-.892-1.617,6.04,6.04,0,0,1-7.4-.759,5.414,5.414,0,0,1-1.549-3.806,5.482,5.482,0,0,1,3.241-5.034A5.08,5.08,0,0,0,54.546,40.8a.219.219,0,0,1,.236-.23,7.8,7.8,0,0,1,4.887,12.313.923.923,0,0,0,1.486,1.1,9.727,9.727,0,0,0-.4-12.024ZM39.863,55.853a1.538,1.538,0,0,1,2.13-2.2A3.943,3.943,0,0,0,39.863,55.853Zm-8.279,3.265v2.076H20.13V59.1a2.459,2.459,0,0,0-1.8-2.374,28.09,28.09,0,0,1-2.7-.9,2.307,2.307,0,0,1,2.289-3.766.923.923,0,0,0,.876-.238,10.2,10.2,0,0,1,1.04-.9l.028.009A11.153,11.153,0,0,0,22.5,54.6a4.429,4.429,0,0,0-2.243,3.869,2.186,2.186,0,0,0,2.183,2.183,4.451,4.451,0,0,0,3.419-1.6,4.451,4.451,0,0,0,3.419,1.6,2.186,2.186,0,0,0,2.183-2.183,4.434,4.434,0,0,0-2.242-3.87,11.148,11.148,0,0,0,2.637-3.661l.024-.008a10.109,10.109,0,0,1,1.042.9.922.922,0,0,0,.876.238,2.306,2.306,0,0,1,2.292,3.766,28.138,28.138,0,0,1-2.706.9,2.47,2.47,0,0,0-1.8,2.393ZM3.365,30.46a3.668,3.668,0,0,1,2.817-2.244,20.109,20.109,0,0,0,0,7.268A3.686,3.686,0,0,1,3.365,30.46ZM38.276,52.9a4.124,4.124,0,0,0-4.392-2.733,20.1,20.1,0,0,0,11.2-12.8,5.492,5.492,0,0,0,2.1-.474,31,31,0,0,1-5.168,14.726A3.353,3.353,0,0,0,38.276,52.9Zm-12.53,3.252a.923.923,0,1,1,.923-.923A.924.924,0,0,1,25.746,56.157Zm-2.54.18a2.787,2.787,0,0,0,1.34,1.393A2.6,2.6,0,0,1,22.438,58.8a.337.337,0,0,1-.336-.336,2.592,2.592,0,0,1,1.1-2.131Zm5.127-.114a2.594,2.594,0,0,1,1.279,2.245.337.337,0,0,1-.337.336,2.606,2.606,0,0,1-2.169-1.159,2.786,2.786,0,0,0,1.226-1.422Zm-.526-2.838a2.766,2.766,0,0,0-4.02-.109,9.731,9.731,0,0,1-1.5-1.74,20.112,20.112,0,0,0,7.132,0A9.767,9.767,0,0,1,27.807,53.385Zm17.723-17.9a20.109,20.109,0,0,0,0-7.268,3.682,3.682,0,0,1,0,7.268ZM25.857,24.895a27.092,27.092,0,0,0,18.135,7.861,18.158,18.158,0,0,1-36.271,0A27.1,27.1,0,0,0,25.857,24.895ZM7.724,30.907a18.213,18.213,0,0,1,.443-3.171,26.562,26.562,0,0,1,35.379,0,18.2,18.2,0,0,1,.443,3.171,25.258,25.258,0,0,1-17.458-7.969.924.924,0,0,0-1.349,0A25.256,25.256,0,0,1,7.724,30.907ZM2.958,24.5l4.43-3.8c9.679-8.6,25.031-10.1,36.948.01L48.75,24.5a3.156,3.156,0,0,1,.632,4.065A5.541,5.541,0,0,0,44.73,26.32a28.325,28.325,0,0,0-37.747,0,5.525,5.525,0,0,0-4.658,2.245A3.155,3.155,0,0,1,2.958,24.5ZM4.531,36.9a5.5,5.5,0,0,0,2.1.474,20.1,20.1,0,0,0,11.2,12.794,4.161,4.161,0,0,0-4.184,6.006C8.551,51.6,5.192,44.507,4.531,36.9ZM15.745,59.117a10.576,10.576,0,0,1,.078-1.247c.666.235,1.34.449,2.017.636a.609.609,0,0,1,.443.591v2.1H15.745V59.117ZM33.43,61.194V59.105a.608.608,0,0,1,.442-.6c.59-.162,1.179-.346,1.761-.546a2.769,2.769,0,0,0,.335,2.932v.3Zm4.713-1.108a.924.924,0,0,1-.666-1.572,9.4,9.4,0,0,1,1.547-.934,3.363,3.363,0,0,0,.616.364,3.935,3.935,0,0,0,.382,1.2c-1.607.938-1.622.946-1.88.946Zm4.616-.79a2.155,2.155,0,0,1,.865-4.14,2.093,2.093,0,0,1,1.492.636A2.152,2.152,0,0,1,42.759,59.3Zm3.663-4.81a4.093,4.093,0,0,0-.879-.669l1.34-.774a7.225,7.225,0,0,0,.864,1.634l-.8.46a4.035,4.035,0,0,0-.528-.651Z" transform="translate(0)"/>
          <path id="Trazado_1076432" data-name="Trazado 1076432" d="M412.1,357.141a6.934,6.934,0,0,1-2.956,2.469A3.639,3.639,0,0,0,407,362.96v.035a3.663,3.663,0,0,0,3.988,3.58c2.269,0,5.246-2.375,5.246-5.876a6.029,6.029,0,0,0-1.243-3.655A1.786,1.786,0,0,0,412.1,357.141Zm-1.263,7.593a1.808,1.808,0,0,1-.95-3.434,8.782,8.782,0,0,0,3.7-3.06A4.079,4.079,0,0,1,410.835,364.734Z" transform="translate(-356.889 -312.473)"/>
          <path id="Trazado_1076433" data-name="Trazado 1076433" d="M136.681,269.028a.923.923,0,0,0,.923-.923v-1.579a.923.923,0,1,0-1.847,0V268.1A.923.923,0,0,0,136.681,269.028Z" transform="translate(-119.043 -232.899)"/>
          <path id="Trazado_1076434" data-name="Trazado 1076434" d="M270.172,269.028a.923.923,0,0,0,.923-.923v-1.579a.923.923,0,1,0-1.847,0V268.1A.923.923,0,0,0,270.172,269.028Z" transform="translate(-236.097 -232.899)"/>
          <path id="Trazado_1076435" data-name="Trazado 1076435" d="M190.86,279.575a.923.923,0,0,0-1.392-1.213,1.949,1.949,0,0,1-2.941,0,.923.923,0,0,0-1.392,1.213A3.8,3.8,0,0,0,190.86,279.575Z" transform="translate(-162.14 -243.81)"/>
        </g>
      </g>
    </g>
    <g id="Elipse_13528" data-name="Elipse 13528" transform="translate(594.588 4164.571)" fill="#fff" stroke="#453179" stroke-width="1">
      <ellipse cx="26" cy="26.5" rx="26" ry="26.5" stroke="none"/>
      <ellipse cx="26" cy="26.5" rx="25.5" ry="26" fill="none"/>
    </g>
    <g id="Elipse_13550" data-name="Elipse 13550" transform="translate(594.588 3777.98)" fill="#fff" stroke="#453179" stroke-width="1">
      <ellipse cx="26" cy="26.5" rx="26" ry="26.5" stroke="none"/>
      <ellipse cx="26" cy="26.5" rx="25.5" ry="26" fill="none"/>
    </g>
    <g id="Elipse_13551" data-name="Elipse 13551" transform="translate(944.588 4164.571)" fill="#fff" stroke="#453179" stroke-width="1">
      <ellipse cx="26" cy="26.5" rx="26" ry="26.5" stroke="none"/>
      <ellipse cx="26" cy="26.5" rx="25.5" ry="26" fill="none"/>
    </g>
    <g id="Elipse_13552" data-name="Elipse 13552" transform="translate(944.588 3777.98)" fill="#fff" stroke="#453179" stroke-width="1">
      <ellipse cx="26" cy="26.5" rx="26" ry="26.5" stroke="none"/>
      <ellipse cx="26" cy="26.5" rx="25.5" ry="26" fill="none"/>
    </g>
  </g>
</svg>
