<svg xmlns="http://www.w3.org/2000/svg" xmlns:xlink="http://www.w3.org/1999/xlink" width="190" height="204" viewBox="0 0 190 204">
  <defs>
    <clipPath id="clip-path">
      <rect id="Rectángulo_416215" data-name="Rectángulo 416215" width="190" height="204" transform="translate(180 483)" fill="#fff" stroke="#707070" stroke-width="1"/>
    </clipPath>
    <clipPath id="clip-path-2">
      <rect id="Rectángulo_416211" data-name="Rectángulo 416211" width="25.479" height="6.36" fill="none"/>
    </clipPath>
    <clipPath id="clip-path-3">
      <rect id="Rectángulo_416212" data-name="Rectángulo 416212" width="7.269" height="5.531" fill="none"/>
    </clipPath>
    <clipPath id="clip-path-4">
      <rect id="Rectángulo_416213" data-name="Rectángulo 416213" width="16.816" height="16.816" fill="none"/>
    </clipPath>
    <clipPath id="clip-path-5">
      <rect id="Rectángulo_416214" data-name="Rectángulo 416214" width="16.817" height="16.817" fill="none"/>
    </clipPath>
  </defs>
  <g id="Enmascarar_grupo_1098863" data-name="Enmascarar grupo 1098863" transform="translate(-180 -483)" clip-path="url(#clip-path)">
    <g id="Grupo_1201513" data-name="Grupo 1201513" transform="translate(-769.672 -1114.187)">
      <path id="Trazado_1075689" data-name="Trazado 1075689" d="M663.053,173.284a37.77,37.77,0,0,0,12.382-11.1,22.479,22.479,0,0,0,3.892-15.9c-.828-5.028-3.679-9.467-6.618-13.631a13.513,13.513,0,0,0-2.238-2.641c-2.423-2.039-6.174-2.414-7.921-5.056a1.782,1.782,0,0,1-.354-.96c0-.889,1.02-1.394,1.894-1.557a9.357,9.357,0,0,1,4.944.416c-2.056-3.5-6.164-9.931-5.6-12.43a1.729,1.729,0,0,1,2.483-1.271c2.946,1.507,5.9,5.124,7.684,7.913a34.609,34.609,0,0,1-4.408-9.892,5.478,5.478,0,0,1-.169-2.764,2.2,2.2,0,0,1,1.971-1.693c2.134,0,3.586,4.472,8.78,10.434a21.916,21.916,0,0,1-1.63-10.134c.254-1.844,2.668-2.819,4.083-.3,1.872,3.336,3.959,9.85,5.02,10.258a9.3,9.3,0,0,1,5.31,8.148c4.247,6.694,8.332,13,11.332,20.343s4.69,16.489,3.553,24.336c-1.267,8.743-8.99,17.136-15.279,23.341s-11.825,9.4-19.91,12.962c-3.7-8.785-5.873-18.061-9.2-28.822" transform="translate(425.125 1528.616)" fill="#bf7e67"/>
      <path id="Trazado_1075690" data-name="Trazado 1075690" d="M475.357,327.524c-.457,1.84-.629,4.07.743,5.378a5.552,5.552,0,0,0,2.645,1.162,67.791,67.791,0,0,0,15.9,1.778,3.128,3.128,0,0,0,1.4-.232,3.229,3.229,0,0,0,1.309-1.8c7.059-17.072,13.631-34.706,25.077-49.206a9.046,9.046,0,0,0,2.233-4.056,7.981,7.981,0,0,0-1.265-4.745c-2.042-3.864-8.262-11.806-7.892-12.243s-29.226,20.033-40.155,63.96" transform="translate(486.594 1475.295)" fill="#bf7e67"/>
      <path id="Trazado_1075691" data-name="Trazado 1075691" d="M594.691,139.812c-.39-1.451-1.095-15.413-1.531-23.949a9.973,9.973,0,0,1-3.888-1.289,7.324,7.324,0,0,1-4.077,2.5,6.486,6.486,0,0,1-7.206-3.929,6.151,6.151,0,0,1-5.816.524,6.247,6.247,0,0,1-3.56-5.279,7.027,7.027,0,0,1-6.192,5.682,5.827,5.827,0,0,1-5.843-5.614c-.719,3.19-1.975,6.42-4.439,8.449s-6.4,2.4-8.623.094c-.981,1.565-1.954,3.365-3.553,4.218a2.478,2.478,0,0,1-1.706.316c-1.222-.289-1.773-1.739-2.122-2.989a16.273,16.273,0,0,1-6.635,6.252c.094,7.77,1.316,14.244,2.156,22.062-1.383-1.578-4.52-2.384-7.307-1.437a6.842,6.842,0,0,0-1.921,1.007c-4.231,3.13-4.842,10.564-2.062,15.03s9.026,6.205,14.681,4.3c3.217,6.555,9.9,10.96,16.991,12.713.074.02.148.034.222.054q-.5,3.8-.651,7.643c-.02.41-.034.813-.04,1.216a4.838,4.838,0,0,0,.141,1.585,4.417,4.417,0,0,0,2.035,2.21,20.273,20.273,0,0,0,22.733-1.021,3.419,3.419,0,0,0,1.155-1.3,3.75,3.75,0,0,0,.188-1.424c-.007-1.276-.054-2.552-.134-3.828q-.191-3.143-.678-6.259a46.9,46.9,0,0,0,12.324-6.414c4.379-3.15,9.752-11.78,10-19.127a16.644,16.644,0,0,0-4.641-11.995" transform="translate(472.26 1526.255)" fill="#bf7e67"/>
      <path id="Trazado_1075692" data-name="Trazado 1075692" d="M623.013,284.669c.383,2.525.732,5.077,1.028,7.6a182.863,182.863,0,0,1-18.059-11.2,4.579,4.579,0,0,0-1.867-.934,4.259,4.259,0,0,0-2.089.349c-6.353,2.324-11.76,7.119-18.408,8.328a4.751,4.751,0,0,1-2.129.02c-1.491-.416-2.33-1.954-2.908-3.385-2.921-7.287-3.123-15.44-6.078-22.706a90.586,90.586,0,0,1-18.959,1.3c-1.263-.047-2.68-.195-3.486-1.162a4.546,4.546,0,0,1-.745-2.854c-.3-10.987-.188-21.135,1.78-31.773.947-.4,1.894-.786,2.827-1.128a104.879,104.879,0,0,0,3.862,27.663,1.311,1.311,0,0,0,1.209.067c6.206-1.807,12.055-4.909,18.448-5.85a4.255,4.255,0,0,1,3.472.584,4.169,4.169,0,0,1,.994,1.679c2.848,7.448,4.95,26.319,5.191,26.407.275,0,8.818-6.951,15.366-11.759a2.873,2.873,0,0,1,2.612-.477,3.561,3.561,0,0,1,1.283,1.021q8.331,9.107,16.655,18.207" transform="translate(462.238 1487.259)" fill="#f7c147"/>
      <path id="Trazado_1075693" data-name="Trazado 1075693" d="M533.067,273.756c-2.794,4.05-5.686,8.179-9.487,11.1-.309.437-22.606-9.993-25.171-25.111-.107-.651-.544-1.242-.45-1.9a3.387,3.387,0,0,1,.645-1.4c4.909-7.408,12.075-12.975,19.194-18.287a86.616,86.616,0,0,1,16.467-9.348c-1.968,10.638-2.082,20.786-1.78,31.773a4.548,4.548,0,0,0,.746,2.854c.806.967,2.223,1.115,3.485,1.162a90.584,90.584,0,0,0,18.959-1.3c2.955,7.267,3.156,15.42,6.078,22.706.578,1.431,1.417,2.968,2.908,3.385a4.749,4.749,0,0,0,2.129-.02c6.649-1.209,12.055-6,18.408-8.328a4.258,4.258,0,0,1,2.089-.349,4.579,4.579,0,0,1,1.867.934,182.884,182.884,0,0,0,18.059,11.2c.96,8.046,1.417,15.8.732,21.511-.148,1.256-51.061,3.915-75.856,4.983-2.384-16.642-1-28.859.978-45.555" transform="translate(479.066 1486.707)" fill="#00bbb4"/>
      <path id="Trazado_1075694" data-name="Trazado 1075694" d="M563.9,216.618a4.819,4.819,0,0,0,.14,1.585,4.416,4.416,0,0,0,2.036,2.21,20.272,20.272,0,0,0,22.732-1.021,3.425,3.425,0,0,0,1.156-1.3,3.763,3.763,0,0,0,.187-1.424c-.007-1.276-.054-2.552-.134-3.828a103.265,103.265,0,0,0,35.709-15.017,1.686,1.686,0,0,1,1.169-.41c.463.087.785.557,1.054.994a103.738,103.738,0,0,1,13.612,34.728,5.115,5.115,0,0,1,.068,2.485,4.269,4.269,0,0,1-1.518,1.927c-5.346,4.526-13.6,9.107-19.724,12.055.88,3.392,1.639,6.649,2.142,9.241.934,4.815,1.941,10.376,2.793,16.064Q617,265.8,608.67,256.7a3.559,3.559,0,0,0-1.282-1.021,2.872,2.872,0,0,0-2.612.477c-6.548,4.809-15.091,11.759-15.367,11.759-.241-.087-2.343-18.959-5.191-26.407a4.172,4.172,0,0,0-.995-1.679,4.255,4.255,0,0,0-3.472-.584c-6.394.94-12.242,4.043-18.448,5.85a1.312,1.312,0,0,1-1.209-.067,104.908,104.908,0,0,1-3.862-27.663A32.764,32.764,0,0,1,563.9,215.4h.047c-.021.41-.034.813-.04,1.216" transform="translate(459.926 1497.023)" fill="#00bbb4"/>
      <path id="Trazado_1075695" data-name="Trazado 1075695" d="M602.384,82.791A9.329,9.329,0,0,0,594.8,81.28a7.49,7.49,0,0,0,1.813-6.689,8.145,8.145,0,0,0-4.244-5.453c-3.23-1.632-7.052-.954-10.557-.134a1.406,1.406,0,0,1-1.021-.02c-.463-.262-.51-.913-.557-1.457a7.794,7.794,0,0,0-7.314-7c-3.13-.02-5.943,2-8.16,4.3-.981,1.014-2.458,2.169-3.56,1.31-.638-.49-.745-1.41-1.088-2.156a4.73,4.73,0,0,0-3.036-2.371,8.463,8.463,0,0,0-8.167,1.948c-2.156,2.042-3.19,5.292-3.022,9.288a9.308,9.308,0,0,0-15.305-.121,6.59,6.59,0,0,0-1.383,3.862,3.856,3.856,0,0,0,1.927,3.432,8.851,8.851,0,0,0-7.763,3.23c-1.867,2.31-2.539,5.608-1.733,7.562a5.925,5.925,0,0,0-6.776,3.747c-.9,2.754.873,6.205,3.633,6.682a5.435,5.435,0,0,0,.463,7.918,2.257,2.257,0,0,0,1.431.5.835.835,0,0,0,.222-.027,1.666,1.666,0,0,0,.611-.3,2.353,2.353,0,0,0,1.182.994,3.773,3.773,0,0,0,1.934.04,14.171,14.171,0,0,0,3.841-1.3,16.273,16.273,0,0,0,6.635-6.252c.349,1.249.9,2.7,2.122,2.989a2.478,2.478,0,0,0,1.706-.316c1.6-.853,2.572-2.653,3.553-4.218,2.223,2.31,6.152,1.941,8.623-.094s3.721-5.259,4.439-8.449a5.827,5.827,0,0,0,5.843,5.614,7.027,7.027,0,0,0,6.192-5.682,6.247,6.247,0,0,0,3.559,5.279,6.151,6.151,0,0,0,5.816-.524,6.485,6.485,0,0,0,7.206,3.929,7.324,7.324,0,0,0,4.077-2.5,9.972,9.972,0,0,0,3.888,1.289c.188.027.383.047.571.067a9.1,9.1,0,0,0,5.561-.92,4.982,4.982,0,0,0,2.505-4.923c2.5.04,4.694-2.283,5-4.862a7.614,7.614,0,0,0-3.076-6.716" transform="translate(473.593 1541.973)" fill="#1d2c4d"/>
      <path id="Trazado_1075696" data-name="Trazado 1075696" d="M525.21,134.074a3.773,3.773,0,0,0,1.934.04,14.171,14.171,0,0,0,3.841-1.3c.094,7.77,1.316,14.244,2.156,22.062-1.383-1.578-4.52-2.384-7.307-1.437A201.491,201.491,0,0,1,523.2,133.4a.833.833,0,0,0,.222-.027,1.664,1.664,0,0,0,.611-.3,2.354,2.354,0,0,0,1.182.994" transform="translate(470.774 1518.232)" fill="#1d2c4d"/>
      <g id="Grupo_1201503" data-name="Grupo 1201503" transform="translate(1024.285 1703.601)" opacity="0.21" style="mix-blend-mode: multiply;isolation: isolate">
        <g id="Grupo_1201502" data-name="Grupo 1201502" transform="translate(0 0)">
          <g id="Grupo_1201501" data-name="Grupo 1201501" clip-path="url(#clip-path-2)">
            <path id="Trazado_1075697" data-name="Trazado 1075697" d="M593.814,215.178c-.129-1.374-.284-2.746-.5-4.11a44.8,44.8,0,0,1-24.748,1.182q-.13.982-.236,1.968c7.839,4.173,17.292,4.042,25.48.96" transform="translate(-568.335 -211.068)" fill="#8a4a85"/>
          </g>
        </g>
      </g>
      <path id="Trazado_1075698" data-name="Trazado 1075698" d="M642.612,246.033c2.858,5.665,4.35,11.843,6.146,17.893.739,2.615,1.567,6.507,2.224,9.189.655,2.658,1.211,6.553,1.731,9.277,2.068,12.386,4.274,24.982,2.864,37.578a.32.32,0,0,1-.636-.077c.748-9.362-.664-18.748-1.943-28.009-.708-4.464-1.663-9.409-2.4-13.9-.747-4.64-1.932-9.177-2.987-13.757-1.649-5.993-3.024-12.175-5.549-17.866a.32.32,0,1,1,.547-.332" transform="translate(431.752 1481.102)" fill="#218b8a"/>
      <path id="Trazado_1075699" data-name="Trazado 1075699" d="M517.056,101.72a2.089,2.089,0,0,0-3.011-.435,1.006,1.006,0,0,0-.332.414.5.5,0,0,0,.075.5.679.679,0,0,0,.26.156,2.932,2.932,0,0,0,3.009-.64" transform="translate(473.9 1528.737)" fill="#1d2c4d"/>
      <path id="Trazado_1075700" data-name="Trazado 1075700" d="M519.4,98.338a2.762,2.762,0,0,1-.812-4.369,1.276,1.276,0,0,1,1.417-.435,1.368,1.368,0,0,1,.607,1.071,4.254,4.254,0,0,1-.451,2.614,8.254,8.254,0,0,1-.761,1.118" transform="translate(472.53 1531.161)" fill="#1d2c4d"/>
      <g id="Grupo_1201506" data-name="Grupo 1201506" transform="translate(1033.922 1665.612)" opacity="0.4" style="mix-blend-mode: multiply;isolation: isolate">
        <g id="Grupo_1201505" data-name="Grupo 1201505" transform="translate(0 0)">
          <g id="Grupo_1201504" data-name="Grupo 1201504" clip-path="url(#clip-path-3)">
            <path id="Trazado_1075701" data-name="Trazado 1075701" d="M589.844,156.329a2.754,2.754,0,0,0-2.2-1.723,4.467,4.467,0,0,0-2.821.318,3.853,3.853,0,0,0-1.737,1.416,2.424,2.424,0,0,0-.245,2.175,2.532,2.532,0,0,0,1.67,1.378,4.879,4.879,0,0,0,2.22.021,4.7,4.7,0,0,0,2.356-1.048,2.434,2.434,0,0,0,.755-2.537" transform="translate(-582.685 -154.501)" fill="#b05e72"/>
          </g>
        </g>
      </g>
      <path id="Trazado_1075702" data-name="Trazado 1075702" d="M588.177,154.22c1.426-.089,3.2.494,3.617,2.059a2.849,2.849,0,0,1-2.061,3.531.161.161,0,0,1-.1-.3c1.829-.762,2.273-3.415.4-4.389a6.019,6.019,0,0,0-1.875-.578.162.162,0,0,1,.021-.32" transform="translate(449.483 1511.206)" fill="#82483d"/>
      <path id="Trazado_1075703" data-name="Trazado 1075703" d="M585.045,161.966a1.117,1.117,0,0,0-.934-1.026.287.287,0,0,0-.373.33.856.856,0,0,0,.446.605.827.827,0,0,0,.862.091" transform="translate(450.892 1508.997)"/>
      <path id="Trazado_1075704" data-name="Trazado 1075704" d="M601.5,148.031a2.826,2.826,0,1,1,2.794,3.251,3.049,3.049,0,0,1-2.794-3.251" transform="translate(445.057 1514.303)"/>
      <path id="Trazado_1075705" data-name="Trazado 1075705" d="M601.789,148.718a4.976,4.976,0,0,1-.126-3.232,4.393,4.393,0,0,1,1.474-2.386,3.119,3.119,0,0,1,2.685-.612.947.947,0,0,1,.463.246.421.421,0,0,1,.073.49c-.152.237-.5.174-.785.144a2.217,2.217,0,0,0-1.9.842,3.234,3.234,0,0,0-.663,2.017c0,.4.052.8.017,1.205s.941.815.625,1.064-1.72.658-1.867.222" transform="translate(445.074 1515.086)"/>
      <path id="Trazado_1075706" data-name="Trazado 1075706" d="M562.4,154.064a2.826,2.826,0,1,1,2.794,3.252,3.048,3.048,0,0,1-2.794-3.252" transform="translate(457.898 1512.322)"/>
      <path id="Trazado_1075707" data-name="Trazado 1075707" d="M562.687,154.751a4.973,4.973,0,0,1-.126-3.232,4.394,4.394,0,0,1,1.474-2.386,3.119,3.119,0,0,1,2.685-.612.947.947,0,0,1,.463.246.421.421,0,0,1,.073.49c-.153.237-.5.174-.785.144a2.216,2.216,0,0,0-1.9.842,3.233,3.233,0,0,0-.663,2.017c0,.4.052.8.017,1.206s.941.815.625,1.064-1.72.658-1.866.222" transform="translate(457.915 1513.105)"/>
      <path id="Trazado_1075708" data-name="Trazado 1075708" d="M559.943,136.04a2.213,2.213,0,0,0-2.04-1.365,4.221,4.221,0,0,0-1.907.5,9.8,9.8,0,0,0-1.945,1.239,4.308,4.308,0,0,0-1.539,2.084,2.064,2.064,0,0,0,.789,2.316,2.518,2.518,0,0,0,2.544-.327,23.115,23.115,0,0,1,2.2-1.561,4.362,4.362,0,0,0,1.549-.878,2.754,2.754,0,0,0,.48-1.293,1.689,1.689,0,0,0-.13-.719" transform="translate(461.173 1517.622)" fill="#131f3c"/>
      <path id="Trazado_1075709" data-name="Trazado 1075709" d="M612.028,129.292a3.549,3.549,0,0,0-1.776-1.494,7.022,7.022,0,0,0-2.31-.453,4.558,4.558,0,0,0-2.575.457,1.987,1.987,0,0,0-.982,2.242,2.206,2.206,0,0,0,1.523,1.24c.652.191,1.342.21,2.009.338s1.286.359,1.946.437a2.341,2.341,0,0,0,1.874-.473,1.907,1.907,0,0,0,.29-2.293" transform="translate(444.139 1520.033)" fill="#131f3c"/>
      <path id="Trazado_1075710" data-name="Trazado 1075710" d="M533.739,173.279a5.97,5.97,0,0,0-8.326-.966l-.7.284a.181.181,0,0,1-.242-.117,1.381,1.381,0,0,1,.228-1.129,5.149,5.149,0,0,1,1.836-1.628c2.89-1.686,7.179-.171,8.064,3.119a.494.494,0,0,1-.856.437" transform="translate(470.371 1506.34)" fill="#a56450"/>
      <path id="Trazado_1075711" data-name="Trazado 1075711" d="M682.639,128.752a8.14,8.14,0,0,1,7.82-5.937.5.5,0,0,1,.189.942,22.959,22.959,0,0,0-3.871,2.326,24.513,24.513,0,0,0-3.281,3.1.5.5,0,0,1-.857-.435" transform="translate(418.416 1521.517)" fill="#a56450"/>
      <path id="Trazado_1075712" data-name="Trazado 1075712" d="M519.669,116.064c-2.19,2.057-1.578,6.976,1.532,7.686,1.263-.054,3.072-2.905,2.819-4.185-.083-.31-.548-.366-.829-.232a1.75,1.75,0,0,0-.772,1.128c-.4,1.242-.212,3.205,1.032,3.805a3.382,3.382,0,0,0,2.124-.02,14.391,14.391,0,0,0,6.48-3.379,15.7,15.7,0,0,0,3.144-3.784.658.658,0,0,1,1.195.151c.358,1.123.682,2.436,1.866,2.576a4.175,4.175,0,0,0,2.863-1.966c.534-.706,1-1.5,1.5-2.3a.616.616,0,0,1,.85-.19,4.8,4.8,0,0,0,4.476,1.462c4.921-.541,8.3-6.938,8.042-11.531a.32.32,0,0,1,.638-.054,11.729,11.729,0,0,1-.778,5.395c-1.15,2.962-3.25,5.91-6.371,7.006-2.3.637-5.237.627-6.858-1.443l1.04,0c-1.015,1.638-1.972,3.471-3.792,4.463-2.6,1.416-4.209-.832-4.737-3.068l1.194.152a16.552,16.552,0,0,1-7.915,6.971c-1.728.61-3.671,1.439-5.5.706-2.326-1.218-2.486-4.792-.909-6.677,1.719-1.622,3.874-.058,3.016,2.079a7.2,7.2,0,0,1-2.344,3.4,2.226,2.226,0,0,1-1.525.547c-3.958-.764-4.734-6.706-1.915-9.168a.32.32,0,0,1,.436.469" transform="translate(472.628 1527.385)" fill="#00122f"/>
      <path id="Trazado_1075713" data-name="Trazado 1075713" d="M593.194,107.078a5.632,5.632,0,0,0,8.723,4.33.557.557,0,0,1,.856.249,5.947,5.947,0,0,0,9.517,1.969c1.786-1.563,3.716-5.368,1.949-7.412-1.477-1.426-2.972.811-2.862,2.323-.048,3.08,2.905,5.013,5.71,5.424a9.964,9.964,0,0,0,5.874-.444,4.682,4.682,0,0,0,2.781-4.663.32.32,0,0,1,.63-.115,5.387,5.387,0,0,1-3,5.6c-4.705,2.214-13.152.452-13.258-5.8-.045-1.78,1.1-4.08,3.2-4.087a3.162,3.162,0,0,1,2.793,2.469c.767,3.984-2.15,8.177-5.93,9.336a7.048,7.048,0,0,1-8.444-4.214l.856.249a6.458,6.458,0,0,1-10.034-5.177.321.321,0,0,1,.639-.036" transform="translate(447.996 1527.548)" fill="#00122f"/>
      <g id="Grupo_1201509" data-name="Grupo 1201509" transform="translate(1009.021 1674.33)" opacity="0.4" style="mix-blend-mode: multiply;isolation: isolate">
        <g id="Grupo_1201508" data-name="Grupo 1201508" transform="translate(0 0)">
          <g id="Grupo_1201507" data-name="Grupo 1201507" clip-path="url(#clip-path-4)">
            <path id="Trazado_1075714" data-name="Trazado 1075714" d="M562.423,175.89a8.408,8.408,0,1,0-8.408,8.408,8.408,8.408,0,0,0,8.408-8.408" transform="translate(-545.607 -167.483)" fill="#d67188"/>
          </g>
        </g>
      </g>
      <g id="Grupo_1201512" data-name="Grupo 1201512" transform="translate(1052.429 1669.54)" opacity="0.4" style="mix-blend-mode: multiply;isolation: isolate">
        <g id="Grupo_1201511" data-name="Grupo 1201511" transform="translate(0 0)">
          <g id="Grupo_1201510" data-name="Grupo 1201510" clip-path="url(#clip-path-5)">
            <path id="Trazado_1075715" data-name="Trazado 1075715" d="M627.06,168.758a8.408,8.408,0,1,0-8.408,8.408,8.408,8.408,0,0,0,8.408-8.408" transform="translate(-610.243 -160.35)" fill="#d67188"/>
          </g>
        </g>
      </g>
      <path id="Trazado_1075716" data-name="Trazado 1075716" d="M596.38,180.109a24.9,24.9,0,0,1-4.422,2.68,22.263,22.263,0,0,1-4.052,1.613,21.8,21.8,0,0,1-4.12.623,23.076,23.076,0,0,1-7.785-.554,14.637,14.637,0,0,1-3-1.207,14.833,14.833,0,0,1,5.62-4.59,18.61,18.61,0,0,1,8.295-1.72,15.15,15.15,0,0,1,9.458,3.155" transform="translate(454.415 1503.738)" fill="#da7f75"/>
      <path id="Trazado_1075717" data-name="Trazado 1075717" d="M597.884,166.309c1.126,2.917-.7,5.743-2.379,7.679a12.874,12.874,0,0,1-1.816,1.715,15.15,15.15,0,0,0-9.458-3.155,18.613,18.613,0,0,0-8.295,1.72,14.833,14.833,0,0,0-5.62,4.59c-.245-.122-.476-.257-.713-.4a10.48,10.48,0,0,1-3.977-4,6.533,6.533,0,0,1-.359-5.519,5.066,5.066,0,0,1,4.069-3.048,8.024,8.024,0,0,1,4.648,1.426,17.279,17.279,0,0,0,4.405,2.2,7.835,7.835,0,0,0,6.659-1.675c.806-.657,1.5-1.445,2.32-2.089a8.9,8.9,0,0,1,5.236-2.21c2.165-.087,4.587.968,5.279,2.768" transform="translate(457.106 1508.144)"/>
      <path id="Trazado_1075718" data-name="Trazado 1075718" d="M567.458,222.011c.778,4.3,5.3,6.216,9.287,6.6,4.062.453,8.988.406,12.35-1.862a9.276,9.276,0,0,0,3.818-6.926.811.811,0,0,1,.88-.82.8.8,0,0,1,.715.672,10.241,10.241,0,0,1-.536,5.117c-1.812,5.181-7.7,7.369-12.763,7.376-6.383.322-15.694-2.322-15.351-10.219a.8.8,0,0,1,1.6.061" transform="translate(456.766 1489.929)" fill="#0e8c83"/>
    </g>
  </g>
</svg>
