<svg xmlns="http://www.w3.org/2000/svg" xmlns:xlink="http://www.w3.org/1999/xlink" width="400" height="423" viewBox="0 0 400 423">
  <defs>
    <clipPath id="clip-path">
      <rect id="Rect치ngulo_417882" data-name="Rect치ngulo 417882" width="400" height="423" transform="translate(0 0)" fill="#fff" stroke="#707070" stroke-width="1"/>
    </clipPath>
  </defs>
  <g id="Enmascarar_grupo_1098873" data-name="Enmascarar grupo 1098873" clip-path="url(#clip-path)">
    <g id="Grupo_1208668" data-name="Grupo 1208668" transform="translate(-20 5.365)">
      <g id="OBJECTS" transform="translate(0 0)">
        <g id="Grupo_1208611" data-name="Grupo 1208611" transform="translate(16.411 0)">
          <path id="Trazado_1077042" data-name="Trazado 1077042" d="M359.82,48.74c29.612,28.441,43.205,71.738,38.218,112.492s-27.577,78.48-59.2,104.674S267.108,307.1,226.274,311.4c-34.72,3.652-71.043-.48-101.709-17.166C79.8,269.874,52.042,221,43.512,170.755c-4.089-24.083-4.128-49.583,5.353-72.1s29.856-41.44,54.122-44.247c26.761-3.1,53.2,13.06,79.823,8.967,17.771-2.732,32.81-14.057,48.954-21.972C272.931,21.224,328.788,18.934,359.82,48.74Z" transform="translate(-13.286 -26.28)" fill="#fcf8db"/>
          <g id="Grupo_1208610" data-name="Grupo 1208610" transform="translate(0 51.199)" opacity="0.8">
            <g id="Grupo_1208595" data-name="Grupo 1208595" transform="translate(262.223 26.547)">
              <g id="Grupo_1208586" data-name="Grupo 1208586" transform="translate(56.851)">
                <path id="Trazado_1077043" data-name="Trazado 1077043" d="M99.076,198.19a66.94,66.94,0,0,0,2.458-55.814A80.927,80.927,0,0,0,99.076,198.19Z" transform="translate(-95.255 -142.376)" fill="#d1cd5c"/>
                <path id="Trazado_1077044" data-name="Trazado 1077044" d="M103.288,167.463a256.87,256.87,0,0,0-3.021,33.639" transform="translate(-96.291 -146.342)" fill="none" stroke="#74a847" stroke-linecap="round" stroke-linejoin="round" stroke-miterlimit="10" stroke-width="1"/>
              </g>
              <g id="Grupo_1208587" data-name="Grupo 1208587" transform="translate(59.088 43.5)">
                <path id="Trazado_1077045" data-name="Trazado 1077045" d="M50.723,207.637a58.892,58.892,0,0,1,46.472-12.9C86.484,205.69,69.986,210.632,50.723,207.637Z" transform="translate(-50.723 -194.044)" fill="#d1cd5c"/>
                <path id="Trazado_1077046" data-name="Trazado 1077046" d="M70.661,209.564q14.456-4.171,29.2-7.252" transform="translate(-70.172 -195.351)" fill="none" stroke="#74a847" stroke-linecap="round" stroke-linejoin="round" stroke-miterlimit="10" stroke-width="1"/>
              </g>
              <g id="Grupo_1208588" data-name="Grupo 1208588" transform="translate(37.657 21.488)">
                <path id="Trazado_1077047" data-name="Trazado 1077047" d="M124.876,227.077a74.5,74.5,0,0,0-4.3-59.18A79.743,79.743,0,0,0,124.876,227.077Z" transform="translate(-116.802 -167.898)" fill="#d1cd5c"/>
                <path id="Trazado_1077048" data-name="Trazado 1077048" d="M121.736,197.948a188.9,188.9,0,0,0,1.581,33.077" transform="translate(-115.075 -172.648)" fill="none" stroke="#74a847" stroke-linecap="round" stroke-linejoin="round" stroke-miterlimit="10" stroke-width="1"/>
              </g>
              <g id="Grupo_1208589" data-name="Grupo 1208589" transform="translate(44.179 69.29)">
                <path id="Trazado_1077049" data-name="Trazado 1077049" d="M67.781,238.86a54.71,54.71,0,0,1,47.02-13.181C107.41,237.529,91.864,243.61,67.781,238.86Z" transform="translate(-67.781 -224.676)" fill="#d1cd5c"/>
                <path id="Trazado_1077050" data-name="Trazado 1077050" d="M86.432,240.224a103.752,103.752,0,0,1,31.272-8.6" transform="translate(-86.387 -225.775)" fill="none" stroke="#74a847" stroke-linecap="round" stroke-linejoin="round" stroke-miterlimit="10" stroke-width="1"/>
              </g>
              <g id="Grupo_1208590" data-name="Grupo 1208590" transform="translate(20.898 50.036)">
                <path id="Trazado_1077051" data-name="Trazado 1077051" d="M146.669,256.007a60.5,60.5,0,0,0-13.26-54.2C132.1,219.868,136.662,238.309,146.669,256.007Z" transform="translate(-133.189 -201.807)" fill="#d1cd5c"/>
                <path id="Trazado_1077052" data-name="Trazado 1077052" d="M135.286,227.089q2.94,16.411,5.881,32.821" transform="translate(-127.7 -205.803)" fill="none" stroke="#74a847" stroke-linecap="round" stroke-linejoin="round" stroke-miterlimit="10" stroke-width="1"/>
              </g>
              <g id="Grupo_1208591" data-name="Grupo 1208591" transform="translate(32.852 93.611)">
                <path id="Trazado_1077053" data-name="Trazado 1077053" d="M81.1,267.441c4.129-7.585,12.548-12.13,21.088-13.414s17.249.283,25.615,2.424C117.717,268.031,100.26,272.52,81.1,267.441Z" transform="translate(-80.666 -253.563)" fill="#d1cd5c"/>
                <path id="Trazado_1077054" data-name="Trazado 1077054" d="M98.73,269.08a104.124,104.124,0,0,1,32.29-6.99" transform="translate(-98.73 -254.911)" fill="none" stroke="#74a847" stroke-linecap="round" stroke-linejoin="round" stroke-miterlimit="10" stroke-width="1"/>
              </g>
              <g id="Grupo_1208592" data-name="Grupo 1208592" transform="translate(0 76.164)">
                <path id="Trazado_1077055" data-name="Trazado 1077055" d="M170.552,282.269a47.038,47.038,0,0,0-26.385-49.429C147.544,252.783,157.182,271.621,170.552,282.269Z" transform="translate(-144.167 -232.84)" fill="#d1cd5c"/>
                <path id="Trazado_1077056" data-name="Trazado 1077056" d="M144.738,253.684l14.208,31.723" transform="translate(-132.539 -236.135)" fill="none" stroke="#74a847" stroke-linecap="round" stroke-linejoin="round" stroke-miterlimit="10" stroke-width="1"/>
              </g>
              <g id="Grupo_1208593" data-name="Grupo 1208593" transform="translate(24.528 115.434)">
                <path id="Trazado_1077057" data-name="Trazado 1077057" d="M94.41,295.421a47.2,47.2,0,0,1,43.762-15.143C126.862,291.874,111.591,299.534,94.41,295.421Z" transform="translate(-93.921 -279.483)" fill="#d1cd5c"/>
                <path id="Trazado_1077058" data-name="Trazado 1077058" d="M112.545,296.8a192.347,192.347,0,0,1,28.983-10.738" transform="translate(-112.545 -280.524)" fill="none" stroke="#74a847" stroke-linecap="round" stroke-linejoin="round" stroke-miterlimit="10" stroke-width="1"/>
              </g>
              <g id="Grupo_1208594" data-name="Grupo 1208594" transform="translate(22.622 3.564)">
                <path id="Trazado_1077059" data-name="Trazado 1077059" d="M56.93,187.092a51.04,51.04,0,0,1,31.453-40.483c.648,7.363-2.382,14.672-6.841,20.567S71.263,177.771,56.93,187.092Z" transform="translate(-10.758 -146.609)" fill="#d1cd5c"/>
                <path id="Trazado_1077060" data-name="Trazado 1077060" d="M136.652,163.139a305.319,305.319,0,0,0-67.01,121.946" transform="translate(-69.642 -149.222)" fill="none" stroke="#74a847" stroke-linecap="round" stroke-linejoin="round" stroke-miterlimit="10" stroke-width="1"/>
              </g>
            </g>
            <g id="Grupo_1208605" data-name="Grupo 1208605" transform="translate(0 156.021)">
              <g id="Grupo_1208596" data-name="Grupo 1208596" transform="translate(31.997)">
                <path id="Trazado_1077061" data-name="Trazado 1077061" d="M446.506,346.162a62.093,62.093,0,0,1-13.619-50A75.07,75.07,0,0,1,446.506,346.162Z" transform="translate(-432.026 -296.16)" fill="#d1cd5c"/>
                <path id="Trazado_1077062" data-name="Trazado 1077062" d="M432.78,319.034a238.162,238.162,0,0,1,9.6,29.822" transform="translate(-428.257 -299.776)" fill="none" stroke="#74a847" stroke-linecap="round" stroke-linejoin="round" stroke-miterlimit="10" stroke-width="1"/>
              </g>
              <g id="Grupo_1208597" data-name="Grupo 1208597" transform="translate(3.487 44.892)">
                <path id="Trazado_1077063" data-name="Trazado 1077063" d="M475.028,355.425a54.629,54.629,0,0,0-44.685-2.187C442.27,360.965,458.208,362.069,475.028,355.425Z" transform="translate(-430.343 -349.481)" fill="#d1cd5c"/>
                <path id="Trazado_1077064" data-name="Trazado 1077064" d="M458.619,357.205q-13.932-.823-27.9-.6" transform="translate(-414.251 -350.599)" fill="none" stroke="#74a847" stroke-linecap="round" stroke-linejoin="round" stroke-miterlimit="10" stroke-width="1"/>
              </g>
              <g id="Grupo_1208598" data-name="Grupo 1208598" transform="translate(54.542 15.014)">
                <path id="Trazado_1077065" data-name="Trazado 1077065" d="M418.472,368.42a69.1,69.1,0,0,1-8.193-54.427A73.974,73.974,0,0,1,418.472,368.42Z" transform="translate(-407.943 -313.993)" fill="#d1cd5c"/>
                <path id="Trazado_1077066" data-name="Trazado 1077066" d="M410.649,341.884a175.131,175.131,0,0,1,5.322,30.253" transform="translate(-405.759 -318.402)" fill="none" stroke="#74a847" stroke-linecap="round" stroke-linejoin="round" stroke-miterlimit="10" stroke-width="1"/>
              </g>
              <g id="Grupo_1208599" data-name="Grupo 1208599" transform="translate(21.81 65.104)">
                <path id="Trazado_1077067" data-name="Trazado 1077067" d="M453.161,380.047a50.748,50.748,0,0,0-45.238-2.327C417.03,386.934,432.339,389.263,453.161,380.047Z" transform="translate(-407.923 -373.488)" fill="#d1cd5c"/>
                <path id="Trazado_1077068" data-name="Trazado 1077068" d="M437.96,381.2a96.246,96.246,0,0,0-30.052-1.4" transform="translate(-392.709 -374.394)" fill="none" stroke="#74a847" stroke-linecap="round" stroke-linejoin="round" stroke-miterlimit="10" stroke-width="1"/>
              </g>
              <g id="Grupo_1208600" data-name="Grupo 1208600" transform="translate(74.29 36.699)">
                <path id="Trazado_1077069" data-name="Trazado 1077069" d="M393.051,391.5a56.125,56.125,0,0,1,.934-51.75C398.861,355.824,398.494,373.444,393.051,391.5Z" transform="translate(-387.187 -339.75)" fill="#d1cd5c"/>
                <path id="Trazado_1077070" data-name="Trazado 1077070" d="M392.363,364.412q.69,15.45,1.38,30.9" transform="translate(-387.885 -343.648)" fill="none" stroke="#74a847" stroke-linecap="round" stroke-linejoin="round" stroke-miterlimit="10" stroke-width="1"/>
              </g>
              <g id="Grupo_1208601" data-name="Grupo 1208601" transform="translate(37.306 83.253)">
                <path id="Trazado_1077071" data-name="Trazado 1077071" d="M434.894,402.961c-5.285-6.021-13.831-8.414-21.82-7.832s-15.551,3.778-22.684,7.423C401.879,410.971,418.592,411.469,434.894,402.961Z" transform="translate(-390.39 -395.044)" fill="#d1cd5c"/>
                <path id="Trazado_1077072" data-name="Trazado 1077072" d="M420.5,404.451a96.568,96.568,0,0,0-30.645.267" transform="translate(-375.546 -396.358)" fill="none" stroke="#74a847" stroke-linecap="round" stroke-linejoin="round" stroke-miterlimit="10" stroke-width="1"/>
              </g>
              <g id="Grupo_1208602" data-name="Grupo 1208602" transform="translate(88.819 56.029)">
                <path id="Trazado_1077073" data-name="Trazado 1077073" d="M364.987,412.823a43.631,43.631,0,0,1,13.782-50.114C379.786,381.444,374.911,400.457,364.987,412.823Z" transform="translate(-362.058 -362.709)" fill="#d1cd5c"/>
                <path id="Trazado_1077074" data-name="Trazado 1077074" d="M377.449,384.528l-6.38,31.606" transform="translate(-368.192 -366.158)" fill="none" stroke="#74a847" stroke-linecap="round" stroke-linejoin="round" stroke-miterlimit="10" stroke-width="1"/>
              </g>
              <g id="Grupo_1208603" data-name="Grupo 1208603" transform="translate(51.475 102.835)">
                <path id="Trazado_1077075" data-name="Trazado 1077075" d="M418.4,426.561a43.777,43.777,0,0,0-42.69-4.768C388.316,429.976,403.7,433.79,418.4,426.561Z" transform="translate(-375.714 -418.304)" fill="#d1cd5c"/>
                <path id="Trazado_1077076" data-name="Trazado 1077076" d="M403.523,427.646a178.519,178.519,0,0,0-28.418-3.8" transform="translate(-360.32 -419.18)" fill="none" stroke="#74a847" stroke-linecap="round" stroke-linejoin="round" stroke-miterlimit="10" stroke-width="1"/>
              </g>
              <g id="Grupo_1208604" data-name="Grupo 1208604" transform="translate(0 10.802)">
                <path id="Trazado_1077077" data-name="Trazado 1077077" d="M480.665,339.2A47.346,47.346,0,0,0,443.94,308.99c.916,6.8,5.151,12.79,10.389,17.214S465.793,333.693,480.665,339.2Z" transform="translate(-443.94 -308.99)" fill="#d1cd5c"/>
                <path id="Trazado_1077078" data-name="Trazado 1077078" d="M371.186,321.374a283.213,283.213,0,0,1,85.532,96.664" transform="translate(-358.74 -310.948)" fill="none" stroke="#74a847" stroke-linecap="round" stroke-linejoin="round" stroke-miterlimit="10" stroke-width="1"/>
              </g>
            </g>
            <g id="Grupo_1208606" data-name="Grupo 1208606" transform="translate(102.874)">
              <path id="Trazado_1077079" data-name="Trazado 1077079" d="M350.314,341.2c2.712-39.862,5.4-80.185-2.218-120.522s-26.675-81.32-60.478-109.837C293.151,186.993,314.957,263.694,350.314,341.2Z" transform="translate(-287.618 -110.845)" fill="#d1cd5c"/>
              <path id="Trazado_1077080" data-name="Trazado 1077080" d="M291.708,171.083c22.468,55.877,35.445,114.224,38.258,172" transform="translate(-267.947 -120.367)" fill="none" stroke="#74a847" stroke-linecap="round" stroke-linejoin="round" stroke-miterlimit="10" stroke-width="1"/>
            </g>
            <g id="Grupo_1208607" data-name="Grupo 1208607" transform="translate(36.306 48.842)">
              <path id="Trazado_1077081" data-name="Trazado 1077081" d="M420.939,362.035C422.054,276.486,370.67,197.1,295.9,168.857,324.572,234.186,363.992,293.621,420.939,362.035Z" transform="translate(-295.901 -168.857)" fill="#d1cd5c"/>
              <path id="Trazado_1077082" data-name="Trazado 1077082" d="M296.133,217.7a523.208,523.208,0,0,1,84.9,150.936" transform="translate(-256.17 -176.578)" fill="none" stroke="#74a847" stroke-linecap="round" stroke-linejoin="round" stroke-miterlimit="10" stroke-width="1"/>
            </g>
            <g id="Grupo_1208608" data-name="Grupo 1208608" transform="translate(287.318 117.158)">
              <path id="Trazado_1077083" data-name="Trazado 1077083" d="M19.029,386.755c6.8-32.178,14.689-64.946,31.858-91.952s45.625-47.476,75.291-44.518C97.615,295.21,65.35,323.216,19.029,386.755Z" transform="translate(-19.029 -250)" fill="#d1cd5c"/>
              <path id="Trazado_1077084" data-name="Trazado 1077084" d="M129.27,266.521c-36.363,29.214-65.364,69.588-82.92,115.436" transform="translate(-45.123 -252.612)" fill="none" stroke="#74a847" stroke-linecap="round" stroke-linejoin="round" stroke-miterlimit="10" stroke-width="1"/>
            </g>
            <g id="Grupo_1208609" data-name="Grupo 1208609" transform="translate(259.173 189.339)">
              <path id="Trazado_1077085" data-name="Trazado 1077085" d="M2.944,443.316c14.034-30.83,32.019-60.358,57.517-81.172s59.456-31.98,91.319-23.619C113.813,387.655,40.482,396.163,2.944,443.316Z" transform="translate(-2.944 -335.734)" fill="#d1cd5c"/>
              <path id="Trazado_1077086" data-name="Trazado 1077086" d="M156.722,354.794A344.732,344.732,0,0,0,42.9,441.8" transform="translate(-41.528 -338.747)" fill="none" stroke="#74a847" stroke-linecap="round" stroke-linejoin="round" stroke-miterlimit="10" stroke-width="1"/>
            </g>
          </g>
        </g>
        <g id="Grupo_1208640" data-name="Grupo 1208640" transform="translate(141.891 16.076)">
          <g id="Grupo_1208627" data-name="Grupo 1208627" transform="translate(0.661)">
            <path id="Trazado_1077087" data-name="Trazado 1077087" d="M280.422,280.841c3.241-14.548-1.732-29.673-8.285-43.061s-14.8-26.119-18.79-40.481c-3.826-13.778-3.52-28.3-4.014-42.594s-1.954-29.031-8.843-41.562-20.445-22.367-35.973-22.531c-19.821-12.388-46.662-12.494-66.58-.263s-31.965,36.217-29.883,59.5c1.395,15.593,8.537,30.364,8.926,46.013.256,10.3-2.433,20.417-3.882,30.619-3.305,23.264.243,48.147,13.266,67.618C178.107,292.749,229.743,287.416,280.422,280.841Z" transform="translate(-86.244 -81.247)" fill="#b84453"/>
            <path id="Trazado_1077088" data-name="Trazado 1077088" d="M259.988,349.638l-10.294,61.205,56.2-7.234,1.391-39.784Z" transform="translate(-249.694 -89.318)" fill="#eb7563"/>
            <path id="Trazado_1077089" data-name="Trazado 1077089" d="M66.981,315.693s52.323,72.62,40.966,98.6c-10.011,22.9-66.555,16.486-66.555,16.486l-.767-24.613,15.847-13.517L44.237,375.99Z" transform="translate(150.809 -88.297)" fill="#ffa382"/>
            <g id="Grupo_1208614" data-name="Grupo 1208614" transform="translate(2.741 134.222)">
              <path id="Trazado_1077090" data-name="Trazado 1077090" d="M167.9,232.4s84.313-3.078,131.142,97.258c0,0-23.434,32.078-41.265,52.115l7,64.132-151.131,4.951s4.312-48.259,3.932-50.728-3.481-16.14-3.481-16.14-38.5-8.342-47.154-22.469C66.951,361.516,73.111,249.062,167.9,232.4Z" transform="translate(-66.951 -220.014)" fill="#49c9a1"/>
              <g id="Grupo_1208612" data-name="Grupo 1208612" transform="translate(53.515)">
                <path id="Trazado_1077091" data-name="Trazado 1077091" d="M153.8,251.861s17.186,40.679,44.947,37.575c27.914-3.12,49.4-46.479,49.4-46.479-2.144-.621-21.9-10.339-22.813-11.135-.349-.3-.854-2.085-1.339-4.209v-.01c-.824-3.53-1.62-7.973-1.62-7.973l-56.741,23.045-11.009,8.545Z" transform="translate(-153.798 -219.63)" fill="#ffa382"/>
                <path id="Trazado_1077092" data-name="Trazado 1077092" d="M178.7,251.22a48.134,48.134,0,0,0,69.369-23.608v-.01c-.824-3.531-1.62-7.973-1.62-7.973l-56.741,23.045Z" transform="translate(-177.874 -219.63)" fill="#eb7563"/>
              </g>
              <g id="Grupo_1208613" data-name="Grupo 1208613" transform="translate(32.987 59.78)">
                <path id="Trazado_1077093" data-name="Trazado 1077093" d="M121.752,281.263c-3.786,17.465-7.594,35.166-6.794,53.017s6.746,36.173,19.8,48.373c-15.183-11.073-22.94-30.231-23.954-48.995S114.738,296.322,121.752,281.263Z" transform="translate(21.938 -281.263)" fill="#32a69c"/>
                <path id="Trazado_1077094" data-name="Trazado 1077094" d="M131.781,296.579a107.51,107.51,0,0,0,11.966,60.841c-7.738-7.068-11.912-17.367-13.489-27.727S129.468,308.775,131.781,296.579Z" transform="translate(-5.243 -281.724)" fill="#32a69c"/>
                <path id="Trazado_1077095" data-name="Trazado 1077095" d="M265.538,383.877a217.155,217.155,0,0,1-1.579-74.177C255.44,333.726,255.648,360.742,265.538,383.877Z" transform="translate(-251.568 -282.118)" fill="#32a69c"/>
                <path id="Trazado_1077096" data-name="Trazado 1077096" d="M263.724,292.942a199.343,199.343,0,0,0,8.232,60.235c-5.081-8.045-7.606-18.345-8.489-28.637S263.236,303.855,263.724,292.942Z" transform="translate(-263.031 -281.614)" fill="#32a69c"/>
                <path id="Trazado_1077097" data-name="Trazado 1077097" d="M184.707,378.911a371.878,371.878,0,0,0,26.434,48.507c-7.612-4.089-13.163-11.311-16.8-19.149S188.792,391.923,184.707,378.911Z" transform="translate(-126.248 -284.199)" fill="#32a69c"/>
              </g>
            </g>
            <g id="Grupo_1208626" data-name="Grupo 1208626" transform="translate(30.113 31.468)">
              <path id="Trazado_1077098" data-name="Trazado 1077098" d="M156.218,158.859s3.278,19.292,7.42,37.342c2.968,12.949,6.382,25.267,9.36,29.369.475.66.96,1.329,1.465,2.008,6.954,9.466,16.314,20.388,33.705,18.778,8.332-.766,20.359-5.121,31.717-14.8a81.384,81.384,0,0,0,19.447-24.82v-.01a109.7,109.7,0,0,0,10.747-34.268s-8.991-6.45-12.241-13.957a30.782,30.782,0,0,0,4.365,1.542s-8.894-6.537-9.651-10.407l4,1.377s-9.466-6.77-10.155-12.144l4.452.786s-17.459-15.121-21.154-25.965c0,0-9.835,15.936-32.085,24.559C184.268,143.428,166.393,141.866,156.218,158.859Z" transform="translate(-151.938 -113.69)" fill="#ffa382"/>
              <g id="Grupo_1208615" data-name="Grupo 1208615" transform="translate(105.942 53.931)">
                <path id="Trazado_1077099" data-name="Trazado 1077099" d="M143.207,177.743a20.434,20.434,0,0,1,9.079-7.605,11.67,11.67,0,0,1,11.291,1.372c4.923,3.926,5.051,11.734,2.756,17.7A29.179,29.179,0,0,1,153.681,204a27.805,27.805,0,0,1-18.886,3.11C138.885,197.779,137.373,186.007,143.207,177.743Z" transform="translate(-134.794 -169.294)" fill="#ffa382"/>
                <path id="Trazado_1077100" data-name="Trazado 1077100" d="M151.95,179.467a12.812,12.812,0,0,1,5.263.808,6.618,6.618,0,0,1,3.731,3.643c.994,2.7-.367,5.705-2.121,7.986a23.38,23.38,0,0,1-8.734,6.959c-2.641,1.212-6,1.834-8.27.021a6.142,6.142,0,0,1-1.9-5.8,12.858,12.858,0,0,1,2.832-5.662A34.6,34.6,0,0,1,151.95,179.467Z" transform="translate(-133.173 -169.599)" fill="#eb7563"/>
                <path id="Trazado_1077101" data-name="Trazado 1077101" d="M159.391,182.687a7.652,7.652,0,0,0-6.881-3.152,12.567,12.567,0,0,0-7.088,3.22,39.5,39.5,0,0,0-5.356,6" transform="translate(-131.527 -169.601)" fill="none" stroke="#c43945" stroke-linecap="round" stroke-linejoin="round" stroke-miterlimit="10" stroke-width="2"/>
              </g>
              <g id="Grupo_1208625" data-name="Grupo 1208625" transform="translate(0 29.444)">
                <path id="Trazado_1077102" data-name="Trazado 1077102" d="M178.827,155.065a18.9,18.9,0,0,1,36.042,6.482C206.426,153.347,193.5,150.082,178.827,155.065Z" transform="translate(-118.658 -144.047)" fill="#b84453"/>
                <path id="Trazado_1077103" data-name="Trazado 1077103" d="M249.021,156.594a11.631,11.631,0,0,1,7.9-8.467,15.49,15.49,0,0,1,11.364,1.338,19.693,19.693,0,0,1,8.861,8.912c-4.563-2.281-9.215-2.482-13.928-2.347s-9.587,1.826-12.729,5.626C250.029,160.041,249.567,158.428,249.021,156.594Z" transform="translate(-249.021 -144.153)" fill="#b84453"/>
                <path id="Trazado_1077104" data-name="Trazado 1077104" d="M237.969,196.672a17.62,17.62,0,0,1-.746,5.787,6.879,6.879,0,0,0,3.288,8.1l.062.031" transform="translate(-200.72 -145.629)" fill="none" stroke="#c43945" stroke-linecap="round" stroke-linejoin="round" stroke-miterlimit="10" stroke-width="2"/>
                <path id="Trazado_1077105" data-name="Trazado 1077105" d="M220.945,217.684a21.361,21.361,0,0,0,11.229-2.9,14.015,14.015,0,0,1,2.909-1.547,3.267,3.267,0,0,1,3.124.454,4,4,0,0,1,.986,3.183,13.255,13.255,0,0,1-24.131,7.121,4.684,4.684,0,0,1-.985-4.1,3.781,3.781,0,0,1,3-2.218A21.426,21.426,0,0,1,220.945,217.684Z" transform="translate(-177.01 -146.121)" fill="#fff"/>
                <g id="Grupo_1208618" data-name="Grupo 1208618" transform="translate(59.469 22.676)">
                  <path id="Trazado_1077106" data-name="Trazado 1077106" d="M215.033,185.012c0-8.1-7.536-15.879-15.636-15.879s-12.367,4.452-13.794,13.185c-1.494,9.132,2.633,16.018,10.733,16.018C204.356,198.337,215.033,193.112,215.033,185.012Z" transform="translate(-184.57 -167.477)" fill="#fff"/>
                  <g id="Grupo_1208616" data-name="Grupo 1208616" transform="translate(0 12.452)">
                    <path id="Trazado_1077107" data-name="Trazado 1077107" d="M216.016,187.8c-.942-5.027-5.325-8.328-9.79-7.37s-7.321,5.808-6.379,10.835,5.325,8.328,9.79,7.37S216.958,192.827,216.016,187.8Z" transform="translate(-199.668 -180.264)" fill="#4f2b36"/>
                    <path id="Trazado_1077108" data-name="Trazado 1077108" d="M208.885,184.273c-1.219-1.855-3.324-2.567-4.7-1.59s-1.507,3.275-.288,5.13,3.324,2.567,4.7,1.59S210.1,186.129,208.885,184.273Z" transform="translate(-196.483 -180.323)" fill="#fff"/>
                  </g>
                  <g id="Grupo_1208617" data-name="Grupo 1208617" transform="translate(3.669)">
                    <path id="Trazado_1077109" data-name="Trazado 1077109" d="M182.718,172.528c8.914-3.927,19.747-1.748,25.12,6.572a23.156,23.156,0,0,1,3.629,9.077c2.081-7.068-1.981-15.194-8.469-18.673-6.447-3.554-15.469-2.553-20.28,3.024Z" transform="translate(-182.718 -167.425)" fill="#4f2b36"/>
                  </g>
                </g>
                <g id="Grupo_1208621" data-name="Grupo 1208621" transform="translate(5.589 23.39)">
                  <path id="Trazado_1077110" data-name="Trazado 1077110" d="M267.723,180.566c-3.787-8.261-10.03-10-15.1-10.19-8.048-.3-4.792,11.534-2.2,17.829,2.7,6.576,7.23,11.336,13.693,9.308C268.953,195.995,270.686,187.029,267.723,180.566Z" transform="translate(-245.184 -168.228)" fill="#fff"/>
                  <g id="Grupo_1208619" data-name="Grupo 1208619" transform="translate(9.939 11.866)">
                    <path id="Trazado_1077111" data-name="Trazado 1077111" d="M260.636,186.2c-1.971-4.7-6.489-7.015-10.091-5.174s-4.923,7.143-2.952,11.841,6.489,7.015,10.091,5.174S262.607,190.9,260.636,186.2Z" transform="translate(-246.678 -180.396)" fill="#4f2b36"/>
                    <path id="Trazado_1077112" data-name="Trazado 1077112" d="M255.368,183.573c-1.473-1.557-3.441-1.82-4.395-.588s-.532,3.493.942,5.048,3.441,1.82,4.395.588S256.841,185.129,255.368,183.573Z" transform="translate(-245.619 -180.45)" fill="#fff"/>
                  </g>
                  <g id="Grupo_1208620" data-name="Grupo 1208620" transform="translate(0)">
                    <path id="Trazado_1077113" data-name="Trazado 1077113" d="M271.606,174.764c-2.456-6.625-11.787-8.276-17.5-4.9-1.932,1.115-3.8,3.3-3.522,5.633a8.227,8.227,0,0,1,4.756-2.843,22.823,22.823,0,0,1,16.268,2.109Z" transform="translate(-250.555 -168.162)" fill="#4f2b36"/>
                  </g>
                </g>
                <g id="Grupo_1208622" data-name="Grupo 1208622" transform="translate(11.699 53.068)">
                  <path id="Trazado_1077114" data-name="Trazado 1077114" d="M250.926,198.76c2.968,12.949,6.382,25.267,9.36,29.369.475.66.96,1.329,1.465,2.008a32.725,32.725,0,0,0,3.579-10.921c.7-5.626-.64-11.688-4.481-15.858A14.509,14.509,0,0,0,250.926,198.76Z" transform="translate(-250.926 -198.76)" fill="#eb6563"/>
                  <path id="Trazado_1077115" data-name="Trazado 1077115" d="M256.741,210.437q1.109,2.932,2.219,5.864" transform="translate(-250.019 -199.111)" fill="none" stroke="#c43945" stroke-linecap="round" stroke-linejoin="round" stroke-miterlimit="10" stroke-width="2"/>
                </g>
                <g id="Grupo_1208624" data-name="Grupo 1208624" transform="translate(73.422 52.732)">
                  <path id="Trazado_1077116" data-name="Trazado 1077116" d="M173.694,229.913a24.637,24.637,0,0,0,8.128,4.19,81.384,81.384,0,0,0,19.447-24.82v-.01a17.744,17.744,0,1,0-27.575,20.64Z" transform="translate(-167.299 -198.413)" fill="#eb6563"/>
                  <g id="Grupo_1208623" data-name="Grupo 1208623" transform="translate(8.076 8.801)">
                    <path id="Trazado_1077117" data-name="Trazado 1077117" d="M179.289,212.234l.634,7.29" transform="translate(-165.659 -207.63)" fill="none" stroke="#c43945" stroke-linecap="round" stroke-linejoin="round" stroke-miterlimit="10" stroke-width="2"/>
                    <path id="Trazado_1077118" data-name="Trazado 1077118" d="M187.682,207.487l-1.787,13.8" transform="translate(-179.824 -207.487)" fill="none" stroke="#c43945" stroke-linecap="round" stroke-linejoin="round" stroke-miterlimit="10" stroke-width="2"/>
                    <path id="Trazado_1077119" data-name="Trazado 1077119" d="M192.362,211.581q.793,2.932,1.585,5.864" transform="translate(-192.362 -207.61)" fill="none" stroke="#c43945" stroke-linecap="round" stroke-linejoin="round" stroke-miterlimit="10" stroke-width="2"/>
                  </g>
                </g>
              </g>
            </g>
          </g>
          <g id="Grupo_1208639" data-name="Grupo 1208639" transform="translate(0 265.416)">
            <g id="Grupo_1208632" data-name="Grupo 1208632" transform="translate(0)">
              <g id="Grupo_1208631" data-name="Grupo 1208631">
                <g id="Grupo_1208628" data-name="Grupo 1208628" transform="translate(0 29.126)">
                  <path id="Trazado_1077120" data-name="Trazado 1077120" d="M255.684,442.252a23.643,23.643,0,0,0,8.506,2.968c18.109,2.7,43.521-32.2,43.521-32.2l-6.12-28.1s-1.387.33-3.744.931c-12.066,3.084-49.418,13.346-54.122,23.268C239.079,418.916,243.716,435.327,255.684,442.252Z" transform="translate(-241.949 -384.92)" fill="#eb7563"/>
                </g>
                <g id="Grupo_1208630" data-name="Grupo 1208630" transform="translate(55.307)">
                  <path id="Trazado_1077121" data-name="Trazado 1077121" d="M225.693,387.736a6.253,6.253,0,0,1,4.335,1.26,42.229,42.229,0,0,1,3.5,3.015,22.2,22.2,0,0,0,10.821,5.074,8.233,8.233,0,0,0,3.418-.007,3.686,3.686,0,0,0,2.562-2.1c.84-2.212-1.263-4.55-3.154-5.731a10.315,10.315,0,0,1-3.991-4.29c-1.686-3.613-2.237-7.132-3.671-9.012-3.252-4.26-9.124-5.349-14.736-5.768a75.4,75.4,0,0,0-19.911-13.64c-2.287-1.076-4.829-2.055-7.286-1.461a7.8,7.8,0,0,0-4.976,4.423c-.97,2.08-1.233,4.42-1.093,7.749a39.672,39.672,0,0,0-4.3,3.727,27.189,27.189,0,0,0-7.85,17.932,102.026,102.026,0,0,0,.842,19.186,11.262,11.262,0,0,0,7.159,9.1,33.857,33.857,0,0,0,9.8,1.972,5.982,5.982,0,0,0,5.668-3.343,22.422,22.422,0,0,0,.986-2.378,11.2,11.2,0,0,0,6.357-9.288,5.782,5.782,0,0,0,5.343-2.491,5.856,5.856,0,0,0-.071-6.3A21.093,21.093,0,0,0,225.693,387.736Z" transform="translate(-179.23 -354.891)" fill="#ffa382"/>
                  <g id="Grupo_1208629" data-name="Grupo 1208629" transform="translate(5.627 11.735)">
                    <path id="Trazado_1077122" data-name="Trazado 1077122" d="M227.38,369.085q.226,6.291.45,12.582c.063,1.753.243,3.745,1.636,4.81,1.465,1.12,3.7.611,5.034-.665a10.3,10.3,0,0,0,2.436-4.888,107.447,107.447,0,0,0,2.5-13.933" transform="translate(-220.474 -366.99)" fill="none" stroke="#c43945" stroke-linecap="round" stroke-linejoin="round" stroke-miterlimit="10" stroke-width="2"/>
                    <path id="Trazado_1077123" data-name="Trazado 1077123" d="M227.082,374.226l-4.672-1.146" transform="translate(-203.302 -367.173)" fill="none" stroke="#c43945" stroke-linecap="round" stroke-linejoin="round" stroke-miterlimit="10" stroke-width="2"/>
                    <path id="Trazado_1077124" data-name="Trazado 1077124" d="M221.81,389.288a76.387,76.387,0,0,0,9.269,10.049,25.6,25.6,0,0,0,12.075,6.092" transform="translate(-218.792 -367.661)" fill="none" stroke="#c43945" stroke-linecap="round" stroke-linejoin="round" stroke-miterlimit="10" stroke-width="2"/>
                    <path id="Trazado_1077125" data-name="Trazado 1077125" d="M216.391,380.914a130.7,130.7,0,0,1,12.191,14.353" transform="translate(-198.964 -367.409)" fill="none" stroke="#c43945" stroke-linecap="round" stroke-linejoin="round" stroke-miterlimit="10" stroke-width="2"/>
                    <path id="Trazado_1077126" data-name="Trazado 1077126" d="M228.2,404.388a35.5,35.5,0,0,0,18.163,9.737" transform="translate(-228.201 -368.115)" fill="none" stroke="#c43945" stroke-linecap="round" stroke-linejoin="round" stroke-miterlimit="10" stroke-width="2"/>
                  </g>
                </g>
              </g>
              <path id="Trazado_1077127" data-name="Trazado 1077127" d="M294.913,388.578a219.819,219.819,0,0,0-32.509,9.435" transform="translate(-248.991 -355.904)" fill="none" stroke="#c43945" stroke-linecap="round" stroke-linejoin="round" stroke-miterlimit="10" stroke-width="2"/>
            </g>
            <g id="Grupo_1208634" data-name="Grupo 1208634" transform="translate(88.087 29.222)">
              <g id="Grupo_1208633" data-name="Grupo 1208633">
                <path id="Trazado_1077128" data-name="Trazado 1077128" d="M23.018,427.963c16.576-1.9,24.18,2.338,24.18,2.338l112.686-31.426.475-.136-1.174-6.45-.2-1.125a53.586,53.586,0,0,0-12.192-1.736c-19.66-.786-41.62,6.663-49.35,9.563-1.843.689-2.881,1.125-2.881,1.125l-9.505-8.176Z" transform="translate(29.663 -385.15)" fill="#b84453"/>
                <path id="Trazado_1077129" data-name="Trazado 1077129" d="M214.223,399.982l.832,4.078-81.433,33.975S116.333,412.041,90,414.228l96.886-29.209S209.983,387.263,214.223,399.982Z" transform="translate(-89.997 -385.019)" fill="#ff6e70"/>
              </g>
              <path id="Trazado_1077130" data-name="Trazado 1077130" d="M23.019,403.885c1.038-.01,2.076.136,3.055.2,10.65-4.52,21.746-8.254,33.239-9.486,10.572-1.135,21.552-.048,31.232,4.258l.475-.136-1.174-6.45a59.112,59.112,0,0,0-12.4-2.861c-10.533-1.309-21.513-.087-31.92,2.347-6.072,1.426-12.318,3.424-17.43,7.216A26.4,26.4,0,0,0,23.019,403.885Z" transform="translate(99.001 -385.135)" fill="#ff6e70"/>
            </g>
            <g id="Grupo_1208638" data-name="Grupo 1208638" transform="translate(52.009 21.807)">
              <g id="Grupo_1208636" data-name="Grupo 1208636" transform="translate(79.7 12.104)">
                <path id="Trazado_1077131" data-name="Trazado 1077131" d="M114.391,420.3c1.4-1.927,1.267-4.608.458-6.85s-2.2-4.223-3.212-6.379-1.649-4.67-.837-6.911c.482-1.333,1.467-2.684,1.007-4.025-.52-1.517-2.572-1.872-4.112-1.421-3.163.926-5.3,4.035-6.014,7.253a36.384,36.384,0,0,0-.8,9.841c-1.926,2.017-3.853,3.785-5.779,5.8" transform="translate(-38.971 -389.995)" fill="#ffa382"/>
                <path id="Trazado_1077132" data-name="Trazado 1077132" d="M171.585,431.833a94.347,94.347,0,0,1-35.432,9.981c-15.178.763-31.51-7.989-39.869-21.925-.881-1.469-1.679-3.344-.8-4.812.914-1.522,3.2-1.627,4.747-.753s2.564,2.418,3.663,3.81,2.479,2.758,4.238,2.994c-1.829-2.622-3.694-5.321-4.461-8.424s-.2-6.747,2.219-8.834c-.851-.992-.49-3.8,1.149-4.892a5.319,5.319,0,0,1,5.581.3,19.878,19.878,0,0,1,4.225,4.09,48.892,48.892,0,0,0,26.189,15.342,37.491,37.491,0,0,1-8.922-25.619,4.4,4.4,0,0,1,.346-1.791,2.925,2.925,0,0,1,2.912-1.427,5.236,5.236,0,0,1,3,1.567c3.184,3.073,3.61,7.956,5.577,11.92a21.758,21.758,0,0,0,9.667,9.2,47.639,47.639,0,0,0,12.516,4.161A36.191,36.191,0,0,1,171.585,431.833Z" transform="translate(-95.103 -389.854)" fill="#ffa382"/>
                <g id="Grupo_1208635" data-name="Grupo 1208635" transform="translate(13.361 19.157)">
                  <path id="Trazado_1077133" data-name="Trazado 1077133" d="M157.5,426.822a38,38,0,0,1-20.4-17.217" transform="translate(-135.104 -409.605)" fill="none" stroke="#c43945" stroke-linecap="round" stroke-linejoin="round" stroke-miterlimit="10" stroke-width="2"/>
                  <path id="Trazado_1077134" data-name="Trazado 1077134" d="M159.917,429.971a17,17,0,0,1-8.518-7.346" transform="translate(-151.399 -409.996)" fill="none" stroke="#c43945" stroke-linecap="round" stroke-linejoin="round" stroke-miterlimit="10" stroke-width="2"/>
                </g>
              </g>
              <g id="Grupo_1208637" data-name="Grupo 1208637">
                <path id="Trazado_1077135" data-name="Trazado 1077135" d="M80.482,387.821l8.869-10.262a111.783,111.783,0,0,0-47.16,7.521c-6.965,2.735-14.31,6.925-16.838,13.876A192.46,192.46,0,0,1,80.482,387.821Z" transform="translate(134.484 -377.374)" fill="#fff"/>
                <path id="Trazado_1077136" data-name="Trazado 1077136" d="M23.288,425.881c.213-.039.427-.078.64-.107,33.627-5.849,65.751-10.727,97.875-15.606,9.059-12.512,23.686-24.646,42.784-21.678,8.041,1.251,15.8,7.459,19.224,14.423,18.885-11.6,43.1-14.064,65-6.867.107-3.026.2-6.052.31-9.078a79.428,79.428,0,0,0-65.5,9.748c-2.91-6.692-9.243-11.348-16.208-13.724-.892-.31-1.794-.572-2.706-.805-7.983-2.017-16.363-1.494-24.568-.805-33.317,2.832-67.148,8.691-96.382,24.927C35.354,410.983,26.973,416.987,23.288,425.881Z" transform="translate(-23.288 -377.476)" fill="#ebe0d8"/>
                <path id="Trazado_1077137" data-name="Trazado 1077137" d="M107.528,425.881c.213-.039.427-.078.64-.107,8.729-5.034,18.943-6.819,28.71-8.4q32.575-5.267,65.16-10.543c7.478-8.991,16.819-17.682,28.293-21.959a39.83,39.83,0,0,1,21.329-1.882c-.892-.31-1.794-.572-2.706-.805-7.983-2.017-16.363-1.494-24.568-.805-33.317,2.832-67.148,8.691-96.382,24.927C119.594,410.983,111.213,416.987,107.528,425.881Z" transform="translate(-107.528 -377.476)" fill="#fff"/>
              </g>
            </g>
          </g>
        </g>
        <g id="Grupo_1208654" data-name="Grupo 1208654" transform="translate(26.94 147.002)">
          <path id="Trazado_1077138" data-name="Trazado 1077138" d="M280.938,381.731l26.727,29.677-11.24,21.838L262.541,412.97Z" transform="translate(-142.728 -217.936)" fill="#ffa382"/>
          <g id="Grupo_1208643" data-name="Grupo 1208643" transform="translate(2.766 108.817)">
            <path id="Trazado_1077139" data-name="Trazado 1077139" d="M285.061,435.532l101.408,5.118,4.616-29.8,10.611,2.029c12.769-7,24.952-33.059,24.952-33.059S407.125,358.546,397.172,353c-3.6-2.02-11.836-3.254-21.287-3.775-16.653-.914-37.117.393-42.812,3.583-.713.4-1.417.832-2.12,1.289C302.93,372.356,285.061,435.532,285.061,435.532Z" transform="translate(-285.061 -323.933)" fill="#ff9e3d"/>
            <path id="Trazado_1077140" data-name="Trazado 1077140" d="M334.694,354.095c12.833,6.672,24.2,16.4,37.072,23.234,3.08,1.636,6.919,3.1,9.908,1.3,2.952-1.791,3.482-5.822,3.327-9.268a49,49,0,0,0-5.374-20.135c-16.653-.914-37.117.393-42.812,3.583C336.1,353.208,335.4,353.638,334.694,354.095Z" transform="translate(-288.802 -323.933)" fill="#de662a"/>
            <g id="Grupo_1208641" data-name="Grupo 1208641" transform="translate(51.12)">
              <path id="Trazado_1077141" data-name="Trazado 1077141" d="M336.981,348.972s34.906,25.528,39.887,20.538c4.588-4.579-.393-16.6-1.225-18.5-.073-.165-.11-.256-.11-.256l4.46-15.328L352.757,321.58l-.274.146-9.551,5.064Z" transform="translate(-336.981 -321.58)" fill="#ffa382"/>
              <path id="Trazado_1077142" data-name="Trazado 1077142" d="M336.981,321.726a35.634,35.634,0,0,0,23.161,29.284c-.073-.164-.11-.256-.11-.256l4.46-15.328L337.255,321.58Z" transform="translate(-321.479 -321.58)" fill="#eb7563"/>
            </g>
            <g id="Grupo_1208642" data-name="Grupo 1208642" transform="translate(105.846 40.23)">
              <path id="Trazado_1077143" data-name="Trazado 1077143" d="M321.326,365.6q-.973,23.407-4.156,46.651A69.944,69.944,0,0,0,321.326,365.6Z" transform="translate(-317.17 -365.595)" fill="#de662a"/>
              <path id="Trazado_1077144" data-name="Trazado 1077144" d="M321.574,375.366a54.455,54.455,0,0,1-12.688,31.726C318.543,401.111,323.911,388.907,321.574,375.366Z" transform="translate(-308.152 -366.435)" fill="#de662a"/>
            </g>
          </g>
          <g id="Grupo_1208651" data-name="Grupo 1208651" transform="translate(0 0)">
            <path id="Trazado_1077145" data-name="Trazado 1077145" d="M423.878,260.73a26.66,26.66,0,0,0-13.384-45.441,18.806,18.806,0,0,1,15.311,4.284c-4.877-9.678-15.432-15.764-26.216-16.849s-21.665,2.341-30.97,7.9-17.211,13.157-26.4,21.377a58.314,58.314,0,0,0-17.614,79.882,34.648,34.648,0,0,1,.66-17.974,36.692,36.692,0,0,0,21.813,31.412q-1.544-7.133-3.087-14.267a54.865,54.865,0,0,0,30.133,16.073c4.437-13.722,8.932-27.576,16.3-39.973S408.394,263.763,423.878,260.73Z" transform="translate(-315.727 -202.524)" fill="#4f2b36"/>
            <path id="Trazado_1077146" data-name="Trazado 1077146" d="M337.266,224.538a42.136,42.136,0,0,1,26.968,28.532,11.952,11.952,0,0,0-1.825-13.67,34.874,34.874,0,0,1,6.407,6.263,19.044,19.044,0,0,1,4.176,11.5,34.546,34.546,0,0,0,1.747,11.348c2,5.47,6.707,10.373,12.627,10.558a6.788,6.788,0,0,1,1.858.245c3.576,1.138,2.8,4.687,1.19,8.834a26.017,26.017,0,0,1,.373,6.925,92.874,92.874,0,0,1-17.877-2.742,19.6,19.6,0,0,0,3.429,12.6,21.735,21.735,0,0,0,10.926,7.936,73.587,73.587,0,0,1-4.563,14.126,10.491,10.491,0,0,1-9.746,6.179c-15.552-.246-31.808-2.183-42.047-17.435a7.488,7.488,0,0,1-5.523,4.872,17,17,0,0,1-7.646-.235c-6.5-1.379-13.323-4.721-15.636-10.952a12.817,12.817,0,0,1,4.809-14.7,12.15,12.15,0,0,1,15.732,2.417,64.949,64.949,0,0,0-6.189-33.368,37.254,37.254,0,0,1,7.317,16.683,29.292,29.292,0,0,0,5.683-20.091,29.8,29.8,0,0,0-9.386-18.87,31.309,31.309,0,0,1,12.982,23.486A21.29,21.29,0,0,0,349.9,246.908C350.88,238.139,345.569,229.034,337.266,224.538Z" transform="translate(-262.333 -204.417)" fill="#ffa382"/>
            <g id="Grupo_1208650" data-name="Grupo 1208650" transform="translate(43.889 39.688)">
              <path id="Trazado_1077147" data-name="Trazado 1077147" d="M350.432,249.937a12.784,12.784,0,0,0-21.19,13.586C333.1,256.212,341.137,251.308,350.432,249.937Z" transform="translate(-289.525 -245.947)" fill="#4f2b36"/>
              <g id="Grupo_1208646" data-name="Grupo 1208646" transform="translate(43.107 16.007)">
                <path id="Trazado_1077148" data-name="Trazado 1077148" d="M332.747,264.326c4.558-.79,8.336,4.353,10.365,10.073,1.575,4.439.585,10.511-.7,13.369-5.359.189-14.661-.954-19.042-3.821C322.745,277.025,325.387,265.6,332.747,264.326Z" transform="translate(-321.499 -263.528)" fill="#fff"/>
                <g id="Grupo_1208644" data-name="Grupo 1208644" transform="translate(12.516 5.099)">
                  <path id="Trazado_1077149" data-name="Trazado 1077149" d="M332.428,276.258c-1.451-4.7-4.681-7.882-7.212-7.1s-3.409,5.227-1.958,9.93,4.681,7.882,7.212,7.1S333.878,280.961,332.428,276.258Z" transform="translate(-322.557 -269.039)" fill="#4f2b36"/>
                  <path id="Trazado_1077150" data-name="Trazado 1077150" d="M329.4,273.55c-1.109-1.687-2.778-2.549-3.726-1.926s-.82,2.5.29,4.184,2.778,2.549,3.726,1.926S330.507,275.237,329.4,273.55Z" transform="translate(-322.018 -269.244)" fill="#fff"/>
                </g>
                <g id="Grupo_1208645" data-name="Grupo 1208645" transform="translate(0)">
                  <path id="Trazado_1077151" data-name="Trazado 1077151" d="M346.055,265.9c-4.618-4.491-12.853-2.361-16.188,2.875a15.473,15.473,0,0,0-1.848,13.128,18.417,18.417,0,0,0,1.67,3.989,54.453,54.453,0,0,1,.511-8.158c1.151-7.827,7.616-13.877,15.855-11.834Z" transform="translate(-327.336 -263.46)" fill="#4f2b36"/>
                </g>
              </g>
              <g id="Grupo_1208648" data-name="Grupo 1208648" transform="translate(29.828 38.396)">
                <ellipse id="Elipse_13559" data-name="Elipse 13559" cx="15.081" cy="11.883" rx="15.081" ry="11.883" transform="translate(29.397 29.911) rotate(-167.074)" fill="#eb6563"/>
                <g id="Grupo_1208647" data-name="Grupo 1208647" transform="translate(10.22 9.271)">
                  <path id="Trazado_1077152" data-name="Trazado 1077152" d="M333.409,302.172q1.2,2.72,2.4,5.442" transform="translate(-319.577 -298.449)" fill="none" stroke="#c43945" stroke-linecap="round" stroke-linejoin="round" stroke-miterlimit="10" stroke-width="2"/>
                  <path id="Trazado_1077153" data-name="Trazado 1077153" d="M343.072,298.1q.627,5.662,1.252,11.325" transform="translate(-336.929 -298.099)" fill="none" stroke="#c43945" stroke-linecap="round" stroke-linejoin="round" stroke-miterlimit="10" stroke-width="2"/>
                  <path id="Trazado_1077154" data-name="Trazado 1077154" d="M349.844,302.9q.6,2.013,1.206,4.024" transform="translate(-349.844 -298.512)" fill="none" stroke="#c43945" stroke-linecap="round" stroke-linejoin="round" stroke-miterlimit="10" stroke-width="2"/>
                </g>
              </g>
              <g id="Grupo_1208649" data-name="Grupo 1208649" transform="translate(0 55.409)">
                <path id="Trazado_1077155" data-name="Trazado 1077155" d="M374.191,311.354a10.616,10.616,0,0,1,18.363,2.377,6.684,6.684,0,0,1,.478,3.837,6.068,6.068,0,0,1-4.119,4.242,11.2,11.2,0,0,1-6.109.01,13.047,13.047,0,0,1-6.495-3.477C374.6,316.535,372.615,313.47,374.191,311.354Z" transform="translate(-373.616 -306.614)" fill="#eb7563"/>
                <path id="Trazado_1077156" data-name="Trazado 1077156" d="M373.911,311.184a10.272,10.272,0,0,1,10.535-4.384c3.854.893,7.152,4.4,8.2,8.725" transform="translate(-373.392 -306.57)" fill="none" stroke="#c43945" stroke-linecap="round" stroke-linejoin="round" stroke-miterlimit="10" stroke-width="2"/>
              </g>
            </g>
          </g>
          <g id="Grupo_1208653" data-name="Grupo 1208653" transform="translate(0.014 133.108)">
            <path id="Trazado_1077157" data-name="Trazado 1077157" d="M418.879,383.392s-16.893,28.651-16.119,43.256l30.383-6.263,6.378-19.367Z" transform="translate(-402.734 -351.187)" fill="#eb7563"/>
            <path id="Trazado_1077158" data-name="Trazado 1077158" d="M434.542,370.807s-5.519-21.662-22.3-22.635c-17.33-1.005-45.536,49.074-45.536,49.074s21.325,11.87,38.313,18.078C405.02,415.323,426.993,391.363,434.542,370.807Z" transform="translate(-364.827 -348.157)" fill="#ff9e3d"/>
            <g id="Grupo_1208652" data-name="Grupo 1208652" transform="translate(42.625 29.094)">
              <path id="Trazado_1077159" data-name="Trazado 1077159" d="M394.19,379.988c-3.3,15.9-13.234,29.5-22.914,42.539C383.347,412.917,391.535,398.564,394.19,379.988Z" transform="translate(-371.276 -379.988)" fill="#de662a"/>
              <path id="Trazado_1077160" data-name="Trazado 1077160" d="M387.219,388.22a55.9,55.9,0,0,1-20.6,27.924,27.062,27.062,0,0,0,15.306-10.232A28.421,28.421,0,0,0,387.219,388.22Z" transform="translate(-360.072 -380.696)" fill="#de662a"/>
            </g>
          </g>
        </g>
        <rect id="Rect치ngulo_417881" data-name="Rect치ngulo 417881" width="438" height="45.837" transform="translate(0 371.908)" fill="#d49950"/>
        <g id="Grupo_1208667" data-name="Grupo 1208667" transform="translate(26.788 307.368)">
          <g id="Grupo_1208657" data-name="Grupo 1208657" transform="translate(104.516 59.698)">
            <path id="Trazado_1077161" data-name="Trazado 1077161" d="M278.618,457.5l34.246,7.161v4.383l-42.678,5.189v1.488l-8.2.8-.421-1.545-57.372,6-54.28-17.453.708-5.677Z" transform="translate(-149.347 -444.516)" fill="#74a847"/>
            <g id="Grupo_1208656" data-name="Grupo 1208656">
              <path id="Trazado_1077162" data-name="Trazado 1077162" d="M291.013,457.418l22.453,2.029-.72,5.564s-34.178,2.822-42.813,5.7l-.468,1.72-4.631.642-.586-1.813s-47.057,2.374-58.6,5.78l-54.426-16.28-.867-4.281Z" transform="translate(-150.359 -444.428)" fill="#ebe0d8"/>
              <g id="Grupo_1208655" data-name="Grupo 1208655" transform="translate(0.001)">
                <path id="Trazado_1077163" data-name="Trazado 1077163" d="M317.75,465.3a582.241,582.241,0,0,0-65.47-15.375s-21.474-3.394-52.1,5.934l54.929,15.854A176.9,176.9,0,0,1,317.75,465.3Z" transform="translate(-200.18 -443.813)" fill="#fff"/>
                <path id="Trazado_1077164" data-name="Trazado 1077164" d="M197.724,461.413l21.033,3.368s23.488-8.5,45.945-6.243l-67.429-14.321s-23.54-4.709-47.361,7.137Z" transform="translate(-101.187 -443.294)" fill="#fff"/>
              </g>
              <path id="Trazado_1077165" data-name="Trazado 1077165" d="M264.482,465.665A450.61,450.61,0,0,0,199.639,450.1" transform="translate(-146.416 -443.88)" fill="none" stroke="#ebe0d8" stroke-linecap="round" stroke-linejoin="round" stroke-miterlimit="10" stroke-width="1"/>
            </g>
          </g>
          <g id="Grupo_1208659" data-name="Grupo 1208659" transform="translate(0 30.564)">
            <g id="Grupo_1208658" data-name="Grupo 1208658" transform="translate(71.849 7.634)">
              <path id="Trazado_1077166" data-name="Trazado 1077166" d="M297.966,433.758c8.863-8.021,26.155-13.987,32.135-13.987,7.9,0,25.067,11.386,27.911,18.582a5.026,5.026,0,0,1,.21,3.59,3.039,3.039,0,0,1-2.789,1.839,4.022,4.022,0,0,1-5.083,6.176c1.3,1.038.5,3.352-1.013,4.03s-3.279.24-4.864-.254a83.056,83.056,0,0,1-11.523-4.558,14.646,14.646,0,0,1,6.41,5.629,2.921,2.921,0,0,1,.574,2.228c-.465,1.67-2.885,1.476-4.518.89-6.852-2.457-13.57-5.287-20.3-7.91a30.709,30.709,0,0,1-21.339.175C295.232,444.312,296.689,438.435,297.966,433.758Z" transform="translate(-293.776 -419.771)" fill="#ffa382"/>
              <path id="Trazado_1077167" data-name="Trazado 1077167" d="M319.258,444.227A86.115,86.115,0,0,0,298.167,431.4" transform="translate(-258.58 -420.771)" fill="none" stroke="#c43945" stroke-linecap="round" stroke-linejoin="round" stroke-miterlimit="10" stroke-width="2"/>
              <path id="Trazado_1077168" data-name="Trazado 1077168" d="M323.432,451.269a63.6,63.6,0,0,0-20.543-10.9" transform="translate(-267.069 -421.542)" fill="none" stroke="#c43945" stroke-linecap="round" stroke-linejoin="round" stroke-miterlimit="10" stroke-width="2"/>
              <path id="Trazado_1077169" data-name="Trazado 1077169" d="M331.875,452.751a49.65,49.65,0,0,0-11.058-5.039" transform="translate(-291.899 -422.174)" fill="none" stroke="#c43945" stroke-linecap="round" stroke-linejoin="round" stroke-miterlimit="10" stroke-width="2"/>
            </g>
            <path id="Trazado_1077170" data-name="Trazado 1077170" d="M435.569,432.867c-18.062-6.755-36.124-13.51-54.961-20.282a19.2,19.2,0,0,0-21.824,6.23,19.54,19.54,0,0,0-2.892,5.4,20.15,20.15,0,0,0-.472,11.168,15.783,15.783,0,0,0,13.61,11.836,378.841,378.841,0,0,0,61.1,2.2C432.4,444.643,434.664,439.863,435.569,432.867Z" transform="translate(-354.85 -411.419)" fill="#ffa382"/>
          </g>
          <g id="Grupo_1208666" data-name="Grupo 1208666" transform="translate(150.203 0)">
            <g id="Grupo_1208665" data-name="Grupo 1208665" transform="translate(27.149)">
              <g id="Grupo_1208661" data-name="Grupo 1208661" transform="translate(0 29.36)">
                <path id="Trazado_1077171" data-name="Trazado 1077171" d="M198,424.884c5.64-4.841,16.04-10.539,26.043-14.08a12.547,12.547,0,0,1,13.159,3.161,40.9,40.9,0,0,1,6.79,9.314,4.256,4.256,0,0,1-.417,4.813,3.62,3.62,0,0,1-1.091.845,30.879,30.879,0,0,1-.346,7.2,9.656,9.656,0,0,1-4.288,6.388c-.047.031-.094.062-.14.094-.048.728-.131,1.452-.247,2.167a7.827,7.827,0,0,1-5.8,6.229q-2.339.613-4.7,1.168c-5.473,1.293-11.832-1.289-13.782-6.264a4.547,4.547,0,0,1-.116-2.911c-4.891.793-10.257-.548-13.674-4.136S194.134,428.2,198,424.884Z" transform="translate(-195.836 -410.102)" fill="#ffa382"/>
                <g id="Grupo_1208660" data-name="Grupo 1208660" transform="translate(17.851 28.033)">
                  <path id="Trazado_1077172" data-name="Trazado 1077172" d="M227.216,446.143,210.008,448.7c-1.92.285-4.257.409-5.4-1.162-1.015-1.395-.415-3.479.849-4.652a10.761,10.761,0,0,1,4.665-2.112" transform="translate(-203.911 -440.773)" fill="none" stroke="#c43945" stroke-linecap="round" stroke-linejoin="round" stroke-miterlimit="10" stroke-width="2"/>
                  <path id="Trazado_1077173" data-name="Trazado 1077173" d="M228.131,454.662,217.858,452.6A9.149,9.149,0,0,1,214,451.2a3.131,3.131,0,0,1-1.173-3.646" transform="translate(-212.598 -441.356)" fill="none" stroke="#c43945" stroke-linecap="round" stroke-linejoin="round" stroke-miterlimit="10" stroke-width="2"/>
                </g>
              </g>
              <g id="Grupo_1208663" data-name="Grupo 1208663" transform="translate(22.654)">
                <path id="Trazado_1077174" data-name="Trazado 1077174" d="M207.107,444.424l15.107-64.961-7.352-1.483-15.107,64.962Z" transform="translate(-199.746 -377.979)" fill="#ffca75"/>
                <g id="Grupo_1208662" data-name="Grupo 1208662" transform="translate(0 64.96)">
                  <path id="Trazado_1077175" data-name="Trazado 1077175" d="M216.294,449.051l.237,5.15.4,8.694,3.864-7.115,2.854-5.245Z" transform="translate(-216.294 -449.051)" fill="#ffca75"/>
                  <path id="Trazado_1077176" data-name="Trazado 1077176" d="M219.416,454.686l.4,8.694,3.865-7.115A9,9,0,0,0,219.416,454.686Z" transform="translate(-219.179 -449.536)" fill="#4f2b36"/>
                </g>
              </g>
              <g id="Grupo_1208664" data-name="Grupo 1208664" transform="translate(11.549 35.606)">
                <path id="Trazado_1077177" data-name="Trazado 1077177" d="M213.309,430.509a81.543,81.543,0,0,0-6.417,6.282c-1.648,2.054-3.141,6.552-5.2,6.552s-3.5-1.462-2.162-7.7,6.417-10.672,6.417-10.672" transform="translate(-179.056 -417.626)" fill="#ffa382" stroke="#c43945" stroke-linecap="round" stroke-linejoin="round" stroke-miterlimit="10" stroke-width="2"/>
                <path id="Trazado_1077178" data-name="Trazado 1077178" d="M219.817,416.935s5.636,2.1,7.126,3.763,1.985,6.236,3.924,10.65c1.433,3.264,4.118,5.3,3.364,7.367-.983,2.694-7.722,3.714-13.742-6.412,0,0-3.284,4.54-8.722,4.718" transform="translate(-211.766 -416.935)" fill="#ffa382" stroke="#c43945" stroke-linecap="round" stroke-linejoin="round" stroke-miterlimit="10" stroke-width="2"/>
              </g>
            </g>
            <path id="Trazado_1077179" data-name="Trazado 1077179" d="M273.091,420.9c-15.632-2.648-17.7-9.485-28.436-9.485-12.208,0-13.624,18-9.594,23.1s35.08,7.9,35.08,7.9S278.445,421.81,273.091,420.9Z" transform="translate(-233.04 -380.855)" fill="#ffa382"/>
          </g>
        </g>
      </g>
    </g>
  </g>
</svg>
