<svg xmlns="http://www.w3.org/2000/svg" xmlns:xlink="http://www.w3.org/1999/xlink" width="293" height="249" viewBox="0 0 293 249">
  <defs>
    <clipPath id="clip-path">
      <rect id="Rectángulo_415810" data-name="Rectángulo 415810" width="293" height="249" transform="translate(169.103 7969.223)" fill="#fff" stroke="#707070" stroke-width="1"/>
    </clipPath>
  </defs>
  <g id="Enmascarar_grupo_1098826" data-name="Enmascarar grupo 1098826" transform="translate(-169.103 -7969.223)" clip-path="url(#clip-path)">
    <g id="Grupo_1180631" data-name="Grupo 1180631" transform="translate(187.55 7980.737)">
      <path id="Trazado_1077323" data-name="Trazado 1077323" d="M131.727,0c72.751,0,131.727,54.222,131.727,121.109S204.478,242.217,131.727,242.217,0,188,0,121.109,58.976,0,131.727,0Z" transform="translate(0 34.763)" fill="#effbfe"/>
      <g id="OBJECTS" transform="translate(11.255)">
        <g id="Grupo_1180535" data-name="Grupo 1180535" transform="translate(53.493 3.26)">
          <g id="Grupo_1180531" data-name="Grupo 1180531" transform="translate(9.662 2.158)">
            <path id="Trazado_1043443" data-name="Trazado 1043443" d="M159.244,64.115a62.9,62.9,0,0,1,6.511,13.57,31.206,31.206,0,0,1,1.527,7.43,13.306,13.306,0,0,1-.275,3.855,4.728,4.728,0,0,1-6.146,3.815,13.323,13.323,0,0,1-3.586-1.464,31.513,31.513,0,0,1-6-4.665,65.529,65.529,0,0,1-15.764-25.493,31.514,31.514,0,0,1-1.49-7.453,13.323,13.323,0,0,1,.3-3.865,4.735,4.735,0,0,1,6.169-3.8,13.316,13.316,0,0,1,3.574,1.479,31.077,31.077,0,0,1,5.957,4.7A62.943,62.943,0,0,1,159.268,64.1Zm-.53.328A62.24,62.24,0,0,0,149.46,52.8a31.006,31.006,0,0,0-5.829-4.521,12.437,12.437,0,0,0-3.335-1.367,3.85,3.85,0,0,0-5.087,3.16,12.435,12.435,0,0,0-.25,3.588,30.585,30.585,0,0,0,1.484,7.211,62.657,62.657,0,0,0,6.358,13.41,62.089,62.089,0,0,0,9.146,11.688,30.584,30.584,0,0,0,5.788,4.553,12.458,12.458,0,0,0,3.323,1.382,3.857,3.857,0,0,0,5.11-3.143,12.433,12.433,0,0,0,.269-3.6,30.888,30.888,0,0,0-1.446-7.234,62.231,62.231,0,0,0-6.252-13.5Z" transform="translate(-133.996 -45.873)" fill="#3c3c3b"/>
          </g>
          <g id="Grupo_1180532" data-name="Grupo 1180532" transform="translate(13.255)">
            <path id="Trazado_1043444" data-name="Trazado 1043444" d="M162.869,71.07a62.913,62.913,0,0,1-6.357,13.643,31.173,31.173,0,0,1-4.773,5.895,13.277,13.277,0,0,1-3.155,2.234,4.728,4.728,0,0,1-6.848-2.33,13.32,13.32,0,0,1-1.145-3.7,31.481,31.481,0,0,1-.2-7.6,65.537,65.537,0,0,1,9.7-28.36,31.487,31.487,0,0,1,4.815-5.881,13.321,13.321,0,0,1,3.174-2.224,4.735,4.735,0,0,1,6.849,2.358,13.29,13.29,0,0,1,1.124,3.7,31.078,31.078,0,0,1,.15,7.584A62.966,62.966,0,0,1,162.9,71.078Zm-.589-.2a62.23,62.23,0,0,0,3.129-14.542,31,31,0,0,0-.2-7.374,12.443,12.443,0,0,0-1.06-3.445,3.851,3.851,0,0,0-5.671-1.927,12.422,12.422,0,0,0-2.931,2.084,30.605,30.605,0,0,0-4.632,5.723,67.209,67.209,0,0,0-9.56,27.909,30.583,30.583,0,0,0,.154,7.362,12.437,12.437,0,0,0,1.041,3.445,3.857,3.857,0,0,0,5.671,1.956,12.453,12.453,0,0,0,2.951-2.074,30.908,30.908,0,0,0,4.674-5.709,62.246,62.246,0,0,0,6.466-13.4Z" transform="translate(-140.256 -42.113)" fill="#3c3c3b"/>
          </g>
          <g id="Grupo_1180533" data-name="Grupo 1180533" transform="translate(0 13.152)">
            <path id="Trazado_1043445" data-name="Trazado 1043445" d="M144.953,85.066a62.245,62.245,0,0,0,14.5-3.319,30.891,30.891,0,0,0,6.607-3.284,12.43,12.43,0,0,0,2.679-2.415,3.858,3.858,0,0,0-.643-5.965,12.444,12.444,0,0,0-3.126-1.782,30.605,30.605,0,0,0-7.143-1.79,67.212,67.212,0,0,0-29.338,3.1,30.6,30.6,0,0,0-6.611,3.24,12.422,12.422,0,0,0-2.684,2.393,3.85,3.85,0,0,0,.615,5.958,12.447,12.447,0,0,0,3.122,1.8,31.006,31.006,0,0,0,7.144,1.842,62.25,62.25,0,0,0,14.874.19Zm.065.62a62.962,62.962,0,0,1-15.054-.047A31.078,31.078,0,0,1,122.6,83.8a13.3,13.3,0,0,1-3.357-1.921,4.735,4.735,0,0,1-.773-7.2,13.327,13.327,0,0,1,2.876-2.6,31.541,31.541,0,0,1,6.806-3.384,65.54,65.54,0,0,1,29.809-3.137,31.5,31.5,0,0,1,7.361,1.888,13.319,13.319,0,0,1,3.353,1.94,4.728,4.728,0,0,1,.745,7.2,13.291,13.291,0,0,1-2.881,2.577,31.18,31.18,0,0,1-6.81,3.339,62.913,62.913,0,0,1-14.717,3.157Z" transform="translate(-117.162 -65.028)" fill="#3c3c3b"/>
          </g>
          <g id="Grupo_1180534" data-name="Grupo 1180534" transform="translate(4.519 6.421)">
            <path id="Trazado_1043446" data-name="Trazado 1043446" d="M163.4,80.251a3.407,3.407,0,1,1-4.689-1.107A3.407,3.407,0,0,1,163.4,80.251Z" transform="translate(-138.692 -64.094)" fill="#c361a2"/>
            <path id="Trazado_1043447" data-name="Trazado 1043447" d="M185.072,54.3a2.112,2.112,0,1,1-2.907-.686A2.112,2.112,0,0,1,185.072,54.3Z" transform="translate(-148.947 -53.301)" fill="#c361a2"/>
            <path id="Trazado_1043448" data-name="Trazado 1043448" d="M159.792,124.055a1.693,1.693,0,1,1-2.33-.55A1.694,1.694,0,0,1,159.792,124.055Z" transform="translate(-138.507 -83.102)" fill="#c361a2"/>
            <path id="Trazado_1043449" data-name="Trazado 1043449" d="M128.689,73.326a1.974,1.974,0,1,1-2.718-.642A1.974,1.974,0,0,1,128.689,73.326Z" transform="translate(-125.035 -61.433)" fill="#c361a2"/>
          </g>
        </g>
        <g id="Grupo_1180560" data-name="Grupo 1180560" transform="translate(0 96.894)">
          <path id="Trazado_1043450" data-name="Trazado 1043450" d="M23.965,220.685a3.4,3.4,0,0,0,2.221,1.634,2.248,2.248,0,0,0,1.8-.9,6.4,6.4,0,0,0,.946-1.851c.021-.056.077-.315.038-.27l11.777,4.234s-.4,9.407,5.782,15.523c14.007,13.864,25.922,1.985,27.655-.117,4.153-5.041,5.535-14.253,3.2-20.351a18.952,18.952,0,0,0-14.573-11.714c-6.458-.973-12.894.86-18.4,7.635l-12.073-4.579a2.143,2.143,0,0,0,.3-.9,3.579,3.579,0,0,0,.137-1.113,3.181,3.181,0,0,0-.559-1.388,3.1,3.1,0,0,0-.91-1.014,1.812,1.812,0,0,0-1.736-.087Z" transform="translate(-23.965 -205.248)" fill="#8cd2f5"/>
          <path id="Trazado_1043451" data-name="Trazado 1043451" d="M73.114,242.8c10.255,6.521,17.815-1.215,19.143-2.672,3.73-4.095,5.289-11.84,3.565-17.1a16.073,16.073,0,0,0-11.851-10.536" transform="translate(-44.904 -208.332)" fill="#cf7fb3"/>
          <path id="Trazado_1043452" data-name="Trazado 1043452" d="M82.975,212.267c2.039.717,1.294,8.108-1.665,16.506S74.3,243.4,72.26,242.682s-1.294-8.108,1.665-16.506S80.936,211.549,82.975,212.267Z" transform="translate(-44.05 -208.214)" fill="#c361a2"/>
          <path id="Trazado_1043453" data-name="Trazado 1043453" d="M83.05,210.942a4.886,4.886,0,0,1,2.695,1.376,2.07,2.07,0,0,1,.029,2.78,3.268,3.268,0,0,1-2.406.472,16.271,16.271,0,0,0-3.726.143c-2.486.44-4.721,1.763-7.136,2.5-1.928.587-4.153.2-4.047-2.236a3.842,3.842,0,0,1,2.29-3.524A19.423,19.423,0,0,1,83.05,210.942Z" transform="translate(-42.92 -207.493)" fill="#fff" opacity="0.49"/>
          <g id="Grupo_1180542" data-name="Grupo 1180542" transform="translate(28.038 6.046)">
            <g id="Grupo_1180536" data-name="Grupo 1180536" transform="translate(1.931 0.729)">
              <path id="Trazado_1043454" data-name="Trazado 1043454" d="M85.189,217.051a18.271,18.271,0,0,1-.868,6.648c-.591,2.162-1.255,4.307-2.041,6.407s-1.669,4.166-2.648,6.186a51.862,51.862,0,0,1-3.331,5.844l-.122-.075c1.094-1.953,2.177-3.906,3.155-5.915q1.5-3,2.706-6.13c.815-2.081,1.524-4.2,2.134-6.357a18.127,18.127,0,0,0,.873-6.593Z" transform="translate(-76.178 -217.051)" fill="#fff"/>
            </g>
            <g id="Grupo_1180537" data-name="Grupo 1180537" transform="translate(4.28)">
              <path id="Trazado_1043455" data-name="Trazado 1043455" d="M85.7,215.923a1.474,1.474,0,0,0-1.029.707c-.27.357-.522.728-.757,1.11a23,23,0,0,0-1.23,2.393c-.739,1.639-1.4,3.317-2.284,4.895l-.13-.057c.292-.856.657-1.681,1.022-2.5s.751-1.638,1.162-2.443a25.547,25.547,0,0,1,1.333-2.362c.242-.383.5-.755.777-1.114a1.665,1.665,0,0,1,1.132-.765Z" transform="translate(-80.271 -215.781)" fill="#fff"/>
            </g>
            <g id="Grupo_1180538" data-name="Grupo 1180538" transform="translate(0 12.424)">
              <path id="Trazado_1043456" data-name="Trazado 1043456" d="M76.1,237.472c-.726,2.124-1.34,4.285-1.868,6.465-.265,1.089-.517,2.182-.765,3.275-.117.547-.276,1.093-.347,1.629a1.931,1.931,0,0,0,.281,1.52l-.1.1a1.5,1.5,0,0,1-.43-.773,3.014,3.014,0,0,1-.045-.878,15.268,15.268,0,0,1,.319-1.671q.38-1.644.843-3.266c.614-2.163,1.285-4.308,1.98-6.445Z" transform="translate(-72.814 -237.427)" fill="#fff"/>
            </g>
            <g id="Grupo_1180539" data-name="Grupo 1180539" transform="translate(7.623 2.838)">
              <path id="Trazado_1043457" data-name="Trazado 1043457" d="M88.1,220.738a25.9,25.9,0,0,1-.655,3.629,17.167,17.167,0,0,1-1.217,3.474l-.134-.048c.272-1.2.735-2.333,1.107-3.5a15.042,15.042,0,0,0,.758-3.571Z" transform="translate(-86.095 -220.725)" fill="#fff"/>
            </g>
            <g id="Grupo_1180540" data-name="Grupo 1180540" transform="translate(2.322 11.705)">
              <path id="Trazado_1043458" data-name="Trazado 1043458" d="M81.429,236.219c-.6,1.776-1.239,3.54-1.941,5.281a30.222,30.222,0,0,1-2.5,5.039l-.126-.068c.757-1.716,1.62-3.368,2.392-5.073a46.6,46.6,0,0,0,2.041-5.224Z" transform="translate(-76.86 -236.174)" fill="#fff"/>
            </g>
            <g id="Grupo_1180541" data-name="Grupo 1180541" transform="translate(3.663 4.683)">
              <path id="Trazado_1043459" data-name="Trazado 1043459" d="M83.471,224c-.825,1.718-1.55,3.483-2.2,5.273s-1.231,3.6-1.941,5.374l-.136-.042a34.756,34.756,0,0,1,1.838-5.424c.733-1.764,1.512-3.506,2.309-5.241Z" transform="translate(-79.195 -223.94)" fill="#fff"/>
            </g>
          </g>
          <path id="Trazado_1043460" data-name="Trazado 1043460" d="M33.4,222.506a63.573,63.573,0,0,0,2.578-7.963,6.83,6.83,0,0,1-.192,5.65,4.4,4.4,0,0,1-.845,1.291A3.61,3.61,0,0,1,33.4,222.506Z" transform="translate(-27.983 -209.208)" fill="#8cd2f5" opacity="0.63"/>
          <g id="Grupo_1180544" data-name="Grupo 1180544" transform="translate(43.213 11.607)">
            <g id="Grupo_1180543" data-name="Grupo 1180543" transform="translate(0)">
              <path id="Trazado_1043461" data-name="Trazado 1043461" d="M100.521,227.1l.12-.059a.869.869,0,0,0,.3-1.153l-.132-.17a.835.835,0,0,0-.372-.216l-.224-.03a.845.845,0,0,0-.425.115l-.121.059a.869.869,0,0,0-.3,1.153l.131.17a.835.835,0,0,0,.372.216l.224.03a.833.833,0,0,0,.426-.114Z" transform="translate(-99.252 -225.469)" fill="#fff"/>
            </g>
          </g>
          <g id="Grupo_1180546" data-name="Grupo 1180546" transform="translate(46.242 14.386)">
            <g id="Grupo_1180545" data-name="Grupo 1180545" transform="translate(0)">
              <path id="Trazado_1043462" data-name="Trazado 1043462" d="M104.586,230.946l.059.12a.321.321,0,0,0,.108.118.312.312,0,0,0,.143.075.316.316,0,0,0,.168.008.32.32,0,0,0,.157-.05l.086-.066a.421.421,0,0,0,.108-.186c.005-.037.01-.075.015-.112a.417.417,0,0,0-.057-.212l-.059-.12a.321.321,0,0,0-.108-.118.312.312,0,0,0-.143-.075.316.316,0,0,0-.168-.007.32.32,0,0,0-.157.05l-.085.066a.421.421,0,0,0-.108.186c-.005.037-.01.075-.015.112a.418.418,0,0,0,.057.212Z" transform="translate(-104.529 -230.312)" fill="#fff"/>
            </g>
          </g>
          <g id="Grupo_1180548" data-name="Grupo 1180548" transform="translate(43.452 15.134)">
            <g id="Grupo_1180547" data-name="Grupo 1180547" transform="translate(0)">
              <path id="Trazado_1043463" data-name="Trazado 1043463" d="M100.5,232.237l.031-.09a.316.316,0,0,0,.007-.168.308.308,0,0,0-.05-.157.321.321,0,0,0-.108-.118.312.312,0,0,0-.143-.075l-.112-.015a.418.418,0,0,0-.212.057l-.085.066a.424.424,0,0,0-.108.186l-.031.09a.316.316,0,0,0-.007.168.308.308,0,0,0,.05.157.321.321,0,0,0,.108.118.312.312,0,0,0,.143.075l.112.015a.418.418,0,0,0,.212-.057l.086-.066a.422.422,0,0,0,.108-.186Z" transform="translate(-99.668 -231.614)" fill="#fff"/>
            </g>
          </g>
          <g id="Grupo_1180550" data-name="Grupo 1180550" transform="translate(34.824 31.841)">
            <g id="Grupo_1180549" data-name="Grupo 1180549">
              <path id="Trazado_1043464" data-name="Trazado 1043464" d="M85.044,261.564a.421.421,0,0,0,0-.842.421.421,0,0,0,0,.842Z" transform="translate(-84.637 -260.722)" fill="#fff"/>
            </g>
          </g>
          <g id="Grupo_1180552" data-name="Grupo 1180552" transform="translate(37.227 33.57)">
            <g id="Grupo_1180551" data-name="Grupo 1180551">
              <path id="Trazado_1043465" data-name="Trazado 1043465" d="M89.23,264.578a.422.422,0,0,0,0-.843.422.422,0,0,0,0,.843Z" transform="translate(-88.823 -263.735)" fill="#fff"/>
            </g>
          </g>
          <g id="Grupo_1180554" data-name="Grupo 1180554" transform="translate(38.246 30.622)">
            <g id="Grupo_1180553" data-name="Grupo 1180553">
              <path id="Trazado_1043466" data-name="Trazado 1043466" d="M91.005,259.441a.422.422,0,0,0,0-.843.422.422,0,0,0,0,.843Z" transform="translate(-90.598 -258.598)" fill="#fff"/>
            </g>
          </g>
          <path id="Trazado_1043467" data-name="Trazado 1043467" d="M64.371,231.68c2.277,1.135,3.277,3.771,4.75,5.845a13.084,13.084,0,0,0,6.236,4.715,8.181,8.181,0,0,0,4.938.349c1.718-.491,3.118-1.726,4.747-2.461s3.863-.794,4.891.668c1.054,1.5.2,3.578-.858,5.072a22.1,22.1,0,0,1-8.113,6.915,14.037,14.037,0,0,1-3.869,1.355,13.381,13.381,0,0,1-3.764.054,18.306,18.306,0,0,1-12.226-6.6,16.009,16.009,0,0,1-3.443-10.61c.086-1.715.02-3.518,1.46-4.655A5.065,5.065,0,0,1,64.371,231.68Z" transform="translate(-38.312 -216.311)" fill="#8cd2f5" opacity="0.27"/>
          <g id="Grupo_1180559" data-name="Grupo 1180559" transform="translate(8.908 12.132)">
            <g id="Grupo_1180555" data-name="Grupo 1180555">
              <path id="Trazado_1043468" data-name="Trazado 1043468" d="M39.5,228.381c.176-.319.357-.624.506-.948s.286-.65.431-.983a.106.106,0,0,1,.2.052,3.355,3.355,0,0,1-.333,1.079,3.48,3.48,0,0,1-.655.918.1.1,0,0,1-.137,0A.1.1,0,0,1,39.5,228.381Z" transform="translate(-39.485 -226.385)" fill="#fff"/>
            </g>
            <g id="Grupo_1180556" data-name="Grupo 1180556" transform="translate(2.229 0.799)">
              <path id="Trazado_1043469" data-name="Trazado 1043469" d="M43.372,229.977a10.159,10.159,0,0,1,.448-1.1,9.253,9.253,0,0,1,.57-1.047.106.106,0,0,1,.189.09,9.3,9.3,0,0,1-.456,1.1,10.118,10.118,0,0,1-.578,1.043.1.1,0,0,1-.134.028A.1.1,0,0,1,43.372,229.977Z" transform="translate(-43.368 -227.777)" fill="#fff"/>
            </g>
            <g id="Grupo_1180557" data-name="Grupo 1180557" transform="translate(4.884 1.74)">
              <path id="Trazado_1043470" data-name="Trazado 1043470" d="M48,231.493a8.443,8.443,0,0,1,.339-1.037,7.748,7.748,0,0,1,.463-.987.106.106,0,0,1,.195.078,7.715,7.715,0,0,1-.347,1.033,8.439,8.439,0,0,1-.472.983.1.1,0,0,1-.178-.071Z" transform="translate(-47.995 -229.417)" fill="#fff"/>
            </g>
            <g id="Grupo_1180558" data-name="Grupo 1180558" transform="translate(7.459 2.786)">
              <path id="Trazado_1043471" data-name="Trazado 1043471" d="M52.482,233.263a7.694,7.694,0,0,1,.272-1.006,7.044,7.044,0,0,1,.4-.963.107.107,0,0,1,.2.069,7.111,7.111,0,0,1-.28,1,7.8,7.8,0,0,1-.408.96.1.1,0,0,1-.182-.063Z" transform="translate(-52.481 -231.239)" fill="#fff"/>
            </g>
          </g>
        </g>
        <g id="Grupo_1180563" data-name="Grupo 1180563" transform="translate(171.756 19.931)">
          <g id="Grupo_1180561" data-name="Grupo 1180561">
            <path id="Trazado_1043472" data-name="Trazado 1043472" d="M388.551,88.66l-3.675,8.978-33.645-13.83,5.265-9.923Z" transform="translate(-335.145 -72.32)" fill="#fff"/>
            <path id="Trazado_1043473" data-name="Trazado 1043473" d="M378.012,87.018s-27.5-16.1-31.555-15.857-6.38,5.516-6.38,5.516-15.052,27.795-16.716,34.9,10.554,10.694,10.554,10.694L355.106,132q9.241-18.989,19.9-37.244L348.979,81.406s-6.453-3.654-4-6.283c0,0,.888-1.983,6.737,1.156s25.122,13.26,25.122,13.26Z" transform="translate(-323.205 -71.158)" fill="#4867ae"/>
          </g>
          <g id="Grupo_1180562" data-name="Grupo 1180562" transform="translate(2.686 8.401)">
            <path id="Trazado_1043474" data-name="Trazado 1043474" d="M345.59,85.945q-2.111,4.472-4.273,8.92l-4.308,8.9-4.377,8.868-2.19,4.433-2.225,4.416-.333-.163,2.121-4.467,2.157-4.45,4.317-8.9,4.386-8.864q2.181-4.438,4.421-8.847Z" transform="translate(-327.884 -85.795)" fill="#3c3c3b"/>
          </g>
          <path id="Trazado_1043475" data-name="Trazado 1043475" d="M358.684,104.5c-1.4,1.943-3.1,3.7-4.069,5.894-1.422,3.227-1.041,6.99.045,10.346s2.829,6.457,4.148,9.728a8.153,8.153,0,0,1,.738,2.946,3.176,3.176,0,0,1-1.229,2.664,3.3,3.3,0,0,1-2.768.281,12.014,12.014,0,0,1-2.57-1.273c-3.388-1.966-7.076-3.346-10.639-4.973a17.143,17.143,0,0,1-4.847-2.98,6.709,6.709,0,0,1-2.26-5.058,10.123,10.123,0,0,1,1.106-3.535A179.284,179.284,0,0,1,347.419,97a18.9,18.9,0,0,1,2.451-3.28,3.185,3.185,0,0,1,2.586-1.186,3.691,3.691,0,0,1,1.332.6l4.693,2.922c1.771,1.1,2.632,1.5,2.333,3.708A10.856,10.856,0,0,1,358.684,104.5Z" transform="translate(-328.326 -80.255)" fill="#4867ae" opacity="0.26"/>
          <line id="Línea_725" data-name="Línea 725" x2="25.507" y2="13.455" transform="translate(25.075 4.591)" fill="none" stroke="#3c3c3b" stroke-miterlimit="10" stroke-width="0.25"/>
          <line id="Línea_726" data-name="Línea 726" x2="27.026" y2="14.257" transform="translate(23.229 5.011)" fill="none" stroke="#3c3c3b" stroke-miterlimit="10" stroke-width="0.25"/>
          <line id="Línea_727" data-name="Línea 727" x2="26.495" y2="14.169" transform="translate(23.236 6.307)" fill="none" stroke="#3c3c3b" stroke-miterlimit="10" stroke-width="0.25"/>
          <line id="Línea_728" data-name="Línea 728" x2="26.07" y2="13.752" transform="translate(23.229 7.739)" fill="none" stroke="#3c3c3b" stroke-miterlimit="10" stroke-width="0.25"/>
        </g>
        <g id="Grupo_1180575" data-name="Grupo 1180575" transform="translate(184.155 99.765)">
          <path id="Trazado_1043476" data-name="Trazado 1043476" d="M390.959,217.545c-25.573-20.853-46.152,9.623-46.152,9.623l44.9,37.293S413.929,236.275,390.959,217.545ZM383.3,248.008l-22.14-18.391s10.148-15.029,22.76-4.746C395.25,234.109,383.3,248.008,383.3,248.008Z" transform="translate(-344.807 -210.249)" fill="#1ab2bf"/>
          <g id="Grupo_1180574" data-name="Grupo 1180574" transform="translate(5.7 17.13)">
            <g id="Grupo_1180564" data-name="Grupo 1180564">
              <path id="Trazado_1043477" data-name="Trazado 1043477" d="M356.258,240.352a3.812,3.812,0,0,1-.487.889c-.1.131-.2.265-.318.389a2.62,2.62,0,0,1-.378.344.214.214,0,0,1-.327-.243,2.55,2.55,0,0,1,.22-.461c.086-.144.184-.28.28-.417a3.809,3.809,0,0,1,.71-.723.2.2,0,0,1,.3.222Z" transform="translate(-354.738 -240.094)" fill="#3c3c3b"/>
            </g>
            <g id="Grupo_1180565" data-name="Grupo 1180565" transform="translate(3.899 3.426)">
              <path id="Trazado_1043478" data-name="Trazado 1043478" d="M363.2,246.3a2.964,2.964,0,0,1-.506,1.024,4.187,4.187,0,0,1-.383.425,2.282,2.282,0,0,1-.465.34.212.212,0,0,1-.285-.29l0,0a4.98,4.98,0,0,1,.3-.449l.317-.418a10.416,10.416,0,0,1,.7-.808l0,0a.194.194,0,0,1,.324.183Z" transform="translate(-361.531 -246.063)" fill="#3c3c3b"/>
            </g>
            <g id="Grupo_1180566" data-name="Grupo 1180566" transform="translate(8.103 6.779)">
              <path id="Trazado_1043479" data-name="Trazado 1043479" d="M370.661,252.119a2.278,2.278,0,0,1-.516,1.13,2.83,2.83,0,0,1-.461.428,1.9,1.9,0,0,1-.561.28.211.211,0,0,1-.26-.146.214.214,0,0,1,.052-.2l.378-.39c.123-.126.245-.251.355-.388.241-.257.432-.546.665-.843l0-.005a.193.193,0,0,1,.344.141Z" transform="translate(-368.855 -251.904)" fill="#3c3c3b"/>
            </g>
            <g id="Grupo_1180567" data-name="Grupo 1180567" transform="translate(12.542 10.125)">
              <path id="Trazado_1043480" data-name="Trazado 1043480" d="M378.174,257.94a2.03,2.03,0,0,1-.417,1.034,2.567,2.567,0,0,1-.4.4,1.647,1.647,0,0,1-.495.269.212.212,0,0,1-.234-.329l.006-.007c.1-.135.21-.251.309-.373s.2-.235.3-.36c.205-.236.368-.5.58-.76l0-.006a.195.195,0,0,1,.346.133Z" transform="translate(-376.589 -257.734)" fill="#3c3c3b"/>
            </g>
            <g id="Grupo_1180568" data-name="Grupo 1180568" transform="translate(15.789 13.57)">
              <path id="Trazado_1043481" data-name="Trazado 1043481" d="M383.9,263.94a2.212,2.212,0,0,1-.432,1.115,2.769,2.769,0,0,1-.418.438,1.817,1.817,0,0,1-.523.3.211.211,0,0,1-.238-.328l.005-.007c.111-.144.227-.27.335-.4s.22-.257.317-.395c.217-.261.386-.548.6-.843l0-.005a.194.194,0,0,1,.35.124Z" transform="translate(-382.247 -263.736)" fill="#3c3c3b"/>
            </g>
            <g id="Grupo_1180569" data-name="Grupo 1180569" transform="translate(20.499 16.296)">
              <path id="Trazado_1043482" data-name="Trazado 1043482" d="M391.882,268.67a2.8,2.8,0,0,1-.288,1.257,3.605,3.605,0,0,1-.344.552,2.274,2.274,0,0,1-.466.452.21.21,0,0,1-.311-.262l0,0c.086-.183.182-.35.27-.52s.184-.333.264-.506c.184-.335.321-.686.507-1.044l0,0a.193.193,0,0,1,.364.08Z" transform="translate(-390.453 -268.486)" fill="#3c3c3b"/>
            </g>
            <g id="Grupo_1180570" data-name="Grupo 1180570" transform="translate(24.276 20.25)">
              <path id="Trazado_1043483" data-name="Trazado 1043483" d="M398.621,275.579a2.241,2.241,0,0,1-.407,1.09,2.872,2.872,0,0,1-.394.436,1.837,1.837,0,0,1-.5.313.212.212,0,0,1-.253-.316l0-.007c.1-.147.209-.276.31-.41s.207-.259.3-.4c.207-.26.371-.544.584-.831l0-.005a.194.194,0,0,1,.349.126Z" transform="translate(-397.033 -275.374)" fill="#3c3c3b"/>
            </g>
            <g id="Grupo_1180571" data-name="Grupo 1180571" transform="translate(28.237 23.669)">
              <path id="Trazado_1043484" data-name="Trazado 1043484" d="M405.5,281.51a1.577,1.577,0,0,1-.367,1.063,1.927,1.927,0,0,1-.433.378,1.323,1.323,0,0,1-.538.193.212.212,0,0,1-.165-.367l.011-.01c.117-.107.229-.2.332-.3a2.872,2.872,0,0,0,.293-.31,4.547,4.547,0,0,0,.5-.722l.007-.011a.194.194,0,0,1,.267-.063A.2.2,0,0,1,405.5,281.51Z" transform="translate(-403.933 -281.332)" fill="#3c3c3b"/>
            </g>
            <g id="Grupo_1180572" data-name="Grupo 1180572" transform="translate(31.684 27.017)">
              <path id="Trazado_1043485" data-name="Trazado 1043485" d="M411.475,287.414a2.031,2.031,0,0,1-.481.8,2.876,2.876,0,0,1-.356.3,1.564,1.564,0,0,1-.423.206.216.216,0,0,1-.267-.149.214.214,0,0,1,.026-.176l0-.006a3.006,3.006,0,0,1,.268-.335l.285-.3a5.961,5.961,0,0,1,.638-.552l0,0a.2.2,0,0,1,.3.216Z" transform="translate(-409.938 -287.164)" fill="#3c3c3b"/>
            </g>
            <g id="Grupo_1180573" data-name="Grupo 1180573" transform="translate(36.237 30.55)">
              <path id="Trazado_1043486" data-name="Trazado 1043486" d="M419.482,293.537a2.75,2.75,0,0,1-.441,1.108,3.639,3.639,0,0,1-.381.462,2.184,2.184,0,0,1-.478.365.211.211,0,0,1-.285-.289l0-.005c.093-.165.2-.312.3-.461s.208-.289.3-.439c.215-.285.395-.588.634-.883l0,0a.193.193,0,0,1,.273-.028A.2.2,0,0,1,419.482,293.537Z" transform="translate(-417.872 -293.319)" fill="#3c3c3b"/>
            </g>
          </g>
          <path id="Trazado_1043487" data-name="Trazado 1043487" d="M429.856,260.1a16.008,16.008,0,0,1-3.16,5.466,2.752,2.752,0,0,1-1.143.832,2.071,2.071,0,0,1-2.36-1.381,4.746,4.746,0,0,1,.094-2.959c.444-1.548,1.142-3.012,1.626-4.548a17.342,17.342,0,0,0,.661-7.371c-.249-1.956-.922-4.668.958-6.086,1.589-1.2,2.916.167,3.667,1.6C432.394,249.853,431.4,255.868,429.856,260.1Z" transform="translate(-378.116 -224.456)" fill="#fff" opacity="0.25"/>
          <path id="Trazado_1043488" data-name="Trazado 1043488" d="M395.229,220.4a1.772,1.772,0,0,1-1.209,1.549,4.346,4.346,0,0,1-2.067.126c-2.679-.325-5.264-1.274-7.956-1.456-5.547-.375-10.827,2.552-15.016,6.208a4.728,4.728,0,0,1-1.879,1.2,3.737,3.737,0,0,1-1.77-.1c-1.577-.391-3.269-1.4-3.424-3.016a4.1,4.1,0,0,1,.676-2.349,16.537,16.537,0,0,1,9.737-7.341,29.3,29.3,0,0,1,12.386-.618,19.456,19.456,0,0,1,6.284,1.762C392.2,216.984,395.22,218.821,395.229,220.4Z" transform="translate(-352.087 -211.944)" fill="#00abe0" opacity="0.53"/>
        </g>
        <g id="Grupo_1180581" data-name="Grupo 1180581" transform="translate(118.26 1.471)">
          <path id="Trazado_1043489" data-name="Trazado 1043489" d="M233.113,108.628a6.745,6.745,0,0,0,3.561,7.412c2.678,1.271,7.123-1.059,8.926-3.411Z" transform="translate(-231.26 -68.662)" fill="#6f6f6e"/>
          <path id="Trazado_1043490" data-name="Trazado 1043490" d="M247.977,76.814c.969-1.843,2.957-2.869,4.794-3.85a34.22,34.22,0,0,0,8.98-6.4,15.478,15.478,0,0,0,4.494-9.861,16.661,16.661,0,0,0-.5-4.317,16.542,16.542,0,0,0-4.251-8.218,16.065,16.065,0,0,0-3.929-2.7,20.562,20.562,0,0,0-15.016-1.734c-4.947,1.478-9.218,5.489-10.392,10.516a18.568,18.568,0,0,0-.168,6.565,32.48,32.48,0,0,0,1.8,7.264c1.082,2.891,2.592,6.053,1.417,8.907" transform="translate(-230.759 -38.997)" fill="#f9db0e"/>
          <g id="Grupo_1180576" data-name="Grupo 1180576" transform="translate(8.054 12.782)">
            <path id="Trazado_1043491" data-name="Trazado 1043491" d="M248.743,84.2a30.668,30.668,0,0,1,7.56-15.976,4.382,4.382,0,0,1,2.109-1.411,2.558,2.558,0,0,1,1.449.078,1.955,1.955,0,0,1,1.247,2.595,3.651,3.651,0,0,1-.694,1.147,8.361,8.361,0,0,1-1.834,1.539,8.889,8.889,0,0,1-4.512,1.354,8.7,8.7,0,0,1-4.567-1.208,8.5,8.5,0,0,1-3.271-3.421,6.855,6.855,0,0,1-.634-4.753,5.465,5.465,0,0,1,.449-1.177,3.743,3.743,0,0,1,.822-1.058,2.439,2.439,0,0,1,1.356-.626,2.185,2.185,0,0,1,1.5.414,3.168,3.168,0,0,1,1.234,2.393,12.869,12.869,0,0,1-.129,2.322,38.8,38.8,0,0,1-2.039,8.693,37.675,37.675,0,0,1-4.013,7.95l-.738-.472a38.564,38.564,0,0,0,3.667-7.858,37.592,37.592,0,0,0,1.832-8.449,12.351,12.351,0,0,0,.092-2.069,1.833,1.833,0,0,0-.684-1.412.871.871,0,0,0-1.178.133,3.088,3.088,0,0,0-.843,1.554,5.5,5.5,0,0,0,.545,3.785,7.465,7.465,0,0,0,6.578,3.893,7.54,7.54,0,0,0,3.829-1.123,7.072,7.072,0,0,0,1.539-1.268,2.375,2.375,0,0,0,.453-.717.731.731,0,0,0,.007-.568,1.094,1.094,0,0,0-1.169-.413,3.2,3.2,0,0,0-1.491,1.012,30.888,30.888,0,0,0-7.678,15.253Z" transform="translate(-244.035 -61.267)" fill="#3c3c3b"/>
          </g>
          <path id="Trazado_1043492" data-name="Trazado 1043492" d="M246.689,106.069a3.616,3.616,0,0,1-1.014,1.386c-.971.688-2.306.273-3.411-.171q-4.877-1.958-9.694-4.061a4.27,4.27,0,0,1-2.335-1.773,3.879,3.879,0,0,1,.052-2.737c.6-2.04,1.914-4.269,4.036-4.414a6.059,6.059,0,0,1,2.253.426C240,95.836,243.909,96.611,247.1,98.3,250.564,100.128,248,103.5,246.689,106.069Z" transform="translate(-230.003 -62.554)" fill="#9c9b9b"/>
          <path id="Trazado_1043493" data-name="Trazado 1043493" d="M281.767,61.085a14.208,14.208,0,0,1-1.409,6.992,4.725,4.725,0,0,1-1.6,2.085,1.974,1.974,0,0,1-2.447-.153,2.26,2.26,0,0,1-.49-1.5c-.028-1.743.919-3.5.394-5.166a8.446,8.446,0,0,0-1.337-2.187,6.991,6.991,0,0,1-1.362-3.436c-.182-2.472,2.3-5.227,4.866-3.871C280.552,54.991,281.61,58.891,281.767,61.085Z" transform="translate(-248.537 -45.17)" fill="#fff" opacity="0.49"/>
          <path id="Trazado_1043494" data-name="Trazado 1043494" d="M251.435,53.54c-1.372.894-3.051,1.185-4.5,1.957-3.143,1.681-4.7,5.423-4.876,8.984a4.192,4.192,0,0,1-.357,1.9c-.666,1.167-2.454,1.234-3.547.452a6.17,6.17,0,0,1-2.013-3.406,18.236,18.236,0,0,1-.136-10.965,11.41,11.41,0,0,1,7.611-7.5c2.225-.565,6.711-.921,8.607.813A4.956,4.956,0,0,1,251.435,53.54Z" transform="translate(-232.228 -41.34)" fill="#f9db0e"/>
          <g id="Grupo_1180580" data-name="Grupo 1180580" transform="translate(1.913 33.496)">
            <g id="Grupo_1180577" data-name="Grupo 1180577" transform="translate(1.993)">
              <path id="Trazado_1043495" data-name="Trazado 1043495" d="M249.765,102.934c-2.2-.776-4.352-1.658-6.511-2.529l-3.206-1.385q-1.6-.7-3.175-1.455a.111.111,0,0,1,.091-.2l3.209,1.37,3.218,1.347c2.136.92,4.3,1.776,6.447,2.666a.1.1,0,0,1-.072.189Z" transform="translate(-236.809 -97.355)" fill="#3c3c3b"/>
            </g>
            <g id="Grupo_1180578" data-name="Grupo 1180578" transform="translate(0.977 1.968)">
              <path id="Trazado_1043496" data-name="Trazado 1043496" d="M247.942,106.472c-2.2-.765-4.353-1.654-6.5-2.544-1.069-.46-2.131-.938-3.19-1.422s-2.111-.983-3.149-1.512a.111.111,0,0,1,.1-.2c2.122.949,4.237,1.914,6.381,2.809,2.128.937,4.285,1.8,6.438,2.679a.1.1,0,0,1-.071.189Z" transform="translate(-235.038 -100.784)" fill="#3c3c3b"/>
            </g>
            <g id="Grupo_1180579" data-name="Grupo 1180579" transform="translate(0 4.355)">
              <path id="Trazado_1043497" data-name="Trazado 1043497" d="M246.092,110.227c-2.137-.79-4.246-1.648-6.37-2.47l-3.163-1.289q-1.584-.638-3.154-1.313a.111.111,0,0,1-.06-.145.112.112,0,0,1,.141-.061q1.6.6,3.188,1.228l3.179,1.252c2.1.871,4.224,1.706,6.315,2.61a.1.1,0,0,1,.053.133A.1.1,0,0,1,246.092,110.227Z" transform="translate(-233.336 -104.943)" fill="#3c3c3b"/>
            </g>
          </g>
        </g>
        <g id="Grupo_1180598" data-name="Grupo 1180598" transform="translate(9.447 33.782)">
          <rect id="Rectángulo_415809" data-name="Rectángulo 415809" width="12.386" height="65.255" transform="matrix(0.552, -0.834, 0.834, 0.552, 0, 10.333)" fill="#79c29d"/>
          <g id="Grupo_1180597" data-name="Grupo 1180597" transform="translate(3.604 9.265)">
            <g id="Grupo_1180582" data-name="Grupo 1180582">
              <path id="Trazado_1043498" data-name="Trazado 1043498" d="M48.039,111.711a2.113,2.113,0,0,1-.373.73,2.165,2.165,0,0,1-.273.3,1.492,1.492,0,0,1-.335.244.247.247,0,0,1-.35-.277l.008-.033a1.558,1.558,0,0,1,.153-.376,1.961,1.961,0,0,1,.215-.317,2.048,2.048,0,0,1,.6-.51l.027-.014a.224.224,0,0,1,.3.092A.216.216,0,0,1,48.039,111.711Z" transform="translate(-46.703 -111.433)" fill="#3c3c3b"/>
            </g>
            <g id="Grupo_1180583" data-name="Grupo 1180583" transform="translate(2.301 2.024)">
              <path id="Trazado_1043499" data-name="Trazado 1043499" d="M51.944,115.19a1.637,1.637,0,0,1-.254.821,1.689,1.689,0,0,1-.266.336,1.256,1.256,0,0,1-.355.255.253.253,0,0,1-.347-.3l0-.01a1.945,1.945,0,0,1,.153-.361,3.04,3.04,0,0,1,.189-.32,3.237,3.237,0,0,1,.49-.59l.006-.005a.229.229,0,0,1,.324.016A.233.233,0,0,1,51.944,115.19Z" transform="translate(-50.712 -114.959)" fill="#3c3c3b"/>
            </g>
            <g id="Grupo_1180584" data-name="Grupo 1180584" transform="translate(5.367 4.201)">
              <path id="Trazado_1043500" data-name="Trazado 1043500" d="M57.2,118.928a1.271,1.271,0,0,1-.148.887,1.328,1.328,0,0,1-.285.357,1.038,1.038,0,0,1-.4.23.25.25,0,0,1-.3-.337l.009-.022a3.317,3.317,0,0,1,.164-.315c.052-.1.111-.189.166-.282.117-.185.219-.37.37-.581l.011-.016a.227.227,0,0,1,.317-.053A.233.233,0,0,1,57.2,118.928Z" transform="translate(-56.053 -118.753)" fill="#3c3c3b"/>
            </g>
            <g id="Grupo_1180585" data-name="Grupo 1180585" transform="translate(8.055 6.021)">
              <path id="Trazado_1043501" data-name="Trazado 1043501" d="M61.63,122.074a.957.957,0,0,1-.038.723.979.979,0,0,1-.206.3.771.771,0,0,1-.312.2.26.26,0,0,1-.325-.172.269.269,0,0,1-.009-.118l.006-.034a1.5,1.5,0,0,1,.078-.268,1.832,1.832,0,0,1,.1-.226,2.623,2.623,0,0,1,.287-.45l.017-.021a.237.237,0,0,1,.4.063Z" transform="translate(-60.736 -121.923)" fill="#3c3c3b"/>
            </g>
            <g id="Grupo_1180586" data-name="Grupo 1180586" transform="translate(11.107 8.062)">
              <path id="Trazado_1043502" data-name="Trazado 1043502" d="M67.226,125.711a1.107,1.107,0,0,1-.256.689,1.143,1.143,0,0,1-.271.249.874.874,0,0,1-.348.143.26.26,0,0,1-.3-.22.263.263,0,0,1,.015-.133l.009-.021a1.449,1.449,0,0,1,.15-.269,1.906,1.906,0,0,1,.172-.222,2.369,2.369,0,0,1,.443-.4l.015-.01a.236.236,0,0,1,.327.065A.232.232,0,0,1,67.226,125.711Z" transform="translate(-66.053 -125.479)" fill="#3c3c3b"/>
            </g>
            <g id="Grupo_1180587" data-name="Grupo 1180587" transform="translate(14.703 10.067)">
              <path id="Trazado_1043503" data-name="Trazado 1043503" d="M73.489,129.18a1.44,1.44,0,0,1-.2.831,1.48,1.48,0,0,1-.263.339,1.15,1.15,0,0,1-.36.245.253.253,0,0,1-.335-.308l0-.014a2.11,2.11,0,0,1,.148-.34,3.418,3.418,0,0,1,.172-.3,3.861,3.861,0,0,1,.433-.579l.008-.009a.229.229,0,0,1,.324-.009A.226.226,0,0,1,73.489,129.18Z" transform="translate(-72.318 -128.972)" fill="#3c3c3b"/>
            </g>
            <g id="Grupo_1180588" data-name="Grupo 1180588" transform="translate(17.449 12.358)">
              <path id="Trazado_1043504" data-name="Trazado 1043504" d="M78.257,133.206a2.211,2.211,0,0,1-.247.8,2.265,2.265,0,0,1-.22.353,1.547,1.547,0,0,1-.291.307.247.247,0,0,1-.395-.212l0-.03a1.6,1.6,0,0,1,.09-.406,2.072,2.072,0,0,1,.161-.36,2.154,2.154,0,0,1,.515-.626l.021-.017a.225.225,0,0,1,.364.192Z" transform="translate(-77.103 -132.964)" fill="#3c3c3b"/>
            </g>
            <g id="Grupo_1180589" data-name="Grupo 1180589" transform="translate(21.286 14.655)">
              <path id="Trazado_1043505" data-name="Trazado 1043505" d="M84.973,137.1a1.119,1.119,0,0,1-.1.991,1.2,1.2,0,0,1-.35.378.948.948,0,0,1-.48.179.245.245,0,0,1-.257-.232.242.242,0,0,1,.049-.16l.024-.031c.076-.1.146-.18.208-.266s.121-.166.175-.253a4.022,4.022,0,0,0,.307-.579l.013-.029a.224.224,0,0,1,.3-.111A.228.228,0,0,1,84.973,137.1Z" transform="translate(-83.788 -136.966)" fill="#3c3c3b"/>
            </g>
            <g id="Grupo_1180590" data-name="Grupo 1180590" transform="translate(24.636 16.726)">
              <path id="Trazado_1043506" data-name="Trazado 1043506" d="M90.621,140.718a1.035,1.035,0,0,1-.061.827,1.091,1.091,0,0,1-.257.337.854.854,0,0,1-.374.2.252.252,0,0,1-.29-.334l.013-.034a2.852,2.852,0,0,1,.126-.274c.039-.085.084-.16.126-.239.091-.156.169-.309.294-.5l.016-.025a.23.23,0,0,1,.406.04Z" transform="translate(-89.624 -140.574)" fill="#3c3c3b"/>
            </g>
            <g id="Grupo_1180591" data-name="Grupo 1180591" transform="translate(28.017 18.967)">
              <path id="Trazado_1043507" data-name="Trazado 1043507" d="M96.554,144.722a1.62,1.62,0,0,1-.185.682,1.576,1.576,0,0,1-.187.291,1.186,1.186,0,0,1-.261.251.262.262,0,0,1-.407-.218,1.187,1.187,0,0,1,.064-.357,1.74,1.74,0,0,1,.6-.851.237.237,0,0,1,.373.2Z" transform="translate(-95.514 -144.478)" fill="#3c3c3b"/>
            </g>
            <g id="Grupo_1180592" data-name="Grupo 1180592" transform="translate(32.049 21.71)">
              <path id="Trazado_1043508" data-name="Trazado 1043508" d="M103.446,149.465a1.966,1.966,0,0,1-.236,1.085,1.3,1.3,0,0,1-.226.311.259.259,0,0,1-.366-.005.255.255,0,0,1-.071-.145,1.33,1.33,0,0,1,.014-.384,1.78,1.78,0,0,1,.094-.356,1.837,1.837,0,0,1,.389-.644.234.234,0,0,1,.331,0A.237.237,0,0,1,103.446,149.465Z" transform="translate(-102.54 -149.257)" fill="#3c3c3b"/>
            </g>
            <g id="Grupo_1180593" data-name="Grupo 1180593" transform="translate(35.296 24.272)">
              <path id="Trazado_1043509" data-name="Trazado 1043509" d="M109.275,153.92a1.115,1.115,0,0,1-.17.734,1.136,1.136,0,0,1-.247.287.894.894,0,0,1-.337.186.258.258,0,0,1-.313-.321l.007-.023a1.591,1.591,0,0,1,.124-.286,2.216,2.216,0,0,1,.147-.243,2.677,2.677,0,0,1,.388-.459l.014-.013a.234.234,0,0,1,.389.138Z" transform="translate(-108.196 -153.721)" fill="#3c3c3b"/>
            </g>
            <g id="Grupo_1180594" data-name="Grupo 1180594" transform="translate(38.808 26.683)">
              <path id="Trazado_1043510" data-name="Trazado 1043510" d="M115.583,158.144a1.683,1.683,0,0,1-.255.879,1.72,1.72,0,0,1-.284.36,1.319,1.319,0,0,1-.379.269.25.25,0,0,1-.338-.308l0-.011a2.507,2.507,0,0,1,.171-.37c.06-.117.13-.223.2-.332a4.472,4.472,0,0,1,.486-.634l.006-.006a.227.227,0,0,1,.391.153Z" transform="translate(-114.315 -157.922)" fill="#3c3c3b"/>
            </g>
            <g id="Grupo_1180595" data-name="Grupo 1180595" transform="translate(43.028 29.064)">
              <path id="Trazado_1043511" data-name="Trazado 1043511" d="M122.61,162.313a1.715,1.715,0,0,1-.11.71,1.611,1.611,0,0,1-.153.311,1.3,1.3,0,0,1-.234.288l-.026.023a.251.251,0,0,1-.354-.023.246.246,0,0,1-.061-.138,1.254,1.254,0,0,1,.029-.378,1.829,1.829,0,0,1,.111-.355,1.765,1.765,0,0,1,.417-.622.227.227,0,0,1,.379.152Z" transform="translate(-121.668 -162.071)" fill="#3c3c3b"/>
            </g>
            <g id="Grupo_1180596" data-name="Grupo 1180596" transform="translate(46.836 32.027)">
              <path id="Trazado_1043512" data-name="Trazado 1043512" d="M129.562,167.466a1.451,1.451,0,0,1-.278.788,1.486,1.486,0,0,1-.284.307,1.136,1.136,0,0,1-.369.212.254.254,0,0,1-.318-.165.251.251,0,0,1,0-.164l0-.013a1.952,1.952,0,0,1,.169-.328,2.98,2.98,0,0,1,.2-.285,3.32,3.32,0,0,1,.49-.526l.008-.007a.23.23,0,0,1,.324.031A.224.224,0,0,1,129.562,167.466Z" transform="translate(-128.301 -167.232)" fill="#3c3c3b"/>
            </g>
          </g>
          <path id="Trazado_1043513" data-name="Trazado 1043513" d="M57.777,108.134l10.484,7.607c3.26,2.365,6.561,4.769,9.12,7.911.738.906,1.429,2.2.808,3.184a2.185,2.185,0,0,1-1.511.875c-2.035.364-4.024-.745-5.8-1.842a196.86,196.86,0,0,1-19.265-13.593c-1.1-.876-2.3-2.021-2.15-3.434a2.82,2.82,0,0,1,1.92-2.209C53.658,105.806,55.926,106.791,57.777,108.134Z" transform="translate(-44.271 -99.994)" fill="#79c29d" opacity="0.62"/>
          <path id="Trazado_1043514" data-name="Trazado 1043514" d="M120.451,145.347a17.322,17.322,0,0,1,4.261,3.707c.489.651.893,1.568.438,2.244a1.676,1.676,0,0,1-1.354.623,6.475,6.475,0,0,1-3.806-1.6q-5.3-3.764-10.435-7.752c-.945-.734-1.995-1.85-1.523-2.949C109.091,137.158,119.386,144.621,120.451,145.347Z" transform="translate(-69.177 -113.966)" fill="#fff" opacity="0.49"/>
        </g>
        <g id="Grupo_1180599" data-name="Grupo 1180599" transform="translate(23.157 8.4)">
          <path id="Trazado_1043515" data-name="Trazado 1043515" d="M71.224,53.6A54.212,54.212,0,0,0,75.892,58,7.182,7.182,0,0,0,79.7,59.973c.988.081,2.064-.208,2.924.285a.372.372,0,0,1,.182.181.411.411,0,0,1-.125.366c-1.98,2.507-10.139,7.886-11.5,8.815-.284.193-.921.438-1.218.266-.346-.2-.288-.709-.184-1.1q.391-1.454.782-2.908a1.606,1.606,0,0,0-.149-1.558l-3.892-7.113a7.412,7.412,0,0,0-1.144-.044.955.955,0,0,1-1.039-.512c-.125-.4.181-.79.472-1.088a31.906,31.906,0,0,1,2.595-2.322,8.487,8.487,0,0,1,4.06-2.162.759.759,0,0,1,.744.2C72.366,51.513,72.553,51.962,71.224,53.6Z" transform="translate(-64.309 -51.069)" fill="#6776b7"/>
          <line id="Línea_729" data-name="Línea 729" x2="5.934" y2="9.297" transform="translate(12.331 14.779)" fill="none" stroke="#3c3c3b" stroke-linecap="round" stroke-linejoin="round" stroke-miterlimit="10" stroke-width="1.383"/>
        </g>
        <g id="Grupo_1180606" data-name="Grupo 1180606" transform="translate(218.445 55.078)">
          <g id="Grupo_1180603" data-name="Grupo 1180603">
            <path id="Trazado_1043516" data-name="Trazado 1043516" d="M423.455,138.191a6.02,6.02,0,0,1-3.872,5.263c-3.742,1.324-4.4.509-4.4.509l-9.38,5.623,11.188,17.5,9.062-6.007a5.39,5.39,0,0,1,3.249-5.216c3.668-1.868,6.069-.271,6.069-.271l8.592-5.387L432.62,132.393Z" transform="translate(-405.082 -132.393)" fill="#cf7fb3"/>
            <g id="Grupo_1180600" data-name="Grupo 1180600" transform="translate(6.516 8.626)">
              <path id="Trazado_1043517" data-name="Trazado 1043517" d="M421.393,167.437l-.007-.012c-1.8-2.912-3.652-5.86-5.442-8.855a.307.307,0,0,1,.1-.416l12.937-8.1-.029.02a15.317,15.317,0,0,1,4.371-2.269,7.864,7.864,0,0,1,2.491-.381,4.7,4.7,0,0,1,2.47.746,4.9,4.9,0,0,1,1.7,1.935,4.075,4.075,0,0,1,.356,2.567,6.392,6.392,0,0,1-1,2.329,11.879,11.879,0,0,1-1.589,1.9,20.243,20.243,0,0,1-3.89,2.965l-4.168,2.555Zm.089-.451.011-.007,8.038-5.149,4.008-2.534a19.609,19.609,0,0,0,3.729-2.885,7.9,7.9,0,0,0,2.364-3.866,3.76,3.76,0,0,0-1.756-3.745,5.2,5.2,0,0,0-4.333-.277,14.637,14.637,0,0,0-4.153,2.12l-.014.01-.015.01-12.993,8.01.1-.416C418.164,161.124,419.794,164.038,421.482,166.987Z" transform="translate(-415.9 -147.422)" fill="#3c3c3b"/>
            </g>
            <g id="Grupo_1180601" data-name="Grupo 1180601" transform="translate(9.182 10.637)">
              <path id="Trazado_1043518" data-name="Trazado 1043518" d="M441.378,151.329q-2.517,1.6-5.06,3.155l-5.1,3.086-5.136,3.027q-2.576,1.5-5.181,2.951a.239.239,0,0,1-.245-.411q2.517-1.6,5.062-3.15l5.108-3.074,5.143-3.015q2.578-1.5,5.184-2.946a.219.219,0,0,1,.224.376Z" transform="translate(-420.544 -150.925)" fill="#3c3c3b"/>
            </g>
            <g id="Grupo_1180602" data-name="Grupo 1180602" transform="translate(0 16.954)">
              <path id="Trazado_1043519" data-name="Trazado 1043519" d="M443.624,162.689l1.064,2.109a.24.24,0,0,1-.091.315l0,0-5.524,3.275-5.542,3.244a.321.321,0,0,1-.286.019l-.026-.011a2.771,2.771,0,0,0-1.038-.168,4.642,4.642,0,0,0-1.123.15,7.869,7.869,0,0,0-2.131.918,6.772,6.772,0,0,0-1.783,1.452,4.271,4.271,0,0,0-.592.944,2.754,2.754,0,0,0-.256,1.01v.018a.367.367,0,0,1-.162.3l-5.329,3.531-5.352,3.5a.364.364,0,0,1-.5-.1l-.008-.013L409.75,174.6c-1.729-2.858-3.46-5.714-5.162-8.589l0-.005a.268.268,0,0,1-.035-.171l.48-3.692a.24.24,0,0,1,.476.057l-.408,3.7-.038-.176c1.772,2.831,3.516,5.681,5.26,8.529l5.238,8.543-.512-.115,5.332-3.527,5.355-3.492-.162.315a4.094,4.094,0,0,1,1.028-2.433,7.468,7.468,0,0,1,1.974-1.591,8.527,8.527,0,0,1,2.323-.977,5.292,5.292,0,0,1,1.281-.16,3.282,3.282,0,0,1,1.337.25l-.313.007,5.565-3.2,5.583-3.172-.1.317-1.021-2.13a.218.218,0,0,1,.392-.193Z" transform="translate(-404.548 -161.931)" fill="#3c3c3b"/>
            </g>
          </g>
          <g id="Grupo_1180605" data-name="Grupo 1180605" transform="translate(20.694 18.706)">
            <g id="Grupo_1180604" data-name="Grupo 1180604">
              <path id="Trazado_1043520" data-name="Trazado 1043520" d="M441.5,166.852a.934.934,0,0,0,0-1.868.934.934,0,0,0,0,1.868Z" transform="translate(-440.601 -164.984)" fill="#3c3c3b"/>
            </g>
          </g>
        </g>
        <path id="Trazado_1043521" data-name="Trazado 1043521" d="M330.366,43.149a34.1,34.1,0,0,1-3.791,7.407,2.117,2.117,0,0,1-1.008.932,1.469,1.469,0,0,1-1.669-.962,3.808,3.808,0,0,1-.046-2.09,22.958,22.958,0,0,1,3.873-9.181,7.771,7.771,0,0,1,2.245-2.268,3.386,3.386,0,0,1,3.075-.309,3.45,3.45,0,0,1,1.8,2.864,8.658,8.658,0,0,1-.585,3.471,29.258,29.258,0,0,1-6.41,11.119c-1.647,1.721-4.075,3.277-6.279,2.374-2.044-.839-2.79-3.461-2.4-5.636s1.609-4.1,2.437-6.146" transform="translate(-149.69 -36.435)" fill="none" stroke="#3c3c3b" stroke-linecap="round" stroke-linejoin="round" stroke-miterlimit="10" stroke-width="2"/>
        <g id="Grupo_1180607" data-name="Grupo 1180607" transform="translate(12.233 70.77)">
          <path id="Trazado_1043522" data-name="Trazado 1043522" d="M72.241,178.156a3.409,3.409,0,0,1,.1,3.035,3.37,3.37,0,1,1-3.745-4.6A3.849,3.849,0,0,1,72.241,178.156Z" transform="translate(-54.043 -166.904)" fill="#3c3c3b"/>
          <path id="Trazado_1043523" data-name="Trazado 1043523" d="M66.679,172.623a39.31,39.31,0,0,0-2.491-12.891l-11.81,1.976A39.328,39.328,0,0,1,54.869,174.6" transform="translate(-48.302 -159.732)" fill="none" stroke="#3c3c3b" stroke-miterlimit="10" stroke-width="0.96"/>
          <path id="Trazado_1043524" data-name="Trazado 1043524" d="M53.059,163.738c-.261-.878-.36-1.173-.681-2.03l11.81-1.976q.377,1,.7,2.027Z" transform="translate(-48.302 -159.732)" fill="#3c3c3b" stroke="#3c3c3b" stroke-miterlimit="10" stroke-width="0.96"/>
          <path id="Trazado_1043525" data-name="Trazado 1043525" d="M51.665,181.6a3.409,3.409,0,0,1,.1,3.035,3.37,3.37,0,1,1-3.745-4.6A3.85,3.85,0,0,1,51.665,181.6Z" transform="translate(-45.277 -168.37)" fill="#3c3c3b"/>
        </g>
        <g id="Grupo_1180610" data-name="Grupo 1180610" transform="translate(22.913 15.533)">
          <g id="Grupo_1180608" data-name="Grupo 1180608" transform="translate(203.541)">
            <path id="Trazado_1043526" data-name="Trazado 1043526" d="M432.873,76.971a2.27,2.27,0,0,1-.87.08,2.749,2.749,0,0,1-.751-.185,2.4,2.4,0,0,1-.659-.389,1.958,1.958,0,0,1-.532-.674,1.074,1.074,0,0,1,.521-1.43,1.283,1.283,0,0,1,.145-.056,1.977,1.977,0,0,1,.86-.059,2.417,2.417,0,0,1,.733.226,2.726,2.726,0,0,1,.641.43,2.236,2.236,0,0,1,.522.7A.989.989,0,0,1,433,76.923,1.13,1.13,0,0,1,432.873,76.971Z" transform="translate(-423.382 -68.072)" fill="#3c3c3b"/>
            <path id="Trazado_1043527" data-name="Trazado 1043527" d="M420.687,71.228a1.562,1.562,0,0,1-.637.257,1.451,1.451,0,0,1-.555-.021,1.23,1.23,0,0,1-.491-.236,1.307,1.307,0,0,1-.4-.535,1.284,1.284,0,0,1,.461-1.561,1.334,1.334,0,0,1,.63-.235,1.234,1.234,0,0,1,.542.064,1.432,1.432,0,0,1,.478.279,1.537,1.537,0,0,1,.4.558A1.183,1.183,0,0,1,420.687,71.228Z" transform="translate(-418.501 -65.795)" fill="#3c3c3b"/>
            <path id="Trazado_1043528" data-name="Trazado 1043528" d="M425.844,66.368a2.3,2.3,0,0,1-.883.01,2.83,2.83,0,0,1-.744-.246,2.453,2.453,0,0,1-.638-.443,1.985,1.985,0,0,1-.488-.717,1.069,1.069,0,0,1,.614-1.384,1.2,1.2,0,0,1,.162-.049,2.02,2.02,0,0,1,.872.011,2.467,2.467,0,0,1,.723.285,2.808,2.808,0,0,1,.616.482,2.279,2.279,0,0,1,.478.738.983.983,0,0,1-.572,1.27A.869.869,0,0,1,425.844,66.368Z" transform="translate(-420.425 -63.498)" fill="#3c3c3b"/>
          </g>
          <g id="Grupo_1180609" data-name="Grupo 1180609" transform="translate(0 129.867)">
            <path id="Trazado_1043529" data-name="Trazado 1043529" d="M64.423,290a2.271,2.271,0,0,1,.842-.234,2.752,2.752,0,0,1,.772.049,2.4,2.4,0,0,1,.718.266,1.96,1.96,0,0,1,.643.569,1.075,1.075,0,0,1-.259,1.5,1.219,1.219,0,0,1-.133.08,1.98,1.98,0,0,1-.836.211,2.4,2.4,0,0,1-.761-.092,2.73,2.73,0,0,1-.707-.309,2.235,2.235,0,0,1-.637-.592.989.989,0,0,1,.245-1.379A1.119,1.119,0,0,1,64.423,290Z" transform="translate(-63.884 -289.758)" fill="#3c3c3b"/>
            <path id="Trazado_1043530" data-name="Trazado 1043530" d="M78.158,293.531a1.564,1.564,0,0,1,.581-.366,1.433,1.433,0,0,1,.549-.077,1.22,1.22,0,0,1,.525.145,1.31,1.31,0,0,1,.491.455,1.284,1.284,0,0,1-.177,1.618,1.325,1.325,0,0,1-.579.343,1.235,1.235,0,0,1-.545.033,1.439,1.439,0,0,1-.521-.19,1.545,1.545,0,0,1-.489-.479A1.184,1.184,0,0,1,78.158,293.531Z" transform="translate(-69.815 -291.175)" fill="#3c3c3b"/>
            <path id="Trazado_1043531" data-name="Trazado 1043531" d="M73.215,299.13a2.306,2.306,0,0,1,.867-.166,2.833,2.833,0,0,1,.776.11,2.457,2.457,0,0,1,.706.323,1.982,1.982,0,0,1,.608.619,1.068,1.068,0,0,1-.359,1.471,1.165,1.165,0,0,1-.151.076,2.026,2.026,0,0,1-.86.144,2.476,2.476,0,0,1-.762-.152,2.794,2.794,0,0,1-.692-.365,2.278,2.278,0,0,1-.6-.641.983.983,0,0,1,.337-1.351A1.119,1.119,0,0,1,73.215,299.13Z" transform="translate(-67.6 -293.68)" fill="#3c3c3b"/>
          </g>
        </g>
        <g id="Grupo_1180630" data-name="Grupo 1180630" transform="translate(48.689 59.841)">
          <g id="Grupo_1180622" data-name="Grupo 1180622" transform="translate(30.111 0)">
            <path id="Trazado_1043532" data-name="Trazado 1043532" d="M291.653,174.354c-.421,4.678-1.57,9.466-.433,13.993,1.064,4.237,3.956,7.533,6.293,11.079s4.239,8.09,2.935,12.243c-1.105,3.519-4.247,5.757-7.417,6.951-5.87,2.211-12.862,1.515-17.566-2.977-3.92-3.743-5.779-9.5-6.854-15.122-2.371-12.4-3.418-36.39,6.509-45.516a8.777,8.777,0,0,1,12.036-.051C292.116,159.335,292.228,167.963,291.653,174.354Z" transform="translate(-206.309 -145.762)" fill="#3c3c3b"/>
            <path id="Trazado_1043533" data-name="Trazado 1043533" d="M171.805,173.935c.421,4.678,1.57,9.466.433,13.993-1.064,4.237-3.956,7.533-6.293,11.079s-4.239,8.09-2.935,12.243c1.105,3.519,4.247,5.757,7.417,6.951,5.87,2.211,12.862,1.515,17.566-2.977,3.92-3.742,5.779-9.5,6.854-15.122,2.371-12.4,3.418-36.39-6.509-45.516a8.777,8.777,0,0,0-12.036-.051C171.341,158.916,171.23,167.545,171.805,173.935Z" transform="translate(-161.82 -145.584)" fill="#3c3c3b"/>
            <path id="Trazado_1043534" data-name="Trazado 1043534" d="M245.579,256.559v8.356s-2.248,3.366-9.76,3.415c-8.223.054-10.909-3.578-10.909-3.578v-8.193Z" transform="translate(-188.373 -190.054)" fill="#f9c29b"/>
            <path id="Trazado_1043535" data-name="Trazado 1043535" d="M161.253,285.45a42.146,42.146,0,0,1,13.2-9.38,61.341,61.341,0,0,1,26.8-5.833l17.206.066h0a46.905,46.905,0,0,1,17.327,3.046c7.35,2.8,14.36,6.35,19.6,12.1l-44.576,15.205Z" transform="translate(-161.253 -195.881)" fill="#c361a2"/>
            <path id="Trazado_1043536" data-name="Trazado 1043536" d="M209.674,271.332a64.9,64.9,0,0,1,12.208-1.094l17.206.066h0a47.277,47.277,0,0,1,11.153,1.176s-3.442,7.768-21.487,7.768C209.674,279.247,209.674,271.332,209.674,271.332Z" transform="translate(-181.882 -195.882)" fill="#f9c29b"/>
            <path id="Trazado_1043537" data-name="Trazado 1043537" d="M252.874,177.305s2.023,35.865-32,35.865c-35.69,0-32.349-33.4-32.349-33.4s1.055-29.712,24.965-34.107S253.4,153.746,252.874,177.305Z" transform="translate(-172.837 -142.437)" fill="#f9c29b"/>
            <path id="Trazado_1043538" data-name="Trazado 1043538" d="M224.91,261.491a43.97,43.97,0,0,0,11.5,1.4,41.5,41.5,0,0,0,7.058-.574s-3.888,3.649-18.559,2.006v-2.83Z" transform="translate(-188.373 -192.156)" fill="#3c3c3b"/>
            <path id="Trazado_1043539" data-name="Trazado 1043539" d="M298.795,201.864a14.51,14.51,0,0,1,6.273-2.4,5.62,5.62,0,0,1,4.715,1.865,7.157,7.157,0,0,1,1.324,3.02,8.037,8.037,0,0,1,.2,2.866,6.394,6.394,0,0,1-5.309,5.116,8.659,8.659,0,0,1-7.2-2.475" transform="translate(-219.849 -165.725)" fill="#f9c29b"/>
            <g id="Grupo_1180611" data-name="Grupo 1180611" transform="translate(81.933 37.475)">
              <path id="Trazado_1043540" data-name="Trazado 1043540" d="M308.35,206.51a11.341,11.341,0,0,0-2.213,2.158,11.914,11.914,0,0,0-1.523,2.682l0,0A.319.319,0,0,1,304,211.2a6.232,6.232,0,0,1,1.337-3.15A6.348,6.348,0,0,1,308.076,206a.292.292,0,0,1,.277.507Z" transform="translate(-304 -205.982)" fill="#3c3c3b"/>
            </g>
            <g id="Grupo_1180612" data-name="Grupo 1180612" transform="translate(83.325 39.638)">
              <path id="Trazado_1043541" data-name="Trazado 1043541" d="M306.821,209.768a3.3,3.3,0,0,1,1.677,1.477,3.229,3.229,0,0,1,.413,2.2.323.323,0,0,1-.628.023l0-.013a7.816,7.816,0,0,0-.664-1.716,7.121,7.121,0,0,0-1.1-1.484l-.007-.008a.3.3,0,0,1,.317-.481Z" transform="translate(-306.424 -209.75)" fill="#3c3c3b"/>
            </g>
            <g id="Grupo_1180613" data-name="Grupo 1180613" transform="translate(58.894 44.834)">
              <path id="Trazado_1043542" data-name="Trazado 1043542" d="M263.961,220.578a7.546,7.546,0,0,1,2.661-1.425,8.277,8.277,0,0,1,3.035-.327,7.942,7.942,0,0,1,2.938.841,7.521,7.521,0,0,1,2.379,1.871.314.314,0,0,1-.447.437,9.313,9.313,0,0,0-2.329-1.47,8.692,8.692,0,0,0-2.629-.684,8.228,8.228,0,0,0-2.714.191,9.237,9.237,0,0,0-2.562,1.032.287.287,0,0,1-.332-.466Z" transform="translate(-263.86 -218.803)" fill="#3c3c3b"/>
            </g>
            <g id="Grupo_1180614" data-name="Grupo 1180614" transform="translate(25.547 44.006)">
              <path id="Trazado_1043543" data-name="Trazado 1043543" d="M216.515,219.6a9.232,9.232,0,0,0-2.562-1.032,8.213,8.213,0,0,0-2.714-.191,8.69,8.69,0,0,0-2.629.684,9.315,9.315,0,0,0-2.329,1.47.314.314,0,0,1-.447-.437,7.519,7.519,0,0,1,2.379-1.871,7.942,7.942,0,0,1,2.938-.841,8.275,8.275,0,0,1,3.035.327,7.559,7.559,0,0,1,2.661,1.425.287.287,0,0,1-.331.466Z" transform="translate(-205.763 -217.36)" fill="#3c3c3b"/>
            </g>
            <g id="Grupo_1180615" data-name="Grupo 1180615" transform="translate(43.026 54.939)">
              <path id="Trazado_1043544" data-name="Trazado 1043544" d="M244.408,237.472a7.975,7.975,0,0,1-4.091.813,7.849,7.849,0,0,1-3.967-1.3.314.314,0,0,1,.293-.552,12.825,12.825,0,0,0,3.737.856,12.409,12.409,0,0,0,3.825-.349.288.288,0,0,1,.2.536Z" transform="translate(-236.214 -236.408)" fill="#3c3c3b"/>
            </g>
            <g id="Grupo_1180616" data-name="Grupo 1180616" transform="translate(45.959 49.114)">
              <path id="Trazado_1043545" data-name="Trazado 1043545" d="M242.38,226.713a1.25,1.25,0,0,0,0,1.087,1.3,1.3,0,0,0,.892.588l.056.011a.318.318,0,0,1,.251.373.321.321,0,0,1-.182.23,1.536,1.536,0,0,1-1.42-2.7.292.292,0,0,1,.42.364Z" transform="translate(-241.325 -226.261)" fill="#3c3c3b"/>
            </g>
            <g id="Grupo_1180617" data-name="Grupo 1180617" transform="translate(51.24 33.217)">
              <path id="Trazado_1043546" data-name="Trazado 1043546" d="M276.67,211.711a12.939,12.939,0,0,1-3.676,9.236,13.331,13.331,0,1,1,3.716-9.237h-.04Zm-.9,0a11.9,11.9,0,0,0-20.329-8.315,11.832,11.832,0,0,0,16.732,16.732,12.092,12.092,0,0,0,3.637-8.417h-.04Z" transform="translate(-250.525 -198.564)" fill="#3c3c3b"/>
            </g>
            <g id="Grupo_1180618" data-name="Grupo 1180618" transform="translate(18.24 32.579)">
              <path id="Trazado_1043547" data-name="Trazado 1043547" d="M219.176,210.6a12.939,12.939,0,0,1-3.676,9.236,13.33,13.33,0,1,1,3.716-9.237h-.04Zm-.9,0a11.9,11.9,0,0,0-20.329-8.315,11.832,11.832,0,0,0,16.732,16.732,12.093,12.093,0,0,0,3.637-8.417h-.04Z" transform="translate(-193.031 -197.453)" fill="#3c3c3b"/>
            </g>
            <g id="Grupo_1180619" data-name="Grupo 1180619" transform="translate(43.655 43.617)">
              <path id="Trazado_1043548" data-name="Trazado 1043548" d="M237.31,218.479a5.05,5.05,0,0,1,2.012-1.42,5.285,5.285,0,0,1,2.49-.348,5.855,5.855,0,0,1,2.356.8,8.149,8.149,0,0,1,.982.708c.282.284.561.562.815.86l-.642.7c-.32-.172-.6-.379-.906-.552l-.456-.239a2.911,2.911,0,0,0-.452-.226c-.156-.061-.307-.127-.457-.2a4.585,4.585,0,0,0-.466-.146,4.889,4.889,0,0,0-.936-.2,5.225,5.225,0,0,0-1.9.129,7.142,7.142,0,0,0-1.838.757Z" transform="translate(-237.31 -216.683)" fill="#3c3c3b"/>
            </g>
            <path id="Trazado_1043549" data-name="Trazado 1043549" d="M181.959,197.341a19.868,19.868,0,0,0-7.348-2.827,5.62,5.62,0,0,0-4.715,1.865,7.157,7.157,0,0,0-1.324,3.02,8.034,8.034,0,0,0-.2,2.866,6.393,6.393,0,0,0,5.309,5.116,8.659,8.659,0,0,0,7.2-2.475" transform="translate(-164.263 -163.615)" fill="#f9c29b"/>
            <g id="Grupo_1180620" data-name="Grupo 1180620" transform="translate(9.165 34.634)">
              <path id="Trazado_1043550" data-name="Trazado 1043550" d="M177.613,201.051a6.344,6.344,0,0,1,2.737,2.047,6.23,6.23,0,0,1,1.337,3.15.319.319,0,0,1-.611.157l0,0a11.89,11.89,0,0,0-1.523-2.682,11.327,11.327,0,0,0-2.213-2.158l0,0a.292.292,0,0,1,.276-.508Z" transform="translate(-177.221 -201.033)" fill="#3c3c3b"/>
            </g>
            <g id="Grupo_1180621" data-name="Grupo 1180621" transform="translate(9.702 36.795)">
              <path id="Trazado_1043551" data-name="Trazado 1043551" d="M180.608,205.3a7.081,7.081,0,0,0-1.1,1.484,7.823,7.823,0,0,0-.664,1.716l0,.012a.323.323,0,0,1-.628-.022,3.235,3.235,0,0,1,.413-2.2,3.3,3.3,0,0,1,1.677-1.477.3.3,0,0,1,.317.481Z" transform="translate(-178.157 -204.798)" fill="#3c3c3b"/>
            </g>
            <path id="Trazado_1043552" data-name="Trazado 1043552" d="M245.225,150.249c7.365,7.45,9.547,17.676,7.083,27.857a25.39,25.39,0,0,1-5.762-10.679c1.129,1.243.327,3.4-1.128,4.243s-3.244.743-4.918.623l-7.448-.536a7.66,7.66,0,0,1-3.129-.676c-1.73-.934-2.47-3.027-2.732-4.976s-.208-3.983-.98-5.791q.112,4.6-.061,9.2a3.284,3.284,0,0,1-3.98,3.8,125.094,125.094,0,0,1-16.475-.491,5.276,5.276,0,0,1-2.329-.6c-2.494-1.561-1.1-5.811-3.054-8.016l-1.645,5.135a1.523,1.523,0,0,1-2.245,1.189l-4.514-.992-3.656,6.228c-2.7-6.741,2.018-15.042,5.3-21.519,0,0,6.2-13.142,30.852-12.626C224.4,141.619,237.483,142.419,245.225,150.249Z" transform="translate(-172.413 -141.08)" fill="#3c3c3b"/>
            <circle id="Elipse_12513" data-name="Elipse 12513" cx="7.102" cy="7.102" r="7.102" transform="translate(66.596 14.434) rotate(-76.645)" fill="#3c3c3b"/>
            <circle id="Elipse_12514" data-name="Elipse 12514" cx="7.102" cy="7.102" r="7.102" transform="translate(13.593 13.82) rotate(-76.645)" fill="#3c3c3b"/>
          </g>
          <path id="Trazado_1043553" data-name="Trazado 1043553" d="M245.233,396.325c7.97,5.71,10.054,17.573,10.4,28.124a165.89,165.89,0,0,1-2,31.679l-86.159-.036a165.894,165.894,0,0,1-2-31.679c.345-10.551,2.429-22.414,10.4-28.124" transform="translate(-132.899 -249.583)" fill="#1ab2bf"/>
          <g id="Grupo_1180623" data-name="Grupo 1180623" transform="translate(74.167 165.927)">
            <path id="Trazado_1043554" data-name="Trazado 1043554" d="M238.8,430.051q.169,3.971.193,7.942c.006,1.324.033,2.647.016,3.971s-.006,2.647-.033,3.971l-.461-.461c1.718.03,3.436.067,5.154.149a.313.313,0,0,1,0,.625c-1.718.082-3.436.119-5.154.149a.454.454,0,0,1-.461-.445v-.017c-.028-1.324-.021-2.647-.033-3.971s.01-2.647.016-3.971q.022-3.971.193-7.942a.286.286,0,0,1,.572,0Z" transform="translate(-238.009 -429.777)" fill="#3c3c3b"/>
          </g>
          <line id="Línea_730" data-name="Línea 730" y1="11.547" transform="translate(77.076 194.645)" fill="none" stroke="#3c3c3b" stroke-linecap="round" stroke-linejoin="round" stroke-miterlimit="10" stroke-width="1.749"/>
          <line id="Línea_731" data-name="Línea 731" x2="7.845" transform="translate(73.322 194.345)" fill="none" stroke="#3c3c3b" stroke-linecap="round" stroke-linejoin="round" stroke-miterlimit="10" stroke-width="1.749"/>
          <g id="Grupo_1180624" data-name="Grupo 1180624" transform="translate(106.999 154.216)">
            <path id="Trazado_1043555" data-name="Trazado 1043555" d="M295.774,409.587a23.373,23.373,0,0,0,14.888,16.065.313.313,0,0,1-.18.6,19.617,19.617,0,0,1-5.423-2.332,21.927,21.927,0,0,1-7.953-8.625,19.7,19.7,0,0,1-1.892-5.586.287.287,0,0,1,.56-.121Z" transform="translate(-295.21 -409.373)" fill="#3c3c3b"/>
          </g>
          <g id="Grupo_1180625" data-name="Grupo 1180625" transform="translate(33.697 153.641)">
            <path id="Trazado_1043556" data-name="Trazado 1043556" d="M183.159,408.706a19.678,19.678,0,0,1-1.892,5.586,21.932,21.932,0,0,1-7.952,8.625,19.62,19.62,0,0,1-5.423,2.331.313.313,0,0,1-.18-.6A23.326,23.326,0,0,0,182.6,408.585a.287.287,0,0,1,.56.121Z" transform="translate(-167.5 -408.371)" fill="#3c3c3b"/>
          </g>
          <path id="Trazado_1043557" data-name="Trazado 1043557" d="M124.111,285.3s26.763-5.308,69.016,11.374c0,0,38.635-13.979,67.715-11.834l-2.493,19.71-132.67.836Z" transform="translate(-115.318 -201.959)" fill="#fff"/>
          <g id="Grupo_1180626" data-name="Grupo 1180626" transform="translate(13.116 83.411)">
            <path id="Trazado_1043558" data-name="Trazado 1043558" d="M131.727,286.014c5.427.036,10.845.384,16.244.908s10.774,1.295,16.111,2.27l3.993.788,3.965.916c1.326.288,2.633.65,3.941,1.011l1.964.535c.655.174,1.31.354,1.953.57l3.878,1.235c.651.193,1.283.439,1.919.676l1.907.711,1.907.711c.638.232,1.247.533,1.872.8l3.729,1.632a.089.089,0,0,1-.072.164l0,0-3.727-1.616c-.625-.261-1.234-.559-1.872-.788l-1.906-.7-1.906-.7c-.635-.235-1.267-.478-1.918-.668l-3.875-1.22a156.274,156.274,0,0,0-15.8-3.765q-7.988-1.489-16.082-2.326c-5.39-.544-10.8-.911-16.221-.967a.081.081,0,0,1-.083-.08A.085.085,0,0,1,131.727,286.014Z" transform="translate(-131.644 -286.014)" fill="#3c3c3b"/>
          </g>
          <g id="Grupo_1180627" data-name="Grupo 1180627" transform="translate(16.843 85.691)">
            <path id="Trazado_1043559" data-name="Trazado 1043559" d="M138.219,289.986c5.123.043,10.233.41,15.322.963s10.151,1.36,15.17,2.37a140.758,140.758,0,0,1,14.861,3.857l3.647,1.2c1.2.437,2.394.907,3.592,1.359l1.794.684,1.759.771,3.513,1.551a.089.089,0,0,1-.072.164l0,0-3.513-1.535-1.758-.763-1.794-.677c-1.2-.447-2.388-.912-3.59-1.344L183.5,297.4a142.6,142.6,0,0,0-14.847-3.8q-7.509-1.543-15.138-2.426c-5.079-.572-10.187-.959-15.3-1.022a.082.082,0,0,1-.084-.08A.083.083,0,0,1,138.219,289.986Z" transform="translate(-138.136 -289.986)" fill="#3c3c3b"/>
          </g>
          <g id="Grupo_1180628" data-name="Grupo 1180628" transform="translate(79.575 83.41)">
            <path id="Trazado_1043560" data-name="Trazado 1043560" d="M310.866,286.177c-5.416.056-10.831.424-16.221.967s-10.757,1.333-16.082,2.326a156.276,156.276,0,0,0-15.8,3.765l-3.875,1.22c-.65.191-1.282.434-1.918.668l-1.906.7-1.906.7c-.638.229-1.247.527-1.871.788l-3.727,1.616-.005,0a.089.089,0,0,1-.072-.164l3.729-1.632c.625-.263,1.235-.564,1.872-.8l1.907-.711,1.907-.711c.635-.237,1.268-.483,1.919-.676l3.878-1.235c.643-.216,1.3-.4,1.953-.57l1.964-.535c1.308-.36,2.616-.723,3.941-1.011l3.965-.916,3.993-.788q8.006-1.462,16.111-2.269c5.4-.524,10.816-.872,16.244-.908a.082.082,0,1,1,0,.164Z" transform="translate(-247.431 -286.013)" fill="#3c3c3b"/>
          </g>
          <g id="Grupo_1180629" data-name="Grupo 1180629" transform="translate(79.575 85.691)">
            <path id="Trazado_1043561" data-name="Trazado 1043561" d="M307.14,290.15c-5.11.063-10.217.45-15.3,1.022s-10.132,1.4-15.138,2.426a142.572,142.572,0,0,0-14.846,3.8l-3.645,1.188c-1.2.432-2.393.9-3.59,1.344l-1.794.677-1.758.763-3.513,1.535,0,0a.089.089,0,1,1-.072-.164L251,301.194l1.759-.771,1.794-.684c1.2-.452,2.389-.922,3.592-1.359l3.647-1.2a140.735,140.735,0,0,1,14.861-3.857q7.528-1.516,15.17-2.37c5.089-.553,10.2-.92,15.322-.963a.082.082,0,0,1,.083.081A.085.085,0,0,1,307.14,290.15Z" transform="translate(-247.431 -289.987)" fill="#3c3c3b"/>
          </g>
          <path id="Trazado_1043562" data-name="Trazado 1043562" d="M181.079,298.606l-72.287-16.122,14.562,79.048,57.726,13.522h9.881l55.126-12.481s9.773-43.353,14.562-80.088l-68.3,16.189Z" transform="translate(-108.792 -201.099)" fill="#f9db0e"/>
          <line id="Línea_732" data-name="Línea 732" y2="76.448" transform="translate(72.287 97.507)" fill="none" stroke="#3c3c3b" stroke-miterlimit="10" stroke-width="1"/>
          <line id="Línea_733" data-name="Línea 733" x1="1.39" y2="76.381" transform="translate(82.168 97.574)" fill="none" stroke="#3c3c3b" stroke-miterlimit="10" stroke-width="1"/>
          <path id="Trazado_1043563" data-name="Trazado 1043563" d="M123.67,359.64a4.585,4.585,0,0,1,2.776.354,2.557,2.557,0,0,1,1.083,2.686,3.145,3.145,0,0,1-2,2.191,2.385,2.385,0,1,1,.408,4.637,5.459,5.459,0,0,1,1.923.517,1.854,1.854,0,0,1,1.03,1.6c-.047,1.066-1.225,1.656-2.228,2.022a1.3,1.3,0,0,1,1.707.945,2.011,2.011,0,0,1-.857,1.947,4.809,4.809,0,0,1-2.093.763,11.3,11.3,0,0,1-5.373-.238,9.945,9.945,0,0,1-5.577-4.907,14.689,14.689,0,0,1-1.5-7.381,12.848,12.848,0,0,1,1.292-5.424,7.734,7.734,0,0,1,4.02-3.746l.809,4.316Z" transform="translate(-110.567 -232.251)" fill="#f9c29b"/>
          <path id="Trazado_1043564" data-name="Trazado 1043564" d="M348.011,356.594a4.589,4.589,0,0,0-2.776.353,2.557,2.557,0,0,0-1.083,2.686,3.146,3.146,0,0,0,2,2.191,2.385,2.385,0,1,0-.408,4.637,5.459,5.459,0,0,0-1.923.517,1.855,1.855,0,0,0-1.03,1.6c.047,1.066,1.225,1.656,2.228,2.022a1.3,1.3,0,0,0-1.707.945,2.011,2.011,0,0,0,.857,1.947,4.809,4.809,0,0,0,2.093.763,11.3,11.3,0,0,0,5.373-.238,9.945,9.945,0,0,0,5.577-4.908,14.683,14.683,0,0,0,1.5-7.381,12.848,12.848,0,0,0-1.292-5.423,7.731,7.731,0,0,0-4.02-3.745l-.809,4.316Z" transform="translate(-208.479 -230.953)" fill="#f9c29b"/>
        </g>
      </g>
    </g>
  </g>
</svg>
