<svg xmlns="http://www.w3.org/2000/svg" width="30.376" height="36.055" viewBox="0 0 30.376 36.055">
  <g id="XMLID_3730_" transform="translate(-38.881)">
    <g id="XMLID_31_" transform="translate(38.881 0)">
      <path id="XMLID_46_" d="M69.257,31.168v-4a11.169,11.169,0,0,0-3.838-8.429h.707V8.057a8.057,8.057,0,0,0-16.114,0v6.5a6.015,6.015,0,0,0-3.579-1.422l-.025,0c-.2-.01-.4-.01-.593,0l-.064,0a6.037,6.037,0,0,0-5.1,3.38v0a6.068,6.068,0,0,0,2.608,8.05,7.225,7.225,0,0,0-4.375,6.63v1.073h1.1V31.2A6.129,6.129,0,0,1,43.613,25.6v.778c0,.84,1.283,1.139,2.485,1.139s2.485-.3,2.485-1.139V25.6A6.128,6.128,0,0,1,52.218,31.2V34.96H39.976V33.376h-1.1v2.679H69.257V32.268h-1.1V34.96H53.314V31.2a7.226,7.226,0,0,0-4.374-6.631A6.08,6.08,0,0,0,52.172,19.2c0-.073,0-.145-.005-.217.113-.082.432-.3.432-.3a10.055,10.055,0,0,1,2.738-1.236v.407c0,.894,1.409,1.213,2.728,1.213s2.728-.319,2.728-1.213v-.408a10.115,10.115,0,0,1,7.37,9.723v4ZM45.584,14.245h.008a5.061,5.061,0,0,1,1.508.076,4.965,4.965,0,0,1,2.172,1.045,3.045,3.045,0,0,1-2.165.843,2.338,2.338,0,0,1-1.79-.687l-.921.09c-.006.013-.592,1.124-2.419.794A4.983,4.983,0,0,1,45.584,14.245ZM46.1,26.425a3.73,3.73,0,0,1-1.389-.214v-1.1a6.032,6.032,0,0,0,2.778,0v1.1A3.73,3.73,0,0,1,46.1,26.425Zm0-2.247a4.977,4.977,0,0,1-4.647-6.765,4.979,4.979,0,0,0,1.163.146,3.245,3.245,0,0,0,2.351-.9,3.656,3.656,0,0,0,2.143.647,4.125,4.125,0,0,0,2.923-1.153A4.975,4.975,0,0,1,46.1,24.178ZM58.064,14.57a5.011,5.011,0,0,1-5-4.829c4.268-.137,6.456-1.9,7.51-3.24.036.157.079.318.129.481a3.716,3.716,0,0,0,2.366,2.65A5.011,5.011,0,0,1,58.064,14.57Zm0,3.4a4.014,4.014,0,0,1-1.632-.267V15.442a6.071,6.071,0,0,0,3.265,0v2.266A4.015,4.015,0,0,1,58.064,17.974Zm2.728-2.955a6.106,6.106,0,0,0,3.372-5.454c0-.122,0-.249-.014-.4l-.028-.427L63.7,8.662c-2.281-.415-2.224-3.8-2.224-3.839L60.41,4.637a5.257,5.257,0,0,1-1.484,2.005,9.575,9.575,0,0,1-6.4,2.012h-.513l-.033.512c-.01.151-.014.277-.014.4a6.106,6.106,0,0,0,3.372,5.454v1.3a11.475,11.475,0,0,0-3.327,1.436l-.039-.1a6.051,6.051,0,0,0-.863-1.879V8.057a6.962,6.962,0,0,1,13.923,0v9.59H63.936a11.133,11.133,0,0,0-3.144-1.331v-1.3Z" transform="translate(-38.881 0)"/>
      <g id="XMLID_4487_" transform="translate(4.478 30.492)">
        <path id="XMLID_290_" d="M160.2,417.532h1.1v1.1h-1.1Z" transform="translate(-155.813 -417.532)"/>
        <path id="XMLID_289_" d="M130.2,417.532h1.1v1.1h-1.1Z" transform="translate(-128.004 -417.532)"/>
        <path id="XMLID_288_" d="M100.195,417.532h1.1v1.1h-1.1Z" transform="translate(-100.195 -417.532)"/>
      </g>
    </g>
  </g>
</svg>
