<svg xmlns="http://www.w3.org/2000/svg" xmlns:xlink="http://www.w3.org/1999/xlink" width="110" height="110" viewBox="0 0 110 110">
  <defs>
    <filter id="Trazado_982547" x="0" y="0" width="110" height="110" filterUnits="userSpaceOnUse">
      <feOffset dy="3" input="SourceAlpha"/>
      <feGaussianBlur stdDeviation="3" result="blur"/>
      <feFlood flood-opacity="0.161"/>
      <feComposite operator="in" in2="blur"/>
      <feComposite in="SourceGraphic"/>
    </filter>
  </defs>
  <g id="Grupo_1208874" data-name="Grupo 1208874" transform="translate(-4945.727 -2371.933)">
    <g id="Grupo_1207027" data-name="Grupo 1207027" transform="translate(4954.727 2377.933)">
      <g id="Grupo_1183657" data-name="Grupo 1183657" transform="translate(0 0)">
        <g id="Grupo_1179603" data-name="Grupo 1179603">
          <g id="Grupo_1172349" data-name="Grupo 1172349" transform="translate(0 0)">
            <g id="Grupo_1164700" data-name="Grupo 1164700">
              <g id="Grupo_1160931" data-name="Grupo 1160931">
                <g id="Grupo_1160749" data-name="Grupo 1160749">
                  <g id="Grupo_1158891" data-name="Grupo 1158891">
                    <g id="Grupo_1157406" data-name="Grupo 1157406">
                      <g id="Grupo_1155793" data-name="Grupo 1155793">
                        <g id="Grupo_1154704" data-name="Grupo 1154704">
                          <g id="Grupo_1150790" data-name="Grupo 1150790">
                            <g id="Grupo_1154214" data-name="Grupo 1154214">
                              <g id="Grupo_1152583" data-name="Grupo 1152583">
                                <g id="Grupo_1146973" data-name="Grupo 1146973">
                                  <g id="Grupo_1146954" data-name="Grupo 1146954">
                                    <g transform="matrix(1, 0, 0, 1, -9, -6)" filter="url(#Trazado_982547)">
                                      <g id="Trazado_982547-2" data-name="Trazado 982547" transform="translate(9 6)" fill="#effbfe">
                                        <path d="M 46.00000381469727 90.49986267089844 C 39.99188232421875 90.49986267089844 34.16428375244141 89.32350158691406 28.67905807495117 87.00344848632812 C 23.38021659851074 84.76223754882812 18.62104415893555 81.55341339111328 14.53376388549805 77.46613311767578 C 10.44647026062012 73.37885284423828 7.237643718719482 68.61968994140625 4.996417045593262 63.32085037231445 C 2.676363706588745 57.83565139770508 1.500003814697266 52.00805282592773 1.500003814697266 45.99993133544922 C 1.500003814697266 39.99182510375977 2.676363706588745 34.16422653198242 4.996417045593262 28.67901039123535 C 7.237643718719482 23.38017082214355 10.44647026062012 18.62101173400879 14.53376388549805 14.53373146057129 C 18.62104415893555 10.44645118713379 23.38021659851074 7.237624645233154 28.67905807495117 4.996411323547363 C 34.16428375244141 2.676357984542847 39.99188232421875 1.499997973442078 46.00000381469727 1.499997973442078 C 52.00812530517578 1.499997973442078 57.83573532104492 2.676357984542847 63.32094955444336 4.996411323547363 C 68.61980438232422 7.237624645233154 73.37896728515625 10.44645118713379 77.46625518798828 14.53373146057129 C 81.55353546142578 18.62101173400879 84.76236724853516 23.38017082214355 87.00359344482422 28.67901039123535 C 89.32364654541016 34.16422653198242 90.5 39.99182510375977 90.5 45.99993133544922 C 90.5 52.00805282592773 89.32364654541016 57.83565139770508 87.00359344482422 63.32085037231445 C 84.76236724853516 68.61968994140625 81.55353546142578 73.37885284423828 77.46625518798828 77.46613311767578 C 73.37896728515625 81.55341339111328 68.61980438232422 84.76223754882812 63.32094955444336 87.00344848632812 C 57.83573532104492 89.32350158691406 52.00812530517578 90.49986267089844 46.00000381469727 90.49986267089844 Z" stroke="none"/>
                                        <path d="M 46.00000381469727 3 C 40.19371795654297 3 34.56270217895508 4.136505126953125 29.26338958740234 6.377914428710938 C 24.14333343505859 8.54351806640625 19.54443359375 11.64438629150391 15.59442138671875 15.59439086914062 C 11.64440155029297 19.54440307617188 8.543533325195312 24.14330291748047 6.3779296875 29.26334381103516 C 4.136505126953125 34.56266021728516 3.000007629394531 40.19366073608398 3.000007629394531 45.99993133544922 C 3.000007629394531 51.80620193481445 4.136505126953125 57.43720245361328 6.3779296875 62.73651885986328 C 8.543533325195312 67.85655975341797 11.64440155029297 72.45545959472656 15.59442138671875 76.40547180175781 C 19.54443359375 80.35547637939453 24.14333343505859 83.45634460449219 29.26338958740234 85.6219482421875 C 34.56270217895508 87.86335754394531 40.19371795654297 88.99986267089844 46.00000381469727 88.99986267089844 C 51.80628967285156 88.99986267089844 57.43730545043945 87.86335754394531 62.73663330078125 85.6219482421875 C 67.85667419433594 83.45634460449219 72.45558929443359 80.35547637939453 76.40560150146484 76.40547180175781 C 80.35560607910156 72.45545959472656 83.45648956298828 67.85655975341797 85.62208557128906 62.73651885986328 C 87.86350250244141 57.43720245361328 89 51.80620193481445 89 45.99993133544922 C 89 40.19366073608398 87.86350250244141 34.56266021728516 85.62208557128906 29.26334381103516 C 83.45648956298828 24.14330291748047 80.35560607910156 19.54440307617188 76.40560150146484 15.59439086914062 C 72.45558929443359 11.64438629150391 67.85667419433594 8.54351806640625 62.73663330078125 6.377914428710938 C 57.43730545043945 4.136505126953125 51.80628967285156 3 46.00000381469727 3 M 46.00000381469727 0 C 71.40510559082031 0 92 20.59487152099609 92 45.99993133544922 C 92 71.40499114990234 71.40510559082031 91.99986267089844 46.00000381469727 91.99986267089844 C 20.59491729736328 91.99986267089844 7.62939453125e-06 71.40499114990234 7.62939453125e-06 45.99993133544922 C 7.62939453125e-06 20.59487152099609 20.59491729736328 0 46.00000381469727 0 Z" stroke="none" fill="#397b86"/>
                                      </g>
                                    </g>
                                  </g>
                                </g>
                              </g>
                            </g>
                          </g>
                        </g>
                      </g>
                    </g>
                  </g>
                </g>
              </g>
            </g>
          </g>
        </g>
      </g>
    </g>
    <g id="fiesta" transform="translate(4970.12 2393.325)">
      <path id="Trazado_1077523" data-name="Trazado 1077523" d="M44.293,7.885l1.787,2.406a2.5,2.5,0,0,0,2.1,1.007l3-.108a.946.946,0,0,1,.806,1.494l-1.736,2.443a2.5,2.5,0,0,0-.31,2.3l1.028,2.816a.947.947,0,0,1-1.172,1.228l-2.86-.9A2.5,2.5,0,0,0,44.639,21l-2.36,1.848a.947.947,0,0,1-1.53-.735l-.031-3a2.5,2.5,0,0,0-1.1-2.047l-2.487-1.673a.946.946,0,0,1,.227-1.682l2.841-.956A2.5,2.5,0,0,0,41.8,11.071l.823-2.882a.946.946,0,0,1,1.67-.3Z" transform="translate(-32.32 -6.604)" fill="#ffd54f"/>
      <g id="Grupo_1208868" data-name="Grupo 1208868" transform="translate(9.613 0.898)">
        <path id="Trazado_1077524" data-name="Trazado 1077524" d="M90.45,12.685a.946.946,0,0,0-.806-1.494l-3,.108a2.5,2.5,0,0,1-2.1-1.007L82.766,7.886a.946.946,0,0,0-1.67.3l-.69,2.416.56.754a2.5,2.5,0,0,0,2.1,1.007s2.532.137,2.842,1.4-1.37,3.963-1.087,4.735l.782,2.142,2.661.834a.947.947,0,0,0,1.172-1.228L88.4,17.433a2.5,2.5,0,0,1,.31-2.3Z" transform="translate(-80.406 -7.503)" fill="#ffc328"/>
      </g>
      <path id="Trazado_1077525" data-name="Trazado 1077525" d="M201.989,275.57l.332,2.979a2.5,2.5,0,0,0,1.3,1.926l2.642,1.416a.946.946,0,0,1-.057,1.7l-2.731,1.236a2.5,2.5,0,0,0-1.429,1.834l-.53,2.95a.946.946,0,0,1-1.631.47l-2.019-2.215a2.5,2.5,0,0,0-2.186-.792l-2.97.408a.946.946,0,0,1-.951-1.406l1.483-2.605a2.5,2.5,0,0,0,.078-2.324l-1.305-2.7a.946.946,0,0,1,1.043-1.339l2.936.605a2.5,2.5,0,0,0,2.234-.644l2.163-2.075A.946.946,0,0,1,201.989,275.57Z" transform="translate(-168.725 -241.881)" fill="#ffd54f"/>
      <g id="Grupo_1208869" data-name="Grupo 1208869" transform="translate(29.285 32.846)">
        <path id="Trazado_1077526" data-name="Trazado 1077526" d="M253.145,283.587a.946.946,0,0,0,.057-1.7l-2.642-1.416a2.5,2.5,0,0,1-1.3-1.926l-.332-2.979a.947.947,0,0,0-1.6-.578l-1.813,1.739.1.934a2.5,2.5,0,0,0,1.3,1.926s2.119,1.394,1.75,2.64-3.179,2.733-3.324,3.543l-.4,2.244,1.878,2.061a.946.946,0,0,0,1.631-.47l.53-2.95a2.5,2.5,0,0,1,1.429-1.834Z" transform="translate(-244.946 -274.727)" fill="#ffc328"/>
      </g>
      <g id="Grupo_1208870" data-name="Grupo 1208870" transform="translate(0.897 25.809)">
        <path id="Trazado_1077527" data-name="Trazado 1077527" d="M12.681,353.139c.494,1.393-.375,2.527-1.768,3.021s-2.783.163-3.277-1.231.422-2.461,1.816-2.955S12.186,351.745,12.681,353.139Z" transform="translate(-7.5 -335.499)" fill="#f74f68"/>
        <path id="Trazado_1077528" data-name="Trazado 1077528" d="M103.511,320.9c.494,1.393-.375,2.527-1.768,3.021s-2.783.163-3.277-1.231.422-2.461,1.816-2.955S103.016,319.51,103.511,320.9Z" transform="translate(-87.47 -307.118)" fill="#f74f68"/>
        <path id="Trazado_1077529" data-name="Trazado 1077529" d="M22.73,218.811l-10.859,3.854-.88-2.48a.7.7,0,0,1,.423-.888l9.549-3.389a.7.7,0,0,1,.888.423Z" transform="translate(-10.538 -215.868)" fill="#f74f68"/>
      </g>
      <path id="Trazado_1077530" data-name="Trazado 1077530" d="M316.564,438.82c-.465,1.4-1.847,1.765-3.251,1.3s-2.3-1.58-1.832-2.983,1.844-1.683,3.247-1.218S317.029,437.417,316.564,438.82Z" transform="translate(-274.132 -383.617)" fill="#d86ef0"/>
      <path id="Trazado_1077531" data-name="Trazado 1077531" d="M396.105,352.088l-10.938-3.624.828-2.5a.7.7,0,0,1,.878-.441l9.619,3.187a.7.7,0,0,1,.441.879Z" transform="translate(-339.117 -304.182)" fill="#d86ef0"/>
      <g id="Grupo_1208871" data-name="Grupo 1208871" transform="translate(48.164 55.717)">
        <path id="Trazado_1077532" data-name="Trazado 1077532" d="M408.055,469.131c-.465,1.4-1.847,1.765-3.251,1.3s-2.3-1.58-1.832-2.983,1.844-1.683,3.247-1.218S408.52,467.727,408.055,469.131Z" transform="translate(-402.849 -466.022)" fill="#d86ef0"/>
      </g>
      <path id="Trazado_1077533" data-name="Trazado 1077533" d="M204.193,181.8c-.262,1.455-1.579,2.008-3.034,1.746s-2.5-1.239-2.235-2.694,1.587-1.927,3.042-1.665S204.455,180.34,204.193,181.8Z" transform="translate(-175.105 -157.698)" fill="#7be492"/>
      <path id="Trazado_1077534" data-name="Trazado 1077534" d="M299.05,198.863c-.262,1.455-1.579,2.008-3.034,1.746s-2.5-1.239-2.235-2.694,1.587-1.927,3.042-1.665S299.312,197.408,299.05,198.863Z" transform="translate(-258.621 -172.726)" fill="#7be492"/>
      <path id="Trazado_1077535" data-name="Trazado 1077535" d="M271.675,85.59l-11.341-2.04.466-2.59a.7.7,0,0,1,.807-.561l9.973,1.794a.7.7,0,0,1,.561.807Z" transform="translate(-229.209 -70.776)" fill="#7be492"/>
      <path id="Trazado_1077536" data-name="Trazado 1077536" d="M410.811,184.673v2.386a1.976,1.976,0,0,0,.86,1.633l1.962,1.341a.755.755,0,0,1-.194,1.338l-2.266.75a2,2,0,0,0-1.29,1.333l-.678,2.291a.753.753,0,0,1-1.33.236l-1.4-1.922a1.972,1.972,0,0,0-1.657-.81l-2.381.075a.75.75,0,0,1-.628-1.192l1.4-1.938a2,2,0,0,0,.266-1.833l-.793-2.245a.757.757,0,0,1,.942-.973l2.266.724a1.989,1.989,0,0,0,1.821-.323l1.891-1.462A.749.749,0,0,1,410.811,184.673Z" transform="translate(-353.641 -161.933)" fill="#ffd54f"/>
      <g id="Grupo_1208872" data-name="Grupo 1208872" transform="translate(52.37 21.99)">
        <path id="Trazado_1077537" data-name="Trazado 1077537" d="M445.457,191.371a.755.755,0,0,0,.194-1.338l-1.962-1.341a1.976,1.976,0,0,1-.86-1.633v-2.386a.749.749,0,0,0-1.21-.591l-1.891,1.462a1.985,1.985,0,0,1-.277.179,4.483,4.483,0,0,0,.887,2.015c.5.691,1.592,1.884.7,2.487s-2.336,1.112-2.522,1.74l-.486,1.641a1.967,1.967,0,0,1,.463.453l1.4,1.922a.753.753,0,0,0,1.33-.236l.678-2.291a2,2,0,0,1,1.29-1.333Z" transform="translate(-438.03 -183.923)" fill="#ffc328"/>
      </g>
      <path id="Trazado_1077538" data-name="Trazado 1077538" d="M100.465,397.076l-1.45.837a2.152,2.152,0,0,1-2.94-.788l-1.554-2.692a.478.478,0,0,1,.175-.653l1.45-.837a2.152,2.152,0,0,1,2.94.788l1.554,2.692A.478.478,0,0,1,100.465,397.076Z" transform="translate(-83.164 -345.709)" fill="#7be492"/>
      <path id="Trazado_1077539" data-name="Trazado 1077539" d="M127.484,159.489l-1.657-.238A2.152,2.152,0,0,1,124,156.815l.442-3.077a.478.478,0,0,1,.541-.405l1.657.238a2.152,2.152,0,0,1,1.825,2.436l-.442,3.077A.478.478,0,0,1,127.484,159.489Z" transform="translate(-109.157 -134.996)" fill="#7be492"/>
      <path id="Trazado_1077540" data-name="Trazado 1077540" d="M182.5,437.279l-1.262-1.1a2.152,2.152,0,0,1-.208-3.036l2.042-2.343a.478.478,0,0,1,.675-.046l1.262,1.1a2.152,2.152,0,0,1,.208,3.036l-2.042,2.343A.478.478,0,0,1,182.5,437.279Z" transform="translate(-158.919 -379.149)" fill="#f74f68"/>
      <path id="Trazado_1077541" data-name="Trazado 1077541" d="M418.384,83.127l-1.64.334a2.152,2.152,0,0,1-2.538-1.679l-.62-3.046a.478.478,0,0,1,.373-.564l1.64-.334a2.152,2.152,0,0,1,2.538,1.679l.621,3.046A.478.478,0,0,1,418.384,83.127Z" transform="translate(-364.129 -68.493)" fill="#d86ef0"/>
      <path id="Trazado_1077542" data-name="Trazado 1077542" d="M210.262,27.332l-.754-1.494a2.152,2.152,0,0,1,.952-2.891l2.775-1.4a.478.478,0,0,1,.642.212l.754,1.494a2.152,2.152,0,0,1-.952,2.891l-2.775,1.4A.478.478,0,0,1,210.262,27.332Z" transform="translate(-184.257 -18.925)" fill="#d86ef0"/>
      <path id="Trazado_1077543" data-name="Trazado 1077543" d="M338.076,268.545l-1.589-.526a2.152,2.152,0,0,1-1.366-2.72l.978-2.951a.478.478,0,0,1,.6-.3l1.589.526a2.152,2.152,0,0,1,1.366,2.72l-.978,2.951A.478.478,0,0,1,338.076,268.545Z" transform="translate(-294.958 -230.693)" fill="#f74f68"/>
      <g id="Grupo_1208873" data-name="Grupo 1208873" transform="translate(0 0.001)">
        <path id="Trazado_1077544" data-name="Trazado 1077544" d="M46.211,4.657a1.826,1.826,0,0,0-1.689-.967l-3,.108a1.6,1.6,0,0,1-1.344-.646L38.4.746a1.843,1.843,0,0,0-3.252.593l-.153.536a.9.9,0,0,0,1.725.493l.153-.536a.05.05,0,0,1,.088-.016l1.787,2.406A3.4,3.4,0,0,0,41.591,5.59l3-.108a.05.05,0,0,1,.042.079L42.892,8a3.393,3.393,0,0,0-.422,3.131L43.5,13.951a.05.05,0,0,1-.062.065l-2.86-.9a3.4,3.4,0,0,0-3.108.566l-2.36,1.848a.05.05,0,0,1-.08-.039L35,12.5a3.394,3.394,0,0,0-1.5-2.781L31.011,8.043a.05.05,0,0,1,.012-.089L33.863,7a3.382,3.382,0,0,0,1.029-.56.9.9,0,1,0-1.116-1.4,1.6,1.6,0,0,1-.485.264l-2.841.956a1.843,1.843,0,0,0-.441,3.276L32.5,11.2a1.6,1.6,0,0,1,.707,1.312l.031,3a1.841,1.841,0,0,0,2.979,1.432l2.36-1.848a1.6,1.6,0,0,1,1.466-.267l2.86.9a1.843,1.843,0,0,0,2.283-2.391L44.155,10.52a1.6,1.6,0,0,1,.2-1.477L46.091,6.6a1.832,1.832,0,0,0,.12-1.943Z" transform="translate(-25.704 -0.001)"/>
        <path id="Trazado_1077545" data-name="Trazado 1077545" d="M201.048,276.175a1.831,1.831,0,0,0-.972-1.686l-2.642-1.416a1.6,1.6,0,0,1-.835-1.234l-.332-2.979a1.843,1.843,0,0,0-3.108-1.126L191,269.809a1.6,1.6,0,0,1-1.432.413l-2.936-.605a1.843,1.843,0,0,0-2.031,2.608l1.305,2.7a1.6,1.6,0,0,1-.05,1.49l-1.483,2.605a1.843,1.843,0,0,0,1.853,2.738l2.97-.408a1.6,1.6,0,0,1,1.4.508l2.019,2.215a1.831,1.831,0,0,0,1.357.6,1.863,1.863,0,0,0,.516-.073,1.832,1.832,0,0,0,1.3-1.445l.53-2.95a1.6,1.6,0,0,1,.916-1.176l2.731-1.236a1.833,1.833,0,0,0,1.082-1.618Zm-1.822-.016-2.731,1.236a3.394,3.394,0,0,0-1.941,2.493l-.53,2.95a.05.05,0,0,1-.086.025l-2.019-2.215a3.394,3.394,0,0,0-2.971-1.076l-2.97.408a.05.05,0,0,1-.05-.074l1.483-2.6a3.394,3.394,0,0,0,.106-3.158l-1.305-2.7a.05.05,0,0,1,.055-.071l2.936.605a3.394,3.394,0,0,0,3.036-.875l2.163-2.075a.05.05,0,0,1,.084.03l.332,2.979a3.394,3.394,0,0,0,1.771,2.617l2.642,1.416a.05.05,0,0,1,0,.089Z" transform="translate(-162.113 -235.271)"/>
        <path id="Trazado_1077546" data-name="Trazado 1077546" d="M11.116,213.852l1.427-.506,2.632,7.417a4.43,4.43,0,0,0-1.769.271c-2.027.719-2.976,2.367-2.361,4.1A3.01,3.01,0,0,0,14,227.174a4.393,4.393,0,0,0,1.466-.266c1.983-.7,2.934-2.417,2.313-4.166l-4.4-12.41h0l-.324-.912a1.593,1.593,0,0,0-2.032-.968l-9.55,3.389A1.594,1.594,0,0,0,.5,213.874l.88,2.48h0l2.929,8.254a4.486,4.486,0,0,0-1.766.279c-2.027.719-2.976,2.367-2.361,4.1a2.96,2.96,0,0,0,1.862,1.874,3.4,3.4,0,0,0,1.083.171,4.427,4.427,0,0,0,1.477-.269,3.916,3.916,0,0,0,2.049-1.538,2.96,2.96,0,0,0,.264-2.628l-3.548-10,4.136-1.468a.9.9,0,1,0-.6-1.69L2.774,214.91l-.256-.723h0l-.256-.722,9.17-3.254.256.722h0l.256.723-1.427.506a.9.9,0,1,0,.6,1.69ZM5.143,228.264a2.189,2.189,0,0,1-1.135.809,2.19,2.19,0,0,1-1.391.087,1.158,1.158,0,0,1-.741-.773c-.373-1.05.636-1.585,1.27-1.81a2.88,2.88,0,0,1,.936-.185,1.123,1.123,0,0,1,1.149.8A1.159,1.159,0,0,1,5.143,228.264Zm9.725-3.045c-.394.14-1.711.5-2.132-.686-.373-1.05.636-1.585,1.27-1.81a2.834,2.834,0,0,1,.931-.178,1.523,1.523,0,0,1,.453.063,1.063,1.063,0,0,1,.7.734C16.513,224.531,15.261,225.079,14.868,225.219Z" transform="translate(0 -183.45)"/>
        <path id="Trazado_1077547" data-name="Trazado 1077547" d="M325.2,341.242l-1.507-.5a.9.9,0,1,0-.564,1.7l1.315.436-.482,1.456-9.236-3.06.19-.573.051-.155h0l.241-.728,4.2,1.39a.9.9,0,1,0,.564-1.7l-4.387-1.453a1.592,1.592,0,0,0-2.012,1.01l-.828,2.5h0l-2.754,8.313a4.484,4.484,0,0,0-1.566-.864c-2.042-.677-3.8.042-4.38,1.787-.584,1.762.4,3.455,2.4,4.116a4.43,4.43,0,0,0,1.391.235,3.018,3.018,0,0,0,2.992-2.1h0l3.336-10.07,9.236,3.06-2.473,7.463a4.488,4.488,0,0,0-1.565-.864c-2.042-.676-3.8.042-4.38,1.788-.584,1.762.4,3.455,2.4,4.116a4.469,4.469,0,0,0,1.4.238,3.423,3.423,0,0,0,1.159-.195,2.959,2.959,0,0,0,1.822-1.912h0l4.142-12.5h0l.3-.918A1.593,1.593,0,0,0,325.2,341.242ZM307.01,353.216c-.4-.131-1.659-.653-1.263-1.85a1.143,1.143,0,0,1,1.191-.817,3.032,3.032,0,0,1,.923.168c.761.252,1.6.764,1.266,1.768h0C308.73,353.682,307.406,353.347,307.01,353.216Zm12.331,3.682a2.19,2.19,0,0,1-1.393-.058c-.4-.131-1.659-.653-1.263-1.85a1.143,1.143,0,0,1,1.191-.817,3.031,3.031,0,0,1,.923.168c.761.252,1.6.763,1.266,1.768h0A1.159,1.159,0,0,1,319.341,356.9Z" transform="translate(-267.548 -297.567)"/>
        <path id="Trazado_1077548" data-name="Trazado 1077548" d="M194.4,90.894a4.7,4.7,0,0,0,.833.077,3.093,3.093,0,0,0,3.242-2.546l1.878-10.44,9.576,1.723-1.394,7.746a4.43,4.43,0,0,0-1.67-.643c-2.117-.381-3.758.579-4.084,2.389a2.96,2.96,0,0,0,.687,2.55,3.916,3.916,0,0,0,2.272,1.185,4.774,4.774,0,0,0,.845.078,3.609,3.609,0,0,0,1.7-.4,2.96,2.96,0,0,0,1.533-2.151h0l2.037-11.322h0l.466-2.59a1.594,1.594,0,0,0-1.285-1.848l-9.973-1.794a1.592,1.592,0,0,0-1.848,1.285l-.171.953h0l-.24,1.336-.054.3h0l-1.551,8.62a4.485,4.485,0,0,0-1.672-.634,4.08,4.08,0,0,0-2.522.266,2.853,2.853,0,0,0-1.562,2.123,2.96,2.96,0,0,0,.687,2.55A3.915,3.915,0,0,0,194.4,90.894Zm13.046.136a2.536,2.536,0,0,1-2.638-.475,1.158,1.158,0,0,1-.26-1.039,1.24,1.24,0,0,1,1.4-1,3.473,3.473,0,0,1,.606.058,2.274,2.274,0,0,1,1.259.587,1.063,1.063,0,0,1,.244.985A1.158,1.158,0,0,1,207.441,91.03Zm3.074-14.6-.136.753h0l-.136.755-9.576-1.723.272-1.509ZM193.2,87.476a1.048,1.048,0,0,1,.585-.83,1.912,1.912,0,0,1,.834-.166,3.3,3.3,0,0,1,.581.055,2.275,2.275,0,0,1,1.259.587,1.063,1.063,0,0,1,.244.985c-.223,1.241-1.581,1.1-1.993,1.023a2.19,2.19,0,0,1-1.251-.614A1.158,1.158,0,0,1,193.2,87.476Z" transform="translate(-168.502 -64.17)"/>
        <path id="Trazado_1077549" data-name="Trazado 1077549" d="M407.528,182.682l-1.962-1.341a1.08,1.08,0,0,1-.469-.893v-2.386a1.646,1.646,0,0,0-2.655-1.3l-1.891,1.462a1.092,1.092,0,0,1-1,.179l-2.265-.724a1.654,1.654,0,0,0-2.061,2.126l.794,2.245a1.1,1.1,0,0,1-.147,1.009l-1.4,1.938a1.646,1.646,0,0,0,1.382,2.614l2.382-.075a1.079,1.079,0,0,1,.9.441l1.4,1.922a1.632,1.632,0,0,0,1.324.676,1.671,1.671,0,0,0,.285-.025,1.645,1.645,0,0,0,1.305-1.161l.678-2.291a1.106,1.106,0,0,1,.712-.736l2.266-.75a1.652,1.652,0,0,0,.419-2.93Zm-3.248,1.977a2.9,2.9,0,0,0-1.868,1.929l-.6,2.016-1.227-1.684a2.867,2.867,0,0,0-2.319-1.179h-.091l-2.082.065,1.228-1.7a2.892,2.892,0,0,0,.385-2.657l-.7-1.978,1.995.638a2.885,2.885,0,0,0,2.643-.468l1.656-1.28v2.085a2.872,2.872,0,0,0,1.25,2.374L406.276,184Z" transform="translate(-347.031 -155.324)"/>
        <path id="Trazado_1077550" data-name="Trazado 1077550" d="M93.243,386.677a3.053,3.053,0,0,0-4.165-1.116l-1.45.837a1.375,1.375,0,0,0-.5,1.878l1.554,2.692a3.029,3.029,0,0,0,1.851,1.421,3.067,3.067,0,0,0,.794.105,3.03,3.03,0,0,0,1.519-.41l1.449-.837a1.375,1.375,0,0,0,.5-1.878Zm-1.3,3.854a1.255,1.255,0,0,1-1.715-.459l-1.345-2.33,1.087-.628a1.257,1.257,0,0,1,1.715.46l1.345,2.329Z" transform="translate(-76.546 -339.106)"/>
        <path id="Trazado_1077551" data-name="Trazado 1077551" d="M120.152,146.074l-1.657-.238A1.375,1.375,0,0,0,116.939,147l-.441,3.077a3.048,3.048,0,0,0,2.585,3.451l1.657.238h0a1.4,1.4,0,0,0,.2.014,1.376,1.376,0,0,0,1.358-1.18l.441-3.077A3.052,3.052,0,0,0,120.152,146.074Zm.81,3.2-.382,2.663-1.243-.178a1.255,1.255,0,0,1-1.064-1.421l.382-2.663,1.243.178A1.257,1.257,0,0,1,120.962,149.27Z" transform="translate(-102.542 -128.388)"/>
        <path id="Trazado_1077552" data-name="Trazado 1077552" d="M178.995,424.568l-1.262-1.1a1.377,1.377,0,0,0-1.94.133l-2.042,2.343a3.052,3.052,0,0,0,.3,4.3l1.262,1.1a1.377,1.377,0,0,0,1.94-.133l2.042-2.343A3.052,3.052,0,0,0,178.995,424.568Zm-1.057,3.123-1.768,2.028-.946-.825a1.257,1.257,0,0,1-.121-1.771l1.768-2.028.946.825A1.257,1.257,0,0,1,177.938,427.691Z" transform="translate(-152.318 -372.543)"/>
        <path id="Trazado_1077553" data-name="Trazado 1077553" d="M406.717,75.358A3.051,3.051,0,0,0,409.7,77.8a3.077,3.077,0,0,0,.615-.062l1.64-.334a1.375,1.375,0,0,0,1.073-1.622l-.62-3.046a3.053,3.053,0,0,0-3.6-2.379l-1.64.334a1.375,1.375,0,0,0-1.073,1.622Zm2.451-3.244a1.257,1.257,0,0,1,1.481.98l.537,2.636-1.23.251A1.255,1.255,0,0,1,408.474,75l-.537-2.636Z" transform="translate(-357.52 -61.891)"/>
        <path id="Trazado_1077554" data-name="Trazado 1077554" d="M202.853,21.132a1.373,1.373,0,0,0,1.847.609l2.776-1.4a3.052,3.052,0,0,0,1.349-4.095l-.754-1.495a1.377,1.377,0,0,0-1.847-.608l-2.775,1.4a3.052,3.052,0,0,0-1.349,4.095Zm1.4-3.988,2.4-1.211.565,1.121a1.257,1.257,0,0,1-.556,1.686l-2.4,1.211L203.7,18.83A1.257,1.257,0,0,1,204.256,17.144Z" transform="translate(-177.65 -12.323)"/>
        <path id="Trazado_1077555" data-name="Trazado 1077555" d="M330.368,254.579a1.375,1.375,0,0,0-1.738.873l-.978,2.951a3.049,3.049,0,0,0,1.935,3.853l1.589.526a1.375,1.375,0,0,0,1.738-.873l.978-2.951a3.049,3.049,0,0,0-1.935-3.853Zm1.822,3.815-.846,2.554-1.192-.395a1.255,1.255,0,0,1-.8-1.586l.846-2.554,1.192.395a1.255,1.255,0,0,1,.8,1.586Z" transform="translate(-288.342 -224.08)"/>
      </g>
    </g>
  </g>
</svg>
