<svg xmlns="http://www.w3.org/2000/svg" xmlns:xlink="http://www.w3.org/1999/xlink" width="110" height="110" viewBox="0 0 110 110">
  <defs>
    <filter id="Trazado_982547" x="0" y="0" width="110" height="110" filterUnits="userSpaceOnUse">
      <feOffset dy="3" input="SourceAlpha"/>
      <feGaussianBlur stdDeviation="3" result="blur"/>
      <feFlood flood-opacity="0.161"/>
      <feComposite operator="in" in2="blur"/>
      <feComposite in="SourceGraphic"/>
    </filter>
  </defs>
  <g id="Grupo_1208897" data-name="Grupo 1208897" transform="translate(-5263.108 -2371.933)">
    <g id="Grupo_1207026" data-name="Grupo 1207026" transform="translate(5272.108 2377.933)">
      <g id="Grupo_1183658" data-name="Grupo 1183658" transform="translate(0 0)">
        <g id="Grupo_1179602" data-name="Grupo 1179602">
          <g id="Grupo_1171898" data-name="Grupo 1171898" transform="translate(0 0)">
            <g id="Grupo_1164700" data-name="Grupo 1164700">
              <g id="Grupo_1160931" data-name="Grupo 1160931">
                <g id="Grupo_1160749" data-name="Grupo 1160749">
                  <g id="Grupo_1158891" data-name="Grupo 1158891">
                    <g id="Grupo_1157406" data-name="Grupo 1157406">
                      <g id="Grupo_1155793" data-name="Grupo 1155793">
                        <g id="Grupo_1154704" data-name="Grupo 1154704">
                          <g id="Grupo_1150790" data-name="Grupo 1150790">
                            <g id="Grupo_1154214" data-name="Grupo 1154214">
                              <g id="Grupo_1152583" data-name="Grupo 1152583">
                                <g id="Grupo_1146973" data-name="Grupo 1146973">
                                  <g id="Grupo_1146954" data-name="Grupo 1146954">
                                    <g transform="matrix(1, 0, 0, 1, -9, -6)" filter="url(#Trazado_982547)">
                                      <g id="Trazado_982547-2" data-name="Trazado 982547" transform="translate(9 6)" fill="#effbfe">
                                        <path d="M 46.00000381469727 90.49986267089844 C 39.99188232421875 90.49986267089844 34.16428375244141 89.32350158691406 28.67905807495117 87.00344848632812 C 23.38021659851074 84.76223754882812 18.62104415893555 81.55341339111328 14.53376388549805 77.46613311767578 C 10.44647026062012 73.37885284423828 7.237643718719482 68.61968994140625 4.996417045593262 63.32085037231445 C 2.676363706588745 57.83565139770508 1.500003814697266 52.00805282592773 1.500003814697266 45.99993133544922 C 1.500003814697266 39.99182510375977 2.676363706588745 34.16422653198242 4.996417045593262 28.67901039123535 C 7.237643718719482 23.38017082214355 10.44647026062012 18.62101173400879 14.53376388549805 14.53373146057129 C 18.62104415893555 10.44645118713379 23.38021659851074 7.237624645233154 28.67905807495117 4.996411323547363 C 34.16428375244141 2.676357984542847 39.99188232421875 1.499997973442078 46.00000381469727 1.499997973442078 C 52.00812530517578 1.499997973442078 57.83573532104492 2.676357984542847 63.32094955444336 4.996411323547363 C 68.61980438232422 7.237624645233154 73.37896728515625 10.44645118713379 77.46625518798828 14.53373146057129 C 81.55353546142578 18.62101173400879 84.76236724853516 23.38017082214355 87.00359344482422 28.67901039123535 C 89.32364654541016 34.16422653198242 90.5 39.99182510375977 90.5 45.99993133544922 C 90.5 52.00805282592773 89.32364654541016 57.83565139770508 87.00359344482422 63.32085037231445 C 84.76236724853516 68.61968994140625 81.55353546142578 73.37885284423828 77.46625518798828 77.46613311767578 C 73.37896728515625 81.55341339111328 68.61980438232422 84.76223754882812 63.32094955444336 87.00344848632812 C 57.83573532104492 89.32350158691406 52.00812530517578 90.49986267089844 46.00000381469727 90.49986267089844 Z" stroke="none"/>
                                        <path d="M 46.00000381469727 3 C 40.19371795654297 3 34.56270217895508 4.136505126953125 29.26338958740234 6.377914428710938 C 24.14333343505859 8.54351806640625 19.54443359375 11.64438629150391 15.59442138671875 15.59439086914062 C 11.64440155029297 19.54440307617188 8.543533325195312 24.14330291748047 6.3779296875 29.26334381103516 C 4.136505126953125 34.56266021728516 3.000007629394531 40.19366073608398 3.000007629394531 45.99993133544922 C 3.000007629394531 51.80620193481445 4.136505126953125 57.43720245361328 6.3779296875 62.73651885986328 C 8.543533325195312 67.85655975341797 11.64440155029297 72.45545959472656 15.59442138671875 76.40547180175781 C 19.54443359375 80.35547637939453 24.14333343505859 83.45634460449219 29.26338958740234 85.6219482421875 C 34.56270217895508 87.86335754394531 40.19371795654297 88.99986267089844 46.00000381469727 88.99986267089844 C 51.80628967285156 88.99986267089844 57.43730545043945 87.86335754394531 62.73663330078125 85.6219482421875 C 67.85667419433594 83.45634460449219 72.45558929443359 80.35547637939453 76.40560150146484 76.40547180175781 C 80.35560607910156 72.45545959472656 83.45648956298828 67.85655975341797 85.62208557128906 62.73651885986328 C 87.86350250244141 57.43720245361328 89 51.80620193481445 89 45.99993133544922 C 89 40.19366073608398 87.86350250244141 34.56266021728516 85.62208557128906 29.26334381103516 C 83.45648956298828 24.14330291748047 80.35560607910156 19.54440307617188 76.40560150146484 15.59439086914062 C 72.45558929443359 11.64438629150391 67.85667419433594 8.54351806640625 62.73663330078125 6.377914428710938 C 57.43730545043945 4.136505126953125 51.80628967285156 3 46.00000381469727 3 M 46.00000381469727 0 C 71.40510559082031 0 92 20.59487152099609 92 45.99993133544922 C 92 71.40499114990234 71.40510559082031 91.99986267089844 46.00000381469727 91.99986267089844 C 20.59491729736328 91.99986267089844 7.62939453125e-06 71.40499114990234 7.62939453125e-06 45.99993133544922 C 7.62939453125e-06 20.59487152099609 20.59491729736328 0 46.00000381469727 0 Z" stroke="none" fill="#397b86"/>
                                      </g>
                                    </g>
                                  </g>
                                </g>
                              </g>
                            </g>
                          </g>
                        </g>
                      </g>
                    </g>
                  </g>
                </g>
              </g>
            </g>
          </g>
        </g>
      </g>
    </g>
    <g id="comunicacion_3_" data-name="comunicacion (3)" transform="translate(5287.848 2393.673)">
      <g id="Grupo_1208888" data-name="Grupo 1208888" transform="translate(0.887 0.887)">
        <g id="Grupo_1208880" data-name="Grupo 1208880">
          <g id="Grupo_1208878" data-name="Grupo 1208878">
            <g id="Grupo_1208875" data-name="Grupo 1208875">
              <path id="Trazado_1077556" data-name="Trazado 1077556" d="M97.557,24.048v4.879H78.5c-6.162-4.03-8.191-10.411-4.715-19.774A16.551,16.551,0,0,1,97.557,24.048Z" transform="translate(-64.46 -7.5)" fill="#ffaa75"/>
              <path id="Trazado_1077557" data-name="Trazado 1077557" d="M21.542,41.264H7.5V36.385A16.551,16.551,0,0,1,16.827,21.49C15.966,29.439,17.559,36.056,21.542,41.264Z" transform="translate(-7.5 -19.836)" fill="#ff9a5c"/>
            </g>
            <ellipse id="Elipse_13565" data-name="Elipse 13565" cx="3.598" cy="4.565" rx="3.598" ry="4.565" transform="translate(25.9 16.863)" fill="#ffddcf"/>
            <ellipse id="Elipse_13566" data-name="Elipse 13566" cx="3.598" cy="4.565" rx="3.598" ry="4.565" transform="translate(0 16.863)" fill="#ffcbbe"/>
            <g id="Grupo_1208876" data-name="Grupo 1208876" transform="translate(2.955 7.136)">
              <path id="Trazado_1077558" data-name="Trazado 1077558" d="M106.31,81.463A13.555,13.555,0,0,1,102.3,91.1c-11.878-1.82-17.723-8.681-16.84-21.136a13.594,13.594,0,0,1,20.85,11.5Z" transform="translate(-79.124 -67.87)" fill="#ffddcf"/>
              <path id="Trazado_1077559" data-name="Trazado 1077559" d="M55.677,106.756A13.594,13.594,0,1,1,38.837,85.62C39.915,95.295,45.584,102.406,55.677,106.756Z" transform="translate(-32.5 -83.522)" fill="#ffcbbe"/>
            </g>
            <g id="Grupo_1208877" data-name="Grupo 1208877" transform="translate(2.957 2.589)">
              <path id="Trazado_1077560" data-name="Trazado 1077560" d="M99.9,42.922a14.935,14.935,0,0,1-10.888-6.214,1.178,1.178,0,0,0-1.888-.033A17.372,17.372,0,0,1,79.7,41.941c-2.178-2.247-3.236-4.962-1.517-8.675,4.981-1.714,8.342-4.311,13.751-3.8,4.615.436,5.638,4.416,6.812,8.9l1,.643C100.112,40.419,100.6,41.644,99.9,42.922Z" transform="translate(-72.031 -29.402)" fill="#ffaa75"/>
              <path id="Trazado_1077561" data-name="Trazado 1077561" d="M40.187,70.765A26.776,26.776,0,0,1,33.073,72.5a7.52,7.52,0,0,1-.142-5.31l2.5-4.2a26.1,26.1,0,0,0,3.242-.9A27.4,27.4,0,0,0,40.187,70.765Z" transform="translate(-32.518 -58.226)" fill="#ff9a5c"/>
            </g>
          </g>
          <g id="Grupo_1208879" data-name="Grupo 1208879" transform="translate(24.852 3.901)">
            <path id="Trazado_1077562" data-name="Trazado 1077562" d="M308.818,43.8V50.85a3.3,3.3,0,0,1-3.3,3.3h-1.52c-8.327-2.067-11.383-6.587-8.221-13.652h9.741A3.3,3.3,0,0,1,308.818,43.8Z" transform="translate(-285.473 -40.5)" fill="#8ce09f"/>
            <path id="Trazado_1077563" data-name="Trazado 1077563" d="M236.271,54.152h-6.144a1.184,1.184,0,0,0-.842.352l-3.058,3.1a1.183,1.183,0,0,1-2.025-.83V54.743a.59.59,0,0,0-.591-.591h-2.558a3.3,3.3,0,0,1-3.3-3.3V43.8a3.3,3.3,0,0,1,3.3-3.3h7C227.514,46.708,230.3,51.317,236.271,54.152Z" transform="translate(-217.75 -40.5)" fill="#73da8c"/>
          </g>
        </g>
        <g id="Grupo_1208887" data-name="Grupo 1208887" transform="translate(6.154 23.286)">
          <g id="Grupo_1208885" data-name="Grupo 1208885" transform="translate(19.792)">
            <g id="Grupo_1208881" data-name="Grupo 1208881" transform="translate(12.855)">
              <circle id="Elipse_13567" data-name="Elipse 13567" cx="1.773" cy="1.773" r="1.773" fill="#ff97c1"/>
            </g>
            <path id="Trazado_1077564" data-name="Trazado 1077564" d="M313.25,272.683v1.773h8.865v-1.773a4.433,4.433,0,0,0-8.865,0Z" transform="translate(-303.055 -260.715)" fill="#a29cde"/>
            <path id="Trazado_1077565" data-name="Trazado 1077565" d="M460.387,372.74H459.5v-8.865h.886a4.433,4.433,0,0,1,0,8.865Z" transform="translate(-432.018 -345.036)" fill="#a29cde"/>
            <g id="Grupo_1208883" data-name="Grupo 1208883" transform="translate(0 11.081)">
              <g id="Grupo_1208882" data-name="Grupo 1208882">
                <path id="Trazado_1077566" data-name="Trazado 1077566" d="M348.862,303.3v14.284a5.042,5.042,0,0,1-2.475,4.343c-12.111-3.322-17.105-10.863-12.9-23.675h10.324A5.048,5.048,0,0,1,348.862,303.3Z" transform="translate(-319.607 -298.249)" fill="#ff97c1"/>
                <path id="Trazado_1077567" data-name="Trazado 1077567" d="M253.78,321.925a5.011,5.011,0,0,1-2.573.7H232.048A5.048,5.048,0,0,1,227,317.581V303.3a5.047,5.047,0,0,1,5.048-5.048h8.835C239.149,309.174,243.533,317.181,253.78,321.925Z" transform="translate(-227 -298.25)" fill="#ff83b4"/>
              </g>
            </g>
            <g id="Grupo_1208884" data-name="Grupo 1208884" transform="translate(2.522 14.628)">
              <path id="Trazado_1077568" data-name="Trazado 1077568" d="M344.243,330.023v13.741a1.774,1.774,0,0,1-1.773,1.773h-2.006c-8.242-2.882-11.753-8.323-8.4-17.287h10.4A1.774,1.774,0,0,1,344.243,330.023Z" transform="translate(-321.057 -328.25)" fill="#f9ee80"/>
              <path id="Trazado_1077569" data-name="Trazado 1077569" d="M267.745,345.537H251.134a1.772,1.772,0,0,1-1.773-1.773V338.6c-1.252-2.522-1.474-4.9,0-7.046v-1.531a1.772,1.772,0,0,1,1.773-1.773h8.214A19.021,19.021,0,0,0,267.745,345.537Z" transform="translate(-248.337 -328.25)" fill="#f4e74d"/>
            </g>
          </g>
          <g id="Grupo_1208886" data-name="Grupo 1208886" transform="translate(0 14.628)">
            <path id="Trazado_1077570" data-name="Trazado 1077570" d="M155.753,331.554V338.6a3.3,3.3,0,0,1-3.3,3.3h-1.93c-6.971-1.913-9.916-6.226-7.53-13.652h9.46A3.3,3.3,0,0,1,155.753,331.554Z" transform="translate(-132.408 -328.25)" fill="#a4e7ff"/>
            <path id="Trazado_1077571" data-name="Trazado 1077571" d="M77.671,341.9H76.64a.591.591,0,0,0-.591.591v2.033a1.182,1.182,0,0,1-2.024.83l-3.059-3.1a1.184,1.184,0,0,0-.842-.352H62.864a3.3,3.3,0,0,1-3.3-3.3v-7.046a3.3,3.3,0,0,1,3.3-3.3h7.278C69.5,334.389,72.052,338.993,77.671,341.9Z" transform="translate(-59.56 -328.25)" fill="#83deff"/>
          </g>
        </g>
      </g>
      <g id="Grupo_1208896" data-name="Grupo 1208896" transform="translate(0)">
        <g id="Grupo_1208891" data-name="Grupo 1208891">
          <g id="Grupo_1208889" data-name="Grupo 1208889" transform="translate(9.167 21.344)">
            <path id="Trazado_1077572" data-name="Trazado 1077572" d="M78.438,183.762a.886.886,0,0,1-.887-.887v-1.418a.887.887,0,1,1,1.773,0v1.418A.886.886,0,0,1,78.438,183.762Z" transform="translate(-77.551 -180.571)"/>
            <path id="Trazado_1077573" data-name="Trazado 1077573" d="M203.336,183.762a.886.886,0,0,1-.887-.887v-1.418a.887.887,0,1,1,1.773,0v1.418A.886.886,0,0,1,203.336,183.762Z" transform="translate(-187.686 -180.571)"/>
            <path id="Trazado_1077574" data-name="Trazado 1077574" d="M126.368,194.874a3.468,3.468,0,0,1-2.615-1.191.887.887,0,1,1,1.337-1.165,1.692,1.692,0,0,0,2.556,0,.887.887,0,0,1,1.337,1.165A3.468,3.468,0,0,1,126.368,194.874Z" transform="translate(-118.1 -190.838)"/>
          </g>
          <path id="Trazado_1077575" data-name="Trazado 1077575" d="M45.78,3.9H29.042a4.211,4.211,0,0,0-.568.038A17.458,17.458,0,0,0,10.58,1.4a.887.887,0,0,0,.7,1.63A15.687,15.687,0,0,1,26.568,4.711a4.187,4.187,0,0,0-1.716,3.38v5.483a13.853,13.853,0,0,1-3.3-3.306,2.064,2.064,0,0,0-3.311-.062C13.749,16,4.749,16.831,4.347,16.865a4.006,4.006,0,0,0-2.573,1.09v-.521A15.559,15.559,0,0,1,7.9,5.009.887.887,0,1,0,6.82,3.6,17.319,17.319,0,0,0,0,17.435v4.879c0,2.94,1.924,5.343,4.322,5.448a14.484,14.484,0,0,0,26.226,0c2.348-.1,4.242-2.41,4.319-5.267l3.038-3.081a.3.3,0,0,1,.21-.088H45.78a4.2,4.2,0,0,0,4.19-4.19V8.091A4.2,4.2,0,0,0,45.78,3.9ZM30.385,25.993a1.958,1.958,0,0,1-.271-.019.887.887,0,0,0-.95.535,12.71,12.71,0,0,1-23.458,0,.887.887,0,0,0-.949-.535,1.969,1.969,0,0,1-.272.019c-1.5,0-2.711-1.65-2.711-3.678,0-1.985,1.19-3.635,2.652-3.678l.05,0c.563-.043,10.149-.864,15.164-7.343a.282.282,0,0,1,.239-.113.277.277,0,0,1,.225.117,15.559,15.559,0,0,0,4.788,4.415,4.2,4.2,0,0,0,4.151,3.617h2.263v1.737a2.062,2.062,0,0,0,1.284,1.914,2.083,2.083,0,0,0,.445.127c-.267,1.65-1.353,2.888-2.648,2.888ZM48.2,15.137a2.42,2.42,0,0,1-2.417,2.417H38.115a2.081,2.081,0,0,0-1.473.616l-3.058,3.1a.3.3,0,0,1-.506-.207V19.031A1.479,1.479,0,0,0,31.6,17.554H29.042a2.42,2.42,0,0,1-2.417-2.417V8.091a2.42,2.42,0,0,1,2.417-2.417H45.78A2.42,2.42,0,0,1,48.2,8.091Z" transform="translate(0 0)"/>
          <g id="Grupo_1208890" data-name="Grupo 1208890" transform="translate(28.398 8.363)">
            <path id="Trazado_1077576" data-name="Trazado 1077576" d="M244.781,70.9a.886.886,0,0,0-1.229.246l-.838,1.258-.838-1.258a.886.886,0,0,0-1.475.983L241.647,74,240.4,75.874a.886.886,0,1,0,1.475.983l.838-1.258.838,1.258a.886.886,0,0,0,1.475-.983L243.778,74l1.248-1.872A.886.886,0,0,0,244.781,70.9Z" transform="translate(-240.25 -70.751)"/>
            <path id="Trazado_1077577" data-name="Trazado 1077577" d="M355.122,75.48h-1.5l2.233-3.35a.887.887,0,0,0-.738-1.378H351.97a.887.887,0,0,0,0,1.773h1.5l-2.233,3.35a.887.887,0,0,0,.738,1.378h3.152a.887.887,0,0,0,0-1.773Z" transform="translate(-337.982 -70.752)"/>
            <path id="Trazado_1077578" data-name="Trazado 1077578" d="M300.2,70.9a.886.886,0,0,0-1.229.246l-.838,1.257-.838-1.258a.886.886,0,0,0-1.475.983l1.427,2.141v2.1a.887.887,0,0,0,1.773,0v-2.1l1.427-2.141A.886.886,0,0,0,300.2,70.9Z" transform="translate(-289.116 -70.751)"/>
          </g>
        </g>
        <g id="Grupo_1208895" data-name="Grupo 1208895" transform="translate(6.154 23.286)">
          <g id="Grupo_1208892" data-name="Grupo 1208892" transform="translate(27.038 22.14)">
            <path id="Trazado_1077579" data-name="Trazado 1077579" d="M281.689,387.5a.886.886,0,0,1-.887-.887V385.19a.887.887,0,1,1,1.773,0v1.418A.887.887,0,0,1,281.689,387.5Z" transform="translate(-280.802 -384.304)"/>
            <path id="Trazado_1077580" data-name="Trazado 1077580" d="M406.585,387.5a.886.886,0,0,1-.887-.887V385.19a.887.887,0,1,1,1.773,0v1.418A.886.886,0,0,1,406.585,387.5Z" transform="translate(-390.935 -384.304)"/>
            <path id="Trazado_1077581" data-name="Trazado 1077581" d="M329.619,398.606A3.467,3.467,0,0,1,327,397.415a.886.886,0,1,1,1.337-1.165,1.693,1.693,0,0,0,2.556,0,.886.886,0,1,1,1.337,1.165A3.468,3.468,0,0,1,329.619,398.606Z" transform="translate(-321.351 -394.57)"/>
          </g>
          <g id="Grupo_1208894" data-name="Grupo 1208894" transform="translate(5.91 19.09)">
            <g id="Grupo_1208893" data-name="Grupo 1208893" transform="translate(3.989)">
              <path id="Trazado_1077582" data-name="Trazado 1077582" d="M138.468,365a2.663,2.663,0,0,1-2.66-2.66v-1.182a2.66,2.66,0,0,1,5.319,0v1.182A2.663,2.663,0,0,1,138.468,365Zm0-4.728a.887.887,0,0,0-.887.886v1.182a.887.887,0,1,0,1.773,0v-1.182A.887.887,0,0,0,138.468,360.275Z" transform="translate(-135.808 -358.502)"/>
            </g>
            <path id="Trazado_1077583" data-name="Trazado 1077583" d="M103.89,365a.887.887,0,0,1-.887-.887v-3.842h-.059a.887.887,0,1,1,0-1.773h.946a.886.886,0,0,1,.887.886v4.728A.887.887,0,0,1,103.89,365Z" transform="translate(-102.058 -358.502)"/>
            <path id="Trazado_1077584" data-name="Trazado 1077584" d="M193.39,365a.887.887,0,0,1-.887-.887v-3.842h-.059a.887.887,0,1,1,0-1.773h.946a.886.886,0,0,1,.887.886v4.728A.887.887,0,0,1,193.39,365Z" transform="translate(-180.979 -358.502)"/>
          </g>
          <path id="Trazado_1077585" data-name="Trazado 1077585" d="M106.426,221.156a5.337,5.337,0,0,0-3.546-5.015v-1.855a6.213,6.213,0,0,0-6.206-6.206H92.382a5.343,5.343,0,0,0-4.13-3.471v-2.443a2.66,2.66,0,1,0-1.773,0v2.441a5.326,5.326,0,0,0-4.13,3.473H78.057a6.219,6.219,0,0,0-5.608,3.546H56.25a4.2,4.2,0,0,0-4.19,4.19v1.667a.887.887,0,1,0,1.773,0v-1.667A2.42,2.42,0,0,1,56.25,213.4H72.988a2.42,2.42,0,0,1,2.41,2.232v7.417a2.42,2.42,0,0,1-2.41,2.231H70.027a1.479,1.479,0,0,0-1.478,1.478v2.033a.281.281,0,0,1-.183.273.278.278,0,0,1-.323-.066l-3.06-3.1a2.084,2.084,0,0,0-1.472-.615H56.25a2.419,2.419,0,0,1-2.417-2.416v-1.242a.887.887,0,0,0-1.773,0v1.242a4.194,4.194,0,0,0,4.19,4.189h7.261a.3.3,0,0,1,.21.088l3.059,3.1a2.068,2.068,0,0,0,3.541-1.452v-1.738h1.53v.975a6.213,6.213,0,0,0,6.206,6.206H96.674a6.213,6.213,0,0,0,6.206-6.206v-1.854A5.339,5.339,0,0,0,106.426,221.156Zm-19.06-22.384a.887.887,0,1,1-.887.887A.887.887,0,0,1,87.366,198.772Zm-2.508,8.574a3.548,3.548,0,0,1,5.58.734H84.294A3.567,3.567,0,0,1,84.858,207.346Zm16.249,20.681a4.438,4.438,0,0,1-4.433,4.433H78.057a4.438,4.438,0,0,1-4.433-4.433V227a4.167,4.167,0,0,0,1.773-.716v1.739a2.663,2.663,0,0,0,2.66,2.66H96.674a2.663,2.663,0,0,0,2.66-2.66V214.286a2.663,2.663,0,0,0-2.66-2.66H88.143a.887.887,0,1,0,0,1.773h8.532a.887.887,0,0,1,.887.886v13.741a.887.887,0,0,1-.887.887H78.057a.887.887,0,0,1-.887-.887V214.286a.887.887,0,0,1,.887-.886h5.948a.887.887,0,0,0,0-1.773H78.057a2.659,2.659,0,0,0-2.189,1.15,4.2,4.2,0,0,0-1.518-.923,4.444,4.444,0,0,1,3.706-2H96.674a4.438,4.438,0,0,1,4.433,4.433v13.741Zm1.773-3.8v-6.144a3.548,3.548,0,0,1,0,6.144Z" transform="translate(-52.06 -196.999)"/>
        </g>
      </g>
    </g>
  </g>
</svg>
