<svg xmlns="http://www.w3.org/2000/svg" xmlns:xlink="http://www.w3.org/1999/xlink" width="110" height="110" viewBox="0 0 110 110">
  <defs>
    <filter id="Trazado_982547" x="0" y="0" width="110" height="110" filterUnits="userSpaceOnUse">
      <feOffset dy="3" input="SourceAlpha"/>
      <feGaussianBlur stdDeviation="3" result="blur"/>
      <feFlood flood-opacity="0.161"/>
      <feComposite operator="in" in2="blur"/>
      <feComposite in="SourceGraphic"/>
    </filter>
  </defs>
  <g id="Grupo_1208901" data-name="Grupo 1208901" transform="translate(-5262 -2724.933)">
    <g id="Grupo_1207028" data-name="Grupo 1207028" transform="translate(5271 2730.933)">
      <g id="Grupo_1183658" data-name="Grupo 1183658" transform="translate(0 0)">
        <g id="Grupo_1179602" data-name="Grupo 1179602">
          <g id="Grupo_1171898" data-name="Grupo 1171898" transform="translate(0 0)">
            <g id="Grupo_1164700" data-name="Grupo 1164700">
              <g id="Grupo_1160931" data-name="Grupo 1160931">
                <g id="Grupo_1160749" data-name="Grupo 1160749">
                  <g id="Grupo_1158891" data-name="Grupo 1158891">
                    <g id="Grupo_1157406" data-name="Grupo 1157406">
                      <g id="Grupo_1155793" data-name="Grupo 1155793">
                        <g id="Grupo_1154704" data-name="Grupo 1154704">
                          <g id="Grupo_1150790" data-name="Grupo 1150790">
                            <g id="Grupo_1154214" data-name="Grupo 1154214">
                              <g id="Grupo_1152583" data-name="Grupo 1152583">
                                <g id="Grupo_1146973" data-name="Grupo 1146973">
                                  <g id="Grupo_1146954" data-name="Grupo 1146954">
                                    <g transform="matrix(1, 0, 0, 1, -9, -6)" filter="url(#Trazado_982547)">
                                      <g id="Trazado_982547-2" data-name="Trazado 982547" transform="translate(9 6)" fill="#effbfe">
                                        <path d="M 46.00000381469727 90.49986267089844 C 39.99188232421875 90.49986267089844 34.16428375244141 89.32350158691406 28.67905807495117 87.00344848632812 C 23.38021659851074 84.76223754882812 18.62104415893555 81.55341339111328 14.53376388549805 77.46613311767578 C 10.44647026062012 73.37885284423828 7.237643718719482 68.61968994140625 4.996417045593262 63.32085037231445 C 2.676363706588745 57.83565139770508 1.500003814697266 52.00805282592773 1.500003814697266 45.99993133544922 C 1.500003814697266 39.99182510375977 2.676363706588745 34.16422653198242 4.996417045593262 28.67901039123535 C 7.237643718719482 23.38017082214355 10.44647026062012 18.62101173400879 14.53376388549805 14.53373146057129 C 18.62104415893555 10.44645118713379 23.38021659851074 7.237624645233154 28.67905807495117 4.996411323547363 C 34.16428375244141 2.676357984542847 39.99188232421875 1.499997973442078 46.00000381469727 1.499997973442078 C 52.00812530517578 1.499997973442078 57.83573532104492 2.676357984542847 63.32094955444336 4.996411323547363 C 68.61980438232422 7.237624645233154 73.37896728515625 10.44645118713379 77.46625518798828 14.53373146057129 C 81.55353546142578 18.62101173400879 84.76236724853516 23.38017082214355 87.00359344482422 28.67901039123535 C 89.32364654541016 34.16422653198242 90.5 39.99182510375977 90.5 45.99993133544922 C 90.5 52.00805282592773 89.32364654541016 57.83565139770508 87.00359344482422 63.32085037231445 C 84.76236724853516 68.61968994140625 81.55353546142578 73.37885284423828 77.46625518798828 77.46613311767578 C 73.37896728515625 81.55341339111328 68.61980438232422 84.76223754882812 63.32094955444336 87.00344848632812 C 57.83573532104492 89.32350158691406 52.00812530517578 90.49986267089844 46.00000381469727 90.49986267089844 Z" stroke="none"/>
                                        <path d="M 46.00000381469727 3 C 40.19371795654297 3 34.56270217895508 4.136505126953125 29.26338958740234 6.377914428710938 C 24.14333343505859 8.54351806640625 19.54443359375 11.64438629150391 15.59442138671875 15.59439086914062 C 11.64440155029297 19.54440307617188 8.543533325195312 24.14330291748047 6.3779296875 29.26334381103516 C 4.136505126953125 34.56266021728516 3.000007629394531 40.19366073608398 3.000007629394531 45.99993133544922 C 3.000007629394531 51.80620193481445 4.136505126953125 57.43720245361328 6.3779296875 62.73651885986328 C 8.543533325195312 67.85655975341797 11.64440155029297 72.45545959472656 15.59442138671875 76.40547180175781 C 19.54443359375 80.35547637939453 24.14333343505859 83.45634460449219 29.26338958740234 85.6219482421875 C 34.56270217895508 87.86335754394531 40.19371795654297 88.99986267089844 46.00000381469727 88.99986267089844 C 51.80628967285156 88.99986267089844 57.43730545043945 87.86335754394531 62.73663330078125 85.6219482421875 C 67.85667419433594 83.45634460449219 72.45558929443359 80.35547637939453 76.40560150146484 76.40547180175781 C 80.35560607910156 72.45545959472656 83.45648956298828 67.85655975341797 85.62208557128906 62.73651885986328 C 87.86350250244141 57.43720245361328 89 51.80620193481445 89 45.99993133544922 C 89 40.19366073608398 87.86350250244141 34.56266021728516 85.62208557128906 29.26334381103516 C 83.45648956298828 24.14330291748047 80.35560607910156 19.54440307617188 76.40560150146484 15.59439086914062 C 72.45558929443359 11.64438629150391 67.85667419433594 8.54351806640625 62.73663330078125 6.377914428710938 C 57.43730545043945 4.136505126953125 51.80628967285156 3 46.00000381469727 3 M 46.00000381469727 0 C 71.40510559082031 0 92 20.59487152099609 92 45.99993133544922 C 92 71.40499114990234 71.40510559082031 91.99986267089844 46.00000381469727 91.99986267089844 C 20.59491729736328 91.99986267089844 7.62939453125e-06 71.40499114990234 7.62939453125e-06 45.99993133544922 C 7.62939453125e-06 20.59487152099609 20.59491729736328 0 46.00000381469727 0 Z" stroke="none" fill="#397b86"/>
                                      </g>
                                    </g>
                                  </g>
                                </g>
                              </g>
                            </g>
                          </g>
                        </g>
                      </g>
                    </g>
                  </g>
                </g>
              </g>
            </g>
          </g>
        </g>
      </g>
    </g>
    <g id="sueno" transform="translate(5284.099 2743.08)">
      <path id="Trazado_1077586" data-name="Trazado 1077586" d="M51.141,42.763A10.137,10.137,0,1,0,68.53,35.68a1.848,1.848,0,0,1-.449-1.8,9.2,9.2,0,0,0-9.165-11.707,1.846,1.846,0,0,1-1.682-.916A12.251,12.251,0,0,0,40.38,16.788a1.809,1.809,0,0,1-1.842,0,12.252,12.252,0,0,0-16.854,4.469A1.846,1.846,0,0,1,20,22.173a9.2,9.2,0,0,0-9.165,11.707,1.848,1.848,0,0,1-.449,1.8,10.137,10.137,0,1,0,17.389,7.083Z" transform="translate(-6.537 -12.215)" fill="#d4d5d5"/>
      <path id="Trazado_1077587" data-name="Trazado 1077587" d="M26.48,45.677c-3.5-2.16-3.356-7.167-1.793-9.9A12.126,12.126,0,0,0,21.7,39.256a1.884,1.884,0,0,1-1.7.949,9.2,9.2,0,0,0-9.165,11.706,1.854,1.854,0,0,1-.449,1.8A10.137,10.137,0,1,0,27.775,60.8h3.3a5.7,5.7,0,0,1,.436-1.35c-6.335-2.194-5.5-8.415-4.243-11.454A1.885,1.885,0,0,0,26.48,45.677Z" transform="translate(-6.535 -30.248)" fill="#939597"/>
      <path id="Trazado_1077588" data-name="Trazado 1077588" d="M106.386,246.738a49.383,49.383,0,0,0,20.18-4.471,3.4,3.4,0,0,0,1.71-4.179c-.9-2.616-.29-5.892-.29-11.762,0-10.17-7.988-21-20.932-16.367a1.984,1.984,0,0,1-1.337,0c-12.944-4.633-20.932,6.2-20.932,16.367,0,5.871.611,9.146-.29,11.762a3.4,3.4,0,0,0,1.71,4.179,49.382,49.382,0,0,0,20.18,4.471Z" transform="translate(-73.464 -181.066)" fill="#565e75"/>
      <ellipse id="Elipse_13568" data-name="Elipse 13568" cx="17.077" cy="13.93" rx="17.077" ry="13.93" transform="translate(15.845 31.951)" fill="#c99b80"/>
      <g id="Grupo_1208899" data-name="Grupo 1208899" transform="translate(20.025 46.091)">
        <g id="Grupo_1208898" data-name="Grupo 1208898">
          <ellipse id="Elipse_13569" data-name="Elipse 13569" cx="3.476" cy="2.768" rx="3.476" ry="2.768" fill="#f1bdc4"/>
          <ellipse id="Elipse_13570" data-name="Elipse 13570" cx="3.476" cy="2.768" rx="3.476" ry="2.768" transform="translate(18.841)" fill="#f1bdc4"/>
        </g>
      </g>
      <path id="Trazado_1077589" data-name="Trazado 1077589" d="M145.871,220.48c8.734-2.88,13.974,4.135,15.418,8.471a.971.971,0,0,1-.956,1.274c-3.966-.106-11.383-2.9-14.555-4.8a1.607,1.607,0,0,0-1.654,0c-3.178,1.906-10.616,4.709-14.577,4.805a.968.968,0,0,1-.934-1.275c1.444-4.336,6.684-11.352,15.418-8.472a2.932,2.932,0,0,0,1.84,0Z" transform="translate(-112.03 -190.607)" fill="#565e75"/>
      <g id="Grupo_1208900" data-name="Grupo 1208900" transform="translate(0.965 2.032)">
        <path id="Trazado_1077590" data-name="Trazado 1077590" d="M9.819,110.5a8.015,8.015,0,0,1-1.891,1.3.81.81,0,0,0,0,1.426,8.015,8.015,0,0,1,1.891,1.3,8.015,8.015,0,0,1,1.3,1.891.81.81,0,0,0,1.426,0,8.015,8.015,0,0,1,1.3-1.891,8.015,8.015,0,0,1,1.891-1.3.81.81,0,0,0,0-1.426,8.015,8.015,0,0,1-1.891-1.3,8.015,8.015,0,0,1-1.3-1.891.81.81,0,0,0-1.426,0,8.013,8.013,0,0,1-1.3,1.891Z" transform="translate(-7.502 -95.369)" fill="#f5df4d"/>
        <path id="Trazado_1077591" data-name="Trazado 1077591" d="M430.036,148.116a8.012,8.012,0,0,0,1.891,1.3.81.81,0,0,1,0,1.426,6.273,6.273,0,0,0-3.189,3.189.81.81,0,0,1-1.426,0,6.273,6.273,0,0,0-3.189-3.189.81.81,0,0,1,0-1.426,6.272,6.272,0,0,0,3.189-3.189.81.81,0,0,1,1.426,0A8.019,8.019,0,0,0,430.036,148.116Z" transform="translate(-370.175 -128.151)" fill="#f5df4d"/>
        <path id="Trazado_1077592" data-name="Trazado 1077592" d="M89.838,10.878a8.015,8.015,0,0,1-1.891,1.3.81.81,0,0,0,0,1.426,8.011,8.011,0,0,1,1.891,1.3,8.015,8.015,0,0,1,1.3,1.891.81.81,0,0,0,1.426,0,8.015,8.015,0,0,1,1.3-1.891,8.015,8.015,0,0,1,1.891-1.3.81.81,0,0,0,0-1.426,8.015,8.015,0,0,1-1.891-1.3,8.015,8.015,0,0,1-1.3-1.891.81.81,0,0,0-1.426,0A8.015,8.015,0,0,1,89.838,10.878Z" transform="translate(-77.231 -8.561)" fill="#f5df4d"/>
        <path id="Trazado_1077593" data-name="Trazado 1077593" d="M369.34,25.7a8.011,8.011,0,0,1-1.891,1.3.81.81,0,0,0,0,1.426,8.015,8.015,0,0,1,1.891,1.3,8.015,8.015,0,0,1,1.3,1.891.81.81,0,0,0,1.426,0,8.014,8.014,0,0,1,1.3-1.891,8.009,8.009,0,0,1,1.891-1.3.81.81,0,0,0,0-1.426,8.013,8.013,0,0,1-1.891-1.3,8.014,8.014,0,0,1-1.3-1.891.81.81,0,0,0-1.426,0A8.009,8.009,0,0,1,369.34,25.7Z" transform="translate(-320.79 -21.478)" fill="#f5df4d"/>
      </g>
      <path id="Trazado_1077594" data-name="Trazado 1077594" d="M25.527,47.026a3.343,3.343,0,0,0,2.521-1.148.965.965,0,0,0-1.454-1.267,1.412,1.412,0,0,1-2.133,0,.964.964,0,1,0-1.454,1.267,3.343,3.343,0,0,0,2.521,1.148ZM36,16.973h4.4a.964.964,0,0,0,0-1.929h-2.62L41.1,9.94A.965.965,0,0,0,40.3,8.449H36.135a.964.964,0,1,0,0,1.929h2.382l-3.326,5.1A.965.965,0,0,0,36,16.973ZM25.445,22.789h4.4a.964.964,0,0,0,0-1.929h-2.62l3.326-5.1a.965.965,0,0,0-.808-1.491H25.58a.964.964,0,1,0,0,1.929h2.382l-3.326,5.1A.965.965,0,0,0,25.445,22.789Zm7.477,37.988c15.277,0,21.633-12.689,16.073-21.672a.964.964,0,0,0-.781-.456c-3.854-.155-11.019-2.893-13.969-4.662a2.568,2.568,0,0,0-2.647,0c-2.95,1.77-10.115,4.507-13.968,4.662a.964.964,0,0,0-.781.456c-5.447,8.8.586,21.672,16.073,21.672ZM18.239,40.542c4.354-.371,11.391-3.126,14.352-4.9a.642.642,0,0,1,.662,0c2.961,1.776,10,4.531,14.352,4.9,4.317,7.643-1.163,18.305-14.683,18.305C19.3,58.847,13.979,48.084,18.239,40.542Zm14.683,8.63a1.482,1.482,0,1,0-1.387-1.479A1.435,1.435,0,0,0,32.922,49.172ZM64.042,24.49a1.773,1.773,0,0,0-.872-2.046c-.212-.113-.465-.253-.721-.412a10.33,10.33,0,0,0-.549-7.2.965.965,0,0,0-1.746.82,8.216,8.216,0,0,1,.674,4.781c-.175-.275-.327-.55-.448-.777a1.775,1.775,0,0,0-3.13,0,5.4,5.4,0,0,1-2.79,2.79,1.775,1.775,0,0,0,0,3.13,5.4,5.4,0,0,1,2.79,2.79,1.767,1.767,0,0,0,1.565.938,1.8,1.8,0,0,0,1.565-.938,5.121,5.121,0,0,1,2.253-2.489,9.081,9.081,0,0,1,1.277,4.952,9.2,9.2,0,0,1-9.168,8.891,18.382,18.382,0,0,0-6.856-10.271c-2.875-2.025-7.746-3.922-14.621-1.461a1.021,1.021,0,0,1-.686,0c-6.875-2.461-11.745-.564-14.621,1.461A18.382,18.382,0,0,0,11.1,39.717a9.2,9.2,0,0,1-9.168-8.89,9.1,9.1,0,0,1,2.507-6.581,1.773,1.773,0,0,0,2.418-.72,5.4,5.4,0,0,1,2.79-2.79,1.775,1.775,0,0,0,0-3.13,5.394,5.394,0,0,1-2.79-2.79,1.764,1.764,0,0,0-.383-.488,8.259,8.259,0,0,1,6.953-3.408,2.882,2.882,0,0,0,.68-.056,1.774,1.774,0,0,0,3.04-.15,5.393,5.393,0,0,1,2.79-2.79,1.775,1.775,0,0,0,.494-2.74A11.262,11.262,0,0,1,31.508,5.4a2.767,2.767,0,0,0,2.827,0A11.341,11.341,0,0,1,47.424,6.566c-.087.048-.173.095-.251.136a1.775,1.775,0,0,0,0,3.13,5.4,5.4,0,0,1,2.79,2.79,1.775,1.775,0,0,0,3.13,0,7.719,7.719,0,0,1,1.052-1.579,8.224,8.224,0,0,1,3.377,1.435.965.965,0,0,0,1.132-1.562A10.165,10.165,0,0,0,56.2,9.61,1.775,1.775,0,0,0,55.882,6.7a5.394,5.394,0,0,1-2.79-2.79,1.775,1.775,0,0,0-3.13,0A8.23,8.23,0,0,1,49,5.39,13.225,13.225,0,0,0,33.351,3.743a.839.839,0,0,1-.857,0A13.2,13.2,0,0,0,18.653,4a5.746,5.746,0,0,1-1.5-1.989,1.775,1.775,0,0,0-3.13,0A5.4,5.4,0,0,1,11.23,4.8a1.775,1.775,0,0,0,0,3.13,7.633,7.633,0,0,1,1.6,1.067A10.216,10.216,0,0,0,4.272,14.2a1.764,1.764,0,0,0-.542.615,5.4,5.4,0,0,1-2.79,2.79,1.775,1.775,0,0,0,0,3.13,5.078,5.078,0,0,1,2.3,1.953,11.111,11.111,0,0,0,7.43,18.949,21.063,21.063,0,0,0-.318,3.621c0,5.845.589,9.048-.237,11.448a4.363,4.363,0,0,0,2.2,5.362c.74.356,1.53.7,2.351,1.031a.965.965,0,1,0,.716-1.791c-.78-.312-1.53-.641-2.23-.978a2.434,2.434,0,0,1-1.216-3c.976-2.834.342-6.15.342-12.076,0-9.456,7.318-19.87,19.642-15.459a2.954,2.954,0,0,0,1.987,0c4.825-1.727,9.272-1.3,12.86,1.222,4.12,2.9,6.782,8.489,6.782,14.237,0,5.917-.633,9.245.342,12.076a2.434,2.434,0,0,1-1.216,3,48.47,48.47,0,0,1-19.762,4.376,48.718,48.718,0,0,1-13.287-1.95.964.964,0,0,0-.534,1.853,50.675,50.675,0,0,0,13.821,2.025,50.526,50.526,0,0,0,20.6-4.567,4.363,4.363,0,0,0,2.2-5.362c-1.125-3.266.382-9.711-.555-15.069A11.129,11.129,0,0,0,65.838,30.884a10.993,10.993,0,0,0-1.8-6.393ZM58.816,27.2a6.951,6.951,0,0,0-3.194-3.194,6.952,6.952,0,0,0,3.194-3.194,8.232,8.232,0,0,0,1.329,1.865h0a8.233,8.233,0,0,0,1.865,1.329A6.949,6.949,0,0,0,58.816,27.2ZM50.2,6.938a8.227,8.227,0,0,0,1.329-1.865,6.95,6.95,0,0,0,3.194,3.194,6.951,6.951,0,0,0-3.194,3.194,6.952,6.952,0,0,0-3.194-3.194A8.231,8.231,0,0,0,50.2,6.938ZM12.39,6.361a8.237,8.237,0,0,0,1.865-1.329h0a8.234,8.234,0,0,0,1.329-1.865,6.95,6.95,0,0,0,3.194,3.194,6.951,6.951,0,0,0-3.194,3.194A6.951,6.951,0,0,0,12.39,6.361ZM2.1,19.172a8.232,8.232,0,0,0,1.865-1.329h0a8.233,8.233,0,0,0,1.329-1.865,6.95,6.95,0,0,0,3.194,3.194,6.951,6.951,0,0,0-3.194,3.194A6.951,6.951,0,0,0,2.1,19.172ZM40.317,47.026a3.343,3.343,0,0,0,2.521-1.148.964.964,0,1,0-1.454-1.267,1.413,1.413,0,0,1-2.133,0A.964.964,0,1,0,37.8,45.878,3.343,3.343,0,0,0,40.317,47.026Z" transform="translate(0)"/>
    </g>
  </g>
</svg>
