<svg xmlns="http://www.w3.org/2000/svg" xmlns:xlink="http://www.w3.org/1999/xlink" width="190" height="240" viewBox="0 0 190 240">
  <defs>
    <clipPath id="clip-path">
      <rect id="Rectángulo_417888" data-name="Rectángulo 417888" width="190" height="240" fill="#fff" stroke="#707070" stroke-width="1"/>
    </clipPath>
    <clipPath id="clip-path-2">
      <path id="Trazado_1077460" data-name="Trazado 1077460" d="M276.622,63.936V235.071c0,10.521-.711,21.742-22.06,21.742s-154.274,2.375-174.4.266C63.439,255.326,55.312,249.1,54.6,223.147s.5-143.089,0-156.405c-.316-8.416-.316-24.2,24.907-25.25,25.684-1.071,148.37-.784,171.5-.672C278.4,40.709,276.622,63.936,276.622,63.936Z" transform="translate(-54.369 -40.7)"/>
    </clipPath>
    <filter id="Trazado_1077461" x="-9.062" y="17.742" width="85.531" height="67.578" filterUnits="userSpaceOnUse">
      <feOffset dy="3" input="SourceAlpha"/>
      <feGaussianBlur stdDeviation="3" result="blur"/>
      <feFlood flood-opacity="0.161"/>
      <feComposite operator="in" in2="blur"/>
      <feComposite in="SourceGraphic"/>
    </filter>
  </defs>
  <g id="Enmascarar_grupo_1098878" data-name="Enmascarar grupo 1098878" clip-path="url(#clip-path)">
    <g id="Grupo_1208849" data-name="Grupo 1208849" transform="translate(-22.062 23.742)">
      <path id="Trazado_1077395" data-name="Trazado 1077395" d="M189.417,63.936V235.071c0,10.521-.432,21.742-13.4,21.742s-93.742,2.375-105.972.266c-10.161-1.753-15.1-7.981-15.532-33.932s.3-143.089,0-156.405c-.192-8.416-.192-24.2,15.134-25.25,15.606-1.071,90.154-.784,104.207-.672C190.5,40.709,189.417,63.936,189.417,63.936Z" transform="translate(-32.369 -23.7)" fill="#e28279"/>
      <g id="Grupo_1208843" data-name="Grupo 1208843" transform="translate(0 13)">
        <g id="Grupo_1208842" data-name="Grupo 1208842" clip-path="url(#clip-path-2)">
          <path id="Trazado_1077396" data-name="Trazado 1077396" d="M168.965,167.41s-13.192-2.167-27.9-3.091-34.081,1.015-34.081,1.015,13.469,30.578,36.07,24.524S168.965,167.41,168.965,167.41Z" transform="translate(-11.453 -14.394)" fill="#050504"/>
          <g id="Grupo_1208822" data-name="Grupo 1208822" transform="translate(56.552 135.393)">
            <g id="Grupo_1208821" data-name="Grupo 1208821">
              <path id="Trazado_1077397" data-name="Trazado 1077397" d="M192.885,334s3.362-46.032-3.111-78.586c-9.451-47.536-21.217-62.2-27.22-68.709-8.406-9.108-26.971-13.734-26.971-13.734l-14.407-1.839L122.31,152.3l-33.347.274L87.28,169.7s-11.832,5.762-16.987,8.421c-.775,17.591-12.365,17.33-14.6,34.484.149.061.29.126.439.187l-1.763,99.626s35.5,22.275,98.537-1.458l1.665-87.737S165.089,264.2,167.4,275.349s3.863,57.413,3.863,57.413-8.215,13.661-5.986,17.291,6.654-4.507,6.654-4.507-3.841,20.128-.31,20.238,6.155-15.475,6.155-15.475-.922,19.539,3.773,18.353c2.739-.807,1.754-17.449,1.754-17.449s2.175,16.6,5.129,15.92.178-16.53.178-16.53,3.272,12.9,6.265,11.986S194.839,342.8,192.885,334Z" transform="translate(-30.415 -152.297)" fill="#e7a17e"/>
              <g id="Grupo_1208803" data-name="Grupo 1208803" transform="translate(57.204)">
                <path id="Trazado_1077398" data-name="Trazado 1077398" d="M148.351,163.714l.687-11.417-33.347.274-1.343,13.671C123.01,166.841,136.031,166.9,148.351,163.714Z" transform="translate(-114.347 -152.297)" fill="#dd8865"/>
              </g>
              <g id="Grupo_1208804" data-name="Grupo 1208804" transform="translate(74.264 172.113)">
                <path id="Trazado_1077399" data-name="Trazado 1077399" d="M87.258,468.544,75.628,300.322l51.208-6.162s-12.312,128.076-18.494,169.3c0,0,32.7,11.624,32.577,17.685s-37.736,1.507-37.736,1.507S80.2,488.323,87.258,468.544Z" transform="translate(-75.628 -294.16)" fill="#e7a17e"/>
              </g>
              <g id="Grupo_1208805" data-name="Grupo 1208805" transform="translate(2.567 149.286)">
                <path id="Trazado_1077400" data-name="Trazado 1077400" d="M185.8,471.939s8.453-112.126,13.617-193.7c.769-12.154-45.829,17.844-45.829,17.844S160.5,424.556,164.947,466c0,0-32.078,10.06-32.206,16.121s36.553,3.265,36.553,3.265S192.02,491.988,185.8,471.939Z" transform="translate(-132.74 -275.345)" fill="#e7a17e"/>
              </g>
              <g id="Grupo_1208808" data-name="Grupo 1208808" transform="translate(0 337.718)">
                <g id="Grupo_1208806" data-name="Grupo 1208806" transform="translate(0.422 4.358)">
                  <path id="Trazado_1077401" data-name="Trazado 1077401" d="M189.847,437.889c-10.19,4.315-13.4,8.6-13.4,8.6s.476,1.4,14.5,3.22A17.9,17.9,0,0,0,189.847,437.889Z" transform="translate(-176.452 -433.475)" fill="#fff"/>
                  <path id="Trazado_1077402" data-name="Trazado 1077402" d="M184.722,436.031c-13.31,6.7-28.819-1.78-28.819-1.78a88.855,88.855,0,0,0-13.641,4.414,17.9,17.9,0,0,1,1.1,11.817c3.613.468,8.112.963,13.75,1.47,27.518,2.474,28.813-4.558,28.813-4.558A38.244,38.244,0,0,0,184.722,436.031Z" transform="translate(-128.866 -434.251)" fill="#e4bb5b"/>
                </g>
                <g id="Grupo_1208807" data-name="Grupo 1208807" transform="translate(0 17.369)">
                  <path id="Trazado_1077403" data-name="Trazado 1077403" d="M199.785,445.107a39.811,39.811,0,0,1-.635,4.217s-8,2.517-29.631,2.075c-24.167-.494-27.2-3.592-27.2-3.592a7.39,7.39,0,0,1,.407-2.832A135.8,135.8,0,0,0,199.785,445.107Z" transform="translate(-142.303 -444.975)" fill="#fff"/>
                </g>
                <path id="Trazado_1077404" data-name="Trazado 1077404" d="M170.086,436.092a8.641,8.641,0,0,1,3.588,8.269" transform="translate(-150.458 -429.5)" fill="none" stroke="#57687e" stroke-linecap="round" stroke-linejoin="round" stroke-miterlimit="10" stroke-width="0.538"/>
                <path id="Trazado_1077405" data-name="Trazado 1077405" d="M166.235,434.872s3.624,2.242,3.48,8.261" transform="translate(-141.695 -429.76)" fill="none" stroke="#57687e" stroke-linecap="round" stroke-linejoin="round" stroke-miterlimit="10" stroke-width="0.538"/>
                <path id="Trazado_1077406" data-name="Trazado 1077406" d="M167.667,437.635s-2.871-6.935.146-6.976S167.667,437.635,167.667,437.635Z" transform="translate(-141.338 -430.659)" fill="none" stroke="#57687e" stroke-linecap="round" stroke-linejoin="round" stroke-miterlimit="10" stroke-width="0.538"/>
                <path id="Trazado_1077407" data-name="Trazado 1077407" d="M162.283,437.12s5.009-5.634,6.4-2.992S162.283,437.12,162.283,437.12Z" transform="translate(-135.957 -430.07)" fill="none" stroke="#57687e" stroke-linecap="round" stroke-linejoin="round" stroke-miterlimit="10" stroke-width="0.538"/>
              </g>
              <g id="Grupo_1208817" data-name="Grupo 1208817" transform="translate(22.749 145.901)">
                <path id="Trazado_1077408" data-name="Trazado 1077408" d="M190.111,273.039s-3.5,96.047-11.248,186.674c-.743,8.689-35.381-.723-35.381-.723l-5.515-143.153h0L124.2,458.324s-26.945,4.67-34.649-.436c0,0-6.265-21.057-2.832-183.387Z" transform="translate(-85.69 -272.452)" fill="#2e2646"/>
                <g id="Grupo_1208809" data-name="Grupo 1208809" transform="translate(32.78 40.998)">
                  <path id="Trazado_1077409" data-name="Trazado 1077409" d="M113.112,312a.326.326,0,0,1,0-.653c15.424-.5,37.349-4.952,37.568-5a.339.339,0,0,1,.391.254.328.328,0,0,1-.258.386c-.219.044-22.2,4.511-37.68,5.011A.024.024,0,0,1,113.112,312Z" transform="translate(-112.787 -306.347)" fill="#1a162b"/>
                </g>
                <g id="Grupo_1208810" data-name="Grupo 1208810" transform="translate(5.091 9.319)">
                  <path id="Trazado_1077410" data-name="Trazado 1077410" d="M166.5,454.1a.33.33,0,0,1-.325-.323l-1.747-173.208a.329.329,0,0,1,.327-.33h.01a.33.33,0,0,1,.325.323l1.747,173.208a.329.329,0,0,1-.327.33Z" transform="translate(-164.427 -280.236)" fill="#1a162b"/>
                </g>
                <g id="Grupo_1208811" data-name="Grupo 1208811" transform="translate(59.125 43.655)">
                  <path id="Trazado_1077411" data-name="Trazado 1077411" d="M122.723,449.348a.331.331,0,0,1-.325-.322L120.01,308.868a.331.331,0,0,1,.662-.01l2.388,140.159a.329.329,0,0,1-.326.331Z" transform="translate(-120.01 -308.537)" fill="#1a162b"/>
                </g>
                <g id="Grupo_1208812" data-name="Grupo 1208812" transform="translate(55.138 0.063)">
                  <path id="Trazado_1077412" data-name="Trazado 1077412" d="M124.945,306.59c-.182,0-.327-.207-.321-.454l.7-33.089c0-.246.158-.444.341-.44s.327.207.321.454l-.7,33.087C125.28,306.4,125.127,306.593,124.945,306.59Z" transform="translate(-124.624 -272.607)" fill="#1a162b"/>
                </g>
                <g id="Grupo_1208813" data-name="Grupo 1208813" transform="translate(6.573 1.829)">
                  <path id="Trazado_1077413" data-name="Trazado 1077413" d="M153.886,309.57a.33.33,0,0,1-.228-.1.321.321,0,0,1,0-.461,45.237,45.237,0,0,0,13.467-34.605.329.329,0,0,1,.311-.345.325.325,0,0,1,.35.307,45.891,45.891,0,0,1-13.661,35.106A.343.343,0,0,1,153.886,309.57Z" transform="translate(-153.562 -274.062)" fill="#1a162b"/>
                </g>
                <g id="Grupo_1208814" data-name="Grupo 1208814" transform="translate(89.232 1.967)">
                  <path id="Trazado_1077414" data-name="Trazado 1077414" d="M100.141,304.276a.356.356,0,0,1-.1-.016c-5.184-1.7-9.557-6.518-11.415-12.586-1.888-6.178-1.164-12.789-.455-17.224a.332.332,0,0,1,.379-.272.328.328,0,0,1,.276.375c-.7,4.371-1.416,10.884.436,16.933,1.793,5.867,6,10.525,10.989,12.154a.327.327,0,0,1,.21.414A.332.332,0,0,1,100.141,304.276Z" transform="translate(-87.424 -274.176)" fill="#1a162b"/>
                </g>
                <g id="Grupo_1208815" data-name="Grupo 1208815" transform="translate(49.221 3.786)">
                  <path id="Trazado_1077415" data-name="Trazado 1077415" d="M131.436,304.7c-.185,0-4.536-.192-5.424-8.852-.858-8.391-.84-19.732-.841-19.846a.329.329,0,0,1,.331-.326h.006a.331.331,0,0,1,.325.326c0,.114-.02,11.421.837,19.779.824,8.036,4.74,8.263,4.781,8.265a.327.327,0,1,1-.016.654Z" transform="translate(-125.172 -275.675)" fill="#1a162b"/>
                </g>
                <g id="Grupo_1208816" data-name="Grupo 1208816" transform="translate(1.983 7.016)">
                  <path id="Trazado_1077416" data-name="Trazado 1077416" d="M88.035,285.818a.345.345,0,0,0,.085-.01c34.116-8.747,79.221-6.875,94.048-6.264,5.356.223,5.356.223,5.472-.092a.3.3,0,0,0-.188-.391.313.313,0,0,0-.246.017c-.362.049-2.423-.036-5.011-.144-14.846-.611-60.023-2.488-94.231,6.285a.3.3,0,0,0-.222.372A.31.31,0,0,0,88.035,285.818Z" transform="translate(-87.73 -278.337)" fill="#1a162b"/>
                </g>
                <path id="Trazado_1077417" data-name="Trazado 1077417" d="M125.944,274.972a1.933,1.933,0,1,0,1.913-2.417C126.829,272.534,125.972,273.617,125.944,274.972Z" transform="translate(-74.796 -272.555)" fill="#1a162b"/>
              </g>
              <g id="Grupo_1208820" data-name="Grupo 1208820" transform="translate(84.068 339.54)">
                <g id="Grupo_1208818" data-name="Grupo 1208818" transform="translate(0 4.316)">
                  <path id="Trazado_1077418" data-name="Trazado 1077418" d="M76.339,439.813c10,4.728,13.022,9.137,13.022,9.137s-.535,1.381-14.62,2.624A17.916,17.916,0,0,1,76.339,439.813Z" transform="translate(-32.343 -434.845)" fill="#fff"/>
                  <path id="Trazado_1077419" data-name="Trazado 1077419" d="M86.647,436.32c13.017,7.239,28.868-.6,28.868-.6a88.739,88.739,0,0,1,13.444,4.967,17.9,17.9,0,0,0-1.6,11.761c-3.63.32-8.145.632-13.8.907-27.6,1.348-28.6-5.731-28.6-5.731A38.281,38.281,0,0,1,86.647,436.32Z" transform="translate(-84.963 -435.718)" fill="#e4bb5b"/>
                </g>
                <g id="Grupo_1208819" data-name="Grupo 1208819" transform="translate(0.002 16.223)">
                  <path id="Trazado_1077420" data-name="Trazado 1077420" d="M74.122,445.532a39.808,39.808,0,0,0,.457,4.239s7.89,2.841,29.518,3.284c24.167.494,27.329-2.477,27.329-2.477a7.369,7.369,0,0,0-.288-2.846A135.794,135.794,0,0,1,74.122,445.532Z" transform="translate(-74.122 -445.532)" fill="#fff"/>
                </g>
                <path id="Trazado_1077421" data-name="Trazado 1077421" d="M93.564,437.822a8.652,8.652,0,0,0-3.933,8.115" transform="translate(-55.282 -430.953)" fill="none" stroke="#57687e" stroke-linecap="round" stroke-linejoin="round" stroke-miterlimit="10" stroke-width="0.538"/>
                <path id="Trazado_1077422" data-name="Trazado 1077422" d="M97.366,436.437s-3.715,2.093-3.825,8.112" transform="translate(-63.928 -431.249)" fill="none" stroke="#57687e" stroke-linecap="round" stroke-linejoin="round" stroke-miterlimit="10" stroke-width="0.538"/>
                <path id="Trazado_1077423" data-name="Trazado 1077423" d="M95.111,439.14s3.16-6.812.146-6.976S95.111,439.14,95.111,439.14Z" transform="translate(-63.539 -432.161)" fill="none" stroke="#57687e" stroke-linecap="round" stroke-linejoin="round" stroke-miterlimit="10" stroke-width="0.538"/>
                <path id="Trazado_1077424" data-name="Trazado 1077424" d="M101.514,438.661s-4.767-5.833-6.266-3.252S101.514,438.661,101.514,438.661Z" transform="translate(-69.943 -431.608)" fill="none" stroke="#57687e" stroke-linecap="round" stroke-linejoin="round" stroke-miterlimit="10" stroke-width="0.538"/>
              </g>
            </g>
          </g>
          <g id="Grupo_1208832" data-name="Grupo 1208832" transform="translate(56.728 148.271)">
            <path id="Trazado_1077425" data-name="Trazado 1077425" d="M183.478,169.938a89.091,89.091,0,0,0-11.008-2.782,65.146,65.146,0,0,1-26.972,4.8,60.76,60.76,0,0,1-26.052-6.691s-1.937,10.143-10.731,6.291c-6.336,20.774-17.67,29.041-24,49.974.355.19.708.4,1.065.545,0,0,1.345,7.211-1.142,21.827-3.538,20.789-.443,53.148,2.606,57.308s1.749,4.258,27.216-.279,67.761-5.33,78.995,1.149,8.2-16.837,7.812-17.2-2.237-13.523-.126-24.925a14.87,14.87,0,0,0-1.332-9.2" transform="translate(-71.686 -162.41)" fill="#050504"/>
            <path id="Trazado_1077426" data-name="Trazado 1077426" d="M78.305,249.941c9.45-1.184,20.679-11.818,28.063-20.026-3.24-15.761-8.609-31.628-17.883-41.876-7.611-8.41-13.611-14.684-26.508-18.923" transform="translate(49.815 -161.588)" fill="#050504"/>
            <path id="Trazado_1077427" data-name="Trazado 1077427" d="M179.8,241.365s-10.831-5.092-6.342-25.854l18.671,6.873Z" transform="translate(-171.835 -151.695)" fill="#dd8865"/>
            <path id="Trazado_1077428" data-name="Trazado 1077428" d="M183.475,246.644c-9.488-.838-21.108-11.055-28.8-18.987,2.645-15.868,7.414-31.92,16.3-42.5,7.288-8.683,13.049-15.171,25.778-19.879" transform="translate(-154.678 -162.407)" fill="#050504"/>
            <g id="Grupo_1208823" data-name="Grupo 1208823" transform="translate(39.68)">
              <path id="Trazado_1077429" data-name="Trazado 1077429" d="M137.36,178.263c-22.478.411-33.541-14.713-33.654-14.872a.3.3,0,0,1,.075-.426.315.315,0,0,1,.431.074c.118.164,12.028,16.414,36.3,14.453a71.246,71.246,0,0,0,27.876-7.961.313.313,0,0,1,.426.1.3.3,0,0,1-.1.42A71.926,71.926,0,0,1,140.56,178.1C139.472,178.19,138.4,178.244,137.36,178.263Z" transform="translate(-103.649 -162.911)" fill="#282822"/>
            </g>
            <g id="Grupo_1208824" data-name="Grupo 1208824" transform="translate(127.589 64.144)">
              <path id="Trazado_1077430" data-name="Trazado 1077430" d="M62.729,237.926a.31.31,0,0,1-.309-.24.306.306,0,0,1,.238-.364c17.578-3.808,27.134-21.2,27.228-21.378a.312.312,0,0,1,.42-.126.3.3,0,0,1,.128.414c-.1.177-9.782,17.819-27.645,21.688A.327.327,0,0,1,62.729,237.926Z" transform="translate(-62.413 -215.782)" fill="#282822"/>
            </g>
            <g id="Grupo_1208825" data-name="Grupo 1208825" transform="translate(125.897 68.605)">
              <path id="Trazado_1077431" data-name="Trazado 1077431" d="M85.894,245.654a.3.3,0,0,1-.124-.023.306.306,0,0,1-.169-.4c.023-.056,2.293-5.857-.96-25.418a.308.308,0,0,1,.257-.352.311.311,0,0,1,.356.252c3.293,19.8,1.019,25.518.92,25.752A.307.307,0,0,1,85.894,245.654Z" transform="translate(-84.637 -219.458)" fill="#282822"/>
            </g>
            <g id="Grupo_1208826" data-name="Grupo 1208826" transform="translate(119.267 13.557)">
              <path id="Trazado_1077432" data-name="Trazado 1077432" d="M92.815,222.722a.31.31,0,0,1-.313-.257c-4.824-29.4-5.522-47.877-5.528-48.06a.309.309,0,0,1,.3-.317.314.314,0,0,1,.321.295c.006.183.7,18.626,5.521,47.983a.307.307,0,0,1-.257.351A.191.191,0,0,1,92.815,222.722Z" transform="translate(-86.974 -174.086)" fill="#282822"/>
            </g>
            <g id="Grupo_1208827" data-name="Grupo 1208827" transform="translate(127.929 84.563)">
              <path id="Trazado_1077433" data-name="Trazado 1077433" d="M84.93,232.612" transform="translate(-84.93 -232.612)" fill="#282822"/>
            </g>
            <g id="Grupo_1208828" data-name="Grupo 1208828" transform="translate(15.355 42.964)">
              <path id="Trazado_1077434" data-name="Trazado 1077434" d="M161.952,214.609a.313.313,0,0,1-.239-.1.3.3,0,0,1,.028-.432c.139-.121,14.044-12.174,17.516-15.659a.316.316,0,0,1,.439,0,.3.3,0,0,1,0,.432c-3.486,3.5-17.409,15.569-17.548,15.692A.324.324,0,0,1,161.952,214.609Z" transform="translate(-161.636 -198.324)" fill="#282822"/>
            </g>
            <g id="Grupo_1208829" data-name="Grupo 1208829" transform="translate(16.985 129.731)">
              <path id="Trazado_1077435" data-name="Trazado 1077435" d="M195.447,276.509a.31.31,0,0,1-.178-.053c-.095-.062-9.744-6.3-31.588-5.991-.112,0-.223,0-.335,0-9.439.172-23.411,1.963-36.93,3.694-18.666,2.39-36.3,4.648-40.763,2.528a.306.306,0,0,1-.145-.409.311.311,0,0,1,.415-.143c4.3,2.043,21.842-.2,40.413-2.583,13.534-1.732,27.524-3.526,37-3.7l.337-.006c22.062-.315,31.847,6.031,31.943,6.1a.3.3,0,0,1,.084.423A.307.307,0,0,1,195.447,276.509Z" transform="translate(-85.477 -269.842)" fill="#282822"/>
            </g>
            <g id="Grupo_1208830" data-name="Grupo 1208830" transform="translate(20.081 89.919)">
              <path id="Trazado_1077436" data-name="Trazado 1077436" d="M178.583,266.476a.3.3,0,0,1-.165-.045,120.894,120.894,0,0,1-33.272-28.909.3.3,0,0,1,.052-.429.312.312,0,0,1,.436.051,120.293,120.293,0,0,0,33.1,28.763.3.3,0,0,1,.106.419A.311.311,0,0,1,178.583,266.476Z" transform="translate(-145.078 -237.026)" fill="#282822"/>
            </g>
            <g id="Grupo_1208831" data-name="Grupo 1208831" transform="translate(21.427 98.402)">
              <path id="Trazado_1077437" data-name="Trazado 1077437" d="M174.207,273.424a.312.312,0,0,1-.234-.1A66.824,66.824,0,0,1,158.2,244.4a.306.306,0,0,1,.225-.371.31.31,0,0,1,.375.223,66.24,66.24,0,0,0,15.629,28.659.3.3,0,0,1-.018.432A.319.319,0,0,1,174.207,273.424Z" transform="translate(-158.192 -244.019)" fill="#282822"/>
            </g>
          </g>
          <g id="Grupo_1208838" data-name="Grupo 1208838" transform="translate(72.77 6.882)">
            <path id="Trazado_1077438" data-name="Trazado 1077438" d="M74.88,81.062A16.189,16.189,0,0,1,86.24,91.351a15.858,15.858,0,0,1-2.772,14.959,5.819,5.819,0,0,0-1.29,1.963A5,5,0,0,0,82.9,111.7c1.638,3.444,3.152,7.156,2.731,10.937s-3.437,7.544-7.3,7.533" transform="translate(37.222 -38.975)" fill="none" stroke="#63453c" stroke-miterlimit="10" stroke-width="1.008"/>
            <path id="Trazado_1077439" data-name="Trazado 1077439" d="M172.852,88.7c1.231-1.218,2.24-2.23,3.018-3.016-2.016,3.979-4.516,8.624-5.592,9.446,0,0-4.18,23.3-6.982,27.522s-4.914-11.353-2.07-20.5c1.678-5.4,3.2-8.079,4.173-9.377C167.538,92.026,170.913,90.621,172.852,88.7Z" transform="translate(-156.237 -37.989)" fill="#795948"/>
            <g id="Grupo_1208837" data-name="Grupo 1208837" transform="translate(0)">
              <path id="Trazado_1077440" data-name="Trazado 1077440" d="M99.121,88.015s-8.862,17.258-11.63,43.5c-2.16,20.475,12.312,42.216,37.5,46.438,23.677,3.968,49.442-2.953,60.348-35.146s3.149-59.513-26.419-69.945S107.469,68.2,99.121,88.015Z" transform="translate(-81.05 -41.814)" fill="#e7a17e"/>
              <path id="Trazado_1077441" data-name="Trazado 1077441" d="M107.049,135.789c.329,3.513,6.007,5.87,12.684,5.262s11.821-3.948,11.492-7.461-6.008-5.87-12.684-5.262S106.72,132.276,107.049,135.789Z" transform="translate(-46.561 -28.917)" fill="#dd8865"/>
              <path id="Trazado_1077442" data-name="Trazado 1077442" d="M149.319,126.411c-1.123,3.351,3.129,7.746,9.5,9.817s12.437,1.035,13.559-2.316-3.129-7.746-9.5-9.817S150.441,123.062,149.319,126.411Z" transform="translate(-139.703 -30.027)" fill="#dd8865"/>
              <g id="Grupo_1208833" data-name="Grupo 1208833">
                <path id="Trazado_1077443" data-name="Trazado 1077443" d="M136.4,79.21c.149-.165.245-.255.245-.255S136.554,79.048,136.4,79.21Z" transform="translate(-88.11 -39.425)" fill="#795948"/>
                <path id="Trazado_1077444" data-name="Trazado 1077444" d="M75.315,71.235c-1.525-7.79,5.576-3.907,5.576-3.907s-1.654-6.564,3.631-9.955,15.7,1.609,19.923,2.042c0,0-6.4-7.828-.556-12.086s21.75,6.955,27.24,9.037c11.707,4.438,13.6-1.9,33.19,5.483a23.379,23.379,0,0,1,12.013,10.715s-1.193-15.39,3.427-14.685,3.3,19.918,3.3,19.918,11.917-3.952,12.538,1.285-7.681,9.474-7.681,9.474,17.822,12.306,5.561,23.969c0,0,8,8.726,4.9,18.086a6.278,6.278,0,0,1-4.878,3.972s7.807,10.545-2.6,20.164-16.761,25.392-26.551,22.537,5.709-16.3,9.748-21.209,2.394-11.452,1.147-25.278-3.359-31.623-3.359-31.623-31.748,11.089-43.829,2.448c-10.75-7.688-5.872-14.137-4.665-15.465.156-.16.245-.255.245-.255s-.1.091-.245.255C121.681,87.9,111.143,98.2,101.51,96.589c-7.429-1.242-3.844-8.49-3.844-8.49s-1.31,2.771-2.932,5.973c-.778.786-1.787,1.8-3.018,3.016-1.938,1.917-5.314,3.322-7.453,4.076a4.556,4.556,0,0,1,1.083-1.142S74.8,102.873,76.21,91.684c.672-6.408,6.707-10.185,6.707-10.185A14.021,14.021,0,0,1,75.315,71.235Z" transform="translate(-75.101 -46.372)" fill="#795948"/>
              </g>
              <path id="Trazado_1077445" data-name="Trazado 1077445" d="M80.576,143.2l7.6-18.652s18.554-4.576,17.577,13.6S85.406,155.258,80.576,143.2Z" transform="translate(11.457 -29.813)" fill="#e7a17e"/>
              <path id="Trazado_1077446" data-name="Trazado 1077446" d="M124.893,117.5s4.546-4.16-3.442-10.763-11.139-5.652-12.834-2.935c-1.546,2.48.009,6.594,4.558,10.183C118.638,118.291,122.41,119.9,124.893,117.5Z" transform="translate(-42.738 -34.568)" fill="#795948"/>
              <path id="Trazado_1077447" data-name="Trazado 1077447" d="M147.208,108.958s-2.528-5.583,7.445-8.573,12.5-.9,12.974,2.257c.437,2.878-2.629,6.063-8.242,7.608C152.646,112.1,148.536,112.128,147.208,108.958Z" transform="translate(-132.089 -35.163)" fill="#795948"/>
              <path id="Trazado_1077448" data-name="Trazado 1077448" d="M116.722,121.8c-.26,2.464,1.193,4.633,3.245,4.843s3.925-1.617,4.185-4.081-1.193-4.633-3.245-4.843S116.981,119.336,116.722,121.8Z" transform="translate(-51.391 -31.162)"/>
              <path id="Trazado_1077449" data-name="Trazado 1077449" d="M150.332,117.313c-.26,2.464,1.193,4.633,3.245,4.843s3.925-1.617,4.186-4.083-1.193-4.633-3.245-4.843S150.591,114.848,150.332,117.313Z" transform="translate(-126.375 -32.119)"/>
              <g id="Grupo_1208834" data-name="Grupo 1208834" transform="translate(97.133 100.101)">
                <path id="Trazado_1077450" data-name="Trazado 1077450" d="M83.809,143.855a.38.38,0,0,0,.155-.017.363.363,0,0,0,.233-.461c-.031-.092-3.036-9.185,3.543-12.6a8.3,8.3,0,0,1,6.5-.831,10.138,10.138,0,0,1,5.248,4.7.373.373,0,0,0,.494.169.36.36,0,0,0,.172-.485,10.7,10.7,0,0,0-5.676-5.071,9.008,9.008,0,0,0-7.078.876c-7.137,3.7-3.933,13.376-3.9,13.474A.371.371,0,0,0,83.809,143.855Z" transform="translate(-82.751 -128.88)" fill="#634927"/>
              </g>
              <g id="Grupo_1208835" data-name="Grupo 1208835" transform="translate(97.336 105.646)">
                <path id="Trazado_1077451" data-name="Trazado 1077451" d="M98.42,136.721a.376.376,0,0,0,.31-.115.362.362,0,0,0-.022-.516c-.057-.052-5.756-5.121-10.81-1.073a.36.36,0,0,0-.054.512.372.372,0,0,0,.519.053c4.559-3.653,9.79,1,9.843,1.043A.376.376,0,0,0,98.42,136.721Z" transform="translate(-87.761 -133.45)" fill="#634927"/>
              </g>
              <g id="Grupo_1208836" data-name="Grupo 1208836" transform="translate(37.098 60.758)">
                <path id="Trazado_1077452" data-name="Trazado 1077452" d="M137.31,132.964a.371.371,0,0,0,.357-.178.362.362,0,0,0-.132-.5,9.9,9.9,0,0,1-3.858-4.388c-.809-2.141-.167-5.168,1.344-6.351a2.635,2.635,0,0,1,3.257.138c.038.025.1.069.181.127,4.252,3.052,6.414,2.1,7.482.761,1.957-2.458,2.695-23.371,2.772-25.746a.37.37,0,0,0-.74-.023c-.208,6.391-1.084,23.4-2.615,25.319-1.259,1.581-3.434,1.28-6.466-.9-.094-.067-.164-.118-.208-.147a3.366,3.366,0,0,0-4.125-.1c-1.763,1.379-2.5,4.732-1.578,7.176a10.455,10.455,0,0,0,4.178,4.762A.355.355,0,0,0,137.31,132.964Z" transform="translate(-132.583 -96.452)" fill="#634927"/>
              </g>
            </g>
            <path id="Trazado_1077453" data-name="Trazado 1077453" d="M184.869,88.818a113.657,113.657,0,0,1-21.313,8.21,70.6,70.6,0,0,1-11.194,2.049,38.8,38.8,0,0,1-11.272-.406,23.337,23.337,0,0,1-5.319-1.791,14.9,14.9,0,0,1-4.5-3.181,10.422,10.422,0,0,1-2.575-4.713,13.113,13.113,0,0,1-.074-5.429,24.24,24.24,0,0,1,4.68-10.021,20.052,20.052,0,0,1,1.841-2.09,6.18,6.18,0,0,1,2.094-1.489c.167-.042.215-.007.175-.029a.565.565,0,0,1,.031.258,3.724,3.724,0,0,1-.361,1.174,16.365,16.365,0,0,1-1.4,2.379,52.517,52.517,0,0,1-7.563,8.414,48.4,48.4,0,0,1-9.152,6.693A24.215,24.215,0,0,1,113.77,91a11.465,11.465,0,0,1-5.453.268,5.825,5.825,0,0,1-3.957-3.244,12.407,12.407,0,0,1-1.083-5.32,23.056,23.056,0,0,1,.663-5.52,17.044,17.044,0,0,1,2.031-5.12,4.316,4.316,0,0,1,.832-.962,1.19,1.19,0,0,1,.441-.239c.172-.017.08-.019.128.007a2.14,2.14,0,0,1,.127,1.066,10.3,10.3,0,0,1-.186,1.342,32.473,32.473,0,0,1-1.685,5.342,48.928,48.928,0,0,1-5.328,9.932,22.9,22.9,0,0,1-3.708,4.17,6.789,6.789,0,0,1-4.79,1.955h-.01a.547.547,0,1,0-.113,1.087h.007A7.832,7.832,0,0,0,97.3,93.539a23.931,23.931,0,0,0,3.871-4.38,49.959,49.959,0,0,0,5.408-10.167,33.495,33.495,0,0,0,1.716-5.521,11.452,11.452,0,0,0,.2-1.475,2.75,2.75,0,0,0-.323-1.7,1,1,0,0,0-.56-.382,1.241,1.241,0,0,0-.6,0,2.144,2.144,0,0,0-.822.426,5.194,5.194,0,0,0-1.043,1.187,17.939,17.939,0,0,0-2.174,5.427,24,24,0,0,0-.7,5.756,13.354,13.354,0,0,0,1.177,5.748,6.858,6.858,0,0,0,4.623,3.782,12.486,12.486,0,0,0,5.965-.268,25.212,25.212,0,0,0,5.426-2.241,49.375,49.375,0,0,0,9.363-6.827,53.475,53.475,0,0,0,7.732-8.585,17.289,17.289,0,0,0,1.492-2.539,4.6,4.6,0,0,0,.453-1.541,1.354,1.354,0,0,0-.348-1.069,1.233,1.233,0,0,0-1.184-.239,6.888,6.888,0,0,0-2.584,1.757,20.747,20.747,0,0,0-1.944,2.2,25.261,25.261,0,0,0-4.9,10.474,14.176,14.176,0,0,0,.079,5.871,11.5,11.5,0,0,0,2.83,5.2,16.714,16.714,0,0,0,4.809,3.441,26.626,26.626,0,0,0,5.54,2,37.046,37.046,0,0,0,11.7.818,62.168,62.168,0,0,0,11.483-2.107,97.677,97.677,0,0,0,21.426-8.82.543.543,0,0,0,.212-.744.558.558,0,0,0-.735-.218Z" transform="translate(-81.501 -41.573)" fill="#63453c"/>
          </g>
          <g id="Grupo_1208840" data-name="Grupo 1208840" transform="translate(59.552 127.825)">
            <g id="Grupo_1208839" data-name="Grupo 1208839" transform="translate(0)">
              <path id="Trazado_1077454" data-name="Trazado 1077454" d="M165.407,176.743l-4.888,35.13-30.2-6.729,24.461-46.392s2.972-14.3,6.346-12.545,2.952,11.3,2.952,11.3,21.944-5.075,22.226-2-13.583,6.164-13.583,6.164,9.985-1.891,9.162,2.268c-.583,2.431-8.066,2.509-8.066,2.509s7.8.16,7.343,2.773-7.617,1.89-7.617,1.89,6.323.756,5.66,3.414-5.666,3.122-13.673,1.87h0" transform="translate(-117.066 -146.059)" fill="#e7a17e"/>
              <path id="Trazado_1077455" data-name="Trazado 1077455" d="M164.512,194.76s-23.426,39-7.979,52.652,26.537,2.63,30.209-10.082,7.974-35.841,7.974-35.841" transform="translate(-151.263 -135.674)" fill="#e7a17e"/>
            </g>
            <path id="Trazado_1077456" data-name="Trazado 1077456" d="M130.316,177.889l10.09-19.135s2.972-14.3,6.346-12.545,2.952,11.3,2.952,11.3,21.944-5.075,22.226-2-13.583,6.164-13.583,6.164,9.985-1.891,9.162,2.268c-.583,2.431-8.066,2.509-8.066,2.509s7.8.16,7.343,2.773-7.617,1.89-7.617,1.89,6.323.756,5.66,3.414-5.666,3.122-13.673,1.87h0" transform="translate(-102.695 -146.058)" fill="none" stroke="#634927" stroke-miterlimit="10" stroke-width="0.529"/>
          </g>
          <path id="Trazado_1077457" data-name="Trazado 1077457" d="M173.407,236.522" transform="translate(-97.66 1.056)" fill="#e09f25"/>
          <g id="Grupo_1208841" data-name="Grupo 1208841" transform="translate(109.931 109.235)">
            <path id="Trazado_1077458" data-name="Trazado 1077458" d="M148.623,133.9a9.83,9.83,0,0,0-.423-3.168,51.458,51.458,0,0,0-15.514,3.45,13.688,13.688,0,0,0,1.571,3.193A38.951,38.951,0,0,1,148.623,133.9Z" transform="translate(-132.686 -130.736)"/>
            <path id="Trazado_1077459" data-name="Trazado 1077459" d="M132.69,136.823c1.47,2.2,4.055,4.565,8.13,3.529,5.026-1.279,6.158-4.519,6.236-7.005A38.95,38.95,0,0,0,132.69,136.823Z" transform="translate(-131.119 -130.179)" fill="#7c3645"/>
          </g>
        </g>
      </g>
      <g id="Grupo_1208848" data-name="Grupo 1208848" transform="translate(22)">
        <g transform="matrix(1, 0, 0, 1, 0.06, -23.74)" filter="url(#Trazado_1077461)">
          <path id="Trazado_1077461-2" data-name="Trazado 1077461" d="M190.332,80.442h53.2c3.27,0,6.758.159,6.758,4.921s.738,34.41.082,38.9c-.544,3.73-2.48,5.543-10.547,5.7s-44.478-.112-48.617,0c-2.617.071-7.522.071-7.849-5.556-.333-5.729-.243-33.093-.209-38.252C183.112,80.046,190.332,80.442,190.332,80.442Z" transform="translate(-183.17 -56.69)" fill="#bbdbef"/>
        </g>
        <path id="Trazado_1077462" data-name="Trazado 1077462" d="M204.034,122.106s.424,8.488,3.819,14.854c0,0-10.822-1.91-14.218-16.34Z" transform="translate(-152.188 -75.32)" fill="#bbdbef"/>
        <g id="Grupo_1208847" data-name="Grupo 1208847" transform="translate(17.318 8.224)">
          <g id="Grupo_1208844" data-name="Grupo 1208844" transform="translate(0 26.788)">
            <path id="Trazado_1077463" data-name="Trazado 1077463" d="M201.241,117.8c.614,0,4.438.07,5.018.008.481-.052.715-.233.735-.991s-.015-4.177,0-4.566c.009-.246.009-.707-.717-.737s-4.269-.023-4.934-.019a.643.643,0,0,0-.737.674v5c0,.307.021.636.636.636" transform="translate(-200.604 -111.494)" fill="#fff"/>
          </g>
          <g id="Grupo_1208845" data-name="Grupo 1208845" transform="translate(0 0)">
            <path id="Trazado_1077464" data-name="Trazado 1077464" d="M201.241,110.3c.614,0,4.438.07,5.018.008.481-.051.715-.233.735-.991s-.015-20.441,0-20.83c.009-.246.009-.707-.717-.737s-4.269-.023-4.934-.019a.644.644,0,0,0-.737.675v21.26c0,.307.021.634.636.634" transform="translate(-200.604 -87.732)" fill="#fff"/>
          </g>
          <g id="Grupo_1208846" data-name="Grupo 1208846" transform="translate(12.32 0)">
            <path id="Trazado_1077465" data-name="Trazado 1077465" d="M218.409,110.962a.966.966,0,0,1-1.057-1.247c.04-.222.083-4.969.133-5.171,1.095-4.463,4.584-4.138,5.344-7.824a1.957,1.957,0,0,0-1.851-2.493,2.7,2.7,0,0,0-2.907,2.531c-.114.755-.49,1.095-1.247.944l-4.305-.944a1.109,1.109,0,0,1-.981-1.247c.225-2.72,1.661-7.78,9.44-7.78,8.46,0,8.762,6.685,8.723,7.818,0,5.948-3.945,6.728-5.508,9.471-.085.148-.161,4.836-.231,5a1.253,1.253,0,0,1-1.285.944h-4.267Zm-.114,3.3a1.017,1.017,0,0,0-1.133,1.133v4.23a1.034,1.034,0,0,0,1.133,1.133h4.23a1.016,1.016,0,0,0,1.133-1.133V115.4a1,1,0,0,0-1.133-1.133Z" transform="translate(-211.533 -87.732)" fill="#fff"/>
          </g>
        </g>
      </g>
    </g>
  </g>
</svg>
