<svg xmlns="http://www.w3.org/2000/svg" xmlns:xlink="http://www.w3.org/1999/xlink" width="400" height="449" viewBox="0 0 400 449">
  <defs>
    <clipPath id="clip-path">
      <rect id="Rectángulo_415815" data-name="Rectángulo 415815" width="400" height="449" transform="translate(1038.899 2609.508)" fill="#fff" stroke="#707070" stroke-width="1"/>
    </clipPath>
    <clipPath id="clip-path-2">
      <rect id="Rectángulo_415817" data-name="Rectángulo 415817" width="521" height="522" transform="translate(0.446 0.083)" fill="none"/>
    </clipPath>
    <clipPath id="clip-path-3">
      <path id="Trazado_1043909" data-name="Trazado 1043909" d="M457.428,354.759c-18.686,7.777-95.936,39.93-117.572,119.5-22.217,81.7,18.008,172.644,97.909,209.268,9.779,4.482,34.021,1.521,56.168-1.441,16.332-2.184,31.527-4.368,38.942-3.567,76.418,8.257,115.769-12.057,153.317-75.5,36.232-61.217,46.128-157.058-10.025-219.545C642.346,345.84,597.77,335,557.644,335c-50.943,0-94.716,17.47-100.216,19.759" transform="translate(-333.793 -335)" fill="none"/>
    </clipPath>
    <clipPath id="clip-path-4">
      <rect id="Rectángulo_415818" data-name="Rectángulo 415818" width="248.333" height="311.679" fill="none"/>
    </clipPath>
    <clipPath id="clip-path-5">
      <rect id="Rectángulo_415819" data-name="Rectángulo 415819" width="356.022" height="331.528" fill="none"/>
    </clipPath>
    <clipPath id="clip-path-7">
      <rect id="Rectángulo_415820" data-name="Rectángulo 415820" width="122.512" height="53.544" fill="none"/>
    </clipPath>
    <clipPath id="clip-path-8">
      <rect id="Rectángulo_415821" data-name="Rectángulo 415821" width="182.887" height="89.075" fill="none"/>
    </clipPath>
    <clipPath id="clip-path-9">
      <rect id="Rectángulo_415824" data-name="Rectángulo 415824" width="101.826" height="104.939" fill="none"/>
    </clipPath>
    <clipPath id="clip-path-10">
      <rect id="Rectángulo_415822" data-name="Rectángulo 415822" width="21.048" height="39.296" fill="none"/>
    </clipPath>
    <clipPath id="clip-path-11">
      <rect id="Rectángulo_415823" data-name="Rectángulo 415823" width="65.523" height="104.939" fill="none"/>
    </clipPath>
  </defs>
  <g id="Enmascarar_grupo_1098830" data-name="Enmascarar grupo 1098830" transform="translate(-1038.899 -2609.508)" clip-path="url(#clip-path)">
    <g id="Grupo_1180735" data-name="Grupo 1180735" transform="translate(979.452 2588.424)">
      <g id="Grupo_1180709" data-name="Grupo 1180709" transform="translate(0 0)">
        <g id="Grupo_1180708" data-name="Grupo 1180708" transform="translate(0 0)" clip-path="url(#clip-path-2)">
          <path id="Trazado_1043906" data-name="Trazado 1043906" d="M457.429,357.289c-18.686,8.773-95.936,45.043-117.572,134.8-22.217,92.163,18.008,194.749,97.909,236.062,16.991,8.785,77.639-7.779,95.11-5.649,76.418,9.314,115.769-13.6,153.317-85.164,36.232-69.055,46.128-177.167-10.026-247.655-76.759-96.353-208.909-37.009-218.739-32.393" transform="translate(-264.292 -309.951)" fill="#e0f9fd"/>
        </g>
      </g>
      <g id="Grupo_1180717" data-name="Grupo 1180717" transform="translate(69.501 69.968)">
        <g id="Grupo_1180716" data-name="Grupo 1180716" transform="translate(0 0)" clip-path="url(#clip-path-3)">
          <g id="Grupo_1180712" data-name="Grupo 1180712" transform="translate(3.455 -3.438)" opacity="0.3">
            <g id="Grupo_1180711" data-name="Grupo 1180711">
              <g id="Grupo_1180710" data-name="Grupo 1180710" clip-path="url(#clip-path-4)">
                <path id="Trazado_1043907" data-name="Trazado 1043907" d="M563.284,318.517H446.047a218.887,218.887,0,0,1,51.314,68.84C507.851,409.6,518.9,433.021,515.7,464.306c-.974,9.525-5.635,42.912-31.367,68.231-26.676,26.247-49.48,17.733-89.956,44.539a188.857,188.857,0,0,0-44.023,40.834V630.2c15.7-21.765,31.583-33.85,41.885-40.473,57.9-37.221,110.766-12.1,168.017-58.313,6.6-5.329,12.145-9.8,18-17.213,48.258-61.12-2.446-170.112-14.966-195.68" transform="translate(-350.353 -318.518)" fill="#fff"/>
              </g>
            </g>
          </g>
          <g id="Grupo_1180715" data-name="Grupo 1180715" transform="translate(3.455 -3.438)" opacity="0.3">
            <g id="Grupo_1180714" data-name="Grupo 1180714">
              <g id="Grupo_1180713" data-name="Grupo 1180713" clip-path="url(#clip-path-5)">
                <path id="Trazado_1043908" data-name="Trazado 1043908" d="M701.283,318.517H605.807c5.046,13.178,47.279,127.8-6.533,199.024-22.894,30.3-56.995,44.574-66,48.342-57.08,23.888-94.6,1.921-141.033,31.053-21.4,13.428-34.649,31.406-41.889,42.916v10.192a128.22,128.22,0,0,1,28.824-31.115c40.632-30.982,82.479-20.845,127.516-24.945,54.587-4.969,118.513-31.276,155.394-74.3,57.625-67.221,44.426-169.647,39.2-201.17" transform="translate(-347.26 -318.517)" fill="#cbddf7"/>
              </g>
            </g>
          </g>
        </g>
      </g>
      <g id="Grupo_1180734" data-name="Grupo 1180734" transform="translate(0 0)">
        <g id="Grupo_1180733" data-name="Grupo 1180733" transform="translate(0 0)" clip-path="url(#clip-path-2)">
          <path id="Trazado_1043910" data-name="Trazado 1043910" d="M374.626,1685.168c58.935,1.675,214.779-14.147,329.952,13.674a15.2,15.2,0,0,1,10.865,19.1c-7.535,25.4-41.521,71.2-187.969,64.264-106.237-5.032-145.326-31.487-167.98-42.917-25.255-12.742-48.154-55.917,15.133-54.119" transform="translate(-264.292 -1331.163)" fill="#b9d0f2"/>
          <g id="Grupo_1180720" data-name="Grupo 1180720" transform="translate(80.945 371.948)" opacity="0.2" style="mix-blend-mode: multiply;isolation: isolate">
            <g id="Grupo_1180719" data-name="Grupo 1180719">
              <g id="Grupo_1180718" data-name="Grupo 1180718" clip-path="url(#clip-path-7)">
                <path id="Trazado_1043911" data-name="Trazado 1043911" d="M391.139,1787.615s-8.649,7.863,6.29,21.23,64.869,28.306,88.458,27.127,30.665-18.871,21.23-27.914-95.141-36.956-115.978-20.443" transform="translate(-388.649 -1782.493)" fill="#9c4176"/>
              </g>
            </g>
          </g>
          <g id="Grupo_1180723" data-name="Grupo 1180723" transform="translate(249.404 360.169)" opacity="0.2" style="mix-blend-mode: multiply;isolation: isolate">
            <g id="Grupo_1180722" data-name="Grupo 1180722">
              <g id="Grupo_1180721" data-name="Grupo 1180721" clip-path="url(#clip-path-8)">
                <path id="Trazado_1043912" data-name="Trazado 1043912" d="M1196.2,1788.1c2.337,18.271,19.054,36.05,83.267,21.873,42.158-9.308,71.268-18.925,89.453-33.894,15.62-12.858,16.815-51.085-23.437-50.026-97.326,2.561-151.68,43.3-149.283,62.047" transform="translate(-1196.127 -1726.032)" fill="#9c4176"/>
              </g>
            </g>
          </g>
          <path id="Trazado_1043913" data-name="Trazado 1043913" d="M673.291,597.256c3.471-24.461,2.31-49.628,7.125-106.012,1.49-17.438,2.88-31.034,4.305-32.663,1.517-1.734,12.26-1.544,35.516-2.257,119.77-3.676,162.261-5.286,165.26-4.287,4.237,1.412.909,10.361-.928,53.858-1.7,40.216,1.765,94.493-.354,101.555s-99.571,2.118-137.7,2.824-63.068-2.253-67.911-2.253c-3.982,0-7.553,1.75-5.308-10.765" transform="translate(-532.413 -357.422)" fill="#fff"/>
          <path id="Trazado_1043914" data-name="Trazado 1043914" d="M878.207,533.827h-11.5a3.455,3.455,0,0,1-3.455-3.455V519.1a3.455,3.455,0,0,1,3.455-3.455h11.5a3.455,3.455,0,0,1,3.455,3.455v11.268a3.455,3.455,0,0,1-3.455,3.455" transform="translate(-683.294 -407.994)" fill="#ffc73e"/>
          <path id="Trazado_1043915" data-name="Trazado 1043915" d="M900.068,531.262q-1.193.915-2.465,1.715c-.737.464-.057,1.637.685,1.171.488-.307.965-.631,1.436-.963q-.03,4.706-.237,9.408c-.039.873,1.317.871,1.356,0q.24-5.369.245-10.745c0-.466-.6-.91-1.02-.586" transform="translate(-710.227 -420.262)" fill="#fff"/>
          <path id="Trazado_1043916" data-name="Trazado 1043916" d="M871.559,679.882h-11.5a3.455,3.455,0,0,1-3.455-3.455V665.159a3.455,3.455,0,0,1,3.455-3.454h11.5a3.455,3.455,0,0,1,3.455,3.454v11.268a3.455,3.455,0,0,1-3.455,3.455" transform="translate(-678.033 -523.579)" fill="#f7582c"/>
          <path id="Trazado_1043917" data-name="Trazado 1043917" d="M889.862,686.563a8.775,8.775,0,0,1-1.721-.254,13.828,13.828,0,0,0-1.7-.18,12.924,12.924,0,0,0-2.3.122,3.132,3.132,0,0,1,.423-.733,5.622,5.622,0,0,1,1.229-1.083,11.894,11.894,0,0,0,2.691-2.133,5.127,5.127,0,0,0,1.121-3.557,3.562,3.562,0,0,0-.582-1.863,3.124,3.124,0,0,0-1.546-1.042,4.748,4.748,0,0,0-4.174.623c-.709.5-.032,1.674.685,1.171a3.282,3.282,0,0,1,3.71-.189,2.111,2.111,0,0,1,.563,1.76,3.785,3.785,0,0,1-.544,1.843,9.377,9.377,0,0,1-2.858,2.394,6.606,6.606,0,0,0-1.435,1.348,5.7,5.7,0,0,0-.915,2.136.686.686,0,0,0,.834.834,12.028,12.028,0,0,1,3.256-.268,11.144,11.144,0,0,1,1.575.2,7.4,7.4,0,0,0,1.686.23c.87-.029.874-1.385,0-1.356" transform="translate(-698.518 -534.582)" fill="#fff"/>
          <path id="Trazado_1043918" data-name="Trazado 1043918" d="M859.674,816.244h-11.5a3.455,3.455,0,0,1-3.455-3.455V801.522a3.455,3.455,0,0,1,3.455-3.455h11.5a3.455,3.455,0,0,1,3.455,3.455v11.267a3.455,3.455,0,0,1-3.455,3.455" transform="translate(-668.627 -631.492)" fill="#cdcd00"/>
          <path id="Trazado_1043919" data-name="Trazado 1043919" d="M878.3,818.319a4.2,4.2,0,0,0-1.655-1.447,4.373,4.373,0,0,0,.986-1.043,3.048,3.048,0,0,0,.3-2.875,2.971,2.971,0,0,0-2.083-1.592,6,6,0,0,0-3.334.441c-.814.295-.463,1.606.361,1.308a5.336,5.336,0,0,1,2.43-.475,1.745,1.745,0,0,1,1.4.883c.609,1.369-.98,2.451-2.006,2.937a.685.685,0,0,0,.162,1.239,3.491,3.491,0,0,1,2.191,1.2,1.975,1.975,0,0,1,.115,2.323,4.325,4.325,0,0,1-2.387,1.33,3.33,3.33,0,0,1-2.757-.517.683.683,0,0,0-.928.243.693.693,0,0,0,.243.928,4.683,4.683,0,0,0,3.873.638,5.356,5.356,0,0,0,3.2-2.047,3.329,3.329,0,0,0-.116-3.476" transform="translate(-689.43 -641.942)" fill="#fff"/>
          <path id="Trazado_1043920" data-name="Trazado 1043920" d="M861.314,951.759h-11.5a3.455,3.455,0,0,1-3.455-3.455V937.037a3.455,3.455,0,0,1,3.455-3.455h11.5a3.455,3.455,0,0,1,3.454,3.455V948.3a3.455,3.455,0,0,1-3.454,3.455" transform="translate(-669.925 -738.736)" fill="#f7582c"/>
          <path id="Trazado_1043921" data-name="Trazado 1043921" d="M878.617,954.427l-1.882-.041q-.079-3.477-.158-6.955a.684.684,0,0,0-1.264-.342q-2.305,3.7-4.422,7.518a.685.685,0,0,0,.586,1.02l3.932.086.062,2.725a.679.679,0,0,0,1.356,0q-.031-1.348-.061-2.7l1.851.041a.679.679,0,0,0,0-1.356m-5.994-.131q1.291-2.293,2.651-4.547l.1,4.607-2.755-.061" transform="translate(-689.27 -749.17)" fill="#fff"/>
          <path id="Trazado_1043922" data-name="Trazado 1043922" d="M856.229,1086.586h-11.5a3.455,3.455,0,0,1-3.455-3.454v-11.268a3.455,3.455,0,0,1,3.455-3.454h11.5a3.454,3.454,0,0,1,3.455,3.454v11.268a3.455,3.455,0,0,1-3.455,3.454" transform="translate(-665.901 -845.435)" fill="#cdcd00"/>
          <path id="Trazado_1043923" data-name="Trazado 1043923" d="M873.069,1088.148a4.024,4.024,0,0,0-3.019-.478q.022-.918.044-1.836h4.244a.678.678,0,0,0,0-1.356s-4.908-.046-5.21.064a.606.606,0,0,0-.385.557c-.016.2-.072,3.533-.072,3.533a.685.685,0,0,0,1.02.585,2.73,2.73,0,0,1,3.087.4,3.779,3.779,0,0,1,1.04,3.275,2.6,2.6,0,0,1-2,2.1,3.458,3.458,0,0,1-3.066-.429.682.682,0,0,0-.928.244.694.694,0,0,0,.243.927,4.549,4.549,0,1,0,5-7.582" transform="translate(-686.84 -858.144)" fill="#fff"/>
          <path id="Trazado_1043924" data-name="Trazado 1043924" d="M1323.523,522.585l-11.5-.357a3.455,3.455,0,0,1-3.346-3.56l.35-11.262a3.455,3.455,0,0,1,3.561-3.346l11.495.357a3.455,3.455,0,0,1,3.346,3.56l-.35,11.262a3.454,3.454,0,0,1-3.56,3.346" transform="translate(-1035.795 -398.82)" fill="#f7582c"/>
          <path id="Trazado_1043925" data-name="Trazado 1043925" d="M1343.163,524.276a4.1,4.1,0,0,0-5.323-.8,3.49,3.49,0,0,1,1.977-1.958c.794-.215,2.15-.1,2.552.731.38.786,1.571.138,1.192-.648a3.269,3.269,0,0,0-3.138-1.507,4.015,4.015,0,0,0-3.155,1.735,7.6,7.6,0,0,0-1.307,3.54,8.578,8.578,0,0,0-.157,2.069,9.891,9.891,0,0,0,.372,1.924,3.543,3.543,0,0,0,2.49,2.376,3.455,3.455,0,0,0,3.524-.657,5.9,5.9,0,0,0,1.238-1.4,5.267,5.267,0,0,0,.577-1.872,4.693,4.693,0,0,0-.841-3.536m-1.353,5.275a2.413,2.413,0,0,1-2.218,1.036,2.768,2.768,0,0,1-2.023-1.287,4.007,4.007,0,0,1-.106-3.524c.79-1.451,2.994-2.181,4.307-1.021a3.547,3.547,0,0,1,.04,4.8" transform="translate(-1057.249 -411.512)" fill="#fff"/>
          <path id="Trazado_1043926" data-name="Trazado 1043926" d="M1315.983,670.137l-11.495-.357a3.455,3.455,0,0,1-3.346-3.56l.35-11.262a3.455,3.455,0,0,1,3.56-3.346l11.495.357a3.455,3.455,0,0,1,3.346,3.56l-.35,11.262a3.455,3.455,0,0,1-3.561,3.346" transform="translate(-1029.829 -515.59)" fill="#ffc73e"/>
          <path id="Trazado_1043927" data-name="Trazado 1043927" d="M1338.069,671.688l.01-1.726s0-.007,0-.011a.643.643,0,0,0-.63-.73l-5.884-.183a.678.678,0,0,0-.042,1.355l5.2.161,0,.516c0,.22.044.53.026.778-.093.043-.2.082-.271.126-.192.117-.375.25-.555.385a6.632,6.632,0,0,0-.852.759,7.244,7.244,0,0,0-1.3,1.912,13.129,13.129,0,0,0-1.2,5.277.678.678,0,0,0,1.355.042,11.523,11.523,0,0,1,.515-3.151,8.009,8.009,0,0,1,1.153-2.606,5.878,5.878,0,0,1,1.973-1.657c.5-.28.5-.734.507-1.248" transform="translate(-1053.371 -529.381)" fill="#fff"/>
          <path id="Trazado_1043928" data-name="Trazado 1043928" d="M1313.1,814.27l-11.5-.357a3.454,3.454,0,0,1-3.346-3.56l.35-11.262a3.455,3.455,0,0,1,3.56-3.346l11.5.357a3.455,3.455,0,0,1,3.346,3.56l-.35,11.262a3.455,3.455,0,0,1-3.56,3.346" transform="translate(-1027.551 -629.653)" fill="#cdcd00"/>
          <path id="Trazado_1043929" data-name="Trazado 1043929" d="M1329.7,817.439a9.552,9.552,0,0,0-2.245-1.578,4.067,4.067,0,0,0,1.461-1.38,2.858,2.858,0,0,0-.273-3.491,3.724,3.724,0,0,0-3.636-.5,2.831,2.831,0,0,0-1.827,3.115,3.866,3.866,0,0,0,1.518,2.417c-.093.053-.187.106-.279.159a4.791,4.791,0,0,0-2.5,2.542,3.029,3.029,0,0,0,.876,3.163,5.369,5.369,0,0,0,3.59.944,6.055,6.055,0,0,0,2.113-.462,3.8,3.8,0,0,0,1.343-1.009,3.027,3.027,0,0,0,.672-2.036,2.4,2.4,0,0,0-.812-1.886m-2.71-5.779a1.11,1.11,0,0,1,.988.975,1.848,1.848,0,0,1-.438,1.5,3.558,3.558,0,0,1-1.541,1.123c-.02,0-.038,0-.057,0A2.607,2.607,0,0,1,1324.5,813c.095-1.21,1.495-1.538,2.491-1.335m2.1,8.266c-.11.568-.717.971-1.219,1.2a4.14,4.14,0,0,1-1.767.345,6.174,6.174,0,0,1-1.943-.317,1.671,1.671,0,0,1-.81-2.359,3.178,3.178,0,0,1,1.2-1.111c.525-.329,1.073-.621,1.605-.938a8.07,8.07,0,0,1,2.6,1.668,1.461,1.461,0,0,1,.325,1.511" transform="translate(-1046.168 -641.125)" fill="#fff"/>
          <path id="Trazado_1043930" data-name="Trazado 1043930" d="M987.453,675.182c.06-.871-1.3-.867-1.356,0q-.171,2.49-.2,4.985a3.586,3.586,0,0,0-4.066,2.1,4.507,4.507,0,0,0-.334,2.949,3.041,3.041,0,0,0,1.791,1.943,3.628,3.628,0,0,0,2.779-.075c0,.075.008.15.013.225.057.866,1.413.873,1.356,0a90.473,90.473,0,0,1,.02-12.125m-1.573,10.491a2.36,2.36,0,0,1-2.287.136,1.776,1.776,0,0,1-.832-1.926,3,3,0,0,1,1.064-2.043,2.008,2.008,0,0,1,1.978-.292c.027.012.055.021.082.031q0,2.025.1,4.048a.718.718,0,0,0-.1.046" transform="translate(-776.773 -533.728)" fill="#f7582c"/>
          <path id="Trazado_1043931" data-name="Trazado 1043931" d="M1024.4,701.4a2.635,2.635,0,0,0-2.247-.294,3.262,3.262,0,0,0-1.366,1.179,4.493,4.493,0,0,0-.419,4.019,3.086,3.086,0,0,0,3.469,1.919,3.122,3.122,0,0,0,2.412-3.031,4.356,4.356,0,0,0-1.849-3.792m-.753,5.474a1.709,1.709,0,0,1-2-1.011,3.212,3.212,0,0,1,.013-2.32c.467-1.008,1.292-1.4,1.98-1.018a2.894,2.894,0,0,1,1.252,2.36,1.824,1.824,0,0,1-1.242,1.99" transform="translate(-807.4 -554.655)" fill="#f7582c"/>
          <path id="Trazado_1043932" data-name="Trazado 1043932" d="M1058.27,701.73c-.578-.365-1.744-.473-1.7-1.385a.777.777,0,0,1,.588-.711.7.7,0,0,1,.755.421.685.685,0,0,0,.928.243.692.692,0,0,0,.243-.928,2.032,2.032,0,0,0-2.459-.988,2.159,2.159,0,0,0-1.35,2.505,2.237,2.237,0,0,0,.747,1.211,5.618,5.618,0,0,0,1.3.663.922.922,0,0,1,.613.706.991.991,0,0,1-.342.9,1.715,1.715,0,0,1-2.353-.391c-.6-.639-1.554.321-.959.959a3.264,3.264,0,0,0,2.715,1.093,2.59,2.59,0,0,0,2.2-1.717,2.252,2.252,0,0,0-.926-2.576" transform="translate(-834.323 -552.514)" fill="#f7582c"/>
          <path id="Trazado_1043933" data-name="Trazado 1043933" d="M968.748,972.507a3.6,3.6,0,0,1-2.509,1.327,2.037,2.037,0,0,1-1.981-1.213,4.2,4.2,0,0,1,0-2.6,4.585,4.585,0,0,1,1.349-2.462c.548-.442,1.662-.677,2.162-.022a.7.7,0,0,0,.928.243.683.683,0,0,0,.243-.928,2.807,2.807,0,0,0-3.27-.866,4.635,4.635,0,0,0-2.5,2.962,6.389,6.389,0,0,0-.314,3.733,3.329,3.329,0,0,0,2.694,2.451,4.71,4.71,0,0,0,4.159-1.666c.59-.642-.367-1.6-.959-.959" transform="translate(-761.992 -764.22)" fill="#f7582c"/>
          <path id="Trazado_1043934" data-name="Trazado 1043934" d="M1011.724,967.673c0-.742-1.184-.951-1.332-.18a26.847,26.847,0,0,0-.38,2.722,8.615,8.615,0,0,1-.38,1.063,9.3,9.3,0,0,1-.98,1.705,2.605,2.605,0,0,1-1.235,1.077c-1.117.307-1.339-1.516-1.357-2.216a41.935,41.935,0,0,1,.3-4.456.684.684,0,0,0-.678-.678.692.692,0,0,0-.678.678c-.111,1.362-.283,2.735-.3,4.1a4.5,4.5,0,0,0,1.033,3.343,2.289,2.289,0,0,0,3.189-.126,5.9,5.9,0,0,0,1.009-1.159q.018.445.052.889a.7.7,0,0,0,.678.678.736.736,0,0,0,.678-.678c.157-1.357.385-5.826.384-6.764" transform="translate(-795.233 -764.953)" fill="#f7582c"/>
          <path id="Trazado_1043935" data-name="Trazado 1043935" d="M1054.352,970.958q-.019-.719,0-1.438c.021-.862.089-1.721.187-2.578a.569.569,0,0,0,.006-.058c.009-.077.014-.155.023-.232a4.052,4.052,0,0,0-1.552-2.17,2.985,2.985,0,0,0-2.352-.277,4.329,4.329,0,0,0-2.939,3.253c-.377,1.446-.481,3.277.633,4.436a2.441,2.441,0,0,0,1.974.779,4.319,4.319,0,0,0,2.084-1.048,4.662,4.662,0,0,0,.586-.552c.007.214.013.428.025.642.026.492-.036,1.193.493,1.445a.687.687,0,0,0,.685,0l.033-.023a.679.679,0,0,0,.336-.586c-.015-.153-.215-1.366-.221-1.593m-2.13-1.048a4.14,4.14,0,0,1-1.2,1.044,1.318,1.318,0,0,1-1.308.28c-1.01-.484-.968-1.873-.812-2.8a3.546,3.546,0,0,1,1.588-2.706,2.025,2.025,0,0,1,1.6-.241,2.5,2.5,0,0,1,1.05,1.511,7.069,7.069,0,0,1-.916,2.916" transform="translate(-829.075 -762.876)" fill="#f7582c"/>
          <path id="Trazado_1043936" data-name="Trazado 1043936" d="M1095.261,941.763a2.981,2.981,0,0,1-1.78.231c-.594-.2-.568-.715-.566-1.256q.007-2.15.126-4.3c0-.028,0-.055.006-.082.235-.007.47-.023.7-.052a.742.742,0,0,0,.48-.2.689.689,0,0,0,.2-.479c-.015-.331-.3-.724-.678-.678-.2.025-.407.039-.611.048q.256-3.561.808-7.092a.7.7,0,0,0-.474-.834.683.683,0,0,0-.834.474q-.582,3.677-.857,7.391c-.208-.036-.415-.074-.621-.123a.678.678,0,1,0-.36,1.308,8.763,8.763,0,0,0,.9.162c-.022.382-.05.764-.067,1.147q-.053,1.239-.07,2.48a5.149,5.149,0,0,0,.235,2.348c.724,1.464,2.552,1.214,3.82.813.829-.262.475-1.572-.361-1.308" transform="translate(-862.981 -733.567)" fill="#f7582c"/>
          <path id="Trazado_1043937" data-name="Trazado 1043937" d="M1130.872,962.222a.686.686,0,0,0-.834.474s-.443-.012-.487-.02c-.1-.018-.2-.036-.3-.05a4.626,4.626,0,0,0-.72-.064,2.7,2.7,0,0,0-1.09.244c0-.153,0-.307,0-.46a.678.678,0,0,0-1.356,0q0,3.695-.214,7.384c-.051.872,1.3.869,1.356,0q.15-2.548.193-5.1a.77.77,0,0,1,.637-.631,3.687,3.687,0,0,1,.965-.046,3.04,3.04,0,0,0,1.384.066,1.3,1.3,0,0,0,.937-.963.7.7,0,0,0-.474-.834" transform="translate(-891.125 -760.981)" fill="#f7582c"/>
          <path id="Trazado_1043938" data-name="Trazado 1043938" d="M1164.407,966.666c-.158-1.561-.9-3.333-2.682-3.508a3.281,3.281,0,0,0-3.3,2.67c-.325,1.626-.6,3.434.614,4.766a2.88,2.88,0,0,0,3.985.156,4.572,4.572,0,0,0,1.385-4.084m-1.976,2.784a1.622,1.622,0,0,1-2.257.361,2.646,2.646,0,0,1-.661-2.513c.3-1.615.728-2.563,1.833-2.776,1.086-.21,1.569,1.157,1.687,1.98a3.729,3.729,0,0,1-.6,2.949" transform="translate(-916.666 -762.136)" fill="#f7582c"/>
          <path id="Trazado_1043939" data-name="Trazado 1043939" d="M981.519,1101.245a2.665,2.665,0,0,1-3.041.271,2.787,2.787,0,0,1-1.233-2.932,5.015,5.015,0,0,1,1.612-3.395,1.793,1.793,0,0,1,1.456-.353,1.214,1.214,0,0,1,.936.945.7.7,0,0,0,.678.678.683.683,0,0,0,.678-.678,2.627,2.627,0,0,0-2.694-2.343,3.876,3.876,0,0,0-3.192,2.26,7.215,7.215,0,0,0-.8,4.374,4.035,4.035,0,0,0,2.3,2.827,4.077,4.077,0,0,0,4.262-.7c.664-.568-.3-1.524-.959-.959" transform="translate(-772.387 -865.242)" fill="#cdcd00"/>
          <path id="Trazado_1043940" data-name="Trazado 1043940" d="M1015.887,1093.947l-.649,8.207c-.069.87,1.288.866,1.356,0l.648-8.207c.069-.87-1.288-.865-1.356,0" transform="translate(-803.57 -865.13)" fill="#cdcd00"/>
          <path id="Trazado_1043941" data-name="Trazado 1043941" d="M1021.027,1079.329a.7.7,0,0,0-.62-.417l-.18.024a.681.681,0,0,0-.3.174l-.106.137a.673.673,0,0,0-.092.342v.142a.759.759,0,0,0,.2.479.755.755,0,0,0,.48.2l.18-.024a.677.677,0,0,0,.3-.174l.106-.137a.676.676,0,0,0,.093-.342v-.142a.511.511,0,0,0-.058-.261" transform="translate(-807.126 -853.747)" fill="#cdcd00"/>
          <path id="Trazado_1043942" data-name="Trazado 1043942" d="M1039.347,1100.767a1.22,1.22,0,0,1-.067-.136,2.206,2.206,0,0,1-.04-.667,17.128,17.128,0,0,1,.158-1.822,7.818,7.818,0,0,0,.007-3.43,2.485,2.485,0,0,0-2.283-1.6,4.615,4.615,0,0,0-2.569.8c.011-.214.025-.427.035-.641.042-.872-1.314-.87-1.356,0q-.2,4.184-.611,8.353a.682.682,0,0,0,.678.678.693.693,0,0,0,.678-.678q.305-3.094.494-6.2a.647.647,0,0,0,.356-.1,3.517,3.517,0,0,1,2.536-.812c1.02.261.889,1.405.828,2.245-.085,1.168-.331,2.324-.308,3.5.017.915.534,2.154,1.672,1.844a.683.683,0,0,0-.208-1.333" transform="translate(-817.327 -864.592)" fill="#cdcd00"/>
          <path id="Trazado_1043943" data-name="Trazado 1043943" d="M1078.744,1100.011c-1.078.685-2.39,1.48-3.589.589a3.61,3.61,0,0,1-1.328-2.87,4.4,4.4,0,0,1,1.113-3.048,1.8,1.8,0,0,1,1.393-.681.953.953,0,0,1,.894.695c.2.85,1.506.49,1.308-.36a2.386,2.386,0,0,0-2.808-1.641,4.191,4.191,0,0,0-2.781,2.638c-.954,2.258-.474,5.4,1.859,6.646,1.607.854,3.224.09,4.622-.8.735-.467.055-1.641-.685-1.171" transform="translate(-848.876 -864.619)" fill="#cdcd00"/>
          <path id="Trazado_1043944" data-name="Trazado 1043944" d="M1116.958,1095.636a3.429,3.429,0,0,0-2.822.544,4.166,4.166,0,0,0-1.453,1.788c-.544,1.863-.637,4.178.888,5.681a3.827,3.827,0,0,0,4.643.375c3.062-1.992,2.5-7.547-1.256-8.388m.754,7.085a2.538,2.538,0,0,1-3,.135c-1.073-.8-1.082-2.254-.9-3.53a2.538,2.538,0,0,1,2.656-2.408,3.035,3.035,0,0,1,2.358,2.672,3.448,3.448,0,0,1-1.118,3.132" transform="translate(-880.402 -866.908)" fill="#cdcd00"/>
          <path id="Trazado_1043945" data-name="Trazado 1043945" d="M1436.923,530.914c-.471-.272-1-.426-1.454-.734-.5-.341-.473-.7-.272-1.229a2.151,2.151,0,0,1,.982-1.307c.265-.1.758-.073.848.248.233.838,1.553.524,1.318-.32a1.975,1.975,0,0,0-2.651-1.186,2.849,2.849,0,0,0-1.333,1.192,4.324,4.324,0,0,0-.678,1.857c-.093,1.374,1.163,1.968,2.205,2.465.425.2.882.454.938.971a1.286,1.286,0,0,1-.55,1.176c-1.179.808-2.593-.08-3.408-.97-.591-.645-1.579.285-.988.929a4.69,4.69,0,0,0,3.266,1.7,2.943,2.943,0,0,0,2.861-1.763,2.422,2.422,0,0,0-1.084-3.025" transform="translate(-1133.149 -416.374)" fill="#f7582c"/>
          <path id="Trazado_1043946" data-name="Trazado 1043946" d="M1479.089,530.4a6.829,6.829,0,0,0-.4-1.179,2.793,2.793,0,0,0-1.851-1.587,3.635,3.635,0,0,0-4.037,2.4,5.105,5.105,0,0,0,.315,4.441,4.331,4.331,0,0,0,1.984,1.833,3.659,3.659,0,0,0,3.071-.381c.79-.372.141-1.563-.648-1.192a2.351,2.351,0,0,1-1.915.321,2.825,2.825,0,0,1-1.222-1.1,4.965,4.965,0,0,1-.574-1.834c.142-.025,1.121,0,1.389.023l1.535.124c.772.063,1.876.3,2.344-.531a1.743,1.743,0,0,0,.011-1.34m-3.994.379a5,5,0,0,0-1.125-.015,2.381,2.381,0,0,1,2.464-1.834,1.563,1.563,0,0,1,1.115,1.063,6.444,6.444,0,0,1,.263.891.9.9,0,0,1,.018.109h-.04c-.889.009-1.808-.143-2.695-.215" transform="translate(-1165.384 -417.412)" fill="#f7582c"/>
          <path id="Trazado_1043947" data-name="Trazado 1043947" d="M1481.07,549.257h-.005c-.014.021-.013.028.005,0" transform="translate(-1172.209 -434.59)" fill="#f7582c"/>
          <path id="Trazado_1043948" data-name="Trazado 1043948" d="M1513.948,529.74c-.291,2.724-.421,4.65-.555,7.386a.678.678,0,0,0,1.355.042c.135-2.736.265-4.661.556-7.385.093-.868-1.263-.906-1.356-.042" transform="translate(-1197.799 -418.647)" fill="#f7582c"/>
          <path id="Trazado_1043949" data-name="Trazado 1043949" d="M1517.589,516.752a.678.678,0,0,0-.042,1.355.678.678,0,0,0,.042-1.355" transform="translate(-1200.586 -408.866)" fill="#f7582c"/>
          <path id="Trazado_1043950" data-name="Trazado 1043950" d="M1533.689,534.382a11.846,11.846,0,0,0-1.645-.818c-.445-.211-.724-.456-.711-.921a1.082,1.082,0,0,1,1.929-.544c.6.631,1.593-.3.989-.929a2.623,2.623,0,0,0-3.194-.489,2.37,2.37,0,0,0-.848,3c.573,1.169,2.059,1.223,2.972,2a1.288,1.288,0,0,1,.517,1.188c-.119.472-.737.642-1.147.747a2.656,2.656,0,0,1-2.9-.636.682.682,0,0,0-.958-.03.7.7,0,0,0-.03.959,3.418,3.418,0,0,0,2.948,1.206c1.117-.046,2.6-.355,3.2-1.412a2.6,2.6,0,0,0-1.119-3.33" transform="translate(-1209.745 -419.619)" fill="#f7582c"/>
          <path id="Trazado_1043951" data-name="Trazado 1043951" d="M1423.565,679.862c-.863-.854-2.406-.968-2.94-2.149a1.216,1.216,0,0,1,.325-1.5.713.713,0,0,1,1.052.308c.248.832,1.569.52,1.318-.32a2.077,2.077,0,0,0-2.966-1.207,2.578,2.578,0,0,0-.894,3.423,3.49,3.49,0,0,0,1.356,1.394,12.039,12.039,0,0,1,1.667.894,1.573,1.573,0,0,1-.459,2.575,2.572,2.572,0,0,1-3.268-1.321.679.679,0,0,0-1.192.648,4.259,4.259,0,0,0,3.054,2.208,3.355,3.355,0,0,0,3.273-1.439,2.9,2.9,0,0,0-.326-3.511" transform="translate(-1121.891 -533.895)" fill="#ffc73e"/>
          <path id="Trazado_1043952" data-name="Trazado 1043952" d="M1461.306,677.211a.694.694,0,0,0-.7.657q-.473,3.36-.65,6.75a3.319,3.319,0,0,0,.029,1.333.683.683,0,0,0,1.274-.3q.16-3.885.7-7.739a.683.683,0,0,0-.657-.7" transform="translate(-1155.471 -535.849)" fill="#ffc73e"/>
          <path id="Trazado_1043953" data-name="Trazado 1043953" d="M1463.556,664.108a.51.51,0,0,0-.133-.222l-.134-.11a.678.678,0,0,0-.339-.1l-.181.018a.679.679,0,0,0-.3.165l-.146.137a.656.656,0,0,0-.163.736.5.5,0,0,0,.133.222l.134.11a.678.678,0,0,0,.339.1l.181-.019a.676.676,0,0,0,.3-.165l.146-.137a.657.657,0,0,0,.163-.736" transform="translate(-1157.211 -525.135)" fill="#ffc73e"/>
          <path id="Trazado_1043954" data-name="Trazado 1043954" d="M1482.73,681.95a3.317,3.317,0,0,0-3.916.419,4.963,4.963,0,0,0,.37,7.082,3.971,3.971,0,0,0,4.084.367c.78-.391.133-1.583-.648-1.192a2.545,2.545,0,0,1-2.3-.062,2.664,2.664,0,0,1-1.323-1.869l4.7-.6a.659.659,0,0,0,.488-.459,3.318,3.318,0,0,0-1.451-3.691m-1.209.955a1.92,1.92,0,0,1,1.424,1.93l-4.037.511c.152-1.393,1.007-2.865,2.612-2.442" transform="translate(-1169.399 -539.243)" fill="#ffc73e"/>
          <path id="Trazado_1043955" data-name="Trazado 1043955" d="M1520.51,655.267a.694.694,0,0,0-.92-.272c-.733.3-1.531.56-2.236.925-.171.089-.153-.006-.185-.251a9.324,9.324,0,0,1-.035-.981q-.056-2.335.042-4.671l.9.038a.678.678,0,1,0,.042-1.356l-.868-.037a70.227,70.227,0,0,1,.964-8.122.7.7,0,0,0-.448-.849.683.683,0,0,0-.848.448,73.576,73.576,0,0,0-1.023,8.465l-.139-.006c-.119-.005-.238-.008-.357-.015l-.045,0-.009,0a.667.667,0,0,0-.852.051.686.686,0,0,0-.03.959,1.4,1.4,0,0,0,.939.353c.143.007.286.013.429.018-.041.983-.069,1.966-.07,2.949q0,1.076.032,2.151a3.058,3.058,0,0,0,.345,1.68,1.435,1.435,0,0,0,1.833.39c.761-.3,1.513-.628,2.27-.942a.683.683,0,0,0,.272-.92" transform="translate(-1198.5 -506.138)" fill="#ffc73e"/>
          <path id="Trazado_1043956" data-name="Trazado 1043956" d="M1556.714,684.6a2.692,2.692,0,0,0,.234-1.25,2.3,2.3,0,0,0-.31-1.263,2.645,2.645,0,0,0-1.911-1.169,3.7,3.7,0,0,0-3.792,2.464,4.687,4.687,0,0,0,.682,4.52,3.36,3.36,0,0,0,4.733.833.684.684,0,0,0,.03-.959.693.693,0,0,0-.959-.03,1.959,1.959,0,0,1-2.565-.477,3.338,3.338,0,0,1-.87-2.323l2.547.262c.79.081,1.723.216,2.18-.61m-4.4-.979a2.427,2.427,0,0,1,1.69-1.346,1.565,1.565,0,0,1,1.243.257,1.246,1.246,0,0,1,.312,1.289.6.6,0,0,1-.023.1.882.882,0,0,1-.253,0c-.376-.024-.751-.075-1.126-.113l-1.843-.19" transform="translate(-1227.269 -538.761)" fill="#ffc73e"/>
          <path id="Trazado_1043957" data-name="Trazado 1043957" d="M1420.972,839.852a4.956,4.956,0,0,0-3.475-3.51,3.476,3.476,0,0,0-3.95,2.629,4.942,4.942,0,0,0,1.212,4.957,3.666,3.666,0,0,0,4.563.415,4.221,4.221,0,0,0,1.651-4.491M1418.847,843a2.4,2.4,0,0,1-3,.091,3.265,3.265,0,0,1-1.083-3.38,2.3,2.3,0,0,1,2.074-2.1,3.433,3.433,0,0,1,2.717,2.237,2.938,2.938,0,0,1-.71,3.156" transform="translate(-1118.61 -661.722)" fill="#cdcd00"/>
          <path id="Trazado_1043958" data-name="Trazado 1043958" d="M1464.689,844.623a.683.683,0,0,0-.92-.272,2.729,2.729,0,0,1-3.646-.73,3.965,3.965,0,0,1,.17-4.51c.682-.856,1.737-.372,2.561,0a.682.682,0,0,0,.849-.448.7.7,0,0,0-.448-.848c-1.147-.513-2.449-.863-3.538-.024a4.654,4.654,0,0,0-1.5,2.981,4.566,4.566,0,0,0,2.911,5.155,3.8,3.8,0,0,0,3.288-.379.7.7,0,0,0,.272-.92" transform="translate(-1154.089 -662.527)" fill="#cdcd00"/>
          <path id="Trazado_1043959" data-name="Trazado 1043959" d="M1504.08,821.733a.858.858,0,0,1-.613-.586,2.382,2.382,0,0,1,.037-1.421,5.924,5.924,0,0,0,.359-3.192,2.7,2.7,0,0,0-2.026-1.861,2.625,2.625,0,0,0-1.958.4q.19-3.081.185-6.171c0-.871-1.358-.917-1.355-.042a95.212,95.212,0,0,1-.906,13.39.683.683,0,0,0,.657.7.693.693,0,0,0,.7-.657q.384-2.765.6-5.548a2.07,2.07,0,0,1,2.348-.491,1.943,1.943,0,0,1,.355,2.152,5.644,5.644,0,0,0-.346,2.968,2.255,2.255,0,0,0,1.919,1.718.684.684,0,0,0,.7-.656.691.691,0,0,0-.657-.7" transform="translate(-1185.459 -639.53)" fill="#cdcd00"/>
          <path id="Trazado_1043960" data-name="Trazado 1043960" d="M1545.134,839.821a3.587,3.587,0,0,0-1.541-1.991,3.506,3.506,0,0,0-2.452-.38,3.271,3.271,0,0,0-2.61,2.485,4.394,4.394,0,0,0,1.288,4.53,3.412,3.412,0,0,0,4.4-.106,4.477,4.477,0,0,0,.913-4.538m-1.618,3.289a1.953,1.953,0,0,1-2.583.472,2.437,2.437,0,0,1-1.15-1.625,2.556,2.556,0,0,1,1.377-3.108,2.108,2.108,0,0,1,1.467.015,2.033,2.033,0,0,1,1.1,1.076,3.289,3.289,0,0,1-.214,3.169" transform="translate(-1217.573 -662.6)" fill="#cdcd00"/>
          <path id="Trazado_1043961" data-name="Trazado 1043961" d="M978.721,808.1a4.086,4.086,0,0,1-1.75.725c-.4.059-1.079.128-1.336-.279a4.2,4.2,0,0,1-.342-1.886,14.812,14.812,0,0,1,.076-2.174c.042-.421.1-.841.153-1.261q1.044-.037,2.088-.058a.678.678,0,1,0,0-1.356c-.628.012-1.256.031-1.884.052.094-.59.19-1.179.281-1.768q.345-2.237.689-4.475a.7.7,0,0,0-.474-.834.683.683,0,0,0-.834.474q-.408,2.652-.816,5.3c-.069.451-.143.9-.215,1.355-.414.018-.828.034-1.242.057a.678.678,0,0,0,0,1.356c.345-.019.691-.031,1.037-.047a23.31,23.31,0,0,0-.218,2.331,11.457,11.457,0,0,0,.184,2.581,2.345,2.345,0,0,0,1.028,1.711c1.281.739,3.143.145,4.26-.636.71-.5.033-1.672-.685-1.171" transform="translate(-769.7 -628.876)" fill="#cdcd00"/>
          <path id="Trazado_1043962" data-name="Trazado 1043962" d="M1020.931,826.835a.691.691,0,0,0-.928.243h0a.8.8,0,0,0-.1.021c-.078,0-.653-.072-.785-.085a2.271,2.271,0,0,0-.639.033,2.547,2.547,0,0,0-1.033.471c0-.184.01-.368.014-.552a.679.679,0,0,0-1.356,0c-.048,2.305-.243,7.008-.258,7.063a.684.684,0,0,0,.474.834l.047.008a.686.686,0,0,0,.66-.175,1.4,1.4,0,0,0,.243-.949q.018-.505.035-1.01.031-.937.058-1.875c.015-.513.025-1.027.038-1.54.48-1.156,2.013-.906,2.144-.889a1.9,1.9,0,0,0,.48.011,1.461,1.461,0,0,0,1.151-.682.687.687,0,0,0-.244-.928" transform="translate(-804.034 -653.845)" fill="#cdcd00"/>
          <path id="Trazado_1043963" data-name="Trazado 1043963" d="M1081.017,829.172a3.417,3.417,0,0,0-1.225-.545c-.346-.1-.651-.127-.671-.517a1.519,1.519,0,0,1,.434-1.23.727.727,0,0,1,.929-.051c.638.594,1.6-.362.959-.959a2.1,2.1,0,0,0-2.847.051,2.808,2.808,0,0,0-.636,3.039,1.872,1.872,0,0,0,1.158.882,3.517,3.517,0,0,1,1.076.4,1.393,1.393,0,0,1-1.461,2.368c-.772-.4-1.459.766-.685,1.171a2.794,2.794,0,0,0,4.076-2.2,2.892,2.892,0,0,0-1.108-2.4" transform="translate(-853.01 -653.075)" fill="#cdcd00"/>
          <path id="Trazado_1043964" data-name="Trazado 1043964" d="M1048.777,829.119a2.442,2.442,0,0,0-2.018-1.079,3.766,3.766,0,0,0-3.407,1.92,5.066,5.066,0,0,0-.483,2.486,3.314,3.314,0,0,0,.633,2.247,3.463,3.463,0,0,0,4.767.722.682.682,0,0,0,0-.959.694.694,0,0,0-.959,0,2.061,2.061,0,0,1-2.553-.414,1.545,1.545,0,0,1-.525-1.242c-.009-.28-.015-.563,0-.845l2.716-.031c.743-.009,1.994.213,2.241-.739a2.932,2.932,0,0,0-.41-2.065m-1.1,1.439-1.128.013-1.991.023a2.434,2.434,0,0,1,1.7-1.176,1.583,1.583,0,0,1,1.17.183,1.383,1.383,0,0,1,.428.946c-.061,0-.12.01-.175.011" transform="translate(-825.439 -655.208)" fill="#cdcd00"/>
          <path id="Trazado_1043965" data-name="Trazado 1043965" d="M985.431,561.331a17.725,17.725,0,0,0,.061-2.045.679.679,0,0,0-1.356,0c-.035.657-.052,1.314-.06,1.971a5.807,5.807,0,0,1-.233,1.111c-.217.674-.731,1.644-1.505,1.764a1.039,1.039,0,0,1-.863-.327,2.223,2.223,0,0,1-.571-1.083,9.747,9.747,0,0,1-.171-3.191.684.684,0,0,0-.678-.678.692.692,0,0,0-.678.678,12.336,12.336,0,0,0,.129,3.132,3.587,3.587,0,0,0,1.407,2.419,2.3,2.3,0,0,0,2.666-.051,3.651,3.651,0,0,0,.559-.5c0,.061,0,.122.008.182a.693.693,0,0,0,.678.678.685.685,0,0,0,.678-.678c-.063-1.127-.084-2.255-.07-3.383" transform="translate(-775.156 -442.009)" fill="#ffc73e"/>
          <path id="Trazado_1043966" data-name="Trazado 1043966" d="M1023.988,562.184c-.228-.083-.356-.511-.41-.77a4.938,4.938,0,0,1-.034-1.247,5.163,5.163,0,0,0-.328-2.705,2.614,2.614,0,0,0-2.317-1.206,3.26,3.26,0,0,0-1.4.313.678.678,0,0,0-1.346.084q.063,3.075.125,6.151a.679.679,0,0,0,1.356,0q-.047-2.315-.094-4.63a1.913,1.913,0,0,1,1.574-.552,1.3,1.3,0,0,1,.834.371,1.549,1.549,0,0,1,.263.866c.058.808-.1,1.616-.015,2.422a2.434,2.434,0,0,0,1.432,2.213.684.684,0,0,0,.834-.474.693.693,0,0,0-.474-.834" transform="translate(-805.878 -439.925)" fill="#ffc73e"/>
          <path id="Trazado_1043967" data-name="Trazado 1043967" d="M1058.9,559.768a4.135,4.135,0,0,0-.641-2.058,3.137,3.137,0,0,0-1.611-1.163,2.892,2.892,0,0,0-3.412,1.759,4.308,4.308,0,0,0,.3,4.216,3.063,3.063,0,0,0,3.735.964,3.556,3.556,0,0,0,1.633-3.718m-2.018,2.375a1.626,1.626,0,0,1-2.111-.251,2.561,2.561,0,0,1-.447-2.682c.3-.851,1.025-1.521,1.73-1.415a1.706,1.706,0,0,1,.979.543,2.2,2.2,0,0,1,.477,1.181,2.722,2.722,0,0,1-.628,2.623" transform="translate(-833.322 -440.276)" fill="#ffc73e"/>
          <path id="Trazado_1043968" data-name="Trazado 1043968" d="M1566.359,767.575c-2.943-9.27-8.1-18.209-15.429-24.693s-17.4-10.361-27.245-8.62c-4.442.785-9.4,3.269-9.971,8.276a7.181,7.181,0,0,0,.709,3.879,8.826,8.826,0,0,0-.86-.854c-.152-.131-.385.119-.24.261,3.29,3.229,3.285,8.36,1.719,12.423-1.81,4.7-5.636,8.311-8.69,12.194-2.985,3.8-5.694,8.43-5.226,13.442.46,4.924,3.807,8.88,6.579,12.737a23.275,23.275,0,0,1,3.751,7.155,10.092,10.092,0,0,1-.6,7.341c-2.093,4.258-6.829,8.149-5.68,13.41.981,4.491,6.348,6.13,10.224,7.118a39.545,39.545,0,0,0,14.153.927,42.686,42.686,0,0,0,24.841-11.771,48.952,48.952,0,0,0,13.292-23.477,55.457,55.457,0,0,0-1.327-29.749" transform="translate(-1188.051 -580.668)" fill="#770e42"/>
          <path id="Trazado_1043969" data-name="Trazado 1043969" d="M1560.392,742.882c-7.345-6.5-17.4-10.361-27.245-8.62-4.442.785-9.4,3.269-9.971,8.276a7.185,7.185,0,0,0,.709,3.879,8.816,8.816,0,0,0-.86-.854c-.152-.131-.385.119-.24.261,3.29,3.229,3.285,8.36,1.719,12.423-1.743,4.522-5.353,8.041-8.345,11.763a21.229,21.229,0,0,0-2.457,4.756,12.715,12.715,0,0,0-.306,7.129c1.221,5.155,4.867,9.145,7.43,13.642a18.022,18.022,0,0,1,2.453,7.084,15.8,15.8,0,0,1-.869,6.877,15.309,15.309,0,0,1-3.671,5.75c-.812.8-1.692,1.533-2.537,2.3-1.269,2.132-2.129,4.389-1.563,6.978.981,4.491,6.348,6.13,10.224,7.118a39.546,39.546,0,0,0,14.154.927,42.687,42.687,0,0,0,24.84-11.771,48.948,48.948,0,0,0,13.292-23.477,55.455,55.455,0,0,0-1.327-29.749c-2.943-9.27-8.1-18.209-15.429-24.693" transform="translate(-1197.513 -580.668)" fill="#5d0935"/>
          <path id="Trazado_1043970" data-name="Trazado 1043970" d="M1537.723,931.159c-1.029-1.674-2.407-3.088-3.561-4.671a10.4,10.4,0,0,1-2.135-5.285,9.274,9.274,0,0,1,1.329-5.874c.042-.065-.055-.137-.1-.071a10,10,0,0,0-.632,10.287,39.7,39.7,0,0,0,3.368,4.7,13.615,13.615,0,0,1,1.636,2.752,16.88,16.88,0,0,1,.893,3.434.17.17,0,0,0,.321.049c.747-1.794-.172-3.78-1.12-5.322" transform="translate(-1212.121 -724.214)" fill="#770e42"/>
          <path id="Trazado_1043971" data-name="Trazado 1043971" d="M1532.72,809.122a.043.043,0,0,0-.084.014,19.194,19.194,0,0,1-1.948,10.465c-.753,1.469-5.178,8.4-7.049,5.128a1.393,1.393,0,0,1,.636-2.09.822.822,0,0,1,1.153.413.689.689,0,0,1-.443.9.451.451,0,0,0,.2.88,1.54,1.54,0,0,0,1.036-1.953,1.618,1.618,0,0,0-1.954-1.1c-2.114.434-2.179,3.147-.628,4.285,2.029,1.488,4.3-1.055,5.5-2.492a17.744,17.744,0,0,0,3.376-6.376,15.656,15.656,0,0,0,.207-8.074" transform="translate(-1205.056 -640.218)" fill="#5d0935"/>
          <path id="Trazado_1043972" data-name="Trazado 1043972" d="M1530.208,1040.986a15.374,15.374,0,0,0-4.244-7.005c-.05-.047-.141,0-.107.069.905,1.846,2.179,3.468,2.948,5.39a8.219,8.219,0,0,1,.35,6c-.637,1.548-2.537,2.984-3.99,1.394a1.7,1.7,0,0,1,.043-2.5c.917-.609,1.907.442.952,1.188-.373.291.021.864.437.681a1.432,1.432,0,0,0,.762-1.7,1.614,1.614,0,0,0-1.756-1.141c-2.079.194-2.224,2.918-1.012,4.159a3.092,3.092,0,0,0,4.79-.527,7.146,7.146,0,0,0,.829-6" transform="translate(-1206.055 -818.174)" fill="#770e42"/>
          <path id="Trazado_1043973" data-name="Trazado 1043973" d="M1277.148,1090.7c-2.161-.094-23.1,6.8-23.1,6.8s3.377,27.094,10.766,39.34,36.407.532,47.37-16.263c0,0,6.573,27.079,7.539,47.093s71.169,17.092,82.368,12.8,29.712-31.4,29.712-31.4,13.378-4.178,8.887-19.608-17.243-64.14-42.809-66.959c-33.339-3.676-36.552-2.064-37.486-5.264,0,0-19.144,3.534-30.577,6.98-10.372,3.127-23.269,6.5-34.22,18.615s-14.349,16.309-14.349,16.309Z" transform="translate(-992.557 -836.591)" fill="#f7582c"/>
          <path id="Trazado_1043974" data-name="Trazado 1043974" d="M1358,1258.1a22.085,22.085,0,0,1-5.8,8.463c-3.968,3.309,3.323,1.755,5.074.315s7.346,9.2,5.635,15.124,9.429-6.708,4.841-11.536A72.7,72.7,0,0,1,1358,1258.1" transform="translate(-1069.309 -995.55)" fill="#e73e28"/>
          <path id="Trazado_1043975" data-name="Trazado 1043975" d="M1566.426,1298.446c13.8,11.468,38.277,5.8,27.192,1.688s-28.758-9.933.485-17.658c36.415-9.62,40.8-23.125,42.608-37.574,1.182-9.464,1.842-13.279,3.94-3.592,4.738,21.875,13.2,48.752,18.182,63.382-5.978,7.219-13.267,14.867-18.783,16.979-11.2,4.288-81.4,7.209-82.368-12.8a212.788,212.788,0,0,0-2.944-24.482,49.69,49.69,0,0,0,11.688,14.061" transform="translate(-1230.52 -977.796)" fill="#e73e28"/>
          <path id="Trazado_1043976" data-name="Trazado 1043976" d="M1277.148,1217.63l1.275,2.626c-4.832,7.408-21.179,8.234-18.425,22.6,2.015,10.508,8.986,24.651,29.024,17.491s18.09-30.673,20.394-24.449a49.413,49.413,0,0,1,2.764,11.605c-10.964,16.795-39.981,28.509-47.37,16.263s-10.766-39.34-10.766-39.34,20.944-6.891,23.1-6.8" transform="translate(-992.557 -963.525)" fill="#e73e28"/>
          <path id="Trazado_1043977" data-name="Trazado 1043977" d="M1259.233,1200.56s10.211-3.008,13.088.837c1.958,2.616.881,7.292-8.323,10.489s-15.107,1.209-15.9-1.628,1.113-6.865,11.136-9.7" transform="translate(-987.724 -949.131)" fill="#fa703d"/>
          <path id="Trazado_1043978" data-name="Trazado 1043978" d="M1201.588,966.743s-12.777-45.034-20.742-54.6c-3.6-4.32-16.581-13.511-18.357-12.131s4.956,7.244,6.864,9.918c0,0-5-.115-4.165,4.256,0,0-3.778-.229-2.031,5.426,0,0-1.607,2.1.7,4.773s4.929,2.723,4.948.936c0,0,3.788,3.945,5.188,5.193,4.2,3.75,5.017,39.184,7.9,42.272,0,0,14.932,3.668,19.7-6.046" transform="translate(-919.869 -712.061)" fill="#d7866b"/>
          <path id="Trazado_1043979" data-name="Trazado 1043979" d="M1168.054,947.529a.372.372,0,0,0-.287-.257,3.829,3.829,0,0,0-3.4,1.158,4.269,4.269,0,0,0-1.082,3.1,2.7,2.7,0,0,0-2.327,1.335,3.753,3.753,0,0,0,.007,3.326,9.562,9.562,0,0,0,4.975,5.4c.07.029.158-.06.1-.113a16.8,16.8,0,0,1-3.937-4.645,4.936,4.936,0,0,1-.718-3.029,2.161,2.161,0,0,1,1.936-1.67c.007.064.01.129.019.192a12.108,12.108,0,0,0,1.4,4.125,10.282,10.282,0,0,0,1.271,1.854,4.665,4.665,0,0,0,1.789,1.434c.06.02.145-.038.112-.1a18.077,18.077,0,0,0-1.412-1.7,11,11,0,0,1-.962-1.5,12.036,12.036,0,0,1-1.232-3.678,4.658,4.658,0,0,1,.5-3.5,3.265,3.265,0,0,1,1.647-1.192,3.752,3.752,0,0,1,1.069-.107.636.636,0,0,0,.449-.135.232.232,0,0,0,.089-.273l-.014-.044" transform="translate(-918.585 -749.527)" fill="#cd6e61"/>
          <path id="Trazado_1043980" data-name="Trazado 1043980" d="M1214.81,1039.369c-.573-1.871-12.977-45.822-11.412-46.566a.474.474,0,1,0-.421-.846,6.191,6.191,0,0,1-6.542-1.2,10.253,10.253,0,0,1-2.813-6.455c-.047-.359-.74-.294-.728.072A6.162,6.162,0,0,1,1191.86,988a7.07,7.07,0,0,1-1.331,1.457c-.227.194-.276.242-.332.486a.792.792,0,0,1-.972.663c-.366-.079-.594.266-.4.52a1.551,1.551,0,0,1-.292,2.03,1.144,1.144,0,0,0,1.116-1.21s3.788,3.944,5.188,5.193c1.64,1.463,4.926,33.053,7.9,42.272.606,1.879,12.24.5,12.074-.045" transform="translate(-940.714 -778.688)" fill="#cd6e61"/>
          <path id="Trazado_1043981" data-name="Trazado 1043981" d="M1193.947,963.426a5.018,5.018,0,0,0-2.607-1.436,14.518,14.518,0,0,0-3.365-.7,14.364,14.364,0,0,0-3.451.117,4.75,4.75,0,0,0-2.594,1.066,1.718,1.718,0,0,0-.385,2.226,3.238,3.238,0,0,0,2.3,1.1c1,.12,2.207-.109,3.083.4.892.519.95,1.727,1.174,2.57a7.6,7.6,0,0,0,4.182,4.961c.065.03.136-.051.08-.1a9.017,9.017,0,0,1-3.3-4.556c-.378-1.366-.26-3.094-1.906-3.8a6.562,6.562,0,0,0-2.406-.361,3.193,3.193,0,0,1-2.245-.627c-.913-1.026.938-1.831,1.824-1.98a14.475,14.475,0,0,1,5.932.313,12.49,12.49,0,0,1,1.468.495,7.514,7.514,0,0,0,1.9.726c.237.029.425-.241.315-.414" transform="translate(-934.976 -760.619)" fill="#cd6e61"/>
          <path id="Trazado_1043982" data-name="Trazado 1043982" d="M2036.6,1362.3s4.131-3.626,8.135-3.59a13.71,13.71,0,0,1,13.315,11.118c1.873,8.724,1.935-1.79,1.935-1.79s4.553,14.016-7.128,17.583S2036.6,1362.3,2036.6,1362.3" transform="translate(-1611.853 -1075.17)" fill="#e73e28"/>
          <path id="Trazado_1043983" data-name="Trazado 1043983" d="M1523.718,1309.225l-80.321-34.262a5.1,5.1,0,0,0-6.69,2.7l-3.933,9.259a5.115,5.115,0,0,0,2.7,6.7l80.321,34.262a5.1,5.1,0,0,0,6.691-2.7l3.933-9.259a5.115,5.115,0,0,0-2.7-6.7" transform="translate(-1133.677 -1008.573)" fill="#e3e3ee"/>
          <path id="Trazado_1043984" data-name="Trazado 1043984" d="M1477.134,1318.726l-7.678-3.538a3.455,3.455,0,0,1-1.691-4.584l3.457-7.5a3.455,3.455,0,0,1,4.584-1.691l7.677,3.539a3.454,3.454,0,0,1,1.691,4.583l-3.457,7.5a3.455,3.455,0,0,1-4.583,1.691" transform="translate(-1161.44 -1029.577)" fill="#cdcd00"/>
          <path id="Trazado_1043985" data-name="Trazado 1043985" d="M1498.819,1323.511a3.888,3.888,0,0,0-.253-2.889,2.809,2.809,0,0,0-2.536-1.373,3.133,3.133,0,0,0-2.691,1.265,4.087,4.087,0,0,0-.767,2.87,3.227,3.227,0,0,0,1.9,2.345,3.915,3.915,0,0,0,1.964.267,3.649,3.649,0,0,1-.74.74,2.754,2.754,0,0,1-2.108.494c-.5-.087-1.449-.447-1.426-1.1a.585.585,0,0,0-.467-.65.569.569,0,0,0-.65.466c-.075,2.123,2.6,2.8,4.246,2.26,1.964-.638,3.035-2.838,3.526-4.7m-4.962.2a2.31,2.31,0,0,1,.1-2.006,1.956,1.956,0,0,1,1.528-1.284,2.018,2.018,0,0,1,1.925.5,2.363,2.363,0,0,1,.393,1.907,7.1,7.1,0,0,1-.6,1.823,2.633,2.633,0,0,1-3.35-.943" transform="translate(-1180.115 -1043.944)" fill="#fff"/>
          <path id="Trazado_1043986" data-name="Trazado 1043986" d="M1565.472,1362.607a.58.58,0,0,0-.467-.65c-.276-.078-.135-.667-.089-.834a5.849,5.849,0,0,1,.632-1.323,4.518,4.518,0,0,0,.83-2.644,2.166,2.166,0,0,0-1.476-1.894,4.3,4.3,0,0,0-1.942-.2.6.6,0,0,0-.332-.525.577.577,0,0,0-.751.277l-2.916,5.237a.571.571,0,0,0,.277.751.577.577,0,0,0,.751-.277l2.357-4.232a.586.586,0,0,0,.267-.016,2.886,2.886,0,0,1,2.195.173c.628.388.488,1.284.249,1.853a21.437,21.437,0,0,0-1.241,2.58,1.651,1.651,0,0,0,1.007,2.189.57.57,0,0,0,.65-.467" transform="translate(-1233.816 -1071.831)" fill="#cdcd00"/>
          <path id="Trazado_1043987" data-name="Trazado 1043987" d="M1608.587,1372.742l0-.006h0c.015-.049.032-.1.046-.145.173-.645-.788-.863-1.072-.329l-.981,1.842a8.22,8.22,0,0,1-.926.927c-.6.516-1.645,1.527-2.524,1.1-.8-.387-.615-1.624-.443-2.3a11.027,11.027,0,0,1,1.516-3.033.569.569,0,0,0-.277-.751.58.58,0,0,0-.751.277,12.794,12.794,0,0,0-1.473,2.871,4.171,4.171,0,0,0-.059,2.876,2.082,2.082,0,0,0,2.4,1.228,3.583,3.583,0,0,0,1.069-.431l-.22.414c-.343.643.686,1.115,1.028.474l1.633-3.066a5.849,5.849,0,0,0,1.035-1.943" transform="translate(-1267.457 -1084.099)" fill="#cdcd00"/>
          <path id="Trazado_1043988" data-name="Trazado 1043988" d="M1675.114,1398.2a.579.579,0,0,0-.8.068,19.983,19.983,0,0,1-4.245,3.144q.3-2.439.6-4.879c.088-.72-1.029-.909-1.117-.183q-.364,2.983-.728,5.966c-.047.385.349.821.754.623a21.66,21.66,0,0,0,5.606-3.94.57.57,0,0,0-.068-.8" transform="translate(-1320.8 -1104.599)" fill="#cdcd00"/>
          <path id="Trazado_1043989" data-name="Trazado 1043989" d="M1699.072,1423.087a.579.579,0,0,0-.726-.335c-1.932.484-3.914-1.812-3.027-3.6a.861.861,0,0,0,.073.052q1.121.682,2.3,1.258c.664.323,1.591.8,2.1-.035a3.388,3.388,0,0,0,.455-1.95,1.82,1.82,0,0,0-1.309-1.509,3.846,3.846,0,0,0-3.994.8,3.393,3.393,0,0,0-.959,1.914,3.528,3.528,0,0,0,.458,2.154,3.839,3.839,0,0,0,4.3,1.98.569.569,0,0,0,.335-.727m-1.175-5.215c.361.047.957.143,1.157.493a1.487,1.487,0,0,1-.088,1.117c-.009.026-.079.177-.112.268a.241.241,0,0,1-.034-.011c-.3-.18-.653-.3-.968-.461-.605-.3-1.2-.634-1.777-.982a2.657,2.657,0,0,1,1.823-.424" transform="translate(-1340.694 -1121.088)" fill="#cdcd00"/>
          <path id="Trazado_1043990" data-name="Trazado 1043990" d="M1637.171,1392.282c.579.225,1.476.544,2.044.142a2.1,2.1,0,0,0,.674-1.835,2.332,2.332,0,0,0-.923-1.625,3.035,3.035,0,0,0-3.728.439,3.31,3.31,0,0,0-1.215,3.69,3.354,3.354,0,0,0,3.446,2.312c.719-.1.615-1.225-.11-1.126a2.38,2.38,0,0,1-2.415-2.31,1.807,1.807,0,0,1,.16-.595c.014.007.025.016.04.023.673.3,1.341.619,2.027.885m.659-2.622a1.2,1.2,0,0,1,.842.691,1.178,1.178,0,0,1,.1.533,1.018,1.018,0,0,1-.189.586h0a.586.586,0,0,0-.118-.006,2.772,2.772,0,0,1-.39-.07,4.688,4.688,0,0,1-.7-.255c-.534-.227-1.062-.466-1.593-.7a2.327,2.327,0,0,1,2.057-.778" transform="translate(-1293.116 -1098.745)" fill="#cdcd00"/>
          <path id="Trazado_1043991" data-name="Trazado 1043991" d="M1491.734,1350.749l-74.087-17.868a5.473,5.473,0,0,0-6.658,3.958l-2.666,10.464a5.486,5.486,0,0,0,3.95,6.673l74.087,17.868a5.473,5.473,0,0,0,6.658-3.958l2.666-10.464a5.486,5.486,0,0,0-3.95-6.672" transform="translate(-1114.515 -1054.596)" fill="#fff"/>
          <path id="Trazado_1043992" data-name="Trazado 1043992" d="M1442.5,1364.864l-11.043-2.814a3.455,3.455,0,0,1-2.495-4.2l2.757-10.819a3.455,3.455,0,0,1,4.2-2.495l11.043,2.814a3.455,3.455,0,0,1,2.495,4.2l-2.757,10.819a3.455,3.455,0,0,1-4.2,2.495" transform="translate(-1130.895 -1063.871)" fill="#ffc73e"/>
          <path id="Trazado_1043993" data-name="Trazado 1043993" d="M1481.064,1373.158a6.182,6.182,0,0,0-.307-3.76,3.869,3.869,0,0,0-2.289-2.1c-2.277-.93-4.276,1.077-5.261,2.96a7.978,7.978,0,0,0-.551,6.558,3.738,3.738,0,0,0,5.236,2.1c2-1.1,2.782-3.66,3.171-5.755m-1.912,1.854a5.553,5.553,0,0,1-1.236,2.191,2.254,2.254,0,0,1-3.774-.448,6,6,0,0,1-.149-4.918,6.95,6.95,0,0,1,1.541-2.515,2.523,2.523,0,0,1,1.991-.907c1.932.253,2.461,2.343,2.3,3.84a12.862,12.862,0,0,1-.678,2.757" transform="translate(-1165.185 -1081.782)" fill="#fff"/>
          <path id="Trazado_1043994" data-name="Trazado 1043994" d="M1454.136,1361.5a.68.68,0,0,0-.839-.815q-1.553.457-3.128.832c-.845.2-.473,1.5.372,1.3.667-.158,1.329-.332,1.99-.513q-1.222,4.609-2.239,9.27c-.184.846,1.122,1.183,1.306.333q1.137-5.233,2.538-10.4" transform="translate(-1147.388 -1076.718)" fill="#fff"/>
          <path id="Trazado_1043995" data-name="Trazado 1043995" d="M1536.487,1370.938q-.936,3.465-1.873,6.931a4.6,4.6,0,0,0-2.943-.354,4.4,4.4,0,0,0-2.448,2.106,4.614,4.614,0,0,0-.565,3.155,3.584,3.584,0,0,0,1.694,2.342,3.877,3.877,0,0,0,2.156.546q-.1.35-.189.7a.675.675,0,0,0,1.307.333l4.169-15.427a.675.675,0,0,0-1.307-.333m-6.437,11.833a3.422,3.422,0,0,1,1.7-3.848,3.118,3.118,0,0,1,2.514.242l-1.374,5.085a2.417,2.417,0,0,1-2.839-1.479" transform="translate(-1209.82 -1084.465)" fill="#ffc73e"/>
          <path id="Trazado_1043996" data-name="Trazado 1043996" d="M1570.211,1412.943c.242-.834-1.065-1.166-1.307-.333a57.153,57.153,0,0,0-1.573,7.075.693.693,0,0,0,.487.82.679.679,0,0,0,.82-.487,57.2,57.2,0,0,1,1.573-7.075" transform="translate(-1240.478 -1117.445)" fill="#ffc73e"/>
          <path id="Trazado_1043997" data-name="Trazado 1043997" d="M1580.414,1397.594a.675.675,0,0,0-.333,1.307.675.675,0,0,0,.333-1.307" transform="translate(-1250.189 -1105.926)" fill="#ffc73e"/>
          <path id="Trazado_1043998" data-name="Trazado 1043998" d="M1598.27,1425.251a3.559,3.559,0,0,1-3.3-.633,3.222,3.222,0,0,1-1.14-3.121c.007-.035.018-.069.026-.1l3.238.874c.971.262,2.292.711,2.992-.324a1.857,1.857,0,0,0,.118-1.544,5.768,5.768,0,0,0-.486-1.366,3.218,3.218,0,0,0-2.429-1.638,4.366,4.366,0,0,0-4.4,2.634,4.752,4.752,0,0,0,.581,5,4.922,4.922,0,0,0,5.171,1.522c.823-.267.457-1.565-.372-1.3m-2.091-6.462a2.186,2.186,0,0,1,1.88.318,2.9,2.9,0,0,1,.874,1.776c.033.154.09.264-.016.341s-.3.035-.42.015c-.5-.082-.993-.258-1.48-.389l-2.647-.715a3.1,3.1,0,0,1,1.808-1.346" transform="translate(-1260.356 -1121.589)" fill="#ffc73e"/>
          <path id="Trazado_1043999" data-name="Trazado 1043999" d="M1639.19,1432.862q-1.558-.354-3.1-.773-.771-.211-1.537-.437c-.211-.062-.42-.126-.631-.19.031-.025.062-.052.094-.077.22-.17.45-.327.685-.475a10.283,10.283,0,0,1,1.549-.8c.556-.23,1.124-.429,1.691-.633a5.33,5.33,0,0,0,1.633-.743,1.485,1.485,0,0,0,.522-1.58c-.219-.645-.869-.85-1.442-1.079q-1.836-.733-3.729-1.3c-.831-.251-1.162,1.056-.333,1.307a37.938,37.938,0,0,1,3.973,1.4c.081.035.163.073.243.11-.045-.021.088-.084-.015.038a1.186,1.186,0,0,1-.5.286c-.616.235-1.243.443-1.859.677a12.376,12.376,0,0,0-3.434,1.882c-.487.392-1.174.945-.731,1.634a1.359,1.359,0,0,0,.8.5c.36.114.721.223,1.083.33q2.33.691,4.7,1.229a.675.675,0,0,0,.333-1.307" transform="translate(-1291.766 -1127.429)" fill="#ffc73e"/>
          <path id="Trazado_1044000" data-name="Trazado 1044000" d="M1688.91,1435.832a.691.691,0,0,0-.92.252q-1.217,1.648-2.464,3.275a15.241,15.241,0,0,1-1.538,1.839c-.219-1.888-.35-3.785-.381-5.686a.675.675,0,0,0-1.348.026,57.254,57.254,0,0,0,.532,6.916.684.684,0,0,0,1.019.567,9.772,9.772,0,0,0,2.677-2.715q1.354-1.764,2.676-3.553a.678.678,0,0,0-.252-.92" transform="translate(-1331.437 -1135.446)" fill="#ffc73e"/>
          <path id="Trazado_1044001" data-name="Trazado 1044001" d="M1729.154,1443.783c-.535.085-1.059.8-1.156.907l-.684.745-1.366,1.488c-.551.6-1.089,1.234-1.654,1.838-.147-2.047-.282-4.095-.419-6.143-.057-.862-1.406-.843-1.349.026.17,2.545.331,5.091.526,7.634a.684.684,0,0,0,1.154.461,20.988,20.988,0,0,0,1.628-1.7l1.659-1.808,1.611-1.755a2.072,2.072,0,0,0,.584-.872c.1-.424-.125-.887-.534-.822" transform="translate(-1363.302 -1141.072)" fill="#ffc73e"/>
          <path id="Trazado_1044002" data-name="Trazado 1044002" d="M2023.568,1365.072s.835-3.826,6.287-4.354c4.567-.442,12.158,4.161,12.1,13.176s-4.667,11.077-11.493,10.815-6.891-19.637-6.891-19.637" transform="translate(-1601.541 -1076.739)" fill="#fa703d"/>
          <path id="Trazado_1044003" data-name="Trazado 1044003" d="M1774.655,1385.714c.57-5.872-.1-14.613-8.73-15.988,0,0-29.564,2.073-40.441,3.286s-17.759,4.839-22.637,11.693-9.389,16.92-8.033,19.836,3.929-3.588,4.848-5.568c0,0-1.184,5.328,3.108,5.568,0,0,3.682,1.985,5.425.2,0,0,3.949,1.681,5.3-.2s-.294-2.5-.294-2.5,5.78-7.012,7.275-9.309,2.356-3.514,7-3.529c3.643-.012,30.027,1.168,41.227,1.677a5.72,5.72,0,0,0,5.951-5.165" transform="translate(-1341.18 -1083.89)" fill="#d7866b"/>
          <path id="Trazado_1044004" data-name="Trazado 1044004" d="M1756.782,1499.921a12.594,12.594,0,0,1,1.008-2.195c.281-.476.653-1.236,1.2-1.446a.1.1,0,0,1,.14.083,3.622,3.622,0,0,1-.547,1.438c-.253.548-.48,1.112-.69,1.677a10.681,10.681,0,0,0-.805,3.491,2.167,2.167,0,0,0,1.588,2.175,3.843,3.843,0,0,0,2.238-.057,4,4,0,0,1,1.446-.345.058.058,0,0,1,.048.078,2.275,2.275,0,0,1-1.327,1,4.288,4.288,0,0,1-2.133.32,3.209,3.209,0,0,1-2.656-2.005c-.463-1.329.045-2.948.5-4.214" transform="translate(-1389.876 -1184.038)" fill="#cd6e61"/>
          <path id="Trazado_1044005" data-name="Trazado 1044005" d="M1730.8,1493.974a12.409,12.409,0,0,1,3.053-7.943c.041-.042.109.016.089.066a25.638,25.638,0,0,0-2.014,6.479,6.494,6.494,0,0,0,.121,3.232c.623,1.479,2.353,1.142,3.613,1.36a.147.147,0,0,1,.031.28,3.23,3.23,0,0,1-4.893-3.474" transform="translate(-1369.844 -1175.92)" fill="#cd6e61"/>
          <path id="Trazado_1044006" data-name="Trazado 1044006" d="M1716.018,1489.7a14.136,14.136,0,0,1,2.3-6.8c.092-.135.3-.011.244.137a23.309,23.309,0,0,0-1.465,6.142,7.737,7.737,0,0,0,.1,2.745,2.845,2.845,0,0,0,.541,1.042c.352.411.787.449,1.135.791a.078.078,0,0,1-.013.121c-.622.5-1.707-.337-2.1-.811a4.663,4.663,0,0,1-.74-3.364" transform="translate(-1358.131 -1173.404)" fill="#cd6e61"/>
          <path id="Trazado_1044007" data-name="Trazado 1044007" d="M1461.334,1443.756s-32.617,12.375-61.627-14.7-41.541-29.217-48.181-28.088,2.767,45.1,2.767,45.1,32.586,64.682,66.317,72.959c13.329,3.271,31.855,1.785,43.1-1.2,17.215-4.568,25.472-14.835,35.332-34.073,13.342-26.03,21.722-61.111,7.242-70.6s-44.952,30.6-44.952,30.6" transform="translate(-1067.826 -1108.436)" fill="#5d1f65"/>
          <path id="Trazado_1044008" data-name="Trazado 1044008" d="M1363.788,1452.376c12.66,1,52.694,45.211,70.478,48.479s77.091-24.894,77.091-24.894c-2.886,32.079-19.129,58.91-30.316,73.939a43.5,43.5,0,0,1-17.115,8.5c-11.247,2.984-29.773,4.47-43.1,1.2-33.731-8.277-66.316-72.96-66.316-72.96s-4.532-21.187-5.083-34.524a118.63,118.63,0,0,1,14.365.264" transform="translate(-1068.039 -1149.006)" fill="#411348"/>
          <path id="Trazado_1044009" data-name="Trazado 1044009" d="M1635.045,1714.3l-28.722,24.108s5.736,12.147,16.571,16.774a248.7,248.7,0,0,1,29.331-21.089Z" transform="translate(-1271.343 -1356.576)" fill="#d7866b"/>
          <path id="Trazado_1044010" data-name="Trazado 1044010" d="M1724.627,1704.8l-3.766,4.067a3.806,3.806,0,0,0-.848,3.7c1.257,4.122,5.275,12.875,17.217,16.261a3.817,3.817,0,0,0,3.1-.482l4.86-3.133Z" transform="translate(-1361.184 -1349.061)" fill="#872893"/>
          <path id="Trazado_1044011" data-name="Trazado 1044011" d="M1816.942,1444.65s3.1-11.895-5.78-18.967-16.868-10.406-25.882-3.966c-10.247,7.321-40.738,40.827-43.875,44.971s-7.5,10.3-7.859,13.439a34.629,34.629,0,0,0,19.361,19.7s11.117,1.783,26.6-12.665c12.107-11.3,32.119-33.221,35.838-35.071Z" transform="translate(-1372.026 -1122.313)" fill="#872893"/>
          <path id="Trazado_1044012" data-name="Trazado 1044012" d="M1736.867,1512.751c-.872,8.1,3.723,14.114,5.8,11.253,2.763-3.814,5.364-5.481,3.859,2.535s10.734,5.549,17.5,1.266,41.364-37.716,48.412-47.7a12.565,12.565,0,0,0,1.665-11.734c5.161,6.987,2.84,15.923,2.84,15.923l-1.6,7.439c-3.719,1.85-23.731,23.771-35.838,35.071-15.481,14.448-26.6,12.666-26.6,12.666a34.628,34.628,0,0,1-19.361-19.7c.195-1.712,1.588-4.326,3.32-7.021" transform="translate(-1372.026 -1161.958)" fill="#5d1f65"/>
          <path id="Trazado_1044013" data-name="Trazado 1044013" d="M1495.119,1904.659c.694-.843,1.544-1.794,2.5-2.813-2.578,5.832-1.564,10.626,4.222,17.228a17.972,17.972,0,0,0,16.867,5.741c-8.434,6.9-14.962,4.854-19.593.167-5.306-5.37-10.145-12.855-3.992-20.323" transform="translate(-1181.061 -1504.998)" fill="#e3e3ee"/>
          <path id="Trazado_1044014" data-name="Trazado 1044014" d="M1517.157,1844.269c-5.786-6.6-6.8-12.745-4.222-18.577,7.493-8.01,21.721-20.374,22.92-20.07,1.351.343.778,3.127.778,3.127,4.75,8.185,13.8,13.621,13.8,13.621h2.768a1.758,1.758,0,0,1,1.535,2.62c-2.294,4.006-9.167,11.782-16.906,20.074a39.035,39.035,0,0,1-3.8,3.6c-5.092,1.042-12.064,1.088-16.867-4.392" transform="translate(-1196.38 -1428.844)" fill="#b1b000"/>
          <path id="Trazado_1044015" data-name="Trazado 1044015" d="M1553.145,1836.278l13.959-15.648s13.385,3.033,13.8,13.621l-14.935,14.325c-1.346,1.292-5.19,4.225-6.279,2.709-1.747-2.432-6.051-6.209-9.284-8.472-1.253-.877,1.722-5.394,2.741-6.536" transform="translate(-1226.851 -1440.726)" fill="#cdcd00"/>
          <path id="Trazado_1044016" data-name="Trazado 1044016" d="M1590.606,1879.329A1.469,1.469,0,0,0,1592,1877.4c-.176-.529-4.441-12.984-16.474-15.292a1.468,1.468,0,0,0-.551,2.885c10.323,1.979,14.206,13.223,14.244,13.336a1.468,1.468,0,0,0,1.39,1" transform="translate(-1245.591 -1473.528)" fill="#8c8c07"/>
          <path id="Trazado_1044017" data-name="Trazado 1044017" d="M1564.655,1911.995a1.381,1.381,0,0,0,.239-.032,1.346,1.346,0,0,0,1.014-1.61c-.125-.558-3.211-13.687-14.431-14.033a1.347,1.347,0,0,0-.083,2.693c9.13.282,11.865,11.819,11.892,11.936a1.346,1.346,0,0,0,1.369,1.047" transform="translate(-1226.843 -1500.625)" fill="#8c8c07"/>
          <path id="Trazado_1044018" data-name="Trazado 1044018" d="M1365.665,1668.642l7.189,43.3s-13.616,7.2-22.015,2.277l-12.063-41.4Z" transform="translate(-1059.613 -1320.446)" fill="#d7866b"/>
          <path id="Trazado_1044019" data-name="Trazado 1044019" d="M1359.908,1638.941a30.12,30.12,0,0,1,.935,8.653,4.081,4.081,0,0,1-2.663,3.51c-4.5,1.656-16.823,5.856-24.542,5.252a3.9,3.9,0,0,1-3.391-2.646,20.527,20.527,0,0,1-.975-7.038Z" transform="translate(-1052.085 -1296.941)" fill="#872893"/>
          <path id="Trazado_1044020" data-name="Trazado 1044020" d="M1311.806,1411.2s5.841,24,4.872,35.888a6.827,6.827,0,0,1-3.012,5.1c-4.071,2.741-12.981,7.291-25.809,5.869a10.174,10.174,0,0,1-8.539-7.071c-2.35-7.42-6.039-20.224-6.37-28.448-.473-11.747-1.689-26.438,20.243-24.573,15.87,1.35,18.614,13.239,18.614,13.239" transform="translate(-1007.37 -1106.11)" fill="#5d1f65"/>
          <path id="Trazado_1044021" data-name="Trazado 1044021" d="M1293.193,1397.964a23.854,23.854,0,0,1,11.315,3.647c1.071,8.2,3.933,31.13,3.6,39.559-.413,10.344-16.721,10.965-18.3,4s-4.125-4.483-3.267,1.655c.673,4.814-3.6,6.614-7.513,3.207-2.352-7.523-5.754-19.612-6.07-27.5-.473-11.747-1.69-26.438,20.243-24.573" transform="translate(-1007.37 -1106.11)" fill="#872893"/>
          <path id="Trazado_1044022" data-name="Trazado 1044022" d="M1350.152,1941.329c3.308-.875,9.072-6.858,14.37-15.893,3.862-6.587,5.534-16.575,6.157-21.509.377,1.33.707,2.576.978,3.665,1.736,6.971-2.326,19.037-9.2,28.444s-18.916,17.519-28.2,14.563c-5.111-1.627-6.206-6.672-5.984-11.849,7-1.095,19.217,3.282,21.877,2.578" transform="translate(-1051.281 -1506.645)" fill="#fff"/>
          <path id="Trazado_1044023" data-name="Trazado 1044023" d="M1337.6,1830.565s20.31.974,23.375-.462,1.779-7.846,1.779-7.846c2.61.248,5.991,9.855,8.026,17.039-.623,4.934-2.3,14.922-6.158,21.509-5.3,9.036-11.062,15.019-14.371,15.894-2.66.7-14.88-3.673-21.877-2.578a78.156,78.156,0,0,1,1.719-11.15c1.061-5.8,7.507-32.4,7.507-32.4" transform="translate(-1051.382 -1442.013)" fill="#cdcd00"/>
          <path id="Trazado_1044024" data-name="Trazado 1044024" d="M1361.25,1872.035l7.057-23.124a3.745,3.745,0,0,0-2.146-4.65c-17.637-6.309-18.282,3.137-18.282,3.137l-6.015,25.817s5.665,7.044,14.1,4.266a8.253,8.253,0,0,0,5.281-5.446" transform="translate(-1062.057 -1457.709)" fill="#e5e515"/>
          <path id="Trazado_1044025" data-name="Trazado 1044025" d="M1376.232,1906.783c-2.894-1.831-11.151-6.206-19.685-2.874a1.573,1.573,0,0,0-.988,1.236,1.553,1.553,0,0,0,1.885,1.741c3.733-.884,11.394-1.923,17.032,2.465a1.546,1.546,0,0,0,2.372-.664,1.562,1.562,0,0,0-.617-1.9" transform="translate(-1072.881 -1505.669)" fill="#b1b000"/>
          <path id="Trazado_1044026" data-name="Trazado 1044026" d="M1364.756,1949.659a20.415,20.415,0,0,0-18.4-2.754,1.8,1.8,0,0,0-1.2,1.46l-.029.215a1.79,1.79,0,0,0,2.116,2c3.6-.688,10.425-1.354,15.663,1.95a1.6,1.6,0,0,0,2.4-.92l.061-.219a1.6,1.6,0,0,0-.61-1.729" transform="translate(-1064.625 -1539.792)" fill="#b1b000"/>
          <path id="Trazado_1044027" data-name="Trazado 1044027" d="M1652.3,955.553a64.5,64.5,0,0,1,5.946,9.083,2.294,2.294,0,0,1-1.586,3.289l-4.084.844a2.77,2.77,0,0,0-1.81,4.155c4.1,6.68,13.407,11.182,35.922,2.669l-8.305-38.893-12.016,4.027Z" transform="translate(-1306.194 -741.204)" fill="#d7866b"/>
          <path id="Trazado_1044028" data-name="Trazado 1044028" d="M1691.588,963.375l-5.833-26.676-12.016,4.027-14.067,14.825a68.405,68.405,0,0,1,4.67,6.8,38.408,38.408,0,0,1,27.246,1.025" transform="translate(-1313.562 -741.204)" fill="#cd6e61"/>
          <path id="Trazado_1044029" data-name="Trazado 1044029" d="M1809.6,688.848c.226-.435,1.821-16.091,15.453-14.245s8.866,28.724-6.381,27.938-9.072-13.693-9.072-13.693" transform="translate(-1431.237 -533.667)" fill="#770e42"/>
          <path id="Trazado_1044030" data-name="Trazado 1044030" d="M1845.948,683.741c-1.227-1.641-3.449-1.657-5.245-1.129a11.049,11.049,0,0,0-4.756,2.923,9.568,9.568,0,0,0-2.71,5.452.118.118,0,0,0,.23.054,11.151,11.151,0,0,1,6.29-7.327c1.609-.681,3.834-1.2,5.262.14a1.973,1.973,0,0,1,.4,2.506,1.355,1.355,0,0,1-1.094.57,1.323,1.323,0,0,1-.439-.056,1.168,1.168,0,0,1-.29-.141,1.248,1.248,0,0,1-.286-.284c.231.035.512-.2.346-.443-.51-.748-1.4.048-1.122.783a1.9,1.9,0,0,0,2.077.976c1.885-.3,2.377-2.625,1.332-4.024" transform="translate(-1450.917 -539.88)" fill="#5d0935"/>
          <path id="Trazado_1044031" data-name="Trazado 1044031" d="M1855.134,724.225a3.342,3.342,0,0,0-1.729.063,3.171,3.171,0,0,0-2.142,2.426.161.161,0,0,0,.316.063,3.006,3.006,0,0,1,1.951-1.927,2.727,2.727,0,0,1,1.407-.025,2.833,2.833,0,0,1,.7.27,1.926,1.926,0,0,0,.776.345.192.192,0,0,0,.184-.238c-.094-.586-.957-.86-1.458-.976" transform="translate(-1465.18 -572.989)" fill="#5d0935"/>
          <path id="Trazado_1044032" data-name="Trazado 1044032" d="M1837.2,694.4c.9,6.468,1.168,16.037-4.487,15.452-8.649-.9-16.926-6.92-16.882,5.084,1.448,1.784,4.1,3.152,8.752,3.391,12.035.621,17.536-15.992,12.618-23.928" transform="translate(-1437.14 -549.45)" fill="#5d0935"/>
          <path id="Trazado_1044033" data-name="Trazado 1044033" d="M1784.876,807.21a14.626,14.626,0,0,0-4.317-1.317,8.488,8.488,0,0,1-4.587-1.807c-1.3-1.257-1.12-2.972-.49-4.516a36.122,36.122,0,0,0,1.941-4.6,12.55,12.55,0,0,0-1.081-9,12.371,12.371,0,0,0-6.706-5.68,12.142,12.142,0,0,0-4.358-.713c-1.413.032-2.817.247-4.232.232a4.531,4.531,0,0,1-3.506-1.233c-1.153-1.317-.918-3.284-.351-4.8.59-1.58,1.492-3.02,2.072-4.607a16.081,16.081,0,0,0,1-4.716,10.06,10.06,0,0,0-3.1-8.112,11.419,11.419,0,0,0-7.852-2.8,16.132,16.132,0,0,0-8.911,3.253,25.45,25.45,0,0,0-9.866,15.843,25.775,25.775,0,0,0,3.623,18.394,24.556,24.556,0,0,0,1.617,2.253,55.151,55.151,0,0,0-1.958,16.943,64.154,64.154,0,0,0,2.884,17.5c1.532,4.9,3.693,10.116,8.23,12.957a15.841,15.841,0,0,0,14.274.964,18.31,18.31,0,0,0,6.179-4.333,11.142,11.142,0,0,0,8.755,2,21.138,21.138,0,0,0,8.923-4.065c4.677-3.462,8.531-8.762,8.854-14.736.282-5.224-2.312-10.81-7.04-13.31" transform="translate(-1369.311 -596.258)" fill="#770e42"/>
          <path id="Trazado_1044034" data-name="Trazado 1044034" d="M1802.589,925.8a4.767,4.767,0,0,0-4.351-1.746l-.027,0c-3.161.468-7.488,2.359-10.1-.477-2.319-2.516-1.669-6.282-1-9.293.695-3.127,1.424-6.508-.166-9.5a5.63,5.63,0,0,0-3.042-2.724,7.449,7.449,0,0,0-4.888.237c-3.235,1.109-6.583,4.164-10.213,3.247a8.392,8.392,0,0,1-3.7-2.6,12.843,12.843,0,0,0-3.372-2.721,9.6,9.6,0,0,0-8.538.462,13.225,13.225,0,0,0-5.3,5.451v.011a24.116,24.116,0,0,0,1.825,2.59,56.464,56.464,0,0,0-1.913,18.289,63.158,63.158,0,0,0,2.871,16.252c1.321,4.207,3.118,8.629,6.485,11.575a15.252,15.252,0,0,0,8.522,1.133,24.678,24.678,0,0,0,14.855-7.878,24.213,24.213,0,0,0,4.005-5.952c-.653,5.583-5.428,10.834-5.216,10.61a11.143,11.143,0,0,0,8.755,2A21.138,21.138,0,0,0,1797,950.7c4.677-3.462,8.531-8.762,8.854-14.736a15.09,15.09,0,0,0-3.27-10.171" transform="translate(-1383.254 -711.705)" fill="#5d0935"/>
          <path id="Trazado_1044035" data-name="Trazado 1044035" d="M1861.907,964.27a2.061,2.061,0,0,0-2.254.227c-1.333,1.2.393,3.6,1.88,2.483.349-.263-.056-.794-.426-.612-.549.269-1.3-.5-1.008-1.035s1.2-.465,1.589-.1a1.509,1.509,0,0,1-.017,1.911,2.493,2.493,0,0,1-2.21.83c-2.905-.2-4.584-3.28-5.132-5.813-.716-3.311-.14-6.827-1.3-10.058-.878-2.445-2.868-4.877-5.637-5.062-1.866-.125-3.55.83-5.384.931a3.152,3.152,0,0,1-2.521-.817,1.98,1.98,0,0,1-.443-2.358c.039-.066-.052-.136-.1-.071a2.377,2.377,0,0,0,.748,3.251c1.633,1.141,3.852.436,5.612.057a5.5,5.5,0,0,1,3.162.078,5.424,5.424,0,0,1,2.168,1.611,9.65,9.65,0,0,1,2.027,5.006c.539,3.933-.11,8.222,2.4,11.616a5.99,5.99,0,0,0,4.439,2.611,3.1,3.1,0,0,0,3.465-2.714,2.078,2.078,0,0,0-1.058-1.977" transform="translate(-1455.139 -747.538)" fill="#770e42"/>
          <path id="Trazado_1044036" data-name="Trazado 1044036" d="M1875.706,1014.107a1.774,1.774,0,0,0-2.351.06.433.433,0,0,0,.462.691c.622-.272,1.492-.267,1.732.523a1.492,1.492,0,0,1-1.254,1.711c-1.875.325-2.819-1.835-2.946-3.335-.155-1.83.257-3.669.156-5.508a9.575,9.575,0,0,0-1.49-4.906,6.11,6.11,0,0,0-3.938-2.653c-.236-.04-.343.315-.1.366a6.007,6.007,0,0,1,4.271,4.185c.737,2.257.4,4.555.2,6.862-.167,1.934.011,4.26,1.811,5.425a2.707,2.707,0,0,0,4.185-1.276,1.942,1.942,0,0,0-.739-2.145" transform="translate(-1476.717 -791.841)" fill="#770e42"/>
          <path id="Trazado_1044037" data-name="Trazado 1044037" d="M1862.113,823.779a1.514,1.514,0,0,0-2.033-.812,1.253,1.253,0,0,0-.479,1.763.443.443,0,0,0,.783-.335c-.1-.388.148-.742.562-.512a.854.854,0,0,1,.232,1.081,1.986,1.986,0,0,1-1.657,1.134c-1.71.167-2.5-1.642-2.395-3.091.118-1.57,1.074-2.941,1.781-4.3a6.019,6.019,0,0,0,.77-4.539.05.05,0,0,0-.1.021c.321,2.2-1.253,4.152-2.254,5.972a5.95,5.95,0,0,0-.792,4.786,3.023,3.023,0,0,0,3.316,2.082c1.429-.208,2.961-1.732,2.264-3.253" transform="translate(-1469.173 -644.212)" fill="#770e42"/>
          <path id="Trazado_1044038" data-name="Trazado 1044038" d="M1574.732,760.376a71.816,71.816,0,0,1-4.495,17.907c-3.8,9.75-5.566,23.021,2.247,31.9s13.43,10.229,22.222,4.065a46.737,46.737,0,0,0,13.444-15.51s3.5-15.268,2.876-25.537-22.364-16.914-36.3-12.823" transform="translate(-1240.229 -600.696)" fill="#d7866b"/>
          <path id="Trazado_1044039" data-name="Trazado 1044039" d="M1600.582,958.079c-.815,6.9,5.165,11.173,9.7,10.2,3.805-.812,5.121-5.373,5.453-6.868a.366.366,0,0,0-.384-.442q-.448.027-.888.04c-7.441,3.119-12.066-.037-13.886-2.934" transform="translate(-1266.74 -758.122)" fill="#ad5645"/>
          <path id="Trazado_1044040" data-name="Trazado 1044040" d="M1614.753,960.6a28.229,28.229,0,0,1-13.876-3.043c0,.037-.006.072-.01.109,1.82,2.9,6.381,8.009,13.886,2.934" transform="translate(-1267.025 -757.708)" fill="#fff"/>
          <path id="Trazado_1044041" data-name="Trazado 1044041" d="M1680.416,849.37a5.2,5.2,0,0,0-1.44-2.985c-.057-.061-.121-.114-.181-.171-.025-.028-.047-.058-.073-.085a2.009,2.009,0,0,0-.374-.3,5.655,5.655,0,0,0-3.264-1.14c-1.2-.032-3.111.367-3.195,1.875a1.964,1.964,0,0,0,1.036,1.707,7.4,7.4,0,0,0,2.232.622,11.185,11.185,0,0,1,4.66,2.312c.289.241.882.131.847-.336a8.438,8.438,0,0,0-.249-1.5" transform="translate(-1323.229 -668.389)" fill="#5d0935"/>
          <path id="Trazado_1044042" data-name="Trazado 1044042" d="M1595.388,832.794a4.628,4.628,0,0,0-4.969-3.015,4.2,4.2,0,0,0-.927.234,2.132,2.132,0,0,0-.493.123,1.883,1.883,0,0,0-.925.741,1.685,1.685,0,0,0,.3,2.235,4.853,4.853,0,0,0,2.485.579,10.341,10.341,0,0,1,2.677.684,2.973,2.973,0,0,0,1.083.328.944.944,0,0,0,.97-.786,2.359,2.359,0,0,0-.2-1.125" transform="translate(-1256.673 -656.555)" fill="#5d0935"/>
          <path id="Trazado_1044043" data-name="Trazado 1044043" d="M1671.971,886.18a1.287,1.287,0,0,0-1.354-.446,1.738,1.738,0,0,0-.987.925,3.209,3.209,0,0,0-.333,1.119,1.519,1.519,0,0,0-.049.459,1.451,1.451,0,0,0,.708,1.205c1.132.582,2.1-.839,2.325-1.776a1.685,1.685,0,0,0-.31-1.486" transform="translate(-1321.139 -700.83)" fill="#261c28"/>
          <path id="Trazado_1044044" data-name="Trazado 1044044" d="M1598.643,863.645a1.113,1.113,0,0,0-1.621.061,2.312,2.312,0,0,0-.245.191,2.218,2.218,0,0,0-.557.871,2.176,2.176,0,0,0-.12.686,1.7,1.7,0,0,0,.01.659,1.3,1.3,0,0,0,1.476,1.063c.668-.139,1.038-.833,1.25-1.419a1.942,1.942,0,0,0-.193-2.113" transform="translate(-1263.232 -683.134)" fill="#261c28"/>
          <path id="Trazado_1044045" data-name="Trazado 1044045" d="M1604.292,850.56a.144.144,0,0,0-.283.019,43.764,43.764,0,0,1-1.167,6.118,19.858,19.858,0,0,1-2.584,5.237c-1.033,1.488-2.529,2.819-2.738,4.718-.166,1.507.939,3.279,2.628,3.064.629-.08.625-1.057-.026-1a1.559,1.559,0,0,1-1.645-1.625,4.077,4.077,0,0,1,.947-2.433,35.294,35.294,0,0,0,2.824-4.047,19.7,19.7,0,0,0,1.785-4.722,12.019,12.019,0,0,0,.259-5.327" transform="translate(-1264.364 -672.946)" fill="#bf645a"/>
          <path id="Trazado_1044046" data-name="Trazado 1044046" d="M1590.3,677.444c0-.017-.007-.035-.011-.052a9.391,9.391,0,0,0-1.193-2.918,32.354,32.354,0,0,0-1.42-5.913,15.581,15.581,0,0,0-3-5.328,10.929,10.929,0,0,0-4.744-3.2,9.15,9.15,0,0,0-5.826.231c-2.079.709-4.01,1.849-6.193,2.235a6.247,6.247,0,0,1-3.25-.177,5.728,5.728,0,0,1-2.359-1.832c-.643-.773-1.2-1.614-1.839-2.386a15.6,15.6,0,0,0-2.036-2.013,17.193,17.193,0,0,0-5.1-2.883c-7.972-2.894-16.808.251-22.611,6.068a20.317,20.317,0,0,0-5.785,10.474,14.345,14.345,0,0,0,2.2,10.691,11.282,11.282,0,0,0,8.89,5.1,13.428,13.428,0,0,0,9.8-4.247,12.3,12.3,0,0,0,1.35-1.646,8.427,8.427,0,0,0,5.959,4.978,11.217,11.217,0,0,0,8.658-1.562,15.8,15.8,0,0,0,1.733-1.226,3.375,3.375,0,0,0,1.087,2.173c1.47,1.363,3.664,1.328,5.514,1.665a5.333,5.333,0,0,1,2.712,1.142,4.1,4.1,0,0,1,1.191,2.472c.294,2.075-.57,4.019-1.359,5.884a11.989,11.989,0,0,0-1.326,5.856,5.287,5.287,0,0,0,3,4.265c3.56,1.731,7.861-.193,10.636-2.568a15.885,15.885,0,0,0,3.741-4.668,12.243,12.243,0,0,0,1.585-5.208c.229-.431.443-.869.635-1.318a16.926,16.926,0,0,0,1.261-4.768,15.64,15.64,0,0,0-1.9-9.321" transform="translate(-1206.743 -515.994)" fill="#770e42"/>
          <path id="Trazado_1044047" data-name="Trazado 1044047" d="M1702.463,670.426c-.339-.129-.715-.144-1.062-.274a3.881,3.881,0,0,1-.784-.414,10.217,10.217,0,0,1-1.464-1.242,4.89,4.89,0,0,1-1.752-3.32c0-1.033.8-2.271,1.97-2.121a1.378,1.378,0,0,1,1.094.907c.212.655-.259,1.1-.843,1.254-.555.15-.608.854.04.912a1.727,1.727,0,0,0,1.332-.71,1.93,1.93,0,0,0-.472-2.736,2.3,2.3,0,0,0-2.838.1,3.173,3.173,0,0,0-1.071,3.087,6.17,6.17,0,0,0,2.183,3.43,8.24,8.24,0,0,0,1.651,1.214,2.284,2.284,0,0,0,2.065.278.212.212,0,0,0-.048-.361" transform="translate(-1342.754 -524)" fill="#770e42"/>
          <path id="Trazado_1044048" data-name="Trazado 1044048" d="M1590.73,768.713a7.08,7.08,0,0,0-.87,1.594,12.175,12.175,0,0,1-.968,1.667,13,13,0,0,1-2.474,2.666,16.819,16.819,0,0,1-7.459,3.061c-.1.022-.119.2-.005.215a11.078,11.078,0,0,0,8.14-2.561,12.994,12.994,0,0,0,2.683-2.879c.687-1,1.592-2.33,1.516-3.587a.322.322,0,0,0-.563-.175" transform="translate(-1249.622 -608.175)" fill="#5d0935"/>
          <path id="Trazado_1044049" data-name="Trazado 1044049" d="M1662.337,784.015c-.574.312-.951,1.01-1.409,1.472a11.1,11.1,0,0,1-1.406,1.2,10.9,10.9,0,0,1-3.25,1.581,12.621,12.621,0,0,1-8.211-.573.1.1,0,0,0-.093.167,10.261,10.261,0,0,0,8.65,1.362,11.7,11.7,0,0,0,5.254-3.207,3.431,3.431,0,0,0,1.062-1.614.414.414,0,0,0-.6-.388" transform="translate(-1304.269 -620.339)" fill="#5d0935"/>
          <path id="Trazado_1044050" data-name="Trazado 1044050" d="M1591.821,682.707a12.679,12.679,0,0,1-12.052,3.231c-4.361-1.181-7.909-4.276-12.021-6.047a22.924,22.924,0,0,0-13.41-1.765c-4,.773-8.222,3-10.078,6.8a6.723,6.723,0,0,0-.132,5.993,5.012,5.012,0,0,0,4.528,3.062c.239-.016.332-.412.061-.45a5.121,5.121,0,0,1-4.132-3.257,6.162,6.162,0,0,1,.552-5.4c2.1-3.64,6.521-5.545,10.531-6.02a23.364,23.364,0,0,1,13.093,2.6c3.768,1.885,7.217,4.657,11.422,5.529a12.139,12.139,0,0,0,6.384-.377,11.864,11.864,0,0,0,5.393-3.784c.074-.091-.058-.194-.138-.114" transform="translate(-1221.615 -536.294)" fill="#5d0935"/>
          <path id="Trazado_1044051" data-name="Trazado 1044051" d="M1566.316,717.742a4.858,4.858,0,0,0-1.266-.219,5.215,5.215,0,0,1-1.119-.4,4.616,4.616,0,0,1-2.1-2.06,4.536,4.536,0,0,1-.387-2.686,5.572,5.572,0,0,1,.293-1.16,6.659,6.659,0,0,1,.421-.89c.138-.244.343-.45.467-.7.026-.052-.042-.1-.088-.08a3.006,3.006,0,0,0-1.038,1.11,4.962,4.962,0,0,0-.618,1.59,5.211,5.211,0,0,0,.3,3.012,5.3,5.3,0,0,0,2.108,2.414,5.079,5.079,0,0,0,1.517.641,2.222,2.222,0,0,0,1.507.023.347.347,0,0,0,0-.6" transform="translate(-1235.306 -561.438)" fill="#5d0935"/>
          <path id="Trazado_1044052" data-name="Trazado 1044052" d="M1757.149,888.551s2.115-7.242,6.175-6.551c4.3.732,7.968,14.676-7.566,15.726Z" transform="translate(-1389.603 -697.879)" fill="#d7866b"/>
          <path id="Trazado_1044053" data-name="Trazado 1044053" d="M1773.864,914.8c-.161-.018-.324-.04-.486-.048a1.427,1.427,0,0,0-.451.069,4.728,4.728,0,0,0-.708.251,4.466,4.466,0,0,0-1.338.893,4.738,4.738,0,0,0-1.367,2.745.359.359,0,0,0,.62.292,3.429,3.429,0,0,1,1.31-.772,4.222,4.222,0,0,1,.846-.157,8.691,8.691,0,0,1,.9.018.428.428,0,0,0,.073-.841,3.1,3.1,0,0,0-1.1.026,4.429,4.429,0,0,0-1.018.293,6.57,6.57,0,0,0-.714.36,4.094,4.094,0,0,1,.961-1.531,4.395,4.395,0,0,1,1.074-.8,4.15,4.15,0,0,1,.6-.249c.111-.037.225-.061.333-.107a4.655,4.655,0,0,1,.479-.205.126.126,0,0,0-.018-.242" transform="translate(-1400.486 -723.837)" fill="#bf645a"/>
          <path id="Trazado_1044054" data-name="Trazado 1044054" d="M679.655,800.01c4.93-3.832,17.14-1.137,12.77,12.507s-12.77-12.507-12.77-12.507" transform="translate(-537.999 -631.772)" fill="#261b26"/>
          <path id="Trazado_1044055" data-name="Trazado 1044055" d="M663.411,832.984s3.6,1.256,5.921,6.886,10.7,6.2,12.1,12.872.614,15.922-2.2,19.533-14.642,8.455-19.52,5.637-19.958-27.762,3.7-44.928" transform="translate(-514.906 -659.125)" fill="#d7866b"/>
          <path id="Trazado_1044056" data-name="Trazado 1044056" d="M694.65,961.772h-3.076a.466.466,0,1,1,0-.932h2.395a2.967,2.967,0,0,0-1.289-1.361,5.471,5.471,0,0,0-3.634-.19.466.466,0,0,1-.278-.889,6.333,6.333,0,0,1,4.342.253,4.048,4.048,0,0,1,1.986,2.516.466.466,0,0,1-.445.6" transform="translate(-544.953 -758.157)" fill="#bf645a"/>
          <path id="Trazado_1044057" data-name="Trazado 1044057" d="M680.617,985.178a2.406,2.406,0,0,1-2.461,1.846l-8.484,4.77c1.844,3.411,3.911,5.8,5.232,6.56,4.877,2.818,16.7-2.026,19.519-5.637,1.241-1.59,2.089-4.275,2.53-7.35-8.544,9.476-16.336-.19-16.336-.19" transform="translate(-530.099 -779.568)" fill="#cd6e61"/>
          <path id="Trazado_1044058" data-name="Trazado 1044058" d="M820.922,1360.113s9.766-1.969,10.277-8.6-18.939,1.059-18.939,1.059Z" transform="translate(-642.939 -1067.345)" fill="#e73e28"/>
          <path id="Trazado_1044059" data-name="Trazado 1044059" d="M722.18,1594.375A144.362,144.362,0,0,1,724.2,1613c.394,9.975.327,23.286,4.58,34.626s15.165,5.526,15.165,5.526l.418-62.539Z" transform="translate(-571.653 -1258.7)" fill="#d7866b"/>
          <path id="Trazado_1044060" data-name="Trazado 1044060" d="M722.18,1594.375a144.593,144.593,0,0,1,2.006,18.336c1.9-2.058,5.176-3.964,9.889-1.15,7.4,4.417,7.049,28.232.911,42.668,4.381,1.362,8.958-1.071,8.958-1.071l.418-62.539Z" transform="translate(-571.653 -1258.7)" fill="#cd6e61"/>
          <path id="Trazado_1044061" data-name="Trazado 1044061" d="M742.4,1847.358s2.018-3.458,7.676-2.872,7.348,7.278,10.287,5.958c0,0,5.1,12.285,6.633,15s6.219,5.743-4.817,8.114-19.78-26.2-19.78-26.2" transform="translate(-587.656 -1459.551)" fill="#770e42"/>
          <path id="Trazado_1044062" data-name="Trazado 1044062" d="M745.805,1838.72a.962.962,0,0,1-1.292-.858c-.011-.7.365-1.563,1.94-2.173,2.906-1.125,13.118-2.719,13.143,5.141a.8.8,0,0,1-1.3.617c-2.064-1.737-6.7-4.716-12.486-2.727" transform="translate(-589.326 -1451.898)" fill="#5d0935"/>
          <path id="Trazado_1044063" data-name="Trazado 1044063" d="M733.811,1858.143s8.5-.631,10.776,1.344,5.6,10.9,6.769,16.4,2.507,8.13,7.938,6.526a4.907,4.907,0,0,0,1.417-1.645c.235-.739,1.594,2.348-1.653,3.721s-10.826,2.083-14.817,1.6-12.609-22.3-12.609-22.3a5.875,5.875,0,0,1,2.179-5.645" transform="translate(-579.065 -1470.337)" fill="#f2f2f9"/>
          <path id="Trazado_1044064" data-name="Trazado 1044064" d="M743.81,1871.627a13.915,13.915,0,0,0-8.041-1.61c-2.284.278-4.22,1.731-4.161,4.03.12,4.692,1.056,13.025,5.7,19.726a3.083,3.083,0,0,0,1.331,1.075c1.922.819,7.133,2.238,17.315-.054a10.694,10.694,0,0,1-6.568-7.089c-1.592-5.554-3.709-14.294-5.573-16.078" transform="translate(-579.113 -1479.74)" fill="#fff"/>
          <path id="Trazado_1044065" data-name="Trazado 1044065" d="M519.964,1585.984s-2.941,14.769-8.092,19.3-23.443,16.347-34.638,19.872l-4.948-15.1s2.356-5.552,9.628-8.762,12.666-4.43,14.211-16.53Z" transform="translate(-373.892 -1254.065)" fill="#d7866b"/>
          <path id="Trazado_1044066" data-name="Trazado 1044066" d="M509.239,1584.763c-.829,6.494-2.768,9.852-5.51,12.068,3.966-.429,8.715-.13,10.866,3.175,3.279,5.038-12.31,19.066-25.738,20.6l1.491,4.551c11.2-3.525,29.487-15.339,34.638-19.872s8.092-19.3,8.092-19.3Z" transform="translate(-387.006 -1254.066)" fill="#cd6e61"/>
          <path id="Trazado_1044067" data-name="Trazado 1044067" d="M437.789,1690.85s5.942,3.241,6.535,6.743a7.808,7.808,0,0,1-1.129,4.857,2.248,2.248,0,0,0,1.041,3.114c1.665.779,3.312,2.505,2.439,6.333-1.592,6.976-10.241,18.212-13.144,20.318s-6.378-36.243-6.378-36.243,7.9-4.963,10.637-5.121" transform="translate(-338.174 -1338.021)" fill="#770e42"/>
          <path id="Trazado_1044068" data-name="Trazado 1044068" d="M465.03,1687.239a10.358,10.358,0,0,1,3.521-2.693c1.741-.6,10.155,5.351,4.685,10.159,0,0-2.593-7.187-8.206-7.465" transform="translate(-368.15 -1332.999)" fill="#5d0935"/>
          <path id="Trazado_1044069" data-name="Trazado 1044069" d="M433.059,1719.782c-1.542-8.979-6.623-10.706-12.743-8.244a4.162,4.162,0,0,0-1.8,1.577c1.908-.979,2.928.621,6.073,1.577,5.718,1.735,2.812,24.386-.375,35.1a19.96,19.96,0,0,0,5.392-4.923s5-16.106,3.454-25.085" transform="translate(-331.338 -1353.587)" fill="#f2f2f9"/>
          <path id="Trazado_1044070" data-name="Trazado 1044070" d="M412.823,1717.983a9.984,9.984,0,0,0-7.662.665c-4.141,5.986-3.482,25.043-3.482,25.043-.11,8.923,3.774,13.194,6.589,12.641a8.715,8.715,0,0,0,2.591-1.007c6.47-9.814,7.681-35.606,1.964-37.341" transform="translate(-317.985 -1359.121)" fill="#e3e3ee"/>
          <path id="Trazado_1044071" data-name="Trazado 1044071" d="M565.755,1371.42s-5.538,20.5-6.757,25.561-3.236,9.174,6.757,14.135a33.692,33.692,0,0,0,20.222,2.7s-.671,2.735,8.2,2.682,21.962-.605,26.313-2.682c0,0,3.024-41.485,2.868-53.065Z" transform="translate(-441.697 -1076.79)" fill="#961147"/>
          <path id="Trazado_1044072" data-name="Trazado 1044072" d="M655.225,1516.634a36.933,36.933,0,0,0-7.162-5.239,30.229,30.229,0,0,1-1.082,21.97,32.875,32.875,0,0,0,9.441-.332s1.7-13.5-1.2-16.4" transform="translate(-512.142 -1196.004)" fill="#7a0e35"/>
          <path id="Trazado_1044073" data-name="Trazado 1044073" d="M692.2,1615.447l-.01-.333a.825.825,0,0,0,.01.333" transform="translate(-547.912 -1278.085)" fill="#7a0e35"/>
          <path id="Trazado_1044074" data-name="Trazado 1044074" d="M662.279,1360.754l-55.133,10.208c2.6,2.172,7.783,4.819,18.081,6.2,19.32,2.592,25.158.834,23.586,23.1-.443,6.283-.877,11.474-1.271,15.691,5.091-.4,9.634-1.065,11.869-2.131,0,0,3.024-41.485,2.867-53.066" transform="translate(-480.617 -1076.79)" fill="#7a0e35"/>
          <path id="Trazado_1044075" data-name="Trazado 1044075" d="M954.889,748.8c-1.089-.771-3.528-1.357-9.609,3.083-4.623,3.375-10.142,15.029-13.879,22.222q.858.905,1.7,1.823c2.108,2.289,4.312,4.513,6.316,6.893,1.295,1.538,2.511,3.141,3.656,4.793a101.533,101.533,0,0,0,7.134-19.935,13.152,13.152,0,0,1,2.772-4.148,1.616,1.616,0,0,0-.326-2.62c1.95-2.417-1.009-3.227-1.009-3.227,2.263-2.13-.96-3.072-.96-3.072,1.054-2.761,6.183-4.411,4.2-5.813" transform="translate(-737.225 -592.083)" fill="#d7866b"/>
          <path id="Trazado_1044076" data-name="Trazado 1044076" d="M987.492,810.064l-.076.049c-2.423,1.591-4.918,3.289-6.406,5.849-1.506,2.589-1.98,5.63-2.755,8.483a50.572,50.572,0,0,1-3.222,8.617q1.343,1.686,2.571,3.46a101.55,101.55,0,0,0,7.135-19.935,13.158,13.158,0,0,1,2.772-4.148,1.518,1.518,0,0,0-.019-2.375" transform="translate(-771.755 -640.987)" fill="#cd6e61"/>
          <path id="Trazado_1044077" data-name="Trazado 1044077" d="M1025.585,793.264a2.308,2.308,0,0,0-.679-.577,2.161,2.161,0,0,0-.9-.276,1.275,1.275,0,0,0-.983.247.129.129,0,0,0,.075.223c.291.053.59.009.881.072a1.978,1.978,0,0,1,.714.3,1.827,1.827,0,0,1,.457.458c.085.128.18.246.267.372a1.019,1.019,0,0,0,.13.176c.046.043.1.058.142.109a.071.071,0,0,0,.128-.021,1.014,1.014,0,0,1,.074-.176.683.683,0,0,0-.035-.387,1.308,1.308,0,0,0-.268-.518" transform="translate(-809.697 -627.011)" fill="#cd6e61"/>
          <path id="Trazado_1044078" data-name="Trazado 1044078" d="M1022.283,776.686a2.5,2.5,0,0,0-1.384-1.213,2.247,2.247,0,0,0-.489-.136c-.181-.024-.512-.049-.659.091a.227.227,0,0,0-.045.311,1.453,1.453,0,0,0,.588.268,2.59,2.59,0,0,1,.43.185,2.274,2.274,0,0,1,.68.6,2.524,2.524,0,0,1,.4.752,2.388,2.388,0,0,1,.118.521,1.25,1.25,0,0,0,.126.511.135.135,0,0,0,.208.033.9.9,0,0,0,.265-.717,2.443,2.443,0,0,0-.237-1.209" transform="translate(-807.073 -613.49)" fill="#cd6e61"/>
          <path id="Trazado_1044079" data-name="Trazado 1044079" d="M428.547,1372.355s-4.809,10.858-7.284,13.232-8.044,6.807-9.868,9.124c-1.555,1.975.029,3.027,1.853,1.877s4.017-2.45,4.017-2.45-5.862,5.308-4.91,7.79,7.576-5.348,7.576-5.348-4.466,6.39-2.637,7.208c1.289.576,6.77-7.2,6.77-7.2s-3.461,6.112-1.838,5.949c3.038-.307,5.571-7.568,6.839-8.4s4.157,1.31,6.086.844-2.678-5.608-2.384-6.91,6.077-9.334,6.077-9.334Z" transform="translate(-325.205 -1085.971)" fill="#d7866b"/>
          <path id="Trazado_1044080" data-name="Trazado 1044080" d="M434.266,1460.652a5.611,5.611,0,0,1-1.419,1.088,5.854,5.854,0,0,1-2.148.513,29.231,29.231,0,0,0-4.1.629,14.626,14.626,0,0,0-6.9,3.764.08.08,0,0,0,.1.124,27.029,27.029,0,0,1,7.363-3.087,30.142,30.142,0,0,0,4.078-.866,6.494,6.494,0,0,0,3.14-2.077c.044-.064-.048-.145-.1-.089" transform="translate(-332.251 -1155.832)" fill="#cd6e61"/>
          <path id="Trazado_1044081" data-name="Trazado 1044081" d="M582.222,850.649a14.613,14.613,0,0,1,11.253,9.66,3.4,3.4,0,0,1-.012,2.261,86.119,86.119,0,0,1-14.736,25.547c-11.031,13.154-18.224,22.4-18.224,22.4s11.693,31.528,11.968,46.727c0,0-7.282.09-15.968,6.564S519.184,979,504.521,965.84l2.929-11.133s-6.4,9.426-7.782,12.4a1.15,1.15,0,0,1-1.176.672c-2.368-.276-8.77-1.457-12.61-6.33a2.583,2.583,0,0,1-.378-2.543c2.35-5.988,12.184-31.031,13.433-34.031,1.42-3.411,5.431-14.091,14.885-18.15s19.546-16.108,27.581-19.422c7.781-3.209,30.206-22.636,38.454-35.624a2.285,2.285,0,0,1,2.365-1.034" transform="translate(-384.211 -673.072)" fill="#ffc73e"/>
          <g id="Grupo_1180732" data-name="Grupo 1180732" transform="translate(105.353 194.672)" opacity="0.5" style="mix-blend-mode: multiply;isolation: isolate">
            <g id="Grupo_1180731" data-name="Grupo 1180731">
              <g id="Grupo_1180730" data-name="Grupo 1180730" clip-path="url(#clip-path-9)">
                <g id="Grupo_1180726" data-name="Grupo 1180726" transform="translate(0 60.751)" opacity="0.3" style="mix-blend-mode: multiply;isolation: isolate">
                  <g id="Grupo_1180725" data-name="Grupo 1180725">
                    <g id="Grupo_1180724" data-name="Grupo 1180724" clip-path="url(#clip-path-10)">
                      <path id="Trazado_1044082" data-name="Trazado 1044082" d="M525.487,1224.85c-3.576-5.654-8.435,16.943-10.472,23.365-1.65,5.2-3.222,9.391-9.373,11.97a22.076,22.076,0,0,0,8.927,3.054,1.15,1.15,0,0,0,1.176-.672c1.377-2.978,7.782-12.4,7.782-12.4s5.536-19.658,1.96-25.312" transform="translate(-505.642 -1223.951)" fill="#edadab"/>
                    </g>
                  </g>
                </g>
                <g id="Grupo_1180729" data-name="Grupo 1180729" transform="translate(36.303)" opacity="0.3" style="mix-blend-mode: multiply;isolation: isolate">
                  <g id="Grupo_1180728" data-name="Grupo 1180728">
                    <g id="Grupo_1180727" data-name="Grupo 1180727" clip-path="url(#clip-path-11)">
                      <path id="Trazado_1044083" data-name="Trazado 1044083" d="M745.177,932.746c-4.572,8.015-11.778,18.568-21.8,24.616-9.913,5.981-16.055,4.248-20.291,19.287-3.177,11.283-15.257,41.135-4.508,31.165s17.077-13.651,7.629,4.07a61.892,61.892,0,0,1-26.55,25.8c12.5-.1,25.313-4.911,30.635-8.879,8.686-6.474,15.968-6.564,15.968-6.564-.274-15.2-11.968-46.727-11.968-46.727s7.193-9.243,18.224-22.4a87.363,87.363,0,0,0,12.663-20.374" transform="translate(-679.655 -932.747)" fill="#edadab"/>
                    </g>
                  </g>
                </g>
              </g>
            </g>
          </g>
          <path id="Trazado_1044084" data-name="Trazado 1044084" d="M491.976,740.3s-.018-8.788-7-13.545c-6.905-4.7-19.859.643-20.679,6.39-.9,6.3,6.234.985,4.325,8.724-1.836,7.442,4.793,8.26,8.81,5.621s6.375-5.4,9.425-1.683Z" transform="translate(-367.506 -573.634)" fill="#382a38"/>
          <path id="Trazado_1044085" data-name="Trazado 1044085" d="M486.583,765.005A13.119,13.119,0,0,0,482,762.673l1.063.034c1.584.051,3.166.177,4.75.206.448.008.53-.54.359-.834-1.958-3.373-6.146-4.384-9.783-4.23-2.407.1-4.77.633-7.154.94-1.7.219-3.788.38-5.191-.811a3.587,3.587,0,0,1-1.146-1.967,5.032,5.032,0,0,0-.6,1.713c-.9,6.3,6.234.985,4.325,8.724-1.836,7.441,4.792,8.26,8.81,5.621s6.375-5.4,9.425-1.683l1.923-2.069a7.167,7.167,0,0,0-2.2-3.313" transform="translate(-367.506 -598.21)" fill="#261b26"/>
          <path id="Trazado_1044086" data-name="Trazado 1044086" d="M573.883,791.1s-.168-6.917-6.531-2.42-1.459,9.23-1.459,9.23Z" transform="translate(-446.543 -622.858)" fill="#f7582c"/>
          <path id="Trazado_1044087" data-name="Trazado 1044087" d="M477.658,792.7s1.493,6.551-1.193,9.23-4.944,6.32.8,9.728,3.185,6.951.39,8.247-6.934-4.665-10.065,1.067,4.7,9.073,8.424,8.853c0,0,8.438,9.227,2.461,17.362s-16.614,7.867-16.614,7.867-8.483,10.407-16.358,7.313-9.64-13.056-9.64-13.056-21.621,5.773-21.621-14.579c0-15.236,12-16.774,15.416-17.061,9.449-.795,3.652-13.279,19.572-25.195,12.326-9.225,20.382-5.809,21.892-2.328Z" transform="translate(-327.961 -622.372)" fill="#382a38"/>
          <path id="Trazado_1044088" data-name="Trazado 1044088" d="M476.018,975.086c-2.782.164-7.865-1.663-8.942-4.993.086,3.439,2.385,7.145,3.262,10.207a10.922,10.922,0,0,1-.116,7.4,5.847,5.847,0,0,1-5.4,3.654c-2.293-.108-4.357-2.389-3.653-4.724.009-.033.02-.065.028-.1.1-.395-.565-.6-.693-.2-.01.03-.015.061-.025.091h0c-1.04,4.167-4.149,8.519-8.605,9.374-3.914.752-8.5-1.378-9.175-5.582-.47-2.929.875-5.853,2.151-8.4.167-.334-.225-.749-.557-.518-5.558,3.875-12.258,6.756-19.155,5.593a15.242,15.242,0,0,1-8.237-4.012,13.451,13.451,0,0,1-2.626-3.736c-.009.283-.021.562-.021.855,0,20.353,21.621,14.579,21.621,14.579s1.765,9.961,9.64,13.056,16.358-7.313,16.358-7.313,10.638.269,16.614-7.867-2.461-17.362-2.461-17.362" transform="translate(-327.961 -767.63)" fill="#261b26"/>
          <path id="Trazado_1044089" data-name="Trazado 1044089" d="M519.783,856.476c-4.7,5.191-2.529,13.477-7.169,18.709a6.773,6.773,0,0,1-2,1.592,1.635,1.635,0,0,1-1.541.125.816.816,0,0,1-.28-1.137c.27-.317-.182-.772-.509-.521a1.524,1.524,0,0,0-.028,2.283,2.2,2.2,0,0,0,2.3.363,8.012,8.012,0,0,0,3.835-3.531c2-3.287,2.255-7.207,2.909-10.9a16.874,16.874,0,0,1,2.6-6.867c.06-.086-.049-.2-.124-.113" transform="translate(-401.965 -677.693)" fill="#261b26"/>
          <path id="Trazado_1044090" data-name="Trazado 1044090" d="M654.333,938.524a.22.22,0,0,0,.016-.224c-.006-.012-.021-.061-.044-.072l-.081-.039a.219.219,0,0,0-.22.042,10.193,10.193,0,0,0-3.413,6.46,11.142,11.142,0,0,0,.149,3.5,7.973,7.973,0,0,0,1.441,3.508.453.453,0,0,0,.759-.475,23.97,23.97,0,0,1-1.171-3.108,10.178,10.178,0,0,1-.181-3.444,11.87,11.87,0,0,1,2.745-6.147" transform="translate(-514.939 -742.37)" fill="#261b26"/>
          <path id="Trazado_1044091" data-name="Trazado 1044091" d="M626.932,941.049a6.326,6.326,0,0,0-3.636,3.343,12.312,12.312,0,0,0-1.11,5.786c.009,1.079.094,2.154.156,3.231a4.848,4.848,0,0,1-.425,2.873,1.592,1.592,0,0,1-2.238.667c-1.006-.741-.545-2.145-.121-3.069a.224.224,0,0,0-.354-.243,2.5,2.5,0,0,0-.621.764,3.312,3.312,0,0,0-.3,1.145,2.589,2.589,0,0,0,.693,1.969,2.327,2.327,0,0,0,3.513-.442c1.035-1.3.787-3.1.677-4.648a21.633,21.633,0,0,1,.1-5.574,7.6,7.6,0,0,1,3.767-5.552.135.135,0,0,0-.1-.25" transform="translate(-489.429 -744.64)" fill="#261b26"/>
        </g>
      </g>
      <rect id="Rectángulo_415826" data-name="Rectángulo 415826" width="521" height="522" transform="translate(0.447 0.083)" fill="none"/>
    </g>
  </g>
</svg>
