<svg xmlns="http://www.w3.org/2000/svg" xmlns:xlink="http://www.w3.org/1999/xlink" width="103" height="103.895" viewBox="0 0 103 103.895">
  <defs>
    <filter id="Trazado_978624" x="0" y="0.895" width="103" height="103" filterUnits="userSpaceOnUse">
      <feOffset dy="3" input="SourceAlpha"/>
      <feGaussianBlur stdDeviation="3" result="blur"/>
      <feFlood flood-opacity="0.161"/>
      <feComposite operator="in" in2="blur"/>
      <feComposite in="SourceGraphic"/>
    </filter>
  </defs>
  <g id="Grupo_1208910" data-name="Grupo 1208910" transform="translate(-192.597 -3465.161)">
    <g id="Grupo_1207031" data-name="Grupo 1207031" transform="translate(-419.403 2447.528)">
      <g id="Grupo_1181204" data-name="Grupo 1181204" transform="translate(0 70.527)">
        <g id="Grupo_1179494" data-name="Grupo 1179494" transform="translate(621 954)">
          <g id="Grupo_1144531" data-name="Grupo 1144531">
            <g transform="matrix(1, 0, 0, 1, -9, -6.89)" filter="url(#Trazado_978624)">
              <g id="Trazado_978624-2" data-name="Trazado 978624" transform="translate(9 6.89)" fill="#effbfe">
                <path d="M 42.5 83.5 C 36.96437835693359 83.5 31.59512901306152 82.41617584228516 26.54141235351562 80.27863311767578 C 21.65934181213379 78.21369171142578 17.27447128295898 75.25723266601562 13.50862312316895 71.49137878417969 C 9.742764472961426 67.72553253173828 6.786305904388428 63.34066009521484 4.721364498138428 58.45858764648438 C 2.583823442459106 53.40486907958984 1.5 48.03562164306641 1.5 42.5 C 1.5 36.96437835693359 2.583823442459106 31.59512901306152 4.721364498138428 26.54141235351562 C 6.786305904388428 21.65934181213379 9.742764472961426 17.27447128295898 13.50862312316895 13.50862312316895 C 17.27447128295898 9.742764472961426 21.65934181213379 6.786305904388428 26.54141235351562 4.721364498138428 C 31.59512901306152 2.583823442459106 36.96437835693359 1.5 42.5 1.5 C 48.03562164306641 1.5 53.40486907958984 2.583823442459106 58.45858764648438 4.721364498138428 C 63.34066009521484 6.786305904388428 67.72553253173828 9.742764472961426 71.49137878417969 13.50862312316895 C 75.25723266601562 17.27447128295898 78.21369171142578 21.65934181213379 80.27863311767578 26.54141235351562 C 82.41617584228516 31.59512901306152 83.5 36.96437835693359 83.5 42.5 C 83.5 48.03562164306641 82.41617584228516 53.40486907958984 80.27863311767578 58.45858764648438 C 78.21369171142578 63.34066009521484 75.25723266601562 67.72553253173828 71.49137878417969 71.49137878417969 C 67.72553253173828 75.25723266601562 63.34066009521484 78.21369171142578 58.45858764648438 80.27863311767578 C 53.40486907958984 82.41617584228516 48.03562164306641 83.5 42.5 83.5 Z" stroke="none"/>
                <path d="M 42.5 3 C 37.16621398925781 3 31.99356079101562 4.043960571289062 27.125732421875 6.102882385253906 C 22.42246627807617 8.092185974121094 18.19785308837891 10.94070434570312 14.56928253173828 14.56928253173828 C 10.94070434570312 18.19785308837891 8.092185974121094 22.42246627807617 6.102882385253906 27.125732421875 C 4.043960571289062 31.99356079101562 3 37.16621398925781 3 42.5 C 3 47.83378601074219 4.043960571289062 53.00643920898438 6.102882385253906 57.87425231933594 C 8.092185974121094 62.57753372192383 10.94070434570312 66.80213165283203 14.56928253173828 70.43071746826172 C 18.19786834716797 74.05929565429688 22.42246627807617 76.90781402587891 27.125732421875 78.89711761474609 C 31.99356079101562 80.95603942871094 37.16621398925781 82 42.5 82 C 47.83378601074219 82 53.00642395019531 80.95603942871094 57.87425231933594 78.89711761474609 C 62.57753372192383 76.90781402587891 66.80213165283203 74.05929565429688 70.43071746826172 70.43071746826172 C 74.05929565429688 66.80213165283203 76.90781402587891 62.57753372192383 78.89711761474609 57.87425231933594 C 80.95603942871094 53.00642395019531 82 47.83378601074219 82 42.5 C 82 37.16621398925781 80.95603942871094 31.99356079101562 78.89711761474609 27.125732421875 C 76.90781402587891 22.42246627807617 74.05929565429688 18.19786834716797 70.43071746826172 14.56928253173828 C 66.80213165283203 10.94070434570312 62.57753372192383 8.092185974121094 57.87425231933594 6.102882385253906 C 53.00643920898438 4.043960571289062 47.83378601074219 3 42.5 3 M 42.5 0 C 65.97209167480469 0 85 19.02789306640625 85 42.5 C 85 65.97209167480469 65.97209167480469 85 42.5 85 C 19.02789306640625 85 0 65.97209167480469 0 42.5 C 0 19.02789306640625 19.02789306640625 0 42.5 0 Z" stroke="none" fill="#397b86"/>
              </g>
            </g>
          </g>
        </g>
      </g>
    </g>
    <g id="aprendizaje_1_" data-name="aprendizaje (1)" transform="translate(182.926 3465.161)">
      <g id="Grupo_1208908" data-name="Grupo 1208908" transform="translate(25.266 1.202)">
        <path id="Trazado_1077595" data-name="Trazado 1077595" d="M101.878,194.154a1.5,1.5,0,0,1,1.5,1.5v41.928a6.19,6.19,0,0,1-6.19,6.19H37.754a6.19,6.19,0,0,1-6.19-6.19V195.65a1.5,1.5,0,0,1,1.5-1.5Z" transform="translate(-31.564 -164.245)" fill="#b3e5ee"/>
        <path id="Trazado_1077596" data-name="Trazado 1077596" d="M59.879,194.154v42.3a5.083,5.083,0,0,0,5.076,5.078H117.7a5.083,5.083,0,0,0,5.076-5.078v-42.3Z" transform="translate(-55.342 -164.245)" fill="#86d7e5"/>
        <path id="Trazado_1077597" data-name="Trazado 1077597" d="M135.094,175.283H81.151a1.273,1.273,0,0,0-1.272,1.274v38.276l17.383,6.349,10.86,1.249,26.029-4.7,2.214-2.9V176.557A1.272,1.272,0,0,0,135.094,175.283Z" transform="translate(-72.137 -148.398)" fill="#f9f7f7"/>
        <path id="Trazado_1077598" data-name="Trazado 1077598" d="M248.639,175.283h2.4v47.2h-2.4Z" transform="translate(-213.855 -148.398)" fill="#f8f3f2"/>
        <path id="Trazado_1077599" data-name="Trazado 1077599" d="M163.57,175.283l7.049,10.973v.851a4.175,4.175,0,0,0,1.775,3.415v1.339a5.086,5.086,0,0,0,5.08,5.08h1.859a5.086,5.086,0,0,0,5.08-5.08v-1.339a4.175,4.175,0,0,0,1.775-3.415v-.851l7.049-10.973Z" transform="translate(-142.418 -148.398)" fill="#f8f3f2"/>
        <g id="Grupo_1208906" data-name="Grupo 1208906" transform="translate(7.742)">
          <g id="Grupo_1208905" data-name="Grupo 1208905" transform="translate(0 26.885)">
            <g id="XMLID_248_">
              <g id="Grupo_1208904" data-name="Grupo 1208904">
                <g id="Grupo_1208902" data-name="Grupo 1208902">
                  <path id="Trazado_1077600" data-name="Trazado 1077600" d="M86.55,216.183v-40.9h-5.4a1.273,1.273,0,0,0-1.272,1.274v38.276l6.888,2.516A3.271,3.271,0,0,1,86.55,216.183Z" transform="translate(-79.879 -175.283)" fill="#f8f3f2"/>
                </g>
                <g id="Grupo_1208903" data-name="Grupo 1208903" transform="translate(0 39.55)">
                  <path id="Trazado_1077601" data-name="Trazado 1077601" d="M108.123,429.7v.053H81.751a1.872,1.872,0,0,1-1.872-1.873V422.1h20.645A7.6,7.6,0,0,1,108.123,429.7Z" transform="translate(-79.879 -422.103)" fill="#f2eae7"/>
                  <path id="Trazado_1077602" data-name="Trazado 1077602" d="M284.383,422.1v5.778a1.872,1.872,0,0,1-1.872,1.873H256.139V429.7a7.6,7.6,0,0,1,7.6-7.6Z" transform="translate(-227.895 -422.103)" fill="#f2eae7"/>
                </g>
              </g>
            </g>
          </g>
          <path id="Trazado_1077603" data-name="Trazado 1077603" d="M240.847,248.154h-7.212v4.9a2.676,2.676,0,0,0,2.676,2.676h1.859a2.676,2.676,0,0,0,2.676-2.676Z" transform="translate(-208.997 -209.592)" fill="#a59ca6"/>
          <path id="Trazado_1077604" data-name="Trazado 1077604" d="M240.847,248.154h-7.212v4.9a2.676,2.676,0,0,0,2.676,2.676h1.859a2.674,2.674,0,0,0,2.377-1.45,2.707,2.707,0,0,1-.314.02h-1.859a2.675,2.675,0,0,1-2.532-1.813.611.611,0,0,1,.578-.809h4.427v-3.525Z" transform="translate(-208.997 -209.592)" fill="#8f8390"/>
          <path id="Trazado_1077605" data-name="Trazado 1077605" d="M188.36,23.482a15.983,15.983,0,1,0-29.054,9.2L167,44.652v1.557a1.775,1.775,0,0,0,1.775,1.775h7.212a1.775,1.775,0,0,0,1.775-1.775V44.652l7.691-11.973A15.908,15.908,0,0,0,188.36,23.482Z" transform="translate(-144.134 -7.499)" fill="#fbe88c"/>
          <path id="Trazado_1077606" data-name="Trazado 1077606" d="M166.047,34.72A17.6,17.6,0,0,1,163,24.777,17.165,17.165,0,0,1,176.034,7.921a15.985,15.985,0,0,0-16.727,24.76L167,44.653V46.21a1.775,1.775,0,0,0,1.775,1.775h4.568Z" transform="translate(-144.135 -7.5)" fill="#fbe372"/>
        </g>
        <g id="Grupo_1208907" data-name="Grupo 1208907" transform="translate(7.742 66.436)">
          <path id="Trazado_1077607" data-name="Trazado 1077607" d="M256.737,451.046a7.577,7.577,0,0,0-.6,2.961v.053H282.51a1.872,1.872,0,0,0,1.872-1.873v-1.14H256.737Z" transform="translate(-227.895 -446.408)" fill="#ede2dd"/>
          <path id="Trazado_1077608" data-name="Trazado 1077608" d="M89.838,426.741a3.287,3.287,0,0,1-3.287-3.287V422.1H79.879v5.778a1.872,1.872,0,0,0,1.872,1.873h26.372V429.7a7.573,7.573,0,0,0-.6-2.961Z" transform="translate(-79.879 -422.103)" fill="#ede2dd"/>
        </g>
      </g>
      <g id="Grupo_1208909" data-name="Grupo 1208909" transform="translate(24.064 0)">
        <path id="Trazado_1077609" data-name="Trazado 1077609" d="M95.58,170.809H90.7v-.548a2.478,2.478,0,0,0-2.475-2.475h-9.63a1.2,1.2,0,0,0,0,2.4h9.63a.072.072,0,0,1,.072.072v14.653a1.2,1.2,0,0,0,2.4,0v-11.7H95.58a.3.3,0,0,1,.295.295v41.928a4.993,4.993,0,0,1-4.988,4.988H31.455a4.993,4.993,0,0,1-4.988-4.988V173.507a.3.3,0,0,1,.295-.295h5.043v41.1a3.077,3.077,0,0,0,3.074,3.074H87.624a3.077,3.077,0,0,0,3.074-3.074V190.039a1.2,1.2,0,1,0-2.4,0v17.295H68.85a8.775,8.775,0,0,0-6.4,2.766V194.555a1.2,1.2,0,1,0-2.4,0V210.1a8.775,8.775,0,0,0-6.4-2.766H48.192a1.2,1.2,0,0,0,0,2.4h5.461a6.406,6.406,0,0,1,6.291,5.247H34.879a.671.671,0,0,1-.67-.67v-4.578h8.857a1.2,1.2,0,1,0,0-2.4H34.209V170.26a.072.072,0,0,1,.072-.072h9.63a1.2,1.2,0,0,0,0-2.4H34.28a2.478,2.478,0,0,0-2.475,2.475v.548H26.762a2.7,2.7,0,0,0-2.7,2.7v41.928a7.4,7.4,0,0,0,7.391,7.391H90.887a7.4,7.4,0,0,0,7.391-7.391V173.507A2.7,2.7,0,0,0,95.58,170.809ZM68.85,209.738H88.294v4.578a.671.671,0,0,1-.67.67H62.559A6.406,6.406,0,0,1,68.85,209.738Z" transform="translate(-24.064 -140.899)"/>
        <path id="Trazado_1077610" data-name="Trazado 1077610" d="M150.436,16.862a1.2,1.2,0,0,0,1.309-1.084,14.781,14.781,0,1,1,26.8,9.912l-.029.043-7.691,11.973a1.2,1.2,0,0,0-.191.65v1.557a.574.574,0,0,1-.573.573h-.079l.766-12.991h1.369a3.557,3.557,0,0,0,3.553-3.553V23.8a3.553,3.553,0,0,0-7.1-.209l-.089,1.5h-4.214l-.089-1.5a3.553,3.553,0,0,0-7.1.209v.146a3.557,3.557,0,0,0,3.553,3.553h1.369l.765,12.983a.572.572,0,0,1-.491-.565V38.355a1.2,1.2,0,0,0-.191-.65L154.4,25.733l-.029-.043a14.643,14.643,0,0,1-2.314-5.181,1.2,1.2,0,0,0-2.343.539,17.036,17.036,0,0,0,2.677,6.006l7.486,11.654v1.2a2.979,2.979,0,0,0,1.775,2.721v2.032a3.883,3.883,0,0,0,3.878,3.878h1.859a3.883,3.883,0,0,0,3.878-3.878V42.633a2.979,2.979,0,0,0,1.775-2.721v-1.2l7.486-11.654a17.185,17.185,0,1,0-31.176-11.5,1.2,1.2,0,0,0,1.084,1.309Zm20.538,6.866a1.149,1.149,0,0,1,2.3.067v.146a1.15,1.15,0,0,1-1.149,1.149h-1.227ZM160.637,25.09a1.15,1.15,0,0,1-1.149-1.149V23.8a1.149,1.149,0,0,1,2.3-.067l.08,1.362Zm7.708,2.4-.765,12.991h-2.4l-.765-12.991Zm.519,17.172a1.476,1.476,0,0,1-1.475,1.475H165.53a1.476,1.476,0,0,1-1.475-1.475V42.889h4.809v1.777Z" transform="translate(-129.272 0)"/>
        <path id="Trazado_1077611" data-name="Trazado 1077611" d="M381.212,32.289a1.2,1.2,0,0,0,.792-.3l2.622-2.3a1.2,1.2,0,1,0-1.586-1.806l-2.622,2.3a1.2,1.2,0,0,0,.793,2.1Z" transform="translate(-322.974 -23.164)"/>
        <path id="Trazado_1077612" data-name="Trazado 1077612" d="M380.419,91.152l2.622,2.3a1.2,1.2,0,0,0,1.586-1.806l-2.622-2.3a1.2,1.2,0,0,0-1.586,1.806Z" transform="translate(-322.974 -74.779)"/>
        <path id="Trazado_1077613" data-name="Trazado 1077613" d="M101.312,29.687l2.622,2.3a1.2,1.2,0,0,0,1.586-1.806l-2.622-2.3a1.2,1.2,0,0,0-1.586,1.806Z" transform="translate(-88.59 -23.163)"/>
        <path id="Trazado_1077614" data-name="Trazado 1077614" d="M102.106,93.755a1.2,1.2,0,0,0,.793-.3l2.622-2.3a1.2,1.2,0,0,0-1.586-1.806l-2.622,2.3a1.2,1.2,0,0,0,.793,2.1Z" transform="translate(-88.591 -74.78)"/>
        <path id="Trazado_1077615" data-name="Trazado 1077615" d="M115.145,253.856a1.2,1.2,0,0,0-1.2-1.2H102.1a1.2,1.2,0,1,0,0,2.4h11.838A1.2,1.2,0,0,0,115.145,253.856Z" transform="translate(-88.59 -212.169)"/>
        <path id="Trazado_1077616" data-name="Trazado 1077616" d="M128.981,290.8H115.653a1.2,1.2,0,0,0,0,2.4h13.329a1.2,1.2,0,0,0,0-2.4Z" transform="translate(-99.967 -244.207)"/>
        <path id="Trazado_1077617" data-name="Trazado 1077617" d="M128.981,327.346H115.653a1.2,1.2,0,1,0,0,2.4h13.329a1.2,1.2,0,1,0,0-2.4Z" transform="translate(-99.967 -274.893)"/>
        <path id="Trazado_1077618" data-name="Trazado 1077618" d="M128.981,363.887H115.653a1.2,1.2,0,1,0,0,2.4h13.329a1.2,1.2,0,1,0,0-2.4Z" transform="translate(-99.967 -305.578)"/>
        <path id="Trazado_1077619" data-name="Trazado 1077619" d="M336.738,253.856a1.2,1.2,0,0,0-1.2-1.2H323.7a1.2,1.2,0,0,0,0,2.4h11.838A1.2,1.2,0,0,0,336.738,253.856Z" transform="translate(-274.676 -212.169)"/>
        <path id="Trazado_1077620" data-name="Trazado 1077620" d="M314.177,290.8H300.849a1.2,1.2,0,0,0,0,2.4h13.329a1.2,1.2,0,0,0,0-2.4Z" transform="translate(-255.488 -244.207)"/>
        <path id="Trazado_1077621" data-name="Trazado 1077621" d="M314.177,327.346H300.849a1.2,1.2,0,0,0,0,2.4h13.329a1.2,1.2,0,1,0,0-2.4Z" transform="translate(-255.488 -274.893)"/>
        <path id="Trazado_1077622" data-name="Trazado 1077622" d="M314.177,363.887H300.849a1.2,1.2,0,0,0,0,2.4h13.329a1.2,1.2,0,1,0,0-2.4Z" transform="translate(-255.488 -305.578)"/>
      </g>
    </g>
  </g>
</svg>
