<svg xmlns="http://www.w3.org/2000/svg" xmlns:xlink="http://www.w3.org/1999/xlink" width="190" height="240" viewBox="0 0 190 240">
  <defs>
    <clipPath id="clip-path">
      <rect id="Rectángulo_417887" data-name="Rectángulo 417887" width="190" height="240" transform="translate(180 2010)" fill="#fff" stroke="#707070" stroke-width="1"/>
    </clipPath>
    <clipPath id="clip-path-2">
      <path id="Trazado_1077389" data-name="Trazado 1077389" d="M54.392,63.936V235.071c0,10.521.711,21.742,22.06,21.742s154.274,2.375,174.4.266c16.722-1.753,24.849-7.981,25.562-33.932s-.5-143.089,0-156.405c.316-8.416.316-24.2-24.907-25.25-25.684-1.071-148.37-.784-171.5-.672C52.612,40.709,54.392,63.936,54.392,63.936Z" transform="translate(-54.369 -40.7)"/>
    </clipPath>
    <filter id="Trazado_1077390" x="113.531" y="17.742" width="85.531" height="67.578" filterUnits="userSpaceOnUse">
      <feOffset dy="3" input="SourceAlpha"/>
      <feGaussianBlur stdDeviation="3" result="blur"/>
      <feFlood flood-opacity="0.161"/>
      <feComposite operator="in" in2="blur"/>
      <feComposite in="SourceGraphic"/>
    </filter>
  </defs>
  <g id="Enmascarar_grupo_1098877" data-name="Enmascarar grupo 1098877" transform="translate(-180 -2010)" clip-path="url(#clip-path)">
    <g id="Grupo_1208801" data-name="Grupo 1208801" transform="translate(115.417 2006.042)">
      <path id="Trazado_1077324" data-name="Trazado 1077324" d="M54.383,63.936V235.071c0,10.521.432,21.742,13.4,21.742s93.742,2.375,105.972.266c10.161-1.753,15.1-7.981,15.532-33.932s-.3-143.089,0-156.405c.192-8.416.192-24.2-15.134-25.25C158.551,40.421,84,40.709,69.95,40.82,53.3,40.709,54.383,63.936,54.383,63.936Z" transform="translate(65.214 4)" fill="#e28279"/>
      <g id="Grupo_1208795" data-name="Grupo 1208795" transform="translate(54.369 40.7)">
        <g id="Grupo_1208794" data-name="Grupo 1208794" clip-path="url(#clip-path-2)">
          <path id="Trazado_1077325" data-name="Trazado 1077325" d="M106.983,167.41s13.192-2.167,27.9-3.091,34.081,1.015,34.081,1.015-13.469,30.578-36.07,24.524S106.983,167.41,106.983,167.41Z" transform="translate(-42.218 -14.394)" fill="#050504"/>
          <g id="Grupo_1208774" data-name="Grupo 1208774" transform="translate(0 135.393)">
            <g id="Grupo_1208773" data-name="Grupo 1208773">
              <path id="Trazado_1077326" data-name="Trazado 1077326" d="M57.624,334s-3.362-46.032,3.111-78.586c9.451-47.536,21.217-62.2,27.22-68.709,8.406-9.108,26.971-13.734,26.971-13.734l14.407-1.839L128.2,152.3l33.347.274,1.683,17.125s11.832,5.762,16.987,8.421c.775,17.591,12.365,17.33,14.6,34.484-.149.061-.29.126-.439.187l1.763,99.626s-35.5,22.275-98.537-1.458l-1.665-87.737S85.42,264.2,83.1,275.349s-3.863,57.413-3.863,57.413,8.215,13.661,5.986,17.291-6.654-4.507-6.654-4.507,3.841,20.128.31,20.238-6.155-15.475-6.155-15.475.922,19.539-3.773,18.353c-2.739-.807-1.754-17.449-1.754-17.449s-2.175,16.6-5.129,15.92-.178-16.53-.178-16.53-3.272,12.9-6.265,11.986S55.669,342.8,57.624,334Z" transform="translate(-54.369 -152.297)" fill="#e7a17e"/>
              <g id="Grupo_1208755" data-name="Grupo 1208755" transform="translate(73.829)">
                <path id="Trazado_1077327" data-name="Trazado 1077327" d="M115.034,163.714l-.687-11.417,33.347.274,1.343,13.671C140.374,166.841,127.353,166.9,115.034,163.714Z" transform="translate(-114.347 -152.297)" fill="#dd8865"/>
              </g>
              <g id="Grupo_1208756" data-name="Grupo 1208756" transform="translate(26.168 172.113)">
                <path id="Trazado_1077328" data-name="Trazado 1077328" d="M129.29,468.544l11.63-168.222L89.711,294.16s12.312,128.076,18.494,169.3c0,0-32.7,11.624-32.577,17.685s37.736,1.507,37.736,1.507S136.348,488.323,129.29,468.544Z" transform="translate(-75.628 -294.16)" fill="#e7a17e"/>
              </g>
              <g id="Grupo_1208757" data-name="Grupo 1208757" transform="translate(96.471 149.286)">
                <path id="Trazado_1077329" data-name="Trazado 1077329" d="M146.366,471.939s-8.453-112.126-13.617-193.7c-.769-12.154,45.829,17.844,45.829,17.844S171.664,424.556,167.22,466c0,0,32.078,10.06,32.206,16.121s-36.553,3.265-36.553,3.265S140.146,491.988,146.366,471.939Z" transform="translate(-132.74 -275.345)" fill="#e7a17e"/>
              </g>
              <g id="Grupo_1208760" data-name="Grupo 1208760" transform="translate(108.191 337.718)">
                <g id="Grupo_1208758" data-name="Grupo 1208758" transform="translate(0 4.358)">
                  <path id="Trazado_1077330" data-name="Trazado 1077330" d="M178.082,437.889c10.19,4.315,13.4,8.6,13.4,8.6s-.476,1.4-14.5,3.22A17.9,17.9,0,0,1,178.082,437.889Z" transform="translate(-134.366 -433.475)" fill="#fff"/>
                  <path id="Trazado_1077331" data-name="Trazado 1077331" d="M143.518,436.031c13.31,6.7,28.819-1.78,28.819-1.78a88.855,88.855,0,0,1,13.641,4.414,17.9,17.9,0,0,0-1.1,11.817c-3.613.468-8.112.963-13.75,1.47-27.518,2.474-28.813-4.558-28.813-4.558A38.244,38.244,0,0,1,143.518,436.031Z" transform="translate(-142.262 -434.251)" fill="#e4bb5b"/>
                </g>
                <g id="Grupo_1208759" data-name="Grupo 1208759" transform="translate(0.051 17.369)">
                  <path id="Trazado_1077332" data-name="Trazado 1077332" d="M142.3,445.107a39.811,39.811,0,0,0,.635,4.217s8,2.517,29.631,2.075c24.167-.494,27.2-3.592,27.2-3.592a7.39,7.39,0,0,0-.407-2.832A135.8,135.8,0,0,1,142.3,445.107Z" transform="translate(-142.303 -444.975)" fill="#fff"/>
                </g>
                <path id="Trazado_1077333" data-name="Trazado 1077333" d="M173.741,436.092a8.641,8.641,0,0,0-3.588,8.269" transform="translate(-135.836 -429.5)" fill="none" stroke="#57687e" stroke-linecap="round" stroke-linejoin="round" stroke-miterlimit="10" stroke-width="0.538"/>
                <path id="Trazado_1077334" data-name="Trazado 1077334" d="M169.719,434.872s-3.624,2.242-3.48,8.261" transform="translate(-136.725 -429.76)" fill="none" stroke="#57687e" stroke-linecap="round" stroke-linejoin="round" stroke-miterlimit="10" stroke-width="0.538"/>
                <path id="Trazado_1077335" data-name="Trazado 1077335" d="M167.884,437.635s2.871-6.935-.146-6.976S167.884,437.635,167.884,437.635Z" transform="translate(-136.679 -430.659)" fill="none" stroke="#57687e" stroke-linecap="round" stroke-linejoin="round" stroke-miterlimit="10" stroke-width="0.538"/>
                <path id="Trazado_1077336" data-name="Trazado 1077336" d="M168.845,437.12s-5.009-5.634-6.4-2.992S168.845,437.12,168.845,437.12Z" transform="translate(-137.638 -430.07)" fill="none" stroke="#57687e" stroke-linecap="round" stroke-linejoin="round" stroke-miterlimit="10" stroke-width="0.538"/>
              </g>
              <g id="Grupo_1208769" data-name="Grupo 1208769" transform="translate(38.554 145.901)">
                <path id="Trazado_1077337" data-name="Trazado 1077337" d="M85.69,273.039s3.5,96.047,11.248,186.674c.743,8.689,35.381-.723,35.381-.723l5.515-143.153h0L151.6,458.324s26.945,4.67,34.649-.436c0,0,6.265-21.057,2.832-183.387Z" transform="translate(-85.69 -272.452)" fill="#2e2646"/>
                <g id="Grupo_1208761" data-name="Grupo 1208761" transform="translate(33.355 40.998)">
                  <path id="Trazado_1077338" data-name="Trazado 1077338" d="M150.748,312a.326.326,0,0,0,0-.653c-15.424-.5-37.349-4.952-37.568-5a.339.339,0,0,0-.391.254.328.328,0,0,0,.258.386c.219.044,22.2,4.511,37.68,5.011A.024.024,0,0,0,150.748,312Z" transform="translate(-112.787 -306.347)" fill="#1a162b"/>
                </g>
                <g id="Grupo_1208762" data-name="Grupo 1208762" transform="translate(96.921 9.319)">
                  <path id="Trazado_1077339" data-name="Trazado 1077339" d="M164.764,454.1a.33.33,0,0,0,.325-.323l1.747-173.208a.329.329,0,0,0-.327-.33h-.01a.33.33,0,0,0-.325.323l-1.747,173.208a.329.329,0,0,0,.327.33Z" transform="translate(-164.427 -280.236)" fill="#1a162b"/>
                </g>
                <g id="Grupo_1208763" data-name="Grupo 1208763" transform="translate(42.246 43.655)">
                  <path id="Trazado_1077340" data-name="Trazado 1077340" d="M120.347,449.348a.331.331,0,0,0,.325-.322l2.388-140.159a.331.331,0,0,0-.662-.01L120.01,449.017a.329.329,0,0,0,.326.331Z" transform="translate(-120.01 -308.537)" fill="#1a162b"/>
                </g>
                <g id="Grupo_1208764" data-name="Grupo 1208764" transform="translate(47.925 0.063)">
                  <path id="Trazado_1077341" data-name="Trazado 1077341" d="M125.66,306.59c.182,0,.327-.207.321-.454l-.7-33.089c0-.246-.158-.444-.341-.44s-.327.207-.321.454l.7,33.087C125.326,306.4,125.478,306.593,125.66,306.59Z" transform="translate(-124.624 -272.607)" fill="#1a162b"/>
                </g>
                <g id="Grupo_1208765" data-name="Grupo 1208765" transform="translate(83.546 1.829)">
                  <path id="Trazado_1077342" data-name="Trazado 1077342" d="M167.539,309.57a.33.33,0,0,0,.228-.1.321.321,0,0,0,0-.461A45.237,45.237,0,0,1,154.3,274.408a.329.329,0,0,0-.311-.345.325.325,0,0,0-.35.307A45.891,45.891,0,0,0,167.3,309.476.343.343,0,0,0,167.539,309.57Z" transform="translate(-153.562 -274.062)" fill="#1a162b"/>
                </g>
                <g id="Grupo_1208766" data-name="Grupo 1208766" transform="translate(2.134 1.967)">
                  <path id="Trazado_1077343" data-name="Trazado 1077343" d="M87.761,304.276a.356.356,0,0,0,.1-.016c5.184-1.7,9.557-6.518,11.415-12.586,1.888-6.178,1.164-12.789.455-17.224a.332.332,0,0,0-.379-.272.328.328,0,0,0-.276.375c.7,4.371,1.416,10.884-.436,16.933-1.793,5.867-6,10.525-10.989,12.154a.327.327,0,0,0-.21.414A.332.332,0,0,0,87.761,304.276Z" transform="translate(-87.424 -274.176)" fill="#1a162b"/>
                </g>
                <g id="Grupo_1208767" data-name="Grupo 1208767" transform="translate(48.6 3.786)">
                  <path id="Trazado_1077344" data-name="Trazado 1077344" d="M125.508,304.7c.185,0,4.536-.192,5.424-8.852.858-8.391.84-19.732.841-19.846a.329.329,0,0,0-.331-.326h-.006a.331.331,0,0,0-.325.326c0,.114.02,11.421-.837,19.779-.824,8.036-4.74,8.263-4.781,8.265a.327.327,0,1,0,.016.654Z" transform="translate(-125.172 -275.675)" fill="#1a162b"/>
                </g>
                <g id="Grupo_1208768" data-name="Grupo 1208768" transform="translate(2.511 7.016)">
                  <path id="Trazado_1077345" data-name="Trazado 1077345" d="M187.353,285.818a.345.345,0,0,1-.085-.01c-34.116-8.747-79.221-6.875-94.048-6.264-5.356.223-5.356.223-5.472-.092a.3.3,0,0,1,.188-.391.313.313,0,0,1,.246.017c.362.049,2.423-.036,5.011-.144,14.846-.611,60.023-2.488,94.231,6.285a.3.3,0,0,1,.222.372A.31.31,0,0,1,187.353,285.818Z" transform="translate(-87.73 -278.337)" fill="#1a162b"/>
                </g>
                <path id="Trazado_1077346" data-name="Trazado 1077346" d="M129.667,274.972a1.933,1.933,0,1,1-1.913-2.417C128.781,272.534,129.638,273.617,129.667,274.972Z" transform="translate(-76.394 -272.555)" fill="#1a162b"/>
              </g>
              <g id="Grupo_1208772" data-name="Grupo 1208772" transform="translate(24.315 339.54)">
                <g id="Grupo_1208770" data-name="Grupo 1208770" transform="translate(0.323 4.316)">
                  <path id="Trazado_1077347" data-name="Trazado 1077347" d="M87.406,439.813c-10,4.728-13.022,9.137-13.022,9.137s.535,1.381,14.62,2.624A17.916,17.916,0,0,0,87.406,439.813Z" transform="translate(-74.384 -434.845)" fill="#fff"/>
                  <path id="Trazado_1077348" data-name="Trazado 1077348" d="M127.275,436.32c-13.017,7.239-28.868-.6-28.868-.6a88.738,88.738,0,0,0-13.444,4.967,17.9,17.9,0,0,1,1.6,11.761c3.63.32,8.145.632,13.8.907,27.6,1.348,28.6-5.731,28.6-5.731A38.281,38.281,0,0,0,127.275,436.32Z" transform="translate(-71.941 -435.718)" fill="#e4bb5b"/>
                </g>
                <g id="Grupo_1208771" data-name="Grupo 1208771" transform="translate(0 16.223)">
                  <path id="Trazado_1077349" data-name="Trazado 1077349" d="M131.461,445.532a39.808,39.808,0,0,1-.457,4.239s-7.89,2.841-29.518,3.284c-24.167.494-27.329-2.477-27.329-2.477a7.369,7.369,0,0,1,.288-2.846A135.794,135.794,0,0,0,131.461,445.532Z" transform="translate(-74.122 -445.532)" fill="#fff"/>
                </g>
                <path id="Trazado_1077350" data-name="Trazado 1077350" d="M89.6,437.822a8.652,8.652,0,0,1,3.933,8.115" transform="translate(-70.546 -430.953)" fill="none" stroke="#57687e" stroke-linecap="round" stroke-linejoin="round" stroke-miterlimit="10" stroke-width="0.538"/>
                <path id="Trazado_1077351" data-name="Trazado 1077351" d="M93.541,436.437s3.715,2.093,3.825,8.112" transform="translate(-69.637 -431.249)" fill="none" stroke="#57687e" stroke-linecap="round" stroke-linejoin="round" stroke-miterlimit="10" stroke-width="0.538"/>
                <path id="Trazado_1077352" data-name="Trazado 1077352" d="M95.328,439.14s-3.16-6.812-.146-6.976S95.328,439.14,95.328,439.14Z" transform="translate(-69.559 -432.161)" fill="none" stroke="#57687e" stroke-linecap="round" stroke-linejoin="round" stroke-miterlimit="10" stroke-width="0.538"/>
                <path id="Trazado_1077353" data-name="Trazado 1077353" d="M95.057,438.661s4.767-5.833,6.266-3.252S95.057,438.661,95.057,438.661Z" transform="translate(-69.287 -431.608)" fill="none" stroke="#57687e" stroke-linecap="round" stroke-linejoin="round" stroke-miterlimit="10" stroke-width="0.538"/>
              </g>
            </g>
          </g>
          <g id="Grupo_1208784" data-name="Grupo 1208784" transform="translate(9.365 148.271)">
            <path id="Trazado_1077354" data-name="Trazado 1077354" d="M101.5,169.938a89.09,89.09,0,0,1,11.008-2.782,65.146,65.146,0,0,0,26.972,4.8,60.76,60.76,0,0,0,26.052-6.691s1.938,10.143,10.731,6.291c6.336,20.774,17.67,29.041,24,49.974-.355.19-.708.4-1.065.545,0,0-1.345,7.211,1.142,21.827,3.538,20.789.443,53.148-2.606,57.308s-1.749,4.258-27.216-.279-67.761-5.33-78.995,1.149-8.2-16.837-7.812-17.2,2.237-13.523.126-24.925a14.87,14.87,0,0,1,1.332-9.2" transform="translate(-57.109 -162.41)" fill="#050504"/>
            <path id="Trazado_1077355" data-name="Trazado 1077355" d="M90.04,249.941c-9.45-1.184-20.679-11.818-28.063-20.026,3.24-15.761,8.609-31.628,17.883-41.876,7.611-8.41,13.611-14.684,26.508-18.923" transform="translate(-61.977 -161.588)" fill="#050504"/>
            <path id="Trazado_1077356" data-name="Trazado 1077356" d="M184.7,241.365s10.831-5.092,6.342-25.854l-18.671,6.873Z" transform="translate(-36.483 -151.695)" fill="#dd8865"/>
            <path id="Trazado_1077357" data-name="Trazado 1077357" d="M167.955,246.644c9.488-.838,21.108-11.055,28.8-18.987-2.645-15.868-7.414-31.92-16.3-42.5-7.288-8.683-13.049-15.171-25.778-19.879" transform="translate(-40.568 -162.407)" fill="#050504"/>
            <g id="Grupo_1208775" data-name="Grupo 1208775" transform="translate(51.296)">
              <path id="Trazado_1077358" data-name="Trazado 1077358" d="M135.145,178.263c22.478.411,33.541-14.713,33.654-14.872a.3.3,0,0,0-.075-.426.315.315,0,0,0-.431.074c-.118.164-12.028,16.414-36.3,14.453a71.246,71.246,0,0,1-27.876-7.961.313.313,0,0,0-.426.1.3.3,0,0,0,.1.42,71.926,71.926,0,0,0,28.147,8.046C133.033,178.19,134.1,178.244,135.145,178.263Z" transform="translate(-103.649 -162.911)" fill="#282822"/>
            </g>
            <g id="Grupo_1208776" data-name="Grupo 1208776" transform="translate(0.537 64.144)">
              <path id="Trazado_1077359" data-name="Trazado 1077359" d="M90.155,237.926a.31.31,0,0,0,.309-.24.306.306,0,0,0-.238-.364c-17.578-3.808-27.134-21.2-27.228-21.378a.312.312,0,0,0-.42-.126.3.3,0,0,0-.128.414c.1.177,9.782,17.819,27.645,21.688A.327.327,0,0,0,90.155,237.926Z" transform="translate(-62.413 -215.782)" fill="#282822"/>
            </g>
            <g id="Grupo_1208777" data-name="Grupo 1208777" transform="translate(27.893 68.605)">
              <path id="Trazado_1077360" data-name="Trazado 1077360" d="M85.773,245.654a.3.3,0,0,0,.124-.023.306.306,0,0,0,.169-.4c-.023-.056-2.293-5.857.96-25.418a.308.308,0,0,0-.257-.352.311.311,0,0,0-.356.252c-3.293,19.8-1.019,25.518-.92,25.752A.307.307,0,0,0,85.773,245.654Z" transform="translate(-84.637 -219.458)" fill="#282822"/>
            </g>
            <g id="Grupo_1208778" data-name="Grupo 1208778" transform="translate(30.77 13.557)">
              <path id="Trazado_1077361" data-name="Trazado 1077361" d="M87.279,222.722a.31.31,0,0,0,.313-.257c4.824-29.4,5.522-47.877,5.528-48.06a.309.309,0,0,0-.3-.317.314.314,0,0,0-.321.295c-.006.183-.7,18.626-5.521,47.983a.307.307,0,0,0,.257.351A.191.191,0,0,0,87.279,222.722Z" transform="translate(-86.974 -174.086)" fill="#282822"/>
            </g>
            <g id="Grupo_1208779" data-name="Grupo 1208779" transform="translate(28.254 84.563)">
              <path id="Trazado_1077362" data-name="Trazado 1077362" d="M84.93,232.612" transform="translate(-84.93 -232.612)" fill="#282822"/>
            </g>
            <g id="Grupo_1208780" data-name="Grupo 1208780" transform="translate(122.675 42.964)">
              <path id="Trazado_1077363" data-name="Trazado 1077363" d="M179.474,214.609a.313.313,0,0,0,.239-.1.3.3,0,0,0-.028-.432c-.139-.121-14.044-12.174-17.516-15.659a.316.316,0,0,0-.439,0,.3.3,0,0,0,0,.432c3.486,3.5,17.409,15.569,17.548,15.692A.324.324,0,0,0,179.474,214.609Z" transform="translate(-161.636 -198.324)" fill="#282822"/>
            </g>
            <g id="Grupo_1208781" data-name="Grupo 1208781" transform="translate(28.928 129.731)">
              <path id="Trazado_1077364" data-name="Trazado 1077364" d="M85.779,276.509a.31.31,0,0,0,.178-.053c.095-.062,9.744-6.3,31.588-5.991.112,0,.223,0,.335,0,9.439.172,23.411,1.963,36.93,3.694,18.666,2.39,36.3,4.648,40.763,2.528a.306.306,0,0,0,.145-.409.311.311,0,0,0-.415-.143c-4.3,2.043-21.842-.2-40.413-2.583-13.534-1.732-27.524-3.526-37-3.7l-.337-.006c-22.062-.315-31.847,6.031-31.943,6.1a.3.3,0,0,0-.084.423A.307.307,0,0,0,85.779,276.509Z" transform="translate(-85.477 -269.842)" fill="#282822"/>
            </g>
            <g id="Grupo_1208782" data-name="Grupo 1208782" transform="translate(102.293 89.919)">
              <path id="Trazado_1077365" data-name="Trazado 1077365" d="M145.383,266.476a.3.3,0,0,0,.165-.045,120.894,120.894,0,0,0,33.272-28.909.3.3,0,0,0-.052-.429.312.312,0,0,0-.436.051,120.293,120.293,0,0,1-33.1,28.763.3.3,0,0,0-.106.419A.311.311,0,0,0,145.383,266.476Z" transform="translate(-145.078 -237.026)" fill="#282822"/>
            </g>
            <g id="Grupo_1208783" data-name="Grupo 1208783" transform="translate(118.435 98.402)">
              <path id="Trazado_1077366" data-name="Trazado 1077366" d="M158.5,273.424a.312.312,0,0,0,.234-.1A66.824,66.824,0,0,0,174.5,244.4a.306.306,0,0,0-.225-.371.31.31,0,0,0-.375.223,66.24,66.24,0,0,1-15.629,28.659.3.3,0,0,0,.018.432A.319.319,0,0,0,158.5,273.424Z" transform="translate(-158.192 -244.019)" fill="#282822"/>
            </g>
          </g>
          <g id="Grupo_1208790" data-name="Grupo 1208790" transform="translate(25.248 6.882)">
            <path id="Trazado_1077367" data-name="Trazado 1077367" d="M87.037,81.062a16.189,16.189,0,0,0-11.36,10.289,15.858,15.858,0,0,0,2.772,14.959,5.819,5.819,0,0,1,1.29,1.963,5,5,0,0,1-.724,3.424c-1.638,3.444-3.152,7.156-2.731,10.937s3.437,7.544,7.3,7.533" transform="translate(-74.88 -38.975)" fill="none" stroke="#63453c" stroke-miterlimit="10" stroke-width="1.008"/>
            <path id="Trazado_1077368" data-name="Trazado 1077368" d="M162.894,88.7c-1.231-1.218-2.24-2.23-3.018-3.016,2.016,3.979,4.516,8.624,5.592,9.446,0,0,4.18,23.3,6.982,27.522s4.914-11.353,2.07-20.5c-1.678-5.4-3.2-8.079-4.173-9.377C168.208,92.026,164.833,90.621,162.894,88.7Z" transform="translate(-55.25 -37.989)" fill="#795948"/>
            <g id="Grupo_1208789" data-name="Grupo 1208789" transform="translate(0.272)">
              <path id="Trazado_1077369" data-name="Trazado 1077369" d="M178.2,88.015s8.862,17.258,11.63,43.5c2.16,20.475-12.312,42.216-37.5,46.438-23.677,3.968-49.442-2.953-60.348-35.146S88.834,83.293,118.4,72.86,169.856,68.2,178.2,88.015Z" transform="translate(-72.288 -41.814)" fill="#e7a17e"/>
              <path id="Trazado_1077370" data-name="Trazado 1077370" d="M131.225,135.789c-.329,3.513-6.007,5.87-12.684,5.262s-11.821-3.948-11.492-7.461,6.008-5.87,12.684-5.262S131.553,132.276,131.225,135.789Z" transform="translate(-67.726 -28.917)" fill="#dd8865"/>
              <path id="Trazado_1077371" data-name="Trazado 1077371" d="M172.373,126.411c1.123,3.351-3.129,7.746-9.5,9.817s-12.437,1.035-13.559-2.316,3.129-7.746,9.5-9.817S171.25,123.062,172.373,126.411Z" transform="translate(-58.002 -30.027)" fill="#dd8865"/>
              <g id="Grupo_1208785" data-name="Grupo 1208785">
                <path id="Trazado_1077372" data-name="Trazado 1077372" d="M136.643,79.21c-.149-.165-.245-.255-.245-.255S136.487,79.048,136.643,79.21Z" transform="translate(-60.945 -39.425)" fill="#795948"/>
                <path id="Trazado_1077373" data-name="Trazado 1077373" d="M198.872,71.235c1.525-7.79-5.576-3.907-5.576-3.907s1.654-6.564-3.631-9.955-15.7,1.609-19.923,2.042c0,0,6.4-7.828.556-12.086s-21.75,6.955-27.24,9.037c-11.707,4.438-13.6-1.9-33.19,5.483A23.379,23.379,0,0,0,97.856,72.564s1.193-15.39-3.427-14.685-3.3,19.918-3.3,19.918-11.917-3.952-12.538,1.285,7.681,9.474,7.681,9.474-17.822,12.306-5.561,23.969c0,0-8,8.726-4.9,18.086a6.278,6.278,0,0,0,4.878,3.972s-7.807,10.545,2.6,20.164,16.761,25.392,26.551,22.537-5.709-16.3-9.748-21.209S97.7,144.623,98.946,130.8,102.3,99.174,102.3,99.174s31.748,11.089,43.829,2.448c10.75-7.688,5.872-14.137,4.665-15.465-.156-.16-.245-.255-.245-.255s.1.091.245.255c1.707,1.746,12.245,12.043,21.879,10.431,7.429-1.242,3.844-8.49,3.844-8.49s1.31,2.771,2.932,5.973c.778.786,1.787,1.8,3.018,3.016,1.938,1.917,5.314,3.322,7.453,4.076a4.556,4.556,0,0,0-1.083-1.142s10.549,2.851,9.135-8.339c-.672-6.408-6.707-10.185-6.707-10.185A14.021,14.021,0,0,0,198.872,71.235Z" transform="translate(-75.101 -46.372)" fill="#795948"/>
              </g>
              <path id="Trazado_1077374" data-name="Trazado 1077374" d="M105.789,143.2l-7.6-18.652s-18.554-4.576-17.577,13.6S100.959,155.258,105.789,143.2Z" transform="translate(-73.836 -29.813)" fill="#e7a17e"/>
              <path id="Trazado_1077375" data-name="Trazado 1077375" d="M109.326,117.5s-4.546-4.16,3.442-10.763,11.139-5.652,12.834-2.935c1.546,2.48-.009,6.594-4.558,10.183C115.58,118.291,111.808,119.9,109.326,117.5Z" transform="translate(-67.494 -34.568)" fill="#795948"/>
              <path id="Trazado_1077376" data-name="Trazado 1077376" d="M167.382,108.958s2.528-5.583-7.445-8.573-12.5-.9-12.974,2.257c-.437,2.878,2.629,6.063,8.242,7.608C161.943,112.1,166.053,112.128,167.382,108.958Z" transform="translate(-58.514 -35.163)" fill="#795948"/>
              <path id="Trazado_1077377" data-name="Trazado 1077377" d="M124.152,121.8c.26,2.464-1.193,4.633-3.245,4.843s-3.925-1.617-4.185-4.081,1.193-4.633,3.245-4.843S123.892,119.336,124.152,121.8Z" transform="translate(-65.496 -31.162)"/>
              <path id="Trazado_1077378" data-name="Trazado 1077378" d="M157.763,117.313c.26,2.464-1.193,4.633-3.245,4.843s-3.925-1.617-4.186-4.083,1.193-4.633,3.245-4.843S157.5,114.848,157.763,117.313Z" transform="translate(-57.734 -32.119)"/>
              <g id="Grupo_1208786" data-name="Grupo 1208786" transform="translate(9.417 100.101)">
                <path id="Trazado_1077379" data-name="Trazado 1077379" d="M99.129,143.855a.38.38,0,0,1-.155-.017.363.363,0,0,1-.233-.461c.031-.092,3.036-9.185-3.543-12.6a8.3,8.3,0,0,0-6.5-.831,10.138,10.138,0,0,0-5.248,4.7.373.373,0,0,1-.494.169.36.36,0,0,1-.172-.485,10.7,10.7,0,0,1,5.676-5.071,9.008,9.008,0,0,1,7.078.876c7.137,3.7,3.933,13.376,3.9,13.474A.371.371,0,0,1,99.129,143.855Z" transform="translate(-82.751 -128.88)" fill="#634927"/>
              </g>
              <g id="Grupo_1208787" data-name="Grupo 1208787" transform="translate(15.584 105.646)">
                <path id="Trazado_1077380" data-name="Trazado 1077380" d="M88.168,136.721a.376.376,0,0,1-.31-.115.362.362,0,0,1,.022-.516c.057-.052,5.756-5.121,10.81-1.073a.36.36,0,0,1,.054.512.372.372,0,0,1-.519.053c-4.559-3.653-9.79,1-9.843,1.043A.376.376,0,0,1,88.168,136.721Z" transform="translate(-87.761 -133.45)" fill="#634927"/>
              </g>
              <g id="Grupo_1208788" data-name="Grupo 1208788" transform="translate(70.757 60.758)">
                <path id="Trazado_1077381" data-name="Trazado 1077381" d="M143.986,132.964a.371.371,0,0,1-.357-.178.362.362,0,0,1,.132-.5,9.9,9.9,0,0,0,3.858-4.388c.809-2.141.167-5.168-1.344-6.351a2.635,2.635,0,0,0-3.257.138c-.038.025-.1.069-.181.127-4.252,3.052-6.414,2.1-7.482.761-1.957-2.458-2.695-23.371-2.772-25.746a.37.37,0,0,1,.74-.023c.208,6.391,1.084,23.4,2.615,25.319,1.259,1.581,3.434,1.28,6.466-.9.094-.067.164-.118.208-.147a3.366,3.366,0,0,1,4.125-.1c1.763,1.379,2.5,4.732,1.578,7.176a10.455,10.455,0,0,1-4.178,4.762A.355.355,0,0,1,143.986,132.964Z" transform="translate(-132.583 -96.452)" fill="#634927"/>
              </g>
            </g>
            <path id="Trazado_1077382" data-name="Trazado 1077382" d="M92.006,88.818a113.657,113.657,0,0,0,21.313,8.21,70.6,70.6,0,0,0,11.194,2.049,38.8,38.8,0,0,0,11.272-.406A23.337,23.337,0,0,0,141.1,96.88a14.9,14.9,0,0,0,4.5-3.181,10.422,10.422,0,0,0,2.575-4.713,13.113,13.113,0,0,0,.074-5.429,24.24,24.24,0,0,0-4.68-10.021,20.052,20.052,0,0,0-1.841-2.09,6.18,6.18,0,0,0-2.094-1.489c-.167-.042-.215-.007-.175-.029a.565.565,0,0,0-.031.258,3.724,3.724,0,0,0,.361,1.174,16.365,16.365,0,0,0,1.4,2.379,52.517,52.517,0,0,0,7.563,8.414,48.4,48.4,0,0,0,9.152,6.693A24.215,24.215,0,0,0,163.1,91a11.465,11.465,0,0,0,5.453.268,5.825,5.825,0,0,0,3.957-3.244,12.407,12.407,0,0,0,1.083-5.32,23.056,23.056,0,0,0-.663-5.52,17.044,17.044,0,0,0-2.031-5.12,4.316,4.316,0,0,0-.832-.962,1.19,1.19,0,0,0-.441-.239c-.172-.017-.08-.019-.128.007a2.14,2.14,0,0,0-.127,1.066,10.3,10.3,0,0,0,.186,1.342,32.473,32.473,0,0,0,1.685,5.342,48.928,48.928,0,0,0,5.328,9.932,22.9,22.9,0,0,0,3.708,4.17,6.789,6.789,0,0,0,4.79,1.955h.01a.547.547,0,1,1,.113,1.087h-.007a7.832,7.832,0,0,1-5.612-2.227,23.931,23.931,0,0,1-3.871-4.38A49.959,49.959,0,0,1,170.3,78.992a33.495,33.495,0,0,1-1.716-5.521,11.452,11.452,0,0,1-.2-1.475,2.75,2.75,0,0,1,.323-1.7,1,1,0,0,1,.56-.382,1.241,1.241,0,0,1,.6,0,2.144,2.144,0,0,1,.822.426,5.194,5.194,0,0,1,1.043,1.187,17.939,17.939,0,0,1,2.174,5.427,24,24,0,0,1,.7,5.756,13.354,13.354,0,0,1-1.177,5.748,6.858,6.858,0,0,1-4.623,3.782,12.486,12.486,0,0,1-5.965-.268,25.212,25.212,0,0,1-5.426-2.241,49.375,49.375,0,0,1-9.363-6.827,53.475,53.475,0,0,1-7.732-8.585,17.289,17.289,0,0,1-1.492-2.539,4.6,4.6,0,0,1-.453-1.541,1.354,1.354,0,0,1,.348-1.069,1.233,1.233,0,0,1,1.184-.239,6.888,6.888,0,0,1,2.584,1.757,20.747,20.747,0,0,1,1.944,2.2,25.261,25.261,0,0,1,4.9,10.474,14.176,14.176,0,0,1-.079,5.871,11.5,11.5,0,0,1-2.83,5.2,16.714,16.714,0,0,1-4.809,3.441,26.626,26.626,0,0,1-5.54,2,37.046,37.046,0,0,1-11.7.818,62.168,62.168,0,0,1-11.483-2.107,97.677,97.677,0,0,1-21.426-8.82.543.543,0,0,1-.212-.744.558.558,0,0,1,.735-.218Z" transform="translate(-71.115 -41.573)" fill="#63453c"/>
          </g>
          <g id="Grupo_1208792" data-name="Grupo 1208792" transform="translate(93.486 127.825)">
            <g id="Grupo_1208791" data-name="Grupo 1208791" transform="translate(0)">
              <path id="Trazado_1077383" data-name="Trazado 1077383" d="M151.213,176.743l4.888,35.13,30.2-6.729-24.461-46.392s-2.972-14.3-6.346-12.545-2.952,11.3-2.952,11.3-21.944-5.075-22.226-2,13.583,6.164,13.583,6.164-9.985-1.891-9.162,2.268c.583,2.431,8.066,2.509,8.066,2.509s-7.8.16-7.343,2.773,7.617,1.89,7.617,1.89-6.323.756-5.66,3.414,5.666,3.122,13.673,1.87h0" transform="translate(-130.316 -146.059)" fill="#e7a17e"/>
              <path id="Trazado_1077384" data-name="Trazado 1077384" d="M181.467,194.76s23.426,39,7.979,52.652-26.537,2.63-30.209-10.082-7.974-35.841-7.974-35.841" transform="translate(-125.478 -135.674)" fill="#e7a17e"/>
            </g>
            <path id="Trazado_1077385" data-name="Trazado 1077385" d="M171.933,177.889l-10.09-19.135s-2.972-14.3-6.346-12.545-2.952,11.3-2.952,11.3-21.944-5.075-22.226-2S143.9,161.67,143.9,161.67s-9.985-1.891-9.162,2.268c.583,2.431,8.066,2.509,8.066,2.509s-7.8.16-7.343,2.773,7.617,1.89,7.617,1.89-6.323.756-5.66,3.414,5.666,3.122,13.673,1.87h0" transform="translate(-130.316 -146.058)" fill="none" stroke="#634927" stroke-miterlimit="10" stroke-width="0.529"/>
          </g>
          <path id="Trazado_1077386" data-name="Trazado 1077386" d="M173.407,236.522" transform="translate(-26.878 1.056)" fill="#e09f25"/>
          <g id="Grupo_1208793" data-name="Grupo 1208793" transform="translate(96.404 109.235)">
            <path id="Trazado_1077387" data-name="Trazado 1077387" d="M132.691,133.9a9.83,9.83,0,0,1,.423-3.168,51.458,51.458,0,0,1,15.514,3.45,13.688,13.688,0,0,1-1.571,3.193A38.951,38.951,0,0,0,132.691,133.9Z" transform="translate(-132.686 -130.736)"/>
            <path id="Trazado_1077388" data-name="Trazado 1077388" d="M147.056,136.823c-1.47,2.2-4.055,4.565-8.13,3.529-5.026-1.279-6.158-4.519-6.236-7.005A38.95,38.95,0,0,1,147.056,136.823Z" transform="translate(-132.686 -130.179)" fill="#7c3645"/>
          </g>
        </g>
      </g>
      <g id="Grupo_1208800" data-name="Grupo 1208800" transform="translate(187.114 27.7)">
        <g transform="matrix(1, 0, 0, 1, -122.53, -23.74)" filter="url(#Trazado_1077390)">
          <path id="Trazado_1077390-2" data-name="Trazado 1077390" d="M243.417,80.442h-53.2c-3.27,0-6.758.159-6.758,4.921s-.738,34.41-.082,38.9c.544,3.73,2.48,5.543,10.547,5.7s44.478-.112,48.617,0c2.617.071,7.522.071,7.849-5.556.333-5.729.243-33.093.209-38.252C250.637,80.046,243.417,80.442,243.417,80.442Z" transform="translate(-60.58 -56.69)" fill="#bbdbef"/>
        </g>
        <path id="Trazado_1077391" data-name="Trazado 1077391" d="M197.454,122.106s-.424,8.488-3.819,14.854c0,0,10.822-1.91,14.218-16.34Z" transform="translate(-181.769 -75.32)" fill="#bbdbef"/>
        <g id="Grupo_1208799" data-name="Grupo 1208799" transform="translate(19.723 8.224)">
          <g id="Grupo_1208796" data-name="Grupo 1208796" transform="translate(0 26.788)">
            <path id="Trazado_1077392" data-name="Trazado 1077392" d="M201.241,117.8c.614,0,4.438.07,5.018.008.481-.052.715-.233.735-.991s-.015-4.177,0-4.566c.009-.246.009-.707-.717-.737s-4.269-.023-4.934-.019a.643.643,0,0,0-.737.674v5c0,.307.021.636.636.636" transform="translate(-200.604 -111.494)" fill="#fff"/>
          </g>
          <g id="Grupo_1208797" data-name="Grupo 1208797">
            <path id="Trazado_1077393" data-name="Trazado 1077393" d="M201.241,110.3c.614,0,4.438.07,5.018.008.481-.051.715-.233.735-.991s-.015-20.441,0-20.83c.009-.246.009-.707-.717-.737s-4.269-.023-4.934-.019a.644.644,0,0,0-.737.675v21.26c0,.307.021.634.636.634" transform="translate(-200.604 -87.732)" fill="#fff"/>
          </g>
          <g id="Grupo_1208798" data-name="Grupo 1208798" transform="translate(12.321 0)">
            <path id="Trazado_1077394" data-name="Trazado 1077394" d="M218.409,110.962a.966.966,0,0,1-1.057-1.247c.04-.222.083-4.969.133-5.171,1.095-4.463,4.584-4.138,5.344-7.824a1.957,1.957,0,0,0-1.851-2.493,2.7,2.7,0,0,0-2.907,2.531c-.114.755-.49,1.095-1.247.944l-4.305-.944a1.109,1.109,0,0,1-.981-1.247c.225-2.72,1.661-7.78,9.44-7.78,8.459,0,8.762,6.685,8.723,7.818,0,5.948-3.945,6.728-5.508,9.471-.085.148-.161,4.836-.231,5a1.253,1.253,0,0,1-1.285.944h-4.267Zm-.114,3.3a1.017,1.017,0,0,0-1.133,1.133v4.23a1.034,1.034,0,0,0,1.133,1.133h4.23a1.016,1.016,0,0,0,1.133-1.133V115.4a1,1,0,0,0-1.133-1.133Z" transform="translate(-211.533 -87.732)" fill="#fff"/>
          </g>
        </g>
      </g>
    </g>
  </g>
</svg>
