<svg xmlns="http://www.w3.org/2000/svg" xmlns:xlink="http://www.w3.org/1999/xlink" width="103" height="103" viewBox="0 0 103 103">
  <defs>
    <filter id="Trazado_978624" x="0" y="0" width="103" height="103" filterUnits="userSpaceOnUse">
      <feOffset dy="3" input="SourceAlpha"/>
      <feGaussianBlur stdDeviation="3" result="blur"/>
      <feFlood flood-opacity="0.161"/>
      <feComposite operator="in" in2="blur"/>
      <feComposite in="SourceGraphic"/>
    </filter>
  </defs>
  <g id="Grupo_1208585" data-name="Grupo 1208585" transform="translate(9 6)">
    <g id="Grupo_1180764" data-name="Grupo 1180764" transform="translate(0 0)">
      <g id="Grupo_1179463" data-name="Grupo 1179463">
        <g id="Grupo_1144531" data-name="Grupo 1144531">
          <g transform="matrix(1, 0, 0, 1, -9, -6)" filter="url(#Trazado_978624)">
            <g id="Trazado_978624-2" data-name="Trazado 978624" transform="translate(9 6)" fill="#edf3fc">
              <path d="M 42.5 83.4998779296875 C 36.96437835693359 83.4998779296875 31.59512901306152 82.41605377197266 26.54141235351562 80.27851104736328 C 21.65934181213379 78.21356964111328 17.27447128295898 75.25712585449219 13.50862312316895 71.49127960205078 C 9.742764472961426 67.72542572021484 6.786305904388428 63.34056854248047 4.721364498138428 58.45849990844727 C 2.583823442459106 53.40479278564453 1.5 48.03555679321289 1.5 42.49993515014648 C 1.5 36.96431350708008 2.583823442459106 31.5950756072998 4.721364498138428 26.5413703918457 C 6.786305904388428 21.65931129455566 9.742764472961426 17.27445220947266 13.50862312316895 13.50860595703125 C 17.27447128295898 9.742758750915527 21.65932846069336 6.786299705505371 26.54141235351562 4.721370220184326 C 31.59512901306152 2.583829164505005 36.96437835693359 1.500005722045898 42.5 1.500005722045898 C 48.03562164306641 1.500005722045898 53.40486907958984 2.583829164505005 58.45858764648438 4.721370220184326 C 63.34067153930664 6.786299705505371 67.72553253173828 9.742758750915527 71.49137878417969 13.50860595703125 C 75.25723266601562 17.27445220947266 78.21369171142578 21.65931129455566 80.27863311767578 26.5413703918457 C 82.41617584228516 31.5950756072998 83.5 36.96431350708008 83.5 42.49993515014648 C 83.5 48.03555679321289 82.41617584228516 53.40479278564453 80.27863311767578 58.45849990844727 C 78.21369171142578 63.34056854248047 75.25723266601562 67.72542572021484 71.49137878417969 71.49127960205078 C 67.72553253173828 75.25712585449219 63.34066009521484 78.21356964111328 58.45858764648438 80.27851104736328 C 53.40486907958984 82.41605377197266 48.03562164306641 83.4998779296875 42.5 83.4998779296875 Z" stroke="none"/>
              <path d="M 42.5 3 C 37.16621398925781 3 31.99356079101562 4.043960571289062 27.125732421875 6.102867126464844 C 22.42245483398438 8.092185974121094 18.19785308837891 10.94069671630859 14.56928253173828 14.56926727294922 C 10.94069671630859 18.19784545898438 8.092185974121094 22.42242813110352 6.102867126464844 27.12569427490234 C 4.043960571289062 31.99352264404297 3 37.16616058349609 3 42.49993515014648 C 3 47.83370971679688 4.043960571289062 53.00634765625 6.102867126464844 57.87417602539062 C 8.092185974121094 62.57744216918945 10.94069671630859 66.80203247070312 14.56928253173828 70.43060302734375 C 18.19785308837891 74.05917358398438 22.42245483398438 76.90768432617188 27.125732421875 78.89700317382812 C 31.99356079101562 80.95590972900391 37.16621398925781 81.99987030029297 42.5 81.99987030029297 C 47.83378601074219 81.99987030029297 53.00643920898438 80.95590972900391 57.87425231933594 78.89700317382812 C 62.57753372192383 76.90768432617188 66.80213165283203 74.05917358398438 70.43071746826172 70.43060302734375 C 74.05929565429688 66.80203247070312 76.90781402587891 62.57744216918945 78.89711761474609 57.87417602539062 C 80.95603942871094 53.00634765625 82 47.83370971679688 82 42.49993515014648 C 82 37.16616058349609 80.95603942871094 31.99352264404297 78.89711761474609 27.12569427490234 C 76.90781402587891 22.42242813110352 74.05929565429688 18.19784545898438 70.43071746826172 14.56926727294922 C 66.80213165283203 10.94069671630859 62.57753372192383 8.092185974121094 57.87425231933594 6.102867126464844 C 53.00643920898438 4.043960571289062 47.83378601074219 3 42.5 3 M 42.5 0 C 65.97209167480469 0 85 19.02787017822266 85 42.49993515014648 C 85 65.97200012207031 65.97209167480469 84.99987030029297 42.5 84.99987030029297 C 19.02789306640625 84.99987030029297 0 65.97200012207031 0 42.49993515014648 C 0 19.02787017822266 19.02789306640625 0 42.5 0 Z" stroke="none" fill="#5692e8"/>
            </g>
          </g>
        </g>
      </g>
    </g>
    <g id="unidad" transform="translate(1.151 2.122)">
      <g id="Grupo_1208584" data-name="Grupo 1208584" transform="translate(1.214 1.214)">
        <path id="Trazado_1077019" data-name="Trazado 1077019" d="M244.637,252.593l-6.106-.486a9.483,9.483,0,0,0,2.894-.454,3.035,3.035,0,0,0,1.44-2.61,2.817,2.817,0,0,0-2.786-3.013h-5.153l-14.3-1.619.872-5.894a2.736,2.736,0,0,0-1.812-3.887c-.673-.189-1.391-.246-1.778.337l-7.917,12.8.959.917c.582.387.525.457.337,1.13a3.205,3.205,0,0,1-4.211,2.136l-7.189-4.109-1.619,17.771h10.882l2.2,3.126a3.76,3.76,0,0,0,3.075,1.6h17.863l3.237-.324a2.572,2.572,0,0,0,2.783-2.774,2.773,2.773,0,0,0-2.715-2.98h1.321l3.237-.162a2.459,2.459,0,0,0,2.44-1.613,3.026,3.026,0,0,0,.275-1.264,2.779,2.779,0,0,0-2.715-3.039h1.321l3.237-.162a2.459,2.459,0,0,0,2.44-1.613,3.028,3.028,0,0,0,.274-1.29C247.409,253.441,246.317,252.593,244.637,252.593Z" transform="translate(-167.478 -197.755)" fill="#d88a55"/>
        <path id="Trazado_1077020" data-name="Trazado 1077020" d="M93.454,216.322,80.3,208.186l-.472.764a1.612,1.612,0,0,1-1.778.66,3.205,3.205,0,0,1-2.136-4.211l4.433-9.131L62.8,197.887v9.678l-3.126,2.2a3.76,3.76,0,0,0-1.6,3.075v21.1a3.094,3.094,0,0,0,3.1,3.107c.826-.016,1.247-.684,1.785-1.233s1.195-.976,1.195-1.806v4.558A3.037,3.037,0,0,0,67.2,241.6a2.592,2.592,0,0,0,2.036-1.286c.425-.523,1-1.027,1-1.753v4.558a3.037,3.037,0,0,0,3.064,3.039,2.828,2.828,0,0,0,2.69-3.109l.324-4.488a3.039,3.039,0,0,0,1.775,2.764c.392.18.829-.045,1.29-.049a2.556,2.556,0,0,0,2.69-2.786l.324-21.072,7.513,2.814a3.205,3.205,0,0,0,4.211-2.136A1.612,1.612,0,0,0,93.454,216.322Z" transform="translate(-49.983 -165.712)" fill="#f6a96c"/>
        <g id="Grupo_1208581" data-name="Grupo 1208581" transform="translate(22.484 30.556)">
          <path id="Trazado_1077021" data-name="Trazado 1077021" d="M149.3,209.61a1.612,1.612,0,0,0,1.778-.66l.083-.135a3.2,3.2,0,0,1-.76-3.415l4.757-9.131-5.18,1.619-2.814,7.513A3.205,3.205,0,0,0,149.3,209.61Z" transform="translate(-146.956 -196.268)" fill="#ea9b58"/>
          <path id="Trazado_1077022" data-name="Trazado 1077022" d="M182.465,326.949a1.619,1.619,0,0,0-1.619,1.619v19.454a3.137,3.137,0,0,1-1.433,2.633,3,3,0,0,0,1.71.475,3.091,3.091,0,0,0,2.96-3.118V326.949Z" transform="translate(-174.159 -305.796)" fill="#ea9b58"/>
        </g>
        <path id="Trazado_1077023" data-name="Trazado 1077023" d="M44.855,78.058a1.612,1.612,0,0,1-.66-1.778A3.205,3.205,0,0,1,48.4,74.144l7.513,2.814,1.619-16.153H46.654l-2.2-3.126a3.76,3.76,0,0,0-3.075-1.6H20.28a3.094,3.094,0,0,0-3.107,3.1,3.039,3.039,0,0,0,3.038,2.98l-4.558.162a2.9,2.9,0,0,0-2.764,1.613,3.04,3.04,0,0,0,2.764,4.3L11.1,68.4a2.9,2.9,0,0,0-2.764,1.613,3.029,3.029,0,0,0-.275,1.29,3.085,3.085,0,0,0,3.109,3.013h4.488a3.19,3.19,0,0,0-1.6.616,2.669,2.669,0,0,0-1.165,1.159,3.027,3.027,0,0,0-.275,1.29,3.085,3.085,0,0,0,3.109,3.013H36.8l-2.814,7.513a3.205,3.205,0,0,0,2.136,4.211,1.612,1.612,0,0,0,1.778-.66L44.918,80.1l.572-1.448Z" transform="translate(-8.056 -48.218)" fill="#fed2a4"/>
        <path id="Trazado_1077024" data-name="Trazado 1077024" d="M288.588,85.263h-4.856V100.2l3.237,1.213Z" transform="translate(-239.108 -72.676)" fill="#ffbd86"/>
        <path id="Trazado_1077025" data-name="Trazado 1077025" d="M215.219,170.518a1.612,1.612,0,0,1-.66-1.778,2.785,2.785,0,0,1,1.2-1.931l-.548-.205A3.205,3.205,0,0,0,211,168.74a1.612,1.612,0,0,0,.66,1.778l3.3,2.041.9-1.448Z" transform="translate(-178.097 -140.678)" fill="#ffbd86"/>
        <path id="Trazado_1077026" data-name="Trazado 1077026" d="M312.907,228.518l-2,5.326a1.619,1.619,0,0,0,1.516,2.187h.9L320,227.209c.659-1.758-3.662-4.1-5.47-4.61a2.857,2.857,0,0,0-2.315,1.134l-.064,1.37A3.2,3.2,0,0,1,312.907,228.518Z" transform="translate(-261.801 -187.755)" fill="#c57a44"/>
        <g id="Grupo_1208582" data-name="Grupo 1208582" transform="translate(11.747 61.363)">
          <path id="Trazado_1077027" data-name="Trazado 1077027" d="M158.149,387.8a1.214,1.214,0,0,0-2.428,0v17.808a3.106,3.106,0,0,0,2.428-3.045v-4.488h0Z" transform="translate(-143.566 -386.587)" fill="#d88a55"/>
          <path id="Trazado_1077028" data-name="Trazado 1077028" d="M119.388,386.587a1.214,1.214,0,0,0-1.214,1.214v13.253a3.04,3.04,0,0,0,2.428-2.977V387.8A1.214,1.214,0,0,0,119.388,386.587Z" transform="translate(-112.096 -386.587)" fill="#d88a55"/>
          <path id="Trazado_1077029" data-name="Trazado 1077029" d="M83.055,393.52V387.8a1.214,1.214,0,0,0-2.428,0v8.693A3.038,3.038,0,0,0,83.055,393.52Z" transform="translate(-80.627 -386.587)" fill="#d88a55"/>
        </g>
        <path id="Trazado_1077030" data-name="Trazado 1077030" d="M49.854,171.15a1.214,1.214,0,1,0,0-2.428H39.577A3.033,3.033,0,0,0,36.6,171.15H49.854Z" transform="translate(-31.98 -142.625)" fill="#ffbd86"/>
        <path id="Trazado_1077031" data-name="Trazado 1077031" d="M26.251,133.6a1.214,1.214,0,0,0,0-2.428H11.417A3.034,3.034,0,0,0,8.44,133.6Z" transform="translate(-8.378 -111.156)" fill="#ffbd86"/>
        <path id="Trazado_1077032" data-name="Trazado 1077032" d="M51.069,94.842a1.214,1.214,0,0,0-1.214-1.214H39.578A3.033,3.033,0,0,0,36.6,96.056H49.854A1.214,1.214,0,0,0,51.069,94.842Z" transform="translate(-31.981 -79.686)" fill="#ffbd86"/>
        <path id="Trazado_1077033" data-name="Trazado 1077033" d="M231.657,37.34l13.159,8.136.472-.764a1.612,1.612,0,0,1,1.778-.66,3.205,3.205,0,0,1,2.136,4.211l-2.814,7.513h15.6V46.1l3.126-2.2a3.759,3.759,0,0,0,1.6-3.075v-21.1a2.836,2.836,0,0,0-2.774-3.107,3.039,3.039,0,0,0-2.98,3.038l-.324-4.558a2.784,2.784,0,0,0-1.451-2.764,3.04,3.04,0,0,0-4.3,2.764l-.324-4.558A2.784,2.784,0,0,0,253.1,7.775a3.027,3.027,0,0,0-1.29-.275A3.085,3.085,0,0,0,248.8,10.61V15.1c0-.587-.49-.973-.778-1.437-.314-.507-.45-1.077-1-1.327a3.027,3.027,0,0,0-1.29-.275,3.085,3.085,0,0,0-3.013,3.109V36.241l-7.513-2.814A3.205,3.205,0,0,0,231,35.563,1.613,1.613,0,0,0,231.657,37.34Z" transform="translate(-194.859 -7.5)" fill="#fff3de"/>
        <path id="Trazado_1077034" data-name="Trazado 1077034" d="M327.493,42.681a1.214,1.214,0,0,0,1.214-1.214V26.7h0v4.488a3.034,3.034,0,0,0-2.428-2.977V41.466a1.214,1.214,0,0,0,1.214,1.214Z" transform="translate(-274.768 -23.594)" fill="#ffe5c2"/>
        <path id="Trazado_1077035" data-name="Trazado 1077035" d="M365.039,26.908a1.214,1.214,0,0,0,1.214-1.214V10.858a3.034,3.034,0,0,0-2.428-2.975V25.694A1.214,1.214,0,0,0,365.039,26.908Z" transform="translate(-306.237 -7.821)" fill="#ffe5c2"/>
        <path id="Trazado_1077036" data-name="Trazado 1077036" d="M402.586,50.511A1.214,1.214,0,0,0,403.8,49.3V39.021a3.033,3.033,0,0,0-2.428-2.976V49.3A1.214,1.214,0,0,0,402.586,50.511Z" transform="translate(-337.706 -31.424)" fill="#ffe5c2"/>
        <g id="Grupo_1208583" data-name="Grupo 1208583" transform="translate(64.211 9.116)">
          <path id="Trazado_1077037" data-name="Trazado 1077037" d="M409.6,63.82a3.021,3.021,0,0,0-1.575.479,3.141,3.141,0,0,1,1.435,2.627v21.1a3.759,3.759,0,0,1-1.6,3.075l-3.126,2.2v9.678h3.237V93.3l3.126-2.2a3.759,3.759,0,0,0,1.6-3.075v-21.1A3.094,3.094,0,0,0,409.6,63.82Z" transform="translate(-404.737 -63.82)" fill="#ffe5c2"/>
        </g>
        <path id="Trazado_1077038" data-name="Trazado 1077038" d="M402.006,311.809a3.141,3.141,0,0,1,1.486.374.407.407,0,0,1,.224.131,3.024,3.024,0,0,1-1.639,5.572h-3.237a3.036,3.036,0,0,0,3.039-3.064c0-.011,0-.022,0-.034a.569.569,0,0,0-.572-.552H387.293a1.248,1.248,0,0,1-1.264-1.177,1.214,1.214,0,0,1,1.213-1.251h7.038a3.037,3.037,0,0,0,3.039-3.064,3.085,3.085,0,0,0-3.109-3.013h3.228a3.091,3.091,0,0,1,3.118,2.96,3.038,3.038,0,0,1-3.038,3.117Z" transform="translate(-324.846 -257.456)" fill="#c57a44"/>
        <path id="Trazado_1077039" data-name="Trazado 1077039" d="M387.243,380.825a1.214,1.214,0,0,0-1.213,1.251,1.248,1.248,0,0,0,1.264,1.177h9.453a.57.57,0,0,1,.572.557c0,.018,0,.036,0,.054a3.037,3.037,0,0,1-3.039,3.039h3.237a3.037,3.037,0,0,0,3.038-3.117,3.091,3.091,0,0,0-3.118-2.96Z" transform="translate(-324.847 -320.395)" fill="#c57a44"/>
        <path id="Trazado_1077040" data-name="Trazado 1077040" d="M392.96,418.37A3.039,3.039,0,0,1,396,421.52a3.086,3.086,0,0,1-3.11,2.928h-3.233a3.094,3.094,0,0,0,3.107-3.1s0,0,0-.006a.567.567,0,0,0-.571-.546h-4.9a1.248,1.248,0,0,1-1.264-1.177,1.214,1.214,0,0,1,1.213-1.251Z" transform="translate(-324.846 -351.862)" fill="#c57a44"/>
      </g>
      <path id="Trazado_1077041" data-name="Trazado 1077041" d="M78.929,54.352h-.645l.026-.055a4.222,4.222,0,0,0,.385-1.805,4.3,4.3,0,0,0-4.323-4.217H70.432V40.441l2.611-1.835a4.979,4.979,0,0,0,2.113-4.068v-6.22a1.214,1.214,0,0,0-2.428,0v6.22a2.548,2.548,0,0,1-1.081,2.082l-3.127,2.2a1.214,1.214,0,0,0-.516.993v8.464H55.049l2.2-5.873A4.42,4.42,0,0,0,54.3,36.6a2.815,2.815,0,0,0-2.951.935l-12.124-7.5a.4.4,0,0,1-.152-.431,1.991,1.991,0,0,1,2.616-1.327L49.2,31.091a1.214,1.214,0,0,0,1.64-1.137V8.881a1.867,1.867,0,0,1,1.809-1.9,1.824,1.824,0,0,1,1.84,1.825V19.087a1.214,1.214,0,1,0,2.428,0V4.323a1.866,1.866,0,0,1,1.809-1.9,1.823,1.823,0,0,1,1.841,1.825V19.087a1.214,1.214,0,1,0,2.428,0V8.811a1.825,1.825,0,1,1,3.65,0V19.086a1.214,1.214,0,0,0,2.428,0V13.369a1.833,1.833,0,0,1,1.789-1.824,1.79,1.79,0,0,1,1.281.522,1.935,1.935,0,0,1,.58,1.371v9.59a1.214,1.214,0,0,0,2.428,0v-9.59a4.377,4.377,0,0,0-1.307-3.1,4.187,4.187,0,0,0-4.77-.8V8.811a4.265,4.265,0,0,0-2.483-3.868A4.255,4.255,0,0,0,63,4.969V4.252a4.253,4.253,0,1,0-8.506.071v.645l-.055-.026a4.133,4.133,0,0,0-1.805-.385,4.3,4.3,0,0,0-4.218,4.323v3.706H41L39.162,9.977a4.979,4.979,0,0,0-4.068-2.113h-21.1a4.377,4.377,0,0,0-3.1,1.307,4.187,4.187,0,0,0-.8,4.77H9.366A4.266,4.266,0,0,0,5.5,16.424a4.257,4.257,0,0,0,.027,3.595H4.808a4.253,4.253,0,1,0,.071,8.506h.645L5.5,28.58a4.221,4.221,0,0,0-.385,1.805A4.3,4.3,0,0,0,9.437,34.6h3.939v7.833l-2.61,1.835a4.979,4.979,0,0,0-2.113,4.069v21.1a4.377,4.377,0,0,0,1.307,3.1,4.187,4.187,0,0,0,4.77.8v.721a4.265,4.265,0,0,0,2.483,3.868,4.256,4.256,0,0,0,3.595-.027v.717a4.266,4.266,0,0,0,2.483,3.868,4.215,4.215,0,0,0,1.769.385H25.1a4.3,4.3,0,0,0,4.217-4.323v-.645l.055.026a4.256,4.256,0,0,0,1.806.385A4.3,4.3,0,0,0,35.391,74V70.29H42.81L44.646,72.9a4.979,4.979,0,0,0,4.068,2.113h4.011a1.214,1.214,0,1,0,0-2.428H48.714A2.549,2.549,0,0,1,46.632,71.5l-2.2-3.126a1.214,1.214,0,0,0-.993-.516H35.392V54.675l5.873,2.2A4.419,4.419,0,0,0,47.07,53.93a2.817,2.817,0,0,0-1.12-3.089l7.267-11.753a.4.4,0,0,1,.431-.152,1.991,1.991,0,0,1,1.327,2.616l-2.814,7.513A1.214,1.214,0,0,0,53.3,50.7H74.371a1.866,1.866,0,0,1,1.9,1.809,1.824,1.824,0,0,1-1.825,1.84H64.166a1.214,1.214,0,1,0,0,2.428H78.929a1.867,1.867,0,0,1,1.9,1.809,1.81,1.81,0,0,1-.164.775A1.832,1.832,0,0,1,79,60.431H64.166a1.214,1.214,0,1,0,0,2.428H74.441a1.827,1.827,0,0,1,1.825,1.825,1.807,1.807,0,0,1-.164.759,1.832,1.832,0,0,1-1.661,1.066H64.166a1.214,1.214,0,1,0,0,2.428h5.717a1.833,1.833,0,0,1,1.824,1.789,1.773,1.773,0,0,1-.522,1.281,1.934,1.934,0,0,1-1.371.58h-11.8a1.214,1.214,0,0,0,0,2.428h11.8a4.377,4.377,0,0,0,3.1-1.307,4.187,4.187,0,0,0,.8-4.77h.721a4.266,4.266,0,0,0,3.868-2.483,4.257,4.257,0,0,0-.027-3.595H79a4.254,4.254,0,1,0-.071-8.507ZM7.542,30.365a1.824,1.824,0,0,1,1.825-1.84H19.642a1.214,1.214,0,1,0,0-2.428H4.879a1.866,1.866,0,0,1-1.9-1.809,1.809,1.809,0,0,1,.164-.775,1.831,1.831,0,0,1,1.661-1.066H19.642a1.214,1.214,0,1,0,0-2.428H9.367a1.827,1.827,0,0,1-1.825-1.825,1.807,1.807,0,0,1,.164-.759,1.832,1.832,0,0,1,1.661-1.066H19.642a1.214,1.214,0,1,0,0-2.428H13.925A1.833,1.833,0,0,1,12.1,12.152a1.773,1.773,0,0,1,.522-1.281,1.934,1.934,0,0,1,1.371-.58h21.1a2.548,2.548,0,0,1,2.082,1.081l2.2,3.126a1.214,1.214,0,0,0,.993.516h8.049V28.2L42.544,26a4.419,4.419,0,0,0-5.805,2.945,2.817,2.817,0,0,0,1.12,3.089L30.591,43.791a.4.4,0,0,1-.431.152,1.991,1.991,0,0,1-1.327-2.616l2.814-7.513a1.214,1.214,0,0,0-1.137-1.64H9.437A1.867,1.867,0,0,1,7.542,30.365Zm37.19,22.909A1.991,1.991,0,0,1,42.116,54.6L34.6,51.786a1.214,1.214,0,0,0-1.64,1.137V74a1.867,1.867,0,0,1-1.809,1.9h-.016a1.806,1.806,0,0,1-.759-.164,1.825,1.825,0,0,1-1.066-1.66V63.79a1.214,1.214,0,0,0-2.428,0V78.554a1.866,1.866,0,0,1-1.809,1.9h-.016a1.806,1.806,0,0,1-.759-.164,1.831,1.831,0,0,1-1.066-1.66V63.79a1.214,1.214,0,1,0-2.428,0V74.066a1.825,1.825,0,1,1-3.65,0V63.79a1.214,1.214,0,0,0-2.428,0v5.717a1.833,1.833,0,0,1-1.789,1.824,1.783,1.783,0,0,1-1.281-.522,1.935,1.935,0,0,1-.58-1.371v-21.1a2.548,2.548,0,0,1,1.082-2.082l3.126-2.2a1.214,1.214,0,0,0,.516-.993V34.6H28.758l-2.2,5.873A4.42,4.42,0,0,0,29.5,46.28a2.816,2.816,0,0,0,2.952-.935l3.4,2.1a1.214,1.214,0,1,0,1.277-2.065l-3.377-2.088,6.168-9.975,10.134,6.266-6.168,9.975-2.257-1.4a1.214,1.214,0,1,0-1.277,2.065l4.226,2.613a.4.4,0,0,1,.152.432Z" transform="translate(-0.555 0)"/>
    </g>
  </g>
</svg>
