<svg xmlns="http://www.w3.org/2000/svg" xmlns:xlink="http://www.w3.org/1999/xlink" width="103" height="103" viewBox="0 0 103 103">
  <defs>
    <filter id="Trazado_978624" x="0" y="0" width="103" height="103" filterUnits="userSpaceOnUse">
      <feOffset dy="3" input="SourceAlpha"/>
      <feGaussianBlur stdDeviation="3" result="blur"/>
      <feFlood flood-opacity="0.161"/>
      <feComposite operator="in" in2="blur"/>
      <feComposite in="SourceGraphic"/>
    </filter>
  </defs>
  <g id="Grupo_1208983" data-name="Grupo 1208983" transform="translate(-192 -6808.673)">
    <g id="Grupo_1207034" data-name="Grupo 1207034" transform="translate(201 6814.673)">
      <g id="Grupo_1181204" data-name="Grupo 1181204" transform="translate(0)">
        <g id="Grupo_1179494" data-name="Grupo 1179494">
          <g id="Grupo_1144531" data-name="Grupo 1144531">
            <g transform="matrix(1, 0, 0, 1, -9, -6)" filter="url(#Trazado_978624)">
              <g id="Trazado_978624-2" data-name="Trazado 978624" transform="translate(9 6)" fill="#fdfbec">
                <path d="M 42.5 83.5 C 36.96437835693359 83.5 31.59512901306152 82.41617584228516 26.54141235351562 80.27863311767578 C 21.65934181213379 78.21369171142578 17.27447128295898 75.25723266601562 13.50862312316895 71.49137878417969 C 9.742764472961426 67.72553253173828 6.786305904388428 63.34066009521484 4.721364498138428 58.45858764648438 C 2.583823442459106 53.40486907958984 1.5 48.03562164306641 1.5 42.5 C 1.5 36.96437835693359 2.583823442459106 31.59512901306152 4.721364498138428 26.54141235351562 C 6.786305904388428 21.65934181213379 9.742764472961426 17.27447128295898 13.50862312316895 13.50862312316895 C 17.27447128295898 9.742764472961426 21.65934181213379 6.786305904388428 26.54141235351562 4.721364498138428 C 31.59512901306152 2.583823442459106 36.96437835693359 1.5 42.5 1.5 C 48.03562164306641 1.5 53.40486907958984 2.583823442459106 58.45858764648438 4.721364498138428 C 63.34066009521484 6.786305904388428 67.72553253173828 9.742764472961426 71.49137878417969 13.50862312316895 C 75.25723266601562 17.27447128295898 78.21369171142578 21.65934181213379 80.27863311767578 26.54141235351562 C 82.41617584228516 31.59512901306152 83.5 36.96437835693359 83.5 42.5 C 83.5 48.03562164306641 82.41617584228516 53.40486907958984 80.27863311767578 58.45858764648438 C 78.21369171142578 63.34066009521484 75.25723266601562 67.72553253173828 71.49137878417969 71.49137878417969 C 67.72553253173828 75.25723266601562 63.34066009521484 78.21369171142578 58.45858764648438 80.27863311767578 C 53.40486907958984 82.41617584228516 48.03562164306641 83.5 42.5 83.5 Z" stroke="none"/>
                <path d="M 42.5 3 C 37.16621398925781 3 31.99356079101562 4.043960571289062 27.125732421875 6.102882385253906 C 22.42246627807617 8.092185974121094 18.19785308837891 10.94070434570312 14.56928253173828 14.56928253173828 C 10.94070434570312 18.19785308837891 8.092185974121094 22.42246627807617 6.102882385253906 27.125732421875 C 4.043960571289062 31.99356079101562 3 37.16621398925781 3 42.5 C 3 47.83378601074219 4.043960571289062 53.00643920898438 6.102882385253906 57.87425231933594 C 8.092185974121094 62.57753372192383 10.94070434570312 66.80213165283203 14.56928253173828 70.43071746826172 C 18.19786834716797 74.05929565429688 22.42246627807617 76.90781402587891 27.125732421875 78.89711761474609 C 31.99356079101562 80.95603942871094 37.16621398925781 82 42.5 82 C 47.83378601074219 82 53.00642395019531 80.95603942871094 57.87425231933594 78.89711761474609 C 62.57753372192383 76.90781402587891 66.80213165283203 74.05929565429688 70.43071746826172 70.43071746826172 C 74.05929565429688 66.80213165283203 76.90781402587891 62.57753372192383 78.89711761474609 57.87425231933594 C 80.95603942871094 53.00642395019531 82 47.83378601074219 82 42.5 C 82 37.16621398925781 80.95603942871094 31.99356079101562 78.89711761474609 27.125732421875 C 76.90781402587891 22.42246627807617 74.05929565429688 18.19786834716797 70.43071746826172 14.56928253173828 C 66.80213165283203 10.94070434570312 62.57753372192383 8.092185974121094 57.87425231933594 6.102882385253906 C 53.00643920898438 4.043960571289062 47.83378601074219 3 42.5 3 M 42.5 0 C 65.97209167480469 0 85 19.02789306640625 85 42.5 C 85 65.97209167480469 65.97209167480469 85 42.5 85 C 19.02789306640625 85 0 65.97209167480469 0 42.5 C 0 19.02789306640625 19.02789306640625 0 42.5 0 Z" stroke="none" fill="#84792b"/>
              </g>
            </g>
          </g>
        </g>
      </g>
    </g>
    <g id="tecnica_1_" data-name="tecnica (1)" transform="translate(196 6808.011)">
      <path id="Trazado_1077741" data-name="Trazado 1077741" d="M51.519,50H23.554A1.554,1.554,0,0,0,22,51.554v3.107a1.554,1.554,0,0,0,1.554,1.554h1.554v3.107a3.107,3.107,0,0,0,3.107,3.107V64.5a3.952,3.952,0,0,0,3.729,4.143H43.129A3.952,3.952,0,0,0,46.858,64.5V62.429a3.107,3.107,0,0,0,3.107-3.107V56.214h1.554a1.554,1.554,0,0,0,1.554-1.554V51.554A1.554,1.554,0,0,0,51.519,50Z" transform="translate(9.412 27.128)" fill="#536080"/>
      <path id="Trazado_1077742" data-name="Trazado 1077742" d="M24,54v3.107a3.107,3.107,0,0,0,3.107,3.107H45.751a3.107,3.107,0,0,0,3.107-3.107V54Z" transform="translate(10.519 29.342)" fill="#637399"/>
      <path id="Trazado_1077743" data-name="Trazado 1077743" d="M40.869,10.034c-14.553.712-26.549,13.2-27.323,28.446A30.526,30.526,0,0,0,26.354,65.19a3.732,3.732,0,0,1,1.521,3.074v3.88H56.618V68.365a3.905,3.905,0,0,1,1.576-3.213,30.458,30.458,0,0,0,12.8-25.03c0-17.115-13.619-30.9-30.119-30.088Z" transform="translate(4.701 4.983)" fill="#c2daf2"/>
      <path id="Trazado_1077744" data-name="Trazado 1077744" d="M30.429,17c-4.29,0-7.768,2.981-7.768,6.658a5.728,5.728,0,0,0,.321,1.792A6.767,6.767,0,0,0,18,31.649a6.188,6.188,0,0,0,2.23,4.661A6.188,6.188,0,0,0,18,40.971,6.727,6.727,0,0,0,22.724,47.1c-.017.179-.063.35-.063.533,0,3.677,3.478,6.658,7.768,6.658a8.207,8.207,0,0,0,6.215-2.7V19.7A8.207,8.207,0,0,0,30.429,17Z" transform="translate(7.197 8.858)" fill="#f2d891"/>
      <path id="Trazado_1077745" data-name="Trazado 1077745" d="M49.47,38.364a15.3,15.3,0,0,0,0-5.441l3.173-1.949a18.916,18.916,0,0,0-4.662-8.618l-1.84,1.13a2.156,2.156,0,0,1-2.426-.063,13.8,13.8,0,0,0-2.084-1.278,2.437,2.437,0,0,1-1.264-2.2V17.685A16.512,16.512,0,0,0,35.47,17q-.744.01-1.47.09V28.9a5.821,5.821,0,0,1,1.695-.251,6.7,6.7,0,0,1,6.356,6.991,6.7,6.7,0,0,1-6.356,6.991A5.821,5.821,0,0,1,34,42.383V54.2a16.091,16.091,0,0,0,1.919.089,16.528,16.528,0,0,0,4.448-.693V51.346a2.437,2.437,0,0,1,1.264-2.2,13.786,13.786,0,0,0,2.084-1.278,2.157,2.157,0,0,1,2.426-.062l1.831,1.125a18.912,18.912,0,0,0,4.671-8.612Z" transform="translate(16.055 8.858)" fill="#637399"/>
      <path id="Trazado_1077746" data-name="Trazado 1077746" d="M59.64,66.979A32.034,32.034,0,0,0,73.1,40.675,32.425,32.425,0,0,0,63.2,17.25,29.419,29.419,0,0,0,41.348,9.035c-15.335.749-27.985,13.892-28.8,29.919A31.916,31.916,0,0,0,26.02,67.018a2.195,2.195,0,0,1,.857,1.8v3.029a3.09,3.09,0,0,0-1.165,2.406v3.107a3.111,3.111,0,0,0,3.107,3.107V82.02a4.653,4.653,0,0,0,3.107,4.374v.8a5.507,5.507,0,0,0,5.282,5.7H48.4a5.507,5.507,0,0,0,5.282-5.7v-.8a4.653,4.653,0,0,0,3.107-4.375V80.466a3.111,3.111,0,0,0,3.107-3.107V74.252a3.09,3.09,0,0,0-1.165-2.406V68.919a2.366,2.366,0,0,1,.913-1.941ZM50.57,87.2a2.413,2.413,0,0,1-2.175,2.59H37.209a2.413,2.413,0,0,1-2.175-2.59v-.517H50.57Zm3.107-5.178a1.555,1.555,0,0,1-1.554,1.554H33.48a1.555,1.555,0,0,1-1.554-1.554V80.467H53.677ZM28.819,77.359V74.252H56.784l0,3.107ZM57.857,64.433a5.441,5.441,0,0,0-2.238,4.486v2.226H29.984V68.817A5.268,5.268,0,0,0,27.8,64.469,28.829,28.829,0,0,1,15.653,39.112c.734-14.453,12.087-26.3,25.847-26.973A26.236,26.236,0,0,1,61.053,19.5,29.3,29.3,0,0,1,69.99,40.675,28.921,28.921,0,0,1,57.857,64.433Z" transform="translate(4.146 4.429)"/>
      <path id="Trazado_1077747" data-name="Trazado 1077747" d="M31,1h3.107V8.768H31Z" transform="translate(14.394 0)"/>
      <path id="Trazado_1077748" data-name="Trazado 1077748" d="M54,27h7.768v3.107H54Z" transform="translate(27.128 14.394)"/>
      <path id="Trazado_1077749" data-name="Trazado 1077749" d="M5,27h7.768v3.107H5Z" transform="translate(0 14.394)"/>
      <path id="Trazado_1077750" data-name="Trazado 1077750" d="M0,0H3.107V7.768H0Z" transform="translate(16.185 14.388) rotate(-45)"/>
      <path id="Trazado_1077751" data-name="Trazado 1077751" d="M0,0H7.768V3.107H0Z" transform="translate(70.006 17.682) rotate(-45)"/>
      <path id="Trazado_1077752" data-name="Trazado 1077752" d="M30.983,16c-5.14,0-9.322,3.684-9.322,8.213a6.271,6.271,0,0,0,.06.86A8.013,8.013,0,0,0,17,32.2a7.488,7.488,0,0,0,1.646,4.661A7.488,7.488,0,0,0,17,41.524a8.067,8.067,0,0,0,4.675,7.122c.275,4.313,4.345,7.748,9.307,7.748a9.718,9.718,0,0,0,7.387-3.236,1.549,1.549,0,0,0,.381-1.018V20.255a1.549,1.549,0,0,0-.381-1.018A9.718,9.718,0,0,0,30.983,16ZM35.644,51.52a6.73,6.73,0,0,1-4.661,1.768A5.805,5.805,0,0,1,24.828,48.5l1.95-1.255h2.651V44.137H26.322a1.557,1.557,0,0,0-.841.247l-2.345,1.509a5.011,5.011,0,0,1-3.029-4.369,4.644,4.644,0,0,1,1.7-3.491c.035-.031.05-.077.083-.111h4.434V34.815H21.008a4.4,4.4,0,0,1-.9-2.613,5.01,5.01,0,0,1,3.19-4.43L25.223,29.7a1.554,1.554,0,0,0,1.1.455h3.107V27.047H26.965l-2.106-2.106a3.541,3.541,0,0,1-.091-.728c0-2.814,2.788-5.105,6.215-5.105a6.73,6.73,0,0,1,4.661,1.768Z" transform="translate(6.643 8.304)"/>
      <path id="Trazado_1077753" data-name="Trazado 1077753" d="M54.01,39.542l-2.3-1.414a16.448,16.448,0,0,0,0-3.863l2.3-1.416a1.552,1.552,0,0,0,.7-1.69,20.485,20.485,0,0,0-5.048-9.323,1.551,1.551,0,0,0-1.937-.25l-1.839,1.129a.62.62,0,0,1-.687.015,15.224,15.224,0,0,0-2.319-1.422.912.912,0,0,1-.4-.815V18.238a1.553,1.553,0,0,0-1.115-1.49A18.04,18.04,0,0,0,36,16c-.545.006-1.084.041-1.616.1A1.552,1.552,0,0,0,33,17.645V29.458a1.553,1.553,0,0,0,2,1.487,4.267,4.267,0,0,1,1.243-.185,5.156,5.156,0,0,1,4.8,5.438,5.156,5.156,0,0,1-4.8,5.438A4.267,4.267,0,0,1,35,41.45a1.553,1.553,0,0,0-2,1.487V54.751A1.553,1.553,0,0,0,34.39,56.3a17.728,17.728,0,0,0,1.86.1c.082,0,.163,0,.244,0a18.175,18.175,0,0,0,4.865-.756,1.553,1.553,0,0,0,1.116-1.49V51.9a.912.912,0,0,1,.4-.813,15.264,15.264,0,0,0,2.319-1.42.617.617,0,0,1,.687.014L47.712,50.8a1.559,1.559,0,0,0,1.937-.25,20.483,20.483,0,0,0,5.058-9.319,1.555,1.555,0,0,0-.7-1.692Zm-5.781,7.93-.721-.443a3.706,3.706,0,0,0-4.165.14A12.173,12.173,0,0,1,41.494,48.3a4,4,0,0,0-2.126,3.6v1.044a14.613,14.613,0,0,1-2.917.343c-.114,0-.228,0-.344,0V44.74c.047,0,.094,0,.141,0A8.255,8.255,0,0,0,44.158,36.2a8.255,8.255,0,0,0-7.909-8.545c-.047,0-.094,0-.141,0V19.107a15.589,15.589,0,0,1,3.26.337v1.05a4,4,0,0,0,2.127,3.6,12.134,12.134,0,0,1,1.849,1.135,3.7,3.7,0,0,0,4.165.137l.729-.448a17.409,17.409,0,0,1,3.151,5.9l-2.179,1.34a1.552,1.552,0,0,0-.718,1.589,13.713,13.713,0,0,1,0,4.91,1.556,1.556,0,0,0,.718,1.59l2.179,1.338a17.368,17.368,0,0,1-3.16,5.893Z" transform="translate(15.501 8.304)"/>
      <path id="Trazado_1077754" data-name="Trazado 1077754" d="M26,23.11h3.107v3.107H26Z" transform="translate(11.626 12.241)"/>
      <path id="Trazado_1077755" data-name="Trazado 1077755" d="M26,34.11h3.107v3.107H26Z" transform="translate(11.626 18.331)"/>
      <path id="Trazado_1077756" data-name="Trazado 1077756" d="M24,28.11h3.107v3.107H24Z" transform="translate(10.519 15.009)"/>
    </g>
  </g>
</svg>
