<svg xmlns="http://www.w3.org/2000/svg" xmlns:xlink="http://www.w3.org/1999/xlink" width="103" height="103" viewBox="0 0 103 103">
  <defs>
    <filter id="Trazado_978624" x="0" y="0" width="103" height="103" filterUnits="userSpaceOnUse">
      <feOffset dy="3" input="SourceAlpha"/>
      <feGaussianBlur stdDeviation="3" result="blur"/>
      <feFlood flood-opacity="0.161"/>
      <feComposite operator="in" in2="blur"/>
      <feComposite in="SourceGraphic"/>
    </filter>
  </defs>
  <g id="Grupo_1208754" data-name="Grupo 1208754" transform="translate(-615 -1669)">
    <g id="Grupo_1206467" data-name="Grupo 1206467" transform="translate(624 1675)">
      <g id="Grupo_1181204" data-name="Grupo 1181204" transform="translate(0)">
        <g id="Grupo_1179494" data-name="Grupo 1179494">
          <g id="Grupo_1144531" data-name="Grupo 1144531">
            <g transform="matrix(1, 0, 0, 1, -9, -6)" filter="url(#Trazado_978624)">
              <g id="Trazado_978624-2" data-name="Trazado 978624" transform="translate(9 6)" fill="#fdfbec">
                <path d="M 42.5 83.5 C 36.96437835693359 83.5 31.59512901306152 82.41617584228516 26.54141235351562 80.27863311767578 C 21.65934181213379 78.21369171142578 17.27447128295898 75.25723266601562 13.50862312316895 71.49137878417969 C 9.742764472961426 67.72553253173828 6.786305904388428 63.34066009521484 4.721364498138428 58.45858764648438 C 2.583823442459106 53.40486907958984 1.5 48.03562164306641 1.5 42.5 C 1.5 36.96437835693359 2.583823442459106 31.59512901306152 4.721364498138428 26.54141235351562 C 6.786305904388428 21.65934181213379 9.742764472961426 17.27447128295898 13.50862312316895 13.50862312316895 C 17.27447128295898 9.742764472961426 21.65934181213379 6.786305904388428 26.54141235351562 4.721364498138428 C 31.59512901306152 2.583823442459106 36.96437835693359 1.5 42.5 1.5 C 48.03562164306641 1.5 53.40486907958984 2.583823442459106 58.45858764648438 4.721364498138428 C 63.34066009521484 6.786305904388428 67.72553253173828 9.742764472961426 71.49137878417969 13.50862312316895 C 75.25723266601562 17.27447128295898 78.21369171142578 21.65934181213379 80.27863311767578 26.54141235351562 C 82.41617584228516 31.59512901306152 83.5 36.96437835693359 83.5 42.5 C 83.5 48.03562164306641 82.41617584228516 53.40486907958984 80.27863311767578 58.45858764648438 C 78.21369171142578 63.34066009521484 75.25723266601562 67.72553253173828 71.49137878417969 71.49137878417969 C 67.72553253173828 75.25723266601562 63.34066009521484 78.21369171142578 58.45858764648438 80.27863311767578 C 53.40486907958984 82.41617584228516 48.03562164306641 83.5 42.5 83.5 Z" stroke="none"/>
                <path d="M 42.5 3 C 37.16621398925781 3 31.99356079101562 4.043960571289062 27.125732421875 6.102882385253906 C 22.42246627807617 8.092185974121094 18.19785308837891 10.94070434570312 14.56928253173828 14.56928253173828 C 10.94070434570312 18.19785308837891 8.092185974121094 22.42246627807617 6.102882385253906 27.125732421875 C 4.043960571289062 31.99356079101562 3 37.16621398925781 3 42.5 C 3 47.83378601074219 4.043960571289062 53.00643920898438 6.102882385253906 57.87425231933594 C 8.092185974121094 62.57753372192383 10.94070434570312 66.80213165283203 14.56928253173828 70.43071746826172 C 18.19786834716797 74.05929565429688 22.42246627807617 76.90781402587891 27.125732421875 78.89711761474609 C 31.99356079101562 80.95603942871094 37.16621398925781 82 42.5 82 C 47.83378601074219 82 53.00642395019531 80.95603942871094 57.87425231933594 78.89711761474609 C 62.57753372192383 76.90781402587891 66.80213165283203 74.05929565429688 70.43071746826172 70.43071746826172 C 74.05929565429688 66.80213165283203 76.90781402587891 62.57753372192383 78.89711761474609 57.87425231933594 C 80.95603942871094 53.00642395019531 82 47.83378601074219 82 42.5 C 82 37.16621398925781 80.95603942871094 31.99356079101562 78.89711761474609 27.125732421875 C 76.90781402587891 22.42246627807617 74.05929565429688 18.19786834716797 70.43071746826172 14.56928253173828 C 66.80213165283203 10.94070434570312 62.57753372192383 8.092185974121094 57.87425231933594 6.102882385253906 C 53.00643920898438 4.043960571289062 47.83378601074219 3 42.5 3 M 42.5 0 C 65.97209167480469 0 85 19.02789306640625 85 42.5 C 85 65.97209167480469 65.97209167480469 85 42.5 85 C 19.02789306640625 85 0 65.97209167480469 0 42.5 C 0 19.02789306640625 19.02789306640625 0 42.5 0 Z" stroke="none" fill="#84792b"/>
              </g>
            </g>
          </g>
        </g>
      </g>
    </g>
    <g id="impresion-de-la-mano_4_" data-name="impresion-de-la-mano (4)" transform="translate(636.71 1686.508)">
      <path id="Trazado_1077310" data-name="Trazado 1077310" d="M45.245,239.719c-5.857,4.368-13.991,3.261-20.647-3.4-5.476-5.476-8.455-10.3-7.543-15.2.757-4.06,4.217-5.278,7.27-6.313,3.895-1.321,3.6-5.346,7.9-6.534,4.274-1.182,9.153,1.062,14.257,6.166C56.336,224.3,51.769,234.854,45.245,239.719Z" transform="translate(-14.927 -182.567)" fill="#00ce8e"/>
      <path id="Trazado_1077311" data-name="Trazado 1077311" d="M45.246,240.713a17.9,17.9,0,0,0,1.565-1.315c-18.48.544-18.338-21.26-13.8-30.3q-.4.07-.79.178c-4.292,1.187-4,5.213-7.9,6.534-3.053,1.036-6.514,2.253-7.27,6.313-.913,4.9,2.067,9.722,7.543,15.2C31.255,243.974,39.389,245.081,45.246,240.713Z" transform="translate(-14.927 -183.561)" fill="#00c172"/>
      <path id="Trazado_1077312" data-name="Trazado 1077312" d="M183,19.653l4.986-8.635a4.3,4.3,0,1,1,7.44,4.3l-4.986,8.636a4.3,4.3,0,0,1-7.44-4.3Z" transform="translate(-161.2 -6.635)" fill="#ffbbd5"/>
      <path id="Trazado_1077313" data-name="Trazado 1077313" d="M356.8,219.135a4.3,4.3,0,0,1,1.572-5.868l8.662-5a4.3,4.3,0,1,1,4.3,7.44l-8.662,5A4.3,4.3,0,0,1,356.8,219.135Z" transform="translate(-314.769 -182.321)" fill="#827cd1"/>
      <path id="Trazado_1077314" data-name="Trazado 1077314" d="M364.442,225.483l-6.074,3.507a4.3,4.3,0,0,0,4.3,7.44l4.689-2.707C363.652,232.405,363.9,227.7,364.442,225.483Z" transform="translate(-314.768 -198.043)" fill="#625ac4"/>
      <path id="Trazado_1077315" data-name="Trazado 1077315" d="M369.2,372.74a4.3,4.3,0,0,1,3.905-4.654l6.036-.528a4.3,4.3,0,0,1,.749,8.559l-6.036.528A4.3,4.3,0,0,1,369.2,372.74Z" transform="translate(-326.224 -323.571)" fill="#ffb25a"/>
      <path id="Trazado_1077316" data-name="Trazado 1077316" d="M283.663,90.768a4.3,4.3,0,0,1,0-6.075l8.981-8.981a4.3,4.3,0,0,1,6.075,6.075l-8.981,8.981a4.3,4.3,0,0,1-6.075,0Z" transform="translate(-249.542 -64.589)" fill="#ff6e80"/>
      <path id="Trazado_1077317" data-name="Trazado 1077317" d="M7.5,90.6V84.23a4.3,4.3,0,0,1,8.591,0V90.6a4.3,4.3,0,1,1-8.591,0Z" transform="translate(-6.627 -69.431)" fill="#59d5ff"/>
      <g id="Grupo_1208753" data-name="Grupo 1208753" transform="translate(9.046 33.795)">
        <g id="Grupo_1208752" data-name="Grupo 1208752" transform="translate(0)">
          <ellipse id="Elipse_13560" data-name="Elipse 13560" cx="2.68" cy="3.365" rx="2.68" ry="3.365" transform="translate(0 3.789) rotate(-45)" fill="#fff"/>
          <ellipse id="Elipse_13561" data-name="Elipse 13561" cx="2.68" cy="3.365" rx="2.68" ry="3.365" transform="translate(12.895 16.688) rotate(-45)" fill="#fff"/>
        </g>
      </g>
      <path id="Trazado_1077318" data-name="Trazado 1077318" d="M187.813,29.957,183,38.287a4.3,4.3,0,1,0,7.44,4.3L192.63,38.8c-4.124-1.179-5.644-5.8-4.817-8.839Z" transform="translate(-161.2 -25.269)" fill="#ff96c0"/>
      <path id="Trazado_1077319" data-name="Trazado 1077319" d="M11.8,105.017a4.3,4.3,0,0,0,4.3-4.3V98.338a7,7,0,0,1-7.4-6.947A4.28,4.28,0,0,0,7.5,94.354v6.368a4.3,4.3,0,0,0,4.3,4.3Z" transform="translate(-6.627 -79.555)" fill="#00c4fc"/>
      <path id="Trazado_1077320" data-name="Trazado 1077320" d="M290.656,102.348l-6.993,6.993a4.3,4.3,0,0,0,6.075,6.075l4.153-4.153C290.264,110.259,289.664,105.212,290.656,102.348Z" transform="translate(-249.542 -89.237)" fill="#f8475e"/>
      <path id="Trazado_1077321" data-name="Trazado 1077321" d="M378.34,378.473c-4.169-2.292-3.346-6.617-2.35-8.419l-2.884.252a4.3,4.3,0,0,0,.749,8.559Z" transform="translate(-326.224 -325.791)" fill="#ff8b43"/>
      <path id="Trazado_1077322" data-name="Trazado 1077322" d="M33.5,26.8a5.166,5.166,0,0,0,7.309,0l8.981-8.981a5.168,5.168,0,0,0-3.607-8.823h-.008a.873.873,0,0,0-.008,1.745,3.423,3.423,0,0,1,2.389,5.843l-8.981,8.981a3.423,3.423,0,0,1-4.841-4.841L43.1,12.356a.873.873,0,1,0-1.234-1.234L33.5,19.488a5.174,5.174,0,0,0,0,7.309ZM22.94,19.642A5.165,5.165,0,0,0,30,17.75l4.986-8.635a5.168,5.168,0,1,0-8.952-5.168l-4.986,8.635a5.166,5.166,0,0,0,1.892,7.06Zm-.38-6.188,4.986-8.635a3.423,3.423,0,1,1,5.929,3.423l-4.986,8.635a3.423,3.423,0,0,1-5.929-3.423ZM5.168,26.335h0a5.174,5.174,0,0,0,5.168-5.168V14.8A5.165,5.165,0,0,0,5.169,9.631h0A5.174,5.174,0,0,0,0,14.8v6.368a5.165,5.165,0,0,0,5.168,5.169ZM1.745,21.167V14.8a3.423,3.423,0,0,1,6.846,0v6.368a3.423,3.423,0,0,1-6.846,0Zm51.1,21.951-6.036.528a5.169,5.169,0,1,0,.9,10.3l6.036-.528a5.169,5.169,0,0,0-.9-10.3Zm.749,8.559-6.036.528a3.423,3.423,0,1,1-.6-6.82l6.036-.528a3.423,3.423,0,0,1,.6,6.82Zm-36.3-14.8a.728.728,0,0,1,0,1.031.873.873,0,0,0,1.234,1.234,2.474,2.474,0,0,0-3.5-3.5.873.873,0,0,0,1.234,1.234.728.728,0,0,1,1.031,0Zm41.6-9.8a5.165,5.165,0,0,0-7.06-1.892l-8.662,5a5.174,5.174,0,0,0-1.892,7.06h0a5.166,5.166,0,0,0,7.06,1.892l8.662-5a5.166,5.166,0,0,0,1.892-7.06ZM56.121,32.63l-8.662,5a3.421,3.421,0,0,1-4.676-1.253h0A3.421,3.421,0,0,1,44.036,31.7l8.662-5a3.423,3.423,0,1,1,3.423,5.929ZM27.414,49.27a.873.873,0,0,0,1.234,0,2.474,2.474,0,0,0-3.5-3.5A.873.873,0,1,0,26.383,47a.729.729,0,0,1,1.031,1.031A.873.873,0,0,0,27.414,49.27Zm-8.043-7.56a.874.874,0,0,0-.93.811,3.124,3.124,0,0,0,3.333,3.333.873.873,0,1,0-.12-1.741,1.379,1.379,0,0,1-1.472-1.472.873.873,0,0,0-.811-.931Zm-2.31-16.84a8.157,8.157,0,0,0-4.683,3.7,6.471,6.471,0,0,1-3.26,2.846c-2.949,1-6.989,2.37-7.848,6.98-.89,4.775,1.511,9.7,7.784,15.976a24.994,24.994,0,0,0,3.575,2.981.873.873,0,1,0,.983-1.443,23.223,23.223,0,0,1-3.324-2.773c-5.824-5.824-8.076-10.271-7.3-14.422.672-3.6,3.871-4.69,6.693-5.647A8.165,8.165,0,0,0,13.8,29.59c.965-1.343,1.8-2.5,3.731-3.038,4.822-1.333,9.86,2.4,13.407,5.942,3.862,3.862,5.737,8.209,5.421,12.569A16.036,16.036,0,0,1,29.8,56.453a12.623,12.623,0,0,1-12.725,1.33.873.873,0,1,0-.657,1.617,14.5,14.5,0,0,0,14.426-1.548A17.8,17.8,0,0,0,38.1,45.189c.353-4.882-1.7-9.7-5.928-13.93-4.062-4.062-9.576-7.921-15.107-6.39Z"/>
    </g>
  </g>
</svg>
