<svg xmlns="http://www.w3.org/2000/svg" xmlns:xlink="http://www.w3.org/1999/xlink" width="93.934" height="93.934" viewBox="0 0 93.934 93.934">
  <defs>
    <filter id="Trazado_982547" x="0" y="0" width="93.934" height="93.934" filterUnits="userSpaceOnUse">
      <feOffset dy="3" input="SourceAlpha"/>
      <feGaussianBlur stdDeviation="3" result="blur"/>
      <feFlood flood-opacity="0.161"/>
      <feComposite operator="in" in2="blur"/>
      <feComposite in="SourceGraphic"/>
    </filter>
  </defs>
  <g id="Grupo_1208268" data-name="Grupo 1208268" transform="translate(-1029.033 -865.066)">
    <g id="Grupo_1180450" data-name="Grupo 1180450" transform="translate(-10 -4287.467)">
      <g id="Grupo_1179413" data-name="Grupo 1179413" transform="translate(10 4417.061)">
        <g id="Grupo_1175135" data-name="Grupo 1175135" transform="translate(840 -1250.527)">
          <g id="Grupo_1167337" data-name="Grupo 1167337" transform="translate(198.033 1992)">
            <g id="Grupo_1166720" data-name="Grupo 1166720">
              <g id="Grupo_1164305" data-name="Grupo 1164305">
                <g id="Grupo_1163948" data-name="Grupo 1163948">
                  <g id="Grupo_1158168" data-name="Grupo 1158168">
                    <g id="Grupo_1152576" data-name="Grupo 1152576">
                      <g id="Grupo_1148633" data-name="Grupo 1148633">
                        <g id="Grupo_1148525" data-name="Grupo 1148525">
                          <g transform="matrix(1, 0, 0, 1, -9, -6)" filter="url(#Trazado_982547)">
                            <g id="Trazado_982547-2" data-name="Trazado 982547" transform="translate(9 6)" fill="#fdfbec">
                              <path d="M 37.966796875 74.43359375 C 33.04315185546875 74.43359375 28.26757431030273 73.46962738037109 23.77274131774902 71.56847381591797 C 19.43047523498535 69.73184967041016 15.53040790557861 67.10224914550781 12.18087482452393 63.75271987915039 C 8.831341743469238 60.4031867980957 6.201741218566895 56.50312042236328 4.365118980407715 52.16086196899414 C 2.463963508605957 47.66601943969727 1.499996900558472 42.89044189453125 1.499996900558472 37.966796875 C 1.499996900558472 33.04315185546875 2.463963508605957 28.26757431030273 4.365118980407715 23.77274131774902 C 6.201741218566895 19.43047523498535 8.831341743469238 15.53040790557861 12.18087482452393 12.18087482452393 C 15.53040790557861 8.831341743469238 19.43047523498535 6.201741218566895 23.77274131774902 4.365118980407715 C 28.26757431030273 2.463963508605957 33.04315185546875 1.499996900558472 37.966796875 1.499996900558472 C 42.89044189453125 1.499996900558472 47.66601943969727 2.463963508605957 52.16086196899414 4.365118980407715 C 56.50312042236328 6.201741218566895 60.4031867980957 8.831341743469238 63.75271987915039 12.18087482452393 C 67.10224914550781 15.53040790557861 69.73184967041016 19.43047523498535 71.56847381591797 23.77274131774902 C 73.46962738037109 28.26757431030273 74.43359375 33.04315185546875 74.43359375 37.966796875 C 74.43359375 42.89044189453125 73.46962738037109 47.66601943969727 71.56847381591797 52.16086196899414 C 69.73184967041016 56.50313186645508 67.10224914550781 60.4031867980957 63.75271987915039 63.75271987915039 C 60.4031867980957 67.10224914550781 56.50313186645508 69.73184967041016 52.16086196899414 71.56847381591797 C 47.66601943969727 73.46962738037109 42.89044189453125 74.43359375 37.966796875 74.43359375 Z" stroke="none"/>
                              <path d="M 37.966796875 3 C 33.2449836730957 3 28.66600799560547 3.924095153808594 24.35705947875977 5.746635437011719 C 20.19359588623047 7.507637023925781 16.45379638671875 10.02928161621094 13.24153518676758 13.24153518676758 C 10.02927398681641 16.45379638671875 7.507621765136719 20.19359588623047 5.746635437011719 24.35705947875977 C 3.924095153808594 28.66600799560547 3 33.2449836730957 3 37.966796875 C 3 42.6886100769043 3.924095153808594 47.26758575439453 5.746635437011719 51.57653427124023 C 7.507621765136719 55.73999786376953 10.02927398681641 59.47979736328125 13.24153518676758 62.69205856323242 C 16.45379638671875 65.90431976318359 20.19359588623047 68.42597198486328 24.35705947875977 70.18695831298828 C 28.66600799560547 72.00949859619141 33.2449836730957 72.93359375 37.966796875 72.93359375 C 42.6886100769043 72.93359375 47.26758575439453 72.00949859619141 51.57653427124023 70.18695831298828 C 55.73999786376953 68.42597198486328 59.47979736328125 65.90431976318359 62.69205856323242 62.69205856323242 C 65.90431976318359 59.47979736328125 68.42597198486328 55.73999786376953 70.18695831298828 51.57653427124023 C 72.00949859619141 47.26758575439453 72.93359375 42.6886100769043 72.93359375 37.966796875 C 72.93359375 33.2449836730957 72.00949859619141 28.66600799560547 70.18695831298828 24.35705947875977 C 68.42597198486328 20.19359588623047 65.90431976318359 16.45379638671875 62.69205856323242 13.24153518676758 C 59.47979736328125 10.02928161621094 55.73999786376953 7.507637023925781 51.57653427124023 5.746635437011719 C 47.26758575439453 3.924095153808594 42.6886100769043 3 37.966796875 3 M 37.966796875 0 C 58.93528366088867 0 75.93359375 16.99832153320312 75.93359375 37.966796875 C 75.93359375 58.93528366088867 58.93528366088867 75.93359375 37.966796875 75.93359375 C 16.99831008911133 75.93359375 0 58.93528366088867 0 37.966796875 C 0 16.99832153320312 16.99831008911133 0 37.966796875 0 Z" stroke="none" fill="#84792b"/>
                            </g>
                          </g>
                        </g>
                      </g>
                    </g>
                  </g>
                </g>
              </g>
            </g>
          </g>
        </g>
      </g>
    </g>
    <g id="creatividad_1_" data-name="creatividad (1)" transform="translate(1049.196 843.1)">
      <g id="Grupo_1208266" data-name="Grupo 1208266" transform="translate(0.785 41.102)">
        <g id="Grupo_1208253" data-name="Grupo 1208253" transform="translate(1.586 33.238)">
          <path id="Trazado_1076492" data-name="Trazado 1076492" d="M47.078,372.47H22.645v-3.252a1.726,1.726,0,0,1,1.509-1.712l17.407-2.2a4.9,4.9,0,0,1,5.518,4.863Z" transform="translate(-22.645 -365.262)" fill="#eef7ff"/>
        </g>
        <g id="Grupo_1208254" data-name="Grupo 1208254" transform="translate(1.586 37.305)">
          <path id="Trazado_1076493" data-name="Trazado 1076493" d="M22.645,404.1v3.141H47.078v-2.306a4.953,4.953,0,0,0-.071-.836Z" transform="translate(-22.645 -404.101)" fill="#d0e6ff"/>
        </g>
        <g id="Grupo_1208255" data-name="Grupo 1208255" transform="translate(26.019 33.238)">
          <path id="Trazado_1076494" data-name="Trazado 1076494" d="M256,372.47h24.433v-3.252a1.726,1.726,0,0,0-1.509-1.712l-17.407-2.2A4.9,4.9,0,0,0,256,370.164Z" transform="translate(-256 -365.262)" fill="#e0eeff"/>
        </g>
        <g id="Grupo_1208256" data-name="Grupo 1208256" transform="translate(26.019 33.238)">
          <path id="Trazado_1076495" data-name="Trazado 1076495" d="M256,372.47h24.433v-3.252a1.726,1.726,0,0,0-1.509-1.712l-17.407-2.2A4.9,4.9,0,0,0,256,370.164Z" transform="translate(-256 -365.262)" fill="#e0eeff"/>
        </g>
        <g id="Grupo_1208257" data-name="Grupo 1208257" transform="translate(26.019 33.238)">
          <path id="Trazado_1076496" data-name="Trazado 1076496" d="M256,372.47h24.433v-3.252a1.726,1.726,0,0,0-1.509-1.712l-17.407-2.2A4.9,4.9,0,0,0,256,370.164Z" transform="translate(-256 -365.262)" fill="#e0eeff"/>
        </g>
        <g id="Grupo_1208258" data-name="Grupo 1208258" transform="translate(26.019 35.276)">
          <path id="Trazado_1076497" data-name="Trazado 1076497" d="M278.926,384.927l-1.632-.207a2.029,2.029,0,0,1-2.029,2.029H256.072a4.956,4.956,0,0,0-.071.836v2.306h24.433v-3.252A1.726,1.726,0,0,0,278.926,384.927Z" transform="translate(-256.001 -384.72)" fill="#d0e6ff"/>
        </g>
        <g id="Grupo_1208259" data-name="Grupo 1208259" transform="translate(0 40.446)">
          <path id="Trazado_1076498" data-name="Trazado 1076498" d="M57.274,437.253H9.764A2.265,2.265,0,0,1,7.5,434.988a.885.885,0,0,1,.885-.885H58.653a.885.885,0,0,1,.885.885,2.265,2.265,0,0,1-2.264,2.264Z" transform="translate(-7.5 -434.103)" fill="#867f8b"/>
        </g>
        <g id="Grupo_1208260" data-name="Grupo 1208260" transform="translate(5.205 1.302)">
          <circle id="Elipse_13555" data-name="Elipse 13555" cx="2.154" cy="2.154" r="2.154" fill="#90ddaa"/>
        </g>
        <g id="Grupo_1208261" data-name="Grupo 1208261" transform="translate(42.526 21.366)">
          <circle id="Elipse_13556" data-name="Elipse 13556" cx="2.154" cy="2.154" r="2.154" fill="#90ddaa"/>
        </g>
        <g id="Grupo_1208262" data-name="Grupo 1208262" transform="translate(22.164 24.603)">
          <path id="Trazado_1076499" data-name="Trazado 1076499" d="M224.154,285.865h-2.239a2.736,2.736,0,0,1-2.736-2.736v-.335h7.711v.335A2.736,2.736,0,0,1,224.154,285.865Z" transform="translate(-219.179 -282.794)" fill="#968e9c"/>
        </g>
        <g id="Grupo_1208263" data-name="Grupo 1208263" transform="translate(16.33)">
          <path id="Trazado_1076500" data-name="Trazado 1076500" d="M166.557,64.6a8.055,8.055,0,0,1,2.168,3.9h8.858a7.942,7.942,0,0,1,2.15-3.876,9.689,9.689,0,1,0-13.176-.019Z" transform="translate(-163.467 -47.815)" fill="#f9d75a"/>
        </g>
        <g id="Grupo_1208264" data-name="Grupo 1208264" transform="translate(21.277 20.68)">
          <path id="Trazado_1076501" data-name="Trazado 1076501" d="M219.343,249.243h-7.788a.849.849,0,0,1-.849-.849v-2.227a.848.848,0,0,1,.848-.849h7.789a.848.848,0,0,1,.848.849v2.225A.848.848,0,0,1,219.343,249.243Z" transform="translate(-210.707 -245.319)" fill="#54afff"/>
        </g>
        <g id="Grupo_1208265" data-name="Grupo 1208265" transform="translate(22.164 7.815)">
          <path id="Trazado_1076502" data-name="Trazado 1076502" d="M223.624,122.825l.66,1.394a.652.652,0,0,0,.506.368l1.529.2a.652.652,0,0,1,.364,1.122l-1.122,1.058a.652.652,0,0,0-.193.6l.285,1.515a.652.652,0,0,1-.954.693l-1.353-.74a.653.653,0,0,0-.626,0l-1.353.74a.652.652,0,0,1-.954-.693l.285-1.515a.652.652,0,0,0-.193-.6l-1.122-1.058a.652.652,0,0,1,.364-1.122l1.529-.2a.652.652,0,0,0,.506-.368l.66-1.394a.653.653,0,0,1,1.18,0Z" transform="translate(-219.179 -122.452)" fill="#eef7ff"/>
        </g>
      </g>
      <g id="Grupo_1208267" data-name="Grupo 1208267" transform="translate(0 40.317)">
        <path id="Trazado_1076503" data-name="Trazado 1076503" d="M159.309,58.461a7.15,7.15,0,0,1,1.877,3.267,1.623,1.623,0,0,0-.271.9v2.227a1.634,1.634,0,0,0,.9,1.457,3.525,3.525,0,0,0,3.51,3.248h2.239a3.525,3.525,0,0,0,3.51-3.248,1.634,1.634,0,0,0,.9-1.457V62.632a1.625,1.625,0,0,0-.274-.9,7.045,7.045,0,0,1,1.857-3.246,10.507,10.507,0,0,0,3.363-7.69,10.474,10.474,0,1,0-20.948.074A10.515,10.515,0,0,0,159.309,58.461Zm11.028,4.108a.063.063,0,0,1,.063.063v2.225a.063.063,0,0,1-.063.063h-7.788a.063.063,0,0,1-.063-.063V62.631a.061.061,0,0,1,.019-.045.059.059,0,0,1,.044-.018h7.789Zm-2.775,5.423h-2.239a1.954,1.954,0,0,1-1.9-1.5h6.035A1.954,1.954,0,0,1,167.562,67.992Zm-1.187-26.1h.068a8.9,8.9,0,0,1,8.9,8.9,8.932,8.932,0,0,1-2.859,6.538A8.541,8.541,0,0,0,170.274,61h-7.667a8.655,8.655,0,0,0-2.228-3.686,8.821,8.821,0,0,1-2.84-6.457A8.915,8.915,0,0,1,166.375,41.888Z" transform="translate(-139.638 -40.317)"/>
        <path id="Trazado_1076504" data-name="Trazado 1076504" d="M249.285,76.153a.785.785,0,0,0,.785-.785V74.109a.785.785,0,1,0-1.571,0v1.259A.785.785,0,0,0,249.285,76.153Z" transform="translate(-222.481 -69.868)"/>
        <path id="Trazado_1076505" data-name="Trazado 1076505" d="M286.377,95.8a.785.785,0,0,0,1.106-.1l.806-.967a.785.785,0,0,0-1.207-1.006l-.806.967A.785.785,0,0,0,286.377,95.8Z" transform="translate(-256.139 -87.882)"/>
        <path id="Trazado_1076506" data-name="Trazado 1076506" d="M204.2,95.7a.785.785,0,1,0,1.207-1.005l-.806-.967a.785.785,0,1,0-1.206,1.005Z" transform="translate(-181.933 -87.881)"/>
        <path id="Trazado_1076507" data-name="Trazado 1076507" d="M211.744,118.272a1.426,1.426,0,0,0,.381,1.49l1.069,1.008-.272,1.444a1.438,1.438,0,0,0,2.1,1.528l1.289-.7,1.289.7a1.438,1.438,0,0,0,2.1-1.528l-.272-1.444,1.069-1.008a1.438,1.438,0,0,0-.8-2.472l-1.457-.188-.629-1.328a1.438,1.438,0,0,0-2.6,0l-.629,1.328-1.457.188A1.426,1.426,0,0,0,211.744,118.272Zm2.914.379a1.431,1.431,0,0,0,1.116-.811l.54-1.14.54,1.14a1.431,1.431,0,0,0,1.116.811l1.251.161-.918.866a1.432,1.432,0,0,0-.426,1.312l.233,1.24-1.107-.6a1.432,1.432,0,0,0-1.379,0l-1.107.605.233-1.24a1.431,1.431,0,0,0-.426-1.312l-.918-.866Z" transform="translate(-189.509 -107.137)"/>
        <path id="Trazado_1076508" data-name="Trazado 1076508" d="M413.09,97.836h.724v.724a.785.785,0,0,0,1.571,0v-.724h.724a.785.785,0,1,0,0-1.571h-.724v-.724a.785.785,0,1,0-1.571,0v.724h-.724a.785.785,0,0,0,0,1.571Z" transform="translate(-369.135 -89.056)"/>
        <path id="Trazado_1076509" data-name="Trazado 1076509" d="M91.379,228.941h-.724a.785.785,0,0,0,0,1.571h.724v.724a.785.785,0,0,0,1.571,0v-.724h.724a.785.785,0,1,0,0-1.571H92.95v-.724a.785.785,0,1,0-1.571,0Z" transform="translate(-80.46 -207.84)"/>
        <path id="Trazado_1076510" data-name="Trazado 1076510" d="M52.023,364.979v-2.471a2.516,2.516,0,0,0-2.2-2.491l-3.16-.4a.785.785,0,0,0-.2,1.558l3.16.4a.942.942,0,0,1,.822.933v2.467H27.59v-1.52a4.116,4.116,0,0,1,4.634-4.084l10.578,1.34a.785.785,0,1,0,.2-1.558l-10.578-1.34a5.685,5.685,0,0,0-5.616,2.759,5.685,5.685,0,0,0-5.616-2.759l-17.407,2.2a2.516,2.516,0,0,0-2.2,2.491v2.471A1.671,1.671,0,0,0,0,366.646a3.053,3.053,0,0,0,3.05,3.05H5.71a.785.785,0,1,0,0-1.571H3.05a1.481,1.481,0,0,1-1.479-1.479.1.1,0,0,1,.1-.1H51.939a.1.1,0,0,1,.1.1,1.481,1.481,0,0,1-1.479,1.479H9.375a.785.785,0,1,0,0,1.571H50.559a3.053,3.053,0,0,0,3.05-3.05A1.671,1.671,0,0,0,52.023,364.979ZM3.156,362.509a.942.942,0,0,1,.822-.933l17.407-2.2a4.116,4.116,0,0,1,4.634,4.084v1.52H3.156Z" transform="translate(0 -324.529)"/>
        <path id="Trazado_1076511" data-name="Trazado 1076511" d="M52.655,58.633a2.939,2.939,0,1,0-2.939-2.939A2.942,2.942,0,0,0,52.655,58.633Zm0-4.307a1.368,1.368,0,1,1-1.368,1.368A1.37,1.37,0,0,1,52.655,54.326Z" transform="translate(-44.51 -51.453)"/>
        <path id="Trazado_1076512" data-name="Trazado 1076512" d="M409.087,250.256a2.939,2.939,0,1,0-2.939-2.939A2.942,2.942,0,0,0,409.087,250.256Zm0-4.307a1.368,1.368,0,1,1-1.368,1.368A1.37,1.37,0,0,1,409.087,245.949Z" transform="translate(-363.622 -223.012)"/>
      </g>
    </g>
  </g>
</svg>
