<svg xmlns="http://www.w3.org/2000/svg" xmlns:xlink="http://www.w3.org/1999/xlink" width="400" height="359" viewBox="0 0 400 359">
  <defs>
    <clipPath id="clip-path">
      <rect id="Rectángulo_415829" data-name="Rectángulo 415829" width="400" height="359" transform="translate(1020 8327)" fill="#fff" stroke="#707070" stroke-width="1"/>
    </clipPath>
    <linearGradient id="linear-gradient" x1="0.614" y1="0.886" x2="0.248" y2="-0.139" gradientUnits="objectBoundingBox">
      <stop offset="0" stop-color="#fff"/>
      <stop offset="1" stop-color="#fff" stop-opacity="0"/>
    </linearGradient>
    <linearGradient id="linear-gradient-2" x1="0.092" y1="0.989" x2="0.718" y2="0.026" xlink:href="#linear-gradient"/>
  </defs>
  <g id="Enmascarar_grupo_1098833" data-name="Enmascarar grupo 1098833" transform="translate(-1020 -8327)" clip-path="url(#clip-path)">
    <g id="Grupo_1180924" data-name="Grupo 1180924" transform="translate(4 23)">
      <ellipse id="Elipse_12564" data-name="Elipse 12564" cx="182.5" cy="170.5" rx="182.5" ry="170.5" transform="translate(1034 8385)" fill="#ebe9f0"/>
    </g>
    <g id="OBJECTS" transform="translate(978.081 8294.211)">
      <g id="Grupo_1180923" data-name="Grupo 1180923" transform="translate(53.919 88.53)">
        <g id="Grupo_1180882" data-name="Grupo 1180882" transform="translate(3.702)">
          <path id="Trazado_1044288" data-name="Trazado 1044288" d="M149.96,293a45.14,45.14,0,0,1-7.578,39.411c-.385.493-1.2-.045-1.021-.591a50.966,50.966,0,0,0-1.272-33.965c-6.082-10.542-15.97-18.872-25.527-26.226-6.583-5.07-13.274-10.05-19.248-15.854a78.241,78.241,0,0,1-23.431-63.5,79.276,79.276,0,0,1,16.7-41.068c7.819-9.871,23.073-24.5,36.589-15.764,5.7,3.681,7.318,10.927,6,17.251-1.666,7.945-7.228,14.689-12.1,20.932-10.551,13.48-23.449,27.775-23.727,45.931-.269,17.233,13.22,29.361,25.715,39.142C133,268.057,145.679,277.722,149.96,293Z" transform="translate(-59.457 -93.145)" fill="url(#linear-gradient)"/>
          <path id="Trazado_1044289" data-name="Trazado 1044289" d="M434.106,227.223c-10.651,11.951-24.246,20.818-35.2,32.511-5.509,5.9-11.219,11.777-15.539,18.6-5.108,8.068-9.565,19.737-9.589,22.58,0,.759-1.361.743-1.32,0,2.108-37.589,44.923-66.091,56.413-96.025a47.259,47.259,0,0,0,3.19-23.313c-.992-7.149-4.006-13.786-7.861-19.813A172.39,172.39,0,0,0,411.787,145.4c-4.281-5.217-9.559-10.625-11.9-17.08-2.048-5.62-1.039-12.262,4.462-15.439,5.883-3.388,13.413-2.79,19.451-.191,12.922,5.559,21.128,20.022,25.762,32.645A81.706,81.706,0,0,1,434.106,227.223Z" transform="translate(-90.847 -90.825)" fill="url(#linear-gradient-2)"/>
          <g id="Grupo_1180870" data-name="Grupo 1180870" transform="translate(285.126 12.962)">
            <path id="Trazado_1044290" data-name="Trazado 1044290" d="M425.21,119.9c-.244.461-.487.923-.745,1.4-3.01-5.681-10.332-11.154-17.488-11.532.59-.885,1.112-1.672,1.55-2.341C414.88,97.743,433.107,104.86,425.21,119.9Z" transform="translate(-379.573 -103.001)" fill="#c95a6e"/>
            <path id="Trazado_1044291" data-name="Trazado 1044291" d="M421.273,122.094c-.486.912-1.009,1.85-1.559,2.828-.091.17-.193.339-.285.52-.505.9-1.025,1.815-1.568,2.751-7.982,13.817-19.409,31.191-21.834,34.092a1.5,1.5,0,0,1-.41.414c-1.012.387-13.985,4.689-15.507,4.012s-4.181-14.33-3.661-15.963c0,0,14.436-21.042,23.453-34.408.63-.933,1.234-1.837,1.807-2.682.084-.128.168-.245.251-.363.659-.983,1.265-1.9,1.825-2.733C410.942,110.941,418.263,116.413,421.273,122.094Z" transform="translate(-376.382 -103.79)" fill="#ebcd43"/>
            <path id="Trazado_1044292" data-name="Trazado 1044292" d="M422.6,125.87c-3.092-6.692-12.417-13.377-20.69-12.112-.684.1-1.911,2.461.888,2.969a20.936,20.936,0,0,1,7.481,2.537,23.6,23.6,0,0,1,9.091,8.373A1.842,1.842,0,0,0,422.6,125.87Z" transform="translate(-378.955 -104.107)" fill="#7eb3ce"/>
            <path id="Trazado_1044293" data-name="Trazado 1044293" d="M422.763,125.505a1.5,1.5,0,0,1-.575-.066,1.816,1.816,0,0,1-1.038-.863,23.546,23.546,0,0,0-9.09-8.364,20.985,20.985,0,0,0-7.476-2.539l-.116-.018a2.931,2.931,0,0,1-.941-.36,1.489,1.489,0,0,1,.169-2.6,13.765,13.765,0,0,1,2.848-.139c7.157.378,14.478,5.851,17.488,11.532.126.236.241.481.355.726A1.874,1.874,0,0,1,422.763,125.505Z" transform="translate(-379.14 -103.788)" fill="#7eb3ce"/>
            <g id="Grupo_1180869" data-name="Grupo 1180869" transform="translate(0 45.558)">
              <path id="Trazado_1044294" data-name="Trazado 1044294" d="M396.027,166.8a1.5,1.5,0,0,1-.41.414c-.725.279-7.687,2.6-12.076,3.6a8.543,8.543,0,0,1-3.431.408c-.435-.2-.978-1.471-1.5-3.23-1.29-4.324-2.532-11.577-2.161-12.733a11.033,11.033,0,0,1,3.571-1.394c.614.094,1.447,4.143,1.712,4.183s4.025-1.887,4.429-1.555,1.391,3.8,1.586,4.012,3.831-.9,4.3-.7.235,3.783.4,3.938,3.05-.748,3.429-.6C396.177,163.27,396.147,165.659,396.027,166.8Z" transform="translate(-376.382 -153.864)" fill="#ffdab6"/>
              <path id="Trazado_1044295" data-name="Trazado 1044295" d="M383.8,172.456a8.543,8.543,0,0,1-3.431.408c-.435-.2-.978-1.471-1.5-3.23a4.468,4.468,0,0,1,4.932,2.822Z" transform="translate(-376.641 -155.501)" fill="#281608"/>
            </g>
            <path id="Trazado_1044296" data-name="Trazado 1044296" d="M405.694,120.126c-4.109,4.968-7.73,10.4-11.5,15.631-3.582,4.963-7.291,9.9-10.477,15.126-.043.07.071.134.12.074,3.987-4.855,7.528-10.1,11.192-15.2s7.594-10.086,10.993-15.369C406.163,120.168,405.87,119.913,405.694,120.126Z" transform="translate(-377.146 -104.779)" fill="#d29f5e"/>
            <path id="Trazado_1044297" data-name="Trazado 1044297" d="M414.838,126.381c-6.529,9.594-13.651,19.008-19.539,29.011-.054.091.092.176.156.1,7.138-9.132,13.267-19.2,19.787-28.78C415.429,126.433,415.026,126.1,414.838,126.381Z" transform="translate(-378.354 -105.429)" fill="#d29f5e"/>
          </g>
          <g id="Grupo_1180871" data-name="Grupo 1180871" transform="translate(11.406 121.902)">
            <path id="Trazado_1044298" data-name="Trazado 1044298" d="M127.669,275.009c-4.9,7.9-13.365,13.556-25.406,13.709-.163.01-.336.01-.508.01-.566,0-1.121-.01-1.669-.039C74.67,287.6,65.8,261.587,73.434,243.044c4.266-10.383,13.719-18.417,28.321-18.417.336,0,.662,0,.987.01a30.141,30.141,0,0,1,18.331,6.251C133.949,241.042,136.135,261.367,127.669,275.009Z" transform="translate(-70.787 -224.627)" fill="#7eb3ce"/>
            <path id="Trazado_1044299" data-name="Trazado 1044299" d="M102.063,284.768c-.24.758.451,2.752.508,3.95-.163.01-.336.01-.508.01-.566,0-1.121-.01-1.669-.039-2.052-1.9-3.422-5.676-3.212-6.72.24-1.2-4.075-3.116-7.593-4.315s-4.871-3.116-5.589-5.513,5.273-11.744,4.315-12.435-2.157-1.227-2.637-3.029.479-2.992-1.678-4.429-6.951-5.752-9.107-7.191a3.016,3.016,0,0,1-1.151-2.014c4.266-10.383,13.719-18.417,28.321-18.417.336,0,.662,0,.987.01a9.38,9.38,0,0,1-.987,2.205c-1.361,2.2-1.41,5.273-2,6.357s-.365,4.908.24,7.066-1.438,4.669-2.752,6.357c-1.323,1.668-6.96,3.71-7.191,5.024a8.4,8.4,0,0,0,.278,5.034c.8,1.793,1.918,1.879,3.192,3.029s12.444,2.224,12.281,3.989-3.758,6.127-2.876,8.206.662,3.911,1.141,5.992S102.456,283.484,102.063,284.768Z" transform="translate(-71.095 -224.627)" fill="#cdd14b"/>
            <path id="Trazado_1044300" data-name="Trazado 1044300" d="M132.408,275.738c-.153-.077-.306-.153-.46-.22-3.039-1.343-6.135-4.708-7.862-5.513s.01-6.059,0-7.8,2.157-4.841,3.308-5.436,5.666-6.6,4.295-7.075a29,29,0,0,1-4.152-2.282,6.376,6.376,0,0,0-2.723-1.084c-1.15,0-2.291,1.889-2.933,2.56s-3.231,2.56-4.515,1.61a2.791,2.791,0,0,1-.719-3.768c.719-1.343,2.723-5.379,4.017-7.794,1.141-2.157,1.045-5.167,5.148-7.315C138.688,241.77,140.874,262.1,132.408,275.738Z" transform="translate(-75.526 -225.356)" fill="#cdd14b"/>
          </g>
          <g id="Grupo_1180873" data-name="Grupo 1180873" transform="translate(49.854)">
            <g id="Grupo_1180872" data-name="Grupo 1180872" transform="translate(6.368)">
              <path id="Trazado_1044301" data-name="Trazado 1044301" d="M138.323,103.207a18.9,18.9,0,0,1-4.96,9.569c-.295.308-4-5.092-2.718-10.32a23.161,23.161,0,0,1,3-6.27,49.325,49.325,0,0,0,3.761-7.646C137.546,88.165,138.985,98.158,138.323,103.207Z" transform="translate(-121.818 -88.53)" fill="#cdd14b"/>
              <path id="Trazado_1044302" data-name="Trazado 1044302" d="M136.932,94.825c.048-.153-.194-.274-.265-.119-2.732,6.013-5.217,13.108-2.793,19.624a.063.063,0,0,0,.122-.03C133.142,107.434,134.883,101.3,136.932,94.825Z" transform="translate(-122.08 -89.166)" fill="#b2b238"/>
              <path id="Trazado_1044303" data-name="Trazado 1044303" d="M132.37,112.992l-.123-.075a.312.312,0,0,1-.392-.065c-.117-.139-.224-.277-.341-.416A24.246,24.246,0,0,1,122,101.155c-1.37-3.371-2.48-9.064,2.316-10.132a.325.325,0,0,1,.379.355,28.68,28.68,0,0,0,7.672,21.033.262.262,0,0,1,.073.275.931.931,0,0,1,.1.073C132.7,112.858,132.533,113.091,132.37,112.992Z" transform="translate(-120.822 -88.789)" fill="#cdd14b"/>
            </g>
            <path id="Trazado_1044304" data-name="Trazado 1044304" d="M130.788,112.811c-1.583.487-9.235-1.338-14.322,3.882s-3.737,17.122,9.175,24.982c6.157,3.748,16.39,6.206,18.532,4.2a49.717,49.717,0,0,1,3.748-3.346c1.338-1.07,3.614-.937,6.024-2.142s3.806-8.965,3.882-11.11c.16-4.551.669-24.5-12.743-25.344C134.781,103.279,132.529,112.275,130.788,112.811Z" transform="translate(-113.712 -90.133)" fill="#c95a6e"/>
          </g>
          <g id="Grupo_1180881" data-name="Grupo 1180881" transform="translate(297.686 116.577)">
            <path id="Trazado_1044305" data-name="Trazado 1044305" d="M440.273,304.269l-1.729-8.668-.08-.4-.473-2.331-.092-.456-.278-1.382-.085-.464-.277-1.367-.092-.456-.278-1.382-.085-.464-.224-1.113-.08-.4-.435-2.16-.092-.456-.27-1.375-.092-.456-.278-1.382-.092-.456-.278-1.382-.092-.456-.245-1.271-.089-.41.007-.008-.406-1.995-.092-.456-.278-1.382-.084-.449-.278-1.382-.092-.456-.27-1.375-.1-.463-.283-1.443-.08-.4-.37-1.838-.092-.456-.27-1.375-.092-.456-.278-1.382-.092-.456-.278-1.382-.092-.456-.311-1.593-.09-.425-.331-1.652-.093-.471-.277-1.367.007-.008-.092-.456-.285-1.374-.085-.464-.285-1.374.007-.008-.084-.449-.364-1.763-.073-.412-.356-1.771-.092-.456-.278-1.382-.084-.449-.278-1.382-.1-.448-.278-1.382-.085-.464-.332-1.666-.082-.418-.4-1.957-.092-.456-.27-1.375-.093-.471-.277-1.367-.092-.456-.278-1.382-.085-.464-.3-1.456-.081-.418-1.567-7.845L390.405,268.09Zm-22.254-58.446,6.72,33.639-19.6-14.216Z" transform="translate(-390.405 -218.682)" fill="#cdd14b"/>
            <path id="Trazado_1044306" data-name="Trazado 1044306" d="M425.826,228.42a7.593,7.593,0,0,1,1.829-.742c.252-.082.5-.165.77-.233l.081.418c-.272.107-.545.2-.834.292a7.822,7.822,0,0,1-1.773.509A.133.133,0,0,1,425.826,228.42Z" transform="translate(-394.093 -219.596)" fill="#281608"/>
            <g id="Grupo_1180874" data-name="Grupo 1180874" transform="translate(32.975 9.725)">
              <path id="Trazado_1044307" data-name="Trazado 1044307" d="M427.275,230.207a6.926,6.926,0,0,1,1.683-.668l.085.464a6.71,6.71,0,0,1-1.687.441A.13.13,0,0,1,427.275,230.207Z" transform="translate(-427.22 -229.539)" fill="#281608"/>
              <path id="Trazado_1044308" data-name="Trazado 1044308" d="M427.7,232.252a6.611,6.611,0,0,1,1.67-.652l.092.456a6.913,6.913,0,0,1-1.68.433A.131.131,0,0,1,427.7,232.252Z" transform="translate(-427.265 -229.754)" fill="#281608"/>
              <path id="Trazado_1044309" data-name="Trazado 1044309" d="M428.124,234.3a6.728,6.728,0,0,1,1.653-.665l.093.471a7.54,7.54,0,0,1-1.68.433A.128.128,0,0,1,428.124,234.3Z" transform="translate(-427.308 -229.966)" fill="#281608"/>
              <path id="Trazado_1044310" data-name="Trazado 1044310" d="M428.537,236.353a6.3,6.3,0,0,1,1.646-.657l.092.456a7.3,7.3,0,0,1-1.657.438A.13.13,0,0,1,428.537,236.353Z" transform="translate(-427.352 -230.181)" fill="#281608"/>
            </g>
            <g id="Grupo_1180875" data-name="Grupo 1180875" transform="translate(34.706 19.738)">
              <path id="Trazado_1044311" data-name="Trazado 1044311" d="M429.206,241.469a8.247,8.247,0,0,1,1.838-.719l.111-.032.085.464-.177.061a7.7,7.7,0,0,1-1.776.463C429.159,241.724,429.1,241.538,429.206,241.469Z" transform="translate(-429.153 -240.718)" fill="#281608"/>
              <path id="Trazado_1044312" data-name="Trazado 1044312" d="M429.634,243.521a7.283,7.283,0,0,1,1.832-.711c.037-.011.059-.021.1-.031l.1.448-.177.061a8.154,8.154,0,0,1-1.783.471A.128.128,0,0,1,429.634,243.521Z" transform="translate(-429.197 -240.933)" fill="#281608"/>
              <path id="Trazado_1044313" data-name="Trazado 1044313" d="M430.047,245.572a7.162,7.162,0,0,1,1.838-.719c.037-.011.059-.021.1-.031l.084.449a1.044,1.044,0,0,1-.162.059,7.878,7.878,0,0,1-1.775.478A.129.129,0,0,1,430.047,245.572Z" transform="translate(-429.24 -241.146)" fill="#281608"/>
              <path id="Trazado_1044314" data-name="Trazado 1044314" d="M430.468,247.615a7.359,7.359,0,0,1,1.838-.719c.022-.01.059-.021.081-.03l.092.456a1.045,1.045,0,0,1-.162.059,8.2,8.2,0,0,1-1.768.47A.13.13,0,0,1,430.468,247.615Z" transform="translate(-429.284 -241.359)" fill="#281608"/>
            </g>
            <g id="Grupo_1180876" data-name="Grupo 1180876" transform="translate(36.858 29.644)">
              <path id="Trazado_1044315" data-name="Trazado 1044315" d="M431.613,252.478a6.746,6.746,0,0,1,1.78-.7l.084.449-.007.008a7.878,7.878,0,0,1-1.775.478A.129.129,0,0,1,431.613,252.478Z" transform="translate(-431.555 -251.778)" fill="#281608"/>
              <path id="Trazado_1044316" data-name="Trazado 1044316" d="M432.033,254.521a6.8,6.8,0,0,1,1.764-.7l.085.464a8.2,8.2,0,0,1-1.768.47A.13.13,0,0,1,432.033,254.521Z" transform="translate(-431.599 -251.991)" fill="#281608"/>
              <path id="Trazado_1044317" data-name="Trazado 1044317" d="M432.454,256.565a7.118,7.118,0,0,1,1.757-.69l.092.456-.007.008a8.021,8.021,0,0,1-1.768.47A.134.134,0,0,1,432.454,256.565Z" transform="translate(-431.643 -252.205)" fill="#281608"/>
              <path id="Trazado_1044318" data-name="Trazado 1044318" d="M432.868,258.616a7.509,7.509,0,0,1,1.749-.7l.093.471a7.773,7.773,0,0,1-1.762.462A.13.13,0,0,1,432.868,258.616Z" transform="translate(-431.686 -252.419)" fill="#281608"/>
            </g>
            <g id="Grupo_1180877" data-name="Grupo 1180877" transform="translate(38.728 39.283)">
              <path id="Trazado_1044319" data-name="Trazado 1044319" d="M433.7,263.258a7.882,7.882,0,0,1,1.824-.718l.092.456-.066.029a8.151,8.151,0,0,1-1.783.471A.128.128,0,0,1,433.7,263.258Z" transform="translate(-433.643 -262.54)" fill="#281608"/>
              <path id="Trazado_1044320" data-name="Trazado 1044320" d="M434.118,265.31a7.442,7.442,0,0,1,1.824-.718l.092.456c-.022.01-.037.011-.059.021a7.877,7.877,0,0,1-1.775.478A.13.13,0,0,1,434.118,265.31Z" transform="translate(-433.687 -262.754)" fill="#281608"/>
              <path id="Trazado_1044321" data-name="Trazado 1044321" d="M434.539,267.354a7.221,7.221,0,0,1,1.816-.71l.092.456c-.022.01-.037.011-.059.021a8.2,8.2,0,0,1-1.768.47A.13.13,0,0,1,434.539,267.354Z" transform="translate(-433.731 -262.968)" fill="#281608"/>
              <path id="Trazado_1044322" data-name="Trazado 1044322" d="M434.96,269.4a8.157,8.157,0,0,1,1.8-.708l.092.456a.079.079,0,0,1-.044.019,8.1,8.1,0,0,1-1.775.478A.133.133,0,0,1,434.96,269.4Z" transform="translate(-433.774 -263.181)" fill="#281608"/>
            </g>
            <g id="Grupo_1180878" data-name="Grupo 1180878" transform="translate(40.597 48.931)">
              <path id="Trazado_1044323" data-name="Trazado 1044323" d="M435.782,274.042a8.249,8.249,0,0,1,1.838-.719c.015,0,.038-.011.052-.012l.1.463c-.044.019-.09.022-.133.042a7.737,7.737,0,0,1-1.777.463C435.735,274.3,435.682,274.111,435.782,274.042Z" transform="translate(-435.73 -273.311)" fill="#281608"/>
              <path id="Trazado_1044324" data-name="Trazado 1044324" d="M436.211,276.092a7.566,7.566,0,0,1,1.838-.719c.015,0,.022-.009.037-.011l.092.456c-.037.011-.081.03-.118.04a8.2,8.2,0,0,1-1.783.472A.128.128,0,0,1,436.211,276.092Z" transform="translate(-435.773 -273.525)" fill="#281608"/>
              <path id="Trazado_1044325" data-name="Trazado 1044325" d="M436.624,278.144a7.158,7.158,0,0,1,1.839-.719c.015,0,.022-.01.037-.011l.084.449a.425.425,0,0,1-.1.039,7.878,7.878,0,0,1-1.775.478A.129.129,0,0,1,436.624,278.144Z" transform="translate(-435.817 -273.739)" fill="#281608"/>
              <path id="Trazado_1044326" data-name="Trazado 1044326" d="M437.044,280.187a7.36,7.36,0,0,1,1.838-.719c.007-.008.015,0,.022-.01l.092.456a.425.425,0,0,1-.1.039,8.192,8.192,0,0,1-1.769.47A.129.129,0,0,1,437.044,280.187Z" transform="translate(-435.861 -273.952)" fill="#281608"/>
            </g>
            <g id="Grupo_1180879" data-name="Grupo 1180879" transform="translate(42.464 58.577)">
              <path id="Trazado_1044327" data-name="Trazado 1044327" d="M437.873,284.823a8.177,8.177,0,0,1,1.832-.711l.111-.032.092.456-.177.061a7.463,7.463,0,0,1-1.783.471A.133.133,0,0,1,437.873,284.823Z" transform="translate(-437.814 -284.08)" fill="#281608"/>
              <path id="Trazado_1044328" data-name="Trazado 1044328" d="M438.287,286.875a8.249,8.249,0,0,1,1.838-.719.431.431,0,0,1,.1-.024l.092.456-.177.061a7.739,7.739,0,0,1-1.777.463C438.24,287.13,438.187,286.944,438.287,286.875Z" transform="translate(-437.858 -284.294)" fill="#281608"/>
              <path id="Trazado_1044329" data-name="Trazado 1044329" d="M438.716,288.926a7.559,7.559,0,0,1,1.839-.719.321.321,0,0,1,.09-.023l.092.456c-.059.021-.111.032-.17.053a8.157,8.157,0,0,1-1.783.472A.13.13,0,0,1,438.716,288.926Z" transform="translate(-437.902 -284.508)" fill="#281608"/>
              <path id="Trazado_1044330" data-name="Trazado 1044330" d="M439.137,290.969a7.282,7.282,0,0,1,1.832-.711c.022-.009.059-.021.081-.03l.092.456c-.052.012-.1.039-.155.051a7.878,7.878,0,0,1-1.775.478A.132.132,0,0,1,439.137,290.969Z" transform="translate(-437.945 -284.721)" fill="#281608"/>
            </g>
            <g id="Grupo_1180880" data-name="Grupo 1180880" transform="translate(44.336 68.214)">
              <path id="Trazado_1044331" data-name="Trazado 1044331" d="M439.959,295.612a8.01,8.01,0,0,1,1.838-.719c.059-.02.118-.04.17-.053l.085.464c-.082.03-.155.051-.236.081a8.2,8.2,0,0,1-1.783.472A.136.136,0,0,1,439.959,295.612Z" transform="translate(-439.904 -294.84)" fill="#281608"/>
              <path id="Trazado_1044332" data-name="Trazado 1044332" d="M440.379,297.657a7.7,7.7,0,0,1,1.832-.711c.052-.012.111-.032.163-.044l.092.456c-.074.021-.155.051-.229.073a7.462,7.462,0,0,1-1.783.471A.133.133,0,0,1,440.379,297.657Z" transform="translate(-439.947 -295.055)" fill="#281608"/>
              <path id="Trazado_1044333" data-name="Trazado 1044333" d="M440.793,299.707a8.219,8.219,0,0,1,1.838-.719.954.954,0,0,0,.155-.051l.085.464c-.074.021-.14.05-.214.072a7.461,7.461,0,0,1-1.783.471C440.746,299.962,440.693,299.776,440.793,299.707Z" transform="translate(-439.991 -295.267)" fill="#281608"/>
              <path id="Trazado_1044334" data-name="Trazado 1044334" d="M441.222,301.758a7.567,7.567,0,0,1,1.838-.719c.044-.019.09-.023.133-.042l.092.456c-.074.021-.14.05-.214.072a8.206,8.206,0,0,1-1.783.472A.13.13,0,0,1,441.222,301.758Z" transform="translate(-440.035 -295.482)" fill="#281608"/>
            </g>
            <path id="Trazado_1044335" data-name="Trazado 1044335" d="M427.977,239.375a7.7,7.7,0,0,1,1.822-.734c.273-.091.54-.176.814-.252l.082.418c-.287.108-.574.217-.87.318a8.161,8.161,0,0,1-1.774.494A.135.135,0,0,1,427.977,239.375Z" transform="translate(-394.318 -220.738)" fill="#281608"/>
            <path id="Trazado_1044336" data-name="Trazado 1044336" d="M430.127,250.347a7.182,7.182,0,0,1,1.829-.742,8.67,8.67,0,0,1,.845-.254l.073.412c-.294.116-.589.218-.891.327a8.3,8.3,0,0,1-1.774.494A.13.13,0,0,1,430.127,250.347Z" transform="translate(-394.542 -221.881)" fill="#281608"/>
            <path id="Trazado_1044337" data-name="Trazado 1044337" d="M432.278,261.3a7.548,7.548,0,0,1,1.829-.742c.3-.1.592-.187.873-.272l.09.425c-.317.111-.62.22-.937.331a7.331,7.331,0,0,1-1.774.494C432.231,261.556,432.178,261.371,432.278,261.3Z" transform="translate(-394.767 -223.022)" fill="#281608"/>
            <path id="Trazado_1044338" data-name="Trazado 1044338" d="M434.437,272.266a7.355,7.355,0,0,1,1.829-.742c.3-.1.6-.2.9-.275l.08.4c-.308.133-.64.245-.958.356a8.3,8.3,0,0,1-1.774.493A.13.13,0,0,1,434.437,272.266Z" transform="translate(-394.992 -224.165)" fill="#281608"/>
            <path id="Trazado_1044339" data-name="Trazado 1044339" d="M436.6,283.229a7.957,7.957,0,0,1,1.821-.748c.31-.1.629-.2.934-.278l.089.41c-.324.119-.664.239-1,.351a7.738,7.738,0,0,1-1.766.5A.129.129,0,0,1,436.6,283.229Z" transform="translate(-395.217 -225.308)" fill="#281608"/>
            <path id="Trazado_1044340" data-name="Trazado 1044340" d="M438.745,294.183a8,8,0,0,1,1.829-.742c.317-.111.636-.206.963-.295l.08.4c-.33.142-.677.255-1.017.375a8.3,8.3,0,0,1-1.774.493A.13.13,0,0,1,438.745,294.183Z" transform="translate(-395.441 -226.449)" fill="#281608"/>
            <path id="Trazado_1044341" data-name="Trazado 1044341" d="M440.9,305.147a7.592,7.592,0,0,1,1.829-.742c.325-.1.657-.216.992-.3l.08.4c-.347.128-.7.25-1.055.372a7.443,7.443,0,0,1-1.766.5A.129.129,0,0,1,440.9,305.147Z" transform="translate(-395.666 -227.592)" fill="#281608"/>
          </g>
          <text id="_20_5_" data-name="20/5 =" transform="matrix(1, -0.028, 0.028, 1, 200.825, 34.377)" fill="#cb7f45" font-size="28" font-family="SegoeUI, Segoe UI"><tspan x="0" y="0">20/5 =</tspan></text>
          <text id="a_b_c_" data-name="a(b+c)" transform="translate(1.194 94.122) rotate(8.975)" fill="#cb7f45" font-size="28" font-family="SegoeUI, Segoe UI"><tspan x="0" y="0">a(b+c)</tspan></text>
          <text id="www" transform="translate(12.838 160.866) rotate(-0.447)" fill="#6a7f89" font-size="28" font-family="SegoeUI, Segoe UI"><tspan x="0" y="0">www</tspan></text>
        </g>
        <g id="Grupo_1180922" data-name="Grupo 1180922" transform="translate(0 31.019)">
          <path id="Trazado_1044342" data-name="Trazado 1044342" d="M405.175,408.344c0,8.405-42.237,15.217-94.354,15.217-34.6,0-64.857-3-81.269-7.481-16.412,4.479-46.67,7.481-81.279,7.481-52.117,0-94.354-6.812-94.354-15.217s42.237-15.217,94.354-15.217c34.61,0,64.867,3,81.279,7.481,16.412-4.479,46.67-7.481,81.269-7.481C362.938,393.127,405.175,399.94,405.175,408.344Z" transform="translate(-53.919 -151.32)" fill="#397b86" opacity="0.2"/>
          <g id="Grupo_1180921" data-name="Grupo 1180921" transform="translate(2.145)">
            <g id="Grupo_1180907" data-name="Grupo 1180907" transform="translate(161.128 33.373)">
              <g id="Grupo_1180883" data-name="Grupo 1180883">
                <path id="Trazado_1044343" data-name="Trazado 1044343" d="M356.038,177.512c-5.761-7.587-18.467-13.25-34.568-16.036s-50.019-2.7-64.4,34.808c-13,33.927-20.145,71.339-17.111,76.72s31.1,27.134,60.5,30.423,54.026-11.993,56.07-18.633S373.274,200.211,356.038,177.512Z" transform="translate(-236.526 -160.421)" fill="#281608"/>
                <path id="Trazado_1044344" data-name="Trazado 1044344" d="M304.714,163.068c-8.5-.448-17.549.356-25.19,4.337-7.317,3.812-13.1,9.974-17.592,16.8-4.94,7.51-8.643,15.852-11.988,24.171a203.028,203.028,0,0,0-8.753,27.158,182.574,182.574,0,0,0-4.985,31.107c-.011.151.212.143.231,0a238.239,238.239,0,0,1,12.652-52.52,173.378,173.378,0,0,1,10.929-24.235c4.135-7.383,9.351-14.319,16.337-19.225A35.644,35.644,0,0,1,289.2,165c5.126-1.137,10.315-1.072,15.511-1.543A.2.2,0,0,0,304.714,163.068Z" transform="translate(-236.207 -160.685)" fill="#281608"/>
              </g>
              <g id="Grupo_1180888" data-name="Grupo 1180888" transform="translate(66.73 123.226)">
                <path id="Trazado_1044345" data-name="Trazado 1044345" d="M357.59,313.406c.717,2.186-4.873,7.569-6.037,8.339-.511.34-2.481,2.714-5.267,5.177-3.583,3.162-8.518,6.485-13.462,5.831-8.787-1.155-19.508-14.582-21.73-23.27s5.6-13.14,11.008-10.918,11.76,18.093,14.018,18.093c.645,0,2.615-1.084,4.882-2.427,3.278-1.935,7.157-4.389,8.527-4.846,2.32-.77,10.247-1.236,10.247-1.236S356.874,311.22,357.59,313.406Z" transform="translate(-310.707 -297.997)" fill="#d29f5e"/>
                <g id="Grupo_1180887" data-name="Grupo 1180887" transform="translate(34.156 1.004)">
                  <g id="Grupo_1180886" data-name="Grupo 1180886">
                    <path id="Trazado_1044346" data-name="Trazado 1044346" d="M349.844,322.033l30.584,16.387a1.906,1.906,0,0,0,2.155-.24L405.229,318.5a1.907,1.907,0,0,0-.367-3.129L374.11,299.335a1.908,1.908,0,0,0-2.127.244l-22.477,19.329A1.907,1.907,0,0,0,349.844,322.033Z" transform="translate(-348.841 -299.118)" fill="#6a7f89"/>
                    <path id="Trazado_1044347" data-name="Trazado 1044347" d="M401.065,318.7l-8.609,7.475-3.555,3.084-6.489,5.644a1.559,1.559,0,0,1-1.767.2l-7.582-4-3.095-1.66-9.53-5.14-.91-.482-2.7-1.456-1.746-.942a1.5,1.5,0,0,1-.739-.867,1.563,1.563,0,0,1,.46-1.7l6.093-5.236,9.53-8.2,2.881-2.474a1.559,1.559,0,0,1,1.756-.2l2.3,1.2,8.385,4.391,9.691,5.011,3.17,1.67,2.142,1.113a1.5,1.5,0,0,1,.45.354,1.43,1.43,0,0,1,.332.61A1.552,1.552,0,0,1,401.065,318.7Z" transform="translate(-349.406 -299.476)" fill="#281608"/>
                    <g id="Grupo_1180884" data-name="Grupo 1180884" transform="translate(18.479 6.578)">
                      <path id="Trazado_1044348" data-name="Trazado 1044348" d="M377.076,306.679c-.264.455-.548.972-.854,1.5a5.584,5.584,0,0,0-4.972.279,3.537,3.537,0,0,0-1.552,4.145c.712,1.555,2.653,1.123,3.785.381a8.361,8.361,0,0,0,1.161-.937,4.934,4.934,0,0,0,0,2.321c.428,1.6,2.151,2.784,3.656,1.731.391-.274.067-.85-.353-.806-4.4.458-.8-6.431.032-8.113C378.239,306.658,377.375,306.165,377.076,306.679Zm-4.26,5.369c-1.071.507-2.18.23-2.065-1.181a2.618,2.618,0,0,1,1.068-1.7,5.5,5.5,0,0,1,4.079-.438A8.223,8.223,0,0,1,372.816,312.048Z" transform="translate(-369.472 -306.462)" fill="#7eb3ce"/>
                      <path id="Trazado_1044349" data-name="Trazado 1044349" d="M390.881,321.074a3.642,3.642,0,0,0-3.928-.971c.271-.168.517-.313.674-.417,2.147-1.427,4.45-2.6,6.567-4.068a.277.277,0,0,0-.214-.5,24.607,24.607,0,0,0-6.318,2.832c-1.485.887-3.275,1.859-3.924,3.578-1.1,2.926,1.877,4.888,4.513,4.466C390.642,325.606,392.8,323.324,390.881,321.074Zm-3.452,3.865c-1.987-.231-2.509-1.439-2.121-2.372a2.945,2.945,0,0,1,2.628-1.439c1.328.005,2.507.822,2.361,2.082A2.969,2.969,0,0,1,387.429,324.939Z" transform="translate(-370.936 -307.363)" fill="#c95a6e"/>
                      <path id="Trazado_1044350" data-name="Trazado 1044350" d="M375.085,321.88c1.378-.018,1.985,1.612,1.982,2.743a.277.277,0,0,0,.542.073,2.974,2.974,0,0,0-1.583-4c-1.8-.681-3.259.6-4.049,2.127a3.864,3.864,0,0,0,5.441,5.329.317.317,0,0,0-.159-.585c-1.111,0-2.209.258-3.24-.327a2.449,2.449,0,0,1-1.156-2.88C373.123,323.4,373.917,321.9,375.085,321.88Z" transform="translate(-369.669 -307.927)" fill="#cdd14b"/>
                    </g>
                    <g id="Grupo_1180885" data-name="Grupo 1180885" transform="translate(4.938 4.461)" opacity="0.2">
                      <path id="Trazado_1044351" data-name="Trazado 1044351" d="M388.578,309.559l-27.75,4.867,10.285-8.851,6.939-1.477Z" transform="translate(-355.029 -304.098)" fill="#fff"/>
                      <path id="Trazado_1044352" data-name="Trazado 1044352" d="M398.623,316.264l-41.784,7.356-1.746-.942a1.5,1.5,0,0,1-.739-.867l41.1-7.217Z" transform="translate(-354.354 -305.193)" fill="#fff"/>
                      <path id="Trazado_1044353" data-name="Trazado 1044353" d="M394.284,328.929l-3.555,3.084-15.838,1.842-3.095-1.66Z" transform="translate(-356.173 -306.688)" fill="#fff"/>
                      <path id="Trazado_1044354" data-name="Trazado 1044354" d="M402.15,318.708l-41.1,7.217-.91-.482,41.677-7.346A1.43,1.43,0,0,1,402.15,318.708Z" transform="translate(-354.958 -305.558)" fill="#fff"/>
                    </g>
                  </g>
                </g>
                <path id="Trazado_1044355" data-name="Trazado 1044355" d="M354.515,310.919c2.1-.895,6.422-1.889,8.405-1.511s5.383,2.078,4.816,3.022-3.826.746-5.549.468-3.736,4.942-9.1,3.293C350.682,315.453,352.972,311.577,354.515,310.919Z" transform="translate(-315.019 -299.179)" fill="#d29f5e"/>
                <path id="Trazado_1044356" data-name="Trazado 1044356" d="M346.287,326.922c-3.583,3.162-8.518,6.485-13.462,5.831-8.787-1.155-19.508-14.582-21.73-23.27s5.6-13.14,11.008-10.918,11.76,18.093,14.018,18.093c.645,0,2.615-1.084,4.882-2.427a39.6,39.6,0,0,1,3.072,5.894A41.55,41.55,0,0,1,346.287,326.922Z" transform="translate(-310.707 -297.997)" fill="#cb7f45"/>
              </g>
              <g id="Grupo_1180899" data-name="Grupo 1180899" transform="translate(32.144 116.437)">
                <g id="Grupo_1180895" data-name="Grupo 1180895" transform="translate(44.98 49.238)">
                  <g id="Grupo_1180891" data-name="Grupo 1180891" transform="translate(2.229)">
                    <path id="Trazado_1044357" data-name="Trazado 1044357" d="M409.265,390.123a72.27,72.27,0,0,1-8.322-2.579c-1.279-.441-2.662-.912-4.088-1.394-1.121-.388-2.274-.786-3.438-1.184l-1.006-.346c-7.662-2.621-15.523-5.251-17.913-5.5-4.895-.524-38.781,12.923-42.8,12.053s-13.28-21.665,0-33.718c4.213-3.826,31.968-12.4,40.521-12.053,6.4.262,25.637,13.825,35.479,21.162.125.084.252.178.377.272.357.262.7.524,1.027.765,2.537,1.908,4.213,3.217,4.517,3.48.6.524,3.364-.975,6.582-2.778a.078.078,0,0,0,.031-.011c4.349-2.443,9.507-5.43,11.2-4.727C434.42,364.789,411.183,390.123,409.265,390.123Z" transform="translate(-324.801 -345.389)" fill="#d29f5e"/>
                    <g id="Grupo_1180889" data-name="Grupo 1180889" transform="translate(67.411 18.071)">
                      <path id="Trazado_1044358" data-name="Trazado 1044358" d="M417.115,392.227a72.268,72.268,0,0,1-8.322-2.579c-1.279-.441-2.662-.912-4.088-1.394-1.121-.388-2.274-.786-3.438-1.184l-1.006-.346a2.813,2.813,0,0,1-.2-1.069,3.055,3.055,0,0,1,3.05-3.061,2.955,2.955,0,0,1,2,.765,3.056,3.056,0,0,1,3.9-4.653,3.056,3.056,0,0,1,1.772-5.3,2.941,2.941,0,0,1,1.541.262,3.054,3.054,0,0,1,2.191-5.189,2.836,2.836,0,0,1,1.037.189,1.781,1.781,0,0,1,.408.178,3.137,3.137,0,0,1,1,.86c2.537,1.908,4.213,3.217,4.517,3.48.6.524,3.364-.975,6.582-2.778a.078.078,0,0,0,.031-.011c4.349-2.443,9.507-5.43,11.2-4.727C442.27,366.893,419.033,392.227,417.115,392.227Z" transform="translate(-400.063 -365.564)" fill="#fff"/>
                    </g>
                    <g id="Grupo_1180890" data-name="Grupo 1180890" transform="translate(76.131 18.069)">
                      <path id="Trazado_1044359" data-name="Trazado 1044359" d="M418.131,392.227a72.26,72.26,0,0,1-8.322-2.579l-.011-.011c2.862.965,21.955-15.669,23.478-19.233.8-1.861-3.742-.125-4.171-.011,4.349-2.443,9.507-5.43,11.2-4.727C443.285,366.893,420.048,392.227,418.131,392.227Z" transform="translate(-409.798 -365.562)" fill="#281608"/>
                      <path id="Trazado_1044360" data-name="Trazado 1044360" d="M428.54,371.563a8.8,8.8,0,0,0-5.012,4.766,9.579,9.579,0,0,0,.706,7.154.165.165,0,0,0,.305-.082c-.5-4.511.661-8.245,4.126-11.226C429,371.883,428.95,371.439,428.54,371.563Z" transform="translate(-411.186 -366.185)" fill="#281608"/>
                    </g>
                  </g>
                  <g id="Grupo_1180894" data-name="Grupo 1180894" transform="translate(0 6.945)">
                    <path id="Trazado_1044361" data-name="Trazado 1044361" d="M408.606,399.454a73.849,73.849,0,0,1-8.5-2.634c-1.306-.45-2.72-.932-4.177-1.424-1.146-.4-2.323-.8-3.512-1.21l-1.028-.354c-7.827-2.677-15.859-5.365-18.3-5.622-5-.536-39.621,13.2-43.721,12.315s-13.567-22.134,0-34.448c4.3-3.909,32.661-12.668,41.4-12.315,6.543.268,26.193,14.124,36.248,21.62.128.086.257.182.385.279.364.268.717.536,1.05.782,2.591,1.949,4.3,3.287,4.616,3.555.61.536,3.438-1,6.725-2.838a.083.083,0,0,0,.032-.011c4.444-2.495,9.713-5.547,11.447-4.83C434.306,373.572,410.566,399.454,408.606,399.454Z" transform="translate(-322.312 -353.206)" fill="#d29f5e"/>
                    <g id="Grupo_1180892" data-name="Grupo 1180892" transform="translate(68.87 19.005)">
                      <path id="Trazado_1044362" data-name="Trazado 1044362" d="M416.626,401.6a73.838,73.838,0,0,1-8.5-2.634c-1.306-.45-2.72-.932-4.177-1.424-1.146-.4-2.323-.8-3.512-1.21l-1.028-.354a2.879,2.879,0,0,1-.2-1.093,3.121,3.121,0,0,1,3.116-3.127,3.015,3.015,0,0,1,2.045.782,3.122,3.122,0,0,1,3.984-4.754,3.122,3.122,0,0,1,1.809-5.418,3.01,3.01,0,0,1,1.574.268,3.12,3.12,0,0,1,2.238-5.3,2.923,2.923,0,0,1,1.06.193,1.859,1.859,0,0,1,.417.182,3.205,3.205,0,0,1,1.017.878c2.591,1.949,4.3,3.287,4.616,3.555.61.536,3.438-1,6.725-2.838a.083.083,0,0,0,.032-.011c4.444-2.495,9.713-5.547,11.447-4.83C442.326,375.722,418.586,401.6,416.626,401.6Z" transform="translate(-399.203 -374.361)" fill="#fff"/>
                    </g>
                    <g id="Grupo_1180893" data-name="Grupo 1180893" transform="translate(77.78 19.006)">
                      <path id="Trazado_1044363" data-name="Trazado 1044363" d="M417.664,401.6a73.838,73.838,0,0,1-8.5-2.634l-.011-.011c2.924.985,22.43-16.009,23.987-19.65.813-1.9-3.823-.128-4.262-.011,4.444-2.495,9.713-5.547,11.447-4.83C443.364,375.722,419.623,401.6,417.664,401.6Z" transform="translate(-409.15 -374.362)" fill="#281608"/>
                      <path id="Trazado_1044364" data-name="Trazado 1044364" d="M428.3,380.492a8.984,8.984,0,0,0-5.121,4.869c-.862,2.536-.319,4.929.721,7.309a.168.168,0,0,0,.312-.084c-.508-4.608.675-8.424,4.215-11.469C428.769,380.82,428.717,380.366,428.3,380.492Z" transform="translate(-410.569 -374.999)" fill="#281608"/>
                    </g>
                    <path id="Trazado_1044365" data-name="Trazado 1044365" d="M414.745,379.688c-11.373-9.129-22.9-18.381-36.09-24.807-6.088-2.967-12.112-1.533-18.464-.118a99.538,99.538,0,0,0-21.093,7.055.046.046,0,0,0,.036.084,162.3,162.3,0,0,1,19.825-6.034,78.971,78.971,0,0,1,10.92-1.877c3.813-.3,6.974,1.064,10.275,2.819a220.257,220.257,0,0,1,34.368,23.057C415.038,380.281,415.266,380.106,414.745,379.688Z" transform="translate(-324.061 -353.143)" fill="#cb7f45"/>
                  </g>
                </g>
                <g id="Grupo_1180898" data-name="Grupo 1180898">
                  <path id="Trazado_1044366" data-name="Trazado 1044366" d="M298.965,294.685c-16.783,11.422-32.224,74.623-25.081,90.217,6.336,13.831,33.92,14.39,47.028,10.976,13.876-3.614,26.191-7.094,28.867-8.969,1.923-1.346-6.157-31.31,7.783-46.2,0,0-10.059,1.36-14.991,3.569-1.186.531-6.538-28.08-12.558-41.742C324.261,289.485,310.036,287.15,298.965,294.685Z" transform="translate(-272.094 -290.417)" fill="#c95a6e"/>
                  <g id="Grupo_1180897" data-name="Grupo 1180897" transform="translate(6.531 3.385)">
                    <path id="Trazado_1044367" data-name="Trazado 1044367" d="M301.659,305.007c-4.979,0-4.986,7.737,0,7.737S306.645,305.007,301.659,305.007Z" transform="translate(-281.319 -295.324)" fill="#af4b61"/>
                    <path id="Trazado_1044368" data-name="Trazado 1044368" d="M326.05,350.666c-4.978,0-4.986,7.737,0,7.737S331.037,350.666,326.05,350.666Z" transform="translate(-283.863 -300.086)" fill="#af4b61"/>
                    <path id="Trazado_1044369" data-name="Trazado 1044369" d="M345.465,363.874c-4.978,0-4.986,7.737,0,7.737S350.452,363.874,345.465,363.874Z" transform="translate(-285.888 -301.464)" fill="#af4b61"/>
                    <path id="Trazado_1044370" data-name="Trazado 1044370" d="M308.82,396.076c-4.978,0-4.986,7.737,0,7.737S313.806,396.076,308.82,396.076Z" transform="translate(-282.066 -304.823)" fill="#af4b61"/>
                    <path id="Trazado_1044371" data-name="Trazado 1044371" d="M345.355,384.36c-4.979,0-4.987,7.737,0,7.737S350.341,384.36,345.355,384.36Z" transform="translate(-285.876 -303.601)" fill="#af4b61"/>
                    <path id="Trazado_1044372" data-name="Trazado 1044372" d="M320.194,374.6c-4.979,0-4.987,7.737,0,7.737S325.18,374.6,320.194,374.6Z" transform="translate(-283.252 -302.583)" fill="#af4b61"/>
                    <path id="Trazado_1044373" data-name="Trazado 1044373" d="M284.186,385.812c-4.978,0-4.986,7.737,0,7.737S289.173,385.812,284.186,385.812Z" transform="translate(-279.496 -303.752)" fill="#af4b61"/>
                    <path id="Trazado_1044374" data-name="Trazado 1044374" d="M288.358,323.239c-4.978,0-4.986,7.737,0,7.737S293.345,323.239,288.358,323.239Z" transform="translate(-279.931 -297.225)" fill="#af4b61"/>
                    <path id="Trazado_1044375" data-name="Trazado 1044375" d="M319.369,321.767c-4.978,0-4.986,7.737,0,7.737S324.355,321.767,319.369,321.767Z" transform="translate(-283.166 -297.072)" fill="#af4b61"/>
                    <path id="Trazado_1044376" data-name="Trazado 1044376" d="M283.122,347.448c-4.978,0-4.986,7.737,0,7.737S288.108,347.448,283.122,347.448Z" transform="translate(-279.385 -299.751)" fill="#af4b61"/>
                    <path id="Trazado_1044377" data-name="Trazado 1044377" d="M337.663,331c-4.979,0-4.987,7.737,0,7.737S342.649,331,337.663,331Z" transform="translate(-285.074 -298.035)" fill="#af4b61"/>
                    <path id="Trazado_1044378" data-name="Trazado 1044378" d="M320.194,294.2c-4.979,0-4.987,7.737,0,7.737S325.18,294.2,320.194,294.2Z" transform="translate(-283.252 -294.196)" fill="#af4b61"/>
                    <path id="Trazado_1044379" data-name="Trazado 1044379" d="M306.456,337.736c-4.978,0-4.986,7.737,0,7.737S311.442,337.736,306.456,337.736Z" transform="translate(-281.819 -298.738)" fill="#af4b61"/>
                    <path id="Trazado_1044380" data-name="Trazado 1044380" d="M297.487,364.785c-4.979,0-4.987,7.737,0,7.737S302.473,364.785,297.487,364.785Z" transform="translate(-280.883 -301.559)" fill="#af4b61"/>
                    <path id="Trazado_1044381" data-name="Trazado 1044381" d="M334.073,306.462c-4.979,0-4.987,7.737,0,7.737S339.06,306.462,334.073,306.462Z" transform="translate(-284.7 -295.475)" fill="#af4b61"/>
                    <g id="Grupo_1180896" data-name="Grupo 1180896" transform="translate(45.496 51.931)">
                      <path id="Trazado_1044382" data-name="Trazado 1044382" d="M352.587,355a55.964,55.964,0,0,0-22.36,14.493c-.149.162.085.4.243.243,6.4-6.367,14.8-9.543,22.343-14.2C353.083,355.371,352.911,354.887,352.587,355Z" transform="translate(-330.179 -352.468)" fill="#af4b61"/>
                      <path id="Trazado_1044383" data-name="Trazado 1044383" d="M348.5,352.207c-2.794,1.437-4.869,4.238-6.4,6.9-.085.148.128.263.224.131,1.859-2.573,4.247-4.426,6.513-6.587C349.075,352.42,348.774,352.066,348.5,352.207Z" transform="translate(-331.42 -352.175)" fill="#af4b61"/>
                    </g>
                  </g>
                </g>
                <path id="Trazado_1044384" data-name="Trazado 1044384" d="M307.141,300.413c-6.818,4.1-6.572,24.07,16.378,34.64,16.818,7.746,43.843,5.646,46.272,5.067.944-.225,6.506,2.21,7.548,1.892s1.175-1.069,1.566-1.416,1.986-.544,2.387-1.082.451-1.469.653-1.784,1.082-.176,1.906-.786.873-1.54,1.122-1.853,1.547-.152,2.119-1.288-5.747-5.149-6-5.675,3.6-1.164,4.279-3.367-.826-2.048-3.534-1.07-7.892,2.013-9,2.655-30.245-4.8-34.852-7.647S316.383,294.855,307.141,300.413Z" transform="translate(-275.344 -291.362)" fill="#d29f5e"/>
              </g>
              <g id="Grupo_1180906" data-name="Grupo 1180906" transform="translate(20.13 4.952)">
                <path id="Trazado_1044385" data-name="Trazado 1044385" d="M278.293,229.168s-12.87-27.239,6.761-48.384c17.007-18.319,50.105-19.266,72-5.088,0,0-40.8-9.118-59.715,8.2C274.437,204.859,278.293,229.168,278.293,229.168Z" transform="translate(-260.295 -165.949)" fill="#c95a6e"/>
                <g id="Grupo_1180900" data-name="Grupo 1180900" transform="translate(48.649 108.245)">
                  <path id="Trazado_1044386" data-name="Trazado 1044386" d="M312.995,286.8c.451,2.194,2.533,6.926,5.108,11.062,2.675,4.285,5.884,7.921,8.374,7.408,2.406-.486,3-4.122,2.975-7.685a46.741,46.741,0,0,0-.678-7.251Z" transform="translate(-312.995 -286.799)" fill="#d29f5e"/>
                  <path id="Trazado_1044387" data-name="Trazado 1044387" d="M312.995,286.8c.451,2.194,2.533,6.926,5.108,11.062a21.9,21.9,0,0,0,11.348-.277,46.741,46.741,0,0,0-.678-7.251Z" transform="translate(-312.995 -286.799)" fill="#cb7f45"/>
                </g>
                <path id="Trazado_1044388" data-name="Trazado 1044388" d="M301.06,179.958c-26.126,17.773-29.305,66.133-17.378,83.374s62.147,33.055,82.664,11.916c5.781-5.956,3.783-20.7,5.383-25.041s21.625-43.1-2.116-63.017C346.616,167.9,314.548,170.781,301.06,179.958Z" transform="translate(-260.596 -166.667)" fill="#d29f5e"/>
                <g id="Grupo_1180903" data-name="Grupo 1180903" transform="translate(40.08 47.627)">
                  <path id="Trazado_1044389" data-name="Trazado 1044389" d="M356.637,260.511c-2.858-.751-3.626-3.645-3.044-6.994.706-4.067,3.713-7.721,6.219-10.867.162-.208.329.025.185.24-2.529,3.783-2.415,8.212-.962,10.715.806,1.38,1.943,2.545,1.766,4.263A3.13,3.13,0,0,1,356.637,260.511Z" transform="translate(-308.643 -221.567)" fill="#cb7f45"/>
                  <path id="Trazado_1044390" data-name="Trazado 1044390" d="M332.929,266.687c-4.135.544-8.5-.1-11.661-3.086s-3.614-7.144-3.27-11.249c.01-.122-.186-.16-.215-.039-1,4.3-.97,9.537,2.4,12.856,3.447,3.4,9.48,3.485,12.817,1.871C333.321,266.884,333.289,266.639,332.929,266.687Z" transform="translate(-304.867 -222.576)" fill="#281608"/>
                  <path id="Trazado_1044391" data-name="Trazado 1044391" d="M315.125,246.084c-.434,2.789-3.392,4.646-6.607,4.145s-5.47-3.167-5.036-5.956,3.392-4.645,6.607-4.145S315.559,243.295,315.125,246.084Z" transform="translate(-303.429 -221.304)" fill="#cb7f45"/>
                  <path id="Trazado_1044392" data-name="Trazado 1044392" d="M381.261,268.444a5.635,5.635,0,0,1-1.141-.524c-2.481-1.49-3.439-4.431-2.151-6.588a4.439,4.439,0,0,1,4.2-2.014C381.533,261.114,381.484,264.565,381.261,268.444Z" transform="translate(-311.144 -223.313)" fill="#cb7f45"/>
                  <path id="Trazado_1044393" data-name="Trazado 1044393" d="M339.116,220.146a11.635,11.635,0,0,0-14.583,4.5c-.537,1.035.118,1.385.563,1.138,2.211-1.22,5.784-2.974,13.206-1.537C340.458,224.665,341.793,221.319,339.116,220.146Z" transform="translate(-305.609 -219.122)" fill="#281608"/>
                  <path id="Trazado_1044394" data-name="Trazado 1044394" d="M374.34,228.1c7.852,1.1,9.93,7.717,9.71,9.965-.112,1.149-.824,1.1-1.07.661-1.219-2.183-2.98-4.936-10.106-6.755C370.769,231.432,371.476,227.7,374.34,228.1Z" transform="translate(-310.546 -220.055)" fill="#281608"/>
                  <g id="Grupo_1180901" data-name="Grupo 1180901" transform="translate(20.286 16.857)">
                    <path id="Trazado_1044395" data-name="Trazado 1044395" d="M340.049,248.661c-.486,3.529-3.129,6.08-5.9,5.7s-4.626-3.553-4.14-7.082,3.13-6.08,5.9-5.7S340.536,245.133,340.049,248.661Z" transform="translate(-326.479 -238.317)" fill="#281608"/>
                    <path id="Trazado_1044396" data-name="Trazado 1044396" d="M333.054,241.689c-2.671.625-5.692-1.41-6.869-3.7-.046-.088-.115-.044-.107.044.417,4.286,5.221,5.939,7.282,4.81Z" transform="translate(-326.077 -237.942)" fill="#281608"/>
                    <path id="Trazado_1044397" data-name="Trazado 1044397" d="M332.954,243.366c-1.823,1.446-4.877.978-6.608-.352-.066-.051-.1.008-.066.073,1.871,3.137,6.154,2.666,7.327,1.054Z" transform="translate(-326.097 -238.469)" fill="#281608"/>
                  </g>
                  <g id="Grupo_1180902" data-name="Grupo 1180902" transform="translate(56.668 26.115)">
                    <path id="Trazado_1044398" data-name="Trazado 1044398" d="M366.922,253.279c-.782,3.273.535,6.379,2.941,6.939s4.992-1.641,5.774-4.914-.535-6.379-2.941-6.939S367.7,250.006,366.922,253.279Z" transform="translate(-366.696 -248.278)" fill="#281608"/>
                    <path id="Trazado_1044399" data-name="Trazado 1044399" d="M375.39,249.615c1.986,1.415,5.15.6,6.883-1.044.067-.063.109,0,.073.073-1.778,3.649-6.28,3.555-7.595,1.891Z" transform="translate(-367.536 -248.306)" fill="#281608"/>
                    <path id="Trazado_1044400" data-name="Trazado 1044400" d="M375.05,250.916c1.014,1.866,3.68,2.441,5.548,1.826.072-.024.082.041.03.085-2.588,2.164-5.951.364-6.374-1.439Z" transform="translate(-367.485 -248.553)" fill="#281608"/>
                  </g>
                </g>
                <g id="Grupo_1180904" data-name="Grupo 1180904" transform="translate(17.111 4.299)">
                  <path id="Trazado_1044401" data-name="Trazado 1044401" d="M282.189,231.694c7,3.086,12.93-15.248,12.93-15.248s18.552,7.088,29.792-16.942c0,0,17.093,21.522,56.921,21.686,4.866.021,5.585-19.29-3.639-32.206-8.587-12.026-27.535-20.288-52.8-17.787S288.274,186.742,283.3,196.1,274.406,228.264,282.189,231.694Z" transform="translate(-277.785 -170.748)" fill="#281608"/>
                  <path id="Trazado_1044402" data-name="Trazado 1044402" d="M326.61,201.116a23.272,23.272,0,0,1-10.947,17.392,21.491,21.491,0,0,1-10.714,2.865c-4.018.017-7.307-1.232-10.949-2.742-.273-.113-.385.293-.186.442,6.265,4.656,16.211,4.031,22.639.135a21.458,21.458,0,0,0,10.346-18.09C326.8,200.993,326.622,201,326.61,201.116Z" transform="translate(-279.446 -173.906)" fill="#281608"/>
                  <path id="Trazado_1044403" data-name="Trazado 1044403" d="M371.66,224.309c-9.139-1.508-17.824-3.867-25.821-8.713a57.109,57.109,0,0,1-18.537-17.8.168.168,0,0,0-.29.169c9.3,15.543,26.537,25.475,44.6,26.67C371.8,224.644,371.843,224.338,371.66,224.309Z" transform="translate(-282.917 -173.561)" fill="#281608"/>
                </g>
                <g id="Grupo_1180905" data-name="Grupo 1180905" transform="translate(0 54.688)">
                  <path id="Trazado_1044404" data-name="Trazado 1044404" d="M282.821,237.992s-10.418-14.225-18.437-10.3-8.292,20.4,3.774,28.384c7.146,4.727,12.322,1.9,12.322,1.9Z" transform="translate(-258.681 -227.006)" fill="#d29f5e"/>
                  <path id="Trazado_1044405" data-name="Trazado 1044405" d="M264.822,234.007a.122.122,0,0,0-.1.224c8.51,3.931,10.279,13.288,12.379,21.429.066.257.49.2.51-.057C278.321,246.451,273.66,237.226,264.822,234.007Z" transform="translate(-259.304 -227.735)" fill="#cb7f45"/>
                </g>
              </g>
            </g>
            <g id="Grupo_1180920" data-name="Grupo 1180920">
              <path id="Trazado_1044406" data-name="Trazado 1044406" d="M226.112,336.038c-3.6-1.379-71.873,4.1-73.271,3.414s-8.751-16.276-11.512-15.1,1.732,32.495,3.793,33.649,98.475,21.323,102.77,21.277S236.5,340.021,226.112,336.038Z" transform="translate(-65.091 -144.14)" fill="#7eb3ce"/>
              <path id="Trazado_1044407" data-name="Trazado 1044407" d="M151.127,312.968s-7.146-1.57-9.9-1.149-13.906,6.594-13.856,8.764,9.27-2.3,9.27-2.3-8.5,5.386-7.879,7.264,9.77-3.434,9.77-3.434-7.329,5.165-6.206,6.747,8.207-4.277,8.207-4.277-5.721,5.883-3.952,7.4,7.162-5.029,7.162-5.029,5.214,3.237,9.3-1.291c0,0,20.243,1.139,32.361-.328s25.39-10.1,31.922-20.853c2.8-4.609,6.533-21.387-7.279-19.088-6.18,1.028-24.035,17.906-28.625,19.758S151.127,312.968,151.127,312.968Z" transform="translate(-63.726 -140.061)" fill="#ffdab6"/>
              <path id="Trazado_1044408" data-name="Trazado 1044408" d="M157.9,309.879c-2.1,1.025-1.339,14.638,2.588,17.908,2.551,2.125,27.842,0,32.76-1.64,7.745-2.582,21.328-8.937,29.4-23.367s.416-25.356-11.383-17.33c-8.339,5.673-25.637,17.357-27.275,18.249S159.859,308.918,157.9,309.879Z" transform="translate(-66.791 -139.805)" fill="#cdd14b"/>
              <g id="Grupo_1180909" data-name="Grupo 1180909" transform="translate(0 165.099)">
                <path id="Trazado_1044409" data-name="Trazado 1044409" d="M84.24,386.938c3.55.95,47.83,4.805,49.972,4.009s47.721-32.262,48.544-34.35-46.114-6.067-45.9-6.781-11.567-41.412-14.065-42.3S58.182,326.971,56.4,329.47,82.136,386.374,84.24,386.938Z" transform="translate(-56.314 -307.486)" fill="#6a7f89"/>
                <path id="Trazado_1044410" data-name="Trazado 1044410" d="M132.131,351.212c-.107.086-1.971,1.242-4.883,3.03-3.116,1.928-7.432,4.583-12.079,7.41-.664.407-1.327.814-2,1.232-4.24,2.58-8.642,5.258-12.572,7.624-2.527,1.521-4.862,2.913-6.821,4.08a62.1,62.1,0,0,1-6.083,3.395,42.255,42.255,0,0,1-3.127-5.526c-.953-1.831-2.077-4.015-3.3-6.4-1.852-3.673-3.93-7.827-5.932-11.9-.322-.642-.631-1.285-.942-1.917-2.066-4.208-4-8.235-5.515-11.458-1.349-2.9-2.356-5.15-2.784-6.3a2.271,2.271,0,0,1-.225-.8c.064-.246,1.649-.964,4.24-1.981,5.087-2.014,14.092-5.193,23.13-8.266,4.573-1.564,9.156-3.095,13.246-4.433,4.058-1.338,7.646-2.485,10.248-3.287a25.906,25.906,0,0,1,4.423-1.178,20.513,20.513,0,0,1,.889,2.409c.493,1.51,1.178,3.63,1.949,6.092.771,2.442,1.627,5.225,2.5,8.063,1.606,5.247,3.223,10.7,4.315,14.6.46,1.638.825,3.01,1.061,3.963A4.691,4.691,0,0,1,132.131,351.212Z" transform="translate(-57.31 -308.22)" fill="#fff"/>
                <path id="Trazado_1044411" data-name="Trazado 1044411" d="M98.151,387.9c.662.134,25,2.152,25.753,2.152s42.78-26.637,42.78-27.038-24.429-3.614-25.466-3.346S97.438,387.757,98.151,387.9Z" transform="translate(-60.677 -312.928)" fill="#556970"/>
                <path id="Trazado_1044412" data-name="Trazado 1044412" d="M148.556,383.324c.228.364,8.729,1.771,9.13,1.7s9.1-6.157,9.37-6.425-8.433-1.808-8.834-1.673S148.221,382.79,148.556,383.324Z" transform="translate(-65.935 -314.729)" fill="#556970"/>
                <g id="Grupo_1180908" data-name="Grupo 1180908" transform="translate(8.783 7.494)" opacity="0.1">
                  <path id="Trazado_1044413" data-name="Trazado 1044413" d="M131.3,346.734l-60.695-14c5.087-2.014,14.092-5.193,23.13-8.266l33.249,7.667C128.588,337.386,130.205,342.836,131.3,346.734Z" transform="translate(-66.588 -316.752)" fill="#6a7f89"/>
                  <path id="Trazado_1044414" data-name="Trazado 1044414" d="M132.158,353.536c-.107.086-1.971,1.242-4.883,3.03L68.9,343.107c-1.349-2.9-2.356-5.15-2.784-6.3l65.77,15.174A4.68,4.68,0,0,1,132.158,353.536Z" transform="translate(-66.12 -318.039)" fill="#6a7f89"/>
                  <path id="Trazado_1044415" data-name="Trazado 1044415" d="M128.723,323.177l-17.508-4.037c4.058-1.338,7.646-2.485,10.248-3.287l5.311,1.232C127.267,318.594,127.952,320.714,128.723,323.177Z" transform="translate(-70.824 -315.853)" fill="#6a7f89"/>
                  <path id="Trazado_1044416" data-name="Trazado 1044416" d="M102.388,376.508c-2.527,1.521-4.862,2.913-6.821,4.08l-9.21-2.131c-.953-1.831-2.077-4.015-3.3-6.4Z" transform="translate(-67.887 -321.715)" fill="#6a7f89"/>
                  <path id="Trazado_1044417" data-name="Trazado 1044417" d="M116.162,366.045c-.664.407-1.327.814-2,1.232l-37.832-8.728c-.322-.642-.631-1.285-.942-1.917Z" transform="translate(-67.086 -320.106)" fill="#6a7f89"/>
                </g>
                <g id="Grupo" transform="translate(17.536 6.409)">
                  <text id="English" transform="translate(6.154 33.489) rotate(-22.619)" fill="#7eb3ce" font-size="15" font-family="SegoeUI, Segoe UI"><tspan x="0" y="0">English</tspan></text>
                  <text id="Class" transform="translate(16.737 45.716) rotate(-22.619)" fill="#c95a6e" font-size="15" font-family="SegoeUI, Segoe UI"><tspan x="0" y="0">Class</tspan></text>
                </g>
              </g>
              <path id="Trazado_1044418" data-name="Trazado 1044418" d="M193.7,366.592c-4.018-.227-70.208,26.979-71.819,26.74s-13.892-13.407-16.266-11.358,12.076,31.781,14.494,32.274,104.778-10.155,109.037-11.569S205.307,367.247,193.7,366.592Z" transform="translate(-61.43 -148.552)" fill="#7eb3ce"/>
              <g id="Grupo_1180910" data-name="Grupo 1180910" transform="translate(119.5 139.532)">
                <path id="Trazado_1044419" data-name="Trazado 1044419" d="M221.953,280.739c-8.987,4.123-23.953,27.277-29.307,48.7s-4.1,28.01,10.274,39.056c18.956,14.567,19.379,22.2,29.82,24.472,13.08,2.842,21.61-.312,27.05-4.813,10.352-8.566,1.819-77.278-9.28-96.538C243.62,279.665,231.233,276.482,221.953,280.739Z" transform="translate(-189.731 -278.942)" fill="#cdd14b"/>
                <path id="Trazado_1044420" data-name="Trazado 1044420" d="M208.93,296.052a56.079,56.079,0,0,0-6.39,8.558c.427-1.272.8-2.561,1.1-3.807a.092.092,0,0,0-.17-.064,39.937,39.937,0,0,0-3.015,7.544c-6.2,11.736-9.172,25.571-10.194,38.16-.013.153.236.173.272.029,2.21-9.069,3.688-18.261,6.7-27.138a84.942,84.942,0,0,1,12-23.069C209.357,296.1,209.071,295.9,208.93,296.052Z" transform="translate(-189.786 -280.721)" fill="#b2b238"/>
              </g>
              <g id="Grupo_1180915" data-name="Grupo 1180915" transform="translate(80.274)">
                <g id="Grupo_1180911" data-name="Grupo 1180911" transform="translate(66.97 134.247)">
                  <path id="Trazado_1044421" data-name="Trazado 1044421" d="M241.848,273.041c-.565,2.832-3.216,8.951-6.506,14.3-3.419,5.546-7.529,10.258-10.744,9.615-3.106-.609-3.9-5.294-3.893-9.889a60.233,60.233,0,0,1,.821-9.356Z" transform="translate(-220.705 -273.041)" fill="#ffdab6"/>
                  <path id="Trazado_1044422" data-name="Trazado 1044422" d="M241.848,273.041c-.565,2.832-3.216,8.951-6.506,14.3a28.23,28.23,0,0,1-14.637-.274,60.232,60.232,0,0,1,.821-9.356Z" transform="translate(-220.705 -273.041)" fill="#d29f5e"/>
                </g>
                <path id="Trazado_1044423" data-name="Trazado 1044423" d="M240.519,166.807c24.98,21.2,22.936,71.412,8.741,87.876s-67.715,27.241-86.543,3.187c-5.305-6.778-1.622-21.764-2.795-26.41s-17.552-46.82,9.118-64.742C194.876,149.357,227.622,155.861,240.519,166.807Z" transform="translate(-146.764 -126.587)" fill="#ffdab6"/>
                <g id="Grupo_1180912" data-name="Grupo 1180912">
                  <path id="Trazado_1044424" data-name="Trazado 1044424" d="M248.632,210.992c-15.321.167-21.181-20.028-20.062-29.314,0,0-17.982,12.949-21.87-10.47,0,0-1.936,14.567-8.611,15.494s-11.562-11.983-11.562-11.983-2.753,20.851-11.576,20.716c-10.746-.165-12.351-20.8-12.351-20.8s-2.309,17.662-10.7,17.5-6.661-25.243-2.477-31.906,13.7-7.926,13.7-7.926a87.261,87.261,0,0,1,36.738-16.638,96.7,96.7,0,0,1,39.333,1.053s-2.229-10.283,3.679-13.189,2.215,12.731,2.215,12.731,8.813-4.994,11.113-1.7S247.8,139.7,247.8,139.7s16.669,7.089,21.037,15.745-3.823,60.359-9.211,62.867S248.632,210.992,248.632,210.992Z" transform="translate(-145.936 -123.161)" fill="#cb7f45"/>
                  <path id="Trazado_1044425" data-name="Trazado 1044425" d="M260.047,216.946c-3.9.5-7.589.571-11.222-1.189a18.1,18.1,0,0,1-7.585-7.3c-4.114-7.036-3.564-15-2.976-22.8.013-.162-.244-.193-.282-.038-1.978,8.046-1.8,17.5,2.992,24.563,4,5.889,12.1,9.8,19.133,7.207C260.324,217.306,260.316,216.912,260.047,216.946Z" transform="translate(-155.413 -129.665)" fill="#cb7f45"/>
                  <path id="Trazado_1044426" data-name="Trazado 1044426" d="M246.172,139.471a62.407,62.407,0,0,0-21.259-6.629,67.77,67.77,0,0,0-23.722,1.338c-13.258,2.946-27.446,8.613-36.084,19.563-.068.086.047.209.124.124,9.321-10.3,22.564-15.495,35.847-18.486a68.283,68.283,0,0,1,23.024-1.495c7.707.915,14.6,3.57,21.879,6.04A.25.25,0,0,0,246.172,139.471Z" transform="translate(-147.934 -124.118)" fill="#cb7f45"/>
                </g>
                <g id="Grupo_1180913" data-name="Grupo 1180913" transform="translate(102.58 78.987)">
                  <path id="Trazado_1044427" data-name="Trazado 1044427" d="M260.462,222.008s11.934-14.4,20.174-9.732,7.48,22.126-5.8,29.808c-7.866,4.549-13.165,1.232-13.165,1.232Z" transform="translate(-260.462 -211.346)" fill="#ffdab6"/>
                  <path id="Trazado_1044428" data-name="Trazado 1044428" d="M281.068,219a.13.13,0,0,1,.09.243c-9.259,3.62-11.728,13.414-14.468,21.9-.087.268-.532.178-.537-.093C265.985,231.315,271.507,221.846,281.068,219Z" transform="translate(-261.055 -212.144)" fill="#d29f5e"/>
                </g>
                <g id="Grupo_1180914" data-name="Grupo 1180914" transform="translate(14.085 73.445)">
                  <path id="Trazado_1044429" data-name="Trazado 1044429" d="M188.007,246.748c3.134.02,4.718-2.733,5.046-6.324.4-4.36-1.673-8.931-3.374-12.842-.108-.258-.343-.065-.255.2,1.546,4.572.21,9.075-1.969,11.238-1.206,1.191-2.692,2.07-2.984,3.878A3.32,3.32,0,0,0,188.007,246.748Z" transform="translate(-164.036 -207.485)" fill="#d29f5e"/>
                  <path id="Trazado_1044430" data-name="Trazado 1044430" d="M208.632,250.626c4.261,1.187,8.943,1.165,12.7-1.5s4.861-6.962,5.112-11.324c.007-.129.219-.141.231-.008.407,4.668-.4,10.159-4.435,13.141-4.126,3.052-10.474,2.246-13.737.053C208.191,250.774,208.261,250.523,208.632,250.626Z" transform="translate(-166.527 -208.553)" fill="#281608"/>
                  <path id="Trazado_1044431" data-name="Trazado 1044431" d="M207.506,205.9a12.338,12.338,0,0,1,15.064,5.921c.486,1.138-.235,1.455-.687,1.159-2.242-1.466-5.881-3.605-13.844-2.676C205.727,210.573,204.582,206.928,207.506,205.9Z" transform="translate(-166.261 -205.159)" fill="#cb7f45"/>
                  <path id="Trazado_1044432" data-name="Trazado 1044432" d="M173.286,209.107c-8.408.041-11.533,6.7-11.623,9.091-.046,1.224.617,1.186,1.03.847,2.228-1.823,4.989-4.867,11.582-5.662C176.564,213.108,176.354,209.092,173.286,209.107Z" transform="translate(-161.662 -205.571)" fill="#cb7f45"/>
                  <path id="Trazado_1044433" data-name="Trazado 1044433" d="M177.827,236.313c.048,3.562-1.957,6.478-4.479,6.512s-4.607-2.825-4.656-6.387,1.957-6.478,4.479-6.512S177.778,232.751,177.827,236.313Z" transform="translate(-162.395 -207.743)" fill="#281608"/>
                  <path id="Trazado_1044434" data-name="Trazado 1044434" d="M218.472,232.335c.193,3.557-1.915,6.564-4.71,6.716s-5.217-2.608-5.411-6.165,1.915-6.564,4.71-6.716S218.278,228.779,218.472,232.335Z" transform="translate(-166.53 -207.35)" fill="#281608"/>
                </g>
              </g>
              <g id="Grupo_1180918" data-name="Grupo 1180918" transform="translate(91.893 152.176)">
                <g id="Grupo_1180916" data-name="Grupo 1180916" transform="translate(0 1.543)">
                  <path id="Trazado_1044435" data-name="Trazado 1044435" d="M248.274,310.492c-3.155,18.59-15.772,33.949-25.079,41.184-7.839,6.087-21.006,7.872-30.018,8.348,1.991-3.7-4.582-8.42-6.984-9.983,6.129-3.191,20.345-13.117,24.477-17,5.842-5.492,11.654-22.479,19.17-32.472C238.307,289.306,250.821,295.48,248.274,310.492Z" transform="translate(-161.755 -294.782)" fill="#ffdab6"/>
                  <path id="Trazado_1044436" data-name="Trazado 1044436" d="M197.986,365.393c-6.762,1.042-14.119,2-14.119,2s-2.43,1.453-4.251,2.335-8.429-.733-9.307-.665-7.8,2.295-8.282,1.059c-.172-.443.364-1.05,1.117-1.622-1.224.372-2.389.623-2.61.155s.016-.963.517-1.473c-1.057.262-1.922.294-2.108-.246-.21-.612.541-1.437,1.581-2.24-.554-.067-.881-.353-.827-.919.19-1.674,5.483-4.476,6.9-4.958,1.4-.506,7.238-.629,7.237-.726-.1-.1-5.417-1.589-4.883-2.569,1.267-2.322,8.879-.162,11.6.151.794.09,4.931-.918,8.68-2.876C192.765,355.1,200.922,359.953,197.986,365.393Z" transform="translate(-158.909 -300.833)" fill="#ffdab6"/>
                  <path id="Trazado_1044437" data-name="Trazado 1044437" d="M172.243,364.138a20.236,20.236,0,0,0-10.974,4.227c-.028.023.008.066.038.049a30.294,30.294,0,0,1,10.96-4.1C172.367,364.3,172.345,364.128,172.243,364.138Z" transform="translate(-159.154 -302.016)" fill="#d29f5e"/>
                  <path id="Trazado_1044438" data-name="Trazado 1044438" d="M172.239,366.77a18.026,18.026,0,0,0-8.66,3.147.06.06,0,0,0,.06.1,37.644,37.644,0,0,1,8.614-3.139C172.315,366.867,172.3,366.763,172.239,366.77Z" transform="translate(-159.393 -302.29)" fill="#d29f5e"/>
                  <path id="Trazado_1044439" data-name="Trazado 1044439" d="M170.3,361.731a12.942,12.942,0,0,0-9.426,3.723c-.021.022.006.062.034.044a20.562,20.562,0,0,1,9.392-3.613C170.392,361.875,170.4,361.73,170.3,361.731Z" transform="translate(-159.112 -301.765)" fill="#d29f5e"/>
                </g>
                <path id="Trazado_1044440" data-name="Trazado 1044440" d="M187.287,345.205c-1.1,2.572,4.843,20.943,10.586,19.369,5.706-1.564,26.857-7.025,31.973-11.71s18.723-28.134,20.391-37.659c2.38-13.585-3.075-25.077-13.574-21.481-11.417,3.911-20.974,30.547-24.415,34.995S189.045,341.081,187.287,345.205Z" transform="translate(-161.855 -293.059)" fill="#cdd14b"/>
                <g id="Grupo_1180917" data-name="Grupo 1180917" transform="translate(30.396 6.071)">
                  <path id="Trazado_1044441" data-name="Trazado 1044441" d="M224.991,308.259a.2.2,0,0,0-.347-.2,92.925,92.925,0,0,0-5.837,10.638c-1.812,3.574-3.881,7.084-5.5,10.745a4.612,4.612,0,0,0-1.7,2.118,21.981,21.981,0,0,0-4.564,2.045,158.958,158.958,0,0,0-14.159,8.915c-.089.064.016.19.107.149,4.481-2.079,8.752-4.72,13.044-7.163a31.757,31.757,0,0,1,6.273-3.035c2.487-.76,4.97-.6,7.521-.722.274-.013.4-.448.089-.515a16.1,16.1,0,0,0-7.109.016,6.469,6.469,0,0,1,2.529-1.864c1.495-.572,3.125-.73,4.631-1.284.231-.085.219-.478-.063-.46a15.92,15.92,0,0,0-5.553,1.193,51.644,51.644,0,0,0,5.19-9.151C221.375,315.9,223.265,312.1,224.991,308.259Z" transform="translate(-192.844 -300.684)" fill="#b2b238"/>
                  <path id="Trazado_1044442" data-name="Trazado 1044442" d="M250.622,330.358c-2.891,3.253-5.009,7.192-7.28,10.884-2.69,4.371-9.846,12.807-14.379,15.495-8.866,5.26-21.869,8.059-31.4,11.723a.1.1,0,0,0,.051.185,100.627,100.627,0,0,0,18.346-4.957c4.667-1.762,9.734-3.562,13.975-6.214,3.714-2.324,10.477-9.758,12.741-13.39.517-.829,1.028-1.662,1.542-2.493,1.945-1.463,3.715-3.273,5.513-4.909.138-.125-.047-.374-.2-.262a50,50,0,0,0-4.026,3.1q2.739-4.44,5.49-8.873C251.129,330.419,250.8,330.157,250.622,330.358Z" transform="translate(-193.329 -303.012)" fill="#b2b238"/>
                  <path id="Trazado_1044443" data-name="Trazado 1044443" d="M250.189,304.119c-4.444-3.886-12.748-6.476-17.478-1.681-.056.057.021.149.082.094,5.346-4.779,13.871-1.5,18.225,3.037,4.527,4.72,5.734,11.561,4.689,17.844-.013.078.119.107.138.028C257.505,316.494,255.691,308.93,250.189,304.119Z" transform="translate(-197.001 -299.836)" fill="#b2b238"/>
                </g>
              </g>
              <g id="Grupo_1180919" data-name="Grupo 1180919" transform="translate(66.805 171.121)">
                <path id="Trazado_1044444" data-name="Trazado 1044444" d="M145.39,315.77c-3.207-.838-6.705-1.756-9.157-1.524s-5.947,1.663-5.242,3.038,6.83,1.894,7.332,2.257,3.924,8.173,9.633,7.852S148.115,316.482,145.39,315.77Z" transform="translate(-130.899 -314.21)" fill="#ffdab6"/>
                <path id="Trazado_1044445" data-name="Trazado 1044445" d="M150.834,326.478c-5.245.958-8.784-1.328-10.791-6.033a.153.153,0,0,0-.062-.139c-.01-.023-.021-.045-.03-.068a38.046,38.046,0,0,0-4.016-.706c-.032,0-.036.046-.007.055,1.275.408,2.565.716,3.867,1.025.812,4.915,6.574,7.932,11.159,6.3A.223.223,0,0,0,150.834,326.478Z" transform="translate(-131.422 -314.765)" fill="#d29f5e"/>
              </g>
            </g>
          </g>
        </g>
      </g>
    </g>
  </g>
</svg>
