<svg xmlns="http://www.w3.org/2000/svg" xmlns:xlink="http://www.w3.org/1999/xlink" width="110" height="110" viewBox="0 0 110 110">
  <defs>
    <filter id="Trazado_982547" x="0" y="0" width="110" height="110" filterUnits="userSpaceOnUse">
      <feOffset dy="3" input="SourceAlpha"/>
      <feGaussianBlur stdDeviation="3" result="blur"/>
      <feFlood flood-opacity="0.161"/>
      <feComposite operator="in" in2="blur"/>
      <feComposite in="SourceGraphic"/>
    </filter>
  </defs>
  <g id="Grupo_1208867" data-name="Grupo 1208867" transform="translate(-1114.381 -2435.793)">
    <g id="Grupo_1185481" data-name="Grupo 1185481" transform="translate(1123.381 2441.793)">
      <g id="Grupo_1183658" data-name="Grupo 1183658" transform="translate(0 0)">
        <g id="Grupo_1179602" data-name="Grupo 1179602">
          <g id="Grupo_1171898" data-name="Grupo 1171898" transform="translate(0 0)">
            <g id="Grupo_1164700" data-name="Grupo 1164700">
              <g id="Grupo_1160931" data-name="Grupo 1160931">
                <g id="Grupo_1160749" data-name="Grupo 1160749">
                  <g id="Grupo_1158891" data-name="Grupo 1158891">
                    <g id="Grupo_1157406" data-name="Grupo 1157406">
                      <g id="Grupo_1155793" data-name="Grupo 1155793">
                        <g id="Grupo_1154704" data-name="Grupo 1154704">
                          <g id="Grupo_1150790" data-name="Grupo 1150790">
                            <g id="Grupo_1154214" data-name="Grupo 1154214">
                              <g id="Grupo_1152583" data-name="Grupo 1152583">
                                <g id="Grupo_1146973" data-name="Grupo 1146973">
                                  <g id="Grupo_1146954" data-name="Grupo 1146954">
                                    <g transform="matrix(1, 0, 0, 1, -9, -6)" filter="url(#Trazado_982547)">
                                      <g id="Trazado_982547-2" data-name="Trazado 982547" transform="translate(9 6)" fill="#effbfe">
                                        <path d="M 46.00000381469727 90.49986267089844 C 39.99188232421875 90.49986267089844 34.16428375244141 89.32350158691406 28.67905807495117 87.00344848632812 C 23.38021659851074 84.76223754882812 18.62104415893555 81.55341339111328 14.53376388549805 77.46613311767578 C 10.44647026062012 73.37885284423828 7.237643718719482 68.61968994140625 4.996417045593262 63.32085037231445 C 2.676363706588745 57.83565139770508 1.500003814697266 52.00805282592773 1.500003814697266 45.99993133544922 C 1.500003814697266 39.99182510375977 2.676363706588745 34.16422653198242 4.996417045593262 28.67901039123535 C 7.237643718719482 23.38017082214355 10.44647026062012 18.62101173400879 14.53376388549805 14.53373146057129 C 18.62104415893555 10.44645118713379 23.38021659851074 7.237624645233154 28.67905807495117 4.996411323547363 C 34.16428375244141 2.676357984542847 39.99188232421875 1.499997973442078 46.00000381469727 1.499997973442078 C 52.00812530517578 1.499997973442078 57.83573532104492 2.676357984542847 63.32094955444336 4.996411323547363 C 68.61980438232422 7.237624645233154 73.37896728515625 10.44645118713379 77.46625518798828 14.53373146057129 C 81.55353546142578 18.62101173400879 84.76236724853516 23.38017082214355 87.00359344482422 28.67901039123535 C 89.32364654541016 34.16422653198242 90.5 39.99182510375977 90.5 45.99993133544922 C 90.5 52.00805282592773 89.32364654541016 57.83565139770508 87.00359344482422 63.32085037231445 C 84.76236724853516 68.61968994140625 81.55353546142578 73.37885284423828 77.46625518798828 77.46613311767578 C 73.37896728515625 81.55341339111328 68.61980438232422 84.76223754882812 63.32094955444336 87.00344848632812 C 57.83573532104492 89.32350158691406 52.00812530517578 90.49986267089844 46.00000381469727 90.49986267089844 Z" stroke="none"/>
                                        <path d="M 46.00000381469727 3 C 40.19371795654297 3 34.56270217895508 4.136505126953125 29.26338958740234 6.377914428710938 C 24.14333343505859 8.54351806640625 19.54443359375 11.64438629150391 15.59442138671875 15.59439086914062 C 11.64440155029297 19.54440307617188 8.543533325195312 24.14330291748047 6.3779296875 29.26334381103516 C 4.136505126953125 34.56266021728516 3.000007629394531 40.19366073608398 3.000007629394531 45.99993133544922 C 3.000007629394531 51.80620193481445 4.136505126953125 57.43720245361328 6.3779296875 62.73651885986328 C 8.543533325195312 67.85655975341797 11.64440155029297 72.45545959472656 15.59442138671875 76.40547180175781 C 19.54443359375 80.35547637939453 24.14333343505859 83.45634460449219 29.26338958740234 85.6219482421875 C 34.56270217895508 87.86335754394531 40.19371795654297 88.99986267089844 46.00000381469727 88.99986267089844 C 51.80628967285156 88.99986267089844 57.43730545043945 87.86335754394531 62.73663330078125 85.6219482421875 C 67.85667419433594 83.45634460449219 72.45558929443359 80.35547637939453 76.40560150146484 76.40547180175781 C 80.35560607910156 72.45545959472656 83.45648956298828 67.85655975341797 85.62208557128906 62.73651885986328 C 87.86350250244141 57.43720245361328 89 51.80620193481445 89 45.99993133544922 C 89 40.19366073608398 87.86350250244141 34.56266021728516 85.62208557128906 29.26334381103516 C 83.45648956298828 24.14330291748047 80.35560607910156 19.54440307617188 76.40560150146484 15.59439086914062 C 72.45558929443359 11.64438629150391 67.85667419433594 8.54351806640625 62.73663330078125 6.377914428710938 C 57.43730545043945 4.136505126953125 51.80628967285156 3 46.00000381469727 3 M 46.00000381469727 0 C 71.40510559082031 0 92 20.59487152099609 92 45.99993133544922 C 92 71.40499114990234 71.40510559082031 91.99986267089844 46.00000381469727 91.99986267089844 C 20.59491729736328 91.99986267089844 7.62939453125e-06 71.40499114990234 7.62939453125e-06 45.99993133544922 C 7.62939453125e-06 20.59487152099609 20.59491729736328 0 46.00000381469727 0 Z" stroke="none" fill="#397b86"/>
                                      </g>
                                    </g>
                                  </g>
                                </g>
                              </g>
                            </g>
                          </g>
                        </g>
                      </g>
                    </g>
                  </g>
                </g>
              </g>
            </g>
          </g>
        </g>
      </g>
    </g>
    <g id="cuerda-saltar_1_" data-name="cuerda-saltar (1)" transform="translate(1076.983 2454.322)">
      <g id="Grupo_1208865" data-name="Grupo 1208865" transform="translate(68.775 0.985)">
        <path id="Trazado_1077500" data-name="Trazado 1077500" d="M391.89,299.069l.9-3.837a1.988,1.988,0,0,1,3.875.887l-.9,3.836A1.988,1.988,0,0,1,391.89,299.069Z" transform="translate(-350.448 -256.299)" fill="#83deff"/>
        <path id="Trazado_1077501" data-name="Trazado 1077501" d="M87.583,299.069l-.9-3.837a1.988,1.988,0,0,0-3.875.887l.9,3.836A1.988,1.988,0,0,0,87.583,299.069Z" transform="translate(-81.78 -256.299)" fill="#5ad6ff"/>
        <path id="Trazado_1077502" data-name="Trazado 1077502" d="M105.415,139.155c0-4.558,6.891-4.558,6.891,0S105.415,143.714,105.415,139.155Z" transform="translate(-101.481 -118.975)" fill="#db9e82"/>
        <path id="Trazado_1077503" data-name="Trazado 1077503" d="M360.777,139.155c0-4.558-6.891-4.558-6.891,0S360.777,143.714,360.777,139.155Z" transform="translate(-317.466 -118.975)" fill="#c8866a"/>
        <path id="Trazado_1077504" data-name="Trazado 1077504" d="M84.835,264.25a18,18,0,0,1-7.175-.872c-4.365-1.438-2.049-7.941,2.317-6.5a11.037,11.037,0,0,0,3.955.571Z" transform="translate(-75.323 -224.096)" fill="#c8866a"/>
        <path id="Trazado_1077505" data-name="Trazado 1077505" d="M371.4,263.378a17.941,17.941,0,0,1-7.131.875l.756-6.813a10.969,10.969,0,0,0,4.058-.566C373.453,255.437,375.77,261.94,371.4,263.378Z" transform="translate(-326.496 -224.096)" fill="#db9e82"/>
        <path id="Trazado_1077506" data-name="Trazado 1077506" d="M180.714,481.023l.111.108h-.111Z" transform="translate(-166.935 -419.118)" fill="#5c85da"/>
        <path id="Trazado_1077507" data-name="Trazado 1077507" d="M238.815,346.353v17.716H233.5c-11.7-3.777-8.5-14.429-7.187-17.716Z" transform="translate(-205.349 -302.055)" fill="#83deff"/>
        <path id="Trazado_1077508" data-name="Trazado 1077508" d="M195.088,364.069H180.714V346.353h7.179C188.325,352.5,190.181,359.045,195.088,364.069Z" transform="translate(-166.935 -302.055)" fill="#5ad6ff"/>
        <path id="Trazado_1077509" data-name="Trazado 1077509" d="M233.927,236.217c-.577,6.774.286,7.76-4.385,6.533a.487.487,0,0,0-.634.507,4.628,4.628,0,0,1-4.615,4.97h-9.347s-8.233-8.715,1.2-17.024a4.213,4.213,0,0,1,.039.488,4.912,4.912,0,0,1-.042.786H218.7a4.934,4.934,0,0,1-.043-.787,4.517,4.517,0,0,1,.041-.486h8.2C229.8,235.976,234.144,233.673,233.927,236.217Z" transform="translate(-193.799 -201.96)" fill="#ffb3c2"/>
        <path id="Trazado_1077510" data-name="Trazado 1077510" d="M144.859,231.2q-.065.28-.129.58h0a57.794,57.794,0,0,0-1.045,6.661,45.764,45.764,0,0,0,.056,9.782h-4.394a4.628,4.628,0,0,1-4.615-4.97.486.486,0,0,0-.609-.514c-4.7,1.229-3.833.252-4.41-6.527-.218-2.565,4.112-.2,7.037-5.014Z" transform="translate(-122.593 -201.96)" fill="#ff9eb1"/>
        <path id="Trazado_1077511" data-name="Trazado 1077511" d="M239.238,237.351a3.937,3.937,0,0,1-6.47,3.015s-1.849-4.53,1.046-6.661a3.9,3.9,0,0,1,1.487-.292A3.939,3.939,0,0,1,239.238,237.351Z" transform="translate(-211.677 -203.881)" fill="#c8866a"/>
        <path id="Trazado_1077512" data-name="Trazado 1077512" d="M228.335,235.643a57.481,57.481,0,0,0-1.046,6.661,3.937,3.937,0,0,1,1.046-6.661Z" transform="translate(-206.199 -205.819)" fill="#b07058"/>
        <path id="Trazado_1077513" data-name="Trazado 1077513" d="M179.448,106.259a15.764,15.764,0,0,1-19.681,15.256c-18.012-10.6-6.076-20.792-6.076-20.792h24.755A15.7,15.7,0,0,1,179.448,106.259Z" transform="translate(-140.075 -88.539)" fill="#db9e82"/>
        <path id="Trazado_1077514" data-name="Trazado 1077514" d="M147.354,121.515a15.764,15.764,0,0,1-10.819-20.792h4.743C138.857,107.446,138.893,115.344,147.354,121.515Z" transform="translate(-127.662 -88.539)" fill="#c8866a"/>
        <path id="Trazado_1077515" data-name="Trazado 1077515" d="M181.207,465.2h-4.922c-3.907,0-3.907-5.907,0-5.907h4.922C185.114,459.3,185.114,465.2,181.207,465.2Z" transform="translate(-160.537 -400.232)" fill="#7888af"/>
        <path id="Trazado_1077516" data-name="Trazado 1077516" d="M259.026,465.2h5c3.887,0,3.846-5.907,0-5.907h-5C255.139,459.3,255.18,465.2,259.026,465.2Z" transform="translate(-232.488 -400.232)" fill="#7888af"/>
        <path id="Trazado_1077517" data-name="Trazado 1077517" d="M196.107,26.36a12.482,12.482,0,0,0-1.628-5.367,1.063,1.063,0,0,0-1.8.018,7.3,7.3,0,0,1-1.208,1.7,1.16,1.16,0,0,1-1.837-.271l-.306-.682a.942.942,0,0,0-1.447-.272c-4.741,4.159-10.259,4.162-15,0a.942.942,0,0,0-1.447.272l-.306.682a1.157,1.157,0,0,1-1.666.412c-2.776-9.471,8-15.072,8-15.072a17.238,17.238,0,0,1,2.916-.246c8.7,0,15.751,6.414,15.751,14.328A44.311,44.311,0,0,1,196.107,26.36Z" transform="translate(-156.76 -7.533)" fill="#fbf198"/>
        <path id="Trazado_1077518" data-name="Trazado 1077518" d="M148.353,9.413c-2.476,2.994-6.613,8.734-8,15.072a1.1,1.1,0,0,1-.173-.141,7.488,7.488,0,0,1-1.232-1.668,1.063,1.063,0,0,0-1.8-.013,12.475,12.475,0,0,0-1.608,5.332,44.321,44.321,0,0,1-.026-4.5c0-7.008,5.529-12.839,12.835-14.082Z" transform="translate(-127.645 -9.167)" fill="#f8ea69"/>
      </g>
      <g id="Grupo_1208866" data-name="Grupo 1208866" transform="translate(67.79 0)">
        <path id="Trazado_1077519" data-name="Trazado 1077519" d="M111.057,32.837a10.6,10.6,0,0,1-2.111.469c-1.349-.826-3.373-.416-5.239-2.284a16.783,16.783,0,0,0,3.989-5.548,4.336,4.336,0,0,0,5.368-4.305,4.236,4.236,0,0,0-3.937-4.371c0-.43,0-.92,0-1.481,0-12.467-15.384-19.579-26.342-12.534a.981.981,0,1,0,1.06,1.65c9.132-5.871,21.862-.641,23.2,9.14a2.052,2.052,0,0,0-3.221.434,6.265,6.265,0,0,1-1.041,1.47c-.08.081-.23.018-.243.016-.887-1.979-2.3-2.165-3.295-1.29-4.357,3.822-9.351,3.822-13.7,0-.991-.87-2.41-.693-3.289,1.282a.23.23,0,0,1-.25-.007,6.5,6.5,0,0,1-1.07-1.451,2.055,2.055,0,0,0-3.186-.444,12.534,12.534,0,0,1,2.707-6.122.981.981,0,0,0-1.526-1.232,14.349,14.349,0,0,0-3.265,9.088c0,.562,0,1.051,0,1.481a4.235,4.235,0,0,0-3.937,4.371,4.34,4.34,0,0,0,5.367,4.305,16.783,16.783,0,0,0,3.993,5.551,6.418,6.418,0,0,1-3.544,1.7,5.517,5.517,0,0,0-1.706.574,10.684,10.684,0,0,1-2.1-.468c-4.626-1.523-7.589,4.028-4.952,7.068-.1.775.2,1.693.966,4.964a2.839,2.839,0,0,0,1.828,2.1A20.411,20.411,0,0,0,80.65,62.415a3.843,3.843,0,0,0,3.87,4.526h4.922a3.782,3.782,0,0,0,2.949-1.273,3.782,3.782,0,0,0,2.92,1.273h5a3.823,3.823,0,0,0,3.838-4.528,20.423,20.423,0,0,0,9.07-15.44,2.839,2.839,0,0,0,1.828-2.1c.765-3.275,1.07-4.21.969-4.968a4.5,4.5,0,0,0-4.956-7.064Zm.614,1.863a2.452,2.452,0,0,1,3.225,1.638,2.255,2.255,0,0,1-.62,2.526c-.878.719-3.61,1.182-4.739,1.295.033-.306.35-4.993.351-5.008A12.776,12.776,0,0,0,111.671,34.7ZM108.4,23.6a16.812,16.812,0,0,0,.731-4.822A2.44,2.44,0,0,1,108.4,23.6Zm-34.71-2.426a2.271,2.271,0,0,1,1.974-2.4,16.851,16.851,0,0,0,.731,4.822A2.345,2.345,0,0,1,73.687,21.169Zm3.975-1.446a11.46,11.46,0,0,1,1.461-4.738.179.179,0,0,1,.1,0,8.448,8.448,0,0,0,1.384,1.868c.9.917,2.7,1.08,3.69-1.135a11.546,11.546,0,0,0,16.2,0l.258.576a2.139,2.139,0,0,0,3.43.56,8.175,8.175,0,0,0,1.365-1.906.179.179,0,0,1,.1,0,11.472,11.472,0,0,1,1.479,4.772,14.768,14.768,0,0,1-29.467,0Zm17.6,15.47a2.962,2.962,0,0,1-5.733,0A16.753,16.753,0,0,0,95.261,35.193Zm-17.3-.546a8.2,8.2,0,0,0,4.654-2.377A16.728,16.728,0,0,0,87.483,34.7a4.918,4.918,0,0,0,9.825,0,16.73,16.73,0,0,0,4.874-2.433c2.338,2.466,5.212,2.257,5.737,2.7a.659.659,0,0,1,0,.192c-.242,2.84-.265,5.771-.636,6.04-.134.1-.68.111-2.524-.373a1.468,1.468,0,0,0-1.86,1.531,3.647,3.647,0,0,1-3.637,3.914H85.525a3.648,3.648,0,0,1-3.638-3.914,1.468,1.468,0,0,0-1.835-1.538c-2.51.656-2.571.431-2.658.2a50.523,50.523,0,0,1-.527-5.862.685.685,0,0,1,0-.2,4.226,4.226,0,0,1,1.086-.319Zm-8.064,1.69A2.452,2.452,0,0,1,73.119,34.7a12.866,12.866,0,0,0,1.784.45q0,.088.011.18c.182,2.138.216,3.673.339,4.822a17.569,17.569,0,0,1-3.836-.81,2.23,2.23,0,0,1-1.522-3Zm1.006,4.9a19.921,19.921,0,0,0,2.213.579c.517,2.214.751,2.626.285,3.063a1.025,1.025,0,0,1-1.742-.453Zm2.644,5.761a2.841,2.841,0,0,0,1.987-3.459L75.2,42.114c.194.017.389.033.583.044.845,1.419,2.55,1.114,4.141.724a5.621,5.621,0,0,0,1.65,3.724v4.571a.981.981,0,0,0,1.961,0v-3.3c1.293.489.546.36,15.734.36a5.619,5.619,0,0,0,1.993-.36v11.3a4.263,4.263,0,0,0-.95-.106h-5a3.962,3.962,0,0,0-1.935.468V53.163a.981.981,0,0,0-1.961,0v6.393a3.994,3.994,0,0,0-1.973-.482c-5.258,0-5.275-.037-5.91.108V55.1a.981.981,0,0,0-1.961,0v5.245c-.058.067-.114.136-.167.207A18.441,18.441,0,0,1,73.543,46.995Zm15.9,17.985H84.52a1.973,1.973,0,0,1,0-3.945h4.922a1.973,1.973,0,0,1,0,3.945Zm10.866,0h-5c-2.519,0-2.61-3.945,0-3.945h5C102.831,61.035,102.923,64.98,100.308,64.98Zm3.084-4.429c-.053-.071-.121-.157-.172-.215V46.6a5.622,5.622,0,0,0,1.65-3.722c1.6.4,3.292.7,4.137-.717.19-.01.386-.025.585-.043l-.33,1.413a2.842,2.842,0,0,0,1.986,3.459A18.455,18.455,0,0,1,103.392,60.551Zm9.743-16.129a1.007,1.007,0,0,1-1.964-.441l.507-2.172a20.532,20.532,0,0,0,2.212-.576Z" transform="translate(-67.79 0)"/>
        <path id="Trazado_1077520" data-name="Trazado 1077520" d="M187.019,151.715a.98.98,0,0,0,.981-.981v-1.569a.981.981,0,1,0-1.961,0v1.569A.981.981,0,0,0,187.019,151.715Z" transform="translate(-170.578 -128.811)"/>
        <path id="Trazado_1077521" data-name="Trazado 1077521" d="M311.916,151.715a.98.98,0,0,0,.981-.981v-1.569a.981.981,0,1,0-1.961,0v1.569A.98.98,0,0,0,311.916,151.715Z" transform="translate(-279.146 -128.811)"/>
        <path id="Trazado_1077522" data-name="Trazado 1077522" d="M235.154,162.769a3.835,3.835,0,0,0,2.892-1.317.981.981,0,0,0-1.479-1.288,1.872,1.872,0,0,1-2.827,0,.981.981,0,0,0-1.479,1.288,3.836,3.836,0,0,0,2.892,1.317Z" transform="translate(-210.549 -138.931)"/>
      </g>
    </g>
  </g>
</svg>
